<svg xmlns="http://www.w3.org/2000/svg" width="1020" height="600" viewBox="0 0 1020 600">
<style>text{font-family:Menlo,Monaco,monospace;font-size:12px;fill:#222} .axis{stroke:#333;stroke-width:1} .grid{stroke:#eee;stroke-width:0.5} .label{font-size:11px;fill:#444}</style>
<text x="510" y="28" text-anchor="middle" style="font-size:14px;font-weight:bold">FPR vs BPK — zipfian (60-bit keys, n=65536, L=1)</text>
<line class="axis" x1="90.0" y1="550.0" x2="870.0" y2="550.0"/>
<line class="axis" x1="90.0" y1="40.0" x2="90.0" y2="550.0"/>
<line class="grid" x1="90.0" y1="521.7" x2="870.0" y2="521.7"/>
<text class="label" x="82.0" y="525.7" text-anchor="end">10^-8</text>
<line class="grid" x1="90.0" y1="465.0" x2="870.0" y2="465.0"/>
<text class="label" x="82.0" y="469.0" text-anchor="end">10^-7</text>
<line class="grid" x1="90.0" y1="408.3" x2="870.0" y2="408.3"/>
<text class="label" x="82.0" y="412.3" text-anchor="end">10^-6</text>
<line class="grid" x1="90.0" y1="351.7" x2="870.0" y2="351.7"/>
<text class="label" x="82.0" y="355.7" text-anchor="end">10^-5</text>
<line class="grid" x1="90.0" y1="295.0" x2="870.0" y2="295.0"/>
<text class="label" x="82.0" y="299.0" text-anchor="end">10^-4</text>
<line class="grid" x1="90.0" y1="238.3" x2="870.0" y2="238.3"/>
<text class="label" x="82.0" y="242.3" text-anchor="end">10^-3</text>
<line class="grid" x1="90.0" y1="181.7" x2="870.0" y2="181.7"/>
<text class="label" x="82.0" y="185.7" text-anchor="end">10^-2</text>
<line class="grid" x1="90.0" y1="125.0" x2="870.0" y2="125.0"/>
<text class="label" x="82.0" y="129.0" text-anchor="end">10^-1</text>
<line class="grid" x1="90.0" y1="68.3" x2="870.0" y2="68.3"/>
<text class="label" x="82.0" y="72.3" text-anchor="end">1</text>
<line class="grid" x1="90.0" y1="40.0" x2="90.0" y2="550.0"/>
<text class="label" x="90.0" y="566.0" text-anchor="middle">0</text>
<line class="grid" x1="206.1" y1="40.0" x2="206.1" y2="550.0"/>
<text class="label" x="206.1" y="566.0" text-anchor="middle">5</text>
<line class="grid" x1="322.1" y1="40.0" x2="322.1" y2="550.0"/>
<text class="label" x="322.1" y="566.0" text-anchor="middle">10</text>
<line class="grid" x1="438.2" y1="40.0" x2="438.2" y2="550.0"/>
<text class="label" x="438.2" y="566.0" text-anchor="middle">15</text>
<line class="grid" x1="554.3" y1="40.0" x2="554.3" y2="550.0"/>
<text class="label" x="554.3" y="566.0" text-anchor="middle">20</text>
<line class="grid" x1="670.4" y1="40.0" x2="670.4" y2="550.0"/>
<text class="label" x="670.4" y="566.0" text-anchor="middle">25</text>
<line class="grid" x1="786.4" y1="40.0" x2="786.4" y2="550.0"/>
<text class="label" x="786.4" y="566.0" text-anchor="middle">30</text>
<polyline fill="none" stroke="#ef4444" stroke-width="2" stroke-dasharray="8,5" points="182.9,136.6 206.1,153.6 229.3,170.7 252.5,187.7 275.7,204.8 298.9,221.9 322.1,238.9 345.4,256.0 368.6,273.0 391.8,290.1 415.0,307.2 438.2,324.2 461.4,341.3 484.6,358.3 507.9,375.4 531.1,392.4 554.3,409.5 600.7,443.6 647.1,477.7 740.0,546.0 832.9,614.2"/>
<circle cx="182.9" cy="136.6" r="3" fill="#ef4444"/>
<circle cx="206.1" cy="153.6" r="3" fill="#ef4444"/>
<circle cx="229.3" cy="170.7" r="3" fill="#ef4444"/>
<circle cx="252.5" cy="187.7" r="3" fill="#ef4444"/>
<circle cx="275.7" cy="204.8" r="3" fill="#ef4444"/>
<circle cx="298.9" cy="221.9" r="3" fill="#ef4444"/>
<circle cx="322.1" cy="238.9" r="3" fill="#ef4444"/>
<circle cx="345.4" cy="256.0" r="3" fill="#ef4444"/>
<circle cx="368.6" cy="273.0" r="3" fill="#ef4444"/>
<circle cx="391.8" cy="290.1" r="3" fill="#ef4444"/>
<circle cx="415.0" cy="307.2" r="3" fill="#ef4444"/>
<circle cx="438.2" cy="324.2" r="3" fill="#ef4444"/>
<circle cx="461.4" cy="341.3" r="3" fill="#ef4444"/>
<circle cx="484.6" cy="358.3" r="3" fill="#ef4444"/>
<circle cx="507.9" cy="375.4" r="3" fill="#ef4444"/>
<circle cx="531.1" cy="392.4" r="3" fill="#ef4444"/>
<circle cx="554.3" cy="409.5" r="3" fill="#ef4444"/>
<circle cx="600.7" cy="443.6" r="3" fill="#ef4444"/>
<circle cx="647.1" cy="477.7" r="3" fill="#ef4444"/>
<circle cx="740.0" cy="546.0" r="3" fill="#ef4444"/>
<circle cx="832.9" cy="614.2" r="3" fill="#ef4444"/>
<polyline fill="none" stroke="#1a6b3c" stroke-width="2" points="189.7,105.8 241.5,138.9 290.1,172.5 337.3,199.7 384.0,232.5 437.8,296.4 484.3,337.4 530.2,358.2 576.8,521.7"/>
<polygon points="189.7,101.8 193.7,105.8 189.7,109.8 185.7,105.8" fill="#1a6b3c"/>
<polygon points="241.5,134.9 245.5,138.9 241.5,142.9 237.5,138.9" fill="#1a6b3c"/>
<polygon points="290.1,168.5 294.1,172.5 290.1,176.5 286.1,172.5" fill="#1a6b3c"/>
<polygon points="337.3,195.7 341.3,199.7 337.3,203.7 333.3,199.7" fill="#1a6b3c"/>
<polygon points="384.0,228.5 388.0,232.5 384.0,236.5 380.0,232.5" fill="#1a6b3c"/>
<polygon points="437.8,292.4 441.8,296.4 437.8,300.4 433.8,296.4" fill="#1a6b3c"/>
<polygon points="484.3,333.4 488.3,337.4 484.3,341.4 480.3,337.4" fill="#1a6b3c"/>
<polygon points="530.2,354.2 534.2,358.2 530.2,362.2 526.2,358.2" fill="#1a6b3c"/>
<polygon points="576.8,517.7 580.8,521.7 576.8,525.7 572.8,521.7" fill="#1a6b3c"/>
<polyline fill="none" stroke="#1a3a6b" stroke-width="2" points="168.7,73.8 215.1,73.8 261.5,73.8 308.0,73.8 354.4,73.8 400.8,73.8 447.2,73.8 493.7,73.8 540.1,73.8"/>
<polygon points="168.7,68.8 167.5,72.2 163.9,72.2 166.8,74.4 165.7,77.8 168.7,75.8 171.6,77.8 170.6,74.4 173.4,72.2 169.8,72.2" fill="#1a3a6b"/>
<polygon points="215.1,68.8 213.9,72.2 210.3,72.3 213.2,74.4 212.1,77.8 215.1,75.8 218.0,77.8 217.0,74.4 219.8,72.3 216.2,72.2" fill="#1a3a6b"/>
<polygon points="261.5,68.8 260.4,72.2 256.8,72.3 259.6,74.4 258.6,77.8 261.5,75.8 264.5,77.8 263.4,74.4 266.3,72.3 262.7,72.2" fill="#1a3a6b"/>
<polygon points="308.0,68.8 306.8,72.2 303.2,72.3 306.1,74.4 305.0,77.8 308.0,75.8 310.9,77.8 309.9,74.4 312.7,72.3 309.2,72.2" fill="#1a3a6b"/>
<polygon points="354.4,68.8 353.2,72.2 349.6,72.3 352.5,74.4 351.4,77.8 354.4,75.8 357.3,77.8 356.3,74.4 359.1,72.3 355.6,72.2" fill="#1a3a6b"/>
<polygon points="400.8,68.8 399.6,72.2 396.0,72.3 398.9,74.4 397.8,77.8 400.8,75.8 403.7,77.8 402.7,74.4 405.5,72.3 402.0,72.2" fill="#1a3a6b"/>
<polygon points="447.2,68.8 446.1,72.2 442.5,72.3 445.3,74.4 444.3,77.8 447.2,75.8 450.2,77.8 449.1,74.4 452.0,72.3 448.4,72.2" fill="#1a3a6b"/>
<polygon points="493.7,68.8 492.5,72.2 488.9,72.3 491.8,74.4 490.8,77.8 493.7,75.8 496.6,77.8 495.6,74.4 498.4,72.3 494.9,72.2" fill="#1a3a6b"/>
<polygon points="540.1,68.8 538.9,72.2 535.3,72.3 538.2,74.4 537.2,77.8 540.1,75.8 543.0,77.8 542.0,74.4 544.8,72.3 541.3,72.2" fill="#1a3a6b"/>
<polyline fill="none" stroke="#111111" stroke-width="2" points="393.0,99.1"/>
<rect x="390.0" y="96.1" width="6" height="6" fill="#111111"/>
<polyline fill="none" stroke="#111111" stroke-width="2" points="597.6,99.1"/>
<polygon points="597.6,95.1 601.6,102.1 593.6,102.1" fill="#111111"/>
<polyline fill="none" stroke="#111111" stroke-width="2" points="597.6,521.7"/>
<polygon points="597.6,517.7 601.6,521.7 597.6,525.7 593.6,521.7" fill="#111111"/>
<polyline fill="none" stroke="#2a7fff" stroke-width="2" points="90.0,68.3 90.0,68.3 90.1,68.3 90.1,68.3 90.3,68.3 90.5,68.3 91.1,68.3 92.2,68.3 94.4,68.3 98.7,68.4 107.2,68.8 121.7,72.0 142.6,79.7 168.2,91.4 195.6,105.8 222.6,121.8 248.6,139.0 297.5,169.4 344.8,197.9 438.2,314.8 531.1,402.3"/>
<rect x="87.0" y="65.3" width="6" height="6" fill="#2a7fff"/>
<rect x="87.0" y="65.3" width="6" height="6" fill="#2a7fff"/>
<rect x="87.1" y="65.3" width="6" height="6" fill="#2a7fff"/>
<rect x="87.1" y="65.3" width="6" height="6" fill="#2a7fff"/>
<rect x="87.3" y="65.3" width="6" height="6" fill="#2a7fff"/>
<rect x="87.5" y="65.3" width="6" height="6" fill="#2a7fff"/>
<rect x="88.1" y="65.3" width="6" height="6" fill="#2a7fff"/>
<rect x="89.2" y="65.3" width="6" height="6" fill="#2a7fff"/>
<rect x="91.4" y="65.3" width="6" height="6" fill="#2a7fff"/>
<rect x="95.7" y="65.4" width="6" height="6" fill="#2a7fff"/>
<rect x="104.2" y="65.8" width="6" height="6" fill="#2a7fff"/>
<rect x="118.7" y="69.0" width="6" height="6" fill="#2a7fff"/>
<rect x="139.6" y="76.7" width="6" height="6" fill="#2a7fff"/>
<rect x="165.2" y="88.4" width="6" height="6" fill="#2a7fff"/>
<rect x="192.6" y="102.8" width="6" height="6" fill="#2a7fff"/>
<rect x="219.6" y="118.8" width="6" height="6" fill="#2a7fff"/>
<rect x="245.6" y="136.0" width="6" height="6" fill="#2a7fff"/>
<rect x="294.5" y="166.4" width="6" height="6" fill="#2a7fff"/>
<rect x="341.8" y="194.9" width="6" height="6" fill="#2a7fff"/>
<rect x="435.2" y="311.8" width="6" height="6" fill="#2a7fff"/>
<rect x="528.1" y="399.3" width="6" height="6" fill="#2a7fff"/>
<polyline fill="none" stroke="#9b59b6" stroke-width="2" points="90.0,68.3 90.0,68.5 90.1,69.6 90.1,70.7 90.1,71.9 90.2,72.8 90.2,73.3 90.3,73.6 90.3,73.7 90.3,73.8 90.4,73.8 90.4,73.8 90.4,73.8 90.5,73.8 90.5,73.8 90.5,73.8 90.6,73.8 90.6,73.8 90.7,73.8 90.9,73.8 91.0,73.8"/>
<polygon points="90.0,64.3 94.0,71.3 86.0,71.3" fill="#9b59b6"/>
<polygon points="90.0,64.5 94.0,71.5 86.0,71.5" fill="#9b59b6"/>
<polygon points="90.1,65.6 94.1,72.6 86.1,72.6" fill="#9b59b6"/>
<polygon points="90.1,66.7 94.1,73.7 86.1,73.7" fill="#9b59b6"/>
<polygon points="90.1,67.9 94.1,74.9 86.1,74.9" fill="#9b59b6"/>
<polygon points="90.2,68.8 94.2,75.8 86.2,75.8" fill="#9b59b6"/>
<polygon points="90.2,69.3 94.2,76.3 86.2,76.3" fill="#9b59b6"/>
<polygon points="90.3,69.6 94.3,76.6 86.3,76.6" fill="#9b59b6"/>
<polygon points="90.3,69.7 94.3,76.7 86.3,76.7" fill="#9b59b6"/>
<polygon points="90.3,69.8 94.3,76.8 86.3,76.8" fill="#9b59b6"/>
<polygon points="90.4,69.8 94.4,76.8 86.4,76.8" fill="#9b59b6"/>
<polygon points="90.4,69.8 94.4,76.8 86.4,76.8" fill="#9b59b6"/>
<polygon points="90.4,69.8 94.4,76.8 86.4,76.8" fill="#9b59b6"/>
<polygon points="90.5,69.8 94.5,76.8 86.5,76.8" fill="#9b59b6"/>
<polygon points="90.5,69.8 94.5,76.8 86.5,76.8" fill="#9b59b6"/>
<polygon points="90.5,69.8 94.5,76.8 86.5,76.8" fill="#9b59b6"/>
<polygon points="90.6,69.8 94.6,76.8 86.6,76.8" fill="#9b59b6"/>
<polygon points="90.6,69.8 94.6,76.8 86.6,76.8" fill="#9b59b6"/>
<polygon points="90.7,69.8 94.7,76.8 86.7,76.8" fill="#9b59b6"/>
<polygon points="90.9,69.8 94.9,76.8 86.9,76.8" fill="#9b59b6"/>
<polygon points="91.0,69.8 95.0,76.8 87.0,76.8" fill="#9b59b6"/>
<polyline fill="none" stroke="#4dd88a" stroke-width="2" points="90.0,68.3 90.0,68.3 90.1,68.3 90.1,68.3 90.3,68.3 90.5,68.3 91.1,68.3 92.2,68.3 94.4,68.3 98.7,68.3 107.2,68.8 121.7,72.0 142.6,79.7 168.2,91.4 195.6,105.8 222.6,121.8 248.6,139.0 297.5,169.3 344.8,197.9 438.2,314.8 531.1,402.3"/>
<polygon points="90.0,64.3 94.0,68.3 90.0,72.3 86.0,68.3" fill="#4dd88a"/>
<polygon points="90.0,64.3 94.0,68.3 90.0,72.3 86.0,68.3" fill="#4dd88a"/>
<polygon points="90.1,64.3 94.1,68.3 90.1,72.3 86.1,68.3" fill="#4dd88a"/>
<polygon points="90.1,64.3 94.1,68.3 90.1,72.3 86.1,68.3" fill="#4dd88a"/>
<polygon points="90.3,64.3 94.3,68.3 90.3,72.3 86.3,68.3" fill="#4dd88a"/>
<polygon points="90.5,64.3 94.5,68.3 90.5,72.3 86.5,68.3" fill="#4dd88a"/>
<polygon points="91.1,64.3 95.1,68.3 91.1,72.3 87.1,68.3" fill="#4dd88a"/>
<polygon points="92.2,64.3 96.2,68.3 92.2,72.3 88.2,68.3" fill="#4dd88a"/>
<polygon points="94.4,64.3 98.4,68.3 94.4,72.3 90.4,68.3" fill="#4dd88a"/>
<polygon points="98.7,64.3 102.7,68.3 98.7,72.3 94.7,68.3" fill="#4dd88a"/>
<polygon points="107.2,64.8 111.2,68.8 107.2,72.8 103.2,68.8" fill="#4dd88a"/>
<polygon points="121.7,68.0 125.7,72.0 121.7,76.0 117.7,72.0" fill="#4dd88a"/>
<polygon points="142.6,75.7 146.6,79.7 142.6,83.7 138.6,79.7" fill="#4dd88a"/>
<polygon points="168.2,87.4 172.2,91.4 168.2,95.4 164.2,91.4" fill="#4dd88a"/>
<polygon points="195.6,101.8 199.6,105.8 195.6,109.8 191.6,105.8" fill="#4dd88a"/>
<polygon points="222.6,117.8 226.6,121.8 222.6,125.8 218.6,121.8" fill="#4dd88a"/>
<polygon points="248.6,135.0 252.6,139.0 248.6,143.0 244.6,139.0" fill="#4dd88a"/>
<polygon points="297.5,165.3 301.5,169.3 297.5,173.3 293.5,169.3" fill="#4dd88a"/>
<polygon points="344.8,193.9 348.8,197.9 344.8,201.9 340.8,197.9" fill="#4dd88a"/>
<polygon points="438.2,310.8 442.2,314.8 438.2,318.8 434.2,314.8" fill="#4dd88a"/>
<polygon points="531.1,398.3 535.1,402.3 531.1,406.3 527.1,402.3" fill="#4dd88a"/>
<polyline fill="none" stroke="#ff6b6b" stroke-width="2" points="90.6,69.1 90.8,69.2 91.2,70.1 91.9,71.0 93.3,72.1 96.1,72.9 101.5,73.5 111.4,75.5 126.2,81.7 146.4,92.3 167.6,106.0 188.7,121.5 209.4,138.4 229.4,156.8 249.0,177.1 268.2,204.2 287.1,348.2 287.2,402.3 287.3,521.7 287.4,521.7 287.5,521.7"/>
<polygon points="90.6,64.1 89.5,67.5 85.9,67.5 88.7,69.7 87.7,73.1 90.6,71.1 93.6,73.1 92.5,69.7 95.4,67.5 91.8,67.5" fill="#ff6b6b"/>
<polygon points="90.8,64.2 89.6,67.6 86.1,67.7 88.9,69.9 87.9,73.3 90.8,71.2 93.8,73.3 92.7,69.9 95.6,67.7 92.0,67.6" fill="#ff6b6b"/>
<polygon points="91.2,65.1 90.0,68.4 86.4,68.5 89.3,70.7 88.2,74.1 91.2,72.1 94.1,74.1 93.1,70.7 95.9,68.5 92.4,68.4" fill="#ff6b6b"/>
<polygon points="91.9,66.0 90.7,69.4 87.1,69.5 90.0,71.7 89.0,75.1 91.9,73.0 94.8,75.1 93.8,71.7 96.7,69.5 93.1,69.4" fill="#ff6b6b"/>
<polygon points="93.3,67.1 92.1,70.5 88.5,70.5 91.4,72.7 90.4,76.1 93.3,74.1 96.2,76.1 95.2,72.7 98.1,70.5 94.5,70.5" fill="#ff6b6b"/>
<polygon points="96.1,67.9 94.9,71.3 91.3,71.3 94.2,73.5 93.1,76.9 96.1,74.9 99.0,76.9 98.0,73.5 100.8,71.3 97.2,71.3" fill="#ff6b6b"/>
<polygon points="101.5,68.5 100.3,71.8 96.7,71.9 99.6,74.1 98.6,77.5 101.5,75.5 104.4,77.5 103.4,74.1 106.3,71.9 102.7,71.8" fill="#ff6b6b"/>
<polygon points="111.4,70.5 110.2,73.9 106.6,73.9 109.5,76.1 108.4,79.5 111.4,77.5 114.3,79.5 113.3,76.1 116.1,73.9 112.5,73.9" fill="#ff6b6b"/>
<polygon points="126.2,76.7 125.0,80.1 121.4,80.2 124.3,82.4 123.2,85.8 126.2,83.7 129.1,85.8 128.1,82.4 130.9,80.2 127.3,80.1" fill="#ff6b6b"/>
<polygon points="146.4,87.3 145.2,90.7 141.7,90.8 144.5,92.9 143.5,96.4 146.4,94.3 149.4,96.4 148.3,92.9 151.2,90.8 147.6,90.7" fill="#ff6b6b"/>
<polygon points="167.6,101.0 166.4,104.3 162.8,104.4 165.7,106.6 164.6,110.0 167.6,108.0 170.5,110.0 169.5,106.6 172.3,104.4 168.7,104.3" fill="#ff6b6b"/>
<polygon points="188.7,116.5 187.5,119.9 183.9,119.9 186.8,122.1 185.7,125.5 188.7,123.5 191.6,125.5 190.6,122.1 193.4,119.9 189.9,119.9" fill="#ff6b6b"/>
<polygon points="209.4,133.4 208.2,136.8 204.6,136.9 207.5,139.1 206.4,142.5 209.4,140.4 212.3,142.5 211.3,139.1 214.1,136.9 210.6,136.8" fill="#ff6b6b"/>
<polygon points="229.4,151.8 228.2,155.2 224.6,155.2 227.5,157.4 226.5,160.8 229.4,158.8 232.3,160.8 231.3,157.4 234.1,155.2 230.6,155.2" fill="#ff6b6b"/>
<polygon points="249.0,172.1 247.8,175.5 244.2,175.6 247.1,177.7 246.0,181.2 249.0,179.1 251.9,181.2 250.9,177.7 253.7,175.6 250.2,175.5" fill="#ff6b6b"/>
<polygon points="268.2,199.2 267.0,202.6 263.4,202.7 266.3,204.8 265.2,208.3 268.2,206.2 271.1,208.3 270.1,204.8 272.9,202.7 269.4,202.6" fill="#ff6b6b"/>
<polygon points="287.1,343.2 286.0,346.6 282.4,346.7 285.2,348.9 284.2,352.3 287.1,350.2 290.1,352.3 289.0,348.9 291.9,346.7 288.3,346.6" fill="#ff6b6b"/>
<polygon points="287.2,397.3 286.0,400.7 282.4,400.8 285.3,402.9 284.3,406.4 287.2,404.3 290.1,406.4 289.1,402.9 292.0,400.8 288.4,400.7" fill="#ff6b6b"/>
<polygon points="287.3,516.7 286.1,520.0 282.5,520.1 285.4,522.3 284.3,525.7 287.3,523.7 290.2,525.7 289.2,522.3 292.0,520.1 288.4,520.0" fill="#ff6b6b"/>
<polygon points="287.4,516.7 286.2,520.0 282.6,520.1 285.5,522.3 284.5,525.7 287.4,523.7 290.3,525.7 289.3,522.3 292.1,520.1 288.6,520.0" fill="#ff6b6b"/>
<polygon points="287.5,516.7 286.3,520.0 282.8,520.1 285.6,522.3 284.6,525.7 287.5,523.7 290.5,525.7 289.4,522.3 292.3,520.1 288.7,520.0" fill="#ff6b6b"/>
<polyline fill="none" stroke="#ff922b" stroke-width="2" points="278.4,125.2 302.5,140.2 325.4,154.4 347.6,166.3 369.3,175.9 390.7,181.7 411.7,181.8 432.8,181.8 474.8,181.8 495.8,181.8"/>
<circle cx="278.4" cy="125.2" r="3" fill="#ff922b"/>
<circle cx="302.5" cy="140.2" r="3" fill="#ff922b"/>
<circle cx="325.4" cy="154.4" r="3" fill="#ff922b"/>
<circle cx="347.6" cy="166.3" r="3" fill="#ff922b"/>
<circle cx="369.3" cy="175.9" r="3" fill="#ff922b"/>
<circle cx="390.7" cy="181.7" r="3" fill="#ff922b"/>
<circle cx="411.7" cy="181.8" r="3" fill="#ff922b"/>
<circle cx="432.8" cy="181.8" r="3" fill="#ff922b"/>
<circle cx="474.8" cy="181.8" r="3" fill="#ff922b"/>
<circle cx="495.8" cy="181.8" r="3" fill="#ff922b"/>
<polyline fill="none" stroke="#888888" stroke-width="2" stroke-dasharray="8,5" points="201.3,124.5 234.7,141.6 279.0,164.7 312.5,181.6 346.0,198.6 390.3,218.9 423.8,240.6 457.3,254.9 501.5,276.4 535.0,302.4"/>
<circle cx="201.3" cy="124.5" r="3" fill="#888888"/>
<circle cx="234.7" cy="141.6" r="3" fill="#888888"/>
<circle cx="279.0" cy="164.7" r="3" fill="#888888"/>
<circle cx="312.5" cy="181.6" r="3" fill="#888888"/>
<circle cx="346.0" cy="198.6" r="3" fill="#888888"/>
<circle cx="390.3" cy="218.9" r="3" fill="#888888"/>
<circle cx="423.8" cy="240.6" r="3" fill="#888888"/>
<circle cx="457.3" cy="254.9" r="3" fill="#888888"/>
<circle cx="501.5" cy="276.4" r="3" fill="#888888"/>
<circle cx="535.0" cy="302.4" r="3" fill="#888888"/>
<line x1="886" y1="60" x2="902" y2="60" stroke="#ef4444" stroke-width="2" stroke-dasharray="8,5"/>
<circle cx="894.0" cy="60.0" r="3" fill="#ef4444"/>
<text class="label" x="908" y="64">Theoretical</text>
<line x1="886" y1="78" x2="902" y2="78" stroke="#1a6b3c" stroke-width="2"/>
<polygon points="894.0,74.0 898.0,78.0 894.0,82.0 890.0,78.0" fill="#1a6b3c"/>
<text class="label" x="908" y="82">Grafite</text>
<line x1="886" y1="96" x2="902" y2="96" stroke="#1a3a6b" stroke-width="2"/>
<polygon points="894.0,91.0 892.8,94.4 889.2,94.5 892.1,96.6 891.1,100.0 894.0,98.0 896.9,100.0 895.9,96.6 898.8,94.5 895.2,94.4" fill="#1a3a6b"/>
<text class="label" x="908" y="100">SNARF</text>
<line x1="886" y1="114" x2="902" y2="114" stroke="#111111" stroke-width="2"/>
<rect x="891.0" y="111.0" width="6" height="6" fill="#111111"/>
<text class="label" x="908" y="118">SuRF</text>
<line x1="886" y1="132" x2="902" y2="132" stroke="#111111" stroke-width="2"/>
<polygon points="894.0,128.0 898.0,135.0 890.0,135.0" fill="#111111"/>
<text class="label" x="908" y="136">SuRFHash(8)</text>
<line x1="886" y1="150" x2="902" y2="150" stroke="#111111" stroke-width="2"/>
<polygon points="894.0,146.0 898.0,150.0 894.0,154.0 890.0,150.0" fill="#111111"/>
<text class="label" x="908" y="154">SuRFReal(8)</text>
<line x1="886" y1="168" x2="902" y2="168" stroke="#2a7fff" stroke-width="2"/>
<rect x="891.0" y="165.0" width="6" height="6" fill="#2a7fff"/>
<text class="label" x="908" y="172">Adaptive (t=0)</text>
<line x1="886" y1="186" x2="902" y2="186" stroke="#9b59b6" stroke-width="2"/>
<polygon points="894.0,182.0 898.0,189.0 890.0,189.0" fill="#9b59b6"/>
<text class="label" x="908" y="190">Truncation</text>
<line x1="886" y1="204" x2="902" y2="204" stroke="#4dd88a" stroke-width="2"/>
<polygon points="894.0,200.0 898.0,204.0 894.0,208.0 890.0,204.0" fill="#4dd88a"/>
<text class="label" x="908" y="208">SODA</text>
<line x1="886" y1="222" x2="902" y2="222" stroke="#ff6b6b" stroke-width="2"/>
<polygon points="894.0,217.0 892.8,220.4 889.2,220.5 892.1,222.6 891.1,226.0 894.0,224.0 896.9,226.0 895.9,222.6 898.8,220.5 895.2,220.4" fill="#ff6b6b"/>
<text class="label" x="908" y="226">Hybrid</text>
<line x1="886" y1="240" x2="902" y2="240" stroke="#ff922b" stroke-width="2"/>
<circle cx="894.0" cy="240.0" r="3" fill="#ff922b"/>
<text class="label" x="908" y="244">CDF-ARE</text>
<line x1="886" y1="258" x2="902" y2="258" stroke="#888888" stroke-width="2" stroke-dasharray="8,5"/>
<circle cx="894.0" cy="258.0" r="3" fill="#888888"/>
<text class="label" x="908" y="262">BloomARE</text>
<text x="480" y="590" text-anchor="middle">Bits per Key (BPK)</text>
<text transform="translate(16,295) rotate(-90)" text-anchor="middle">False Positive Rate (FPR)</text>
</svg>
