<svg xmlns="http://www.w3.org/2000/svg" width="1020" height="600" viewBox="0 0 1020 600">
<style>text{font-family:Menlo,Monaco,monospace;font-size:12px;fill:#222} .axis{stroke:#333;stroke-width:1} .grid{stroke:#eee;stroke-width:0.5} .label{font-size:11px;fill:#444}</style>
<text x="510" y="28" text-anchor="middle" style="font-size:14px;font-weight:bold">FPR vs BPK — zipfian (60-bit keys, n=65536, L=1024)</text>
<line class="axis" x1="90.0" y1="550.0" x2="870.0" y2="550.0"/>
<line class="axis" x1="90.0" y1="40.0" x2="90.0" y2="550.0"/>
<line class="grid" x1="90.0" y1="521.7" x2="870.0" y2="521.7"/>
<text class="label" x="82.0" y="525.7" text-anchor="end">10^-8</text>
<line class="grid" x1="90.0" y1="465.0" x2="870.0" y2="465.0"/>
<text class="label" x="82.0" y="469.0" text-anchor="end">10^-7</text>
<line class="grid" x1="90.0" y1="408.3" x2="870.0" y2="408.3"/>
<text class="label" x="82.0" y="412.3" text-anchor="end">10^-6</text>
<line class="grid" x1="90.0" y1="351.7" x2="870.0" y2="351.7"/>
<text class="label" x="82.0" y="355.7" text-anchor="end">10^-5</text>
<line class="grid" x1="90.0" y1="295.0" x2="870.0" y2="295.0"/>
<text class="label" x="82.0" y="299.0" text-anchor="end">10^-4</text>
<line class="grid" x1="90.0" y1="238.3" x2="870.0" y2="238.3"/>
<text class="label" x="82.0" y="242.3" text-anchor="end">10^-3</text>
<line class="grid" x1="90.0" y1="181.7" x2="870.0" y2="181.7"/>
<text class="label" x="82.0" y="185.7" text-anchor="end">10^-2</text>
<line class="grid" x1="90.0" y1="125.0" x2="870.0" y2="125.0"/>
<text class="label" x="82.0" y="129.0" text-anchor="end">10^-1</text>
<line class="grid" x1="90.0" y1="68.3" x2="870.0" y2="68.3"/>
<text class="label" x="82.0" y="72.3" text-anchor="end">1</text>
<line class="grid" x1="90.0" y1="40.0" x2="90.0" y2="550.0"/>
<text class="label" x="90.0" y="566.0" text-anchor="middle">0</text>
<line class="grid" x1="200.6" y1="40.0" x2="200.6" y2="550.0"/>
<text class="label" x="200.6" y="566.0" text-anchor="middle">5</text>
<line class="grid" x1="311.1" y1="40.0" x2="311.1" y2="550.0"/>
<text class="label" x="311.1" y="566.0" text-anchor="middle">10</text>
<line class="grid" x1="421.7" y1="40.0" x2="421.7" y2="550.0"/>
<text class="label" x="421.7" y="566.0" text-anchor="middle">15</text>
<line class="grid" x1="532.2" y1="40.0" x2="532.2" y2="550.0"/>
<text class="label" x="532.2" y="566.0" text-anchor="middle">20</text>
<line class="grid" x1="642.8" y1="40.0" x2="642.8" y2="550.0"/>
<text class="label" x="642.8" y="566.0" text-anchor="middle">25</text>
<line class="grid" x1="753.3" y1="40.0" x2="753.3" y2="550.0"/>
<text class="label" x="753.3" y="566.0" text-anchor="middle">30</text>
<line class="grid" x1="863.9" y1="40.0" x2="863.9" y2="550.0"/>
<text class="label" x="863.9" y="566.0" text-anchor="middle">35</text>
<polyline fill="none" stroke="#ef4444" stroke-width="2" stroke-dasharray="8,5" points="311.1,68.3 333.2,85.4 355.3,102.5 377.4,119.5 399.6,136.6 421.7,153.6 443.8,170.7 465.9,187.7 488.0,204.8 510.1,221.9 532.2,238.9 576.4,273.0 620.7,307.2 709.1,375.4 797.5,443.6"/>
<circle cx="311.1" cy="68.3" r="3" fill="#ef4444"/>
<circle cx="333.2" cy="85.4" r="3" fill="#ef4444"/>
<circle cx="355.3" cy="102.5" r="3" fill="#ef4444"/>
<circle cx="377.4" cy="119.5" r="3" fill="#ef4444"/>
<circle cx="399.6" cy="136.6" r="3" fill="#ef4444"/>
<circle cx="421.7" cy="153.6" r="3" fill="#ef4444"/>
<circle cx="443.8" cy="170.7" r="3" fill="#ef4444"/>
<circle cx="465.9" cy="187.7" r="3" fill="#ef4444"/>
<circle cx="488.0" cy="204.8" r="3" fill="#ef4444"/>
<circle cx="510.1" cy="221.9" r="3" fill="#ef4444"/>
<circle cx="532.2" cy="238.9" r="3" fill="#ef4444"/>
<circle cx="576.4" cy="273.0" r="3" fill="#ef4444"/>
<circle cx="620.7" cy="307.2" r="3" fill="#ef4444"/>
<circle cx="709.1" cy="375.4" r="3" fill="#ef4444"/>
<circle cx="797.5" cy="443.6" r="3" fill="#ef4444"/>
<polyline fill="none" stroke="#1a6b3c" stroke-width="2" points="185.1,68.3 234.3,68.3 280.5,68.4 325.5,76.9 370.1,98.7 421.3,130.1 464.5,163.2 509.7,198.9 553.7,230.6"/>
<polygon points="185.1,64.3 189.1,68.3 185.1,72.3 181.1,68.3" fill="#1a6b3c"/>
<polygon points="234.3,64.3 238.3,68.3 234.3,72.3 230.3,68.3" fill="#1a6b3c"/>
<polygon points="280.5,64.4 284.5,68.4 280.5,72.4 276.5,68.4" fill="#1a6b3c"/>
<polygon points="325.5,72.9 329.5,76.9 325.5,80.9 321.5,76.9" fill="#1a6b3c"/>
<polygon points="370.1,94.7 374.1,98.7 370.1,102.7 366.1,98.7" fill="#1a6b3c"/>
<polygon points="421.3,126.1 425.3,130.1 421.3,134.1 417.3,130.1" fill="#1a6b3c"/>
<polygon points="464.5,159.2 468.5,163.2 464.5,167.2 460.5,163.2" fill="#1a6b3c"/>
<polygon points="509.7,194.9 513.7,198.9 509.7,202.9 505.7,198.9" fill="#1a6b3c"/>
<polygon points="553.7,226.6 557.7,230.6 553.7,234.6 549.7,230.6" fill="#1a6b3c"/>
<polyline fill="none" stroke="#1a3a6b" stroke-width="2" points="164.9,153.2 209.1,153.7 253.4,153.9 297.6,153.9 341.8,153.9 386.0,153.9 430.3,153.9 474.5,153.9 518.7,153.9"/>
<polygon points="164.9,148.2 163.7,151.6 160.2,151.6 163.0,153.8 162.0,157.2 164.9,155.2 167.9,157.2 166.8,153.8 169.7,151.6 166.1,151.6" fill="#1a3a6b"/>
<polygon points="209.1,148.7 207.9,152.1 204.4,152.2 207.2,154.4 206.2,157.8 209.1,155.7 212.1,157.8 211.0,154.4 213.9,152.2 210.3,152.1" fill="#1a3a6b"/>
<polygon points="253.4,148.9 252.2,152.3 248.6,152.3 251.5,154.5 250.4,157.9 253.4,155.9 256.3,157.9 255.3,154.5 258.1,152.3 254.5,152.3" fill="#1a3a6b"/>
<polygon points="297.6,148.9 296.4,152.3 292.9,152.4 295.7,154.5 294.7,157.9 297.6,155.9 300.6,157.9 299.5,154.5 302.4,152.4 298.8,152.3" fill="#1a3a6b"/>
<polygon points="341.8,148.9 340.6,152.3 337.1,152.4 339.9,154.5 338.9,157.9 341.8,155.9 344.7,157.9 343.7,154.5 346.6,152.4 343.0,152.3" fill="#1a3a6b"/>
<polygon points="386.0,148.9 384.8,152.3 381.2,152.4 384.1,154.5 383.1,157.9 386.0,155.9 388.9,157.9 387.9,154.5 390.8,152.4 387.2,152.3" fill="#1a3a6b"/>
<polygon points="430.3,148.9 429.1,152.3 425.5,152.4 428.4,154.5 427.3,157.9 430.3,155.9 433.2,157.9 432.2,154.5 435.0,152.4 431.4,152.3" fill="#1a3a6b"/>
<polygon points="474.5,148.9 473.3,152.3 469.7,152.4 472.6,154.5 471.6,157.9 474.5,155.9 477.4,157.9 476.4,154.5 479.3,152.4 475.7,152.3" fill="#1a3a6b"/>
<polygon points="518.7,148.9 517.5,152.3 513.9,152.4 516.8,154.5 515.8,157.9 518.7,155.9 521.6,157.9 520.6,154.5 523.5,152.4 519.9,152.3" fill="#1a3a6b"/>
<polyline fill="none" stroke="#111111" stroke-width="2" points="378.6,179.2"/>
<rect x="375.6" y="176.2" width="6" height="6" fill="#111111"/>
<polyline fill="none" stroke="#111111" stroke-width="2" points="573.5,179.2"/>
<polygon points="573.5,175.2 577.5,182.2 569.5,182.2" fill="#111111"/>
<polyline fill="none" stroke="#111111" stroke-width="2" points="573.5,521.7"/>
<polygon points="573.5,517.7 577.5,521.7 573.5,525.7 569.5,521.7" fill="#111111"/>
<polyline fill="none" stroke="#2a7fff" stroke-width="2" points="90.0,68.4 90.0,68.4 90.1,68.4 90.1,68.4 90.3,68.4 90.5,68.4 91.0,68.4 92.1,68.4 94.1,68.4 98.3,68.4 106.4,68.4 120.2,68.4 140.1,68.4 164.5,68.4 190.6,68.4 216.3,68.4 241.0,68.4 287.6,68.5 332.7,76.6 421.7,129.8 510.1,199.3"/>
<rect x="87.0" y="65.4" width="6" height="6" fill="#2a7fff"/>
<rect x="87.0" y="65.4" width="6" height="6" fill="#2a7fff"/>
<rect x="87.1" y="65.4" width="6" height="6" fill="#2a7fff"/>
<rect x="87.1" y="65.4" width="6" height="6" fill="#2a7fff"/>
<rect x="87.3" y="65.4" width="6" height="6" fill="#2a7fff"/>
<rect x="87.5" y="65.4" width="6" height="6" fill="#2a7fff"/>
<rect x="88.0" y="65.4" width="6" height="6" fill="#2a7fff"/>
<rect x="89.1" y="65.4" width="6" height="6" fill="#2a7fff"/>
<rect x="91.1" y="65.4" width="6" height="6" fill="#2a7fff"/>
<rect x="95.3" y="65.4" width="6" height="6" fill="#2a7fff"/>
<rect x="103.4" y="65.4" width="6" height="6" fill="#2a7fff"/>
<rect x="117.2" y="65.4" width="6" height="6" fill="#2a7fff"/>
<rect x="137.1" y="65.4" width="6" height="6" fill="#2a7fff"/>
<rect x="161.5" y="65.4" width="6" height="6" fill="#2a7fff"/>
<rect x="187.6" y="65.4" width="6" height="6" fill="#2a7fff"/>
<rect x="213.3" y="65.4" width="6" height="6" fill="#2a7fff"/>
<rect x="238.0" y="65.4" width="6" height="6" fill="#2a7fff"/>
<rect x="284.6" y="65.5" width="6" height="6" fill="#2a7fff"/>
<rect x="329.7" y="73.6" width="6" height="6" fill="#2a7fff"/>
<rect x="418.7" y="126.8" width="6" height="6" fill="#2a7fff"/>
<rect x="507.1" y="196.3" width="6" height="6" fill="#2a7fff"/>
<polyline fill="none" stroke="#9b59b6" stroke-width="2" points="90.0,68.4 90.0,69.2 90.1,75.3 90.1,83.0 90.1,94.6 90.2,108.2 90.2,121.7 90.2,134.2 90.3,144.1 90.3,151.2 90.3,155.7 90.4,158.5 90.4,160.0 90.4,160.7 90.5,161.2 90.5,161.4 90.5,161.5 90.6,161.5 90.7,161.5 90.8,161.5 91.0,161.5"/>
<polygon points="90.0,64.4 94.0,71.4 86.0,71.4" fill="#9b59b6"/>
<polygon points="90.0,65.2 94.0,72.2 86.0,72.2" fill="#9b59b6"/>
<polygon points="90.1,71.3 94.1,78.3 86.1,78.3" fill="#9b59b6"/>
<polygon points="90.1,79.0 94.1,86.0 86.1,86.0" fill="#9b59b6"/>
<polygon points="90.1,90.6 94.1,97.6 86.1,97.6" fill="#9b59b6"/>
<polygon points="90.2,104.2 94.2,111.2 86.2,111.2" fill="#9b59b6"/>
<polygon points="90.2,117.7 94.2,124.7 86.2,124.7" fill="#9b59b6"/>
<polygon points="90.2,130.2 94.2,137.2 86.2,137.2" fill="#9b59b6"/>
<polygon points="90.3,140.1 94.3,147.1 86.3,147.1" fill="#9b59b6"/>
<polygon points="90.3,147.2 94.3,154.2 86.3,154.2" fill="#9b59b6"/>
<polygon points="90.3,151.7 94.3,158.7 86.3,158.7" fill="#9b59b6"/>
<polygon points="90.4,154.5 94.4,161.5 86.4,161.5" fill="#9b59b6"/>
<polygon points="90.4,156.0 94.4,163.0 86.4,163.0" fill="#9b59b6"/>
<polygon points="90.4,156.7 94.4,163.7 86.4,163.7" fill="#9b59b6"/>
<polygon points="90.5,157.2 94.5,164.2 86.5,164.2" fill="#9b59b6"/>
<polygon points="90.5,157.4 94.5,164.4 86.5,164.4" fill="#9b59b6"/>
<polygon points="90.5,157.5 94.5,164.5 86.5,164.5" fill="#9b59b6"/>
<polygon points="90.6,157.5 94.6,164.5 86.6,164.5" fill="#9b59b6"/>
<polygon points="90.7,157.5 94.7,164.5 86.7,164.5" fill="#9b59b6"/>
<polygon points="90.8,157.5 94.8,164.5 86.8,164.5" fill="#9b59b6"/>
<polygon points="91.0,157.5 95.0,164.5 87.0,164.5" fill="#9b59b6"/>
<polyline fill="none" stroke="#4dd88a" stroke-width="2" points="90.0,68.3 90.0,68.3 90.1,68.3 90.1,68.3 90.3,68.3 90.5,68.3 91.0,68.3 92.1,68.3 94.1,68.3 98.3,68.3 106.4,68.3 120.2,68.3 140.1,68.3 164.5,68.3 190.6,68.3 216.3,68.3 241.0,68.3 287.6,68.5 332.7,76.5 421.7,129.8 510.1,199.2"/>
<polygon points="90.0,64.3 94.0,68.3 90.0,72.3 86.0,68.3" fill="#4dd88a"/>
<polygon points="90.0,64.3 94.0,68.3 90.0,72.3 86.0,68.3" fill="#4dd88a"/>
<polygon points="90.1,64.3 94.1,68.3 90.1,72.3 86.1,68.3" fill="#4dd88a"/>
<polygon points="90.1,64.3 94.1,68.3 90.1,72.3 86.1,68.3" fill="#4dd88a"/>
<polygon points="90.3,64.3 94.3,68.3 90.3,72.3 86.3,68.3" fill="#4dd88a"/>
<polygon points="90.5,64.3 94.5,68.3 90.5,72.3 86.5,68.3" fill="#4dd88a"/>
<polygon points="91.0,64.3 95.0,68.3 91.0,72.3 87.0,68.3" fill="#4dd88a"/>
<polygon points="92.1,64.3 96.1,68.3 92.1,72.3 88.1,68.3" fill="#4dd88a"/>
<polygon points="94.1,64.3 98.1,68.3 94.1,72.3 90.1,68.3" fill="#4dd88a"/>
<polygon points="98.3,64.3 102.3,68.3 98.3,72.3 94.3,68.3" fill="#4dd88a"/>
<polygon points="106.4,64.3 110.4,68.3 106.4,72.3 102.4,68.3" fill="#4dd88a"/>
<polygon points="120.2,64.3 124.2,68.3 120.2,72.3 116.2,68.3" fill="#4dd88a"/>
<polygon points="140.1,64.3 144.1,68.3 140.1,72.3 136.1,68.3" fill="#4dd88a"/>
<polygon points="164.5,64.3 168.5,68.3 164.5,72.3 160.5,68.3" fill="#4dd88a"/>
<polygon points="190.6,64.3 194.6,68.3 190.6,72.3 186.6,68.3" fill="#4dd88a"/>
<polygon points="216.3,64.3 220.3,68.3 216.3,72.3 212.3,68.3" fill="#4dd88a"/>
<polygon points="241.0,64.3 245.0,68.3 241.0,72.3 237.0,68.3" fill="#4dd88a"/>
<polygon points="287.6,64.5 291.6,68.5 287.6,72.5 283.6,68.5" fill="#4dd88a"/>
<polygon points="332.7,72.5 336.7,76.5 332.7,80.5 328.7,76.5" fill="#4dd88a"/>
<polygon points="421.7,125.8 425.7,129.8 421.7,133.8 417.7,129.8" fill="#4dd88a"/>
<polygon points="510.1,195.2 514.1,199.2 510.1,203.2 506.1,199.2" fill="#4dd88a"/>
<polyline fill="none" stroke="#ff6b6b" stroke-width="2" points="90.6,72.2 90.8,73.1 91.1,78.2 91.8,85.7 93.1,97.1 95.8,110.5 100.9,124.2 110.4,136.4 124.5,146.0 143.7,152.9 163.9,157.2 184.0,160.0 203.7,161.4 222.8,162.1 241.4,162.5 259.7,162.8 277.8,309.3 277.8,363.4 277.9,521.7 278.0,521.7 278.1,521.7"/>
<polygon points="90.6,67.2 89.4,70.6 85.9,70.7 88.7,72.8 87.7,76.3 90.6,74.2 93.5,76.3 92.5,72.8 95.4,70.7 91.8,70.6" fill="#ff6b6b"/>
<polygon points="90.8,68.1 89.6,71.5 86.0,71.6 88.9,73.7 87.8,77.2 90.8,75.1 93.7,77.2 92.7,73.7 95.5,71.6 92.0,71.5" fill="#ff6b6b"/>
<polygon points="91.1,73.2 90.0,76.5 86.4,76.6 89.2,78.8 88.2,82.2 91.1,80.2 94.1,82.2 93.0,78.8 95.9,76.6 92.3,76.5" fill="#ff6b6b"/>
<polygon points="91.8,80.7 90.6,84.1 87.1,84.2 89.9,86.3 88.9,89.7 91.8,87.7 94.8,89.7 93.7,86.3 96.6,84.2 93.0,84.1" fill="#ff6b6b"/>
<polygon points="93.1,92.1 92.0,95.5 88.4,95.6 91.2,97.7 90.2,101.1 93.1,99.1 96.1,101.1 95.0,97.7 97.9,95.6 94.3,95.5" fill="#ff6b6b"/>
<polygon points="95.8,105.5 94.6,108.9 91.0,108.9 93.9,111.1 92.8,114.5 95.8,112.5 98.7,114.5 97.7,111.1 100.5,108.9 96.9,108.9" fill="#ff6b6b"/>
<polygon points="100.9,119.2 99.8,122.6 96.2,122.7 99.0,124.9 98.0,128.3 100.9,126.2 103.9,128.3 102.9,124.9 105.7,122.7 102.1,122.6" fill="#ff6b6b"/>
<polygon points="110.4,131.4 109.2,134.7 105.6,134.8 108.4,137.0 107.4,140.4 110.4,138.4 113.3,140.4 112.3,137.0 115.1,134.8 111.5,134.7" fill="#ff6b6b"/>
<polygon points="124.5,141.0 123.3,144.4 119.7,144.5 122.6,146.6 121.5,150.1 124.5,148.0 127.4,150.1 126.4,146.6 129.2,144.5 125.6,144.4" fill="#ff6b6b"/>
<polygon points="143.7,147.9 142.6,151.2 139.0,151.3 141.8,153.5 140.8,156.9 143.7,154.9 146.7,156.9 145.6,153.5 148.5,151.3 144.9,151.2" fill="#ff6b6b"/>
<polygon points="163.9,152.2 162.7,155.6 159.1,155.7 162.0,157.9 160.9,161.3 163.9,159.2 166.8,161.3 165.8,157.9 168.6,155.7 165.0,155.6" fill="#ff6b6b"/>
<polygon points="184.0,155.0 182.8,158.4 179.2,158.5 182.1,160.6 181.0,164.0 184.0,162.0 186.9,164.0 185.9,160.6 188.7,158.5 185.2,158.4" fill="#ff6b6b"/>
<polygon points="203.7,156.4 202.5,159.8 198.9,159.9 201.8,162.0 200.8,165.5 203.7,163.4 206.6,165.5 205.6,162.0 208.5,159.9 204.9,159.8" fill="#ff6b6b"/>
<polygon points="222.8,157.1 221.6,160.4 218.0,160.5 220.9,162.7 219.8,166.1 222.8,164.1 225.7,166.1 224.7,162.7 227.5,160.5 223.9,160.4" fill="#ff6b6b"/>
<polygon points="241.4,157.5 240.2,160.9 236.7,160.9 239.5,163.1 238.5,166.5 241.4,164.5 244.4,166.5 243.3,163.1 246.2,160.9 242.6,160.9" fill="#ff6b6b"/>
<polygon points="259.7,157.8 258.5,161.2 255.0,161.3 257.8,163.4 256.8,166.9 259.7,164.8 262.6,166.9 261.6,163.4 264.5,161.3 260.9,161.2" fill="#ff6b6b"/>
<polygon points="277.8,304.3 276.6,307.7 273.0,307.8 275.9,309.9 274.8,313.3 277.8,311.3 280.7,313.3 279.7,309.9 282.5,307.8 278.9,307.7" fill="#ff6b6b"/>
<polygon points="277.8,358.4 276.7,361.7 273.1,361.8 275.9,364.0 274.9,367.4 277.8,365.4 280.8,367.4 279.7,364.0 282.6,361.8 279.0,361.7" fill="#ff6b6b"/>
<polygon points="277.9,516.7 276.7,520.0 273.1,520.1 276.0,522.3 274.9,525.7 277.9,523.7 280.8,525.7 279.8,522.3 282.6,520.1 279.1,520.0" fill="#ff6b6b"/>
<polygon points="278.0,516.7 276.8,520.0 273.3,520.1 276.1,522.3 275.1,525.7 278.0,523.7 280.9,525.7 279.9,522.3 282.8,520.1 279.2,520.0" fill="#ff6b6b"/>
<polygon points="278.1,516.7 277.0,520.0 273.4,520.1 276.2,522.3 275.2,525.7 278.1,523.7 281.1,525.7 280.0,522.3 282.9,520.1 279.3,520.0" fill="#ff6b6b"/>
<polyline fill="none" stroke="#ff922b" stroke-width="2" points="314.3,215.0 335.4,221.0 356.1,224.4 376.4,226.2 396.4,226.2 416.5,226.2 436.5,226.2 456.5,226.2 496.5,226.2 516.5,226.2"/>
<circle cx="314.3" cy="215.0" r="3" fill="#ff922b"/>
<circle cx="335.4" cy="221.0" r="3" fill="#ff922b"/>
<circle cx="356.1" cy="224.4" r="3" fill="#ff922b"/>
<circle cx="376.4" cy="226.2" r="3" fill="#ff922b"/>
<circle cx="396.4" cy="226.2" r="3" fill="#ff922b"/>
<circle cx="416.5" cy="226.2" r="3" fill="#ff922b"/>
<circle cx="436.5" cy="226.2" r="3" fill="#ff922b"/>
<circle cx="456.5" cy="226.2" r="3" fill="#ff922b"/>
<circle cx="496.5" cy="226.2" r="3" fill="#ff922b"/>
<circle cx="516.5" cy="226.2" r="3" fill="#ff922b"/>
<polyline fill="none" stroke="#888888" stroke-width="2" stroke-dasharray="8,5" points="512.6,125.2 545.7,142.0 588.6,165.7 620.7,180.0 652.7,199.0 694.9,223.2 726.9,239.3 758.8,254.3 801.0,278.1 832.9,295.1"/>
<circle cx="512.6" cy="125.2" r="3" fill="#888888"/>
<circle cx="545.7" cy="142.0" r="3" fill="#888888"/>
<circle cx="588.6" cy="165.7" r="3" fill="#888888"/>
<circle cx="620.7" cy="180.0" r="3" fill="#888888"/>
<circle cx="652.7" cy="199.0" r="3" fill="#888888"/>
<circle cx="694.9" cy="223.2" r="3" fill="#888888"/>
<circle cx="726.9" cy="239.3" r="3" fill="#888888"/>
<circle cx="758.8" cy="254.3" r="3" fill="#888888"/>
<circle cx="801.0" cy="278.1" r="3" fill="#888888"/>
<circle cx="832.9" cy="295.1" r="3" fill="#888888"/>
<line x1="886" y1="60" x2="902" y2="60" stroke="#ef4444" stroke-width="2" stroke-dasharray="8,5"/>
<circle cx="894.0" cy="60.0" r="3" fill="#ef4444"/>
<text class="label" x="908" y="64">Theoretical</text>
<line x1="886" y1="78" x2="902" y2="78" stroke="#1a6b3c" stroke-width="2"/>
<polygon points="894.0,74.0 898.0,78.0 894.0,82.0 890.0,78.0" fill="#1a6b3c"/>
<text class="label" x="908" y="82">Grafite</text>
<line x1="886" y1="96" x2="902" y2="96" stroke="#1a3a6b" stroke-width="2"/>
<polygon points="894.0,91.0 892.8,94.4 889.2,94.5 892.1,96.6 891.1,100.0 894.0,98.0 896.9,100.0 895.9,96.6 898.8,94.5 895.2,94.4" fill="#1a3a6b"/>
<text class="label" x="908" y="100">SNARF</text>
<line x1="886" y1="114" x2="902" y2="114" stroke="#111111" stroke-width="2"/>
<rect x="891.0" y="111.0" width="6" height="6" fill="#111111"/>
<text class="label" x="908" y="118">SuRF</text>
<line x1="886" y1="132" x2="902" y2="132" stroke="#111111" stroke-width="2"/>
<polygon points="894.0,128.0 898.0,135.0 890.0,135.0" fill="#111111"/>
<text class="label" x="908" y="136">SuRFHash(8)</text>
<line x1="886" y1="150" x2="902" y2="150" stroke="#111111" stroke-width="2"/>
<polygon points="894.0,146.0 898.0,150.0 894.0,154.0 890.0,150.0" fill="#111111"/>
<text class="label" x="908" y="154">SuRFReal(8)</text>
<line x1="886" y1="168" x2="902" y2="168" stroke="#2a7fff" stroke-width="2"/>
<rect x="891.0" y="165.0" width="6" height="6" fill="#2a7fff"/>
<text class="label" x="908" y="172">Adaptive (t=0)</text>
<line x1="886" y1="186" x2="902" y2="186" stroke="#9b59b6" stroke-width="2"/>
<polygon points="894.0,182.0 898.0,189.0 890.0,189.0" fill="#9b59b6"/>
<text class="label" x="908" y="190">Truncation</text>
<line x1="886" y1="204" x2="902" y2="204" stroke="#4dd88a" stroke-width="2"/>
<polygon points="894.0,200.0 898.0,204.0 894.0,208.0 890.0,204.0" fill="#4dd88a"/>
<text class="label" x="908" y="208">SODA</text>
<line x1="886" y1="222" x2="902" y2="222" stroke="#ff6b6b" stroke-width="2"/>
<polygon points="894.0,217.0 892.8,220.4 889.2,220.5 892.1,222.6 891.1,226.0 894.0,224.0 896.9,226.0 895.9,222.6 898.8,220.5 895.2,220.4" fill="#ff6b6b"/>
<text class="label" x="908" y="226">Hybrid</text>
<line x1="886" y1="240" x2="902" y2="240" stroke="#ff922b" stroke-width="2"/>
<circle cx="894.0" cy="240.0" r="3" fill="#ff922b"/>
<text class="label" x="908" y="244">CDF-ARE</text>
<line x1="886" y1="258" x2="902" y2="258" stroke="#888888" stroke-width="2" stroke-dasharray="8,5"/>
<circle cx="894.0" cy="258.0" r="3" fill="#888888"/>
<text class="label" x="908" y="262">BloomARE</text>
<text x="480" y="590" text-anchor="middle">Bits per Key (BPK)</text>
<text transform="translate(16,295) rotate(-90)" text-anchor="middle">False Positive Rate (FPR)</text>
</svg>
