<svg xmlns="http://www.w3.org/2000/svg" width="1020" height="600" viewBox="0 0 1020 600">
<style>text{font-family:Menlo,Monaco,monospace;font-size:12px;fill:#222} .axis{stroke:#333;stroke-width:1} .grid{stroke:#eee;stroke-width:0.5} .label{font-size:11px;fill:#444}</style>
<text x="510" y="28" text-anchor="middle" style="font-size:14px;font-weight:bold">FPR vs BPK — zipfian (60-bit keys, n=65536, L=128)</text>
<line class="axis" x1="90.0" y1="550.0" x2="870.0" y2="550.0"/>
<line class="axis" x1="90.0" y1="40.0" x2="90.0" y2="550.0"/>
<line class="grid" x1="90.0" y1="521.7" x2="870.0" y2="521.7"/>
<text class="label" x="82.0" y="525.7" text-anchor="end">10^-8</text>
<line class="grid" x1="90.0" y1="465.0" x2="870.0" y2="465.0"/>
<text class="label" x="82.0" y="469.0" text-anchor="end">10^-7</text>
<line class="grid" x1="90.0" y1="408.3" x2="870.0" y2="408.3"/>
<text class="label" x="82.0" y="412.3" text-anchor="end">10^-6</text>
<line class="grid" x1="90.0" y1="351.7" x2="870.0" y2="351.7"/>
<text class="label" x="82.0" y="355.7" text-anchor="end">10^-5</text>
<line class="grid" x1="90.0" y1="295.0" x2="870.0" y2="295.0"/>
<text class="label" x="82.0" y="299.0" text-anchor="end">10^-4</text>
<line class="grid" x1="90.0" y1="238.3" x2="870.0" y2="238.3"/>
<text class="label" x="82.0" y="242.3" text-anchor="end">10^-3</text>
<line class="grid" x1="90.0" y1="181.7" x2="870.0" y2="181.7"/>
<text class="label" x="82.0" y="185.7" text-anchor="end">10^-2</text>
<line class="grid" x1="90.0" y1="125.0" x2="870.0" y2="125.0"/>
<text class="label" x="82.0" y="129.0" text-anchor="end">10^-1</text>
<line class="grid" x1="90.0" y1="68.3" x2="870.0" y2="68.3"/>
<text class="label" x="82.0" y="72.3" text-anchor="end">1</text>
<line class="grid" x1="90.0" y1="40.0" x2="90.0" y2="550.0"/>
<text class="label" x="90.0" y="566.0" text-anchor="middle">0</text>
<line class="grid" x1="206.1" y1="40.0" x2="206.1" y2="550.0"/>
<text class="label" x="206.1" y="566.0" text-anchor="middle">5</text>
<line class="grid" x1="322.1" y1="40.0" x2="322.1" y2="550.0"/>
<text class="label" x="322.1" y="566.0" text-anchor="middle">10</text>
<line class="grid" x1="438.2" y1="40.0" x2="438.2" y2="550.0"/>
<text class="label" x="438.2" y="566.0" text-anchor="middle">15</text>
<line class="grid" x1="554.3" y1="40.0" x2="554.3" y2="550.0"/>
<text class="label" x="554.3" y="566.0" text-anchor="middle">20</text>
<line class="grid" x1="670.4" y1="40.0" x2="670.4" y2="550.0"/>
<text class="label" x="670.4" y="566.0" text-anchor="middle">25</text>
<line class="grid" x1="786.4" y1="40.0" x2="786.4" y2="550.0"/>
<text class="label" x="786.4" y="566.0" text-anchor="middle">30</text>
<polyline fill="none" stroke="#ef4444" stroke-width="2" stroke-dasharray="8,5" points="252.5,68.3 275.7,85.4 298.9,102.5 322.1,119.5 345.4,136.6 368.6,153.6 391.8,170.7 415.0,187.7 438.2,204.8 461.4,221.9 484.6,238.9 507.9,256.0 531.1,273.0 554.3,290.1 600.7,324.2 647.1,358.3 740.0,426.6 832.9,494.8"/>
<circle cx="252.5" cy="68.3" r="3" fill="#ef4444"/>
<circle cx="275.7" cy="85.4" r="3" fill="#ef4444"/>
<circle cx="298.9" cy="102.5" r="3" fill="#ef4444"/>
<circle cx="322.1" cy="119.5" r="3" fill="#ef4444"/>
<circle cx="345.4" cy="136.6" r="3" fill="#ef4444"/>
<circle cx="368.6" cy="153.6" r="3" fill="#ef4444"/>
<circle cx="391.8" cy="170.7" r="3" fill="#ef4444"/>
<circle cx="415.0" cy="187.7" r="3" fill="#ef4444"/>
<circle cx="438.2" cy="204.8" r="3" fill="#ef4444"/>
<circle cx="461.4" cy="221.9" r="3" fill="#ef4444"/>
<circle cx="484.6" cy="238.9" r="3" fill="#ef4444"/>
<circle cx="507.9" cy="256.0" r="3" fill="#ef4444"/>
<circle cx="531.1" cy="273.0" r="3" fill="#ef4444"/>
<circle cx="554.3" cy="290.1" r="3" fill="#ef4444"/>
<circle cx="600.7" cy="324.2" r="3" fill="#ef4444"/>
<circle cx="647.1" cy="358.3" r="3" fill="#ef4444"/>
<circle cx="740.0" cy="426.6" r="3" fill="#ef4444"/>
<circle cx="832.9" cy="494.8" r="3" fill="#ef4444"/>
<polyline fill="none" stroke="#1a6b3c" stroke-width="2" points="189.7,68.3 241.4,68.4 290.1,73.9 337.5,97.9 384.1,142.0 437.2,155.0 484.3,210.7 530.7,228.1 577.0,289.2"/>
<polygon points="189.7,64.3 193.7,68.3 189.7,72.3 185.7,68.3" fill="#1a6b3c"/>
<polygon points="241.4,64.4 245.4,68.4 241.4,72.4 237.4,68.4" fill="#1a6b3c"/>
<polygon points="290.1,69.9 294.1,73.9 290.1,77.9 286.1,73.9" fill="#1a6b3c"/>
<polygon points="337.5,93.9 341.5,97.9 337.5,101.9 333.5,97.9" fill="#1a6b3c"/>
<polygon points="384.1,138.0 388.1,142.0 384.1,146.0 380.1,142.0" fill="#1a6b3c"/>
<polygon points="437.2,151.0 441.2,155.0 437.2,159.0 433.2,155.0" fill="#1a6b3c"/>
<polygon points="484.3,206.7 488.3,210.7 484.3,214.7 480.3,210.7" fill="#1a6b3c"/>
<polygon points="530.7,224.1 534.7,228.1 530.7,232.1 526.7,228.1" fill="#1a6b3c"/>
<polygon points="577.0,285.2 581.0,289.2 577.0,293.2 573.0,289.2" fill="#1a6b3c"/>
<polyline fill="none" stroke="#1a3a6b" stroke-width="2" points="168.7,77.8 215.1,77.8 261.5,77.8 308.0,77.8 354.4,77.8 400.8,77.8 447.2,77.8 493.7,77.8 540.1,77.8"/>
<polygon points="168.7,72.8 167.5,76.2 163.9,76.2 166.8,78.4 165.7,81.8 168.7,79.8 171.6,81.8 170.6,78.4 173.4,76.2 169.8,76.2" fill="#1a3a6b"/>
<polygon points="215.1,72.8 213.9,76.2 210.3,76.2 213.2,78.4 212.1,81.8 215.1,79.8 218.0,81.8 217.0,78.4 219.8,76.2 216.2,76.2" fill="#1a3a6b"/>
<polygon points="261.5,72.8 260.4,76.2 256.8,76.2 259.6,78.4 258.6,81.8 261.5,79.8 264.5,81.8 263.4,78.4 266.3,76.2 262.7,76.2" fill="#1a3a6b"/>
<polygon points="308.0,72.8 306.8,76.2 303.2,76.2 306.1,78.4 305.0,81.8 308.0,79.8 310.9,81.8 309.9,78.4 312.7,76.2 309.2,76.2" fill="#1a3a6b"/>
<polygon points="354.4,72.8 353.2,76.2 349.6,76.2 352.5,78.4 351.4,81.8 354.4,79.8 357.3,81.8 356.3,78.4 359.1,76.2 355.6,76.2" fill="#1a3a6b"/>
<polygon points="400.8,72.8 399.6,76.2 396.0,76.2 398.9,78.4 397.8,81.8 400.8,79.8 403.7,81.8 402.7,78.4 405.5,76.2 402.0,76.2" fill="#1a3a6b"/>
<polygon points="447.2,72.8 446.1,76.2 442.5,76.2 445.3,78.4 444.3,81.8 447.2,79.8 450.2,81.8 449.1,78.4 452.0,76.2 448.4,76.2" fill="#1a3a6b"/>
<polygon points="493.7,72.8 492.5,76.2 488.9,76.2 491.8,78.4 490.8,81.8 493.7,79.8 496.6,81.8 495.6,78.4 498.4,76.2 494.9,76.2" fill="#1a3a6b"/>
<polygon points="540.1,72.8 538.9,76.2 535.3,76.2 538.2,78.4 537.2,81.8 540.1,79.8 543.0,81.8 542.0,78.4 544.8,76.2 541.3,76.2" fill="#1a3a6b"/>
<polyline fill="none" stroke="#111111" stroke-width="2" points="393.0,96.7"/>
<rect x="390.0" y="93.7" width="6" height="6" fill="#111111"/>
<polyline fill="none" stroke="#111111" stroke-width="2" points="597.6,96.7"/>
<polygon points="597.6,92.7 601.6,99.7 593.6,99.7" fill="#111111"/>
<polyline fill="none" stroke="#111111" stroke-width="2" points="597.6,521.7"/>
<polygon points="597.6,517.7 601.6,521.7 597.6,525.7 593.6,521.7" fill="#111111"/>
<polyline fill="none" stroke="#2a7fff" stroke-width="2" points="90.0,68.4 90.0,68.4 90.1,68.4 90.1,68.4 90.3,68.4 90.5,68.4 91.1,68.4 92.2,68.4 94.4,68.4 98.7,68.4 107.2,68.4 121.7,68.4 142.6,68.4 168.2,68.4 195.6,68.4 222.6,68.4 248.6,68.4 297.5,73.4 344.8,90.3 438.2,187.2 531.1,257.1"/>
<rect x="87.0" y="65.4" width="6" height="6" fill="#2a7fff"/>
<rect x="87.0" y="65.4" width="6" height="6" fill="#2a7fff"/>
<rect x="87.1" y="65.4" width="6" height="6" fill="#2a7fff"/>
<rect x="87.1" y="65.4" width="6" height="6" fill="#2a7fff"/>
<rect x="87.3" y="65.4" width="6" height="6" fill="#2a7fff"/>
<rect x="87.5" y="65.4" width="6" height="6" fill="#2a7fff"/>
<rect x="88.1" y="65.4" width="6" height="6" fill="#2a7fff"/>
<rect x="89.2" y="65.4" width="6" height="6" fill="#2a7fff"/>
<rect x="91.4" y="65.4" width="6" height="6" fill="#2a7fff"/>
<rect x="95.7" y="65.4" width="6" height="6" fill="#2a7fff"/>
<rect x="104.2" y="65.4" width="6" height="6" fill="#2a7fff"/>
<rect x="118.7" y="65.4" width="6" height="6" fill="#2a7fff"/>
<rect x="139.6" y="65.4" width="6" height="6" fill="#2a7fff"/>
<rect x="165.2" y="65.4" width="6" height="6" fill="#2a7fff"/>
<rect x="192.6" y="65.4" width="6" height="6" fill="#2a7fff"/>
<rect x="219.6" y="65.4" width="6" height="6" fill="#2a7fff"/>
<rect x="245.6" y="65.4" width="6" height="6" fill="#2a7fff"/>
<rect x="294.5" y="70.4" width="6" height="6" fill="#2a7fff"/>
<rect x="341.8" y="87.3" width="6" height="6" fill="#2a7fff"/>
<rect x="435.2" y="184.2" width="6" height="6" fill="#2a7fff"/>
<rect x="528.1" y="254.1" width="6" height="6" fill="#2a7fff"/>
<polyline fill="none" stroke="#9b59b6" stroke-width="2" points="90.0,68.4 90.0,68.6 90.1,70.4 90.1,72.3 90.1,74.3 90.2,75.9 90.2,76.8 90.3,77.3 90.3,77.6 90.3,77.7 90.4,77.8 90.4,77.8 90.4,77.9 90.5,77.9 90.5,77.9 90.5,77.9 90.6,77.9 90.6,77.9 90.7,77.9 90.9,77.9 91.0,77.9"/>
<polygon points="90.0,64.4 94.0,71.4 86.0,71.4" fill="#9b59b6"/>
<polygon points="90.0,64.6 94.0,71.6 86.0,71.6" fill="#9b59b6"/>
<polygon points="90.1,66.4 94.1,73.4 86.1,73.4" fill="#9b59b6"/>
<polygon points="90.1,68.3 94.1,75.3 86.1,75.3" fill="#9b59b6"/>
<polygon points="90.1,70.3 94.1,77.3 86.1,77.3" fill="#9b59b6"/>
<polygon points="90.2,71.9 94.2,78.9 86.2,78.9" fill="#9b59b6"/>
<polygon points="90.2,72.8 94.2,79.8 86.2,79.8" fill="#9b59b6"/>
<polygon points="90.3,73.3 94.3,80.3 86.3,80.3" fill="#9b59b6"/>
<polygon points="90.3,73.6 94.3,80.6 86.3,80.6" fill="#9b59b6"/>
<polygon points="90.3,73.7 94.3,80.7 86.3,80.7" fill="#9b59b6"/>
<polygon points="90.4,73.8 94.4,80.8 86.4,80.8" fill="#9b59b6"/>
<polygon points="90.4,73.8 94.4,80.8 86.4,80.8" fill="#9b59b6"/>
<polygon points="90.4,73.9 94.4,80.9 86.4,80.9" fill="#9b59b6"/>
<polygon points="90.5,73.9 94.5,80.9 86.5,80.9" fill="#9b59b6"/>
<polygon points="90.5,73.9 94.5,80.9 86.5,80.9" fill="#9b59b6"/>
<polygon points="90.5,73.9 94.5,80.9 86.5,80.9" fill="#9b59b6"/>
<polygon points="90.6,73.9 94.6,80.9 86.6,80.9" fill="#9b59b6"/>
<polygon points="90.6,73.9 94.6,80.9 86.6,80.9" fill="#9b59b6"/>
<polygon points="90.7,73.9 94.7,80.9 86.7,80.9" fill="#9b59b6"/>
<polygon points="90.9,73.9 94.9,80.9 86.9,80.9" fill="#9b59b6"/>
<polygon points="91.0,73.9 95.0,80.9 87.0,80.9" fill="#9b59b6"/>
<polyline fill="none" stroke="#4dd88a" stroke-width="2" points="90.0,68.3 90.0,68.3 90.1,68.3 90.1,68.3 90.3,68.3 90.5,68.3 91.1,68.3 92.2,68.3 94.4,68.3 98.7,68.3 107.2,68.3 121.7,68.3 142.6,68.3 168.2,68.3 195.6,68.3 222.6,68.3 248.6,68.3 297.5,73.4 344.8,90.3 438.2,187.2 531.1,257.1"/>
<polygon points="90.0,64.3 94.0,68.3 90.0,72.3 86.0,68.3" fill="#4dd88a"/>
<polygon points="90.0,64.3 94.0,68.3 90.0,72.3 86.0,68.3" fill="#4dd88a"/>
<polygon points="90.1,64.3 94.1,68.3 90.1,72.3 86.1,68.3" fill="#4dd88a"/>
<polygon points="90.1,64.3 94.1,68.3 90.1,72.3 86.1,68.3" fill="#4dd88a"/>
<polygon points="90.3,64.3 94.3,68.3 90.3,72.3 86.3,68.3" fill="#4dd88a"/>
<polygon points="90.5,64.3 94.5,68.3 90.5,72.3 86.5,68.3" fill="#4dd88a"/>
<polygon points="91.1,64.3 95.1,68.3 91.1,72.3 87.1,68.3" fill="#4dd88a"/>
<polygon points="92.2,64.3 96.2,68.3 92.2,72.3 88.2,68.3" fill="#4dd88a"/>
<polygon points="94.4,64.3 98.4,68.3 94.4,72.3 90.4,68.3" fill="#4dd88a"/>
<polygon points="98.7,64.3 102.7,68.3 98.7,72.3 94.7,68.3" fill="#4dd88a"/>
<polygon points="107.2,64.3 111.2,68.3 107.2,72.3 103.2,68.3" fill="#4dd88a"/>
<polygon points="121.7,64.3 125.7,68.3 121.7,72.3 117.7,68.3" fill="#4dd88a"/>
<polygon points="142.6,64.3 146.6,68.3 142.6,72.3 138.6,68.3" fill="#4dd88a"/>
<polygon points="168.2,64.3 172.2,68.3 168.2,72.3 164.2,68.3" fill="#4dd88a"/>
<polygon points="195.6,64.3 199.6,68.3 195.6,72.3 191.6,68.3" fill="#4dd88a"/>
<polygon points="222.6,64.3 226.6,68.3 222.6,72.3 218.6,68.3" fill="#4dd88a"/>
<polygon points="248.6,64.3 252.6,68.3 248.6,72.3 244.6,68.3" fill="#4dd88a"/>
<polygon points="297.5,69.4 301.5,73.4 297.5,77.4 293.5,73.4" fill="#4dd88a"/>
<polygon points="344.8,86.3 348.8,90.3 344.8,94.3 340.8,90.3" fill="#4dd88a"/>
<polygon points="438.2,183.2 442.2,187.2 438.2,191.2 434.2,187.2" fill="#4dd88a"/>
<polygon points="531.1,253.1 535.1,257.1 531.1,261.1 527.1,257.1" fill="#4dd88a"/>
<polyline fill="none" stroke="#ff6b6b" stroke-width="2" points="90.6,69.5 90.8,69.8 91.2,71.2 91.9,72.8 93.3,74.7 96.1,76.1 101.5,76.9 111.4,77.4 126.2,77.6 146.4,77.8 167.6,77.8 188.7,77.9 209.4,77.9 229.4,78.1 249.0,81.7 268.2,96.2 287.1,336.7 287.2,390.8 287.3,521.7 287.4,521.7 287.5,521.7"/>
<polygon points="90.6,64.5 89.5,67.9 85.9,68.0 88.7,70.2 87.7,73.6 90.6,71.5 93.6,73.6 92.5,70.2 95.4,68.0 91.8,67.9" fill="#ff6b6b"/>
<polygon points="90.8,64.8 89.6,68.2 86.1,68.3 88.9,70.4 87.9,73.9 90.8,71.8 93.8,73.9 92.7,70.4 95.6,68.3 92.0,68.2" fill="#ff6b6b"/>
<polygon points="91.2,66.2 90.0,69.5 86.4,69.6 89.3,71.8 88.2,75.2 91.2,73.2 94.1,75.2 93.1,71.8 95.9,69.6 92.4,69.5" fill="#ff6b6b"/>
<polygon points="91.9,67.8 90.7,71.2 87.1,71.3 90.0,73.4 89.0,76.9 91.9,74.8 94.8,76.9 93.8,73.4 96.7,71.3 93.1,71.2" fill="#ff6b6b"/>
<polygon points="93.3,69.7 92.1,73.0 88.5,73.1 91.4,75.3 90.4,78.7 93.3,76.7 96.2,78.7 95.2,75.3 98.1,73.1 94.5,73.0" fill="#ff6b6b"/>
<polygon points="96.1,71.1 94.9,74.4 91.3,74.5 94.2,76.7 93.1,80.1 96.1,78.1 99.0,80.1 98.0,76.7 100.8,74.5 97.2,74.4" fill="#ff6b6b"/>
<polygon points="101.5,71.9 100.3,75.3 96.7,75.4 99.6,77.6 98.6,81.0 101.5,78.9 104.4,81.0 103.4,77.6 106.3,75.4 102.7,75.3" fill="#ff6b6b"/>
<polygon points="111.4,72.4 110.2,75.8 106.6,75.9 109.5,78.0 108.4,81.4 111.4,79.4 114.3,81.4 113.3,78.0 116.1,75.9 112.5,75.8" fill="#ff6b6b"/>
<polygon points="126.2,72.6 125.0,76.0 121.4,76.1 124.3,78.3 123.2,81.7 126.2,79.6 129.1,81.7 128.1,78.3 130.9,76.1 127.3,76.0" fill="#ff6b6b"/>
<polygon points="146.4,72.8 145.2,76.1 141.7,76.2 144.5,78.4 143.5,81.8 146.4,79.8 149.4,81.8 148.3,78.4 151.2,76.2 147.6,76.1" fill="#ff6b6b"/>
<polygon points="167.6,72.8 166.4,76.2 162.8,76.3 165.7,78.4 164.6,81.9 167.6,79.8 170.5,81.9 169.5,78.4 172.3,76.3 168.7,76.2" fill="#ff6b6b"/>
<polygon points="188.7,72.9 187.5,76.2 183.9,76.3 186.8,78.5 185.7,81.9 188.7,79.9 191.6,81.9 190.6,78.5 193.4,76.3 189.9,76.2" fill="#ff6b6b"/>
<polygon points="209.4,72.9 208.2,76.3 204.6,76.3 207.5,78.5 206.4,81.9 209.4,79.9 212.3,81.9 211.3,78.5 214.1,76.3 210.6,76.3" fill="#ff6b6b"/>
<polygon points="229.4,73.1 228.2,76.5 224.6,76.6 227.5,78.8 226.5,82.2 229.4,80.1 232.3,82.2 231.3,78.8 234.1,76.6 230.6,76.5" fill="#ff6b6b"/>
<polygon points="249.0,76.7 247.8,80.1 244.2,80.2 247.1,82.3 246.0,85.8 249.0,83.7 251.9,85.8 250.9,82.3 253.7,80.2 250.2,80.1" fill="#ff6b6b"/>
<polygon points="268.2,91.2 267.0,94.6 263.4,94.7 266.3,96.8 265.2,100.3 268.2,98.2 271.1,100.3 270.1,96.8 272.9,94.7 269.4,94.6" fill="#ff6b6b"/>
<polygon points="287.1,331.7 286.0,335.0 282.4,335.1 285.2,337.3 284.2,340.7 287.1,338.7 290.1,340.7 289.0,337.3 291.9,335.1 288.3,335.0" fill="#ff6b6b"/>
<polygon points="287.2,385.8 286.0,389.2 282.4,389.2 285.3,391.4 284.3,394.8 287.2,392.8 290.1,394.8 289.1,391.4 292.0,389.2 288.4,389.2" fill="#ff6b6b"/>
<polygon points="287.3,516.7 286.1,520.0 282.5,520.1 285.4,522.3 284.3,525.7 287.3,523.7 290.2,525.7 289.2,522.3 292.0,520.1 288.4,520.0" fill="#ff6b6b"/>
<polygon points="287.4,516.7 286.2,520.0 282.6,520.1 285.5,522.3 284.5,525.7 287.4,523.7 290.3,525.7 289.3,522.3 292.1,520.1 288.6,520.0" fill="#ff6b6b"/>
<polygon points="287.5,516.7 286.3,520.0 282.8,520.1 285.6,522.3 284.6,525.7 287.5,523.7 290.5,525.7 289.4,522.3 292.3,520.1 288.7,520.0" fill="#ff6b6b"/>
<polyline fill="none" stroke="#ff922b" stroke-width="2" points="278.4,129.1 302.5,143.6 325.4,157.4 347.6,169.4 369.3,178.7 390.7,184.4 411.7,184.4 432.8,184.4 474.8,184.4 495.8,184.4"/>
<circle cx="278.4" cy="129.1" r="3" fill="#ff922b"/>
<circle cx="302.5" cy="143.6" r="3" fill="#ff922b"/>
<circle cx="325.4" cy="157.4" r="3" fill="#ff922b"/>
<circle cx="347.6" cy="169.4" r="3" fill="#ff922b"/>
<circle cx="369.3" cy="178.7" r="3" fill="#ff922b"/>
<circle cx="390.7" cy="184.4" r="3" fill="#ff922b"/>
<circle cx="411.7" cy="184.4" r="3" fill="#ff922b"/>
<circle cx="432.8" cy="184.4" r="3" fill="#ff922b"/>
<circle cx="474.8" cy="184.4" r="3" fill="#ff922b"/>
<circle cx="495.8" cy="184.4" r="3" fill="#ff922b"/>
<polyline fill="none" stroke="#888888" stroke-width="2" stroke-dasharray="8,5" points="433.2,124.9 468.0,142.2 513.0,163.7 546.7,181.4 580.3,199.8 624.7,222.3 658.2,238.0 691.7,257.1 736.0,274.2 769.5,291.7"/>
<circle cx="433.2" cy="124.9" r="3" fill="#888888"/>
<circle cx="468.0" cy="142.2" r="3" fill="#888888"/>
<circle cx="513.0" cy="163.7" r="3" fill="#888888"/>
<circle cx="546.7" cy="181.4" r="3" fill="#888888"/>
<circle cx="580.3" cy="199.8" r="3" fill="#888888"/>
<circle cx="624.7" cy="222.3" r="3" fill="#888888"/>
<circle cx="658.2" cy="238.0" r="3" fill="#888888"/>
<circle cx="691.7" cy="257.1" r="3" fill="#888888"/>
<circle cx="736.0" cy="274.2" r="3" fill="#888888"/>
<circle cx="769.5" cy="291.7" r="3" fill="#888888"/>
<line x1="886" y1="60" x2="902" y2="60" stroke="#ef4444" stroke-width="2" stroke-dasharray="8,5"/>
<circle cx="894.0" cy="60.0" r="3" fill="#ef4444"/>
<text class="label" x="908" y="64">Theoretical</text>
<line x1="886" y1="78" x2="902" y2="78" stroke="#1a6b3c" stroke-width="2"/>
<polygon points="894.0,74.0 898.0,78.0 894.0,82.0 890.0,78.0" fill="#1a6b3c"/>
<text class="label" x="908" y="82">Grafite</text>
<line x1="886" y1="96" x2="902" y2="96" stroke="#1a3a6b" stroke-width="2"/>
<polygon points="894.0,91.0 892.8,94.4 889.2,94.5 892.1,96.6 891.1,100.0 894.0,98.0 896.9,100.0 895.9,96.6 898.8,94.5 895.2,94.4" fill="#1a3a6b"/>
<text class="label" x="908" y="100">SNARF</text>
<line x1="886" y1="114" x2="902" y2="114" stroke="#111111" stroke-width="2"/>
<rect x="891.0" y="111.0" width="6" height="6" fill="#111111"/>
<text class="label" x="908" y="118">SuRF</text>
<line x1="886" y1="132" x2="902" y2="132" stroke="#111111" stroke-width="2"/>
<polygon points="894.0,128.0 898.0,135.0 890.0,135.0" fill="#111111"/>
<text class="label" x="908" y="136">SuRFHash(8)</text>
<line x1="886" y1="150" x2="902" y2="150" stroke="#111111" stroke-width="2"/>
<polygon points="894.0,146.0 898.0,150.0 894.0,154.0 890.0,150.0" fill="#111111"/>
<text class="label" x="908" y="154">SuRFReal(8)</text>
<line x1="886" y1="168" x2="902" y2="168" stroke="#2a7fff" stroke-width="2"/>
<rect x="891.0" y="165.0" width="6" height="6" fill="#2a7fff"/>
<text class="label" x="908" y="172">Adaptive (t=0)</text>
<line x1="886" y1="186" x2="902" y2="186" stroke="#9b59b6" stroke-width="2"/>
<polygon points="894.0,182.0 898.0,189.0 890.0,189.0" fill="#9b59b6"/>
<text class="label" x="908" y="190">Truncation</text>
<line x1="886" y1="204" x2="902" y2="204" stroke="#4dd88a" stroke-width="2"/>
<polygon points="894.0,200.0 898.0,204.0 894.0,208.0 890.0,204.0" fill="#4dd88a"/>
<text class="label" x="908" y="208">SODA</text>
<line x1="886" y1="222" x2="902" y2="222" stroke="#ff6b6b" stroke-width="2"/>
<polygon points="894.0,217.0 892.8,220.4 889.2,220.5 892.1,222.6 891.1,226.0 894.0,224.0 896.9,226.0 895.9,222.6 898.8,220.5 895.2,220.4" fill="#ff6b6b"/>
<text class="label" x="908" y="226">Hybrid</text>
<line x1="886" y1="240" x2="902" y2="240" stroke="#ff922b" stroke-width="2"/>
<circle cx="894.0" cy="240.0" r="3" fill="#ff922b"/>
<text class="label" x="908" y="244">CDF-ARE</text>
<line x1="886" y1="258" x2="902" y2="258" stroke="#888888" stroke-width="2" stroke-dasharray="8,5"/>
<circle cx="894.0" cy="258.0" r="3" fill="#888888"/>
<text class="label" x="908" y="262">BloomARE</text>
<text x="480" y="590" text-anchor="middle">Bits per Key (BPK)</text>
<text transform="translate(16,295) rotate(-90)" text-anchor="middle">False Positive Rate (FPR)</text>
</svg>
