<svg xmlns="http://www.w3.org/2000/svg" width="1020" height="600" viewBox="0 0 1020 600">
<style>text{font-family:Menlo,Monaco,monospace;font-size:12px;fill:#222} .axis{stroke:#333;stroke-width:1} .grid{stroke:#eee;stroke-width:0.5} .label{font-size:11px;fill:#444}</style>
<text x="510" y="28" text-anchor="middle" style="font-size:14px;font-weight:bold">FPR vs BPK — zipfian (60-bit keys, n=65536, L=16)</text>
<line class="axis" x1="90.0" y1="550.0" x2="870.0" y2="550.0"/>
<line class="axis" x1="90.0" y1="40.0" x2="90.0" y2="550.0"/>
<line class="grid" x1="90.0" y1="521.7" x2="870.0" y2="521.7"/>
<text class="label" x="82.0" y="525.7" text-anchor="end">10^-8</text>
<line class="grid" x1="90.0" y1="465.0" x2="870.0" y2="465.0"/>
<text class="label" x="82.0" y="469.0" text-anchor="end">10^-7</text>
<line class="grid" x1="90.0" y1="408.3" x2="870.0" y2="408.3"/>
<text class="label" x="82.0" y="412.3" text-anchor="end">10^-6</text>
<line class="grid" x1="90.0" y1="351.7" x2="870.0" y2="351.7"/>
<text class="label" x="82.0" y="355.7" text-anchor="end">10^-5</text>
<line class="grid" x1="90.0" y1="295.0" x2="870.0" y2="295.0"/>
<text class="label" x="82.0" y="299.0" text-anchor="end">10^-4</text>
<line class="grid" x1="90.0" y1="238.3" x2="870.0" y2="238.3"/>
<text class="label" x="82.0" y="242.3" text-anchor="end">10^-3</text>
<line class="grid" x1="90.0" y1="181.7" x2="870.0" y2="181.7"/>
<text class="label" x="82.0" y="185.7" text-anchor="end">10^-2</text>
<line class="grid" x1="90.0" y1="125.0" x2="870.0" y2="125.0"/>
<text class="label" x="82.0" y="129.0" text-anchor="end">10^-1</text>
<line class="grid" x1="90.0" y1="68.3" x2="870.0" y2="68.3"/>
<text class="label" x="82.0" y="72.3" text-anchor="end">1</text>
<line class="grid" x1="90.0" y1="40.0" x2="90.0" y2="550.0"/>
<text class="label" x="90.0" y="566.0" text-anchor="middle">0</text>
<line class="grid" x1="206.1" y1="40.0" x2="206.1" y2="550.0"/>
<text class="label" x="206.1" y="566.0" text-anchor="middle">5</text>
<line class="grid" x1="322.1" y1="40.0" x2="322.1" y2="550.0"/>
<text class="label" x="322.1" y="566.0" text-anchor="middle">10</text>
<line class="grid" x1="438.2" y1="40.0" x2="438.2" y2="550.0"/>
<text class="label" x="438.2" y="566.0" text-anchor="middle">15</text>
<line class="grid" x1="554.3" y1="40.0" x2="554.3" y2="550.0"/>
<text class="label" x="554.3" y="566.0" text-anchor="middle">20</text>
<line class="grid" x1="670.4" y1="40.0" x2="670.4" y2="550.0"/>
<text class="label" x="670.4" y="566.0" text-anchor="middle">25</text>
<line class="grid" x1="786.4" y1="40.0" x2="786.4" y2="550.0"/>
<text class="label" x="786.4" y="566.0" text-anchor="middle">30</text>
<polyline fill="none" stroke="#ef4444" stroke-width="2" stroke-dasharray="8,5" points="182.9,68.3 206.1,85.4 229.3,102.5 252.5,119.5 275.7,136.6 298.9,153.6 322.1,170.7 345.4,187.7 368.6,204.8 391.8,221.9 415.0,238.9 438.2,256.0 461.4,273.0 484.6,290.1 507.9,307.2 531.1,324.2 554.3,341.3 600.7,375.4 647.1,409.5 740.0,477.7 832.9,546.0"/>
<circle cx="182.9" cy="68.3" r="3" fill="#ef4444"/>
<circle cx="206.1" cy="85.4" r="3" fill="#ef4444"/>
<circle cx="229.3" cy="102.5" r="3" fill="#ef4444"/>
<circle cx="252.5" cy="119.5" r="3" fill="#ef4444"/>
<circle cx="275.7" cy="136.6" r="3" fill="#ef4444"/>
<circle cx="298.9" cy="153.6" r="3" fill="#ef4444"/>
<circle cx="322.1" cy="170.7" r="3" fill="#ef4444"/>
<circle cx="345.4" cy="187.7" r="3" fill="#ef4444"/>
<circle cx="368.6" cy="204.8" r="3" fill="#ef4444"/>
<circle cx="391.8" cy="221.9" r="3" fill="#ef4444"/>
<circle cx="415.0" cy="238.9" r="3" fill="#ef4444"/>
<circle cx="438.2" cy="256.0" r="3" fill="#ef4444"/>
<circle cx="461.4" cy="273.0" r="3" fill="#ef4444"/>
<circle cx="484.6" cy="290.1" r="3" fill="#ef4444"/>
<circle cx="507.9" cy="307.2" r="3" fill="#ef4444"/>
<circle cx="531.1" cy="324.2" r="3" fill="#ef4444"/>
<circle cx="554.3" cy="341.3" r="3" fill="#ef4444"/>
<circle cx="600.7" cy="375.4" r="3" fill="#ef4444"/>
<circle cx="647.1" cy="409.5" r="3" fill="#ef4444"/>
<circle cx="740.0" cy="477.7" r="3" fill="#ef4444"/>
<circle cx="832.9" cy="546.0" r="3" fill="#ef4444"/>
<polyline fill="none" stroke="#1a6b3c" stroke-width="2" points="189.7,68.8 241.6,80.6 290.3,107.9 337.4,141.9 384.1,170.9 430.5,187.2 484.3,204.4 530.6,310.1 576.5,346.8"/>
<polygon points="189.7,64.8 193.7,68.8 189.7,72.8 185.7,68.8" fill="#1a6b3c"/>
<polygon points="241.6,76.6 245.6,80.6 241.6,84.6 237.6,80.6" fill="#1a6b3c"/>
<polygon points="290.3,103.9 294.3,107.9 290.3,111.9 286.3,107.9" fill="#1a6b3c"/>
<polygon points="337.4,137.9 341.4,141.9 337.4,145.9 333.4,141.9" fill="#1a6b3c"/>
<polygon points="384.1,166.9 388.1,170.9 384.1,174.9 380.1,170.9" fill="#1a6b3c"/>
<polygon points="430.5,183.2 434.5,187.2 430.5,191.2 426.5,187.2" fill="#1a6b3c"/>
<polygon points="484.3,200.4 488.3,204.4 484.3,208.4 480.3,204.4" fill="#1a6b3c"/>
<polygon points="530.6,306.1 534.6,310.1 530.6,314.1 526.6,310.1" fill="#1a6b3c"/>
<polygon points="576.5,342.8 580.5,346.8 576.5,350.8 572.5,346.8" fill="#1a6b3c"/>
<polyline fill="none" stroke="#1a3a6b" stroke-width="2" points="168.7,74.2 215.1,74.2 261.5,74.2 308.0,74.2 354.4,74.2 400.8,74.2 447.2,74.2 493.7,74.2 540.1,74.2"/>
<polygon points="168.7,69.2 167.5,72.6 163.9,72.6 166.8,74.8 165.7,78.2 168.7,76.2 171.6,78.2 170.6,74.8 173.4,72.6 169.8,72.6" fill="#1a3a6b"/>
<polygon points="215.1,69.2 213.9,72.6 210.3,72.6 213.2,74.8 212.1,78.2 215.1,76.2 218.0,78.2 217.0,74.8 219.8,72.6 216.2,72.6" fill="#1a3a6b"/>
<polygon points="261.5,69.2 260.4,72.6 256.8,72.6 259.6,74.8 258.6,78.2 261.5,76.2 264.5,78.2 263.4,74.8 266.3,72.6 262.7,72.6" fill="#1a3a6b"/>
<polygon points="308.0,69.2 306.8,72.6 303.2,72.6 306.1,74.8 305.0,78.2 308.0,76.2 310.9,78.2 309.9,74.8 312.7,72.6 309.2,72.6" fill="#1a3a6b"/>
<polygon points="354.4,69.2 353.2,72.6 349.6,72.6 352.5,74.8 351.4,78.2 354.4,76.2 357.3,78.2 356.3,74.8 359.1,72.6 355.6,72.6" fill="#1a3a6b"/>
<polygon points="400.8,69.2 399.6,72.6 396.0,72.6 398.9,74.8 397.8,78.2 400.8,76.2 403.7,78.2 402.7,74.8 405.5,72.6 402.0,72.6" fill="#1a3a6b"/>
<polygon points="447.2,69.2 446.1,72.6 442.5,72.6 445.3,74.8 444.3,78.2 447.2,76.2 450.2,78.2 449.1,74.8 452.0,72.6 448.4,72.6" fill="#1a3a6b"/>
<polygon points="493.7,69.2 492.5,72.6 488.9,72.6 491.8,74.8 490.8,78.2 493.7,76.2 496.6,78.2 495.6,74.8 498.4,72.6 494.9,72.6" fill="#1a3a6b"/>
<polygon points="540.1,69.2 538.9,72.6 535.3,72.6 538.2,74.8 537.2,78.2 540.1,76.2 543.0,78.2 542.0,74.8 544.8,72.6 541.3,72.6" fill="#1a3a6b"/>
<polyline fill="none" stroke="#111111" stroke-width="2" points="393.0,98.3"/>
<rect x="390.0" y="95.3" width="6" height="6" fill="#111111"/>
<polyline fill="none" stroke="#111111" stroke-width="2" points="597.6,98.3"/>
<polygon points="597.6,94.3 601.6,101.3 593.6,101.3" fill="#111111"/>
<polyline fill="none" stroke="#111111" stroke-width="2" points="597.6,521.7"/>
<polygon points="597.6,517.7 601.6,521.7 597.6,525.7 593.6,521.7" fill="#111111"/>
<polyline fill="none" stroke="#2a7fff" stroke-width="2" points="90.0,68.3 90.0,68.3 90.1,68.3 90.1,68.3 90.3,68.3 90.5,68.3 91.1,68.3 92.2,68.3 94.4,68.3 98.7,68.3 107.2,68.3 121.7,68.3 142.6,68.3 168.2,68.4 195.6,68.8 222.6,72.1 248.6,80.6 297.5,104.5 344.8,131.0 438.2,244.3 531.1,309.5"/>
<rect x="87.0" y="65.3" width="6" height="6" fill="#2a7fff"/>
<rect x="87.0" y="65.3" width="6" height="6" fill="#2a7fff"/>
<rect x="87.1" y="65.3" width="6" height="6" fill="#2a7fff"/>
<rect x="87.1" y="65.3" width="6" height="6" fill="#2a7fff"/>
<rect x="87.3" y="65.3" width="6" height="6" fill="#2a7fff"/>
<rect x="87.5" y="65.3" width="6" height="6" fill="#2a7fff"/>
<rect x="88.1" y="65.3" width="6" height="6" fill="#2a7fff"/>
<rect x="89.2" y="65.3" width="6" height="6" fill="#2a7fff"/>
<rect x="91.4" y="65.3" width="6" height="6" fill="#2a7fff"/>
<rect x="95.7" y="65.3" width="6" height="6" fill="#2a7fff"/>
<rect x="104.2" y="65.3" width="6" height="6" fill="#2a7fff"/>
<rect x="118.7" y="65.3" width="6" height="6" fill="#2a7fff"/>
<rect x="139.6" y="65.3" width="6" height="6" fill="#2a7fff"/>
<rect x="165.2" y="65.4" width="6" height="6" fill="#2a7fff"/>
<rect x="192.6" y="65.8" width="6" height="6" fill="#2a7fff"/>
<rect x="219.6" y="69.1" width="6" height="6" fill="#2a7fff"/>
<rect x="245.6" y="77.6" width="6" height="6" fill="#2a7fff"/>
<rect x="294.5" y="101.5" width="6" height="6" fill="#2a7fff"/>
<rect x="341.8" y="128.0" width="6" height="6" fill="#2a7fff"/>
<rect x="435.2" y="241.3" width="6" height="6" fill="#2a7fff"/>
<rect x="528.1" y="306.5" width="6" height="6" fill="#2a7fff"/>
<polyline fill="none" stroke="#9b59b6" stroke-width="2" points="90.0,68.3 90.0,68.5 90.1,69.7 90.1,70.9 90.1,72.1 90.2,73.1 90.2,73.6 90.3,73.9 90.3,74.1 90.3,74.2 90.4,74.2 90.4,74.2 90.4,74.2 90.5,74.2 90.5,74.2 90.5,74.2 90.6,74.2 90.6,74.2 90.7,74.2 90.9,74.2 91.0,74.2"/>
<polygon points="90.0,64.3 94.0,71.3 86.0,71.3" fill="#9b59b6"/>
<polygon points="90.0,64.5 94.0,71.5 86.0,71.5" fill="#9b59b6"/>
<polygon points="90.1,65.7 94.1,72.7 86.1,72.7" fill="#9b59b6"/>
<polygon points="90.1,66.9 94.1,73.9 86.1,73.9" fill="#9b59b6"/>
<polygon points="90.1,68.1 94.1,75.1 86.1,75.1" fill="#9b59b6"/>
<polygon points="90.2,69.1 94.2,76.1 86.2,76.1" fill="#9b59b6"/>
<polygon points="90.2,69.6 94.2,76.6 86.2,76.6" fill="#9b59b6"/>
<polygon points="90.3,69.9 94.3,76.9 86.3,76.9" fill="#9b59b6"/>
<polygon points="90.3,70.1 94.3,77.1 86.3,77.1" fill="#9b59b6"/>
<polygon points="90.3,70.2 94.3,77.2 86.3,77.2" fill="#9b59b6"/>
<polygon points="90.4,70.2 94.4,77.2 86.4,77.2" fill="#9b59b6"/>
<polygon points="90.4,70.2 94.4,77.2 86.4,77.2" fill="#9b59b6"/>
<polygon points="90.4,70.2 94.4,77.2 86.4,77.2" fill="#9b59b6"/>
<polygon points="90.5,70.2 94.5,77.2 86.5,77.2" fill="#9b59b6"/>
<polygon points="90.5,70.2 94.5,77.2 86.5,77.2" fill="#9b59b6"/>
<polygon points="90.5,70.2 94.5,77.2 86.5,77.2" fill="#9b59b6"/>
<polygon points="90.6,70.2 94.6,77.2 86.6,77.2" fill="#9b59b6"/>
<polygon points="90.6,70.2 94.6,77.2 86.6,77.2" fill="#9b59b6"/>
<polygon points="90.7,70.2 94.7,77.2 86.7,77.2" fill="#9b59b6"/>
<polygon points="90.9,70.2 94.9,77.2 86.9,77.2" fill="#9b59b6"/>
<polygon points="91.0,70.2 95.0,77.2 87.0,77.2" fill="#9b59b6"/>
<polyline fill="none" stroke="#4dd88a" stroke-width="2" points="90.0,68.3 90.0,68.3 90.1,68.3 90.1,68.3 90.3,68.3 90.5,68.3 91.1,68.3 92.2,68.3 94.4,68.3 98.7,68.3 107.2,68.3 121.7,68.3 142.6,68.3 168.2,68.3 195.6,68.8 222.6,72.1 248.6,80.6 297.5,104.5 344.8,131.0 438.2,244.3 531.1,309.5"/>
<polygon points="90.0,64.3 94.0,68.3 90.0,72.3 86.0,68.3" fill="#4dd88a"/>
<polygon points="90.0,64.3 94.0,68.3 90.0,72.3 86.0,68.3" fill="#4dd88a"/>
<polygon points="90.1,64.3 94.1,68.3 90.1,72.3 86.1,68.3" fill="#4dd88a"/>
<polygon points="90.1,64.3 94.1,68.3 90.1,72.3 86.1,68.3" fill="#4dd88a"/>
<polygon points="90.3,64.3 94.3,68.3 90.3,72.3 86.3,68.3" fill="#4dd88a"/>
<polygon points="90.5,64.3 94.5,68.3 90.5,72.3 86.5,68.3" fill="#4dd88a"/>
<polygon points="91.1,64.3 95.1,68.3 91.1,72.3 87.1,68.3" fill="#4dd88a"/>
<polygon points="92.2,64.3 96.2,68.3 92.2,72.3 88.2,68.3" fill="#4dd88a"/>
<polygon points="94.4,64.3 98.4,68.3 94.4,72.3 90.4,68.3" fill="#4dd88a"/>
<polygon points="98.7,64.3 102.7,68.3 98.7,72.3 94.7,68.3" fill="#4dd88a"/>
<polygon points="107.2,64.3 111.2,68.3 107.2,72.3 103.2,68.3" fill="#4dd88a"/>
<polygon points="121.7,64.3 125.7,68.3 121.7,72.3 117.7,68.3" fill="#4dd88a"/>
<polygon points="142.6,64.3 146.6,68.3 142.6,72.3 138.6,68.3" fill="#4dd88a"/>
<polygon points="168.2,64.3 172.2,68.3 168.2,72.3 164.2,68.3" fill="#4dd88a"/>
<polygon points="195.6,64.8 199.6,68.8 195.6,72.8 191.6,68.8" fill="#4dd88a"/>
<polygon points="222.6,68.1 226.6,72.1 222.6,76.1 218.6,72.1" fill="#4dd88a"/>
<polygon points="248.6,76.6 252.6,80.6 248.6,84.6 244.6,80.6" fill="#4dd88a"/>
<polygon points="297.5,100.5 301.5,104.5 297.5,108.5 293.5,104.5" fill="#4dd88a"/>
<polygon points="344.8,127.0 348.8,131.0 344.8,135.0 340.8,131.0" fill="#4dd88a"/>
<polygon points="438.2,240.3 442.2,244.3 438.2,248.3 434.2,244.3" fill="#4dd88a"/>
<polygon points="531.1,305.5 535.1,309.5 531.1,313.5 527.1,309.5" fill="#4dd88a"/>
<polyline fill="none" stroke="#ff6b6b" stroke-width="2" points="90.6,69.1 90.8,69.3 91.2,70.2 91.9,71.2 93.3,72.3 96.1,73.2 101.5,73.7 111.4,74.0 126.2,74.1 146.4,74.2 167.6,74.3 188.7,76.3 209.4,83.1 229.4,95.1 249.0,112.3 268.2,137.3 287.1,346.8 287.2,400.9 287.3,521.7 287.4,521.7 287.5,521.7"/>
<polygon points="90.6,64.1 89.5,67.5 85.9,67.6 88.7,69.7 87.7,73.2 90.6,71.1 93.6,73.2 92.5,69.7 95.4,67.6 91.8,67.5" fill="#ff6b6b"/>
<polygon points="90.8,64.3 89.6,67.7 86.1,67.8 88.9,69.9 87.9,73.3 90.8,71.3 93.8,73.3 92.7,69.9 95.6,67.8 92.0,67.7" fill="#ff6b6b"/>
<polygon points="91.2,65.2 90.0,68.6 86.4,68.6 89.3,70.8 88.2,74.2 91.2,72.2 94.1,74.2 93.1,70.8 95.9,68.6 92.4,68.6" fill="#ff6b6b"/>
<polygon points="91.9,66.2 90.7,69.6 87.1,69.7 90.0,71.8 89.0,75.3 91.9,73.2 94.8,75.3 93.8,71.8 96.7,69.7 93.1,69.6" fill="#ff6b6b"/>
<polygon points="93.3,67.3 92.1,70.7 88.5,70.8 91.4,73.0 90.4,76.4 93.3,74.3 96.2,76.4 95.2,73.0 98.1,70.8 94.5,70.7" fill="#ff6b6b"/>
<polygon points="96.1,68.2 94.9,71.6 91.3,71.6 94.2,73.8 93.1,77.2 96.1,75.2 99.0,77.2 98.0,73.8 100.8,71.6 97.2,71.6" fill="#ff6b6b"/>
<polygon points="101.5,68.7 100.3,72.1 96.7,72.1 99.6,74.3 98.6,77.7 101.5,75.7 104.4,77.7 103.4,74.3 106.3,72.1 102.7,72.1" fill="#ff6b6b"/>
<polygon points="111.4,69.0 110.2,72.3 106.6,72.4 109.5,74.6 108.4,78.0 111.4,76.0 114.3,78.0 113.3,74.6 116.1,72.4 112.5,72.3" fill="#ff6b6b"/>
<polygon points="126.2,69.1 125.0,72.5 121.4,72.6 124.3,74.7 123.2,78.1 126.2,76.1 129.1,78.1 128.1,74.7 130.9,72.6 127.3,72.5" fill="#ff6b6b"/>
<polygon points="146.4,69.2 145.2,72.6 141.7,72.6 144.5,74.8 143.5,78.2 146.4,76.2 149.4,78.2 148.3,74.8 151.2,72.6 147.6,72.6" fill="#ff6b6b"/>
<polygon points="167.6,69.3 166.4,72.7 162.8,72.8 165.7,75.0 164.6,78.4 167.6,76.3 170.5,78.4 169.5,75.0 172.3,72.8 168.7,72.7" fill="#ff6b6b"/>
<polygon points="188.7,71.3 187.5,74.7 183.9,74.8 186.8,77.0 185.7,80.4 188.7,78.3 191.6,80.4 190.6,77.0 193.4,74.8 189.9,74.7" fill="#ff6b6b"/>
<polygon points="209.4,78.1 208.2,81.5 204.6,81.5 207.5,83.7 206.4,87.1 209.4,85.1 212.3,87.1 211.3,83.7 214.1,81.5 210.6,81.5" fill="#ff6b6b"/>
<polygon points="229.4,90.1 228.2,93.5 224.6,93.5 227.5,95.7 226.5,99.1 229.4,97.1 232.3,99.1 231.3,95.7 234.1,93.5 230.6,93.5" fill="#ff6b6b"/>
<polygon points="249.0,107.3 247.8,110.6 244.2,110.7 247.1,112.9 246.0,116.3 249.0,114.3 251.9,116.3 250.9,112.9 253.7,110.7 250.2,110.6" fill="#ff6b6b"/>
<polygon points="268.2,132.3 267.0,135.7 263.4,135.8 266.3,137.9 265.2,141.4 268.2,139.3 271.1,141.4 270.1,137.9 272.9,135.8 269.4,135.7" fill="#ff6b6b"/>
<polygon points="287.1,341.8 286.0,345.2 282.4,345.2 285.2,347.4 284.2,350.8 287.1,348.8 290.1,350.8 289.0,347.4 291.9,345.2 288.3,345.2" fill="#ff6b6b"/>
<polygon points="287.2,395.9 286.0,399.2 282.4,399.3 285.3,401.5 284.3,404.9 287.2,402.9 290.1,404.9 289.1,401.5 292.0,399.3 288.4,399.2" fill="#ff6b6b"/>
<polygon points="287.3,516.7 286.1,520.0 282.5,520.1 285.4,522.3 284.3,525.7 287.3,523.7 290.2,525.7 289.2,522.3 292.0,520.1 288.4,520.0" fill="#ff6b6b"/>
<polygon points="287.4,516.7 286.2,520.0 282.6,520.1 285.5,522.3 284.5,525.7 287.4,523.7 290.3,525.7 289.3,522.3 292.1,520.1 288.6,520.0" fill="#ff6b6b"/>
<polygon points="287.5,516.7 286.3,520.0 282.8,520.1 285.6,522.3 284.6,525.7 287.5,523.7 290.5,525.7 289.4,522.3 292.3,520.1 288.7,520.0" fill="#ff6b6b"/>
<polyline fill="none" stroke="#ff922b" stroke-width="2" points="278.4,125.8 302.5,140.7 325.4,154.7 347.6,166.8 369.3,176.4 390.7,182.0 411.7,182.0 432.8,182.0 474.8,182.0 495.8,182.0"/>
<circle cx="278.4" cy="125.8" r="3" fill="#ff922b"/>
<circle cx="302.5" cy="140.7" r="3" fill="#ff922b"/>
<circle cx="325.4" cy="154.7" r="3" fill="#ff922b"/>
<circle cx="347.6" cy="166.8" r="3" fill="#ff922b"/>
<circle cx="369.3" cy="176.4" r="3" fill="#ff922b"/>
<circle cx="390.7" cy="182.0" r="3" fill="#ff922b"/>
<circle cx="411.7" cy="182.0" r="3" fill="#ff922b"/>
<circle cx="432.8" cy="182.0" r="3" fill="#ff922b"/>
<circle cx="474.8" cy="182.0" r="3" fill="#ff922b"/>
<circle cx="495.8" cy="182.0" r="3" fill="#ff922b"/>
<polyline fill="none" stroke="#888888" stroke-width="2" stroke-dasharray="8,5" points="332.9,124.5 367.6,141.6 412.5,164.5 446.2,181.4 479.9,198.7 524.2,221.1 557.7,239.0 591.2,256.8 635.5,280.0 669.0,293.6"/>
<circle cx="332.9" cy="124.5" r="3" fill="#888888"/>
<circle cx="367.6" cy="141.6" r="3" fill="#888888"/>
<circle cx="412.5" cy="164.5" r="3" fill="#888888"/>
<circle cx="446.2" cy="181.4" r="3" fill="#888888"/>
<circle cx="479.9" cy="198.7" r="3" fill="#888888"/>
<circle cx="524.2" cy="221.1" r="3" fill="#888888"/>
<circle cx="557.7" cy="239.0" r="3" fill="#888888"/>
<circle cx="591.2" cy="256.8" r="3" fill="#888888"/>
<circle cx="635.5" cy="280.0" r="3" fill="#888888"/>
<circle cx="669.0" cy="293.6" r="3" fill="#888888"/>
<line x1="886" y1="60" x2="902" y2="60" stroke="#ef4444" stroke-width="2" stroke-dasharray="8,5"/>
<circle cx="894.0" cy="60.0" r="3" fill="#ef4444"/>
<text class="label" x="908" y="64">Theoretical</text>
<line x1="886" y1="78" x2="902" y2="78" stroke="#1a6b3c" stroke-width="2"/>
<polygon points="894.0,74.0 898.0,78.0 894.0,82.0 890.0,78.0" fill="#1a6b3c"/>
<text class="label" x="908" y="82">Grafite</text>
<line x1="886" y1="96" x2="902" y2="96" stroke="#1a3a6b" stroke-width="2"/>
<polygon points="894.0,91.0 892.8,94.4 889.2,94.5 892.1,96.6 891.1,100.0 894.0,98.0 896.9,100.0 895.9,96.6 898.8,94.5 895.2,94.4" fill="#1a3a6b"/>
<text class="label" x="908" y="100">SNARF</text>
<line x1="886" y1="114" x2="902" y2="114" stroke="#111111" stroke-width="2"/>
<rect x="891.0" y="111.0" width="6" height="6" fill="#111111"/>
<text class="label" x="908" y="118">SuRF</text>
<line x1="886" y1="132" x2="902" y2="132" stroke="#111111" stroke-width="2"/>
<polygon points="894.0,128.0 898.0,135.0 890.0,135.0" fill="#111111"/>
<text class="label" x="908" y="136">SuRFHash(8)</text>
<line x1="886" y1="150" x2="902" y2="150" stroke="#111111" stroke-width="2"/>
<polygon points="894.0,146.0 898.0,150.0 894.0,154.0 890.0,150.0" fill="#111111"/>
<text class="label" x="908" y="154">SuRFReal(8)</text>
<line x1="886" y1="168" x2="902" y2="168" stroke="#2a7fff" stroke-width="2"/>
<rect x="891.0" y="165.0" width="6" height="6" fill="#2a7fff"/>
<text class="label" x="908" y="172">Adaptive (t=0)</text>
<line x1="886" y1="186" x2="902" y2="186" stroke="#9b59b6" stroke-width="2"/>
<polygon points="894.0,182.0 898.0,189.0 890.0,189.0" fill="#9b59b6"/>
<text class="label" x="908" y="190">Truncation</text>
<line x1="886" y1="204" x2="902" y2="204" stroke="#4dd88a" stroke-width="2"/>
<polygon points="894.0,200.0 898.0,204.0 894.0,208.0 890.0,204.0" fill="#4dd88a"/>
<text class="label" x="908" y="208">SODA</text>
<line x1="886" y1="222" x2="902" y2="222" stroke="#ff6b6b" stroke-width="2"/>
<polygon points="894.0,217.0 892.8,220.4 889.2,220.5 892.1,222.6 891.1,226.0 894.0,224.0 896.9,226.0 895.9,222.6 898.8,220.5 895.2,220.4" fill="#ff6b6b"/>
<text class="label" x="908" y="226">Hybrid</text>
<line x1="886" y1="240" x2="902" y2="240" stroke="#ff922b" stroke-width="2"/>
<circle cx="894.0" cy="240.0" r="3" fill="#ff922b"/>
<text class="label" x="908" y="244">CDF-ARE</text>
<line x1="886" y1="258" x2="902" y2="258" stroke="#888888" stroke-width="2" stroke-dasharray="8,5"/>
<circle cx="894.0" cy="258.0" r="3" fill="#888888"/>
<text class="label" x="908" y="262">BloomARE</text>
<text x="480" y="590" text-anchor="middle">Bits per Key (BPK)</text>
<text transform="translate(16,295) rotate(-90)" text-anchor="middle">False Positive Rate (FPR)</text>
</svg>
