<svg xmlns="http://www.w3.org/2000/svg" width="1020" height="600" viewBox="0 0 1020 600">
<style>text{font-family:Menlo,Monaco,monospace;font-size:12px;fill:#222} .axis{stroke:#333;stroke-width:1} .grid{stroke:#eee;stroke-width:0.5} .label{font-size:11px;fill:#444}</style>
<text x="510" y="28" text-anchor="middle" style="font-size:14px;font-weight:bold">FPR vs BPK — spread (60-bit keys, n=262144, L=1024)</text>
<line class="axis" x1="90.0" y1="550.0" x2="870.0" y2="550.0"/>
<line class="axis" x1="90.0" y1="40.0" x2="90.0" y2="550.0"/>
<line class="grid" x1="90.0" y1="518.1" x2="870.0" y2="518.1"/>
<text class="label" x="82.0" y="522.1" text-anchor="end">10^-7</text>
<line class="grid" x1="90.0" y1="454.4" x2="870.0" y2="454.4"/>
<text class="label" x="82.0" y="458.4" text-anchor="end">10^-6</text>
<line class="grid" x1="90.0" y1="390.6" x2="870.0" y2="390.6"/>
<text class="label" x="82.0" y="394.6" text-anchor="end">10^-5</text>
<line class="grid" x1="90.0" y1="326.9" x2="870.0" y2="326.9"/>
<text class="label" x="82.0" y="330.9" text-anchor="end">10^-4</text>
<line class="grid" x1="90.0" y1="263.1" x2="870.0" y2="263.1"/>
<text class="label" x="82.0" y="267.1" text-anchor="end">10^-3</text>
<line class="grid" x1="90.0" y1="199.4" x2="870.0" y2="199.4"/>
<text class="label" x="82.0" y="203.4" text-anchor="end">10^-2</text>
<line class="grid" x1="90.0" y1="135.6" x2="870.0" y2="135.6"/>
<text class="label" x="82.0" y="139.6" text-anchor="end">10^-1</text>
<line class="grid" x1="90.0" y1="71.9" x2="870.0" y2="71.9"/>
<text class="label" x="82.0" y="75.9" text-anchor="end">1</text>
<line class="grid" x1="90.0" y1="40.0" x2="90.0" y2="550.0"/>
<text class="label" x="90.0" y="566.0" text-anchor="middle">0</text>
<line class="grid" x1="200.6" y1="40.0" x2="200.6" y2="550.0"/>
<text class="label" x="200.6" y="566.0" text-anchor="middle">5</text>
<line class="grid" x1="311.1" y1="40.0" x2="311.1" y2="550.0"/>
<text class="label" x="311.1" y="566.0" text-anchor="middle">10</text>
<line class="grid" x1="421.7" y1="40.0" x2="421.7" y2="550.0"/>
<text class="label" x="421.7" y="566.0" text-anchor="middle">15</text>
<line class="grid" x1="532.2" y1="40.0" x2="532.2" y2="550.0"/>
<text class="label" x="532.2" y="566.0" text-anchor="middle">20</text>
<line class="grid" x1="642.8" y1="40.0" x2="642.8" y2="550.0"/>
<text class="label" x="642.8" y="566.0" text-anchor="middle">25</text>
<line class="grid" x1="753.3" y1="40.0" x2="753.3" y2="550.0"/>
<text class="label" x="753.3" y="566.0" text-anchor="middle">30</text>
<line class="grid" x1="863.9" y1="40.0" x2="863.9" y2="550.0"/>
<text class="label" x="863.9" y="566.0" text-anchor="middle">35</text>
<polyline fill="none" stroke="#ef4444" stroke-width="2" stroke-dasharray="8,5" points="311.1,71.9 333.2,91.1 355.3,110.3 377.4,129.4 399.6,148.6 421.7,167.8 443.8,187.0 465.9,206.2 488.0,225.4 510.1,244.6 532.2,263.8 576.4,302.2 620.7,340.5 709.1,417.3 797.5,494.1"/>
<circle cx="311.1" cy="71.9" r="3" fill="#ef4444"/>
<circle cx="333.2" cy="91.1" r="3" fill="#ef4444"/>
<circle cx="355.3" cy="110.3" r="3" fill="#ef4444"/>
<circle cx="377.4" cy="129.4" r="3" fill="#ef4444"/>
<circle cx="399.6" cy="148.6" r="3" fill="#ef4444"/>
<circle cx="421.7" cy="167.8" r="3" fill="#ef4444"/>
<circle cx="443.8" cy="187.0" r="3" fill="#ef4444"/>
<circle cx="465.9" cy="206.2" r="3" fill="#ef4444"/>
<circle cx="488.0" cy="225.4" r="3" fill="#ef4444"/>
<circle cx="510.1" cy="244.6" r="3" fill="#ef4444"/>
<circle cx="532.2" cy="263.8" r="3" fill="#ef4444"/>
<circle cx="576.4" cy="302.2" r="3" fill="#ef4444"/>
<circle cx="620.7" cy="340.5" r="3" fill="#ef4444"/>
<circle cx="709.1" cy="417.3" r="3" fill="#ef4444"/>
<circle cx="797.5" cy="494.1" r="3" fill="#ef4444"/>
<polyline fill="none" stroke="#1a6b3c" stroke-width="2" points="90.3,244.1 90.3,259.9 90.4,224.3 90.7,225.0 113.7,148.8 266.5,129.5 464.8,148.5 509.0,186.4 553.2,226.1"/>
<polygon points="90.3,240.1 94.3,244.1 90.3,248.1 86.3,244.1" fill="#1a6b3c"/>
<polygon points="90.3,255.9 94.3,259.9 90.3,263.9 86.3,259.9" fill="#1a6b3c"/>
<polygon points="90.4,220.3 94.4,224.3 90.4,228.3 86.4,224.3" fill="#1a6b3c"/>
<polygon points="90.7,221.0 94.7,225.0 90.7,229.0 86.7,225.0" fill="#1a6b3c"/>
<polygon points="113.7,144.8 117.7,148.8 113.7,152.8 109.7,148.8" fill="#1a6b3c"/>
<polygon points="266.5,125.5 270.5,129.5 266.5,133.5 262.5,129.5" fill="#1a6b3c"/>
<polygon points="464.8,144.5 468.8,148.5 464.8,152.5 460.8,148.5" fill="#1a6b3c"/>
<polygon points="509.0,182.4 513.0,186.4 509.0,190.4 505.0,186.4" fill="#1a6b3c"/>
<polygon points="553.2,222.1 557.2,226.1 553.2,230.1 549.2,226.1" fill="#1a6b3c"/>
<polyline fill="none" stroke="#1a3a6b" stroke-width="2" points="164.8,90.7 208.9,128.8 253.2,167.1 297.4,205.2 341.7,242.4 385.8,281.4 430.0,320.2 474.3,350.1 518.6,381.3"/>
<polygon points="164.8,85.7 163.7,89.0 160.1,89.1 162.9,91.3 161.9,94.7 164.8,92.7 167.8,94.7 166.7,91.3 169.6,89.1 166.0,89.0" fill="#1a3a6b"/>
<polygon points="208.9,123.8 207.7,127.1 204.1,127.2 207.0,129.4 205.9,132.8 208.9,130.8 211.8,132.8 210.8,129.4 213.6,127.2 210.0,127.1" fill="#1a3a6b"/>
<polygon points="253.2,162.1 252.0,165.5 248.4,165.6 251.3,167.7 250.2,171.1 253.2,169.1 256.1,171.1 255.1,167.7 257.9,165.6 254.3,165.5" fill="#1a3a6b"/>
<polygon points="297.4,200.2 296.3,203.5 292.7,203.6 295.5,205.8 294.5,209.2 297.4,207.2 300.4,209.2 299.3,205.8 302.2,203.6 298.6,203.5" fill="#1a3a6b"/>
<polygon points="341.7,237.4 340.5,240.7 337.0,240.8 339.8,243.0 338.8,246.4 341.7,244.4 344.7,246.4 343.6,243.0 346.5,240.8 342.9,240.7" fill="#1a3a6b"/>
<polygon points="385.8,276.4 384.6,279.7 381.0,279.8 383.8,282.0 382.8,285.4 385.8,283.4 388.7,285.4 387.7,282.0 390.5,279.8 386.9,279.7" fill="#1a3a6b"/>
<polygon points="430.0,315.2 428.9,318.6 425.3,318.7 428.1,320.8 427.1,324.3 430.0,322.2 433.0,324.3 431.9,320.8 434.8,318.7 431.2,318.6" fill="#1a3a6b"/>
<polygon points="474.3,345.1 473.2,348.5 469.6,348.5 472.4,350.7 471.4,354.1 474.3,352.1 477.3,354.1 476.2,350.7 479.1,348.5 475.5,348.5" fill="#1a3a6b"/>
<polygon points="518.6,376.3 517.4,379.7 513.9,379.8 516.7,382.0 515.7,385.4 518.6,383.3 521.5,385.4 520.5,382.0 523.4,379.8 519.8,379.7" fill="#1a3a6b"/>
<polyline fill="none" stroke="#111111" stroke-width="2" points="279.6,110.2"/>
<rect x="276.6" y="107.2" width="6" height="6" fill="#111111"/>
<polyline fill="none" stroke="#111111" stroke-width="2" points="456.4,110.2"/>
<polygon points="456.4,106.2 460.4,113.2 452.4,113.2" fill="#111111"/>
<polyline fill="none" stroke="#111111" stroke-width="2" points="456.4,262.5"/>
<polygon points="456.4,258.5 460.4,262.5 456.4,266.5 452.4,262.5" fill="#111111"/>
<polyline fill="none" stroke="#2a7fff" stroke-width="2" points="90.0,71.9 90.0,71.9 90.0,71.9 90.0,71.9 90.0,71.9 90.0,71.9 90.0,71.9 90.0,91.1 90.0,110.3 90.0,129.4 90.0,148.7 90.0,168.0 90.0,187.0 90.0,206.1 90.0,225.2 90.0,245.0 90.0,263.5 90.0,301.7 90.0,337.3 90.0,409.3 90.0,447.7"/>
<rect x="87.0" y="68.9" width="6" height="6" fill="#2a7fff"/>
<rect x="87.0" y="68.9" width="6" height="6" fill="#2a7fff"/>
<rect x="87.0" y="68.9" width="6" height="6" fill="#2a7fff"/>
<rect x="87.0" y="68.9" width="6" height="6" fill="#2a7fff"/>
<rect x="87.0" y="68.9" width="6" height="6" fill="#2a7fff"/>
<rect x="87.0" y="68.9" width="6" height="6" fill="#2a7fff"/>
<rect x="87.0" y="68.9" width="6" height="6" fill="#2a7fff"/>
<rect x="87.0" y="88.1" width="6" height="6" fill="#2a7fff"/>
<rect x="87.0" y="107.3" width="6" height="6" fill="#2a7fff"/>
<rect x="87.0" y="126.4" width="6" height="6" fill="#2a7fff"/>
<rect x="87.0" y="145.7" width="6" height="6" fill="#2a7fff"/>
<rect x="87.0" y="165.0" width="6" height="6" fill="#2a7fff"/>
<rect x="87.0" y="184.0" width="6" height="6" fill="#2a7fff"/>
<rect x="87.0" y="203.1" width="6" height="6" fill="#2a7fff"/>
<rect x="87.0" y="222.2" width="6" height="6" fill="#2a7fff"/>
<rect x="87.0" y="242.0" width="6" height="6" fill="#2a7fff"/>
<rect x="87.0" y="260.5" width="6" height="6" fill="#2a7fff"/>
<rect x="87.0" y="298.7" width="6" height="6" fill="#2a7fff"/>
<rect x="87.0" y="334.3" width="6" height="6" fill="#2a7fff"/>
<rect x="87.0" y="406.3" width="6" height="6" fill="#2a7fff"/>
<rect x="87.0" y="444.7" width="6" height="6" fill="#2a7fff"/>
<polyline fill="none" stroke="#9b59b6" stroke-width="2" points="90.0,71.9 90.0,71.9 90.0,71.9 90.0,71.9 90.1,71.9 90.1,71.9 90.3,71.9 90.5,71.9 91.0,71.9 92.1,71.9 94.1,71.9 98.3,71.9 106.6,71.9 123.2,71.9 156.3,71.9 178.4,91.0 200.6,110.2 244.8,148.6 289.0,187.3 377.4,262.5 465.9,336.3"/>
<polygon points="90.0,67.9 94.0,74.9 86.0,74.9" fill="#9b59b6"/>
<polygon points="90.0,67.9 94.0,74.9 86.0,74.9" fill="#9b59b6"/>
<polygon points="90.0,67.9 94.0,74.9 86.0,74.9" fill="#9b59b6"/>
<polygon points="90.0,67.9 94.0,74.9 86.0,74.9" fill="#9b59b6"/>
<polygon points="90.1,67.9 94.1,74.9 86.1,74.9" fill="#9b59b6"/>
<polygon points="90.1,67.9 94.1,74.9 86.1,74.9" fill="#9b59b6"/>
<polygon points="90.3,67.9 94.3,74.9 86.3,74.9" fill="#9b59b6"/>
<polygon points="90.5,67.9 94.5,74.9 86.5,74.9" fill="#9b59b6"/>
<polygon points="91.0,67.9 95.0,74.9 87.0,74.9" fill="#9b59b6"/>
<polygon points="92.1,67.9 96.1,74.9 88.1,74.9" fill="#9b59b6"/>
<polygon points="94.1,67.9 98.1,74.9 90.1,74.9" fill="#9b59b6"/>
<polygon points="98.3,67.9 102.3,74.9 94.3,74.9" fill="#9b59b6"/>
<polygon points="106.6,67.9 110.6,74.9 102.6,74.9" fill="#9b59b6"/>
<polygon points="123.2,67.9 127.2,74.9 119.2,74.9" fill="#9b59b6"/>
<polygon points="156.3,67.9 160.3,74.9 152.3,74.9" fill="#9b59b6"/>
<polygon points="178.4,87.0 182.4,94.0 174.4,94.0" fill="#9b59b6"/>
<polygon points="200.6,106.2 204.6,113.2 196.6,113.2" fill="#9b59b6"/>
<polygon points="244.8,144.6 248.8,151.6 240.8,151.6" fill="#9b59b6"/>
<polygon points="289.0,183.3 293.0,190.3 285.0,190.3" fill="#9b59b6"/>
<polygon points="377.4,258.5 381.4,265.5 373.4,265.5" fill="#9b59b6"/>
<polygon points="465.9,332.3 469.9,339.3 461.9,339.3" fill="#9b59b6"/>
<polyline fill="none" stroke="#4dd88a" stroke-width="2" points="90.0,71.9 90.0,71.9 90.0,71.9 90.0,71.9 90.0,71.9 90.0,71.9 90.0,71.9 90.0,91.1 90.0,110.3 90.0,129.4 90.0,148.7 90.0,168.0 90.0,187.0 90.0,206.1 90.0,225.2 90.0,245.0 90.0,263.5 90.0,301.7 90.0,337.3 90.0,409.3 90.0,447.7"/>
<polygon points="90.0,67.9 94.0,71.9 90.0,75.9 86.0,71.9" fill="#4dd88a"/>
<polygon points="90.0,67.9 94.0,71.9 90.0,75.9 86.0,71.9" fill="#4dd88a"/>
<polygon points="90.0,67.9 94.0,71.9 90.0,75.9 86.0,71.9" fill="#4dd88a"/>
<polygon points="90.0,67.9 94.0,71.9 90.0,75.9 86.0,71.9" fill="#4dd88a"/>
<polygon points="90.0,67.9 94.0,71.9 90.0,75.9 86.0,71.9" fill="#4dd88a"/>
<polygon points="90.0,67.9 94.0,71.9 90.0,75.9 86.0,71.9" fill="#4dd88a"/>
<polygon points="90.0,67.9 94.0,71.9 90.0,75.9 86.0,71.9" fill="#4dd88a"/>
<polygon points="90.0,87.1 94.0,91.1 90.0,95.1 86.0,91.1" fill="#4dd88a"/>
<polygon points="90.0,106.3 94.0,110.3 90.0,114.3 86.0,110.3" fill="#4dd88a"/>
<polygon points="90.0,125.4 94.0,129.4 90.0,133.4 86.0,129.4" fill="#4dd88a"/>
<polygon points="90.0,144.7 94.0,148.7 90.0,152.7 86.0,148.7" fill="#4dd88a"/>
<polygon points="90.0,164.0 94.0,168.0 90.0,172.0 86.0,168.0" fill="#4dd88a"/>
<polygon points="90.0,183.0 94.0,187.0 90.0,191.0 86.0,187.0" fill="#4dd88a"/>
<polygon points="90.0,202.1 94.0,206.1 90.0,210.1 86.0,206.1" fill="#4dd88a"/>
<polygon points="90.0,221.2 94.0,225.2 90.0,229.2 86.0,225.2" fill="#4dd88a"/>
<polygon points="90.0,241.0 94.0,245.0 90.0,249.0 86.0,245.0" fill="#4dd88a"/>
<polygon points="90.0,259.5 94.0,263.5 90.0,267.5 86.0,263.5" fill="#4dd88a"/>
<polygon points="90.0,297.7 94.0,301.7 90.0,305.7 86.0,301.7" fill="#4dd88a"/>
<polygon points="90.0,333.3 94.0,337.3 90.0,341.3 86.0,337.3" fill="#4dd88a"/>
<polygon points="90.0,405.3 94.0,409.3 90.0,413.3 86.0,409.3" fill="#4dd88a"/>
<polygon points="90.0,443.7 94.0,447.7 90.0,451.7 86.0,447.7" fill="#4dd88a"/>
<polyline fill="none" stroke="#ff6b6b" stroke-width="2" points="90.0,71.9 90.0,71.9 90.0,71.9 90.0,71.9 90.1,71.9 90.1,71.9 90.3,71.9 90.5,71.9 91.0,71.9 92.1,71.9 94.1,71.9 98.3,71.9 106.6,71.9 123.2,71.9 156.3,71.9 178.4,91.0 200.6,110.2 244.8,148.6 289.0,187.3 377.4,262.5 465.9,336.3"/>
<polygon points="90.0,66.9 88.8,70.3 85.2,70.3 88.1,72.5 87.1,75.9 90.0,73.9 92.9,75.9 91.9,72.5 94.8,70.3 91.2,70.3" fill="#ff6b6b"/>
<polygon points="90.0,66.9 88.8,70.3 85.3,70.3 88.1,72.5 87.1,75.9 90.0,73.9 92.9,75.9 91.9,72.5 94.8,70.3 91.2,70.3" fill="#ff6b6b"/>
<polygon points="90.0,66.9 88.8,70.3 85.3,70.3 88.1,72.5 87.1,75.9 90.0,73.9 93.0,75.9 91.9,72.5 94.8,70.3 91.2,70.3" fill="#ff6b6b"/>
<polygon points="90.0,66.9 88.9,70.3 85.3,70.3 88.1,72.5 87.1,75.9 90.0,73.9 93.0,75.9 91.9,72.5 94.8,70.3 91.2,70.3" fill="#ff6b6b"/>
<polygon points="90.1,66.9 88.9,70.3 85.3,70.3 88.2,72.5 87.1,75.9 90.1,73.9 93.0,75.9 92.0,72.5 94.8,70.3 91.2,70.3" fill="#ff6b6b"/>
<polygon points="90.1,66.9 89.0,70.3 85.4,70.3 88.2,72.5 87.2,75.9 90.1,73.9 93.1,75.9 92.0,72.5 94.9,70.3 91.3,70.3" fill="#ff6b6b"/>
<polygon points="90.3,66.9 89.1,70.3 85.5,70.3 88.4,72.5 87.3,75.9 90.3,73.9 93.2,75.9 92.2,72.5 95.0,70.3 91.4,70.3" fill="#ff6b6b"/>
<polygon points="90.5,66.9 89.3,70.3 85.8,70.3 88.6,72.5 87.6,75.9 90.5,73.9 93.5,75.9 92.4,72.5 95.3,70.3 91.7,70.3" fill="#ff6b6b"/>
<polygon points="91.0,66.9 89.9,70.3 86.3,70.3 89.1,72.5 88.1,75.9 91.0,73.9 94.0,75.9 92.9,72.5 95.8,70.3 92.2,70.3" fill="#ff6b6b"/>
<polygon points="92.1,66.9 90.9,70.3 87.3,70.3 90.2,72.5 89.1,75.9 92.1,73.9 95.0,75.9 94.0,72.5 96.8,70.3 93.2,70.3" fill="#ff6b6b"/>
<polygon points="94.1,66.9 93.0,70.3 89.4,70.3 92.2,72.5 91.2,75.9 94.1,73.9 97.1,75.9 96.0,72.5 98.9,70.3 95.3,70.3" fill="#ff6b6b"/>
<polygon points="98.3,66.9 97.1,70.3 93.5,70.3 96.4,72.5 95.4,75.9 98.3,73.9 101.2,75.9 100.2,72.5 103.0,70.3 99.5,70.3" fill="#ff6b6b"/>
<polygon points="106.6,66.9 105.4,70.3 101.8,70.3 104.7,72.5 103.6,75.9 106.6,73.9 109.5,75.9 108.5,72.5 111.3,70.3 107.8,70.3" fill="#ff6b6b"/>
<polygon points="123.2,66.9 122.0,70.3 118.4,70.3 121.3,72.5 120.2,75.9 123.2,73.9 126.1,75.9 125.1,72.5 127.9,70.3 124.3,70.3" fill="#ff6b6b"/>
<polygon points="156.3,66.9 155.2,70.3 151.6,70.3 154.4,72.5 153.4,75.9 156.3,73.9 159.3,75.9 158.2,72.5 161.1,70.3 157.5,70.3" fill="#ff6b6b"/>
<polygon points="178.4,86.0 177.3,89.4 173.7,89.5 176.5,91.6 175.5,95.1 178.4,93.0 181.4,95.1 180.3,91.6 183.2,89.5 179.6,89.4" fill="#ff6b6b"/>
<polygon points="200.6,105.2 199.4,108.6 195.8,108.7 198.7,110.8 197.6,114.3 200.6,112.2 203.5,114.3 202.5,110.8 205.3,108.7 201.7,108.6" fill="#ff6b6b"/>
<polygon points="244.8,143.6 243.6,147.0 240.0,147.1 242.9,149.3 241.8,152.7 244.8,150.6 247.7,152.7 246.7,149.3 249.5,147.1 246.0,147.0" fill="#ff6b6b"/>
<polygon points="289.0,182.3 287.8,185.6 284.2,185.7 287.1,187.9 286.1,191.3 289.0,189.3 291.9,191.3 290.9,187.9 293.8,185.7 290.2,185.6" fill="#ff6b6b"/>
<polygon points="377.4,257.5 376.3,260.9 372.7,261.0 375.5,263.2 374.5,266.6 377.4,264.5 380.4,266.6 379.3,263.2 382.2,261.0 378.6,260.9" fill="#ff6b6b"/>
<polygon points="465.9,331.3 464.7,334.7 461.1,334.7 464.0,336.9 462.9,340.3 465.9,338.3 468.8,340.3 467.8,336.9 470.6,334.7 467.1,334.7" fill="#ff6b6b"/>
<polyline fill="none" stroke="#ff922b" stroke-width="2" points="289.0,131.3 311.1,150.7 333.2,169.9 355.3,189.1 377.5,208.2 399.6,227.2 421.7,246.2 443.8,265.0 488.0,303.5 510.1,321.4"/>
<circle cx="289.0" cy="131.3" r="3" fill="#ff922b"/>
<circle cx="311.1" cy="150.7" r="3" fill="#ff922b"/>
<circle cx="333.2" cy="169.9" r="3" fill="#ff922b"/>
<circle cx="355.3" cy="189.1" r="3" fill="#ff922b"/>
<circle cx="377.5" cy="208.2" r="3" fill="#ff922b"/>
<circle cx="399.6" cy="227.2" r="3" fill="#ff922b"/>
<circle cx="421.7" cy="246.2" r="3" fill="#ff922b"/>
<circle cx="443.8" cy="265.0" r="3" fill="#ff922b"/>
<circle cx="488.0" cy="303.5" r="3" fill="#ff922b"/>
<circle cx="510.1" cy="321.4" r="3" fill="#ff922b"/>
<polyline fill="none" stroke="#888888" stroke-width="2" stroke-dasharray="8,5" points="512.6,135.6 545.7,154.6 588.6,180.2 620.7,198.9 652.7,218.9 694.9,244.3 726.9,262.0 758.8,281.8 801.0,308.3 832.9,324.7"/>
<circle cx="512.6" cy="135.6" r="3" fill="#888888"/>
<circle cx="545.7" cy="154.6" r="3" fill="#888888"/>
<circle cx="588.6" cy="180.2" r="3" fill="#888888"/>
<circle cx="620.7" cy="198.9" r="3" fill="#888888"/>
<circle cx="652.7" cy="218.9" r="3" fill="#888888"/>
<circle cx="694.9" cy="244.3" r="3" fill="#888888"/>
<circle cx="726.9" cy="262.0" r="3" fill="#888888"/>
<circle cx="758.8" cy="281.8" r="3" fill="#888888"/>
<circle cx="801.0" cy="308.3" r="3" fill="#888888"/>
<circle cx="832.9" cy="324.7" r="3" fill="#888888"/>
<line x1="886" y1="60" x2="902" y2="60" stroke="#ef4444" stroke-width="2" stroke-dasharray="8,5"/>
<circle cx="894.0" cy="60.0" r="3" fill="#ef4444"/>
<text class="label" x="908" y="64">Theoretical</text>
<line x1="886" y1="78" x2="902" y2="78" stroke="#1a6b3c" stroke-width="2"/>
<polygon points="894.0,74.0 898.0,78.0 894.0,82.0 890.0,78.0" fill="#1a6b3c"/>
<text class="label" x="908" y="82">Grafite</text>
<line x1="886" y1="96" x2="902" y2="96" stroke="#1a3a6b" stroke-width="2"/>
<polygon points="894.0,91.0 892.8,94.4 889.2,94.5 892.1,96.6 891.1,100.0 894.0,98.0 896.9,100.0 895.9,96.6 898.8,94.5 895.2,94.4" fill="#1a3a6b"/>
<text class="label" x="908" y="100">SNARF</text>
<line x1="886" y1="114" x2="902" y2="114" stroke="#111111" stroke-width="2"/>
<rect x="891.0" y="111.0" width="6" height="6" fill="#111111"/>
<text class="label" x="908" y="118">SuRF</text>
<line x1="886" y1="132" x2="902" y2="132" stroke="#111111" stroke-width="2"/>
<polygon points="894.0,128.0 898.0,135.0 890.0,135.0" fill="#111111"/>
<text class="label" x="908" y="136">SuRFHash(8)</text>
<line x1="886" y1="150" x2="902" y2="150" stroke="#111111" stroke-width="2"/>
<polygon points="894.0,146.0 898.0,150.0 894.0,154.0 890.0,150.0" fill="#111111"/>
<text class="label" x="908" y="154">SuRFReal(8)</text>
<line x1="886" y1="168" x2="902" y2="168" stroke="#2a7fff" stroke-width="2"/>
<rect x="891.0" y="165.0" width="6" height="6" fill="#2a7fff"/>
<text class="label" x="908" y="172">Adaptive (t=0)</text>
<line x1="886" y1="186" x2="902" y2="186" stroke="#9b59b6" stroke-width="2"/>
<polygon points="894.0,182.0 898.0,189.0 890.0,189.0" fill="#9b59b6"/>
<text class="label" x="908" y="190">Truncation</text>
<line x1="886" y1="204" x2="902" y2="204" stroke="#4dd88a" stroke-width="2"/>
<polygon points="894.0,200.0 898.0,204.0 894.0,208.0 890.0,204.0" fill="#4dd88a"/>
<text class="label" x="908" y="208">SODA</text>
<line x1="886" y1="222" x2="902" y2="222" stroke="#ff6b6b" stroke-width="2"/>
<polygon points="894.0,217.0 892.8,220.4 889.2,220.5 892.1,222.6 891.1,226.0 894.0,224.0 896.9,226.0 895.9,222.6 898.8,220.5 895.2,220.4" fill="#ff6b6b"/>
<text class="label" x="908" y="226">Hybrid</text>
<line x1="886" y1="240" x2="902" y2="240" stroke="#ff922b" stroke-width="2"/>
<circle cx="894.0" cy="240.0" r="3" fill="#ff922b"/>
<text class="label" x="908" y="244">CDF-ARE</text>
<line x1="886" y1="258" x2="902" y2="258" stroke="#888888" stroke-width="2" stroke-dasharray="8,5"/>
<circle cx="894.0" cy="258.0" r="3" fill="#888888"/>
<text class="label" x="908" y="262">BloomARE</text>
<text x="480" y="590" text-anchor="middle">Bits per Key (BPK)</text>
<text transform="translate(16,295) rotate(-90)" text-anchor="middle">False Positive Rate (FPR)</text>
</svg>
