<svg xmlns="http://www.w3.org/2000/svg" width="1020" height="600" viewBox="0 0 1020 600">
<style>text{font-family:Menlo,Monaco,monospace;font-size:12px;fill:#222} .axis{stroke:#333;stroke-width:1} .grid{stroke:#eee;stroke-width:0.5} .label{font-size:11px;fill:#444}</style>
<text x="510" y="28" text-anchor="middle" style="font-size:14px;font-weight:bold">FPR vs BPK — spread (60-bit keys, n=262144, L=128)</text>
<line class="axis" x1="90.0" y1="550.0" x2="870.0" y2="550.0"/>
<line class="axis" x1="90.0" y1="40.0" x2="90.0" y2="550.0"/>
<line class="grid" x1="90.0" y1="521.7" x2="870.0" y2="521.7"/>
<text class="label" x="82.0" y="525.7" text-anchor="end">10^-8</text>
<line class="grid" x1="90.0" y1="465.0" x2="870.0" y2="465.0"/>
<text class="label" x="82.0" y="469.0" text-anchor="end">10^-7</text>
<line class="grid" x1="90.0" y1="408.3" x2="870.0" y2="408.3"/>
<text class="label" x="82.0" y="412.3" text-anchor="end">10^-6</text>
<line class="grid" x1="90.0" y1="351.7" x2="870.0" y2="351.7"/>
<text class="label" x="82.0" y="355.7" text-anchor="end">10^-5</text>
<line class="grid" x1="90.0" y1="295.0" x2="870.0" y2="295.0"/>
<text class="label" x="82.0" y="299.0" text-anchor="end">10^-4</text>
<line class="grid" x1="90.0" y1="238.3" x2="870.0" y2="238.3"/>
<text class="label" x="82.0" y="242.3" text-anchor="end">10^-3</text>
<line class="grid" x1="90.0" y1="181.7" x2="870.0" y2="181.7"/>
<text class="label" x="82.0" y="185.7" text-anchor="end">10^-2</text>
<line class="grid" x1="90.0" y1="125.0" x2="870.0" y2="125.0"/>
<text class="label" x="82.0" y="129.0" text-anchor="end">10^-1</text>
<line class="grid" x1="90.0" y1="68.3" x2="870.0" y2="68.3"/>
<text class="label" x="82.0" y="72.3" text-anchor="end">1</text>
<line class="grid" x1="90.0" y1="40.0" x2="90.0" y2="550.0"/>
<text class="label" x="90.0" y="566.0" text-anchor="middle">0</text>
<line class="grid" x1="206.1" y1="40.0" x2="206.1" y2="550.0"/>
<text class="label" x="206.1" y="566.0" text-anchor="middle">5</text>
<line class="grid" x1="322.1" y1="40.0" x2="322.1" y2="550.0"/>
<text class="label" x="322.1" y="566.0" text-anchor="middle">10</text>
<line class="grid" x1="438.2" y1="40.0" x2="438.2" y2="550.0"/>
<text class="label" x="438.2" y="566.0" text-anchor="middle">15</text>
<line class="grid" x1="554.3" y1="40.0" x2="554.3" y2="550.0"/>
<text class="label" x="554.3" y="566.0" text-anchor="middle">20</text>
<line class="grid" x1="670.4" y1="40.0" x2="670.4" y2="550.0"/>
<text class="label" x="670.4" y="566.0" text-anchor="middle">25</text>
<line class="grid" x1="786.4" y1="40.0" x2="786.4" y2="550.0"/>
<text class="label" x="786.4" y="566.0" text-anchor="middle">30</text>
<polyline fill="none" stroke="#ef4444" stroke-width="2" stroke-dasharray="8,5" points="252.5,68.3 275.7,85.4 298.9,102.5 322.1,119.5 345.4,136.6 368.6,153.6 391.8,170.7 415.0,187.7 438.2,204.8 461.4,221.9 484.6,238.9 507.9,256.0 531.1,273.0 554.3,290.1 600.7,324.2 647.1,358.3 740.0,426.6 832.9,494.8"/>
<circle cx="252.5" cy="68.3" r="3" fill="#ef4444"/>
<circle cx="275.7" cy="85.4" r="3" fill="#ef4444"/>
<circle cx="298.9" cy="102.5" r="3" fill="#ef4444"/>
<circle cx="322.1" cy="119.5" r="3" fill="#ef4444"/>
<circle cx="345.4" cy="136.6" r="3" fill="#ef4444"/>
<circle cx="368.6" cy="153.6" r="3" fill="#ef4444"/>
<circle cx="391.8" cy="170.7" r="3" fill="#ef4444"/>
<circle cx="415.0" cy="187.7" r="3" fill="#ef4444"/>
<circle cx="438.2" cy="204.8" r="3" fill="#ef4444"/>
<circle cx="461.4" cy="221.9" r="3" fill="#ef4444"/>
<circle cx="484.6" cy="238.9" r="3" fill="#ef4444"/>
<circle cx="507.9" cy="256.0" r="3" fill="#ef4444"/>
<circle cx="531.1" cy="273.0" r="3" fill="#ef4444"/>
<circle cx="554.3" cy="290.1" r="3" fill="#ef4444"/>
<circle cx="600.7" cy="324.2" r="3" fill="#ef4444"/>
<circle cx="647.1" cy="358.3" r="3" fill="#ef4444"/>
<circle cx="740.0" cy="426.6" r="3" fill="#ef4444"/>
<circle cx="832.9" cy="494.8" r="3" fill="#ef4444"/>
<polyline fill="none" stroke="#1a6b3c" stroke-width="2" points="90.3,275.6 90.3,320.4 90.4,258.6 91.2,239.0 97.1,223.0 437.0,153.6 483.5,188.0 529.9,221.1 576.3,253.0"/>
<polygon points="90.3,271.6 94.3,275.6 90.3,279.6 86.3,275.6" fill="#1a6b3c"/>
<polygon points="90.3,316.4 94.3,320.4 90.3,324.4 86.3,320.4" fill="#1a6b3c"/>
<polygon points="90.4,254.6 94.4,258.6 90.4,262.6 86.4,258.6" fill="#1a6b3c"/>
<polygon points="91.2,235.0 95.2,239.0 91.2,243.0 87.2,239.0" fill="#1a6b3c"/>
<polygon points="97.1,219.0 101.1,223.0 97.1,227.0 93.1,223.0" fill="#1a6b3c"/>
<polygon points="437.0,149.6 441.0,153.6 437.0,157.6 433.0,153.6" fill="#1a6b3c"/>
<polygon points="483.5,184.0 487.5,188.0 483.5,192.0 479.5,188.0" fill="#1a6b3c"/>
<polygon points="529.9,217.1 533.9,221.1 529.9,225.1 525.9,221.1" fill="#1a6b3c"/>
<polygon points="576.3,249.0 580.3,253.0 576.3,257.0 572.3,253.0" fill="#1a6b3c"/>
<polyline fill="none" stroke="#1a3a6b" stroke-width="2" points="168.6,85.0 214.8,118.9 261.3,153.0 307.8,186.8 354.3,219.9 400.5,254.5 447.0,289.1 493.5,315.6 540.0,343.4"/>
<polygon points="168.6,80.0 167.4,83.4 163.8,83.5 166.7,85.7 165.6,89.1 168.6,87.0 171.5,89.1 170.5,85.7 173.3,83.5 169.7,83.4" fill="#1a3a6b"/>
<polygon points="214.8,113.9 213.6,117.3 210.0,117.3 212.9,119.5 211.9,122.9 214.8,120.9 217.7,122.9 216.7,119.5 219.6,117.3 216.0,117.3" fill="#1a3a6b"/>
<polygon points="261.3,148.0 260.1,151.4 256.5,151.4 259.4,153.6 258.4,157.0 261.3,155.0 264.2,157.0 263.2,153.6 266.1,151.4 262.5,151.4" fill="#1a3a6b"/>
<polygon points="307.8,181.8 306.6,185.2 303.0,185.3 305.9,187.4 304.9,190.9 307.8,188.8 310.7,190.9 309.7,187.4 312.6,185.3 309.0,185.2" fill="#1a3a6b"/>
<polygon points="354.3,214.9 353.1,218.3 349.5,218.3 352.4,220.5 351.3,223.9 354.3,221.9 357.2,223.9 356.2,220.5 359.0,218.3 355.5,218.3" fill="#1a3a6b"/>
<polygon points="400.5,249.5 399.3,252.9 395.8,253.0 398.6,255.2 397.6,258.6 400.5,256.5 403.4,258.6 402.4,255.2 405.3,253.0 401.7,252.9" fill="#1a3a6b"/>
<polygon points="447.0,284.1 445.8,287.5 442.3,287.5 445.1,289.7 444.1,293.1 447.0,291.1 450.0,293.1 448.9,289.7 451.8,287.5 448.2,287.5" fill="#1a3a6b"/>
<polygon points="493.5,310.6 492.3,314.0 488.8,314.1 491.6,316.3 490.6,319.7 493.5,317.6 496.5,319.7 495.4,316.3 498.3,314.1 494.7,314.0" fill="#1a3a6b"/>
<polygon points="540.0,338.4 538.8,341.8 535.2,341.9 538.1,344.0 537.1,347.5 540.0,345.4 542.9,347.5 541.9,344.0 544.8,341.9 541.2,341.8" fill="#1a3a6b"/>
<polyline fill="none" stroke="#111111" stroke-width="2" points="289.0,102.4"/>
<rect x="286.0" y="99.4" width="6" height="6" fill="#111111"/>
<polyline fill="none" stroke="#111111" stroke-width="2" points="474.7,102.4"/>
<polygon points="474.7,98.4 478.7,105.4 470.7,105.4" fill="#111111"/>
<polyline fill="none" stroke="#111111" stroke-width="2" points="474.7,237.8"/>
<polygon points="474.7,233.8 478.7,237.8 474.7,241.8 470.7,237.8" fill="#111111"/>
<polyline fill="none" stroke="#2a7fff" stroke-width="2" points="90.0,68.3 90.0,68.3 90.0,68.3 90.0,68.3 90.0,85.4 90.0,102.4 90.0,119.5 90.0,136.5 90.0,153.8 90.0,170.9 90.0,188.0 90.0,205.2 90.0,222.0 90.0,238.9 90.0,257.4 90.0,275.5 90.0,292.5 90.0,326.4 90.0,351.2 90.0,521.7 90.0,521.7"/>
<rect x="87.0" y="65.3" width="6" height="6" fill="#2a7fff"/>
<rect x="87.0" y="65.3" width="6" height="6" fill="#2a7fff"/>
<rect x="87.0" y="65.3" width="6" height="6" fill="#2a7fff"/>
<rect x="87.0" y="65.3" width="6" height="6" fill="#2a7fff"/>
<rect x="87.0" y="82.4" width="6" height="6" fill="#2a7fff"/>
<rect x="87.0" y="99.4" width="6" height="6" fill="#2a7fff"/>
<rect x="87.0" y="116.5" width="6" height="6" fill="#2a7fff"/>
<rect x="87.0" y="133.5" width="6" height="6" fill="#2a7fff"/>
<rect x="87.0" y="150.8" width="6" height="6" fill="#2a7fff"/>
<rect x="87.0" y="167.9" width="6" height="6" fill="#2a7fff"/>
<rect x="87.0" y="185.0" width="6" height="6" fill="#2a7fff"/>
<rect x="87.0" y="202.2" width="6" height="6" fill="#2a7fff"/>
<rect x="87.0" y="219.0" width="6" height="6" fill="#2a7fff"/>
<rect x="87.0" y="235.9" width="6" height="6" fill="#2a7fff"/>
<rect x="87.0" y="254.4" width="6" height="6" fill="#2a7fff"/>
<rect x="87.0" y="272.5" width="6" height="6" fill="#2a7fff"/>
<rect x="87.0" y="289.5" width="6" height="6" fill="#2a7fff"/>
<rect x="87.0" y="323.4" width="6" height="6" fill="#2a7fff"/>
<rect x="87.0" y="348.2" width="6" height="6" fill="#2a7fff"/>
<rect x="87.0" y="518.7" width="6" height="6" fill="#2a7fff"/>
<rect x="87.0" y="518.7" width="6" height="6" fill="#2a7fff"/>
<polyline fill="none" stroke="#9b59b6" stroke-width="2" points="90.0,68.3 90.0,68.3 90.0,68.3 90.0,68.3 90.1,68.3 90.1,68.3 90.3,68.3 90.5,68.3 91.1,68.3 92.2,68.3 94.4,68.3 98.7,68.3 107.4,68.3 124.8,68.3 159.6,68.3 182.9,85.4 206.1,102.4 252.5,136.6 298.9,170.9 391.8,237.8 484.6,303.4"/>
<polygon points="90.0,64.3 94.0,71.3 86.0,71.3" fill="#9b59b6"/>
<polygon points="90.0,64.3 94.0,71.3 86.0,71.3" fill="#9b59b6"/>
<polygon points="90.0,64.3 94.0,71.3 86.0,71.3" fill="#9b59b6"/>
<polygon points="90.0,64.3 94.0,71.3 86.0,71.3" fill="#9b59b6"/>
<polygon points="90.1,64.3 94.1,71.3 86.1,71.3" fill="#9b59b6"/>
<polygon points="90.1,64.3 94.1,71.3 86.1,71.3" fill="#9b59b6"/>
<polygon points="90.3,64.3 94.3,71.3 86.3,71.3" fill="#9b59b6"/>
<polygon points="90.5,64.3 94.5,71.3 86.5,71.3" fill="#9b59b6"/>
<polygon points="91.1,64.3 95.1,71.3 87.1,71.3" fill="#9b59b6"/>
<polygon points="92.2,64.3 96.2,71.3 88.2,71.3" fill="#9b59b6"/>
<polygon points="94.4,64.3 98.4,71.3 90.4,71.3" fill="#9b59b6"/>
<polygon points="98.7,64.3 102.7,71.3 94.7,71.3" fill="#9b59b6"/>
<polygon points="107.4,64.3 111.4,71.3 103.4,71.3" fill="#9b59b6"/>
<polygon points="124.8,64.3 128.8,71.3 120.8,71.3" fill="#9b59b6"/>
<polygon points="159.6,64.3 163.6,71.3 155.6,71.3" fill="#9b59b6"/>
<polygon points="182.9,81.4 186.9,88.4 178.9,88.4" fill="#9b59b6"/>
<polygon points="206.1,98.4 210.1,105.4 202.1,105.4" fill="#9b59b6"/>
<polygon points="252.5,132.6 256.5,139.6 248.5,139.6" fill="#9b59b6"/>
<polygon points="298.9,166.9 302.9,173.9 294.9,173.9" fill="#9b59b6"/>
<polygon points="391.8,233.8 395.8,240.8 387.8,240.8" fill="#9b59b6"/>
<polygon points="484.6,299.4 488.6,306.4 480.6,306.4" fill="#9b59b6"/>
<polyline fill="none" stroke="#4dd88a" stroke-width="2" points="90.0,68.3 90.0,68.3 90.0,68.3 90.0,68.3 90.0,85.4 90.0,102.4 90.0,119.5 90.0,136.5 90.0,153.8 90.0,170.9 90.0,188.0 90.0,205.2 90.0,222.0 90.0,238.9 90.0,257.4 90.0,275.5 90.0,292.5 90.0,326.4 90.0,351.2 90.0,521.7 90.0,521.7"/>
<polygon points="90.0,64.3 94.0,68.3 90.0,72.3 86.0,68.3" fill="#4dd88a"/>
<polygon points="90.0,64.3 94.0,68.3 90.0,72.3 86.0,68.3" fill="#4dd88a"/>
<polygon points="90.0,64.3 94.0,68.3 90.0,72.3 86.0,68.3" fill="#4dd88a"/>
<polygon points="90.0,64.3 94.0,68.3 90.0,72.3 86.0,68.3" fill="#4dd88a"/>
<polygon points="90.0,81.4 94.0,85.4 90.0,89.4 86.0,85.4" fill="#4dd88a"/>
<polygon points="90.0,98.4 94.0,102.4 90.0,106.4 86.0,102.4" fill="#4dd88a"/>
<polygon points="90.0,115.5 94.0,119.5 90.0,123.5 86.0,119.5" fill="#4dd88a"/>
<polygon points="90.0,132.5 94.0,136.5 90.0,140.5 86.0,136.5" fill="#4dd88a"/>
<polygon points="90.0,149.8 94.0,153.8 90.0,157.8 86.0,153.8" fill="#4dd88a"/>
<polygon points="90.0,166.9 94.0,170.9 90.0,174.9 86.0,170.9" fill="#4dd88a"/>
<polygon points="90.0,184.0 94.0,188.0 90.0,192.0 86.0,188.0" fill="#4dd88a"/>
<polygon points="90.0,201.2 94.0,205.2 90.0,209.2 86.0,205.2" fill="#4dd88a"/>
<polygon points="90.0,218.0 94.0,222.0 90.0,226.0 86.0,222.0" fill="#4dd88a"/>
<polygon points="90.0,234.9 94.0,238.9 90.0,242.9 86.0,238.9" fill="#4dd88a"/>
<polygon points="90.0,253.4 94.0,257.4 90.0,261.4 86.0,257.4" fill="#4dd88a"/>
<polygon points="90.0,271.5 94.0,275.5 90.0,279.5 86.0,275.5" fill="#4dd88a"/>
<polygon points="90.0,288.5 94.0,292.5 90.0,296.5 86.0,292.5" fill="#4dd88a"/>
<polygon points="90.0,322.4 94.0,326.4 90.0,330.4 86.0,326.4" fill="#4dd88a"/>
<polygon points="90.0,347.2 94.0,351.2 90.0,355.2 86.0,351.2" fill="#4dd88a"/>
<polygon points="90.0,517.7 94.0,521.7 90.0,525.7 86.0,521.7" fill="#4dd88a"/>
<polygon points="90.0,517.7 94.0,521.7 90.0,525.7 86.0,521.7" fill="#4dd88a"/>
<polyline fill="none" stroke="#ff6b6b" stroke-width="2" points="90.0,68.3 90.0,68.3 90.0,68.3 90.0,68.3 90.1,68.3 90.1,68.3 90.3,68.3 90.5,68.3 91.1,68.3 92.2,68.3 94.4,68.3 98.7,68.3 107.4,68.3 124.8,68.3 159.6,68.3 182.9,85.4 206.1,102.4 252.5,136.6 298.9,170.9 391.8,237.8 484.6,303.4"/>
<polygon points="90.0,63.3 88.8,66.7 85.2,66.8 88.1,69.0 87.1,72.4 90.0,70.3 92.9,72.4 91.9,69.0 94.8,66.8 91.2,66.7" fill="#ff6b6b"/>
<polygon points="90.0,63.3 88.8,66.7 85.3,66.8 88.1,69.0 87.1,72.4 90.0,70.3 92.9,72.4 91.9,69.0 94.8,66.8 91.2,66.7" fill="#ff6b6b"/>
<polygon points="90.0,63.3 88.8,66.7 85.3,66.8 88.1,69.0 87.1,72.4 90.0,70.3 93.0,72.4 91.9,69.0 94.8,66.8 91.2,66.7" fill="#ff6b6b"/>
<polygon points="90.0,63.3 88.9,66.7 85.3,66.8 88.1,69.0 87.1,72.4 90.0,70.3 93.0,72.4 91.9,69.0 94.8,66.8 91.2,66.7" fill="#ff6b6b"/>
<polygon points="90.1,63.3 88.9,66.7 85.3,66.8 88.2,69.0 87.1,72.4 90.1,70.3 93.0,72.4 92.0,69.0 94.8,66.8 91.2,66.7" fill="#ff6b6b"/>
<polygon points="90.1,63.3 89.0,66.7 85.4,66.8 88.2,69.0 87.2,72.4 90.1,70.3 93.1,72.4 92.0,69.0 94.9,66.8 91.3,66.7" fill="#ff6b6b"/>
<polygon points="90.3,63.3 89.1,66.7 85.5,66.8 88.4,69.0 87.3,72.4 90.3,70.3 93.2,72.4 92.2,69.0 95.0,66.8 91.4,66.7" fill="#ff6b6b"/>
<polygon points="90.5,63.3 89.4,66.7 85.8,66.8 88.6,69.0 87.6,72.4 90.5,70.3 93.5,72.4 92.4,69.0 95.3,66.8 91.7,66.7" fill="#ff6b6b"/>
<polygon points="91.1,63.3 89.9,66.7 86.3,66.8 89.2,69.0 88.1,72.4 91.1,70.3 94.0,72.4 93.0,69.0 95.8,66.8 92.3,66.7" fill="#ff6b6b"/>
<polygon points="92.2,63.3 91.0,66.7 87.4,66.8 90.3,69.0 89.2,72.4 92.2,70.3 95.1,72.4 94.1,69.0 96.9,66.8 93.4,66.7" fill="#ff6b6b"/>
<polygon points="94.4,63.3 93.2,66.7 89.6,66.8 92.5,69.0 91.4,72.4 94.4,70.3 97.3,72.4 96.3,69.0 99.1,66.8 95.5,66.7" fill="#ff6b6b"/>
<polygon points="98.7,63.3 97.5,66.7 94.0,66.8 96.8,69.0 95.8,72.4 98.7,70.3 101.6,72.4 100.6,69.0 103.5,66.8 99.9,66.7" fill="#ff6b6b"/>
<polygon points="107.4,63.3 106.2,66.7 102.7,66.8 105.5,69.0 104.5,72.4 107.4,70.3 110.3,72.4 109.3,69.0 112.2,66.8 108.6,66.7" fill="#ff6b6b"/>
<polygon points="124.8,63.3 123.6,66.7 120.1,66.8 122.9,69.0 121.9,72.4 124.8,70.3 127.8,72.4 126.7,69.0 129.6,66.8 126.0,66.7" fill="#ff6b6b"/>
<polygon points="159.6,63.3 158.5,66.7 154.9,66.8 157.7,69.0 156.7,72.4 159.6,70.3 162.6,72.4 161.5,69.0 164.4,66.8 160.8,66.7" fill="#ff6b6b"/>
<polygon points="182.9,80.4 181.7,83.7 178.1,83.8 181.0,86.0 179.9,89.4 182.9,87.4 185.8,89.4 184.8,86.0 187.6,83.8 184.0,83.7" fill="#ff6b6b"/>
<polygon points="206.1,97.4 204.9,100.8 201.3,100.9 204.2,103.0 203.1,106.5 206.1,104.4 209.0,106.5 208.0,103.0 210.8,100.9 207.2,100.8" fill="#ff6b6b"/>
<polygon points="252.5,131.6 251.3,135.0 247.7,135.0 250.6,137.2 249.6,140.6 252.5,138.6 255.4,140.6 254.4,137.2 257.3,135.0 253.7,135.0" fill="#ff6b6b"/>
<polygon points="298.9,165.9 297.8,169.3 294.2,169.4 297.0,171.5 296.0,174.9 298.9,172.9 301.9,174.9 300.8,171.5 303.7,169.4 300.1,169.3" fill="#ff6b6b"/>
<polygon points="391.8,232.8 390.6,236.2 387.0,236.3 389.9,238.4 388.8,241.9 391.8,239.8 394.7,241.9 393.7,238.4 396.5,236.3 393.0,236.2" fill="#ff6b6b"/>
<polygon points="484.6,298.4 483.5,301.7 479.9,301.8 482.7,304.0 481.7,307.4 484.6,305.4 487.6,307.4 486.5,304.0 489.4,301.8 485.8,301.7" fill="#ff6b6b"/>
<polyline fill="none" stroke="#ff922b" stroke-width="2" points="298.9,121.2 322.2,138.4 345.4,155.5 368.6,172.5 391.8,189.5 415.0,206.4 438.2,223.3 461.4,240.0 507.9,274.2 531.1,290.1"/>
<circle cx="298.9" cy="121.2" r="3" fill="#ff922b"/>
<circle cx="322.2" cy="138.4" r="3" fill="#ff922b"/>
<circle cx="345.4" cy="155.5" r="3" fill="#ff922b"/>
<circle cx="368.6" cy="172.5" r="3" fill="#ff922b"/>
<circle cx="391.8" cy="189.5" r="3" fill="#ff922b"/>
<circle cx="415.0" cy="206.4" r="3" fill="#ff922b"/>
<circle cx="438.2" cy="223.3" r="3" fill="#ff922b"/>
<circle cx="461.4" cy="240.0" r="3" fill="#ff922b"/>
<circle cx="507.9" cy="274.2" r="3" fill="#ff922b"/>
<circle cx="531.1" cy="290.1" r="3" fill="#ff922b"/>
<polyline fill="none" stroke="#888888" stroke-width="2" stroke-dasharray="8,5" points="433.2,124.8 468.0,142.0 513.0,164.4 546.7,181.6 580.3,198.5 624.7,222.8 658.2,239.1 691.7,255.2 736.0,278.5 769.5,297.2"/>
<circle cx="433.2" cy="124.8" r="3" fill="#888888"/>
<circle cx="468.0" cy="142.0" r="3" fill="#888888"/>
<circle cx="513.0" cy="164.4" r="3" fill="#888888"/>
<circle cx="546.7" cy="181.6" r="3" fill="#888888"/>
<circle cx="580.3" cy="198.5" r="3" fill="#888888"/>
<circle cx="624.7" cy="222.8" r="3" fill="#888888"/>
<circle cx="658.2" cy="239.1" r="3" fill="#888888"/>
<circle cx="691.7" cy="255.2" r="3" fill="#888888"/>
<circle cx="736.0" cy="278.5" r="3" fill="#888888"/>
<circle cx="769.5" cy="297.2" r="3" fill="#888888"/>
<line x1="886" y1="60" x2="902" y2="60" stroke="#ef4444" stroke-width="2" stroke-dasharray="8,5"/>
<circle cx="894.0" cy="60.0" r="3" fill="#ef4444"/>
<text class="label" x="908" y="64">Theoretical</text>
<line x1="886" y1="78" x2="902" y2="78" stroke="#1a6b3c" stroke-width="2"/>
<polygon points="894.0,74.0 898.0,78.0 894.0,82.0 890.0,78.0" fill="#1a6b3c"/>
<text class="label" x="908" y="82">Grafite</text>
<line x1="886" y1="96" x2="902" y2="96" stroke="#1a3a6b" stroke-width="2"/>
<polygon points="894.0,91.0 892.8,94.4 889.2,94.5 892.1,96.6 891.1,100.0 894.0,98.0 896.9,100.0 895.9,96.6 898.8,94.5 895.2,94.4" fill="#1a3a6b"/>
<text class="label" x="908" y="100">SNARF</text>
<line x1="886" y1="114" x2="902" y2="114" stroke="#111111" stroke-width="2"/>
<rect x="891.0" y="111.0" width="6" height="6" fill="#111111"/>
<text class="label" x="908" y="118">SuRF</text>
<line x1="886" y1="132" x2="902" y2="132" stroke="#111111" stroke-width="2"/>
<polygon points="894.0,128.0 898.0,135.0 890.0,135.0" fill="#111111"/>
<text class="label" x="908" y="136">SuRFHash(8)</text>
<line x1="886" y1="150" x2="902" y2="150" stroke="#111111" stroke-width="2"/>
<polygon points="894.0,146.0 898.0,150.0 894.0,154.0 890.0,150.0" fill="#111111"/>
<text class="label" x="908" y="154">SuRFReal(8)</text>
<line x1="886" y1="168" x2="902" y2="168" stroke="#2a7fff" stroke-width="2"/>
<rect x="891.0" y="165.0" width="6" height="6" fill="#2a7fff"/>
<text class="label" x="908" y="172">Adaptive (t=0)</text>
<line x1="886" y1="186" x2="902" y2="186" stroke="#9b59b6" stroke-width="2"/>
<polygon points="894.0,182.0 898.0,189.0 890.0,189.0" fill="#9b59b6"/>
<text class="label" x="908" y="190">Truncation</text>
<line x1="886" y1="204" x2="902" y2="204" stroke="#4dd88a" stroke-width="2"/>
<polygon points="894.0,200.0 898.0,204.0 894.0,208.0 890.0,204.0" fill="#4dd88a"/>
<text class="label" x="908" y="208">SODA</text>
<line x1="886" y1="222" x2="902" y2="222" stroke="#ff6b6b" stroke-width="2"/>
<polygon points="894.0,217.0 892.8,220.4 889.2,220.5 892.1,222.6 891.1,226.0 894.0,224.0 896.9,226.0 895.9,222.6 898.8,220.5 895.2,220.4" fill="#ff6b6b"/>
<text class="label" x="908" y="226">Hybrid</text>
<line x1="886" y1="240" x2="902" y2="240" stroke="#ff922b" stroke-width="2"/>
<circle cx="894.0" cy="240.0" r="3" fill="#ff922b"/>
<text class="label" x="908" y="244">CDF-ARE</text>
<line x1="886" y1="258" x2="902" y2="258" stroke="#888888" stroke-width="2" stroke-dasharray="8,5"/>
<circle cx="894.0" cy="258.0" r="3" fill="#888888"/>
<text class="label" x="908" y="262">BloomARE</text>
<text x="480" y="590" text-anchor="middle">Bits per Key (BPK)</text>
<text transform="translate(16,295) rotate(-90)" text-anchor="middle">False Positive Rate (FPR)</text>
</svg>
