<svg xmlns="http://www.w3.org/2000/svg" width="1020" height="600" viewBox="0 0 1020 600">
<style>text{font-family:Menlo,Monaco,monospace;font-size:12px;fill:#222} .axis{stroke:#333;stroke-width:1} .grid{stroke:#eee;stroke-width:0.5} .label{font-size:11px;fill:#444}</style>
<text x="510" y="28" text-anchor="middle" style="font-size:14px;font-weight:bold">FPR vs BPK — uniform (60-bit keys, n=65536, L=1)</text>
<line class="axis" x1="90.0" y1="550.0" x2="870.0" y2="550.0"/>
<line class="axis" x1="90.0" y1="40.0" x2="90.0" y2="550.0"/>
<line class="grid" x1="90.0" y1="526.8" x2="870.0" y2="526.8"/>
<text class="label" x="82.0" y="530.8" text-anchor="end">10^-10</text>
<line class="grid" x1="90.0" y1="480.5" x2="870.0" y2="480.5"/>
<text class="label" x="82.0" y="484.5" text-anchor="end">10^-9</text>
<line class="grid" x1="90.0" y1="434.1" x2="870.0" y2="434.1"/>
<text class="label" x="82.0" y="438.1" text-anchor="end">10^-8</text>
<line class="grid" x1="90.0" y1="387.7" x2="870.0" y2="387.7"/>
<text class="label" x="82.0" y="391.7" text-anchor="end">10^-7</text>
<line class="grid" x1="90.0" y1="341.4" x2="870.0" y2="341.4"/>
<text class="label" x="82.0" y="345.4" text-anchor="end">10^-6</text>
<line class="grid" x1="90.0" y1="295.0" x2="870.0" y2="295.0"/>
<text class="label" x="82.0" y="299.0" text-anchor="end">10^-5</text>
<line class="grid" x1="90.0" y1="248.6" x2="870.0" y2="248.6"/>
<text class="label" x="82.0" y="252.6" text-anchor="end">10^-4</text>
<line class="grid" x1="90.0" y1="202.3" x2="870.0" y2="202.3"/>
<text class="label" x="82.0" y="206.3" text-anchor="end">10^-3</text>
<line class="grid" x1="90.0" y1="155.9" x2="870.0" y2="155.9"/>
<text class="label" x="82.0" y="159.9" text-anchor="end">10^-2</text>
<line class="grid" x1="90.0" y1="109.5" x2="870.0" y2="109.5"/>
<text class="label" x="82.0" y="113.5" text-anchor="end">10^-1</text>
<line class="grid" x1="90.0" y1="63.2" x2="870.0" y2="63.2"/>
<text class="label" x="82.0" y="67.2" text-anchor="end">1</text>
<line class="grid" x1="90.0" y1="40.0" x2="90.0" y2="550.0"/>
<text class="label" x="90.0" y="566.0" text-anchor="middle">0</text>
<line class="grid" x1="176.5" y1="40.0" x2="176.5" y2="550.0"/>
<text class="label" x="176.5" y="566.0" text-anchor="middle">5</text>
<line class="grid" x1="263.1" y1="40.0" x2="263.1" y2="550.0"/>
<text class="label" x="263.1" y="566.0" text-anchor="middle">10</text>
<line class="grid" x1="349.6" y1="40.0" x2="349.6" y2="550.0"/>
<text class="label" x="349.6" y="566.0" text-anchor="middle">15</text>
<line class="grid" x1="436.1" y1="40.0" x2="436.1" y2="550.0"/>
<text class="label" x="436.1" y="566.0" text-anchor="middle">20</text>
<line class="grid" x1="522.6" y1="40.0" x2="522.6" y2="550.0"/>
<text class="label" x="522.6" y="566.0" text-anchor="middle">25</text>
<line class="grid" x1="609.2" y1="40.0" x2="609.2" y2="550.0"/>
<text class="label" x="609.2" y="566.0" text-anchor="middle">30</text>
<line class="grid" x1="695.7" y1="40.0" x2="695.7" y2="550.0"/>
<text class="label" x="695.7" y="566.0" text-anchor="middle">35</text>
<line class="grid" x1="782.2" y1="40.0" x2="782.2" y2="550.0"/>
<text class="label" x="782.2" y="566.0" text-anchor="middle">40</text>
<line class="grid" x1="868.7" y1="40.0" x2="868.7" y2="550.0"/>
<text class="label" x="868.7" y="566.0" text-anchor="middle">45</text>
<polyline fill="none" stroke="#ef4444" stroke-width="2" stroke-dasharray="8,5" points="159.2,119.0 176.5,133.0 193.8,146.9 211.1,160.9 228.4,174.8 245.7,188.8 263.1,202.8 280.4,216.7 297.7,230.7 315.0,244.6 332.3,258.6 349.6,272.5 366.9,286.5 384.2,300.4 401.5,314.4 418.8,328.4 436.1,342.3 470.7,370.2 505.3,398.1 574.5,454.0 643.8,509.8"/>
<circle cx="159.2" cy="119.0" r="3" fill="#ef4444"/>
<circle cx="176.5" cy="133.0" r="3" fill="#ef4444"/>
<circle cx="193.8" cy="146.9" r="3" fill="#ef4444"/>
<circle cx="211.1" cy="160.9" r="3" fill="#ef4444"/>
<circle cx="228.4" cy="174.8" r="3" fill="#ef4444"/>
<circle cx="245.7" cy="188.8" r="3" fill="#ef4444"/>
<circle cx="263.1" cy="202.8" r="3" fill="#ef4444"/>
<circle cx="280.4" cy="216.7" r="3" fill="#ef4444"/>
<circle cx="297.7" cy="230.7" r="3" fill="#ef4444"/>
<circle cx="315.0" cy="244.6" r="3" fill="#ef4444"/>
<circle cx="332.3" cy="258.6" r="3" fill="#ef4444"/>
<circle cx="349.6" cy="272.5" r="3" fill="#ef4444"/>
<circle cx="366.9" cy="286.5" r="3" fill="#ef4444"/>
<circle cx="384.2" cy="300.4" r="3" fill="#ef4444"/>
<circle cx="401.5" cy="314.4" r="3" fill="#ef4444"/>
<circle cx="418.8" cy="328.4" r="3" fill="#ef4444"/>
<circle cx="436.1" cy="342.3" r="3" fill="#ef4444"/>
<circle cx="470.7" cy="370.2" r="3" fill="#ef4444"/>
<circle cx="505.3" cy="398.1" r="3" fill="#ef4444"/>
<circle cx="574.5" cy="454.0" r="3" fill="#ef4444"/>
<circle cx="643.8" cy="509.8" r="3" fill="#ef4444"/>
<polyline fill="none" stroke="#1a6b3c" stroke-width="2" points="164.3,93.6 202.8,119.5 239.1,146.9 274.4,175.3 309.2,203.0 343.9,229.8 378.5,257.8 418.5,294.7 453.1,300.4"/>
<polygon points="164.3,89.6 168.3,93.6 164.3,97.6 160.3,93.6" fill="#1a6b3c"/>
<polygon points="202.8,115.5 206.8,119.5 202.8,123.5 198.8,119.5" fill="#1a6b3c"/>
<polygon points="239.1,142.9 243.1,146.9 239.1,150.9 235.1,146.9" fill="#1a6b3c"/>
<polygon points="274.4,171.3 278.4,175.3 274.4,179.3 270.4,175.3" fill="#1a6b3c"/>
<polygon points="309.2,199.0 313.2,203.0 309.2,207.0 305.2,203.0" fill="#1a6b3c"/>
<polygon points="343.9,225.8 347.9,229.8 343.9,233.8 339.9,229.8" fill="#1a6b3c"/>
<polygon points="378.5,253.8 382.5,257.8 378.5,261.8 374.5,257.8" fill="#1a6b3c"/>
<polygon points="418.5,290.7 422.5,294.7 418.5,298.7 414.5,294.7" fill="#1a6b3c"/>
<polygon points="453.1,296.4 457.1,300.4 453.1,304.4 449.1,300.4" fill="#1a6b3c"/>
<polyline fill="none" stroke="#1a3a6b" stroke-width="2" points="148.5,80.4 182.9,104.2 217.7,130.9 252.5,158.3 286.9,186.0 321.4,212.9 356.1,239.5 390.9,263.3 425.4,288.2"/>
<polygon points="148.5,75.4 147.3,78.8 143.7,78.8 146.6,81.0 145.5,84.4 148.5,82.4 151.4,84.4 150.4,81.0 153.2,78.8 149.7,78.8" fill="#1a3a6b"/>
<polygon points="182.9,99.2 181.8,102.6 178.2,102.7 181.0,104.8 180.0,108.3 182.9,106.2 185.9,108.3 184.8,104.8 187.7,102.7 184.1,102.6" fill="#1a3a6b"/>
<polygon points="217.7,125.9 216.5,129.3 213.0,129.4 215.8,131.5 214.8,134.9 217.7,132.9 220.6,134.9 219.6,131.5 222.5,129.4 218.9,129.3" fill="#1a3a6b"/>
<polygon points="252.5,153.3 251.3,156.7 247.7,156.8 250.6,159.0 249.6,162.4 252.5,160.3 255.4,162.4 254.4,159.0 257.2,156.8 253.7,156.7" fill="#1a3a6b"/>
<polygon points="286.9,181.0 285.7,184.4 282.2,184.5 285.0,186.7 284.0,190.1 286.9,188.0 289.9,190.1 288.8,186.7 291.7,184.5 288.1,184.4" fill="#1a3a6b"/>
<polygon points="321.4,207.9 320.2,211.2 316.6,211.3 319.5,213.5 318.4,216.9 321.4,214.9 324.3,216.9 323.3,213.5 326.1,211.3 322.6,211.2" fill="#1a3a6b"/>
<polygon points="356.1,234.5 355.0,237.8 351.4,237.9 354.2,240.1 353.2,243.5 356.1,241.5 359.1,243.5 358.0,240.1 360.9,237.9 357.3,237.8" fill="#1a3a6b"/>
<polygon points="390.9,258.3 389.8,261.7 386.2,261.7 389.0,263.9 388.0,267.3 390.9,265.3 393.9,267.3 392.8,263.9 395.7,261.7 392.1,261.7" fill="#1a3a6b"/>
<polygon points="425.4,283.2 424.2,286.6 420.6,286.7 423.5,288.9 422.4,292.3 425.4,290.2 428.3,292.3 427.3,288.9 430.1,286.7 426.5,286.6" fill="#1a3a6b"/>
<polyline fill="none" stroke="#111111" stroke-width="2" points="274.2,120.2"/>
<rect x="271.2" y="117.2" width="6" height="6" fill="#111111"/>
<polyline fill="none" stroke="#111111" stroke-width="2" points="832.9,120.2"/>
<polygon points="832.9,116.2 836.9,123.2 828.9,123.2" fill="#111111"/>
<polyline fill="none" stroke="#111111" stroke-width="2" points="832.9,232.2"/>
<polygon points="832.9,228.2 836.9,232.2 832.9,236.2 828.9,232.2" fill="#111111"/>
<polyline fill="none" stroke="#2a7fff" stroke-width="2" points="90.0,63.2 90.0,63.2 90.1,63.2 90.1,63.2 90.2,63.2 90.4,63.2 90.8,63.2 91.6,63.2 93.2,63.2 96.5,63.2 102.8,63.5 113.6,66.1 129.2,72.4 148.2,81.9 168.5,93.5 188.6,106.3 208.0,119.6 244.8,147.0 280.0,174.3 349.6,233.6 418.8,288.2"/>
<rect x="87.0" y="60.2" width="6" height="6" fill="#2a7fff"/>
<rect x="87.0" y="60.2" width="6" height="6" fill="#2a7fff"/>
<rect x="87.1" y="60.2" width="6" height="6" fill="#2a7fff"/>
<rect x="87.1" y="60.2" width="6" height="6" fill="#2a7fff"/>
<rect x="87.2" y="60.2" width="6" height="6" fill="#2a7fff"/>
<rect x="87.4" y="60.2" width="6" height="6" fill="#2a7fff"/>
<rect x="87.8" y="60.2" width="6" height="6" fill="#2a7fff"/>
<rect x="88.6" y="60.2" width="6" height="6" fill="#2a7fff"/>
<rect x="90.2" y="60.2" width="6" height="6" fill="#2a7fff"/>
<rect x="93.5" y="60.2" width="6" height="6" fill="#2a7fff"/>
<rect x="99.8" y="60.5" width="6" height="6" fill="#2a7fff"/>
<rect x="110.6" y="63.1" width="6" height="6" fill="#2a7fff"/>
<rect x="126.2" y="69.4" width="6" height="6" fill="#2a7fff"/>
<rect x="145.2" y="78.9" width="6" height="6" fill="#2a7fff"/>
<rect x="165.5" y="90.5" width="6" height="6" fill="#2a7fff"/>
<rect x="185.6" y="103.3" width="6" height="6" fill="#2a7fff"/>
<rect x="205.0" y="116.6" width="6" height="6" fill="#2a7fff"/>
<rect x="241.8" y="144.0" width="6" height="6" fill="#2a7fff"/>
<rect x="277.0" y="171.3" width="6" height="6" fill="#2a7fff"/>
<rect x="346.6" y="230.6" width="6" height="6" fill="#2a7fff"/>
<rect x="415.8" y="285.2" width="6" height="6" fill="#2a7fff"/>
<polyline fill="none" stroke="#9b59b6" stroke-width="2" points="90.0,63.2 90.0,63.2 90.1,63.2 90.1,63.2 90.2,63.2 90.4,63.2 90.8,63.2 91.6,63.2 93.2,63.2 96.5,63.2 102.8,63.5 113.7,66.1 129.2,72.4 148.1,82.0 168.5,93.6 188.7,106.2 208.0,119.5 244.6,146.7 280.0,174.4 349.6,230.0 418.8,282.0"/>
<polygon points="90.0,59.2 94.0,66.2 86.0,66.2" fill="#9b59b6"/>
<polygon points="90.0,59.2 94.0,66.2 86.0,66.2" fill="#9b59b6"/>
<polygon points="90.1,59.2 94.1,66.2 86.1,66.2" fill="#9b59b6"/>
<polygon points="90.1,59.2 94.1,66.2 86.1,66.2" fill="#9b59b6"/>
<polygon points="90.2,59.2 94.2,66.2 86.2,66.2" fill="#9b59b6"/>
<polygon points="90.4,59.2 94.4,66.2 86.4,66.2" fill="#9b59b6"/>
<polygon points="90.8,59.2 94.8,66.2 86.8,66.2" fill="#9b59b6"/>
<polygon points="91.6,59.2 95.6,66.2 87.6,66.2" fill="#9b59b6"/>
<polygon points="93.2,59.2 97.2,66.2 89.2,66.2" fill="#9b59b6"/>
<polygon points="96.5,59.2 100.5,66.2 92.5,66.2" fill="#9b59b6"/>
<polygon points="102.8,59.5 106.8,66.5 98.8,66.5" fill="#9b59b6"/>
<polygon points="113.7,62.1 117.7,69.1 109.7,69.1" fill="#9b59b6"/>
<polygon points="129.2,68.4 133.2,75.4 125.2,75.4" fill="#9b59b6"/>
<polygon points="148.1,78.0 152.1,85.0 144.1,85.0" fill="#9b59b6"/>
<polygon points="168.5,89.6 172.5,96.6 164.5,96.6" fill="#9b59b6"/>
<polygon points="188.7,102.2 192.7,109.2 184.7,109.2" fill="#9b59b6"/>
<polygon points="208.0,115.5 212.0,122.5 204.0,122.5" fill="#9b59b6"/>
<polygon points="244.6,142.7 248.6,149.7 240.6,149.7" fill="#9b59b6"/>
<polygon points="280.0,170.4 284.0,177.4 276.0,177.4" fill="#9b59b6"/>
<polygon points="349.6,226.0 353.6,233.0 345.6,233.0" fill="#9b59b6"/>
<polygon points="418.8,278.0 422.8,285.0 414.8,285.0" fill="#9b59b6"/>
<polyline fill="none" stroke="#4dd88a" stroke-width="2" points="90.0,63.2 90.0,63.2 90.1,63.2 90.1,63.2 90.2,63.2 90.4,63.2 90.8,63.2 91.6,63.2 93.2,63.2 96.5,63.2 102.8,63.5 113.6,66.1 129.2,72.4 148.2,81.9 168.5,93.5 188.6,106.3 208.0,119.6 244.8,147.0 280.0,174.3 349.6,233.6 418.8,288.2"/>
<polygon points="90.0,59.2 94.0,63.2 90.0,67.2 86.0,63.2" fill="#4dd88a"/>
<polygon points="90.0,59.2 94.0,63.2 90.0,67.2 86.0,63.2" fill="#4dd88a"/>
<polygon points="90.1,59.2 94.1,63.2 90.1,67.2 86.1,63.2" fill="#4dd88a"/>
<polygon points="90.1,59.2 94.1,63.2 90.1,67.2 86.1,63.2" fill="#4dd88a"/>
<polygon points="90.2,59.2 94.2,63.2 90.2,67.2 86.2,63.2" fill="#4dd88a"/>
<polygon points="90.4,59.2 94.4,63.2 90.4,67.2 86.4,63.2" fill="#4dd88a"/>
<polygon points="90.8,59.2 94.8,63.2 90.8,67.2 86.8,63.2" fill="#4dd88a"/>
<polygon points="91.6,59.2 95.6,63.2 91.6,67.2 87.6,63.2" fill="#4dd88a"/>
<polygon points="93.2,59.2 97.2,63.2 93.2,67.2 89.2,63.2" fill="#4dd88a"/>
<polygon points="96.5,59.2 100.5,63.2 96.5,67.2 92.5,63.2" fill="#4dd88a"/>
<polygon points="102.8,59.5 106.8,63.5 102.8,67.5 98.8,63.5" fill="#4dd88a"/>
<polygon points="113.6,62.1 117.6,66.1 113.6,70.1 109.6,66.1" fill="#4dd88a"/>
<polygon points="129.2,68.4 133.2,72.4 129.2,76.4 125.2,72.4" fill="#4dd88a"/>
<polygon points="148.2,77.9 152.2,81.9 148.2,85.9 144.2,81.9" fill="#4dd88a"/>
<polygon points="168.5,89.5 172.5,93.5 168.5,97.5 164.5,93.5" fill="#4dd88a"/>
<polygon points="188.6,102.3 192.6,106.3 188.6,110.3 184.6,106.3" fill="#4dd88a"/>
<polygon points="208.0,115.6 212.0,119.6 208.0,123.6 204.0,119.6" fill="#4dd88a"/>
<polygon points="244.8,143.0 248.8,147.0 244.8,151.0 240.8,147.0" fill="#4dd88a"/>
<polygon points="280.0,170.3 284.0,174.3 280.0,178.3 276.0,174.3" fill="#4dd88a"/>
<polygon points="349.6,229.6 353.6,233.6 349.6,237.6 345.6,233.6" fill="#4dd88a"/>
<polygon points="418.8,284.2 422.8,288.2 418.8,292.2 414.8,288.2" fill="#4dd88a"/>
<polyline fill="none" stroke="#ff6b6b" stroke-width="2" points="90.0,63.2 90.0,63.2 90.1,63.2 90.1,63.2 90.2,63.2 90.4,63.2 90.8,63.2 91.6,63.2 93.2,63.2 96.5,63.2 102.8,63.5 113.7,66.1 129.2,72.4 148.1,82.0 168.5,93.6 188.7,106.2 208.0,119.5 244.6,146.7 280.0,174.4 349.6,230.0 418.8,282.0"/>
<polygon points="90.0,58.2 88.8,61.6 85.3,61.6 88.1,63.8 87.1,67.2 90.0,65.2 93.0,67.2 91.9,63.8 94.8,61.6 91.2,61.6" fill="#ff6b6b"/>
<polygon points="90.0,58.2 88.8,61.6 85.3,61.6 88.1,63.8 87.1,67.2 90.0,65.2 93.0,67.2 91.9,63.8 94.8,61.6 91.2,61.6" fill="#ff6b6b"/>
<polygon points="90.1,58.2 88.9,61.6 85.3,61.6 88.1,63.8 87.1,67.2 90.1,65.2 93.0,67.2 92.0,63.8 94.8,61.6 91.2,61.6" fill="#ff6b6b"/>
<polygon points="90.1,58.2 88.9,61.6 85.3,61.6 88.2,63.8 87.2,67.2 90.1,65.2 93.0,67.2 92.0,63.8 94.9,61.6 91.3,61.6" fill="#ff6b6b"/>
<polygon points="90.2,58.2 89.0,61.6 85.4,61.6 88.3,63.8 87.3,67.2 90.2,65.2 93.1,67.2 92.1,63.8 95.0,61.6 91.4,61.6" fill="#ff6b6b"/>
<polygon points="90.4,58.2 89.2,61.6 85.7,61.6 88.5,63.8 87.5,67.2 90.4,65.2 93.3,67.2 92.3,63.8 95.2,61.6 91.6,61.6" fill="#ff6b6b"/>
<polygon points="90.8,58.2 89.6,61.6 86.1,61.6 88.9,63.8 87.9,67.2 90.8,65.2 93.8,67.2 92.7,63.8 95.6,61.6 92.0,61.6" fill="#ff6b6b"/>
<polygon points="91.6,58.2 90.4,61.6 86.9,61.6 89.7,63.8 88.7,67.2 91.6,65.2 94.6,67.2 93.5,63.8 96.4,61.6 92.8,61.6" fill="#ff6b6b"/>
<polygon points="93.2,58.2 92.1,61.6 88.5,61.6 91.3,63.8 90.3,67.2 93.2,65.2 96.2,67.2 95.1,63.8 98.0,61.6 94.4,61.6" fill="#ff6b6b"/>
<polygon points="96.5,58.2 95.3,61.6 91.7,61.6 94.6,63.8 93.5,67.2 96.5,65.2 99.4,67.2 98.4,63.8 101.2,61.6 97.7,61.6" fill="#ff6b6b"/>
<polygon points="102.8,58.5 101.7,61.9 98.1,62.0 100.9,64.1 99.9,67.6 102.8,65.5 105.8,67.6 104.7,64.1 107.6,62.0 104.0,61.9" fill="#ff6b6b"/>
<polygon points="113.7,61.1 112.5,64.4 108.9,64.5 111.8,66.7 110.7,70.1 113.7,68.1 116.6,70.1 115.6,66.7 118.4,64.5 114.8,64.4" fill="#ff6b6b"/>
<polygon points="129.2,67.4 128.0,70.8 124.4,70.9 127.3,73.0 126.2,76.5 129.2,74.4 132.1,76.5 131.1,73.0 133.9,70.9 130.3,70.8" fill="#ff6b6b"/>
<polygon points="148.1,77.0 147.0,80.3 143.4,80.4 146.2,82.6 145.2,86.0 148.1,84.0 151.1,86.0 150.0,82.6 152.9,80.4 149.3,80.3" fill="#ff6b6b"/>
<polygon points="168.5,88.6 167.4,91.9 163.8,92.0 166.6,94.2 165.6,97.6 168.5,95.6 171.5,97.6 170.4,94.2 173.3,92.0 169.7,91.9" fill="#ff6b6b"/>
<polygon points="188.7,101.2 187.5,104.6 183.9,104.7 186.8,106.9 185.7,110.3 188.7,108.2 191.6,110.3 190.6,106.9 193.4,104.7 189.8,104.6" fill="#ff6b6b"/>
<polygon points="208.0,114.5 206.8,117.9 203.2,117.9 206.1,120.1 205.0,123.5 208.0,121.5 210.9,123.5 209.9,120.1 212.7,117.9 209.2,117.9" fill="#ff6b6b"/>
<polygon points="244.6,141.7 243.5,145.1 239.9,145.1 242.7,147.3 241.7,150.7 244.6,148.7 247.6,150.7 246.5,147.3 249.4,145.1 245.8,145.1" fill="#ff6b6b"/>
<polygon points="280.0,169.4 278.8,172.7 275.3,172.8 278.1,175.0 277.1,178.4 280.0,176.4 283.0,178.4 281.9,175.0 284.8,172.8 281.2,172.7" fill="#ff6b6b"/>
<polygon points="349.6,225.0 348.4,228.4 344.8,228.5 347.6,230.7 346.6,234.1 349.6,232.0 352.5,234.1 351.5,230.7 354.3,228.5 350.7,228.4" fill="#ff6b6b"/>
<polygon points="418.8,277.0 417.6,280.4 414.0,280.5 416.9,282.6 415.9,286.0 418.8,284.0 421.7,286.0 420.7,282.6 423.5,280.5 420.0,280.4" fill="#ff6b6b"/>
<polyline fill="none" stroke="#ff922b" stroke-width="2" points="241.1,111.7 260.3,125.2 278.8,138.8 296.8,152.7 314.5,166.2 332.0,180.1 349.5,193.4 366.8,207.1 401.5,234.8 418.8,251.3"/>
<circle cx="241.1" cy="111.7" r="3" fill="#ff922b"/>
<circle cx="260.3" cy="125.2" r="3" fill="#ff922b"/>
<circle cx="278.8" cy="138.8" r="3" fill="#ff922b"/>
<circle cx="296.8" cy="152.7" r="3" fill="#ff922b"/>
<circle cx="314.5" cy="166.2" r="3" fill="#ff922b"/>
<circle cx="332.0" cy="180.1" r="3" fill="#ff922b"/>
<circle cx="349.5" cy="193.4" r="3" fill="#ff922b"/>
<circle cx="366.8" cy="207.1" r="3" fill="#ff922b"/>
<circle cx="401.5" cy="234.8" r="3" fill="#ff922b"/>
<circle cx="418.8" cy="251.3" r="3" fill="#ff922b"/>
<polyline fill="none" stroke="#888888" stroke-width="2" stroke-dasharray="8,5" points="172.9,109.0 197.9,122.9 230.9,142.2 255.9,155.7 280.8,169.8 313.8,188.9 338.8,201.5 363.8,217.1 396.8,232.9 421.7,253.4"/>
<circle cx="172.9" cy="109.0" r="3" fill="#888888"/>
<circle cx="197.9" cy="122.9" r="3" fill="#888888"/>
<circle cx="230.9" cy="142.2" r="3" fill="#888888"/>
<circle cx="255.9" cy="155.7" r="3" fill="#888888"/>
<circle cx="280.8" cy="169.8" r="3" fill="#888888"/>
<circle cx="313.8" cy="188.9" r="3" fill="#888888"/>
<circle cx="338.8" cy="201.5" r="3" fill="#888888"/>
<circle cx="363.8" cy="217.1" r="3" fill="#888888"/>
<circle cx="396.8" cy="232.9" r="3" fill="#888888"/>
<circle cx="421.7" cy="253.4" r="3" fill="#888888"/>
<line x1="886" y1="60" x2="902" y2="60" stroke="#ef4444" stroke-width="2" stroke-dasharray="8,5"/>
<circle cx="894.0" cy="60.0" r="3" fill="#ef4444"/>
<text class="label" x="908" y="64">Theoretical</text>
<line x1="886" y1="78" x2="902" y2="78" stroke="#1a6b3c" stroke-width="2"/>
<polygon points="894.0,74.0 898.0,78.0 894.0,82.0 890.0,78.0" fill="#1a6b3c"/>
<text class="label" x="908" y="82">Grafite</text>
<line x1="886" y1="96" x2="902" y2="96" stroke="#1a3a6b" stroke-width="2"/>
<polygon points="894.0,91.0 892.8,94.4 889.2,94.5 892.1,96.6 891.1,100.0 894.0,98.0 896.9,100.0 895.9,96.6 898.8,94.5 895.2,94.4" fill="#1a3a6b"/>
<text class="label" x="908" y="100">SNARF</text>
<line x1="886" y1="114" x2="902" y2="114" stroke="#111111" stroke-width="2"/>
<rect x="891.0" y="111.0" width="6" height="6" fill="#111111"/>
<text class="label" x="908" y="118">SuRF</text>
<line x1="886" y1="132" x2="902" y2="132" stroke="#111111" stroke-width="2"/>
<polygon points="894.0,128.0 898.0,135.0 890.0,135.0" fill="#111111"/>
<text class="label" x="908" y="136">SuRFHash(8)</text>
<line x1="886" y1="150" x2="902" y2="150" stroke="#111111" stroke-width="2"/>
<polygon points="894.0,146.0 898.0,150.0 894.0,154.0 890.0,150.0" fill="#111111"/>
<text class="label" x="908" y="154">SuRFReal(8)</text>
<line x1="886" y1="168" x2="902" y2="168" stroke="#2a7fff" stroke-width="2"/>
<rect x="891.0" y="165.0" width="6" height="6" fill="#2a7fff"/>
<text class="label" x="908" y="172">Adaptive (t=0)</text>
<line x1="886" y1="186" x2="902" y2="186" stroke="#9b59b6" stroke-width="2"/>
<polygon points="894.0,182.0 898.0,189.0 890.0,189.0" fill="#9b59b6"/>
<text class="label" x="908" y="190">Truncation</text>
<line x1="886" y1="204" x2="902" y2="204" stroke="#4dd88a" stroke-width="2"/>
<polygon points="894.0,200.0 898.0,204.0 894.0,208.0 890.0,204.0" fill="#4dd88a"/>
<text class="label" x="908" y="208">SODA</text>
<line x1="886" y1="222" x2="902" y2="222" stroke="#ff6b6b" stroke-width="2"/>
<polygon points="894.0,217.0 892.8,220.4 889.2,220.5 892.1,222.6 891.1,226.0 894.0,224.0 896.9,226.0 895.9,222.6 898.8,220.5 895.2,220.4" fill="#ff6b6b"/>
<text class="label" x="908" y="226">Hybrid</text>
<line x1="886" y1="240" x2="902" y2="240" stroke="#ff922b" stroke-width="2"/>
<circle cx="894.0" cy="240.0" r="3" fill="#ff922b"/>
<text class="label" x="908" y="244">CDF-ARE</text>
<line x1="886" y1="258" x2="902" y2="258" stroke="#888888" stroke-width="2" stroke-dasharray="8,5"/>
<circle cx="894.0" cy="258.0" r="3" fill="#888888"/>
<text class="label" x="908" y="262">BloomARE</text>
<text x="480" y="590" text-anchor="middle">Bits per Key (BPK)</text>
<text transform="translate(16,295) rotate(-90)" text-anchor="middle">False Positive Rate (FPR)</text>
</svg>
