<svg xmlns="http://www.w3.org/2000/svg" width="1020" height="600" viewBox="0 0 1020 600">
<style>text{font-family:Menlo,Monaco,monospace;font-size:12px;fill:#222} .axis{stroke:#333;stroke-width:1} .grid{stroke:#eee;stroke-width:0.5} .label{font-size:11px;fill:#444}</style>
<text x="510" y="28" text-anchor="middle" style="font-size:14px;font-weight:bold">FPR vs BPK — uniform (60-bit keys, n=65536, L=1024)</text>
<line class="axis" x1="90.0" y1="550.0" x2="870.0" y2="550.0"/>
<line class="axis" x1="90.0" y1="40.0" x2="90.0" y2="550.0"/>
<line class="grid" x1="90.0" y1="518.1" x2="870.0" y2="518.1"/>
<text class="label" x="82.0" y="522.1" text-anchor="end">10^-7</text>
<line class="grid" x1="90.0" y1="454.4" x2="870.0" y2="454.4"/>
<text class="label" x="82.0" y="458.4" text-anchor="end">10^-6</text>
<line class="grid" x1="90.0" y1="390.6" x2="870.0" y2="390.6"/>
<text class="label" x="82.0" y="394.6" text-anchor="end">10^-5</text>
<line class="grid" x1="90.0" y1="326.9" x2="870.0" y2="326.9"/>
<text class="label" x="82.0" y="330.9" text-anchor="end">10^-4</text>
<line class="grid" x1="90.0" y1="263.1" x2="870.0" y2="263.1"/>
<text class="label" x="82.0" y="267.1" text-anchor="end">10^-3</text>
<line class="grid" x1="90.0" y1="199.4" x2="870.0" y2="199.4"/>
<text class="label" x="82.0" y="203.4" text-anchor="end">10^-2</text>
<line class="grid" x1="90.0" y1="135.6" x2="870.0" y2="135.6"/>
<text class="label" x="82.0" y="139.6" text-anchor="end">10^-1</text>
<line class="grid" x1="90.0" y1="71.9" x2="870.0" y2="71.9"/>
<text class="label" x="82.0" y="75.9" text-anchor="end">1</text>
<line class="grid" x1="90.0" y1="40.0" x2="90.0" y2="550.0"/>
<text class="label" x="90.0" y="566.0" text-anchor="middle">0</text>
<line class="grid" x1="176.5" y1="40.0" x2="176.5" y2="550.0"/>
<text class="label" x="176.5" y="566.0" text-anchor="middle">5</text>
<line class="grid" x1="263.1" y1="40.0" x2="263.1" y2="550.0"/>
<text class="label" x="263.1" y="566.0" text-anchor="middle">10</text>
<line class="grid" x1="349.6" y1="40.0" x2="349.6" y2="550.0"/>
<text class="label" x="349.6" y="566.0" text-anchor="middle">15</text>
<line class="grid" x1="436.1" y1="40.0" x2="436.1" y2="550.0"/>
<text class="label" x="436.1" y="566.0" text-anchor="middle">20</text>
<line class="grid" x1="522.6" y1="40.0" x2="522.6" y2="550.0"/>
<text class="label" x="522.6" y="566.0" text-anchor="middle">25</text>
<line class="grid" x1="609.2" y1="40.0" x2="609.2" y2="550.0"/>
<text class="label" x="609.2" y="566.0" text-anchor="middle">30</text>
<line class="grid" x1="695.7" y1="40.0" x2="695.7" y2="550.0"/>
<text class="label" x="695.7" y="566.0" text-anchor="middle">35</text>
<line class="grid" x1="782.2" y1="40.0" x2="782.2" y2="550.0"/>
<text class="label" x="782.2" y="566.0" text-anchor="middle">40</text>
<line class="grid" x1="868.7" y1="40.0" x2="868.7" y2="550.0"/>
<text class="label" x="868.7" y="566.0" text-anchor="middle">45</text>
<polyline fill="none" stroke="#ef4444" stroke-width="2" stroke-dasharray="8,5" points="263.1,71.9 280.4,91.1 297.7,110.3 315.0,129.4 332.3,148.6 349.6,167.8 366.9,187.0 384.2,206.2 401.5,225.4 418.8,244.6 436.1,263.8 470.7,302.2 505.3,340.5 574.5,417.3 643.8,494.1"/>
<circle cx="263.1" cy="71.9" r="3" fill="#ef4444"/>
<circle cx="280.4" cy="91.1" r="3" fill="#ef4444"/>
<circle cx="297.7" cy="110.3" r="3" fill="#ef4444"/>
<circle cx="315.0" cy="129.4" r="3" fill="#ef4444"/>
<circle cx="332.3" cy="148.6" r="3" fill="#ef4444"/>
<circle cx="349.6" cy="167.8" r="3" fill="#ef4444"/>
<circle cx="366.9" cy="187.0" r="3" fill="#ef4444"/>
<circle cx="384.2" cy="206.2" r="3" fill="#ef4444"/>
<circle cx="401.5" cy="225.4" r="3" fill="#ef4444"/>
<circle cx="418.8" cy="244.6" r="3" fill="#ef4444"/>
<circle cx="436.1" cy="263.8" r="3" fill="#ef4444"/>
<circle cx="470.7" cy="302.2" r="3" fill="#ef4444"/>
<circle cx="505.3" cy="340.5" r="3" fill="#ef4444"/>
<circle cx="574.5" cy="417.3" r="3" fill="#ef4444"/>
<circle cx="643.8" cy="494.1" r="3" fill="#ef4444"/>
<polyline fill="none" stroke="#1a6b3c" stroke-width="2" points="164.4,71.9 202.8,71.9 239.1,71.9 274.4,72.4 309.2,84.6 343.9,113.5 378.5,149.4 418.5,187.1 453.1,225.5"/>
<polygon points="164.4,67.9 168.4,71.9 164.4,75.9 160.4,71.9" fill="#1a6b3c"/>
<polygon points="202.8,67.9 206.8,71.9 202.8,75.9 198.8,71.9" fill="#1a6b3c"/>
<polygon points="239.1,67.9 243.1,71.9 239.1,75.9 235.1,71.9" fill="#1a6b3c"/>
<polygon points="274.4,68.4 278.4,72.4 274.4,76.4 270.4,72.4" fill="#1a6b3c"/>
<polygon points="309.2,80.6 313.2,84.6 309.2,88.6 305.2,84.6" fill="#1a6b3c"/>
<polygon points="343.9,109.5 347.9,113.5 343.9,117.5 339.9,113.5" fill="#1a6b3c"/>
<polygon points="378.5,145.4 382.5,149.4 378.5,153.4 374.5,149.4" fill="#1a6b3c"/>
<polygon points="418.5,183.1 422.5,187.1 418.5,191.1 414.5,187.1" fill="#1a6b3c"/>
<polygon points="453.1,221.5 457.1,225.5 453.1,229.5 449.1,225.5" fill="#1a6b3c"/>
<polyline fill="none" stroke="#1a3a6b" stroke-width="2" points="148.5,95.5 182.9,128.3 217.7,165.0 252.5,202.7 286.9,240.8 321.4,277.7 356.1,314.3 390.9,347.0 425.4,381.3"/>
<polygon points="148.5,90.5 147.3,93.9 143.7,94.0 146.6,96.2 145.5,99.6 148.5,97.5 151.4,99.6 150.4,96.2 153.2,94.0 149.7,93.9" fill="#1a3a6b"/>
<polygon points="182.9,123.3 181.8,126.7 178.2,126.7 181.0,128.9 180.0,132.3 182.9,130.3 185.9,132.3 184.8,128.9 187.7,126.7 184.1,126.7" fill="#1a3a6b"/>
<polygon points="217.7,160.0 216.5,163.4 213.0,163.4 215.8,165.6 214.8,169.0 217.7,167.0 220.6,169.0 219.6,165.6 222.5,163.4 218.9,163.4" fill="#1a3a6b"/>
<polygon points="252.5,197.7 251.3,201.1 247.7,201.2 250.6,203.3 249.6,206.8 252.5,204.7 255.4,206.8 254.4,203.3 257.2,201.2 253.7,201.1" fill="#1a3a6b"/>
<polygon points="286.9,235.8 285.7,239.2 282.2,239.3 285.0,241.4 284.0,244.9 286.9,242.8 289.9,244.9 288.8,241.4 291.7,239.3 288.1,239.2" fill="#1a3a6b"/>
<polygon points="321.4,272.7 320.2,276.1 316.6,276.1 319.5,278.3 318.4,281.7 321.4,279.7 324.3,281.7 323.3,278.3 326.1,276.1 322.6,276.1" fill="#1a3a6b"/>
<polygon points="356.1,309.3 355.0,312.6 351.4,312.7 354.2,314.9 353.2,318.3 356.1,316.3 359.1,318.3 358.0,314.9 360.9,312.7 357.3,312.6" fill="#1a3a6b"/>
<polygon points="390.9,342.0 389.8,345.4 386.2,345.5 389.0,347.6 388.0,351.1 390.9,349.0 393.9,351.1 392.8,347.6 395.7,345.5 392.1,345.4" fill="#1a3a6b"/>
<polygon points="425.4,376.3 424.2,379.7 420.6,379.8 423.5,382.0 422.4,385.4 425.4,383.3 428.3,385.4 427.3,382.0 430.1,379.8 426.5,379.7" fill="#1a3a6b"/>
<polyline fill="none" stroke="#111111" stroke-width="2" points="274.2,150.3"/>
<rect x="271.2" y="147.3" width="6" height="6" fill="#111111"/>
<polyline fill="none" stroke="#111111" stroke-width="2" points="832.9,150.3"/>
<polygon points="832.9,146.3 836.9,153.3 828.9,153.3" fill="#111111"/>
<polyline fill="none" stroke="#111111" stroke-width="2" points="832.9,304.3"/>
<polygon points="832.9,300.3 836.9,304.3 832.9,308.3 828.9,304.3" fill="#111111"/>
<polyline fill="none" stroke="#2a7fff" stroke-width="2" points="90.0,71.9 90.0,71.9 90.1,71.9 90.1,71.9 90.2,71.9 90.4,71.9 90.8,71.9 91.6,71.9 93.2,71.9 96.5,71.9 102.8,71.9 113.6,71.9 129.2,71.9 148.2,71.9 168.5,71.9 188.6,71.9 208.0,71.9 244.8,71.9 280.0,72.4 349.6,113.6 418.8,187.5"/>
<rect x="87.0" y="68.9" width="6" height="6" fill="#2a7fff"/>
<rect x="87.0" y="68.9" width="6" height="6" fill="#2a7fff"/>
<rect x="87.1" y="68.9" width="6" height="6" fill="#2a7fff"/>
<rect x="87.1" y="68.9" width="6" height="6" fill="#2a7fff"/>
<rect x="87.2" y="68.9" width="6" height="6" fill="#2a7fff"/>
<rect x="87.4" y="68.9" width="6" height="6" fill="#2a7fff"/>
<rect x="87.8" y="68.9" width="6" height="6" fill="#2a7fff"/>
<rect x="88.6" y="68.9" width="6" height="6" fill="#2a7fff"/>
<rect x="90.2" y="68.9" width="6" height="6" fill="#2a7fff"/>
<rect x="93.5" y="68.9" width="6" height="6" fill="#2a7fff"/>
<rect x="99.8" y="68.9" width="6" height="6" fill="#2a7fff"/>
<rect x="110.6" y="68.9" width="6" height="6" fill="#2a7fff"/>
<rect x="126.2" y="68.9" width="6" height="6" fill="#2a7fff"/>
<rect x="145.2" y="68.9" width="6" height="6" fill="#2a7fff"/>
<rect x="165.5" y="68.9" width="6" height="6" fill="#2a7fff"/>
<rect x="185.6" y="68.9" width="6" height="6" fill="#2a7fff"/>
<rect x="205.0" y="68.9" width="6" height="6" fill="#2a7fff"/>
<rect x="241.8" y="68.9" width="6" height="6" fill="#2a7fff"/>
<rect x="277.0" y="69.4" width="6" height="6" fill="#2a7fff"/>
<rect x="346.6" y="110.6" width="6" height="6" fill="#2a7fff"/>
<rect x="415.8" y="184.5" width="6" height="6" fill="#2a7fff"/>
<polyline fill="none" stroke="#9b59b6" stroke-width="2" points="90.0,71.9 90.0,71.9 90.1,71.9 90.1,71.9 90.2,71.9 90.4,71.9 90.8,71.9 91.6,71.9 93.2,71.9 96.5,71.9 102.8,72.3 113.7,75.8 129.2,84.6 148.1,97.7 168.5,113.6 188.7,131.1 208.0,149.3 244.6,186.7 280.0,224.7 349.6,301.3 418.8,372.7"/>
<polygon points="90.0,67.9 94.0,74.9 86.0,74.9" fill="#9b59b6"/>
<polygon points="90.0,67.9 94.0,74.9 86.0,74.9" fill="#9b59b6"/>
<polygon points="90.1,67.9 94.1,74.9 86.1,74.9" fill="#9b59b6"/>
<polygon points="90.1,67.9 94.1,74.9 86.1,74.9" fill="#9b59b6"/>
<polygon points="90.2,67.9 94.2,74.9 86.2,74.9" fill="#9b59b6"/>
<polygon points="90.4,67.9 94.4,74.9 86.4,74.9" fill="#9b59b6"/>
<polygon points="90.8,67.9 94.8,74.9 86.8,74.9" fill="#9b59b6"/>
<polygon points="91.6,67.9 95.6,74.9 87.6,74.9" fill="#9b59b6"/>
<polygon points="93.2,67.9 97.2,74.9 89.2,74.9" fill="#9b59b6"/>
<polygon points="96.5,67.9 100.5,74.9 92.5,74.9" fill="#9b59b6"/>
<polygon points="102.8,68.3 106.8,75.3 98.8,75.3" fill="#9b59b6"/>
<polygon points="113.7,71.8 117.7,78.8 109.7,78.8" fill="#9b59b6"/>
<polygon points="129.2,80.6 133.2,87.6 125.2,87.6" fill="#9b59b6"/>
<polygon points="148.1,93.7 152.1,100.7 144.1,100.7" fill="#9b59b6"/>
<polygon points="168.5,109.6 172.5,116.6 164.5,116.6" fill="#9b59b6"/>
<polygon points="188.7,127.1 192.7,134.1 184.7,134.1" fill="#9b59b6"/>
<polygon points="208.0,145.3 212.0,152.3 204.0,152.3" fill="#9b59b6"/>
<polygon points="244.6,182.7 248.6,189.7 240.6,189.7" fill="#9b59b6"/>
<polygon points="280.0,220.7 284.0,227.7 276.0,227.7" fill="#9b59b6"/>
<polygon points="349.6,297.3 353.6,304.3 345.6,304.3" fill="#9b59b6"/>
<polygon points="418.8,368.7 422.8,375.7 414.8,375.7" fill="#9b59b6"/>
<polyline fill="none" stroke="#4dd88a" stroke-width="2" points="90.0,71.9 90.0,71.9 90.1,71.9 90.1,71.9 90.2,71.9 90.4,71.9 90.8,71.9 91.6,71.9 93.2,71.9 96.5,71.9 102.8,71.9 113.6,71.9 129.2,71.9 148.2,71.9 168.5,71.9 188.6,71.9 208.0,71.9 244.8,71.9 280.0,72.4 349.6,113.6 418.8,187.5"/>
<polygon points="90.0,67.9 94.0,71.9 90.0,75.9 86.0,71.9" fill="#4dd88a"/>
<polygon points="90.0,67.9 94.0,71.9 90.0,75.9 86.0,71.9" fill="#4dd88a"/>
<polygon points="90.1,67.9 94.1,71.9 90.1,75.9 86.1,71.9" fill="#4dd88a"/>
<polygon points="90.1,67.9 94.1,71.9 90.1,75.9 86.1,71.9" fill="#4dd88a"/>
<polygon points="90.2,67.9 94.2,71.9 90.2,75.9 86.2,71.9" fill="#4dd88a"/>
<polygon points="90.4,67.9 94.4,71.9 90.4,75.9 86.4,71.9" fill="#4dd88a"/>
<polygon points="90.8,67.9 94.8,71.9 90.8,75.9 86.8,71.9" fill="#4dd88a"/>
<polygon points="91.6,67.9 95.6,71.9 91.6,75.9 87.6,71.9" fill="#4dd88a"/>
<polygon points="93.2,67.9 97.2,71.9 93.2,75.9 89.2,71.9" fill="#4dd88a"/>
<polygon points="96.5,67.9 100.5,71.9 96.5,75.9 92.5,71.9" fill="#4dd88a"/>
<polygon points="102.8,67.9 106.8,71.9 102.8,75.9 98.8,71.9" fill="#4dd88a"/>
<polygon points="113.6,67.9 117.6,71.9 113.6,75.9 109.6,71.9" fill="#4dd88a"/>
<polygon points="129.2,67.9 133.2,71.9 129.2,75.9 125.2,71.9" fill="#4dd88a"/>
<polygon points="148.2,67.9 152.2,71.9 148.2,75.9 144.2,71.9" fill="#4dd88a"/>
<polygon points="168.5,67.9 172.5,71.9 168.5,75.9 164.5,71.9" fill="#4dd88a"/>
<polygon points="188.6,67.9 192.6,71.9 188.6,75.9 184.6,71.9" fill="#4dd88a"/>
<polygon points="208.0,67.9 212.0,71.9 208.0,75.9 204.0,71.9" fill="#4dd88a"/>
<polygon points="244.8,67.9 248.8,71.9 244.8,75.9 240.8,71.9" fill="#4dd88a"/>
<polygon points="280.0,68.4 284.0,72.4 280.0,76.4 276.0,72.4" fill="#4dd88a"/>
<polygon points="349.6,109.6 353.6,113.6 349.6,117.6 345.6,113.6" fill="#4dd88a"/>
<polygon points="418.8,183.5 422.8,187.5 418.8,191.5 414.8,187.5" fill="#4dd88a"/>
<polyline fill="none" stroke="#ff6b6b" stroke-width="2" points="90.0,71.9 90.0,71.9 90.1,71.9 90.1,71.9 90.2,71.9 90.4,71.9 90.8,71.9 91.6,71.9 93.2,71.9 96.5,71.9 102.8,72.3 113.7,75.8 129.2,84.6 148.1,97.7 168.5,113.6 188.7,131.1 208.0,149.3 244.6,186.7 280.0,224.7 349.6,301.3 418.8,372.7"/>
<polygon points="90.0,66.9 88.8,70.3 85.3,70.3 88.1,72.5 87.1,75.9 90.0,73.9 93.0,75.9 91.9,72.5 94.8,70.3 91.2,70.3" fill="#ff6b6b"/>
<polygon points="90.0,66.9 88.8,70.3 85.3,70.3 88.1,72.5 87.1,75.9 90.0,73.9 93.0,75.9 91.9,72.5 94.8,70.3 91.2,70.3" fill="#ff6b6b"/>
<polygon points="90.1,66.9 88.9,70.3 85.3,70.3 88.1,72.5 87.1,75.9 90.1,73.9 93.0,75.9 92.0,72.5 94.8,70.3 91.2,70.3" fill="#ff6b6b"/>
<polygon points="90.1,66.9 88.9,70.3 85.3,70.3 88.2,72.5 87.2,75.9 90.1,73.9 93.0,75.9 92.0,72.5 94.9,70.3 91.3,70.3" fill="#ff6b6b"/>
<polygon points="90.2,66.9 89.0,70.3 85.4,70.3 88.3,72.5 87.3,75.9 90.2,73.9 93.1,75.9 92.1,72.5 95.0,70.3 91.4,70.3" fill="#ff6b6b"/>
<polygon points="90.4,66.9 89.2,70.3 85.7,70.3 88.5,72.5 87.5,75.9 90.4,73.9 93.3,75.9 92.3,72.5 95.2,70.3 91.6,70.3" fill="#ff6b6b"/>
<polygon points="90.8,66.9 89.6,70.3 86.1,70.3 88.9,72.5 87.9,75.9 90.8,73.9 93.8,75.9 92.7,72.5 95.6,70.3 92.0,70.3" fill="#ff6b6b"/>
<polygon points="91.6,66.9 90.4,70.3 86.9,70.3 89.7,72.5 88.7,75.9 91.6,73.9 94.6,75.9 93.5,72.5 96.4,70.3 92.8,70.3" fill="#ff6b6b"/>
<polygon points="93.2,66.9 92.1,70.3 88.5,70.3 91.3,72.5 90.3,75.9 93.2,73.9 96.2,75.9 95.1,72.5 98.0,70.3 94.4,70.3" fill="#ff6b6b"/>
<polygon points="96.5,66.9 95.3,70.3 91.7,70.3 94.6,72.5 93.5,75.9 96.5,73.9 99.4,75.9 98.4,72.5 101.2,70.3 97.7,70.3" fill="#ff6b6b"/>
<polygon points="102.8,67.3 101.7,70.7 98.1,70.8 100.9,72.9 99.9,76.4 102.8,74.3 105.8,76.4 104.7,72.9 107.6,70.8 104.0,70.7" fill="#ff6b6b"/>
<polygon points="113.7,70.8 112.5,74.2 108.9,74.3 111.8,76.5 110.7,79.9 113.7,77.8 116.6,79.9 115.6,76.5 118.4,74.3 114.8,74.2" fill="#ff6b6b"/>
<polygon points="129.2,79.6 128.0,83.0 124.4,83.0 127.3,85.2 126.2,88.6 129.2,86.6 132.1,88.6 131.1,85.2 133.9,83.0 130.3,83.0" fill="#ff6b6b"/>
<polygon points="148.1,92.7 147.0,96.1 143.4,96.1 146.2,98.3 145.2,101.7 148.1,99.7 151.1,101.7 150.0,98.3 152.9,96.1 149.3,96.1" fill="#ff6b6b"/>
<polygon points="168.5,108.6 167.4,112.0 163.8,112.1 166.6,114.3 165.6,117.7 168.5,115.6 171.5,117.7 170.4,114.3 173.3,112.1 169.7,112.0" fill="#ff6b6b"/>
<polygon points="188.7,126.1 187.5,129.5 183.9,129.5 186.8,131.7 185.7,135.1 188.7,133.1 191.6,135.1 190.6,131.7 193.4,129.5 189.8,129.5" fill="#ff6b6b"/>
<polygon points="208.0,144.3 206.8,147.7 203.2,147.7 206.1,149.9 205.0,153.3 208.0,151.3 210.9,153.3 209.9,149.9 212.7,147.7 209.2,147.7" fill="#ff6b6b"/>
<polygon points="244.6,181.7 243.5,185.1 239.9,185.1 242.7,187.3 241.7,190.7 244.6,188.7 247.6,190.7 246.5,187.3 249.4,185.1 245.8,185.1" fill="#ff6b6b"/>
<polygon points="280.0,219.7 278.8,223.1 275.3,223.2 278.1,225.4 277.1,228.8 280.0,226.7 283.0,228.8 281.9,225.4 284.8,223.2 281.2,223.1" fill="#ff6b6b"/>
<polygon points="349.6,296.3 348.4,299.7 344.8,299.8 347.6,301.9 346.6,305.4 349.6,303.3 352.5,305.4 351.5,301.9 354.3,299.8 350.7,299.7" fill="#ff6b6b"/>
<polygon points="418.8,367.7 417.6,371.1 414.0,371.2 416.9,373.4 415.9,376.8 418.8,374.7 421.7,376.8 420.7,373.4 423.5,371.2 420.0,371.1" fill="#ff6b6b"/>
<polyline fill="none" stroke="#ff922b" stroke-width="2" points="241.1,138.5 260.3,157.2 278.8,175.8 296.8,194.9 314.5,213.5 332.0,232.6 349.5,250.9 366.8,269.7 401.5,307.9 418.8,330.5"/>
<circle cx="241.1" cy="138.5" r="3" fill="#ff922b"/>
<circle cx="260.3" cy="157.2" r="3" fill="#ff922b"/>
<circle cx="278.8" cy="175.8" r="3" fill="#ff922b"/>
<circle cx="296.8" cy="194.9" r="3" fill="#ff922b"/>
<circle cx="314.5" cy="213.5" r="3" fill="#ff922b"/>
<circle cx="332.0" cy="232.6" r="3" fill="#ff922b"/>
<circle cx="349.5" cy="250.9" r="3" fill="#ff922b"/>
<circle cx="366.8" cy="269.7" r="3" fill="#ff922b"/>
<circle cx="401.5" cy="307.9" r="3" fill="#ff922b"/>
<circle cx="418.8" cy="330.5" r="3" fill="#ff922b"/>
<polyline fill="none" stroke="#888888" stroke-width="2" stroke-dasharray="8,5" points="420.7,135.3 446.6,154.6 480.2,179.5 505.3,199.6 530.4,218.8 563.5,244.1 588.4,263.8 613.4,280.0 646.4,307.6 671.4,323.8"/>
<circle cx="420.7" cy="135.3" r="3" fill="#888888"/>
<circle cx="446.6" cy="154.6" r="3" fill="#888888"/>
<circle cx="480.2" cy="179.5" r="3" fill="#888888"/>
<circle cx="505.3" cy="199.6" r="3" fill="#888888"/>
<circle cx="530.4" cy="218.8" r="3" fill="#888888"/>
<circle cx="563.5" cy="244.1" r="3" fill="#888888"/>
<circle cx="588.4" cy="263.8" r="3" fill="#888888"/>
<circle cx="613.4" cy="280.0" r="3" fill="#888888"/>
<circle cx="646.4" cy="307.6" r="3" fill="#888888"/>
<circle cx="671.4" cy="323.8" r="3" fill="#888888"/>
<line x1="886" y1="60" x2="902" y2="60" stroke="#ef4444" stroke-width="2" stroke-dasharray="8,5"/>
<circle cx="894.0" cy="60.0" r="3" fill="#ef4444"/>
<text class="label" x="908" y="64">Theoretical</text>
<line x1="886" y1="78" x2="902" y2="78" stroke="#1a6b3c" stroke-width="2"/>
<polygon points="894.0,74.0 898.0,78.0 894.0,82.0 890.0,78.0" fill="#1a6b3c"/>
<text class="label" x="908" y="82">Grafite</text>
<line x1="886" y1="96" x2="902" y2="96" stroke="#1a3a6b" stroke-width="2"/>
<polygon points="894.0,91.0 892.8,94.4 889.2,94.5 892.1,96.6 891.1,100.0 894.0,98.0 896.9,100.0 895.9,96.6 898.8,94.5 895.2,94.4" fill="#1a3a6b"/>
<text class="label" x="908" y="100">SNARF</text>
<line x1="886" y1="114" x2="902" y2="114" stroke="#111111" stroke-width="2"/>
<rect x="891.0" y="111.0" width="6" height="6" fill="#111111"/>
<text class="label" x="908" y="118">SuRF</text>
<line x1="886" y1="132" x2="902" y2="132" stroke="#111111" stroke-width="2"/>
<polygon points="894.0,128.0 898.0,135.0 890.0,135.0" fill="#111111"/>
<text class="label" x="908" y="136">SuRFHash(8)</text>
<line x1="886" y1="150" x2="902" y2="150" stroke="#111111" stroke-width="2"/>
<polygon points="894.0,146.0 898.0,150.0 894.0,154.0 890.0,150.0" fill="#111111"/>
<text class="label" x="908" y="154">SuRFReal(8)</text>
<line x1="886" y1="168" x2="902" y2="168" stroke="#2a7fff" stroke-width="2"/>
<rect x="891.0" y="165.0" width="6" height="6" fill="#2a7fff"/>
<text class="label" x="908" y="172">Adaptive (t=0)</text>
<line x1="886" y1="186" x2="902" y2="186" stroke="#9b59b6" stroke-width="2"/>
<polygon points="894.0,182.0 898.0,189.0 890.0,189.0" fill="#9b59b6"/>
<text class="label" x="908" y="190">Truncation</text>
<line x1="886" y1="204" x2="902" y2="204" stroke="#4dd88a" stroke-width="2"/>
<polygon points="894.0,200.0 898.0,204.0 894.0,208.0 890.0,204.0" fill="#4dd88a"/>
<text class="label" x="908" y="208">SODA</text>
<line x1="886" y1="222" x2="902" y2="222" stroke="#ff6b6b" stroke-width="2"/>
<polygon points="894.0,217.0 892.8,220.4 889.2,220.5 892.1,222.6 891.1,226.0 894.0,224.0 896.9,226.0 895.9,222.6 898.8,220.5 895.2,220.4" fill="#ff6b6b"/>
<text class="label" x="908" y="226">Hybrid</text>
<line x1="886" y1="240" x2="902" y2="240" stroke="#ff922b" stroke-width="2"/>
<circle cx="894.0" cy="240.0" r="3" fill="#ff922b"/>
<text class="label" x="908" y="244">CDF-ARE</text>
<line x1="886" y1="258" x2="902" y2="258" stroke="#888888" stroke-width="2" stroke-dasharray="8,5"/>
<circle cx="894.0" cy="258.0" r="3" fill="#888888"/>
<text class="label" x="908" y="262">BloomARE</text>
<text x="480" y="590" text-anchor="middle">Bits per Key (BPK)</text>
<text transform="translate(16,295) rotate(-90)" text-anchor="middle">False Positive Rate (FPR)</text>
</svg>
