<svg xmlns="http://www.w3.org/2000/svg" width="1020" height="600" viewBox="0 0 1020 600">
<style>text{font-family:Menlo,Monaco,monospace;font-size:12px;fill:#222} .axis{stroke:#333;stroke-width:1} .grid{stroke:#eee;stroke-width:0.5} .label{font-size:11px;fill:#444}</style>
<text x="510" y="28" text-anchor="middle" style="font-size:14px;font-weight:bold">FPR vs BPK — uniform (60-bit keys, n=65536, L=128)</text>
<line class="axis" x1="90.0" y1="550.0" x2="870.0" y2="550.0"/>
<line class="axis" x1="90.0" y1="40.0" x2="90.0" y2="550.0"/>
<line class="grid" x1="90.0" y1="521.7" x2="870.0" y2="521.7"/>
<text class="label" x="82.0" y="525.7" text-anchor="end">10^-8</text>
<line class="grid" x1="90.0" y1="465.0" x2="870.0" y2="465.0"/>
<text class="label" x="82.0" y="469.0" text-anchor="end">10^-7</text>
<line class="grid" x1="90.0" y1="408.3" x2="870.0" y2="408.3"/>
<text class="label" x="82.0" y="412.3" text-anchor="end">10^-6</text>
<line class="grid" x1="90.0" y1="351.7" x2="870.0" y2="351.7"/>
<text class="label" x="82.0" y="355.7" text-anchor="end">10^-5</text>
<line class="grid" x1="90.0" y1="295.0" x2="870.0" y2="295.0"/>
<text class="label" x="82.0" y="299.0" text-anchor="end">10^-4</text>
<line class="grid" x1="90.0" y1="238.3" x2="870.0" y2="238.3"/>
<text class="label" x="82.0" y="242.3" text-anchor="end">10^-3</text>
<line class="grid" x1="90.0" y1="181.7" x2="870.0" y2="181.7"/>
<text class="label" x="82.0" y="185.7" text-anchor="end">10^-2</text>
<line class="grid" x1="90.0" y1="125.0" x2="870.0" y2="125.0"/>
<text class="label" x="82.0" y="129.0" text-anchor="end">10^-1</text>
<line class="grid" x1="90.0" y1="68.3" x2="870.0" y2="68.3"/>
<text class="label" x="82.0" y="72.3" text-anchor="end">1</text>
<line class="grid" x1="90.0" y1="40.0" x2="90.0" y2="550.0"/>
<text class="label" x="90.0" y="566.0" text-anchor="middle">0</text>
<line class="grid" x1="176.5" y1="40.0" x2="176.5" y2="550.0"/>
<text class="label" x="176.5" y="566.0" text-anchor="middle">5</text>
<line class="grid" x1="263.1" y1="40.0" x2="263.1" y2="550.0"/>
<text class="label" x="263.1" y="566.0" text-anchor="middle">10</text>
<line class="grid" x1="349.6" y1="40.0" x2="349.6" y2="550.0"/>
<text class="label" x="349.6" y="566.0" text-anchor="middle">15</text>
<line class="grid" x1="436.1" y1="40.0" x2="436.1" y2="550.0"/>
<text class="label" x="436.1" y="566.0" text-anchor="middle">20</text>
<line class="grid" x1="522.6" y1="40.0" x2="522.6" y2="550.0"/>
<text class="label" x="522.6" y="566.0" text-anchor="middle">25</text>
<line class="grid" x1="609.2" y1="40.0" x2="609.2" y2="550.0"/>
<text class="label" x="609.2" y="566.0" text-anchor="middle">30</text>
<line class="grid" x1="695.7" y1="40.0" x2="695.7" y2="550.0"/>
<text class="label" x="695.7" y="566.0" text-anchor="middle">35</text>
<line class="grid" x1="782.2" y1="40.0" x2="782.2" y2="550.0"/>
<text class="label" x="782.2" y="566.0" text-anchor="middle">40</text>
<line class="grid" x1="868.7" y1="40.0" x2="868.7" y2="550.0"/>
<text class="label" x="868.7" y="566.0" text-anchor="middle">45</text>
<polyline fill="none" stroke="#ef4444" stroke-width="2" stroke-dasharray="8,5" points="211.1,68.3 228.4,85.4 245.7,102.5 263.1,119.5 280.4,136.6 297.7,153.6 315.0,170.7 332.3,187.7 349.6,204.8 366.9,221.9 384.2,238.9 401.5,256.0 418.8,273.0 436.1,290.1 470.7,324.2 505.3,358.3 574.5,426.6 643.8,494.8"/>
<circle cx="211.1" cy="68.3" r="3" fill="#ef4444"/>
<circle cx="228.4" cy="85.4" r="3" fill="#ef4444"/>
<circle cx="245.7" cy="102.5" r="3" fill="#ef4444"/>
<circle cx="263.1" cy="119.5" r="3" fill="#ef4444"/>
<circle cx="280.4" cy="136.6" r="3" fill="#ef4444"/>
<circle cx="297.7" cy="153.6" r="3" fill="#ef4444"/>
<circle cx="315.0" cy="170.7" r="3" fill="#ef4444"/>
<circle cx="332.3" cy="187.7" r="3" fill="#ef4444"/>
<circle cx="349.6" cy="204.8" r="3" fill="#ef4444"/>
<circle cx="366.9" cy="221.9" r="3" fill="#ef4444"/>
<circle cx="384.2" cy="238.9" r="3" fill="#ef4444"/>
<circle cx="401.5" cy="256.0" r="3" fill="#ef4444"/>
<circle cx="418.8" cy="273.0" r="3" fill="#ef4444"/>
<circle cx="436.1" cy="290.1" r="3" fill="#ef4444"/>
<circle cx="470.7" cy="324.2" r="3" fill="#ef4444"/>
<circle cx="505.3" cy="358.3" r="3" fill="#ef4444"/>
<circle cx="574.5" cy="426.6" r="3" fill="#ef4444"/>
<circle cx="643.8" cy="494.8" r="3" fill="#ef4444"/>
<polyline fill="none" stroke="#1a6b3c" stroke-width="2" points="164.2,68.3 202.7,68.3 239.2,71.9 274.4,91.2 309.2,120.9 343.9,153.9 383.9,188.2 418.5,221.6 453.1,257.8"/>
<polygon points="164.2,64.3 168.2,68.3 164.2,72.3 160.2,68.3" fill="#1a6b3c"/>
<polygon points="202.7,64.3 206.7,68.3 202.7,72.3 198.7,68.3" fill="#1a6b3c"/>
<polygon points="239.2,67.9 243.2,71.9 239.2,75.9 235.2,71.9" fill="#1a6b3c"/>
<polygon points="274.4,87.2 278.4,91.2 274.4,95.2 270.4,91.2" fill="#1a6b3c"/>
<polygon points="309.2,116.9 313.2,120.9 309.2,124.9 305.2,120.9" fill="#1a6b3c"/>
<polygon points="343.9,149.9 347.9,153.9 343.9,157.9 339.9,153.9" fill="#1a6b3c"/>
<polygon points="383.9,184.2 387.9,188.2 383.9,192.2 379.9,188.2" fill="#1a6b3c"/>
<polygon points="418.5,217.6 422.5,221.6 418.5,225.6 414.5,221.6" fill="#1a6b3c"/>
<polygon points="453.1,253.8 457.1,257.8 453.1,261.8 449.1,257.8" fill="#1a6b3c"/>
<polyline fill="none" stroke="#1a3a6b" stroke-width="2" points="148.5,89.4 182.9,118.5 217.7,151.1 252.5,184.6 286.9,218.5 321.4,251.3 356.1,283.8 390.9,312.9 425.4,343.4"/>
<polygon points="148.5,84.4 147.3,87.7 143.7,87.8 146.6,90.0 145.5,93.4 148.5,91.4 151.4,93.4 150.4,90.0 153.2,87.8 149.7,87.7" fill="#1a3a6b"/>
<polygon points="182.9,113.5 181.8,116.9 178.2,116.9 181.0,119.1 180.0,122.5 182.9,120.5 185.9,122.5 184.8,119.1 187.7,116.9 184.1,116.9" fill="#1a3a6b"/>
<polygon points="217.7,146.1 216.5,149.5 213.0,149.6 215.8,151.7 214.8,155.1 217.7,153.1 220.6,155.1 219.6,151.7 222.5,149.6 218.9,149.5" fill="#1a3a6b"/>
<polygon points="252.5,179.6 251.3,183.0 247.7,183.1 250.6,185.3 249.6,188.7 252.5,186.6 255.4,188.7 254.4,185.3 257.2,183.1 253.7,183.0" fill="#1a3a6b"/>
<polygon points="286.9,213.5 285.7,216.9 282.2,216.9 285.0,219.1 284.0,222.5 286.9,220.5 289.9,222.5 288.8,219.1 291.7,216.9 288.1,216.9" fill="#1a3a6b"/>
<polygon points="321.4,246.3 320.2,249.6 316.6,249.7 319.5,251.9 318.4,255.3 321.4,253.3 324.3,255.3 323.3,251.9 326.1,249.7 322.6,249.6" fill="#1a3a6b"/>
<polygon points="356.1,278.8 355.0,282.2 351.4,282.2 354.2,284.4 353.2,287.8 356.1,285.8 359.1,287.8 358.0,284.4 360.9,282.2 357.3,282.2" fill="#1a3a6b"/>
<polygon points="390.9,307.9 389.8,311.3 386.2,311.4 389.0,313.5 388.0,316.9 390.9,314.9 393.9,316.9 392.8,313.5 395.7,311.4 392.1,311.3" fill="#1a3a6b"/>
<polygon points="425.4,338.4 424.2,341.8 420.6,341.9 423.5,344.0 422.4,347.5 425.4,345.4 428.3,347.5 427.3,344.0 430.1,341.9 426.5,341.8" fill="#1a3a6b"/>
<polyline fill="none" stroke="#111111" stroke-width="2" points="274.2,138.0"/>
<rect x="271.2" y="135.0" width="6" height="6" fill="#111111"/>
<polyline fill="none" stroke="#111111" stroke-width="2" points="832.9,138.0"/>
<polygon points="832.9,134.0 836.9,141.0 828.9,141.0" fill="#111111"/>
<polyline fill="none" stroke="#111111" stroke-width="2" points="832.9,274.9"/>
<polygon points="832.9,270.9 836.9,274.9 832.9,278.9 828.9,274.9" fill="#111111"/>
<polyline fill="none" stroke="#2a7fff" stroke-width="2" points="90.0,68.3 90.0,68.3 90.1,68.3 90.1,68.3 90.2,68.3 90.4,68.3 90.8,68.3 91.6,68.3 93.2,68.3 96.5,68.3 102.8,68.3 113.6,68.3 129.2,68.3 148.2,68.3 168.5,68.3 188.6,68.3 208.0,68.3 244.8,71.9 280.0,91.3 349.6,154.1 418.8,222.4"/>
<rect x="87.0" y="65.3" width="6" height="6" fill="#2a7fff"/>
<rect x="87.0" y="65.3" width="6" height="6" fill="#2a7fff"/>
<rect x="87.1" y="65.3" width="6" height="6" fill="#2a7fff"/>
<rect x="87.1" y="65.3" width="6" height="6" fill="#2a7fff"/>
<rect x="87.2" y="65.3" width="6" height="6" fill="#2a7fff"/>
<rect x="87.4" y="65.3" width="6" height="6" fill="#2a7fff"/>
<rect x="87.8" y="65.3" width="6" height="6" fill="#2a7fff"/>
<rect x="88.6" y="65.3" width="6" height="6" fill="#2a7fff"/>
<rect x="90.2" y="65.3" width="6" height="6" fill="#2a7fff"/>
<rect x="93.5" y="65.3" width="6" height="6" fill="#2a7fff"/>
<rect x="99.8" y="65.3" width="6" height="6" fill="#2a7fff"/>
<rect x="110.6" y="65.3" width="6" height="6" fill="#2a7fff"/>
<rect x="126.2" y="65.3" width="6" height="6" fill="#2a7fff"/>
<rect x="145.2" y="65.3" width="6" height="6" fill="#2a7fff"/>
<rect x="165.5" y="65.3" width="6" height="6" fill="#2a7fff"/>
<rect x="185.6" y="65.3" width="6" height="6" fill="#2a7fff"/>
<rect x="205.0" y="65.3" width="6" height="6" fill="#2a7fff"/>
<rect x="241.8" y="68.9" width="6" height="6" fill="#2a7fff"/>
<rect x="277.0" y="88.3" width="6" height="6" fill="#2a7fff"/>
<rect x="346.6" y="151.1" width="6" height="6" fill="#2a7fff"/>
<rect x="415.8" y="219.4" width="6" height="6" fill="#2a7fff"/>
<polyline fill="none" stroke="#9b59b6" stroke-width="2" points="90.0,68.3 90.0,68.3 90.1,68.3 90.1,68.3 90.2,68.3 90.4,68.3 90.8,68.3 91.6,68.3 93.2,68.3 96.5,68.3 102.8,68.7 113.7,71.9 129.2,79.6 148.1,91.3 168.5,105.5 188.7,121.0 208.0,137.1 244.6,170.4 280.0,204.2 349.6,272.3 418.8,335.8"/>
<polygon points="90.0,64.3 94.0,71.3 86.0,71.3" fill="#9b59b6"/>
<polygon points="90.0,64.3 94.0,71.3 86.0,71.3" fill="#9b59b6"/>
<polygon points="90.1,64.3 94.1,71.3 86.1,71.3" fill="#9b59b6"/>
<polygon points="90.1,64.3 94.1,71.3 86.1,71.3" fill="#9b59b6"/>
<polygon points="90.2,64.3 94.2,71.3 86.2,71.3" fill="#9b59b6"/>
<polygon points="90.4,64.3 94.4,71.3 86.4,71.3" fill="#9b59b6"/>
<polygon points="90.8,64.3 94.8,71.3 86.8,71.3" fill="#9b59b6"/>
<polygon points="91.6,64.3 95.6,71.3 87.6,71.3" fill="#9b59b6"/>
<polygon points="93.2,64.3 97.2,71.3 89.2,71.3" fill="#9b59b6"/>
<polygon points="96.5,64.3 100.5,71.3 92.5,71.3" fill="#9b59b6"/>
<polygon points="102.8,64.7 106.8,71.7 98.8,71.7" fill="#9b59b6"/>
<polygon points="113.7,67.9 117.7,74.9 109.7,74.9" fill="#9b59b6"/>
<polygon points="129.2,75.6 133.2,82.6 125.2,82.6" fill="#9b59b6"/>
<polygon points="148.1,87.3 152.1,94.3 144.1,94.3" fill="#9b59b6"/>
<polygon points="168.5,101.5 172.5,108.5 164.5,108.5" fill="#9b59b6"/>
<polygon points="188.7,117.0 192.7,124.0 184.7,124.0" fill="#9b59b6"/>
<polygon points="208.0,133.1 212.0,140.1 204.0,140.1" fill="#9b59b6"/>
<polygon points="244.6,166.4 248.6,173.4 240.6,173.4" fill="#9b59b6"/>
<polygon points="280.0,200.2 284.0,207.2 276.0,207.2" fill="#9b59b6"/>
<polygon points="349.6,268.3 353.6,275.3 345.6,275.3" fill="#9b59b6"/>
<polygon points="418.8,331.8 422.8,338.8 414.8,338.8" fill="#9b59b6"/>
<polyline fill="none" stroke="#4dd88a" stroke-width="2" points="90.0,68.3 90.0,68.3 90.1,68.3 90.1,68.3 90.2,68.3 90.4,68.3 90.8,68.3 91.6,68.3 93.2,68.3 96.5,68.3 102.8,68.3 113.6,68.3 129.2,68.3 148.2,68.3 168.5,68.3 188.6,68.3 208.0,68.3 244.8,71.9 280.0,91.3 349.6,154.1 418.8,222.4"/>
<polygon points="90.0,64.3 94.0,68.3 90.0,72.3 86.0,68.3" fill="#4dd88a"/>
<polygon points="90.0,64.3 94.0,68.3 90.0,72.3 86.0,68.3" fill="#4dd88a"/>
<polygon points="90.1,64.3 94.1,68.3 90.1,72.3 86.1,68.3" fill="#4dd88a"/>
<polygon points="90.1,64.3 94.1,68.3 90.1,72.3 86.1,68.3" fill="#4dd88a"/>
<polygon points="90.2,64.3 94.2,68.3 90.2,72.3 86.2,68.3" fill="#4dd88a"/>
<polygon points="90.4,64.3 94.4,68.3 90.4,72.3 86.4,68.3" fill="#4dd88a"/>
<polygon points="90.8,64.3 94.8,68.3 90.8,72.3 86.8,68.3" fill="#4dd88a"/>
<polygon points="91.6,64.3 95.6,68.3 91.6,72.3 87.6,68.3" fill="#4dd88a"/>
<polygon points="93.2,64.3 97.2,68.3 93.2,72.3 89.2,68.3" fill="#4dd88a"/>
<polygon points="96.5,64.3 100.5,68.3 96.5,72.3 92.5,68.3" fill="#4dd88a"/>
<polygon points="102.8,64.3 106.8,68.3 102.8,72.3 98.8,68.3" fill="#4dd88a"/>
<polygon points="113.6,64.3 117.6,68.3 113.6,72.3 109.6,68.3" fill="#4dd88a"/>
<polygon points="129.2,64.3 133.2,68.3 129.2,72.3 125.2,68.3" fill="#4dd88a"/>
<polygon points="148.2,64.3 152.2,68.3 148.2,72.3 144.2,68.3" fill="#4dd88a"/>
<polygon points="168.5,64.3 172.5,68.3 168.5,72.3 164.5,68.3" fill="#4dd88a"/>
<polygon points="188.6,64.3 192.6,68.3 188.6,72.3 184.6,68.3" fill="#4dd88a"/>
<polygon points="208.0,64.3 212.0,68.3 208.0,72.3 204.0,68.3" fill="#4dd88a"/>
<polygon points="244.8,67.9 248.8,71.9 244.8,75.9 240.8,71.9" fill="#4dd88a"/>
<polygon points="280.0,87.3 284.0,91.3 280.0,95.3 276.0,91.3" fill="#4dd88a"/>
<polygon points="349.6,150.1 353.6,154.1 349.6,158.1 345.6,154.1" fill="#4dd88a"/>
<polygon points="418.8,218.4 422.8,222.4 418.8,226.4 414.8,222.4" fill="#4dd88a"/>
<polyline fill="none" stroke="#ff6b6b" stroke-width="2" points="90.0,68.3 90.0,68.3 90.1,68.3 90.1,68.3 90.2,68.3 90.4,68.3 90.8,68.3 91.6,68.3 93.2,68.3 96.5,68.3 102.8,68.7 113.7,71.9 129.2,79.6 148.1,91.3 168.5,105.5 188.7,121.0 208.0,137.1 244.6,170.4 280.0,204.2 349.6,272.3 418.8,335.8"/>
<polygon points="90.0,63.3 88.8,66.7 85.3,66.8 88.1,69.0 87.1,72.4 90.0,70.3 93.0,72.4 91.9,69.0 94.8,66.8 91.2,66.7" fill="#ff6b6b"/>
<polygon points="90.0,63.3 88.8,66.7 85.3,66.8 88.1,69.0 87.1,72.4 90.0,70.3 93.0,72.4 91.9,69.0 94.8,66.8 91.2,66.7" fill="#ff6b6b"/>
<polygon points="90.1,63.3 88.9,66.7 85.3,66.8 88.1,69.0 87.1,72.4 90.1,70.3 93.0,72.4 92.0,69.0 94.8,66.8 91.2,66.7" fill="#ff6b6b"/>
<polygon points="90.1,63.3 88.9,66.7 85.3,66.8 88.2,69.0 87.2,72.4 90.1,70.3 93.0,72.4 92.0,69.0 94.9,66.8 91.3,66.7" fill="#ff6b6b"/>
<polygon points="90.2,63.3 89.0,66.7 85.4,66.8 88.3,69.0 87.3,72.4 90.2,70.3 93.1,72.4 92.1,69.0 95.0,66.8 91.4,66.7" fill="#ff6b6b"/>
<polygon points="90.4,63.3 89.2,66.7 85.7,66.8 88.5,69.0 87.5,72.4 90.4,70.3 93.3,72.4 92.3,69.0 95.2,66.8 91.6,66.7" fill="#ff6b6b"/>
<polygon points="90.8,63.3 89.6,66.7 86.1,66.8 88.9,69.0 87.9,72.4 90.8,70.3 93.8,72.4 92.7,69.0 95.6,66.8 92.0,66.7" fill="#ff6b6b"/>
<polygon points="91.6,63.3 90.4,66.7 86.9,66.8 89.7,69.0 88.7,72.4 91.6,70.3 94.6,72.4 93.5,69.0 96.4,66.8 92.8,66.7" fill="#ff6b6b"/>
<polygon points="93.2,63.3 92.1,66.7 88.5,66.8 91.3,69.0 90.3,72.4 93.2,70.3 96.2,72.4 95.1,69.0 98.0,66.8 94.4,66.7" fill="#ff6b6b"/>
<polygon points="96.5,63.3 95.3,66.7 91.7,66.8 94.6,69.0 93.5,72.4 96.5,70.3 99.4,72.4 98.4,69.0 101.2,66.8 97.7,66.7" fill="#ff6b6b"/>
<polygon points="102.8,63.7 101.7,67.1 98.1,67.2 100.9,69.4 99.9,72.8 102.8,70.7 105.8,72.8 104.7,69.4 107.6,67.2 104.0,67.1" fill="#ff6b6b"/>
<polygon points="113.7,66.9 112.5,70.2 108.9,70.3 111.8,72.5 110.7,75.9 113.7,73.9 116.6,75.9 115.6,72.5 118.4,70.3 114.8,70.2" fill="#ff6b6b"/>
<polygon points="129.2,74.6 128.0,78.0 124.4,78.1 127.3,80.2 126.2,83.7 129.2,81.6 132.1,83.7 131.1,80.2 133.9,78.1 130.3,78.0" fill="#ff6b6b"/>
<polygon points="148.1,86.3 147.0,89.7 143.4,89.7 146.2,91.9 145.2,95.3 148.1,93.3 151.1,95.3 150.0,91.9 152.9,89.7 149.3,89.7" fill="#ff6b6b"/>
<polygon points="168.5,100.5 167.4,103.8 163.8,103.9 166.6,106.1 165.6,109.5 168.5,107.5 171.5,109.5 170.4,106.1 173.3,103.9 169.7,103.8" fill="#ff6b6b"/>
<polygon points="188.7,116.0 187.5,119.3 183.9,119.4 186.8,121.6 185.7,125.0 188.7,123.0 191.6,125.0 190.6,121.6 193.4,119.4 189.8,119.3" fill="#ff6b6b"/>
<polygon points="208.0,132.1 206.8,135.5 203.2,135.6 206.1,137.8 205.0,141.2 208.0,139.1 210.9,141.2 209.9,137.8 212.7,135.6 209.2,135.5" fill="#ff6b6b"/>
<polygon points="244.6,165.4 243.5,168.8 239.9,168.8 242.7,171.0 241.7,174.4 244.6,172.4 247.6,174.4 246.5,171.0 249.4,168.8 245.8,168.8" fill="#ff6b6b"/>
<polygon points="280.0,199.2 278.8,202.6 275.3,202.7 278.1,204.8 277.1,208.3 280.0,206.2 283.0,208.3 281.9,204.8 284.8,202.7 281.2,202.6" fill="#ff6b6b"/>
<polygon points="349.6,267.3 348.4,270.7 344.8,270.7 347.6,272.9 346.6,276.3 349.6,274.3 352.5,276.3 351.5,272.9 354.3,270.7 350.7,270.7" fill="#ff6b6b"/>
<polygon points="418.8,330.8 417.6,334.2 414.0,334.2 416.9,336.4 415.9,339.8 418.8,337.8 421.7,339.8 420.7,336.4 423.5,334.2 420.0,334.2" fill="#ff6b6b"/>
<polyline fill="none" stroke="#ff922b" stroke-width="2" points="241.1,127.6 260.3,144.2 278.8,160.7 296.8,177.7 314.5,194.2 332.0,211.2 349.5,227.4 366.8,244.2 401.5,278.1 418.8,298.2"/>
<circle cx="241.1" cy="127.6" r="3" fill="#ff922b"/>
<circle cx="260.3" cy="144.2" r="3" fill="#ff922b"/>
<circle cx="278.8" cy="160.7" r="3" fill="#ff922b"/>
<circle cx="296.8" cy="177.7" r="3" fill="#ff922b"/>
<circle cx="314.5" cy="194.2" r="3" fill="#ff922b"/>
<circle cx="332.0" cy="211.2" r="3" fill="#ff922b"/>
<circle cx="349.5" cy="227.4" r="3" fill="#ff922b"/>
<circle cx="366.8" cy="244.2" r="3" fill="#ff922b"/>
<circle cx="401.5" cy="278.1" r="3" fill="#ff922b"/>
<circle cx="418.8" cy="298.2" r="3" fill="#ff922b"/>
<polyline fill="none" stroke="#888888" stroke-width="2" stroke-dasharray="8,5" points="345.8,124.7 371.8,141.6 405.3,164.7 430.5,182.0 455.5,198.8 488.6,219.8 513.5,239.6 538.5,255.6 571.5,278.1 596.5,299.7"/>
<circle cx="345.8" cy="124.7" r="3" fill="#888888"/>
<circle cx="371.8" cy="141.6" r="3" fill="#888888"/>
<circle cx="405.3" cy="164.7" r="3" fill="#888888"/>
<circle cx="430.5" cy="182.0" r="3" fill="#888888"/>
<circle cx="455.5" cy="198.8" r="3" fill="#888888"/>
<circle cx="488.6" cy="219.8" r="3" fill="#888888"/>
<circle cx="513.5" cy="239.6" r="3" fill="#888888"/>
<circle cx="538.5" cy="255.6" r="3" fill="#888888"/>
<circle cx="571.5" cy="278.1" r="3" fill="#888888"/>
<circle cx="596.5" cy="299.7" r="3" fill="#888888"/>
<line x1="886" y1="60" x2="902" y2="60" stroke="#ef4444" stroke-width="2" stroke-dasharray="8,5"/>
<circle cx="894.0" cy="60.0" r="3" fill="#ef4444"/>
<text class="label" x="908" y="64">Theoretical</text>
<line x1="886" y1="78" x2="902" y2="78" stroke="#1a6b3c" stroke-width="2"/>
<polygon points="894.0,74.0 898.0,78.0 894.0,82.0 890.0,78.0" fill="#1a6b3c"/>
<text class="label" x="908" y="82">Grafite</text>
<line x1="886" y1="96" x2="902" y2="96" stroke="#1a3a6b" stroke-width="2"/>
<polygon points="894.0,91.0 892.8,94.4 889.2,94.5 892.1,96.6 891.1,100.0 894.0,98.0 896.9,100.0 895.9,96.6 898.8,94.5 895.2,94.4" fill="#1a3a6b"/>
<text class="label" x="908" y="100">SNARF</text>
<line x1="886" y1="114" x2="902" y2="114" stroke="#111111" stroke-width="2"/>
<rect x="891.0" y="111.0" width="6" height="6" fill="#111111"/>
<text class="label" x="908" y="118">SuRF</text>
<line x1="886" y1="132" x2="902" y2="132" stroke="#111111" stroke-width="2"/>
<polygon points="894.0,128.0 898.0,135.0 890.0,135.0" fill="#111111"/>
<text class="label" x="908" y="136">SuRFHash(8)</text>
<line x1="886" y1="150" x2="902" y2="150" stroke="#111111" stroke-width="2"/>
<polygon points="894.0,146.0 898.0,150.0 894.0,154.0 890.0,150.0" fill="#111111"/>
<text class="label" x="908" y="154">SuRFReal(8)</text>
<line x1="886" y1="168" x2="902" y2="168" stroke="#2a7fff" stroke-width="2"/>
<rect x="891.0" y="165.0" width="6" height="6" fill="#2a7fff"/>
<text class="label" x="908" y="172">Adaptive (t=0)</text>
<line x1="886" y1="186" x2="902" y2="186" stroke="#9b59b6" stroke-width="2"/>
<polygon points="894.0,182.0 898.0,189.0 890.0,189.0" fill="#9b59b6"/>
<text class="label" x="908" y="190">Truncation</text>
<line x1="886" y1="204" x2="902" y2="204" stroke="#4dd88a" stroke-width="2"/>
<polygon points="894.0,200.0 898.0,204.0 894.0,208.0 890.0,204.0" fill="#4dd88a"/>
<text class="label" x="908" y="208">SODA</text>
<line x1="886" y1="222" x2="902" y2="222" stroke="#ff6b6b" stroke-width="2"/>
<polygon points="894.0,217.0 892.8,220.4 889.2,220.5 892.1,222.6 891.1,226.0 894.0,224.0 896.9,226.0 895.9,222.6 898.8,220.5 895.2,220.4" fill="#ff6b6b"/>
<text class="label" x="908" y="226">Hybrid</text>
<line x1="886" y1="240" x2="902" y2="240" stroke="#ff922b" stroke-width="2"/>
<circle cx="894.0" cy="240.0" r="3" fill="#ff922b"/>
<text class="label" x="908" y="244">CDF-ARE</text>
<line x1="886" y1="258" x2="902" y2="258" stroke="#888888" stroke-width="2" stroke-dasharray="8,5"/>
<circle cx="894.0" cy="258.0" r="3" fill="#888888"/>
<text class="label" x="908" y="262">BloomARE</text>
<text x="480" y="590" text-anchor="middle">Bits per Key (BPK)</text>
<text transform="translate(16,295) rotate(-90)" text-anchor="middle">False Positive Rate (FPR)</text>
</svg>
