<svg xmlns="http://www.w3.org/2000/svg" width="1020" height="600" viewBox="0 0 1020 600">
<style>text{font-family:Menlo,Monaco,monospace;font-size:12px;fill:#222} .axis{stroke:#333;stroke-width:1} .grid{stroke:#eee;stroke-width:0.5} .label{font-size:11px;fill:#444}</style>
<text x="510" y="28" text-anchor="middle" style="font-size:14px;font-weight:bold">FPR vs BPK — uniform (60-bit keys, n=65536, L=16)</text>
<line class="axis" x1="90.0" y1="550.0" x2="870.0" y2="550.0"/>
<line class="axis" x1="90.0" y1="40.0" x2="90.0" y2="550.0"/>
<line class="grid" x1="90.0" y1="524.5" x2="870.0" y2="524.5"/>
<text class="label" x="82.0" y="528.5" text-anchor="end">10^-9</text>
<line class="grid" x1="90.0" y1="473.5" x2="870.0" y2="473.5"/>
<text class="label" x="82.0" y="477.5" text-anchor="end">10^-8</text>
<line class="grid" x1="90.0" y1="422.5" x2="870.0" y2="422.5"/>
<text class="label" x="82.0" y="426.5" text-anchor="end">10^-7</text>
<line class="grid" x1="90.0" y1="371.5" x2="870.0" y2="371.5"/>
<text class="label" x="82.0" y="375.5" text-anchor="end">10^-6</text>
<line class="grid" x1="90.0" y1="320.5" x2="870.0" y2="320.5"/>
<text class="label" x="82.0" y="324.5" text-anchor="end">10^-5</text>
<line class="grid" x1="90.0" y1="269.5" x2="870.0" y2="269.5"/>
<text class="label" x="82.0" y="273.5" text-anchor="end">10^-4</text>
<line class="grid" x1="90.0" y1="218.5" x2="870.0" y2="218.5"/>
<text class="label" x="82.0" y="222.5" text-anchor="end">10^-3</text>
<line class="grid" x1="90.0" y1="167.5" x2="870.0" y2="167.5"/>
<text class="label" x="82.0" y="171.5" text-anchor="end">10^-2</text>
<line class="grid" x1="90.0" y1="116.5" x2="870.0" y2="116.5"/>
<text class="label" x="82.0" y="120.5" text-anchor="end">10^-1</text>
<line class="grid" x1="90.0" y1="65.5" x2="870.0" y2="65.5"/>
<text class="label" x="82.0" y="69.5" text-anchor="end">1</text>
<line class="grid" x1="90.0" y1="40.0" x2="90.0" y2="550.0"/>
<text class="label" x="90.0" y="566.0" text-anchor="middle">0</text>
<line class="grid" x1="176.5" y1="40.0" x2="176.5" y2="550.0"/>
<text class="label" x="176.5" y="566.0" text-anchor="middle">5</text>
<line class="grid" x1="263.1" y1="40.0" x2="263.1" y2="550.0"/>
<text class="label" x="263.1" y="566.0" text-anchor="middle">10</text>
<line class="grid" x1="349.6" y1="40.0" x2="349.6" y2="550.0"/>
<text class="label" x="349.6" y="566.0" text-anchor="middle">15</text>
<line class="grid" x1="436.1" y1="40.0" x2="436.1" y2="550.0"/>
<text class="label" x="436.1" y="566.0" text-anchor="middle">20</text>
<line class="grid" x1="522.6" y1="40.0" x2="522.6" y2="550.0"/>
<text class="label" x="522.6" y="566.0" text-anchor="middle">25</text>
<line class="grid" x1="609.2" y1="40.0" x2="609.2" y2="550.0"/>
<text class="label" x="609.2" y="566.0" text-anchor="middle">30</text>
<line class="grid" x1="695.7" y1="40.0" x2="695.7" y2="550.0"/>
<text class="label" x="695.7" y="566.0" text-anchor="middle">35</text>
<line class="grid" x1="782.2" y1="40.0" x2="782.2" y2="550.0"/>
<text class="label" x="782.2" y="566.0" text-anchor="middle">40</text>
<line class="grid" x1="868.7" y1="40.0" x2="868.7" y2="550.0"/>
<text class="label" x="868.7" y="566.0" text-anchor="middle">45</text>
<polyline fill="none" stroke="#ef4444" stroke-width="2" stroke-dasharray="8,5" points="159.2,65.5 176.5,80.9 193.8,96.2 211.1,111.6 228.4,126.9 245.7,142.3 263.1,157.6 280.4,173.0 297.7,188.3 315.0,203.7 332.3,219.0 349.6,234.4 366.9,249.7 384.2,265.1 401.5,280.4 418.8,295.8 436.1,311.1 470.7,341.8 505.3,372.6 574.5,434.0 643.8,495.4"/>
<circle cx="159.2" cy="65.5" r="3" fill="#ef4444"/>
<circle cx="176.5" cy="80.9" r="3" fill="#ef4444"/>
<circle cx="193.8" cy="96.2" r="3" fill="#ef4444"/>
<circle cx="211.1" cy="111.6" r="3" fill="#ef4444"/>
<circle cx="228.4" cy="126.9" r="3" fill="#ef4444"/>
<circle cx="245.7" cy="142.3" r="3" fill="#ef4444"/>
<circle cx="263.1" cy="157.6" r="3" fill="#ef4444"/>
<circle cx="280.4" cy="173.0" r="3" fill="#ef4444"/>
<circle cx="297.7" cy="188.3" r="3" fill="#ef4444"/>
<circle cx="315.0" cy="203.7" r="3" fill="#ef4444"/>
<circle cx="332.3" cy="219.0" r="3" fill="#ef4444"/>
<circle cx="349.6" cy="234.4" r="3" fill="#ef4444"/>
<circle cx="366.9" cy="249.7" r="3" fill="#ef4444"/>
<circle cx="384.2" cy="265.1" r="3" fill="#ef4444"/>
<circle cx="401.5" cy="280.4" r="3" fill="#ef4444"/>
<circle cx="418.8" cy="295.8" r="3" fill="#ef4444"/>
<circle cx="436.1" cy="311.1" r="3" fill="#ef4444"/>
<circle cx="470.7" cy="341.8" r="3" fill="#ef4444"/>
<circle cx="505.3" cy="372.6" r="3" fill="#ef4444"/>
<circle cx="574.5" cy="434.0" r="3" fill="#ef4444"/>
<circle cx="643.8" cy="495.4" r="3" fill="#ef4444"/>
<polyline fill="none" stroke="#1a6b3c" stroke-width="2" points="164.2,65.9 202.7,75.7 239.2,98.9 274.4,127.8 309.2,157.5 343.9,187.4 383.9,218.1 418.5,251.3 453.1,282.4"/>
<polygon points="164.2,61.9 168.2,65.9 164.2,69.9 160.2,65.9" fill="#1a6b3c"/>
<polygon points="202.7,71.7 206.7,75.7 202.7,79.7 198.7,75.7" fill="#1a6b3c"/>
<polygon points="239.2,94.9 243.2,98.9 239.2,102.9 235.2,98.9" fill="#1a6b3c"/>
<polygon points="274.4,123.8 278.4,127.8 274.4,131.8 270.4,127.8" fill="#1a6b3c"/>
<polygon points="309.2,153.5 313.2,157.5 309.2,161.5 305.2,157.5" fill="#1a6b3c"/>
<polygon points="343.9,183.4 347.9,187.4 343.9,191.4 339.9,187.4" fill="#1a6b3c"/>
<polygon points="383.9,214.1 387.9,218.1 383.9,222.1 379.9,218.1" fill="#1a6b3c"/>
<polygon points="418.5,247.3 422.5,251.3 418.5,255.3 414.5,251.3" fill="#1a6b3c"/>
<polygon points="453.1,278.4 457.1,282.4 453.1,286.4 449.1,282.4" fill="#1a6b3c"/>
<polyline fill="none" stroke="#1a3a6b" stroke-width="2" points="148.5,84.4 182.9,110.6 217.7,140.0 252.5,170.2 286.9,200.6 321.4,230.1 356.1,259.4 390.9,285.6 425.4,313.1"/>
<polygon points="148.5,79.4 147.3,82.8 143.7,82.9 146.6,85.0 145.5,88.5 148.5,86.4 151.4,88.5 150.4,85.0 153.2,82.9 149.7,82.8" fill="#1a3a6b"/>
<polygon points="182.9,105.6 181.8,109.0 178.2,109.1 181.0,111.3 180.0,114.7 182.9,112.6 185.9,114.7 184.8,111.3 187.7,109.1 184.1,109.0" fill="#1a3a6b"/>
<polygon points="217.7,135.0 216.5,138.4 213.0,138.4 215.8,140.6 214.8,144.0 217.7,142.0 220.6,144.0 219.6,140.6 222.5,138.4 218.9,138.4" fill="#1a3a6b"/>
<polygon points="252.5,165.2 251.3,168.6 247.7,168.6 250.6,170.8 249.6,174.2 252.5,172.2 255.4,174.2 254.4,170.8 257.2,168.6 253.7,168.6" fill="#1a3a6b"/>
<polygon points="286.9,195.6 285.7,199.0 282.2,199.1 285.0,201.3 284.0,204.7 286.9,202.6 289.9,204.7 288.8,201.3 291.7,199.1 288.1,199.0" fill="#1a3a6b"/>
<polygon points="321.4,225.1 320.2,228.5 316.6,228.6 319.5,230.8 318.4,234.2 321.4,232.1 324.3,234.2 323.3,230.8 326.1,228.6 322.6,228.5" fill="#1a3a6b"/>
<polygon points="356.1,254.4 355.0,257.8 351.4,257.9 354.2,260.0 353.2,263.5 356.1,261.4 359.1,263.5 358.0,260.0 360.9,257.9 357.3,257.8" fill="#1a3a6b"/>
<polygon points="390.9,280.6 389.8,284.0 386.2,284.1 389.0,286.2 388.0,289.7 390.9,287.6 393.9,289.7 392.8,286.2 395.7,284.1 392.1,284.0" fill="#1a3a6b"/>
<polygon points="425.4,308.1 424.2,311.4 420.6,311.5 423.5,313.7 422.4,317.1 425.4,315.1 428.3,317.1 427.3,313.7 430.1,311.5 426.5,311.4" fill="#1a3a6b"/>
<polyline fill="none" stroke="#111111" stroke-width="2" points="274.2,128.2"/>
<rect x="271.2" y="125.2" width="6" height="6" fill="#111111"/>
<polyline fill="none" stroke="#111111" stroke-width="2" points="832.9,128.2"/>
<polygon points="832.9,124.2 836.9,131.2 828.9,131.2" fill="#111111"/>
<polyline fill="none" stroke="#111111" stroke-width="2" points="832.9,251.4"/>
<polygon points="832.9,247.4 836.9,251.4 832.9,255.4 828.9,251.4" fill="#111111"/>
<polyline fill="none" stroke="#2a7fff" stroke-width="2" points="90.0,65.5 90.0,65.5 90.1,65.5 90.1,65.5 90.2,65.5 90.4,65.5 90.8,65.5 91.6,65.5 93.2,65.5 96.5,65.5 102.8,65.5 113.6,65.5 129.2,65.5 148.2,65.5 168.5,65.9 188.6,68.7 208.0,75.6 244.8,98.9 280.0,127.6 349.6,188.9 418.8,251.0"/>
<rect x="87.0" y="62.5" width="6" height="6" fill="#2a7fff"/>
<rect x="87.0" y="62.5" width="6" height="6" fill="#2a7fff"/>
<rect x="87.1" y="62.5" width="6" height="6" fill="#2a7fff"/>
<rect x="87.1" y="62.5" width="6" height="6" fill="#2a7fff"/>
<rect x="87.2" y="62.5" width="6" height="6" fill="#2a7fff"/>
<rect x="87.4" y="62.5" width="6" height="6" fill="#2a7fff"/>
<rect x="87.8" y="62.5" width="6" height="6" fill="#2a7fff"/>
<rect x="88.6" y="62.5" width="6" height="6" fill="#2a7fff"/>
<rect x="90.2" y="62.5" width="6" height="6" fill="#2a7fff"/>
<rect x="93.5" y="62.5" width="6" height="6" fill="#2a7fff"/>
<rect x="99.8" y="62.5" width="6" height="6" fill="#2a7fff"/>
<rect x="110.6" y="62.5" width="6" height="6" fill="#2a7fff"/>
<rect x="126.2" y="62.5" width="6" height="6" fill="#2a7fff"/>
<rect x="145.2" y="62.5" width="6" height="6" fill="#2a7fff"/>
<rect x="165.5" y="62.9" width="6" height="6" fill="#2a7fff"/>
<rect x="185.6" y="65.7" width="6" height="6" fill="#2a7fff"/>
<rect x="205.0" y="72.6" width="6" height="6" fill="#2a7fff"/>
<rect x="241.8" y="95.9" width="6" height="6" fill="#2a7fff"/>
<rect x="277.0" y="124.6" width="6" height="6" fill="#2a7fff"/>
<rect x="346.6" y="185.9" width="6" height="6" fill="#2a7fff"/>
<rect x="415.8" y="248.0" width="6" height="6" fill="#2a7fff"/>
<polyline fill="none" stroke="#9b59b6" stroke-width="2" points="90.0,65.5 90.0,65.5 90.1,65.5 90.1,65.5 90.2,65.5 90.4,65.5 90.8,65.5 91.6,65.5 93.2,65.5 96.5,65.5 102.8,65.9 113.7,68.7 129.2,75.7 148.1,86.2 168.5,98.9 188.7,112.9 208.0,127.4 244.6,157.4 280.0,187.8 349.6,249.0 418.8,306.2"/>
<polygon points="90.0,61.5 94.0,68.5 86.0,68.5" fill="#9b59b6"/>
<polygon points="90.0,61.5 94.0,68.5 86.0,68.5" fill="#9b59b6"/>
<polygon points="90.1,61.5 94.1,68.5 86.1,68.5" fill="#9b59b6"/>
<polygon points="90.1,61.5 94.1,68.5 86.1,68.5" fill="#9b59b6"/>
<polygon points="90.2,61.5 94.2,68.5 86.2,68.5" fill="#9b59b6"/>
<polygon points="90.4,61.5 94.4,68.5 86.4,68.5" fill="#9b59b6"/>
<polygon points="90.8,61.5 94.8,68.5 86.8,68.5" fill="#9b59b6"/>
<polygon points="91.6,61.5 95.6,68.5 87.6,68.5" fill="#9b59b6"/>
<polygon points="93.2,61.5 97.2,68.5 89.2,68.5" fill="#9b59b6"/>
<polygon points="96.5,61.5 100.5,68.5 92.5,68.5" fill="#9b59b6"/>
<polygon points="102.8,61.9 106.8,68.9 98.8,68.9" fill="#9b59b6"/>
<polygon points="113.7,64.7 117.7,71.7 109.7,71.7" fill="#9b59b6"/>
<polygon points="129.2,71.7 133.2,78.7 125.2,78.7" fill="#9b59b6"/>
<polygon points="148.1,82.2 152.1,89.2 144.1,89.2" fill="#9b59b6"/>
<polygon points="168.5,94.9 172.5,101.9 164.5,101.9" fill="#9b59b6"/>
<polygon points="188.7,108.9 192.7,115.9 184.7,115.9" fill="#9b59b6"/>
<polygon points="208.0,123.4 212.0,130.4 204.0,130.4" fill="#9b59b6"/>
<polygon points="244.6,153.4 248.6,160.4 240.6,160.4" fill="#9b59b6"/>
<polygon points="280.0,183.8 284.0,190.8 276.0,190.8" fill="#9b59b6"/>
<polygon points="349.6,245.0 353.6,252.0 345.6,252.0" fill="#9b59b6"/>
<polygon points="418.8,302.2 422.8,309.2 414.8,309.2" fill="#9b59b6"/>
<polyline fill="none" stroke="#4dd88a" stroke-width="2" points="90.0,65.5 90.0,65.5 90.1,65.5 90.1,65.5 90.2,65.5 90.4,65.5 90.8,65.5 91.6,65.5 93.2,65.5 96.5,65.5 102.8,65.5 113.6,65.5 129.2,65.5 148.2,65.5 168.5,65.9 188.6,68.7 208.0,75.6 244.8,98.9 280.0,127.6 349.6,188.9 418.8,251.0"/>
<polygon points="90.0,61.5 94.0,65.5 90.0,69.5 86.0,65.5" fill="#4dd88a"/>
<polygon points="90.0,61.5 94.0,65.5 90.0,69.5 86.0,65.5" fill="#4dd88a"/>
<polygon points="90.1,61.5 94.1,65.5 90.1,69.5 86.1,65.5" fill="#4dd88a"/>
<polygon points="90.1,61.5 94.1,65.5 90.1,69.5 86.1,65.5" fill="#4dd88a"/>
<polygon points="90.2,61.5 94.2,65.5 90.2,69.5 86.2,65.5" fill="#4dd88a"/>
<polygon points="90.4,61.5 94.4,65.5 90.4,69.5 86.4,65.5" fill="#4dd88a"/>
<polygon points="90.8,61.5 94.8,65.5 90.8,69.5 86.8,65.5" fill="#4dd88a"/>
<polygon points="91.6,61.5 95.6,65.5 91.6,69.5 87.6,65.5" fill="#4dd88a"/>
<polygon points="93.2,61.5 97.2,65.5 93.2,69.5 89.2,65.5" fill="#4dd88a"/>
<polygon points="96.5,61.5 100.5,65.5 96.5,69.5 92.5,65.5" fill="#4dd88a"/>
<polygon points="102.8,61.5 106.8,65.5 102.8,69.5 98.8,65.5" fill="#4dd88a"/>
<polygon points="113.6,61.5 117.6,65.5 113.6,69.5 109.6,65.5" fill="#4dd88a"/>
<polygon points="129.2,61.5 133.2,65.5 129.2,69.5 125.2,65.5" fill="#4dd88a"/>
<polygon points="148.2,61.5 152.2,65.5 148.2,69.5 144.2,65.5" fill="#4dd88a"/>
<polygon points="168.5,61.9 172.5,65.9 168.5,69.9 164.5,65.9" fill="#4dd88a"/>
<polygon points="188.6,64.7 192.6,68.7 188.6,72.7 184.6,68.7" fill="#4dd88a"/>
<polygon points="208.0,71.6 212.0,75.6 208.0,79.6 204.0,75.6" fill="#4dd88a"/>
<polygon points="244.8,94.9 248.8,98.9 244.8,102.9 240.8,98.9" fill="#4dd88a"/>
<polygon points="280.0,123.6 284.0,127.6 280.0,131.6 276.0,127.6" fill="#4dd88a"/>
<polygon points="349.6,184.9 353.6,188.9 349.6,192.9 345.6,188.9" fill="#4dd88a"/>
<polygon points="418.8,247.0 422.8,251.0 418.8,255.0 414.8,251.0" fill="#4dd88a"/>
<polyline fill="none" stroke="#ff6b6b" stroke-width="2" points="90.0,65.5 90.0,65.5 90.1,65.5 90.1,65.5 90.2,65.5 90.4,65.5 90.8,65.5 91.6,65.5 93.2,65.5 96.5,65.5 102.8,65.9 113.7,68.7 129.2,75.7 148.1,86.2 168.5,98.9 188.7,112.9 208.0,127.4 244.6,157.4 280.0,187.8 349.6,249.0 418.8,306.2"/>
<polygon points="90.0,60.5 88.8,63.9 85.3,64.0 88.1,66.1 87.1,69.5 90.0,67.5 93.0,69.5 91.9,66.1 94.8,64.0 91.2,63.9" fill="#ff6b6b"/>
<polygon points="90.0,60.5 88.8,63.9 85.3,64.0 88.1,66.1 87.1,69.5 90.0,67.5 93.0,69.5 91.9,66.1 94.8,64.0 91.2,63.9" fill="#ff6b6b"/>
<polygon points="90.1,60.5 88.9,63.9 85.3,64.0 88.1,66.1 87.1,69.5 90.1,67.5 93.0,69.5 92.0,66.1 94.8,64.0 91.2,63.9" fill="#ff6b6b"/>
<polygon points="90.1,60.5 88.9,63.9 85.3,64.0 88.2,66.1 87.2,69.5 90.1,67.5 93.0,69.5 92.0,66.1 94.9,64.0 91.3,63.9" fill="#ff6b6b"/>
<polygon points="90.2,60.5 89.0,63.9 85.4,64.0 88.3,66.1 87.3,69.5 90.2,67.5 93.1,69.5 92.1,66.1 95.0,64.0 91.4,63.9" fill="#ff6b6b"/>
<polygon points="90.4,60.5 89.2,63.9 85.7,64.0 88.5,66.1 87.5,69.5 90.4,67.5 93.3,69.5 92.3,66.1 95.2,64.0 91.6,63.9" fill="#ff6b6b"/>
<polygon points="90.8,60.5 89.6,63.9 86.1,64.0 88.9,66.1 87.9,69.5 90.8,67.5 93.8,69.5 92.7,66.1 95.6,64.0 92.0,63.9" fill="#ff6b6b"/>
<polygon points="91.6,60.5 90.4,63.9 86.9,64.0 89.7,66.1 88.7,69.5 91.6,67.5 94.6,69.5 93.5,66.1 96.4,64.0 92.8,63.9" fill="#ff6b6b"/>
<polygon points="93.2,60.5 92.1,63.9 88.5,64.0 91.3,66.1 90.3,69.5 93.2,67.5 96.2,69.5 95.1,66.1 98.0,64.0 94.4,63.9" fill="#ff6b6b"/>
<polygon points="96.5,60.5 95.3,63.9 91.7,64.0 94.6,66.1 93.5,69.5 96.5,67.5 99.4,69.5 98.4,66.1 101.2,64.0 97.7,63.9" fill="#ff6b6b"/>
<polygon points="102.8,60.9 101.7,64.2 98.1,64.3 100.9,66.5 99.9,69.9 102.8,67.9 105.8,69.9 104.7,66.5 107.6,64.3 104.0,64.2" fill="#ff6b6b"/>
<polygon points="113.7,63.7 112.5,67.0 108.9,67.1 111.8,69.3 110.7,72.7 113.7,70.7 116.6,72.7 115.6,69.3 118.4,67.1 114.8,67.0" fill="#ff6b6b"/>
<polygon points="129.2,70.7 128.0,74.0 124.4,74.1 127.3,76.3 126.2,79.7 129.2,77.7 132.1,79.7 131.1,76.3 133.9,74.1 130.3,74.0" fill="#ff6b6b"/>
<polygon points="148.1,81.2 147.0,84.5 143.4,84.6 146.2,86.8 145.2,90.2 148.1,88.2 151.1,90.2 150.0,86.8 152.9,84.6 149.3,84.5" fill="#ff6b6b"/>
<polygon points="168.5,93.9 167.4,97.3 163.8,97.4 166.6,99.5 165.6,103.0 168.5,100.9 171.5,103.0 170.4,99.5 173.3,97.4 169.7,97.3" fill="#ff6b6b"/>
<polygon points="188.7,107.9 187.5,111.2 183.9,111.3 186.8,113.5 185.7,116.9 188.7,114.9 191.6,116.9 190.6,113.5 193.4,111.3 189.8,111.2" fill="#ff6b6b"/>
<polygon points="208.0,122.4 206.8,125.8 203.2,125.9 206.1,128.0 205.0,131.5 208.0,129.4 210.9,131.5 209.9,128.0 212.7,125.9 209.2,125.8" fill="#ff6b6b"/>
<polygon points="244.6,152.4 243.5,155.7 239.9,155.8 242.7,158.0 241.7,161.4 244.6,159.4 247.6,161.4 246.5,158.0 249.4,155.8 245.8,155.7" fill="#ff6b6b"/>
<polygon points="280.0,182.8 278.8,186.2 275.3,186.2 278.1,188.4 277.1,191.8 280.0,189.8 283.0,191.8 281.9,188.4 284.8,186.2 281.2,186.2" fill="#ff6b6b"/>
<polygon points="349.6,244.0 348.4,247.4 344.8,247.5 347.6,249.7 346.6,253.1 349.6,251.0 352.5,253.1 351.5,249.7 354.3,247.5 350.7,247.4" fill="#ff6b6b"/>
<polygon points="418.8,301.2 417.6,304.6 414.0,304.7 416.9,306.8 415.9,310.2 418.8,308.2 421.7,310.2 420.7,306.8 423.5,304.7 420.0,304.6" fill="#ff6b6b"/>
<polyline fill="none" stroke="#ff922b" stroke-width="2" points="241.1,118.8 260.3,133.7 278.8,148.7 296.8,163.9 314.5,178.8 332.0,194.1 349.5,208.7 366.8,223.8 401.5,254.3 418.8,272.4"/>
<circle cx="241.1" cy="118.8" r="3" fill="#ff922b"/>
<circle cx="260.3" cy="133.7" r="3" fill="#ff922b"/>
<circle cx="278.8" cy="148.7" r="3" fill="#ff922b"/>
<circle cx="296.8" cy="163.9" r="3" fill="#ff922b"/>
<circle cx="314.5" cy="178.8" r="3" fill="#ff922b"/>
<circle cx="332.0" cy="194.1" r="3" fill="#ff922b"/>
<circle cx="349.5" cy="208.7" r="3" fill="#ff922b"/>
<circle cx="366.8" cy="223.8" r="3" fill="#ff922b"/>
<circle cx="401.5" cy="254.3" r="3" fill="#ff922b"/>
<circle cx="418.8" cy="272.4" r="3" fill="#ff922b"/>
<polyline fill="none" stroke="#888888" stroke-width="2" stroke-dasharray="8,5" points="271.0,116.0 296.9,131.7 330.4,152.3 355.6,168.3 380.6,183.1 413.7,203.9 438.7,217.6 463.6,234.8 496.6,259.8 521.6,270.6"/>
<circle cx="271.0" cy="116.0" r="3" fill="#888888"/>
<circle cx="296.9" cy="131.7" r="3" fill="#888888"/>
<circle cx="330.4" cy="152.3" r="3" fill="#888888"/>
<circle cx="355.6" cy="168.3" r="3" fill="#888888"/>
<circle cx="380.6" cy="183.1" r="3" fill="#888888"/>
<circle cx="413.7" cy="203.9" r="3" fill="#888888"/>
<circle cx="438.7" cy="217.6" r="3" fill="#888888"/>
<circle cx="463.6" cy="234.8" r="3" fill="#888888"/>
<circle cx="496.6" cy="259.8" r="3" fill="#888888"/>
<circle cx="521.6" cy="270.6" r="3" fill="#888888"/>
<line x1="886" y1="60" x2="902" y2="60" stroke="#ef4444" stroke-width="2" stroke-dasharray="8,5"/>
<circle cx="894.0" cy="60.0" r="3" fill="#ef4444"/>
<text class="label" x="908" y="64">Theoretical</text>
<line x1="886" y1="78" x2="902" y2="78" stroke="#1a6b3c" stroke-width="2"/>
<polygon points="894.0,74.0 898.0,78.0 894.0,82.0 890.0,78.0" fill="#1a6b3c"/>
<text class="label" x="908" y="82">Grafite</text>
<line x1="886" y1="96" x2="902" y2="96" stroke="#1a3a6b" stroke-width="2"/>
<polygon points="894.0,91.0 892.8,94.4 889.2,94.5 892.1,96.6 891.1,100.0 894.0,98.0 896.9,100.0 895.9,96.6 898.8,94.5 895.2,94.4" fill="#1a3a6b"/>
<text class="label" x="908" y="100">SNARF</text>
<line x1="886" y1="114" x2="902" y2="114" stroke="#111111" stroke-width="2"/>
<rect x="891.0" y="111.0" width="6" height="6" fill="#111111"/>
<text class="label" x="908" y="118">SuRF</text>
<line x1="886" y1="132" x2="902" y2="132" stroke="#111111" stroke-width="2"/>
<polygon points="894.0,128.0 898.0,135.0 890.0,135.0" fill="#111111"/>
<text class="label" x="908" y="136">SuRFHash(8)</text>
<line x1="886" y1="150" x2="902" y2="150" stroke="#111111" stroke-width="2"/>
<polygon points="894.0,146.0 898.0,150.0 894.0,154.0 890.0,150.0" fill="#111111"/>
<text class="label" x="908" y="154">SuRFReal(8)</text>
<line x1="886" y1="168" x2="902" y2="168" stroke="#2a7fff" stroke-width="2"/>
<rect x="891.0" y="165.0" width="6" height="6" fill="#2a7fff"/>
<text class="label" x="908" y="172">Adaptive (t=0)</text>
<line x1="886" y1="186" x2="902" y2="186" stroke="#9b59b6" stroke-width="2"/>
<polygon points="894.0,182.0 898.0,189.0 890.0,189.0" fill="#9b59b6"/>
<text class="label" x="908" y="190">Truncation</text>
<line x1="886" y1="204" x2="902" y2="204" stroke="#4dd88a" stroke-width="2"/>
<polygon points="894.0,200.0 898.0,204.0 894.0,208.0 890.0,204.0" fill="#4dd88a"/>
<text class="label" x="908" y="208">SODA</text>
<line x1="886" y1="222" x2="902" y2="222" stroke="#ff6b6b" stroke-width="2"/>
<polygon points="894.0,217.0 892.8,220.4 889.2,220.5 892.1,222.6 891.1,226.0 894.0,224.0 896.9,226.0 895.9,222.6 898.8,220.5 895.2,220.4" fill="#ff6b6b"/>
<text class="label" x="908" y="226">Hybrid</text>
<line x1="886" y1="240" x2="902" y2="240" stroke="#ff922b" stroke-width="2"/>
<circle cx="894.0" cy="240.0" r="3" fill="#ff922b"/>
<text class="label" x="908" y="244">CDF-ARE</text>
<line x1="886" y1="258" x2="902" y2="258" stroke="#888888" stroke-width="2" stroke-dasharray="8,5"/>
<circle cx="894.0" cy="258.0" r="3" fill="#888888"/>
<text class="label" x="908" y="262">BloomARE</text>
<text x="480" y="590" text-anchor="middle">Bits per Key (BPK)</text>
<text transform="translate(16,295) rotate(-90)" text-anchor="middle">False Positive Rate (FPR)</text>
</svg>
