<svg xmlns="http://www.w3.org/2000/svg" width="1020" height="600" viewBox="0 0 1020 600">
<style>text{font-family:Menlo,Monaco,monospace;font-size:12px;fill:#222} .axis{stroke:#333;stroke-width:1} .grid{stroke:#eee;stroke-width:0.5} .label{font-size:11px;fill:#444}</style>
<text x="510" y="28" text-anchor="middle" style="font-size:14px;font-weight:bold">Query Time vs Range Length (n=65536, ε=0.010)</text>
<line class="axis" x1="90.0" y1="550.0" x2="870.0" y2="550.0"/>
<line class="axis" x1="90.0" y1="40.0" x2="90.0" y2="550.0"/>
<line class="grid" x1="90.0" y1="550.0" x2="870.0" y2="550.0"/>
<text class="label" x="82.0" y="554.0" text-anchor="end">0</text>
<line class="grid" x1="90.0" y1="461.8" x2="870.0" y2="461.8"/>
<text class="label" x="82.0" y="465.8" text-anchor="end">10K</text>
<line class="grid" x1="90.0" y1="373.5" x2="870.0" y2="373.5"/>
<text class="label" x="82.0" y="377.5" text-anchor="end">20K</text>
<line class="grid" x1="90.0" y1="285.3" x2="870.0" y2="285.3"/>
<text class="label" x="82.0" y="289.3" text-anchor="end">30K</text>
<line class="grid" x1="90.0" y1="197.1" x2="870.0" y2="197.1"/>
<text class="label" x="82.0" y="201.1" text-anchor="end">40K</text>
<line class="grid" x1="90.0" y1="108.8" x2="870.0" y2="108.8"/>
<text class="label" x="82.0" y="112.8" text-anchor="end">50K</text>
<line class="grid" x1="90.0" y1="40.0" x2="90.0" y2="550.0"/>
<text class="label" x="90.0" y="566.0" text-anchor="middle">1</text>
<line class="grid" x1="285.0" y1="40.0" x2="285.0" y2="550.0"/>
<text class="label" x="285.0" y="566.0" text-anchor="middle">10</text>
<line class="grid" x1="480.0" y1="40.0" x2="480.0" y2="550.0"/>
<text class="label" x="480.0" y="566.0" text-anchor="middle">100</text>
<line class="grid" x1="675.0" y1="40.0" x2="675.0" y2="550.0"/>
<text class="label" x="675.0" y="566.0" text-anchor="middle">1K</text>
<polyline fill="none" stroke="#2a7fff" stroke-width="2" points="90.0,543.8 148.7,543.6 207.4,543.7 266.1,543.8 324.8,543.7 383.5,543.8 442.2,543.9 500.9,544.1 559.6,544.9 618.3,544.7 677.0,544.6"/>
<rect x="87.0" y="540.8" width="6" height="6" fill="#2a7fff"/>
<rect x="145.7" y="540.6" width="6" height="6" fill="#2a7fff"/>
<rect x="204.4" y="540.7" width="6" height="6" fill="#2a7fff"/>
<rect x="263.1" y="540.8" width="6" height="6" fill="#2a7fff"/>
<rect x="321.8" y="540.7" width="6" height="6" fill="#2a7fff"/>
<rect x="380.5" y="540.8" width="6" height="6" fill="#2a7fff"/>
<rect x="439.2" y="540.9" width="6" height="6" fill="#2a7fff"/>
<rect x="497.9" y="541.1" width="6" height="6" fill="#2a7fff"/>
<rect x="556.6" y="541.9" width="6" height="6" fill="#2a7fff"/>
<rect x="615.3" y="541.7" width="6" height="6" fill="#2a7fff"/>
<rect x="674.0" y="541.6" width="6" height="6" fill="#2a7fff"/>
<polyline fill="none" stroke="#22a06b" stroke-width="2" points="90.0,545.1 148.7,545.0 207.4,545.0 266.1,545.0 324.8,545.1 383.5,545.1 442.2,545.3 500.9,545.4 559.6,546.2 618.3,546.0 677.0,546.0"/>
<polygon points="90.0,541.1 94.0,545.1 90.0,549.1 86.0,545.1" fill="#22a06b"/>
<polygon points="148.7,541.0 152.7,545.0 148.7,549.0 144.7,545.0" fill="#22a06b"/>
<polygon points="207.4,541.0 211.4,545.0 207.4,549.0 203.4,545.0" fill="#22a06b"/>
<polygon points="266.1,541.0 270.1,545.0 266.1,549.0 262.1,545.0" fill="#22a06b"/>
<polygon points="324.8,541.1 328.8,545.1 324.8,549.1 320.8,545.1" fill="#22a06b"/>
<polygon points="383.5,541.1 387.5,545.1 383.5,549.1 379.5,545.1" fill="#22a06b"/>
<polygon points="442.2,541.3 446.2,545.3 442.2,549.3 438.2,545.3" fill="#22a06b"/>
<polygon points="500.9,541.4 504.9,545.4 500.9,549.4 496.9,545.4" fill="#22a06b"/>
<polygon points="559.6,542.2 563.6,546.2 559.6,550.2 555.6,546.2" fill="#22a06b"/>
<polygon points="618.3,542.0 622.3,546.0 618.3,550.0 614.3,546.0" fill="#22a06b"/>
<polygon points="677.0,542.0 681.0,546.0 677.0,550.0 673.0,546.0" fill="#22a06b"/>
<polyline fill="none" stroke="#e6a800" stroke-width="2" points="90.0,547.2 148.7,547.2 207.4,547.2 266.1,547.1 324.8,547.2 383.5,547.2 442.2,547.2 500.9,547.2 559.6,547.2 618.3,547.2 677.0,547.1"/>
<polygon points="90.0,543.2 94.0,550.2 86.0,550.2" fill="#e6a800"/>
<polygon points="148.7,543.2 152.7,550.2 144.7,550.2" fill="#e6a800"/>
<polygon points="207.4,543.2 211.4,550.2 203.4,550.2" fill="#e6a800"/>
<polygon points="266.1,543.1 270.1,550.1 262.1,550.1" fill="#e6a800"/>
<polygon points="324.8,543.2 328.8,550.2 320.8,550.2" fill="#e6a800"/>
<polygon points="383.5,543.2 387.5,550.2 379.5,550.2" fill="#e6a800"/>
<polygon points="442.2,543.2 446.2,550.2 438.2,550.2" fill="#e6a800"/>
<polygon points="500.9,543.2 504.9,550.2 496.9,550.2" fill="#e6a800"/>
<polygon points="559.6,543.2 563.6,550.2 555.6,550.2" fill="#e6a800"/>
<polygon points="618.3,543.2 622.3,550.2 614.3,550.2" fill="#e6a800"/>
<polygon points="677.0,543.1 681.0,550.1 673.0,550.1" fill="#e6a800"/>
<polyline fill="none" stroke="#9b59b6" stroke-width="2" points="90.0,543.4 148.7,543.5 207.4,543.5 266.1,543.6 324.8,543.6 383.5,543.9 442.2,543.8 500.9,543.6 559.6,543.5 618.3,543.7 677.0,543.9"/>
<polygon points="90.0,538.4 88.8,541.8 85.2,541.8 88.1,544.0 87.1,547.4 90.0,545.4 92.9,547.4 91.9,544.0 94.8,541.8 91.2,541.8" fill="#9b59b6"/>
<polygon points="148.7,538.5 147.5,541.9 143.9,542.0 146.8,544.1 145.8,547.5 148.7,545.5 151.6,547.5 150.6,544.1 153.5,542.0 149.9,541.9" fill="#9b59b6"/>
<polygon points="207.4,538.5 206.2,541.9 202.6,542.0 205.5,544.1 204.5,547.6 207.4,545.5 210.3,547.6 209.3,544.1 212.2,542.0 208.6,541.9" fill="#9b59b6"/>
<polygon points="266.1,538.6 264.9,542.0 261.3,542.1 264.2,544.2 263.2,547.7 266.1,545.6 269.0,547.7 268.0,544.2 270.9,542.1 267.3,542.0" fill="#9b59b6"/>
<polygon points="324.8,538.6 323.6,542.0 320.0,542.1 322.9,544.2 321.9,547.6 324.8,545.6 327.7,547.6 326.7,544.2 329.6,542.1 326.0,542.0" fill="#9b59b6"/>
<polygon points="383.5,538.9 382.3,542.3 378.7,542.3 381.6,544.5 380.6,547.9 383.5,545.9 386.4,547.9 385.4,544.5 388.3,542.3 384.7,542.3" fill="#9b59b6"/>
<polygon points="442.2,538.8 441.0,542.2 437.4,542.3 440.3,544.5 439.3,547.9 442.2,545.8 445.1,547.9 444.1,544.5 447.0,542.3 443.4,542.2" fill="#9b59b6"/>
<polygon points="500.9,538.6 499.7,541.9 496.2,542.0 499.0,544.2 498.0,547.6 500.9,545.6 503.8,547.6 502.8,544.2 505.7,542.0 502.1,541.9" fill="#9b59b6"/>
<polygon points="559.6,538.5 558.4,541.9 554.9,541.9 557.7,544.1 556.7,547.5 559.6,545.5 562.5,547.5 561.5,544.1 564.4,541.9 560.8,541.9" fill="#9b59b6"/>
<polygon points="618.3,538.7 617.1,542.1 613.6,542.2 616.4,544.4 615.4,547.8 618.3,545.7 621.2,547.8 620.2,544.4 623.1,542.2 619.5,542.1" fill="#9b59b6"/>
<polygon points="677.0,538.9 675.8,542.2 672.3,542.3 675.1,544.5 674.1,547.9 677.0,545.9 679.9,547.9 678.9,544.5 681.8,542.3 678.2,542.2" fill="#9b59b6"/>
<polyline fill="none" stroke="#e05d10" stroke-width="2" points="90.0,544.1 148.7,544.2 207.4,544.2 266.1,544.2 324.8,544.1 383.5,544.2 442.2,544.1 500.9,544.1 559.6,544.1 618.3,544.0 677.0,543.8"/>
<circle cx="90.0" cy="544.1" r="3" fill="#e05d10"/>
<circle cx="148.7" cy="544.2" r="3" fill="#e05d10"/>
<circle cx="207.4" cy="544.2" r="3" fill="#e05d10"/>
<circle cx="266.1" cy="544.2" r="3" fill="#e05d10"/>
<circle cx="324.8" cy="544.1" r="3" fill="#e05d10"/>
<circle cx="383.5" cy="544.2" r="3" fill="#e05d10"/>
<circle cx="442.2" cy="544.1" r="3" fill="#e05d10"/>
<circle cx="500.9" cy="544.1" r="3" fill="#e05d10"/>
<circle cx="559.6" cy="544.1" r="3" fill="#e05d10"/>
<circle cx="618.3" cy="544.0" r="3" fill="#e05d10"/>
<circle cx="677.0" cy="543.8" r="3" fill="#e05d10"/>
<polyline fill="none" stroke="#888888" stroke-width="2" stroke-dasharray="8,5" points="90.0,549.5 148.7,548.9 207.4,547.9 266.1,545.8 324.8,541.8 383.5,533.7 442.2,517.3 500.9,485.5 559.6,424.1 618.3,305.6 677.0,86.4"/>
<circle cx="90.0" cy="549.5" r="3" fill="#888888"/>
<circle cx="148.7" cy="548.9" r="3" fill="#888888"/>
<circle cx="207.4" cy="547.9" r="3" fill="#888888"/>
<circle cx="266.1" cy="545.8" r="3" fill="#888888"/>
<circle cx="324.8" cy="541.8" r="3" fill="#888888"/>
<circle cx="383.5" cy="533.7" r="3" fill="#888888"/>
<circle cx="442.2" cy="517.3" r="3" fill="#888888"/>
<circle cx="500.9" cy="485.5" r="3" fill="#888888"/>
<circle cx="559.6" cy="424.1" r="3" fill="#888888"/>
<circle cx="618.3" cy="305.6" r="3" fill="#888888"/>
<circle cx="677.0" cy="86.4" r="3" fill="#888888"/>
<polyline fill="none" stroke="#1a6b3c" stroke-width="2" points="90.0,549.2 148.7,549.2 207.4,549.2 266.1,549.1 324.8,549.1 383.5,549.1 442.2,549.1 500.9,549.1 559.6,549.0 618.3,549.0 677.0,549.0"/>
<polygon points="90.0,545.2 94.0,549.2 90.0,553.2 86.0,549.2" fill="#1a6b3c"/>
<polygon points="148.7,545.2 152.7,549.2 148.7,553.2 144.7,549.2" fill="#1a6b3c"/>
<polygon points="207.4,545.2 211.4,549.2 207.4,553.2 203.4,549.2" fill="#1a6b3c"/>
<polygon points="266.1,545.1 270.1,549.1 266.1,553.1 262.1,549.1" fill="#1a6b3c"/>
<polygon points="324.8,545.1 328.8,549.1 324.8,553.1 320.8,549.1" fill="#1a6b3c"/>
<polygon points="383.5,545.1 387.5,549.1 383.5,553.1 379.5,549.1" fill="#1a6b3c"/>
<polygon points="442.2,545.1 446.2,549.1 442.2,553.1 438.2,549.1" fill="#1a6b3c"/>
<polygon points="500.9,545.1 504.9,549.1 500.9,553.1 496.9,549.1" fill="#1a6b3c"/>
<polygon points="559.6,545.0 563.6,549.0 559.6,553.0 555.6,549.0" fill="#1a6b3c"/>
<polygon points="618.3,545.0 622.3,549.0 618.3,553.0 614.3,549.0" fill="#1a6b3c"/>
<polygon points="677.0,545.0 681.0,549.0 677.0,553.0 673.0,549.0" fill="#1a6b3c"/>
<polyline fill="none" stroke="#1a3a6b" stroke-width="2" points="90.0,538.3 148.7,538.2 207.4,538.2 266.1,538.2 324.8,538.2 383.5,538.1 442.2,538.0 500.9,538.2 559.6,538.0 618.3,538.2 677.0,538.3"/>
<polygon points="90.0,533.3 88.8,536.6 85.2,536.7 88.1,538.9 87.1,542.3 90.0,540.3 92.9,542.3 91.9,538.9 94.8,536.7 91.2,536.6" fill="#1a3a6b"/>
<polygon points="148.7,533.2 147.5,536.6 143.9,536.7 146.8,538.8 145.8,542.2 148.7,540.2 151.6,542.2 150.6,538.8 153.5,536.7 149.9,536.6" fill="#1a3a6b"/>
<polygon points="207.4,533.2 206.2,536.5 202.6,536.6 205.5,538.8 204.5,542.2 207.4,540.2 210.3,542.2 209.3,538.8 212.2,536.6 208.6,536.5" fill="#1a3a6b"/>
<polygon points="266.1,533.2 264.9,536.6 261.3,536.7 264.2,538.8 263.2,542.3 266.1,540.2 269.0,542.3 268.0,538.8 270.9,536.7 267.3,536.6" fill="#1a3a6b"/>
<polygon points="324.8,533.2 323.6,536.6 320.0,536.6 322.9,538.8 321.9,542.2 324.8,540.2 327.7,542.2 326.7,538.8 329.6,536.6 326.0,536.6" fill="#1a3a6b"/>
<polygon points="383.5,533.1 382.3,536.5 378.7,536.5 381.6,538.7 380.6,542.1 383.5,540.1 386.4,542.1 385.4,538.7 388.3,536.5 384.7,536.5" fill="#1a3a6b"/>
<polygon points="442.2,533.0 441.0,536.4 437.4,536.5 440.3,538.6 439.3,542.1 442.2,540.0 445.1,542.1 444.1,538.6 447.0,536.5 443.4,536.4" fill="#1a3a6b"/>
<polygon points="500.9,533.2 499.7,536.5 496.2,536.6 499.0,538.8 498.0,542.2 500.9,540.2 503.8,542.2 502.8,538.8 505.7,536.6 502.1,536.5" fill="#1a3a6b"/>
<polygon points="559.6,533.0 558.4,536.4 554.9,536.5 557.7,538.7 556.7,542.1 559.6,540.0 562.5,542.1 561.5,538.7 564.4,536.5 560.8,536.4" fill="#1a3a6b"/>
<polygon points="618.3,533.2 617.1,536.6 613.6,536.7 616.4,538.8 615.4,542.3 618.3,540.2 621.2,542.3 620.2,538.8 623.1,536.7 619.5,536.6" fill="#1a3a6b"/>
<polygon points="677.0,533.3 675.8,536.6 672.3,536.7 675.1,538.9 674.1,542.3 677.0,540.3 679.9,542.3 678.9,538.9 681.8,536.7 678.2,536.6" fill="#1a3a6b"/>
<polyline fill="none" stroke="#111111" stroke-width="2" points="90.0,545.5 148.7,545.6 207.4,545.5 266.1,545.5 324.8,545.4 383.5,545.5 442.2,545.5 500.9,545.5 559.6,545.5 618.3,545.6 677.0,545.5"/>
<rect x="87.0" y="542.5" width="6" height="6" fill="#111111"/>
<rect x="145.7" y="542.6" width="6" height="6" fill="#111111"/>
<rect x="204.4" y="542.5" width="6" height="6" fill="#111111"/>
<rect x="263.1" y="542.5" width="6" height="6" fill="#111111"/>
<rect x="321.8" y="542.4" width="6" height="6" fill="#111111"/>
<rect x="380.5" y="542.5" width="6" height="6" fill="#111111"/>
<rect x="439.2" y="542.5" width="6" height="6" fill="#111111"/>
<rect x="497.9" y="542.5" width="6" height="6" fill="#111111"/>
<rect x="556.6" y="542.5" width="6" height="6" fill="#111111"/>
<rect x="615.3" y="542.6" width="6" height="6" fill="#111111"/>
<rect x="674.0" y="542.5" width="6" height="6" fill="#111111"/>
<polyline fill="none" stroke="#111111" stroke-width="2" points="90.0,546.2 148.7,546.0 207.4,546.1 266.1,546.0 324.8,546.2 383.5,546.1 442.2,546.2 500.9,546.2 559.6,546.1 618.3,546.2 677.0,546.2"/>
<polygon points="90.0,542.2 94.0,549.2 86.0,549.2" fill="#111111"/>
<polygon points="148.7,542.0 152.7,549.0 144.7,549.0" fill="#111111"/>
<polygon points="207.4,542.1 211.4,549.1 203.4,549.1" fill="#111111"/>
<polygon points="266.1,542.0 270.1,549.0 262.1,549.0" fill="#111111"/>
<polygon points="324.8,542.2 328.8,549.2 320.8,549.2" fill="#111111"/>
<polygon points="383.5,542.1 387.5,549.1 379.5,549.1" fill="#111111"/>
<polygon points="442.2,542.2 446.2,549.2 438.2,549.2" fill="#111111"/>
<polygon points="500.9,542.2 504.9,549.2 496.9,549.2" fill="#111111"/>
<polygon points="559.6,542.1 563.6,549.1 555.6,549.1" fill="#111111"/>
<polygon points="618.3,542.2 622.3,549.2 614.3,549.2" fill="#111111"/>
<polygon points="677.0,542.2 681.0,549.2 673.0,549.2" fill="#111111"/>
<polyline fill="none" stroke="#111111" stroke-width="2" points="90.0,546.2 148.7,546.2 207.4,546.1 266.1,546.1 324.8,546.1 383.5,546.2 442.2,546.2 500.9,546.1 559.6,546.1 618.3,546.2 677.0,546.1"/>
<polygon points="90.0,542.2 94.0,546.2 90.0,550.2 86.0,546.2" fill="#111111"/>
<polygon points="148.7,542.2 152.7,546.2 148.7,550.2 144.7,546.2" fill="#111111"/>
<polygon points="207.4,542.1 211.4,546.1 207.4,550.1 203.4,546.1" fill="#111111"/>
<polygon points="266.1,542.1 270.1,546.1 266.1,550.1 262.1,546.1" fill="#111111"/>
<polygon points="324.8,542.1 328.8,546.1 324.8,550.1 320.8,546.1" fill="#111111"/>
<polygon points="383.5,542.2 387.5,546.2 383.5,550.2 379.5,546.2" fill="#111111"/>
<polygon points="442.2,542.2 446.2,546.2 442.2,550.2 438.2,546.2" fill="#111111"/>
<polygon points="500.9,542.1 504.9,546.1 500.9,550.1 496.9,546.1" fill="#111111"/>
<polygon points="559.6,542.1 563.6,546.1 559.6,550.1 555.6,546.1" fill="#111111"/>
<polygon points="618.3,542.2 622.3,546.2 618.3,550.2 614.3,546.2" fill="#111111"/>
<polygon points="677.0,542.1 681.0,546.1 677.0,550.1 673.0,546.1" fill="#111111"/>
<line x1="886" y1="60" x2="902" y2="60" stroke="#2a7fff" stroke-width="2"/>
<rect x="891.0" y="57.0" width="6" height="6" fill="#2a7fff"/>
<text class="label" x="908" y="64">Adaptive(t=0)</text>
<line x1="886" y1="78" x2="902" y2="78" stroke="#22a06b" stroke-width="2"/>
<polygon points="894.0,74.0 898.0,78.0 894.0,82.0 890.0,78.0" fill="#22a06b"/>
<text class="label" x="908" y="82">SODA</text>
<line x1="886" y1="96" x2="902" y2="96" stroke="#e6a800" stroke-width="2"/>
<polygon points="894.0,92.0 898.0,99.0 890.0,99.0" fill="#e6a800"/>
<text class="label" x="908" y="100">Truncation</text>
<line x1="886" y1="114" x2="902" y2="114" stroke="#9b59b6" stroke-width="2"/>
<polygon points="894.0,109.0 892.8,112.4 889.2,112.5 892.1,114.6 891.1,118.0 894.0,116.0 896.9,118.0 895.9,114.6 898.8,112.5 895.2,112.4" fill="#9b59b6"/>
<text class="label" x="908" y="118">Hybrid</text>
<line x1="886" y1="132" x2="902" y2="132" stroke="#e05d10" stroke-width="2"/>
<circle cx="894.0" cy="132.0" r="3" fill="#e05d10"/>
<text class="label" x="908" y="136">CDF-ARE</text>
<line x1="886" y1="150" x2="902" y2="150" stroke="#888888" stroke-width="2" stroke-dasharray="8,5"/>
<circle cx="894.0" cy="150.0" r="3" fill="#888888"/>
<text class="label" x="908" y="154">Bloom V3</text>
<line x1="886" y1="168" x2="902" y2="168" stroke="#1a6b3c" stroke-width="2"/>
<polygon points="894.0,164.0 898.0,168.0 894.0,172.0 890.0,168.0" fill="#1a6b3c"/>
<text class="label" x="908" y="172">Grafite</text>
<line x1="886" y1="186" x2="902" y2="186" stroke="#1a3a6b" stroke-width="2"/>
<polygon points="894.0,181.0 892.8,184.4 889.2,184.5 892.1,186.6 891.1,190.0 894.0,188.0 896.9,190.0 895.9,186.6 898.8,184.5 895.2,184.4" fill="#1a3a6b"/>
<text class="label" x="908" y="190">SNARF</text>
<line x1="886" y1="204" x2="902" y2="204" stroke="#111111" stroke-width="2"/>
<rect x="891.0" y="201.0" width="6" height="6" fill="#111111"/>
<text class="label" x="908" y="208">SuRF</text>
<line x1="886" y1="222" x2="902" y2="222" stroke="#111111" stroke-width="2"/>
<polygon points="894.0,218.0 898.0,225.0 890.0,225.0" fill="#111111"/>
<text class="label" x="908" y="226">SuRFHash(8)</text>
<line x1="886" y1="240" x2="902" y2="240" stroke="#111111" stroke-width="2"/>
<polygon points="894.0,236.0 898.0,240.0 894.0,244.0 890.0,240.0" fill="#111111"/>
<text class="label" x="908" y="244">SuRFReal(8)</text>
<text x="480" y="590" text-anchor="middle">Range Length (L)</text>
<text transform="translate(16,295) rotate(-90)" text-anchor="middle">Query Time (ns/op)</text>
</svg>
