<svg xmlns="http://www.w3.org/2000/svg" width="1020" height="600" viewBox="0 0 1020 600">
<style>text{font-family:Menlo,Monaco,monospace;font-size:12px;fill:#222} .axis{stroke:#333;stroke-width:1} .grid{stroke:#eee;stroke-width:0.5} .label{font-size:11px;fill:#444}</style>
<text x="510" y="28" text-anchor="middle" style="font-size:14px;font-weight:bold">FPR vs BPK — sosd_wiki (60-bit keys, n=220472, L=1024)</text>
<line class="axis" x1="90.0" y1="550.0" x2="870.0" y2="550.0"/>
<line class="axis" x1="90.0" y1="40.0" x2="90.0" y2="550.0"/>
<line class="grid" x1="90.0" y1="521.7" x2="870.0" y2="521.7"/>
<text class="label" x="82.0" y="525.7" text-anchor="end">10^-8</text>
<line class="grid" x1="90.0" y1="465.0" x2="870.0" y2="465.0"/>
<text class="label" x="82.0" y="469.0" text-anchor="end">10^-7</text>
<line class="grid" x1="90.0" y1="408.3" x2="870.0" y2="408.3"/>
<text class="label" x="82.0" y="412.3" text-anchor="end">10^-6</text>
<line class="grid" x1="90.0" y1="351.7" x2="870.0" y2="351.7"/>
<text class="label" x="82.0" y="355.7" text-anchor="end">10^-5</text>
<line class="grid" x1="90.0" y1="295.0" x2="870.0" y2="295.0"/>
<text class="label" x="82.0" y="299.0" text-anchor="end">10^-4</text>
<line class="grid" x1="90.0" y1="238.3" x2="870.0" y2="238.3"/>
<text class="label" x="82.0" y="242.3" text-anchor="end">10^-3</text>
<line class="grid" x1="90.0" y1="181.7" x2="870.0" y2="181.7"/>
<text class="label" x="82.0" y="185.7" text-anchor="end">10^-2</text>
<line class="grid" x1="90.0" y1="125.0" x2="870.0" y2="125.0"/>
<text class="label" x="82.0" y="129.0" text-anchor="end">10^-1</text>
<line class="grid" x1="90.0" y1="68.3" x2="870.0" y2="68.3"/>
<text class="label" x="82.0" y="72.3" text-anchor="end">1</text>
<line class="grid" x1="90.0" y1="40.0" x2="90.0" y2="550.0"/>
<text class="label" x="90.0" y="566.0" text-anchor="middle">0</text>
<line class="grid" x1="200.6" y1="40.0" x2="200.6" y2="550.0"/>
<text class="label" x="200.6" y="566.0" text-anchor="middle">5</text>
<line class="grid" x1="311.1" y1="40.0" x2="311.1" y2="550.0"/>
<text class="label" x="311.1" y="566.0" text-anchor="middle">10</text>
<line class="grid" x1="421.7" y1="40.0" x2="421.7" y2="550.0"/>
<text class="label" x="421.7" y="566.0" text-anchor="middle">15</text>
<line class="grid" x1="532.2" y1="40.0" x2="532.2" y2="550.0"/>
<text class="label" x="532.2" y="566.0" text-anchor="middle">20</text>
<line class="grid" x1="642.8" y1="40.0" x2="642.8" y2="550.0"/>
<text class="label" x="642.8" y="566.0" text-anchor="middle">25</text>
<line class="grid" x1="753.3" y1="40.0" x2="753.3" y2="550.0"/>
<text class="label" x="753.3" y="566.0" text-anchor="middle">30</text>
<line class="grid" x1="863.9" y1="40.0" x2="863.9" y2="550.0"/>
<text class="label" x="863.9" y="566.0" text-anchor="middle">35</text>
<polyline fill="none" stroke="#ef4444" stroke-width="2" stroke-dasharray="8,5" points="311.1,68.3 333.2,85.4 355.3,102.5 377.4,119.5 399.6,136.6 421.7,153.6 443.8,170.7 465.9,187.7 488.0,204.8 510.1,221.9 532.2,238.9 576.4,273.0 620.7,307.2 709.1,375.4 797.5,443.6"/>
<circle cx="311.1" cy="68.3" r="3" fill="#ef4444"/>
<circle cx="333.2" cy="85.4" r="3" fill="#ef4444"/>
<circle cx="355.3" cy="102.5" r="3" fill="#ef4444"/>
<circle cx="377.4" cy="119.5" r="3" fill="#ef4444"/>
<circle cx="399.6" cy="136.6" r="3" fill="#ef4444"/>
<circle cx="421.7" cy="153.6" r="3" fill="#ef4444"/>
<circle cx="443.8" cy="170.7" r="3" fill="#ef4444"/>
<circle cx="465.9" cy="187.7" r="3" fill="#ef4444"/>
<circle cx="488.0" cy="204.8" r="3" fill="#ef4444"/>
<circle cx="510.1" cy="221.9" r="3" fill="#ef4444"/>
<circle cx="532.2" cy="238.9" r="3" fill="#ef4444"/>
<circle cx="576.4" cy="273.0" r="3" fill="#ef4444"/>
<circle cx="620.7" cy="307.2" r="3" fill="#ef4444"/>
<circle cx="709.1" cy="375.4" r="3" fill="#ef4444"/>
<circle cx="797.5" cy="443.6" r="3" fill="#ef4444"/>
<polyline fill="none" stroke="#1a6b3c" stroke-width="2" points="184.4,68.3 233.6,68.3 280.3,69.3"/>
<polygon points="184.4,64.3 188.4,68.3 184.4,72.3 180.4,68.3" fill="#1a6b3c"/>
<polygon points="233.6,64.3 237.6,68.3 233.6,72.3 229.6,68.3" fill="#1a6b3c"/>
<polygon points="280.3,65.3 284.3,69.3 280.3,73.3 276.3,69.3" fill="#1a6b3c"/>
<polyline fill="none" stroke="#1a3a6b" stroke-width="2" points="164.6,109.0 208.6,129.4 253.0,141.0 297.5,145.5 341.4,146.7 385.5,146.9 429.9,146.9 474.3,146.9 518.3,146.9"/>
<polygon points="164.6,104.0 163.4,107.3 159.8,107.4 162.7,109.6 161.6,113.0 164.6,111.0 167.5,113.0 166.5,109.6 169.3,107.4 165.7,107.3" fill="#1a3a6b"/>
<polygon points="208.6,124.4 207.4,127.8 203.8,127.9 206.7,130.0 205.6,133.5 208.6,131.4 211.5,133.5 210.5,130.0 213.3,127.9 209.7,127.8" fill="#1a3a6b"/>
<polygon points="253.0,136.0 251.8,139.4 248.3,139.4 251.1,141.6 250.1,145.0 253.0,143.0 256.0,145.0 254.9,141.6 257.8,139.4 254.2,139.4" fill="#1a3a6b"/>
<polygon points="297.5,140.5 296.3,143.8 292.7,143.9 295.6,146.1 294.5,149.5 297.5,147.5 300.4,149.5 299.4,146.1 302.2,143.9 298.6,143.8" fill="#1a3a6b"/>
<polygon points="341.4,141.7 340.3,145.1 336.7,145.2 339.5,147.3 338.5,150.7 341.4,148.7 344.4,150.7 343.3,147.3 346.2,145.2 342.6,145.1" fill="#1a3a6b"/>
<polygon points="385.5,141.9 384.3,145.3 380.7,145.4 383.6,147.6 382.5,151.0 385.5,148.9 388.4,151.0 387.4,147.6 390.2,145.4 386.6,145.3" fill="#1a3a6b"/>
<polygon points="429.9,141.9 428.7,145.3 425.1,145.4 428.0,147.6 427.0,151.0 429.9,148.9 432.8,151.0 431.8,147.6 434.7,145.4 431.1,145.3" fill="#1a3a6b"/>
<polygon points="474.3,141.9 473.2,145.3 469.6,145.4 472.4,147.6 471.4,151.0 474.3,148.9 477.3,151.0 476.2,147.6 479.1,145.4 475.5,145.3" fill="#1a3a6b"/>
<polygon points="518.3,141.9 517.2,145.3 513.6,145.4 516.4,147.6 515.4,151.0 518.3,148.9 521.3,151.0 520.2,147.6 523.1,145.4 519.5,145.3" fill="#1a3a6b"/>
<polyline fill="none" stroke="#111111" stroke-width="2" points="323.8,131.3"/>
<rect x="320.8" y="128.3" width="6" height="6" fill="#111111"/>
<polyline fill="none" stroke="#111111" stroke-width="2" points="500.7,131.3"/>
<polygon points="500.7,127.3 504.7,134.3 496.7,134.3" fill="#111111"/>
<polyline fill="none" stroke="#111111" stroke-width="2" points="500.7,358.7"/>
<polygon points="500.7,354.7 504.7,358.7 500.7,362.7 496.7,358.7" fill="#111111"/>
<polyline fill="none" stroke="#2a7fff" stroke-width="2" points="90.0,68.3 90.0,68.3 90.0,68.3 90.0,68.3 90.1,68.3 90.2,68.3 90.3,68.3 90.6,68.3 91.2,68.3 92.5,68.3 94.9,68.3 99.8,68.3 109.3,68.3 124.6,68.3 146.3,68.3 170.7,68.3 196.4,68.3 246.1,68.3 292.6,69.1 337.4,521.7 337.4,521.7"/>
<rect x="87.0" y="65.3" width="6" height="6" fill="#2a7fff"/>
<rect x="87.0" y="65.3" width="6" height="6" fill="#2a7fff"/>
<rect x="87.0" y="65.3" width="6" height="6" fill="#2a7fff"/>
<rect x="87.0" y="65.3" width="6" height="6" fill="#2a7fff"/>
<rect x="87.1" y="65.3" width="6" height="6" fill="#2a7fff"/>
<rect x="87.2" y="65.3" width="6" height="6" fill="#2a7fff"/>
<rect x="87.3" y="65.3" width="6" height="6" fill="#2a7fff"/>
<rect x="87.6" y="65.3" width="6" height="6" fill="#2a7fff"/>
<rect x="88.2" y="65.3" width="6" height="6" fill="#2a7fff"/>
<rect x="89.5" y="65.3" width="6" height="6" fill="#2a7fff"/>
<rect x="91.9" y="65.3" width="6" height="6" fill="#2a7fff"/>
<rect x="96.8" y="65.3" width="6" height="6" fill="#2a7fff"/>
<rect x="106.3" y="65.3" width="6" height="6" fill="#2a7fff"/>
<rect x="121.6" y="65.3" width="6" height="6" fill="#2a7fff"/>
<rect x="143.3" y="65.3" width="6" height="6" fill="#2a7fff"/>
<rect x="167.7" y="65.3" width="6" height="6" fill="#2a7fff"/>
<rect x="193.4" y="65.3" width="6" height="6" fill="#2a7fff"/>
<rect x="243.1" y="65.3" width="6" height="6" fill="#2a7fff"/>
<rect x="289.6" y="66.1" width="6" height="6" fill="#2a7fff"/>
<rect x="334.4" y="518.7" width="6" height="6" fill="#2a7fff"/>
<rect x="334.4" y="518.7" width="6" height="6" fill="#2a7fff"/>
<polyline fill="none" stroke="#9b59b6" stroke-width="2" points="90.0,68.3 90.0,68.3 90.0,68.3 90.0,68.3 90.1,68.3 90.1,68.3 90.2,68.5 90.5,68.9 91.0,71.4 91.9,76.0 93.6,83.0 96.8,92.2 102.6,101.7 112.4,114.5 128.3,128.6 151.8,144.1 179.6,160.5 238.7,194.8 290.3,234.5 381.6,521.7 470.1,521.7"/>
<polygon points="90.0,64.3 94.0,71.3 86.0,71.3" fill="#9b59b6"/>
<polygon points="90.0,64.3 94.0,71.3 86.0,71.3" fill="#9b59b6"/>
<polygon points="90.0,64.3 94.0,71.3 86.0,71.3" fill="#9b59b6"/>
<polygon points="90.0,64.3 94.0,71.3 86.0,71.3" fill="#9b59b6"/>
<polygon points="90.1,64.3 94.1,71.3 86.1,71.3" fill="#9b59b6"/>
<polygon points="90.1,64.3 94.1,71.3 86.1,71.3" fill="#9b59b6"/>
<polygon points="90.2,64.5 94.2,71.5 86.2,71.5" fill="#9b59b6"/>
<polygon points="90.5,64.9 94.5,71.9 86.5,71.9" fill="#9b59b6"/>
<polygon points="91.0,67.4 95.0,74.4 87.0,74.4" fill="#9b59b6"/>
<polygon points="91.9,72.0 95.9,79.0 87.9,79.0" fill="#9b59b6"/>
<polygon points="93.6,79.0 97.6,86.0 89.6,86.0" fill="#9b59b6"/>
<polygon points="96.8,88.2 100.8,95.2 92.8,95.2" fill="#9b59b6"/>
<polygon points="102.6,97.7 106.6,104.7 98.6,104.7" fill="#9b59b6"/>
<polygon points="112.4,110.5 116.4,117.5 108.4,117.5" fill="#9b59b6"/>
<polygon points="128.3,124.6 132.3,131.6 124.3,131.6" fill="#9b59b6"/>
<polygon points="151.8,140.1 155.8,147.1 147.8,147.1" fill="#9b59b6"/>
<polygon points="179.6,156.5 183.6,163.5 175.6,163.5" fill="#9b59b6"/>
<polygon points="238.7,190.8 242.7,197.8 234.7,197.8" fill="#9b59b6"/>
<polygon points="290.3,230.5 294.3,237.5 286.3,237.5" fill="#9b59b6"/>
<polygon points="381.6,517.7 385.6,524.7 377.6,524.7" fill="#9b59b6"/>
<polygon points="470.1,517.7 474.1,524.7 466.1,524.7" fill="#9b59b6"/>
<polyline fill="none" stroke="#4dd88a" stroke-width="2" points="90.0,68.3 90.0,68.3 90.0,68.3 90.0,68.3 90.1,68.3 90.2,68.3 90.3,68.3 90.6,68.3 91.2,68.3 92.5,68.3 94.9,68.3 99.8,68.3 109.3,68.3 124.6,68.3 146.3,68.3 170.7,68.3 196.4,68.3 246.1,68.3 292.6,69.1 381.6,521.7 470.1,521.7"/>
<polygon points="90.0,64.3 94.0,68.3 90.0,72.3 86.0,68.3" fill="#4dd88a"/>
<polygon points="90.0,64.3 94.0,68.3 90.0,72.3 86.0,68.3" fill="#4dd88a"/>
<polygon points="90.0,64.3 94.0,68.3 90.0,72.3 86.0,68.3" fill="#4dd88a"/>
<polygon points="90.0,64.3 94.0,68.3 90.0,72.3 86.0,68.3" fill="#4dd88a"/>
<polygon points="90.1,64.3 94.1,68.3 90.1,72.3 86.1,68.3" fill="#4dd88a"/>
<polygon points="90.2,64.3 94.2,68.3 90.2,72.3 86.2,68.3" fill="#4dd88a"/>
<polygon points="90.3,64.3 94.3,68.3 90.3,72.3 86.3,68.3" fill="#4dd88a"/>
<polygon points="90.6,64.3 94.6,68.3 90.6,72.3 86.6,68.3" fill="#4dd88a"/>
<polygon points="91.2,64.3 95.2,68.3 91.2,72.3 87.2,68.3" fill="#4dd88a"/>
<polygon points="92.5,64.3 96.5,68.3 92.5,72.3 88.5,68.3" fill="#4dd88a"/>
<polygon points="94.9,64.3 98.9,68.3 94.9,72.3 90.9,68.3" fill="#4dd88a"/>
<polygon points="99.8,64.3 103.8,68.3 99.8,72.3 95.8,68.3" fill="#4dd88a"/>
<polygon points="109.3,64.3 113.3,68.3 109.3,72.3 105.3,68.3" fill="#4dd88a"/>
<polygon points="124.6,64.3 128.6,68.3 124.6,72.3 120.6,68.3" fill="#4dd88a"/>
<polygon points="146.3,64.3 150.3,68.3 146.3,72.3 142.3,68.3" fill="#4dd88a"/>
<polygon points="170.7,64.3 174.7,68.3 170.7,72.3 166.7,68.3" fill="#4dd88a"/>
<polygon points="196.4,64.3 200.4,68.3 196.4,72.3 192.4,68.3" fill="#4dd88a"/>
<polygon points="246.1,64.3 250.1,68.3 246.1,72.3 242.1,68.3" fill="#4dd88a"/>
<polygon points="292.6,65.1 296.6,69.1 292.6,73.1 288.6,69.1" fill="#4dd88a"/>
<polygon points="381.6,517.7 385.6,521.7 381.6,525.7 377.6,521.7" fill="#4dd88a"/>
<polygon points="470.1,517.7 474.1,521.7 470.1,525.7 466.1,521.7" fill="#4dd88a"/>
<polyline fill="none" stroke="#ff6b6b" stroke-width="2" points="90.0,68.3 90.0,68.3 90.0,68.3 90.1,68.3 90.2,68.3 90.3,68.3 90.6,68.5 91.1,68.9 92.0,71.4 93.4,76.0 95.7,83.0 99.5,92.2 105.8,101.7 116.1,114.5 132.3,128.6 155.4,144.1 182.8,160.5 240.5,194.8 290.8,234.5 379.9,521.7 466.4,521.7"/>
<polygon points="90.0,63.3 88.8,66.7 85.3,66.8 88.1,69.0 87.1,72.4 90.0,70.3 93.0,72.4 91.9,69.0 94.8,66.8 91.2,66.7" fill="#ff6b6b"/>
<polygon points="90.0,63.3 88.9,66.7 85.3,66.8 88.1,69.0 87.1,72.4 90.0,70.3 93.0,72.4 91.9,69.0 94.8,66.8 91.2,66.7" fill="#ff6b6b"/>
<polygon points="90.0,63.3 88.9,66.7 85.3,66.8 88.1,69.0 87.1,72.4 90.0,70.3 93.0,72.4 91.9,69.0 94.8,66.8 91.2,66.7" fill="#ff6b6b"/>
<polygon points="90.1,63.3 88.9,66.7 85.3,66.8 88.2,69.0 87.1,72.4 90.1,70.3 93.0,72.4 92.0,69.0 94.8,66.8 91.3,66.7" fill="#ff6b6b"/>
<polygon points="90.2,63.3 89.0,66.7 85.4,66.8 88.3,69.0 87.2,72.4 90.2,70.3 93.1,72.4 92.1,69.0 94.9,66.8 91.3,66.7" fill="#ff6b6b"/>
<polygon points="90.3,63.3 89.1,66.7 85.5,66.8 88.4,69.0 87.4,72.4 90.3,70.3 93.2,72.4 92.2,69.0 95.0,66.8 91.5,66.7" fill="#ff6b6b"/>
<polygon points="90.6,63.5 89.4,66.9 85.8,67.0 88.7,69.1 87.6,72.6 90.6,70.5 93.5,72.6 92.5,69.1 95.3,67.0 91.7,66.9" fill="#ff6b6b"/>
<polygon points="91.1,63.9 89.9,67.3 86.3,67.4 89.2,69.5 88.1,73.0 91.1,70.9 94.0,73.0 93.0,69.5 95.8,67.4 92.3,67.3" fill="#ff6b6b"/>
<polygon points="92.0,66.4 90.8,69.8 87.2,69.9 90.1,72.1 89.0,75.5 92.0,73.4 94.9,75.5 93.9,72.1 96.7,69.9 93.1,69.8" fill="#ff6b6b"/>
<polygon points="93.4,71.0 92.2,74.4 88.7,74.4 91.5,76.6 90.5,80.0 93.4,78.0 96.4,80.0 95.3,76.6 98.2,74.4 94.6,74.4" fill="#ff6b6b"/>
<polygon points="95.7,78.0 94.5,81.4 91.0,81.5 93.8,83.6 92.8,87.0 95.7,85.0 98.7,87.0 97.6,83.6 100.5,81.5 96.9,81.4" fill="#ff6b6b"/>
<polygon points="99.5,87.2 98.3,90.6 94.7,90.7 97.6,92.8 96.6,96.3 99.5,94.2 102.4,96.3 101.4,92.8 104.2,90.7 100.7,90.6" fill="#ff6b6b"/>
<polygon points="105.8,96.7 104.6,100.1 101.0,100.2 103.9,102.3 102.9,105.8 105.8,103.7 108.7,105.8 107.7,102.3 110.6,100.2 107.0,100.1" fill="#ff6b6b"/>
<polygon points="116.1,109.5 114.9,112.9 111.3,112.9 114.2,115.1 113.1,118.5 116.1,116.5 119.0,118.5 118.0,115.1 120.8,112.9 117.2,112.9" fill="#ff6b6b"/>
<polygon points="132.3,123.6 131.2,127.0 127.6,127.1 130.4,129.2 129.4,132.6 132.3,130.6 135.3,132.6 134.2,129.2 137.1,127.1 133.5,127.0" fill="#ff6b6b"/>
<polygon points="155.4,139.1 154.2,142.5 150.7,142.5 153.5,144.7 152.5,148.1 155.4,146.1 158.3,148.1 157.3,144.7 160.2,142.5 156.6,142.5" fill="#ff6b6b"/>
<polygon points="182.8,155.5 181.7,158.9 178.1,159.0 180.9,161.1 179.9,164.5 182.8,162.5 185.8,164.5 184.7,161.1 187.6,159.0 184.0,158.9" fill="#ff6b6b"/>
<polygon points="240.5,189.8 239.3,193.2 235.7,193.3 238.6,195.4 237.5,198.9 240.5,196.8 243.4,198.9 242.4,195.4 245.2,193.3 241.6,193.2" fill="#ff6b6b"/>
<polygon points="290.8,229.5 289.6,232.8 286.0,232.9 288.9,235.1 287.8,238.5 290.8,236.5 293.7,238.5 292.7,235.1 295.5,232.9 291.9,232.8" fill="#ff6b6b"/>
<polygon points="379.9,516.7 378.8,520.0 375.2,520.1 378.0,522.3 377.0,525.7 379.9,523.7 382.9,525.7 381.8,522.3 384.7,520.1 381.1,520.0" fill="#ff6b6b"/>
<polygon points="466.4,516.7 465.2,520.0 461.6,520.1 464.5,522.3 463.4,525.7 466.4,523.7 469.3,525.7 468.3,522.3 471.1,520.1 467.5,520.0" fill="#ff6b6b"/>
<polyline fill="none" stroke="#ff922b" stroke-width="2" points="536.4,521.7 558.5,521.7 580.6,521.7 602.7,521.7 624.9,521.7 647.0,521.7 669.1,521.7 691.2,521.7 713.3,521.7 735.4,521.7"/>
<circle cx="536.4" cy="521.7" r="3" fill="#ff922b"/>
<circle cx="558.5" cy="521.7" r="3" fill="#ff922b"/>
<circle cx="580.6" cy="521.7" r="3" fill="#ff922b"/>
<circle cx="602.7" cy="521.7" r="3" fill="#ff922b"/>
<circle cx="624.9" cy="521.7" r="3" fill="#ff922b"/>
<circle cx="647.0" cy="521.7" r="3" fill="#ff922b"/>
<circle cx="669.1" cy="521.7" r="3" fill="#ff922b"/>
<circle cx="691.2" cy="521.7" r="3" fill="#ff922b"/>
<circle cx="713.3" cy="521.7" r="3" fill="#ff922b"/>
<circle cx="735.4" cy="521.7" r="3" fill="#ff922b"/>
<polyline fill="none" stroke="#888888" stroke-width="2" stroke-dasharray="8,5" points="512.6,124.3 545.7,141.6 588.6,164.6 620.7,181.6 652.7,197.6 694.9,210.5 726.9,243.7 758.8,239.7 801.0,297.5 832.9,289.7"/>
<circle cx="512.6" cy="124.3" r="3" fill="#888888"/>
<circle cx="545.7" cy="141.6" r="3" fill="#888888"/>
<circle cx="588.6" cy="164.6" r="3" fill="#888888"/>
<circle cx="620.7" cy="181.6" r="3" fill="#888888"/>
<circle cx="652.7" cy="197.6" r="3" fill="#888888"/>
<circle cx="694.9" cy="210.5" r="3" fill="#888888"/>
<circle cx="726.9" cy="243.7" r="3" fill="#888888"/>
<circle cx="758.8" cy="239.7" r="3" fill="#888888"/>
<circle cx="801.0" cy="297.5" r="3" fill="#888888"/>
<circle cx="832.9" cy="289.7" r="3" fill="#888888"/>
<line x1="886" y1="60" x2="902" y2="60" stroke="#ef4444" stroke-width="2" stroke-dasharray="8,5"/>
<circle cx="894.0" cy="60.0" r="3" fill="#ef4444"/>
<text class="label" x="908" y="64">Theoretical</text>
<line x1="886" y1="78" x2="902" y2="78" stroke="#1a6b3c" stroke-width="2"/>
<polygon points="894.0,74.0 898.0,78.0 894.0,82.0 890.0,78.0" fill="#1a6b3c"/>
<text class="label" x="908" y="82">Grafite</text>
<line x1="886" y1="96" x2="902" y2="96" stroke="#1a3a6b" stroke-width="2"/>
<polygon points="894.0,91.0 892.8,94.4 889.2,94.5 892.1,96.6 891.1,100.0 894.0,98.0 896.9,100.0 895.9,96.6 898.8,94.5 895.2,94.4" fill="#1a3a6b"/>
<text class="label" x="908" y="100">SNARF</text>
<line x1="886" y1="114" x2="902" y2="114" stroke="#111111" stroke-width="2"/>
<rect x="891.0" y="111.0" width="6" height="6" fill="#111111"/>
<text class="label" x="908" y="118">SuRF</text>
<line x1="886" y1="132" x2="902" y2="132" stroke="#111111" stroke-width="2"/>
<polygon points="894.0,128.0 898.0,135.0 890.0,135.0" fill="#111111"/>
<text class="label" x="908" y="136">SuRFHash(8)</text>
<line x1="886" y1="150" x2="902" y2="150" stroke="#111111" stroke-width="2"/>
<polygon points="894.0,146.0 898.0,150.0 894.0,154.0 890.0,150.0" fill="#111111"/>
<text class="label" x="908" y="154">SuRFReal(8)</text>
<line x1="886" y1="168" x2="902" y2="168" stroke="#2a7fff" stroke-width="2"/>
<rect x="891.0" y="165.0" width="6" height="6" fill="#2a7fff"/>
<text class="label" x="908" y="172">Adaptive (t=0)</text>
<line x1="886" y1="186" x2="902" y2="186" stroke="#9b59b6" stroke-width="2"/>
<polygon points="894.0,182.0 898.0,189.0 890.0,189.0" fill="#9b59b6"/>
<text class="label" x="908" y="190">Truncation</text>
<line x1="886" y1="204" x2="902" y2="204" stroke="#4dd88a" stroke-width="2"/>
<polygon points="894.0,200.0 898.0,204.0 894.0,208.0 890.0,204.0" fill="#4dd88a"/>
<text class="label" x="908" y="208">SODA</text>
<line x1="886" y1="222" x2="902" y2="222" stroke="#ff6b6b" stroke-width="2"/>
<polygon points="894.0,217.0 892.8,220.4 889.2,220.5 892.1,222.6 891.1,226.0 894.0,224.0 896.9,226.0 895.9,222.6 898.8,220.5 895.2,220.4" fill="#ff6b6b"/>
<text class="label" x="908" y="226">Hybrid</text>
<line x1="886" y1="240" x2="902" y2="240" stroke="#ff922b" stroke-width="2"/>
<circle cx="894.0" cy="240.0" r="3" fill="#ff922b"/>
<text class="label" x="908" y="244">CDF-ARE</text>
<line x1="886" y1="258" x2="902" y2="258" stroke="#888888" stroke-width="2" stroke-dasharray="8,5"/>
<circle cx="894.0" cy="258.0" r="3" fill="#888888"/>
<text class="label" x="908" y="262">BloomARE</text>
<text x="480" y="590" text-anchor="middle">Bits per Key (BPK)</text>
<text transform="translate(16,295) rotate(-90)" text-anchor="middle">False Positive Rate (FPR)</text>
</svg>
