<svg xmlns="http://www.w3.org/2000/svg" width="1020" height="600" viewBox="0 0 1020 600">
<style>text{font-family:Menlo,Monaco,monospace;font-size:12px;fill:#222} .axis{stroke:#333;stroke-width:1} .grid{stroke:#eee;stroke-width:0.5} .label{font-size:11px;fill:#444}</style>
<text x="510" y="28" text-anchor="middle" style="font-size:14px;font-weight:bold">FPR vs BPK — sosd_wiki (60-bit keys, n=220472, L=128)</text>
<line class="axis" x1="90.0" y1="550.0" x2="870.0" y2="550.0"/>
<line class="axis" x1="90.0" y1="40.0" x2="90.0" y2="550.0"/>
<line class="grid" x1="90.0" y1="521.7" x2="870.0" y2="521.7"/>
<text class="label" x="82.0" y="525.7" text-anchor="end">10^-8</text>
<line class="grid" x1="90.0" y1="465.0" x2="870.0" y2="465.0"/>
<text class="label" x="82.0" y="469.0" text-anchor="end">10^-7</text>
<line class="grid" x1="90.0" y1="408.3" x2="870.0" y2="408.3"/>
<text class="label" x="82.0" y="412.3" text-anchor="end">10^-6</text>
<line class="grid" x1="90.0" y1="351.7" x2="870.0" y2="351.7"/>
<text class="label" x="82.0" y="355.7" text-anchor="end">10^-5</text>
<line class="grid" x1="90.0" y1="295.0" x2="870.0" y2="295.0"/>
<text class="label" x="82.0" y="299.0" text-anchor="end">10^-4</text>
<line class="grid" x1="90.0" y1="238.3" x2="870.0" y2="238.3"/>
<text class="label" x="82.0" y="242.3" text-anchor="end">10^-3</text>
<line class="grid" x1="90.0" y1="181.7" x2="870.0" y2="181.7"/>
<text class="label" x="82.0" y="185.7" text-anchor="end">10^-2</text>
<line class="grid" x1="90.0" y1="125.0" x2="870.0" y2="125.0"/>
<text class="label" x="82.0" y="129.0" text-anchor="end">10^-1</text>
<line class="grid" x1="90.0" y1="68.3" x2="870.0" y2="68.3"/>
<text class="label" x="82.0" y="72.3" text-anchor="end">1</text>
<line class="grid" x1="90.0" y1="40.0" x2="90.0" y2="550.0"/>
<text class="label" x="90.0" y="566.0" text-anchor="middle">0</text>
<line class="grid" x1="206.1" y1="40.0" x2="206.1" y2="550.0"/>
<text class="label" x="206.1" y="566.0" text-anchor="middle">5</text>
<line class="grid" x1="322.1" y1="40.0" x2="322.1" y2="550.0"/>
<text class="label" x="322.1" y="566.0" text-anchor="middle">10</text>
<line class="grid" x1="438.2" y1="40.0" x2="438.2" y2="550.0"/>
<text class="label" x="438.2" y="566.0" text-anchor="middle">15</text>
<line class="grid" x1="554.3" y1="40.0" x2="554.3" y2="550.0"/>
<text class="label" x="554.3" y="566.0" text-anchor="middle">20</text>
<line class="grid" x1="670.4" y1="40.0" x2="670.4" y2="550.0"/>
<text class="label" x="670.4" y="566.0" text-anchor="middle">25</text>
<line class="grid" x1="786.4" y1="40.0" x2="786.4" y2="550.0"/>
<text class="label" x="786.4" y="566.0" text-anchor="middle">30</text>
<polyline fill="none" stroke="#ef4444" stroke-width="2" stroke-dasharray="8,5" points="252.5,68.3 275.7,85.4 298.9,102.5 322.1,119.5 345.4,136.6 368.6,153.6 391.8,170.7 415.0,187.7 438.2,204.8 461.4,221.9 484.6,238.9 507.9,256.0 531.1,273.0 554.3,290.1 600.7,324.2 647.1,358.3 740.0,426.6 832.9,494.8"/>
<circle cx="252.5" cy="68.3" r="3" fill="#ef4444"/>
<circle cx="275.7" cy="85.4" r="3" fill="#ef4444"/>
<circle cx="298.9" cy="102.5" r="3" fill="#ef4444"/>
<circle cx="322.1" cy="119.5" r="3" fill="#ef4444"/>
<circle cx="345.4" cy="136.6" r="3" fill="#ef4444"/>
<circle cx="368.6" cy="153.6" r="3" fill="#ef4444"/>
<circle cx="391.8" cy="170.7" r="3" fill="#ef4444"/>
<circle cx="415.0" cy="187.7" r="3" fill="#ef4444"/>
<circle cx="438.2" cy="204.8" r="3" fill="#ef4444"/>
<circle cx="461.4" cy="221.9" r="3" fill="#ef4444"/>
<circle cx="484.6" cy="238.9" r="3" fill="#ef4444"/>
<circle cx="507.9" cy="256.0" r="3" fill="#ef4444"/>
<circle cx="531.1" cy="273.0" r="3" fill="#ef4444"/>
<circle cx="554.3" cy="290.1" r="3" fill="#ef4444"/>
<circle cx="600.7" cy="324.2" r="3" fill="#ef4444"/>
<circle cx="647.1" cy="358.3" r="3" fill="#ef4444"/>
<circle cx="740.0" cy="426.6" r="3" fill="#ef4444"/>
<circle cx="832.9" cy="494.8" r="3" fill="#ef4444"/>
<polyline fill="none" stroke="#1a6b3c" stroke-width="2" points="189.2,68.3 240.9,68.4 289.8,78.7"/>
<polygon points="189.2,64.3 193.2,68.3 189.2,72.3 185.2,68.3" fill="#1a6b3c"/>
<polygon points="240.9,64.4 244.9,68.4 240.9,72.4 236.9,68.4" fill="#1a6b3c"/>
<polygon points="289.8,74.7 293.8,78.7 289.8,82.7 285.8,78.7" fill="#1a6b3c"/>
<polyline fill="none" stroke="#1a3a6b" stroke-width="2" points="168.3,102.1 214.5,126.1 261.2,146.6 307.8,158.2 354.0,161.4 400.2,162.0 446.9,162.0 493.5,162.0 539.7,162.0"/>
<polygon points="168.3,97.1 167.1,100.5 163.5,100.6 166.4,102.7 165.3,106.2 168.3,104.1 171.2,106.2 170.2,102.7 173.0,100.6 169.5,100.5" fill="#1a3a6b"/>
<polygon points="214.5,121.1 213.3,124.5 209.7,124.6 212.6,126.7 211.5,130.2 214.5,128.1 217.4,130.2 216.4,126.7 219.2,124.6 215.7,124.5" fill="#1a3a6b"/>
<polygon points="261.2,141.6 260.0,145.0 256.4,145.1 259.3,147.2 258.2,150.6 261.2,148.6 264.1,150.6 263.1,147.2 265.9,145.1 262.3,145.0" fill="#1a3a6b"/>
<polygon points="307.8,153.2 306.6,156.6 303.1,156.7 305.9,158.8 304.9,162.2 307.8,160.2 310.7,162.2 309.7,158.8 312.6,156.7 309.0,156.6" fill="#1a3a6b"/>
<polygon points="354.0,156.4 352.8,159.8 349.2,159.8 352.1,162.0 351.1,165.4 354.0,163.4 356.9,165.4 355.9,162.0 358.7,159.8 355.2,159.8" fill="#1a3a6b"/>
<polygon points="400.2,157.0 399.0,160.3 395.4,160.4 398.3,162.6 397.3,166.0 400.2,164.0 403.1,166.0 402.1,162.6 405.0,160.4 401.4,160.3" fill="#1a3a6b"/>
<polygon points="446.9,157.0 445.7,160.4 442.1,160.4 445.0,162.6 443.9,166.0 446.9,164.0 449.8,166.0 448.8,162.6 451.6,160.4 448.0,160.4" fill="#1a3a6b"/>
<polygon points="493.5,157.0 492.3,160.4 488.8,160.4 491.6,162.6 490.6,166.0 493.5,164.0 496.5,166.0 495.4,162.6 498.3,160.4 494.7,160.4" fill="#1a3a6b"/>
<polygon points="539.7,157.0 538.5,160.4 535.0,160.4 537.8,162.6 536.8,166.0 539.7,164.0 542.6,166.0 541.6,162.6 544.5,160.4 540.9,160.4" fill="#1a3a6b"/>
<polyline fill="none" stroke="#111111" stroke-width="2" points="335.4,109.2"/>
<rect x="332.4" y="106.2" width="6" height="6" fill="#111111"/>
<polyline fill="none" stroke="#111111" stroke-width="2" points="521.2,109.2"/>
<polygon points="521.2,105.2 525.2,112.2 517.2,112.2" fill="#111111"/>
<polyline fill="none" stroke="#111111" stroke-width="2" points="521.2,392.8"/>
<polygon points="521.2,388.8 525.2,392.8 521.2,396.8 517.2,392.8" fill="#111111"/>
<polyline fill="none" stroke="#2a7fff" stroke-width="2" points="90.0,68.3 90.0,68.3 90.0,68.3 90.0,68.3 90.1,68.3 90.2,68.3 90.3,68.3 90.6,68.3 91.3,68.3 92.6,68.3 95.2,68.3 100.3,68.3 110.2,68.3 126.3,68.3 149.1,68.3 174.7,68.3 201.7,68.3 253.9,68.5 302.7,81.6 349.7,521.7 349.7,521.7"/>
<rect x="87.0" y="65.3" width="6" height="6" fill="#2a7fff"/>
<rect x="87.0" y="65.3" width="6" height="6" fill="#2a7fff"/>
<rect x="87.0" y="65.3" width="6" height="6" fill="#2a7fff"/>
<rect x="87.0" y="65.3" width="6" height="6" fill="#2a7fff"/>
<rect x="87.1" y="65.3" width="6" height="6" fill="#2a7fff"/>
<rect x="87.2" y="65.3" width="6" height="6" fill="#2a7fff"/>
<rect x="87.3" y="65.3" width="6" height="6" fill="#2a7fff"/>
<rect x="87.6" y="65.3" width="6" height="6" fill="#2a7fff"/>
<rect x="88.3" y="65.3" width="6" height="6" fill="#2a7fff"/>
<rect x="89.6" y="65.3" width="6" height="6" fill="#2a7fff"/>
<rect x="92.2" y="65.3" width="6" height="6" fill="#2a7fff"/>
<rect x="97.3" y="65.3" width="6" height="6" fill="#2a7fff"/>
<rect x="107.2" y="65.3" width="6" height="6" fill="#2a7fff"/>
<rect x="123.3" y="65.3" width="6" height="6" fill="#2a7fff"/>
<rect x="146.1" y="65.3" width="6" height="6" fill="#2a7fff"/>
<rect x="171.7" y="65.3" width="6" height="6" fill="#2a7fff"/>
<rect x="198.7" y="65.3" width="6" height="6" fill="#2a7fff"/>
<rect x="250.9" y="65.5" width="6" height="6" fill="#2a7fff"/>
<rect x="299.7" y="78.6" width="6" height="6" fill="#2a7fff"/>
<rect x="346.7" y="518.7" width="6" height="6" fill="#2a7fff"/>
<rect x="346.7" y="518.7" width="6" height="6" fill="#2a7fff"/>
<polyline fill="none" stroke="#9b59b6" stroke-width="2" points="90.0,68.3 90.0,68.3 90.0,68.3 90.0,68.3 90.1,68.3 90.1,68.3 90.3,68.4 90.5,68.6 91.0,69.9 92.0,72.1 93.8,75.4 97.1,79.4 103.2,84.6 113.5,91.6 130.2,100.9 154.8,110.4 184.0,123.8 246.1,156.0 300.3,194.9 396.2,521.7 489.0,521.7"/>
<polygon points="90.0,64.3 94.0,71.3 86.0,71.3" fill="#9b59b6"/>
<polygon points="90.0,64.3 94.0,71.3 86.0,71.3" fill="#9b59b6"/>
<polygon points="90.0,64.3 94.0,71.3 86.0,71.3" fill="#9b59b6"/>
<polygon points="90.0,64.3 94.0,71.3 86.0,71.3" fill="#9b59b6"/>
<polygon points="90.1,64.3 94.1,71.3 86.1,71.3" fill="#9b59b6"/>
<polygon points="90.1,64.3 94.1,71.3 86.1,71.3" fill="#9b59b6"/>
<polygon points="90.3,64.4 94.3,71.4 86.3,71.4" fill="#9b59b6"/>
<polygon points="90.5,64.6 94.5,71.6 86.5,71.6" fill="#9b59b6"/>
<polygon points="91.0,65.9 95.0,72.9 87.0,72.9" fill="#9b59b6"/>
<polygon points="92.0,68.1 96.0,75.1 88.0,75.1" fill="#9b59b6"/>
<polygon points="93.8,71.4 97.8,78.4 89.8,78.4" fill="#9b59b6"/>
<polygon points="97.1,75.4 101.1,82.4 93.1,82.4" fill="#9b59b6"/>
<polygon points="103.2,80.6 107.2,87.6 99.2,87.6" fill="#9b59b6"/>
<polygon points="113.5,87.6 117.5,94.6 109.5,94.6" fill="#9b59b6"/>
<polygon points="130.2,96.9 134.2,103.9 126.2,103.9" fill="#9b59b6"/>
<polygon points="154.8,106.4 158.8,113.4 150.8,113.4" fill="#9b59b6"/>
<polygon points="184.0,119.8 188.0,126.8 180.0,126.8" fill="#9b59b6"/>
<polygon points="246.1,152.0 250.1,159.0 242.1,159.0" fill="#9b59b6"/>
<polygon points="300.3,190.9 304.3,197.9 296.3,197.9" fill="#9b59b6"/>
<polygon points="396.2,517.7 400.2,524.7 392.2,524.7" fill="#9b59b6"/>
<polygon points="489.0,517.7 493.0,524.7 485.0,524.7" fill="#9b59b6"/>
<polyline fill="none" stroke="#4dd88a" stroke-width="2" points="90.0,68.3 90.0,68.3 90.0,68.3 90.0,68.3 90.1,68.3 90.2,68.3 90.3,68.3 90.6,68.3 91.3,68.3 92.6,68.3 95.2,68.3 100.3,68.3 110.2,68.3 126.3,68.3 149.1,68.3 174.7,68.3 201.7,68.3 253.9,68.5 302.7,81.6 396.2,521.7 489.0,521.7"/>
<polygon points="90.0,64.3 94.0,68.3 90.0,72.3 86.0,68.3" fill="#4dd88a"/>
<polygon points="90.0,64.3 94.0,68.3 90.0,72.3 86.0,68.3" fill="#4dd88a"/>
<polygon points="90.0,64.3 94.0,68.3 90.0,72.3 86.0,68.3" fill="#4dd88a"/>
<polygon points="90.0,64.3 94.0,68.3 90.0,72.3 86.0,68.3" fill="#4dd88a"/>
<polygon points="90.1,64.3 94.1,68.3 90.1,72.3 86.1,68.3" fill="#4dd88a"/>
<polygon points="90.2,64.3 94.2,68.3 90.2,72.3 86.2,68.3" fill="#4dd88a"/>
<polygon points="90.3,64.3 94.3,68.3 90.3,72.3 86.3,68.3" fill="#4dd88a"/>
<polygon points="90.6,64.3 94.6,68.3 90.6,72.3 86.6,68.3" fill="#4dd88a"/>
<polygon points="91.3,64.3 95.3,68.3 91.3,72.3 87.3,68.3" fill="#4dd88a"/>
<polygon points="92.6,64.3 96.6,68.3 92.6,72.3 88.6,68.3" fill="#4dd88a"/>
<polygon points="95.2,64.3 99.2,68.3 95.2,72.3 91.2,68.3" fill="#4dd88a"/>
<polygon points="100.3,64.3 104.3,68.3 100.3,72.3 96.3,68.3" fill="#4dd88a"/>
<polygon points="110.2,64.3 114.2,68.3 110.2,72.3 106.2,68.3" fill="#4dd88a"/>
<polygon points="126.3,64.3 130.3,68.3 126.3,72.3 122.3,68.3" fill="#4dd88a"/>
<polygon points="149.1,64.3 153.1,68.3 149.1,72.3 145.1,68.3" fill="#4dd88a"/>
<polygon points="174.7,64.3 178.7,68.3 174.7,72.3 170.7,68.3" fill="#4dd88a"/>
<polygon points="201.7,64.3 205.7,68.3 201.7,72.3 197.7,68.3" fill="#4dd88a"/>
<polygon points="253.9,64.5 257.9,68.5 253.9,72.5 249.9,68.5" fill="#4dd88a"/>
<polygon points="302.7,77.6 306.7,81.6 302.7,85.6 298.7,81.6" fill="#4dd88a"/>
<polygon points="396.2,517.7 400.2,521.7 396.2,525.7 392.2,521.7" fill="#4dd88a"/>
<polygon points="489.0,517.7 493.0,521.7 489.0,525.7 485.0,521.7" fill="#4dd88a"/>
<polyline fill="none" stroke="#ff6b6b" stroke-width="2" points="90.0,68.3 90.0,68.3 90.1,68.3 90.1,68.3 90.2,68.3 90.3,68.3 90.6,68.4 91.1,68.6 92.1,69.9 93.6,72.1 96.0,75.4 100.0,79.4 106.6,84.6 117.4,91.6 134.4,100.9 158.7,110.5 187.5,123.9 248.0,156.1 300.8,195.0 394.4,521.7 485.2,521.7"/>
<polygon points="90.0,63.3 88.8,66.7 85.3,66.8 88.1,69.0 87.1,72.4 90.0,70.3 93.0,72.4 91.9,69.0 94.8,66.8 91.2,66.7" fill="#ff6b6b"/>
<polygon points="90.0,63.3 88.9,66.7 85.3,66.8 88.1,69.0 87.1,72.4 90.0,70.3 93.0,72.4 91.9,69.0 94.8,66.8 91.2,66.7" fill="#ff6b6b"/>
<polygon points="90.1,63.3 88.9,66.7 85.3,66.8 88.1,69.0 87.1,72.4 90.1,70.3 93.0,72.4 92.0,69.0 94.8,66.8 91.2,66.7" fill="#ff6b6b"/>
<polygon points="90.1,63.3 88.9,66.7 85.3,66.8 88.2,69.0 87.1,72.4 90.1,70.3 93.0,72.4 92.0,69.0 94.8,66.8 91.3,66.7" fill="#ff6b6b"/>
<polygon points="90.2,63.3 89.0,66.7 85.4,66.8 88.3,69.0 87.2,72.4 90.2,70.3 93.1,72.4 92.1,69.0 94.9,66.8 91.3,66.7" fill="#ff6b6b"/>
<polygon points="90.3,63.3 89.1,66.7 85.6,66.8 88.4,69.0 87.4,72.4 90.3,70.3 93.2,72.4 92.2,69.0 95.1,66.8 91.5,66.7" fill="#ff6b6b"/>
<polygon points="90.6,63.4 89.4,66.8 85.8,66.9 88.7,69.1 87.7,72.5 90.6,70.4 93.5,72.5 92.5,69.1 95.4,66.9 91.8,66.8" fill="#ff6b6b"/>
<polygon points="91.1,63.6 90.0,67.0 86.4,67.1 89.2,69.3 88.2,72.7 91.1,70.6 94.1,72.7 93.0,69.3 95.9,67.1 92.3,67.0" fill="#ff6b6b"/>
<polygon points="92.1,64.9 90.9,68.3 87.3,68.4 90.2,70.5 89.1,73.9 92.1,71.9 95.0,73.9 94.0,70.5 96.8,68.4 93.2,68.3" fill="#ff6b6b"/>
<polygon points="93.6,67.1 92.4,70.5 88.8,70.6 91.7,72.7 90.7,76.2 93.6,74.1 96.5,76.2 95.5,72.7 98.3,70.6 94.8,70.5" fill="#ff6b6b"/>
<polygon points="96.0,70.4 94.8,73.7 91.2,73.8 94.1,76.0 93.1,79.4 96.0,77.4 98.9,79.4 97.9,76.0 100.8,73.8 97.2,73.7" fill="#ff6b6b"/>
<polygon points="100.0,74.4 98.8,77.8 95.2,77.9 98.1,80.1 97.0,83.5 100.0,81.4 102.9,83.5 101.9,80.1 104.7,77.9 101.1,77.8" fill="#ff6b6b"/>
<polygon points="106.6,79.6 105.4,83.0 101.8,83.1 104.7,85.3 103.7,88.7 106.6,86.6 109.5,88.7 108.5,85.3 111.3,83.1 107.8,83.0" fill="#ff6b6b"/>
<polygon points="117.4,86.6 116.2,90.0 112.6,90.1 115.5,92.2 114.4,95.6 117.4,93.6 120.3,95.6 119.3,92.2 122.1,90.1 118.5,90.0" fill="#ff6b6b"/>
<polygon points="134.4,95.9 133.3,99.3 129.7,99.4 132.5,101.6 131.5,105.0 134.4,102.9 137.4,105.0 136.3,101.6 139.2,99.4 135.6,99.3" fill="#ff6b6b"/>
<polygon points="158.7,105.5 157.5,108.9 153.9,109.0 156.8,111.1 155.7,114.6 158.7,112.5 161.6,114.6 160.6,111.1 163.4,109.0 159.8,108.9" fill="#ff6b6b"/>
<polygon points="187.5,118.9 186.3,122.3 182.7,122.3 185.6,124.5 184.5,127.9 187.5,125.9 190.4,127.9 189.4,124.5 192.2,122.3 188.6,122.3" fill="#ff6b6b"/>
<polygon points="248.0,151.1 246.8,154.5 243.2,154.6 246.1,156.7 245.0,160.2 248.0,158.1 250.9,160.2 249.9,156.7 252.7,154.6 249.1,154.5" fill="#ff6b6b"/>
<polygon points="300.8,190.0 299.6,193.4 296.0,193.4 298.9,195.6 297.8,199.0 300.8,197.0 303.7,199.0 302.7,195.6 305.5,193.4 302.0,193.4" fill="#ff6b6b"/>
<polygon points="394.4,516.7 393.2,520.0 389.7,520.1 392.5,522.3 391.5,525.7 394.4,523.7 397.3,525.7 396.3,522.3 399.2,520.1 395.6,520.0" fill="#ff6b6b"/>
<polygon points="485.2,516.7 484.0,520.0 480.4,520.1 483.3,522.3 482.2,525.7 485.2,523.7 488.1,525.7 487.1,522.3 489.9,520.1 486.3,520.0" fill="#ff6b6b"/>
<polyline fill="none" stroke="#ff922b" stroke-width="2" points="489.0,358.7 512.3,521.7 535.5,521.7 558.7,521.7 581.9,521.7 605.1,521.7 628.3,521.7 651.5,521.7 674.8,521.7 698.0,521.7"/>
<circle cx="489.0" cy="358.7" r="3" fill="#ff922b"/>
<circle cx="512.3" cy="521.7" r="3" fill="#ff922b"/>
<circle cx="535.5" cy="521.7" r="3" fill="#ff922b"/>
<circle cx="558.7" cy="521.7" r="3" fill="#ff922b"/>
<circle cx="581.9" cy="521.7" r="3" fill="#ff922b"/>
<circle cx="605.1" cy="521.7" r="3" fill="#ff922b"/>
<circle cx="628.3" cy="521.7" r="3" fill="#ff922b"/>
<circle cx="651.5" cy="521.7" r="3" fill="#ff922b"/>
<circle cx="674.8" cy="521.7" r="3" fill="#ff922b"/>
<circle cx="698.0" cy="521.7" r="3" fill="#ff922b"/>
<polyline fill="none" stroke="#888888" stroke-width="2" stroke-dasharray="8,5" points="433.2,124.7 468.0,141.6 513.0,164.4 546.7,182.2 580.3,200.3 624.7,218.8 658.2,237.5 691.7,252.4 736.0,279.9 769.5,290.4"/>
<circle cx="433.2" cy="124.7" r="3" fill="#888888"/>
<circle cx="468.0" cy="141.6" r="3" fill="#888888"/>
<circle cx="513.0" cy="164.4" r="3" fill="#888888"/>
<circle cx="546.7" cy="182.2" r="3" fill="#888888"/>
<circle cx="580.3" cy="200.3" r="3" fill="#888888"/>
<circle cx="624.7" cy="218.8" r="3" fill="#888888"/>
<circle cx="658.2" cy="237.5" r="3" fill="#888888"/>
<circle cx="691.7" cy="252.4" r="3" fill="#888888"/>
<circle cx="736.0" cy="279.9" r="3" fill="#888888"/>
<circle cx="769.5" cy="290.4" r="3" fill="#888888"/>
<line x1="886" y1="60" x2="902" y2="60" stroke="#ef4444" stroke-width="2" stroke-dasharray="8,5"/>
<circle cx="894.0" cy="60.0" r="3" fill="#ef4444"/>
<text class="label" x="908" y="64">Theoretical</text>
<line x1="886" y1="78" x2="902" y2="78" stroke="#1a6b3c" stroke-width="2"/>
<polygon points="894.0,74.0 898.0,78.0 894.0,82.0 890.0,78.0" fill="#1a6b3c"/>
<text class="label" x="908" y="82">Grafite</text>
<line x1="886" y1="96" x2="902" y2="96" stroke="#1a3a6b" stroke-width="2"/>
<polygon points="894.0,91.0 892.8,94.4 889.2,94.5 892.1,96.6 891.1,100.0 894.0,98.0 896.9,100.0 895.9,96.6 898.8,94.5 895.2,94.4" fill="#1a3a6b"/>
<text class="label" x="908" y="100">SNARF</text>
<line x1="886" y1="114" x2="902" y2="114" stroke="#111111" stroke-width="2"/>
<rect x="891.0" y="111.0" width="6" height="6" fill="#111111"/>
<text class="label" x="908" y="118">SuRF</text>
<line x1="886" y1="132" x2="902" y2="132" stroke="#111111" stroke-width="2"/>
<polygon points="894.0,128.0 898.0,135.0 890.0,135.0" fill="#111111"/>
<text class="label" x="908" y="136">SuRFHash(8)</text>
<line x1="886" y1="150" x2="902" y2="150" stroke="#111111" stroke-width="2"/>
<polygon points="894.0,146.0 898.0,150.0 894.0,154.0 890.0,150.0" fill="#111111"/>
<text class="label" x="908" y="154">SuRFReal(8)</text>
<line x1="886" y1="168" x2="902" y2="168" stroke="#2a7fff" stroke-width="2"/>
<rect x="891.0" y="165.0" width="6" height="6" fill="#2a7fff"/>
<text class="label" x="908" y="172">Adaptive (t=0)</text>
<line x1="886" y1="186" x2="902" y2="186" stroke="#9b59b6" stroke-width="2"/>
<polygon points="894.0,182.0 898.0,189.0 890.0,189.0" fill="#9b59b6"/>
<text class="label" x="908" y="190">Truncation</text>
<line x1="886" y1="204" x2="902" y2="204" stroke="#4dd88a" stroke-width="2"/>
<polygon points="894.0,200.0 898.0,204.0 894.0,208.0 890.0,204.0" fill="#4dd88a"/>
<text class="label" x="908" y="208">SODA</text>
<line x1="886" y1="222" x2="902" y2="222" stroke="#ff6b6b" stroke-width="2"/>
<polygon points="894.0,217.0 892.8,220.4 889.2,220.5 892.1,222.6 891.1,226.0 894.0,224.0 896.9,226.0 895.9,222.6 898.8,220.5 895.2,220.4" fill="#ff6b6b"/>
<text class="label" x="908" y="226">Hybrid</text>
<line x1="886" y1="240" x2="902" y2="240" stroke="#ff922b" stroke-width="2"/>
<circle cx="894.0" cy="240.0" r="3" fill="#ff922b"/>
<text class="label" x="908" y="244">CDF-ARE</text>
<line x1="886" y1="258" x2="902" y2="258" stroke="#888888" stroke-width="2" stroke-dasharray="8,5"/>
<circle cx="894.0" cy="258.0" r="3" fill="#888888"/>
<text class="label" x="908" y="262">BloomARE</text>
<text x="480" y="590" text-anchor="middle">Bits per Key (BPK)</text>
<text transform="translate(16,295) rotate(-90)" text-anchor="middle">False Positive Rate (FPR)</text>
</svg>
