<svg xmlns="http://www.w3.org/2000/svg" width="1020" height="600" viewBox="0 0 1020 600">
<style>text{font-family:Menlo,Monaco,monospace;font-size:12px;fill:#222} .axis{stroke:#333;stroke-width:1} .grid{stroke:#eee;stroke-width:0.5} .label{font-size:11px;fill:#444}</style>
<text x="510" y="28" text-anchor="middle" style="font-size:14px;font-weight:bold">FPR vs BPK — sosd_fb (60-bit keys, n=1048576, L=1)</text>
<line class="axis" x1="90.0" y1="550.0" x2="870.0" y2="550.0"/>
<line class="axis" x1="90.0" y1="40.0" x2="90.0" y2="550.0"/>
<line class="grid" x1="90.0" y1="521.7" x2="870.0" y2="521.7"/>
<text class="label" x="82.0" y="525.7" text-anchor="end">10^-8</text>
<line class="grid" x1="90.0" y1="465.0" x2="870.0" y2="465.0"/>
<text class="label" x="82.0" y="469.0" text-anchor="end">10^-7</text>
<line class="grid" x1="90.0" y1="408.3" x2="870.0" y2="408.3"/>
<text class="label" x="82.0" y="412.3" text-anchor="end">10^-6</text>
<line class="grid" x1="90.0" y1="351.7" x2="870.0" y2="351.7"/>
<text class="label" x="82.0" y="355.7" text-anchor="end">10^-5</text>
<line class="grid" x1="90.0" y1="295.0" x2="870.0" y2="295.0"/>
<text class="label" x="82.0" y="299.0" text-anchor="end">10^-4</text>
<line class="grid" x1="90.0" y1="238.3" x2="870.0" y2="238.3"/>
<text class="label" x="82.0" y="242.3" text-anchor="end">10^-3</text>
<line class="grid" x1="90.0" y1="181.7" x2="870.0" y2="181.7"/>
<text class="label" x="82.0" y="185.7" text-anchor="end">10^-2</text>
<line class="grid" x1="90.0" y1="125.0" x2="870.0" y2="125.0"/>
<text class="label" x="82.0" y="129.0" text-anchor="end">10^-1</text>
<line class="grid" x1="90.0" y1="68.3" x2="870.0" y2="68.3"/>
<text class="label" x="82.0" y="72.3" text-anchor="end">1</text>
<line class="grid" x1="90.0" y1="40.0" x2="90.0" y2="550.0"/>
<text class="label" x="90.0" y="566.0" text-anchor="middle">0</text>
<line class="grid" x1="206.1" y1="40.0" x2="206.1" y2="550.0"/>
<text class="label" x="206.1" y="566.0" text-anchor="middle">5</text>
<line class="grid" x1="322.1" y1="40.0" x2="322.1" y2="550.0"/>
<text class="label" x="322.1" y="566.0" text-anchor="middle">10</text>
<line class="grid" x1="438.2" y1="40.0" x2="438.2" y2="550.0"/>
<text class="label" x="438.2" y="566.0" text-anchor="middle">15</text>
<line class="grid" x1="554.3" y1="40.0" x2="554.3" y2="550.0"/>
<text class="label" x="554.3" y="566.0" text-anchor="middle">20</text>
<line class="grid" x1="670.4" y1="40.0" x2="670.4" y2="550.0"/>
<text class="label" x="670.4" y="566.0" text-anchor="middle">25</text>
<line class="grid" x1="786.4" y1="40.0" x2="786.4" y2="550.0"/>
<text class="label" x="786.4" y="566.0" text-anchor="middle">30</text>
<polyline fill="none" stroke="#ef4444" stroke-width="2" stroke-dasharray="8,5" points="182.9,136.6 206.1,153.6 229.3,170.7 252.5,187.7 275.7,204.8 298.9,221.9 322.1,238.9 345.4,256.0 368.6,273.0 391.8,290.1 415.0,307.2 438.2,324.2 461.4,341.3 484.6,358.3 507.9,375.4 531.1,392.4 554.3,409.5 600.7,443.6 647.1,477.7 740.0,546.0 832.9,614.2"/>
<circle cx="182.9" cy="136.6" r="3" fill="#ef4444"/>
<circle cx="206.1" cy="153.6" r="3" fill="#ef4444"/>
<circle cx="229.3" cy="170.7" r="3" fill="#ef4444"/>
<circle cx="252.5" cy="187.7" r="3" fill="#ef4444"/>
<circle cx="275.7" cy="204.8" r="3" fill="#ef4444"/>
<circle cx="298.9" cy="221.9" r="3" fill="#ef4444"/>
<circle cx="322.1" cy="238.9" r="3" fill="#ef4444"/>
<circle cx="345.4" cy="256.0" r="3" fill="#ef4444"/>
<circle cx="368.6" cy="273.0" r="3" fill="#ef4444"/>
<circle cx="391.8" cy="290.1" r="3" fill="#ef4444"/>
<circle cx="415.0" cy="307.2" r="3" fill="#ef4444"/>
<circle cx="438.2" cy="324.2" r="3" fill="#ef4444"/>
<circle cx="461.4" cy="341.3" r="3" fill="#ef4444"/>
<circle cx="484.6" cy="358.3" r="3" fill="#ef4444"/>
<circle cx="507.9" cy="375.4" r="3" fill="#ef4444"/>
<circle cx="531.1" cy="392.4" r="3" fill="#ef4444"/>
<circle cx="554.3" cy="409.5" r="3" fill="#ef4444"/>
<circle cx="600.7" cy="443.6" r="3" fill="#ef4444"/>
<circle cx="647.1" cy="477.7" r="3" fill="#ef4444"/>
<circle cx="740.0" cy="546.0" r="3" fill="#ef4444"/>
<circle cx="832.9" cy="614.2" r="3" fill="#ef4444"/>
<polyline fill="none" stroke="#1a6b3c" stroke-width="2" points="188.7,105.6 240.3,138.4 289.2,175.3 336.5,227.1"/>
<polygon points="188.7,101.6 192.7,105.6 188.7,109.6 184.7,105.6" fill="#1a6b3c"/>
<polygon points="240.3,134.4 244.3,138.4 240.3,142.4 236.3,138.4" fill="#1a6b3c"/>
<polygon points="289.2,171.3 293.2,175.3 289.2,179.3 285.2,175.3" fill="#1a6b3c"/>
<polygon points="336.5,223.1 340.5,227.1 336.5,231.1 332.5,227.1" fill="#1a6b3c"/>
<polyline fill="none" stroke="#1a3a6b" stroke-width="2" points="168.2,109.8 214.4,133.8 261.1,162.6 307.7,200.4 353.9,304.8 400.1,349.7 446.8,392.4 493.5,419.4 539.6,521.7"/>
<polygon points="168.2,104.8 167.0,108.2 163.5,108.3 166.3,110.4 165.3,113.9 168.2,111.8 171.2,113.9 170.1,110.4 173.0,108.3 169.4,108.2" fill="#1a3a6b"/>
<polygon points="214.4,128.8 213.2,132.2 209.7,132.3 212.5,134.4 211.5,137.9 214.4,135.8 217.4,137.9 216.3,134.4 219.2,132.3 215.6,132.2" fill="#1a3a6b"/>
<polygon points="261.1,157.6 259.9,161.0 256.3,161.1 259.2,163.3 258.2,166.7 261.1,164.6 264.0,166.7 263.0,163.3 265.9,161.1 262.3,161.0" fill="#1a3a6b"/>
<polygon points="307.7,195.4 306.6,198.8 303.0,198.9 305.8,201.0 304.8,204.4 307.7,202.4 310.7,204.4 309.6,201.0 312.5,198.9 308.9,198.8" fill="#1a3a6b"/>
<polygon points="353.9,299.8 352.8,303.1 349.2,303.2 352.0,305.4 351.0,308.8 353.9,306.8 356.9,308.8 355.8,305.4 358.7,303.2 355.1,303.1" fill="#1a3a6b"/>
<polygon points="400.1,344.7 399.0,348.1 395.4,348.1 398.2,350.3 397.2,353.7 400.1,351.7 403.1,353.7 402.0,350.3 404.9,348.1 401.3,348.1" fill="#1a3a6b"/>
<polygon points="446.8,387.4 445.6,390.8 442.1,390.8 444.9,393.0 443.9,396.4 446.8,394.4 449.8,396.4 448.7,393.0 451.6,390.8 448.0,390.8" fill="#1a3a6b"/>
<polygon points="493.5,414.4 492.3,417.8 488.7,417.9 491.6,420.0 490.5,423.5 493.5,421.4 496.4,423.5 495.4,420.0 498.2,417.9 494.6,417.8" fill="#1a3a6b"/>
<polygon points="539.6,516.7 538.5,520.0 534.9,520.1 537.7,522.3 536.7,525.7 539.6,523.7 542.6,525.7 541.6,522.3 544.4,520.1 540.8,520.0" fill="#1a3a6b"/>
<polyline fill="none" stroke="#111111" stroke-width="2" points="350.3,116.0"/>
<rect x="347.3" y="113.0" width="6" height="6" fill="#111111"/>
<polyline fill="none" stroke="#111111" stroke-width="2" points="536.0,116.0"/>
<polygon points="536.0,112.0 540.0,119.0 532.0,119.0" fill="#111111"/>
<polyline fill="none" stroke="#111111" stroke-width="2" points="536.0,313.7"/>
<polygon points="536.0,309.7 540.0,313.7 536.0,317.7 532.0,313.7" fill="#111111"/>
<polyline fill="none" stroke="#2a7fff" stroke-width="2" points="90.0,68.3 90.0,68.3 90.0,68.3 90.0,68.3 90.0,68.3 90.0,68.3 90.1,68.3 90.1,68.3 90.3,68.3 90.5,68.3 91.1,68.3 92.2,68.3 94.4,68.3 98.7,68.3 107.2,68.8 121.7,71.9 142.6,79.6 195.5,105.7 248.4,138.4 345.2,227.0 368.6,521.7"/>
<rect x="87.0" y="65.3" width="6" height="6" fill="#2a7fff"/>
<rect x="87.0" y="65.3" width="6" height="6" fill="#2a7fff"/>
<rect x="87.0" y="65.3" width="6" height="6" fill="#2a7fff"/>
<rect x="87.0" y="65.3" width="6" height="6" fill="#2a7fff"/>
<rect x="87.0" y="65.3" width="6" height="6" fill="#2a7fff"/>
<rect x="87.0" y="65.3" width="6" height="6" fill="#2a7fff"/>
<rect x="87.1" y="65.3" width="6" height="6" fill="#2a7fff"/>
<rect x="87.1" y="65.3" width="6" height="6" fill="#2a7fff"/>
<rect x="87.3" y="65.3" width="6" height="6" fill="#2a7fff"/>
<rect x="87.5" y="65.3" width="6" height="6" fill="#2a7fff"/>
<rect x="88.1" y="65.3" width="6" height="6" fill="#2a7fff"/>
<rect x="89.2" y="65.3" width="6" height="6" fill="#2a7fff"/>
<rect x="91.4" y="65.3" width="6" height="6" fill="#2a7fff"/>
<rect x="95.7" y="65.3" width="6" height="6" fill="#2a7fff"/>
<rect x="104.2" y="65.8" width="6" height="6" fill="#2a7fff"/>
<rect x="118.7" y="68.9" width="6" height="6" fill="#2a7fff"/>
<rect x="139.6" y="76.6" width="6" height="6" fill="#2a7fff"/>
<rect x="192.5" y="102.7" width="6" height="6" fill="#2a7fff"/>
<rect x="245.4" y="135.4" width="6" height="6" fill="#2a7fff"/>
<rect x="342.2" y="224.0" width="6" height="6" fill="#2a7fff"/>
<rect x="365.6" y="518.7" width="6" height="6" fill="#2a7fff"/>
<polyline fill="none" stroke="#9b59b6" stroke-width="2" points="90.0,68.3 90.0,68.3 90.0,68.3 90.0,68.3 90.0,68.3 90.0,68.3 90.1,68.3 90.1,68.3 90.2,68.4 90.4,68.5 90.9,68.9 91.7,70.0 93.2,72.2 95.9,75.7 100.2,80.8 107.0,87.5 117.3,95.6 149.4,115.8 199.1,140.8 334.9,215.3 438.2,521.7"/>
<polygon points="90.0,64.3 94.0,71.3 86.0,71.3" fill="#9b59b6"/>
<polygon points="90.0,64.3 94.0,71.3 86.0,71.3" fill="#9b59b6"/>
<polygon points="90.0,64.3 94.0,71.3 86.0,71.3" fill="#9b59b6"/>
<polygon points="90.0,64.3 94.0,71.3 86.0,71.3" fill="#9b59b6"/>
<polygon points="90.0,64.3 94.0,71.3 86.0,71.3" fill="#9b59b6"/>
<polygon points="90.0,64.3 94.0,71.3 86.0,71.3" fill="#9b59b6"/>
<polygon points="90.1,64.3 94.1,71.3 86.1,71.3" fill="#9b59b6"/>
<polygon points="90.1,64.3 94.1,71.3 86.1,71.3" fill="#9b59b6"/>
<polygon points="90.2,64.4 94.2,71.4 86.2,71.4" fill="#9b59b6"/>
<polygon points="90.4,64.5 94.4,71.5 86.4,71.5" fill="#9b59b6"/>
<polygon points="90.9,64.9 94.9,71.9 86.9,71.9" fill="#9b59b6"/>
<polygon points="91.7,66.0 95.7,73.0 87.7,73.0" fill="#9b59b6"/>
<polygon points="93.2,68.2 97.2,75.2 89.2,75.2" fill="#9b59b6"/>
<polygon points="95.9,71.7 99.9,78.7 91.9,78.7" fill="#9b59b6"/>
<polygon points="100.2,76.8 104.2,83.8 96.2,83.8" fill="#9b59b6"/>
<polygon points="107.0,83.5 111.0,90.5 103.0,90.5" fill="#9b59b6"/>
<polygon points="117.3,91.6 121.3,98.6 113.3,98.6" fill="#9b59b6"/>
<polygon points="149.4,111.8 153.4,118.8 145.4,118.8" fill="#9b59b6"/>
<polygon points="199.1,136.8 203.1,143.8 195.1,143.8" fill="#9b59b6"/>
<polygon points="334.9,211.3 338.9,218.3 330.9,218.3" fill="#9b59b6"/>
<polygon points="438.2,517.7 442.2,524.7 434.2,524.7" fill="#9b59b6"/>
<polyline fill="none" stroke="#4dd88a" stroke-width="2" points="90.0,68.3 90.0,68.3 90.0,68.3 90.0,68.3 90.0,68.3 90.0,68.3 90.1,68.3 90.1,68.3 90.3,68.3 90.5,68.3 91.1,68.3 92.2,68.3 94.4,68.3 98.7,68.3 107.2,68.8 121.7,71.9 142.6,79.6 195.5,105.7 248.4,138.4 345.2,227.0 438.2,521.7"/>
<polygon points="90.0,64.3 94.0,68.3 90.0,72.3 86.0,68.3" fill="#4dd88a"/>
<polygon points="90.0,64.3 94.0,68.3 90.0,72.3 86.0,68.3" fill="#4dd88a"/>
<polygon points="90.0,64.3 94.0,68.3 90.0,72.3 86.0,68.3" fill="#4dd88a"/>
<polygon points="90.0,64.3 94.0,68.3 90.0,72.3 86.0,68.3" fill="#4dd88a"/>
<polygon points="90.0,64.3 94.0,68.3 90.0,72.3 86.0,68.3" fill="#4dd88a"/>
<polygon points="90.0,64.3 94.0,68.3 90.0,72.3 86.0,68.3" fill="#4dd88a"/>
<polygon points="90.1,64.3 94.1,68.3 90.1,72.3 86.1,68.3" fill="#4dd88a"/>
<polygon points="90.1,64.3 94.1,68.3 90.1,72.3 86.1,68.3" fill="#4dd88a"/>
<polygon points="90.3,64.3 94.3,68.3 90.3,72.3 86.3,68.3" fill="#4dd88a"/>
<polygon points="90.5,64.3 94.5,68.3 90.5,72.3 86.5,68.3" fill="#4dd88a"/>
<polygon points="91.1,64.3 95.1,68.3 91.1,72.3 87.1,68.3" fill="#4dd88a"/>
<polygon points="92.2,64.3 96.2,68.3 92.2,72.3 88.2,68.3" fill="#4dd88a"/>
<polygon points="94.4,64.3 98.4,68.3 94.4,72.3 90.4,68.3" fill="#4dd88a"/>
<polygon points="98.7,64.3 102.7,68.3 98.7,72.3 94.7,68.3" fill="#4dd88a"/>
<polygon points="107.2,64.8 111.2,68.8 107.2,72.8 103.2,68.8" fill="#4dd88a"/>
<polygon points="121.7,67.9 125.7,71.9 121.7,75.9 117.7,71.9" fill="#4dd88a"/>
<polygon points="142.6,75.6 146.6,79.6 142.6,83.6 138.6,79.6" fill="#4dd88a"/>
<polygon points="195.5,101.7 199.5,105.7 195.5,109.7 191.5,105.7" fill="#4dd88a"/>
<polygon points="248.4,134.4 252.4,138.4 248.4,142.4 244.4,138.4" fill="#4dd88a"/>
<polygon points="345.2,223.0 349.2,227.0 345.2,231.0 341.2,227.0" fill="#4dd88a"/>
<polygon points="438.2,517.7 442.2,521.7 438.2,525.7 434.2,521.7" fill="#4dd88a"/>
<polyline fill="none" stroke="#ff6b6b" stroke-width="2" points="90.0,68.3 90.0,68.3 90.0,68.3 90.0,68.3 90.0,68.3 90.0,68.3 90.1,68.3 90.1,68.3 90.2,68.4 90.4,68.5 90.9,68.9 91.7,70.0 93.2,72.2 95.9,75.7 100.2,80.8 107.0,87.5 117.3,95.6 149.4,115.8 199.1,140.8 334.9,215.3 438.2,521.7"/>
<polygon points="90.0,63.3 88.8,66.7 85.2,66.8 88.1,69.0 87.1,72.4 90.0,70.3 92.9,72.4 91.9,69.0 94.8,66.8 91.2,66.7" fill="#ff6b6b"/>
<polygon points="90.0,63.3 88.8,66.7 85.2,66.8 88.1,69.0 87.1,72.4 90.0,70.3 92.9,72.4 91.9,69.0 94.8,66.8 91.2,66.7" fill="#ff6b6b"/>
<polygon points="90.0,63.3 88.8,66.7 85.2,66.8 88.1,69.0 87.1,72.4 90.0,70.3 92.9,72.4 91.9,69.0 94.8,66.8 91.2,66.7" fill="#ff6b6b"/>
<polygon points="90.0,63.3 88.8,66.7 85.3,66.8 88.1,69.0 87.1,72.4 90.0,70.3 92.9,72.4 91.9,69.0 94.8,66.8 91.2,66.7" fill="#ff6b6b"/>
<polygon points="90.0,63.3 88.8,66.7 85.3,66.8 88.1,69.0 87.1,72.4 90.0,70.3 93.0,72.4 91.9,69.0 94.8,66.8 91.2,66.7" fill="#ff6b6b"/>
<polygon points="90.0,63.3 88.9,66.7 85.3,66.8 88.1,69.0 87.1,72.4 90.0,70.3 93.0,72.4 91.9,69.0 94.8,66.8 91.2,66.7" fill="#ff6b6b"/>
<polygon points="90.1,63.3 88.9,66.7 85.3,66.8 88.2,69.0 87.1,72.4 90.1,70.3 93.0,72.4 92.0,69.0 94.8,66.8 91.2,66.7" fill="#ff6b6b"/>
<polygon points="90.1,63.3 88.9,66.7 85.4,66.8 88.2,69.0 87.2,72.4 90.1,70.3 93.0,72.4 92.0,69.0 94.9,66.8 91.3,66.7" fill="#ff6b6b"/>
<polygon points="90.2,63.4 89.0,66.7 85.5,66.8 88.3,69.0 87.3,72.4 90.2,70.4 93.2,72.4 92.1,69.0 95.0,66.8 91.4,66.7" fill="#ff6b6b"/>
<polygon points="90.4,63.5 89.3,66.9 85.7,67.0 88.5,69.1 87.5,72.5 90.4,70.5 93.4,72.5 92.3,69.1 95.2,67.0 91.6,66.9" fill="#ff6b6b"/>
<polygon points="90.9,63.9 89.7,67.3 86.1,67.3 89.0,69.5 87.9,72.9 90.9,70.9 93.8,72.9 92.8,69.5 95.6,67.3 92.0,67.3" fill="#ff6b6b"/>
<polygon points="91.7,65.0 90.5,68.4 86.9,68.5 89.8,70.6 88.7,74.1 91.7,72.0 94.6,74.1 93.6,70.6 96.4,68.5 92.8,68.4" fill="#ff6b6b"/>
<polygon points="93.2,67.2 92.0,70.5 88.4,70.6 91.3,72.8 90.2,76.2 93.2,74.2 96.1,76.2 95.1,72.8 97.9,70.6 94.4,70.5" fill="#ff6b6b"/>
<polygon points="95.9,70.7 94.7,74.1 91.2,74.2 94.0,76.3 93.0,79.8 95.9,77.7 98.8,79.8 97.8,76.3 100.7,74.2 97.1,74.1" fill="#ff6b6b"/>
<polygon points="100.2,75.8 99.1,79.2 95.5,79.2 98.3,81.4 97.3,84.8 100.2,82.8 103.2,84.8 102.1,81.4 105.0,79.2 101.4,79.2" fill="#ff6b6b"/>
<polygon points="107.0,82.5 105.8,85.9 102.3,85.9 105.1,88.1 104.1,91.5 107.0,89.5 109.9,91.5 108.9,88.1 111.8,85.9 108.2,85.9" fill="#ff6b6b"/>
<polygon points="117.3,90.6 116.2,94.0 112.6,94.1 115.4,96.2 114.4,99.6 117.3,97.6 120.3,99.6 119.2,96.2 122.1,94.1 118.5,94.0" fill="#ff6b6b"/>
<polygon points="149.4,110.8 148.3,114.2 144.7,114.3 147.5,116.4 146.5,119.8 149.4,117.8 152.4,119.8 151.3,116.4 154.2,114.3 150.6,114.2" fill="#ff6b6b"/>
<polygon points="199.1,135.8 198.0,139.2 194.4,139.2 197.2,141.4 196.2,144.8 199.1,142.8 202.1,144.8 201.0,141.4 203.9,139.2 200.3,139.2" fill="#ff6b6b"/>
<polygon points="334.9,210.3 333.7,213.7 330.1,213.8 333.0,215.9 331.9,219.4 334.9,217.3 337.8,219.4 336.8,215.9 339.6,213.8 336.1,213.7" fill="#ff6b6b"/>
<polygon points="438.2,516.7 437.0,520.0 433.5,520.1 436.3,522.3 435.3,525.7 438.2,523.7 441.2,525.7 440.1,522.3 443.0,520.1 439.4,520.0" fill="#ff6b6b"/>
<polyline fill="none" stroke="#ff922b" stroke-width="2" points="277.5,143.3 307.3,159.4 336.2,176.8 363.6,195.8 389.5,217.1 414.2,242.7 438.0,273.6 461.4,313.0 507.9,402.4 531.1,521.7"/>
<circle cx="277.5" cy="143.3" r="3" fill="#ff922b"/>
<circle cx="307.3" cy="159.4" r="3" fill="#ff922b"/>
<circle cx="336.2" cy="176.8" r="3" fill="#ff922b"/>
<circle cx="363.6" cy="195.8" r="3" fill="#ff922b"/>
<circle cx="389.5" cy="217.1" r="3" fill="#ff922b"/>
<circle cx="414.2" cy="242.7" r="3" fill="#ff922b"/>
<circle cx="438.0" cy="273.6" r="3" fill="#ff922b"/>
<circle cx="461.4" cy="313.0" r="3" fill="#ff922b"/>
<circle cx="507.9" cy="402.4" r="3" fill="#ff922b"/>
<circle cx="531.1" cy="521.7" r="3" fill="#ff922b"/>
<polyline fill="none" stroke="#888888" stroke-width="2" stroke-dasharray="8,5" points="201.3,124.4 234.7,141.6 279.0,164.5 312.5,181.4 346.0,198.8 390.3,221.6 423.8,238.9 457.3,256.3 501.5,278.0 535.0,297.4"/>
<circle cx="201.3" cy="124.4" r="3" fill="#888888"/>
<circle cx="234.7" cy="141.6" r="3" fill="#888888"/>
<circle cx="279.0" cy="164.5" r="3" fill="#888888"/>
<circle cx="312.5" cy="181.4" r="3" fill="#888888"/>
<circle cx="346.0" cy="198.8" r="3" fill="#888888"/>
<circle cx="390.3" cy="221.6" r="3" fill="#888888"/>
<circle cx="423.8" cy="238.9" r="3" fill="#888888"/>
<circle cx="457.3" cy="256.3" r="3" fill="#888888"/>
<circle cx="501.5" cy="278.0" r="3" fill="#888888"/>
<circle cx="535.0" cy="297.4" r="3" fill="#888888"/>
<line x1="886" y1="60" x2="902" y2="60" stroke="#ef4444" stroke-width="2" stroke-dasharray="8,5"/>
<circle cx="894.0" cy="60.0" r="3" fill="#ef4444"/>
<text class="label" x="908" y="64">Theoretical</text>
<line x1="886" y1="78" x2="902" y2="78" stroke="#1a6b3c" stroke-width="2"/>
<polygon points="894.0,74.0 898.0,78.0 894.0,82.0 890.0,78.0" fill="#1a6b3c"/>
<text class="label" x="908" y="82">Grafite</text>
<line x1="886" y1="96" x2="902" y2="96" stroke="#1a3a6b" stroke-width="2"/>
<polygon points="894.0,91.0 892.8,94.4 889.2,94.5 892.1,96.6 891.1,100.0 894.0,98.0 896.9,100.0 895.9,96.6 898.8,94.5 895.2,94.4" fill="#1a3a6b"/>
<text class="label" x="908" y="100">SNARF</text>
<line x1="886" y1="114" x2="902" y2="114" stroke="#111111" stroke-width="2"/>
<rect x="891.0" y="111.0" width="6" height="6" fill="#111111"/>
<text class="label" x="908" y="118">SuRF</text>
<line x1="886" y1="132" x2="902" y2="132" stroke="#111111" stroke-width="2"/>
<polygon points="894.0,128.0 898.0,135.0 890.0,135.0" fill="#111111"/>
<text class="label" x="908" y="136">SuRFHash(8)</text>
<line x1="886" y1="150" x2="902" y2="150" stroke="#111111" stroke-width="2"/>
<polygon points="894.0,146.0 898.0,150.0 894.0,154.0 890.0,150.0" fill="#111111"/>
<text class="label" x="908" y="154">SuRFReal(8)</text>
<line x1="886" y1="168" x2="902" y2="168" stroke="#2a7fff" stroke-width="2"/>
<rect x="891.0" y="165.0" width="6" height="6" fill="#2a7fff"/>
<text class="label" x="908" y="172">Adaptive (t=0)</text>
<line x1="886" y1="186" x2="902" y2="186" stroke="#9b59b6" stroke-width="2"/>
<polygon points="894.0,182.0 898.0,189.0 890.0,189.0" fill="#9b59b6"/>
<text class="label" x="908" y="190">Truncation</text>
<line x1="886" y1="204" x2="902" y2="204" stroke="#4dd88a" stroke-width="2"/>
<polygon points="894.0,200.0 898.0,204.0 894.0,208.0 890.0,204.0" fill="#4dd88a"/>
<text class="label" x="908" y="208">SODA</text>
<line x1="886" y1="222" x2="902" y2="222" stroke="#ff6b6b" stroke-width="2"/>
<polygon points="894.0,217.0 892.8,220.4 889.2,220.5 892.1,222.6 891.1,226.0 894.0,224.0 896.9,226.0 895.9,222.6 898.8,220.5 895.2,220.4" fill="#ff6b6b"/>
<text class="label" x="908" y="226">Hybrid</text>
<line x1="886" y1="240" x2="902" y2="240" stroke="#ff922b" stroke-width="2"/>
<circle cx="894.0" cy="240.0" r="3" fill="#ff922b"/>
<text class="label" x="908" y="244">CDF-ARE</text>
<line x1="886" y1="258" x2="902" y2="258" stroke="#888888" stroke-width="2" stroke-dasharray="8,5"/>
<circle cx="894.0" cy="258.0" r="3" fill="#888888"/>
<text class="label" x="908" y="262">BloomARE</text>
<text x="480" y="590" text-anchor="middle">Bits per Key (BPK)</text>
<text transform="translate(16,295) rotate(-90)" text-anchor="middle">False Positive Rate (FPR)</text>
</svg>
