<svg xmlns="http://www.w3.org/2000/svg" width="1020" height="600" viewBox="0 0 1020 600">
<style>text{font-family:Menlo,Monaco,monospace;font-size:12px;fill:#222} .axis{stroke:#333;stroke-width:1} .grid{stroke:#eee;stroke-width:0.5} .label{font-size:11px;fill:#444}</style>
<text x="510" y="28" text-anchor="middle" style="font-size:14px;font-weight:bold">FPR vs BPK — sosd_fb (60-bit keys, n=1048576, L=1024)</text>
<line class="axis" x1="90.0" y1="550.0" x2="870.0" y2="550.0"/>
<line class="axis" x1="90.0" y1="40.0" x2="90.0" y2="550.0"/>
<line class="grid" x1="90.0" y1="521.7" x2="870.0" y2="521.7"/>
<text class="label" x="82.0" y="525.7" text-anchor="end">10^-8</text>
<line class="grid" x1="90.0" y1="465.0" x2="870.0" y2="465.0"/>
<text class="label" x="82.0" y="469.0" text-anchor="end">10^-7</text>
<line class="grid" x1="90.0" y1="408.3" x2="870.0" y2="408.3"/>
<text class="label" x="82.0" y="412.3" text-anchor="end">10^-6</text>
<line class="grid" x1="90.0" y1="351.7" x2="870.0" y2="351.7"/>
<text class="label" x="82.0" y="355.7" text-anchor="end">10^-5</text>
<line class="grid" x1="90.0" y1="295.0" x2="870.0" y2="295.0"/>
<text class="label" x="82.0" y="299.0" text-anchor="end">10^-4</text>
<line class="grid" x1="90.0" y1="238.3" x2="870.0" y2="238.3"/>
<text class="label" x="82.0" y="242.3" text-anchor="end">10^-3</text>
<line class="grid" x1="90.0" y1="181.7" x2="870.0" y2="181.7"/>
<text class="label" x="82.0" y="185.7" text-anchor="end">10^-2</text>
<line class="grid" x1="90.0" y1="125.0" x2="870.0" y2="125.0"/>
<text class="label" x="82.0" y="129.0" text-anchor="end">10^-1</text>
<line class="grid" x1="90.0" y1="68.3" x2="870.0" y2="68.3"/>
<text class="label" x="82.0" y="72.3" text-anchor="end">1</text>
<line class="grid" x1="90.0" y1="40.0" x2="90.0" y2="550.0"/>
<text class="label" x="90.0" y="566.0" text-anchor="middle">0</text>
<line class="grid" x1="200.6" y1="40.0" x2="200.6" y2="550.0"/>
<text class="label" x="200.6" y="566.0" text-anchor="middle">5</text>
<line class="grid" x1="311.1" y1="40.0" x2="311.1" y2="550.0"/>
<text class="label" x="311.1" y="566.0" text-anchor="middle">10</text>
<line class="grid" x1="421.7" y1="40.0" x2="421.7" y2="550.0"/>
<text class="label" x="421.7" y="566.0" text-anchor="middle">15</text>
<line class="grid" x1="532.2" y1="40.0" x2="532.2" y2="550.0"/>
<text class="label" x="532.2" y="566.0" text-anchor="middle">20</text>
<line class="grid" x1="642.8" y1="40.0" x2="642.8" y2="550.0"/>
<text class="label" x="642.8" y="566.0" text-anchor="middle">25</text>
<line class="grid" x1="753.3" y1="40.0" x2="753.3" y2="550.0"/>
<text class="label" x="753.3" y="566.0" text-anchor="middle">30</text>
<line class="grid" x1="863.9" y1="40.0" x2="863.9" y2="550.0"/>
<text class="label" x="863.9" y="566.0" text-anchor="middle">35</text>
<polyline fill="none" stroke="#ef4444" stroke-width="2" stroke-dasharray="8,5" points="311.1,68.3 333.2,85.4 355.3,102.5 377.4,119.5 399.6,136.6 421.7,153.6 443.8,170.7 465.9,187.7 488.0,204.8 510.1,221.9 532.2,238.9 576.4,273.0 620.7,307.2 709.1,375.4 797.5,443.6"/>
<circle cx="311.1" cy="68.3" r="3" fill="#ef4444"/>
<circle cx="333.2" cy="85.4" r="3" fill="#ef4444"/>
<circle cx="355.3" cy="102.5" r="3" fill="#ef4444"/>
<circle cx="377.4" cy="119.5" r="3" fill="#ef4444"/>
<circle cx="399.6" cy="136.6" r="3" fill="#ef4444"/>
<circle cx="421.7" cy="153.6" r="3" fill="#ef4444"/>
<circle cx="443.8" cy="170.7" r="3" fill="#ef4444"/>
<circle cx="465.9" cy="187.7" r="3" fill="#ef4444"/>
<circle cx="488.0" cy="204.8" r="3" fill="#ef4444"/>
<circle cx="510.1" cy="221.9" r="3" fill="#ef4444"/>
<circle cx="532.2" cy="238.9" r="3" fill="#ef4444"/>
<circle cx="576.4" cy="273.0" r="3" fill="#ef4444"/>
<circle cx="620.7" cy="307.2" r="3" fill="#ef4444"/>
<circle cx="709.1" cy="375.4" r="3" fill="#ef4444"/>
<circle cx="797.5" cy="443.6" r="3" fill="#ef4444"/>
<polyline fill="none" stroke="#1a6b3c" stroke-width="2" points="184.0,68.3 233.1,68.3 279.7,69.9 324.8,101.6"/>
<polygon points="184.0,64.3 188.0,68.3 184.0,72.3 180.0,68.3" fill="#1a6b3c"/>
<polygon points="233.1,64.3 237.1,68.3 233.1,72.3 229.1,68.3" fill="#1a6b3c"/>
<polygon points="279.7,65.9 283.7,69.9 279.7,73.9 275.7,69.9" fill="#1a6b3c"/>
<polygon points="324.8,97.6 328.8,101.6 324.8,105.6 320.8,101.6" fill="#1a6b3c"/>
<polyline fill="none" stroke="#1a3a6b" stroke-width="2" points="164.5,126.8 208.5,144.4 253.0,152.6 297.4,155.3 341.4,156.0 385.4,156.0 429.9,156.0 474.3,156.0 518.3,156.0"/>
<polygon points="164.5,121.8 163.3,125.2 159.7,125.3 162.6,127.5 161.6,130.9 164.5,128.8 167.4,130.9 166.4,127.5 169.3,125.3 165.7,125.2" fill="#1a3a6b"/>
<polygon points="208.5,139.4 207.3,142.8 203.8,142.9 206.6,145.1 205.6,148.5 208.5,146.4 211.4,148.5 210.4,145.1 213.3,142.9 209.7,142.8" fill="#1a3a6b"/>
<polygon points="253.0,147.6 251.8,151.0 248.2,151.1 251.1,153.2 250.0,156.7 253.0,154.6 255.9,156.7 254.9,153.2 257.7,151.1 254.1,151.0" fill="#1a3a6b"/>
<polygon points="297.4,150.3 296.2,153.7 292.6,153.8 295.5,155.9 294.5,159.4 297.4,157.3 300.3,159.4 299.3,155.9 302.1,153.8 298.6,153.7" fill="#1a3a6b"/>
<polygon points="341.4,151.0 340.2,154.3 336.6,154.4 339.5,156.6 338.4,160.0 341.4,158.0 344.3,160.0 343.3,156.6 346.1,154.4 342.6,154.3" fill="#1a3a6b"/>
<polygon points="385.4,151.0 384.2,154.4 380.6,154.4 383.5,156.6 382.5,160.0 385.4,158.0 388.3,160.0 387.3,156.6 390.2,154.4 386.6,154.4" fill="#1a3a6b"/>
<polygon points="429.9,151.0 428.7,154.4 425.1,154.4 428.0,156.6 426.9,160.0 429.9,158.0 432.8,160.0 431.8,156.6 434.6,154.4 431.0,154.4" fill="#1a3a6b"/>
<polygon points="474.3,151.0 473.1,154.4 469.5,154.4 472.4,156.6 471.3,160.0 474.3,158.0 477.2,160.0 476.2,156.6 479.0,154.4 475.5,154.4" fill="#1a3a6b"/>
<polygon points="518.3,151.0 517.1,154.4 513.5,154.4 516.4,156.6 515.3,160.0 518.3,158.0 521.2,160.0 520.2,156.6 523.0,154.4 519.5,154.4" fill="#1a3a6b"/>
<polyline fill="none" stroke="#111111" stroke-width="2" points="337.9,125.6"/>
<rect x="334.9" y="122.6" width="6" height="6" fill="#111111"/>
<polyline fill="none" stroke="#111111" stroke-width="2" points="514.8,125.6"/>
<polygon points="514.8,121.6 518.8,128.6 510.8,128.6" fill="#111111"/>
<polyline fill="none" stroke="#111111" stroke-width="2" points="514.8,295.2"/>
<polygon points="514.8,291.2 518.8,295.2 514.8,299.2 510.8,295.2" fill="#111111"/>
<polyline fill="none" stroke="#2a7fff" stroke-width="2" points="90.0,68.3 90.0,68.3 90.0,68.3 90.0,68.3 90.0,68.3 90.0,68.3 90.1,68.3 90.1,68.3 90.3,68.3 90.5,68.3 91.0,68.3 92.1,68.3 94.1,68.3 98.3,68.3 106.4,68.3 120.2,68.3 140.1,68.3 190.5,68.3 240.9,68.3 333.1,101.8 355.3,521.7"/>
<rect x="87.0" y="65.3" width="6" height="6" fill="#2a7fff"/>
<rect x="87.0" y="65.3" width="6" height="6" fill="#2a7fff"/>
<rect x="87.0" y="65.3" width="6" height="6" fill="#2a7fff"/>
<rect x="87.0" y="65.3" width="6" height="6" fill="#2a7fff"/>
<rect x="87.0" y="65.3" width="6" height="6" fill="#2a7fff"/>
<rect x="87.0" y="65.3" width="6" height="6" fill="#2a7fff"/>
<rect x="87.1" y="65.3" width="6" height="6" fill="#2a7fff"/>
<rect x="87.1" y="65.3" width="6" height="6" fill="#2a7fff"/>
<rect x="87.3" y="65.3" width="6" height="6" fill="#2a7fff"/>
<rect x="87.5" y="65.3" width="6" height="6" fill="#2a7fff"/>
<rect x="88.0" y="65.3" width="6" height="6" fill="#2a7fff"/>
<rect x="89.1" y="65.3" width="6" height="6" fill="#2a7fff"/>
<rect x="91.1" y="65.3" width="6" height="6" fill="#2a7fff"/>
<rect x="95.3" y="65.3" width="6" height="6" fill="#2a7fff"/>
<rect x="103.4" y="65.3" width="6" height="6" fill="#2a7fff"/>
<rect x="117.2" y="65.3" width="6" height="6" fill="#2a7fff"/>
<rect x="137.1" y="65.3" width="6" height="6" fill="#2a7fff"/>
<rect x="187.5" y="65.3" width="6" height="6" fill="#2a7fff"/>
<rect x="237.9" y="65.3" width="6" height="6" fill="#2a7fff"/>
<rect x="330.1" y="98.8" width="6" height="6" fill="#2a7fff"/>
<rect x="352.3" y="518.7" width="6" height="6" fill="#2a7fff"/>
<polyline fill="none" stroke="#9b59b6" stroke-width="2" points="90.0,68.3 90.0,68.3 90.0,68.3 90.0,68.3 90.0,68.3 90.0,68.3 90.1,68.3 90.1,68.3 90.2,68.4 90.4,68.6 90.8,69.3 91.6,71.4 93.0,75.4 95.6,82.0 99.8,91.3 106.2,101.1 116.0,114.4 146.6,145.3 194.0,179.0 323.2,264.5 421.7,521.7"/>
<polygon points="90.0,64.3 94.0,71.3 86.0,71.3" fill="#9b59b6"/>
<polygon points="90.0,64.3 94.0,71.3 86.0,71.3" fill="#9b59b6"/>
<polygon points="90.0,64.3 94.0,71.3 86.0,71.3" fill="#9b59b6"/>
<polygon points="90.0,64.3 94.0,71.3 86.0,71.3" fill="#9b59b6"/>
<polygon points="90.0,64.3 94.0,71.3 86.0,71.3" fill="#9b59b6"/>
<polygon points="90.0,64.3 94.0,71.3 86.0,71.3" fill="#9b59b6"/>
<polygon points="90.1,64.3 94.1,71.3 86.1,71.3" fill="#9b59b6"/>
<polygon points="90.1,64.3 94.1,71.3 86.1,71.3" fill="#9b59b6"/>
<polygon points="90.2,64.4 94.2,71.4 86.2,71.4" fill="#9b59b6"/>
<polygon points="90.4,64.6 94.4,71.6 86.4,71.6" fill="#9b59b6"/>
<polygon points="90.8,65.3 94.8,72.3 86.8,72.3" fill="#9b59b6"/>
<polygon points="91.6,67.4 95.6,74.4 87.6,74.4" fill="#9b59b6"/>
<polygon points="93.0,71.4 97.0,78.4 89.0,78.4" fill="#9b59b6"/>
<polygon points="95.6,78.0 99.6,85.0 91.6,85.0" fill="#9b59b6"/>
<polygon points="99.8,87.3 103.8,94.3 95.8,94.3" fill="#9b59b6"/>
<polygon points="106.2,97.1 110.2,104.1 102.2,104.1" fill="#9b59b6"/>
<polygon points="116.0,110.4 120.0,117.4 112.0,117.4" fill="#9b59b6"/>
<polygon points="146.6,141.3 150.6,148.3 142.6,148.3" fill="#9b59b6"/>
<polygon points="194.0,175.0 198.0,182.0 190.0,182.0" fill="#9b59b6"/>
<polygon points="323.2,260.5 327.2,267.5 319.2,267.5" fill="#9b59b6"/>
<polygon points="421.7,517.7 425.7,524.7 417.7,524.7" fill="#9b59b6"/>
<polyline fill="none" stroke="#4dd88a" stroke-width="2" points="90.0,68.3 90.0,68.3 90.0,68.3 90.0,68.3 90.0,68.3 90.0,68.3 90.1,68.3 90.1,68.3 90.3,68.3 90.5,68.3 91.0,68.3 92.1,68.3 94.1,68.3 98.3,68.3 106.4,68.3 120.2,68.3 140.1,68.3 190.5,68.3 240.9,68.3 333.1,101.8 421.7,521.7"/>
<polygon points="90.0,64.3 94.0,68.3 90.0,72.3 86.0,68.3" fill="#4dd88a"/>
<polygon points="90.0,64.3 94.0,68.3 90.0,72.3 86.0,68.3" fill="#4dd88a"/>
<polygon points="90.0,64.3 94.0,68.3 90.0,72.3 86.0,68.3" fill="#4dd88a"/>
<polygon points="90.0,64.3 94.0,68.3 90.0,72.3 86.0,68.3" fill="#4dd88a"/>
<polygon points="90.0,64.3 94.0,68.3 90.0,72.3 86.0,68.3" fill="#4dd88a"/>
<polygon points="90.0,64.3 94.0,68.3 90.0,72.3 86.0,68.3" fill="#4dd88a"/>
<polygon points="90.1,64.3 94.1,68.3 90.1,72.3 86.1,68.3" fill="#4dd88a"/>
<polygon points="90.1,64.3 94.1,68.3 90.1,72.3 86.1,68.3" fill="#4dd88a"/>
<polygon points="90.3,64.3 94.3,68.3 90.3,72.3 86.3,68.3" fill="#4dd88a"/>
<polygon points="90.5,64.3 94.5,68.3 90.5,72.3 86.5,68.3" fill="#4dd88a"/>
<polygon points="91.0,64.3 95.0,68.3 91.0,72.3 87.0,68.3" fill="#4dd88a"/>
<polygon points="92.1,64.3 96.1,68.3 92.1,72.3 88.1,68.3" fill="#4dd88a"/>
<polygon points="94.1,64.3 98.1,68.3 94.1,72.3 90.1,68.3" fill="#4dd88a"/>
<polygon points="98.3,64.3 102.3,68.3 98.3,72.3 94.3,68.3" fill="#4dd88a"/>
<polygon points="106.4,64.3 110.4,68.3 106.4,72.3 102.4,68.3" fill="#4dd88a"/>
<polygon points="120.2,64.3 124.2,68.3 120.2,72.3 116.2,68.3" fill="#4dd88a"/>
<polygon points="140.1,64.3 144.1,68.3 140.1,72.3 136.1,68.3" fill="#4dd88a"/>
<polygon points="190.5,64.3 194.5,68.3 190.5,72.3 186.5,68.3" fill="#4dd88a"/>
<polygon points="240.9,64.3 244.9,68.3 240.9,72.3 236.9,68.3" fill="#4dd88a"/>
<polygon points="333.1,97.8 337.1,101.8 333.1,105.8 329.1,101.8" fill="#4dd88a"/>
<polygon points="421.7,517.7 425.7,521.7 421.7,525.7 417.7,521.7" fill="#4dd88a"/>
<polyline fill="none" stroke="#ff6b6b" stroke-width="2" points="90.0,68.3 90.0,68.3 90.0,68.3 90.0,68.3 90.0,68.3 90.0,68.3 90.1,68.3 90.1,68.3 90.2,68.4 90.4,68.6 90.8,69.3 91.6,71.4 93.0,75.4 95.6,82.0 99.8,91.3 106.2,101.1 116.0,114.4 146.6,145.3 194.0,179.0 323.2,264.5 421.7,521.7"/>
<polygon points="90.0,63.3 88.8,66.7 85.2,66.8 88.1,69.0 87.1,72.4 90.0,70.3 92.9,72.4 91.9,69.0 94.8,66.8 91.2,66.7" fill="#ff6b6b"/>
<polygon points="90.0,63.3 88.8,66.7 85.2,66.8 88.1,69.0 87.1,72.4 90.0,70.3 92.9,72.4 91.9,69.0 94.8,66.8 91.2,66.7" fill="#ff6b6b"/>
<polygon points="90.0,63.3 88.8,66.7 85.2,66.8 88.1,69.0 87.1,72.4 90.0,70.3 92.9,72.4 91.9,69.0 94.8,66.8 91.2,66.7" fill="#ff6b6b"/>
<polygon points="90.0,63.3 88.8,66.7 85.3,66.8 88.1,69.0 87.1,72.4 90.0,70.3 92.9,72.4 91.9,69.0 94.8,66.8 91.2,66.7" fill="#ff6b6b"/>
<polygon points="90.0,63.3 88.8,66.7 85.3,66.8 88.1,69.0 87.1,72.4 90.0,70.3 93.0,72.4 91.9,69.0 94.8,66.8 91.2,66.7" fill="#ff6b6b"/>
<polygon points="90.0,63.3 88.9,66.7 85.3,66.8 88.1,69.0 87.1,72.4 90.0,70.3 93.0,72.4 91.9,69.0 94.8,66.8 91.2,66.7" fill="#ff6b6b"/>
<polygon points="90.1,63.3 88.9,66.7 85.3,66.8 88.1,69.0 87.1,72.4 90.1,70.3 93.0,72.4 92.0,69.0 94.8,66.8 91.2,66.7" fill="#ff6b6b"/>
<polygon points="90.1,63.3 88.9,66.7 85.3,66.8 88.2,69.0 87.2,72.4 90.1,70.3 93.0,72.4 92.0,69.0 94.9,66.8 91.3,66.7" fill="#ff6b6b"/>
<polygon points="90.2,63.4 89.0,66.8 85.5,66.9 88.3,69.0 87.3,72.4 90.2,70.4 93.1,72.4 92.1,69.0 95.0,66.9 91.4,66.8" fill="#ff6b6b"/>
<polygon points="90.4,63.6 89.2,67.0 85.7,67.1 88.5,69.3 87.5,72.7 90.4,70.6 93.4,72.7 92.3,69.3 95.2,67.1 91.6,67.0" fill="#ff6b6b"/>
<polygon points="90.8,64.3 89.6,67.7 86.1,67.8 88.9,69.9 87.9,73.4 90.8,71.3 93.8,73.4 92.7,69.9 95.6,67.8 92.0,67.7" fill="#ff6b6b"/>
<polygon points="91.6,66.4 90.4,69.8 86.8,69.8 89.7,72.0 88.7,75.4 91.6,73.4 94.5,75.4 93.5,72.0 96.3,69.8 92.8,69.8" fill="#ff6b6b"/>
<polygon points="93.0,70.4 91.9,73.7 88.3,73.8 91.1,76.0 90.1,79.4 93.0,77.4 96.0,79.4 94.9,76.0 97.8,73.8 94.2,73.7" fill="#ff6b6b"/>
<polygon points="95.6,77.0 94.4,80.4 90.9,80.5 93.7,82.6 92.7,86.0 95.6,84.0 98.6,86.0 97.5,82.6 100.4,80.5 96.8,80.4" fill="#ff6b6b"/>
<polygon points="99.8,86.3 98.6,89.7 95.0,89.7 97.9,91.9 96.8,95.3 99.8,93.3 102.7,95.3 101.7,91.9 104.5,89.7 100.9,89.7" fill="#ff6b6b"/>
<polygon points="106.2,96.1 105.0,99.4 101.4,99.5 104.3,101.7 103.3,105.1 106.2,103.1 109.1,105.1 108.1,101.7 111.0,99.5 107.4,99.4" fill="#ff6b6b"/>
<polygon points="116.0,109.4 114.9,112.8 111.3,112.9 114.1,115.0 113.1,118.5 116.0,116.4 119.0,118.5 117.9,115.0 120.8,112.9 117.2,112.8" fill="#ff6b6b"/>
<polygon points="146.6,140.3 145.4,143.7 141.9,143.8 144.7,146.0 143.7,149.4 146.6,147.3 149.6,149.4 148.5,146.0 151.4,143.8 147.8,143.7" fill="#ff6b6b"/>
<polygon points="194.0,174.0 192.8,177.4 189.2,177.5 192.1,179.7 191.0,183.1 194.0,181.0 196.9,183.1 195.9,179.7 198.7,177.5 195.1,177.4" fill="#ff6b6b"/>
<polygon points="323.2,259.5 322.1,262.9 318.5,262.9 321.3,265.1 320.3,268.5 323.2,266.5 326.2,268.5 325.1,265.1 328.0,262.9 324.4,262.9" fill="#ff6b6b"/>
<polygon points="421.7,516.7 420.5,520.0 416.9,520.1 419.8,522.3 418.7,525.7 421.7,523.7 424.6,525.7 423.6,522.3 426.4,520.1 422.8,520.0" fill="#ff6b6b"/>
<polyline fill="none" stroke="#ff922b" stroke-width="2" points="488.0,421.3 510.1,521.7 532.2,521.7 554.3,521.7 576.4,521.7 620.7,521.7 642.8,521.7 664.9,521.7 687.0,521.7 709.1,521.7"/>
<circle cx="488.0" cy="421.3" r="3" fill="#ff922b"/>
<circle cx="510.1" cy="521.7" r="3" fill="#ff922b"/>
<circle cx="532.2" cy="521.7" r="3" fill="#ff922b"/>
<circle cx="554.3" cy="521.7" r="3" fill="#ff922b"/>
<circle cx="576.4" cy="521.7" r="3" fill="#ff922b"/>
<circle cx="620.7" cy="521.7" r="3" fill="#ff922b"/>
<circle cx="642.8" cy="521.7" r="3" fill="#ff922b"/>
<circle cx="664.9" cy="521.7" r="3" fill="#ff922b"/>
<circle cx="687.0" cy="521.7" r="3" fill="#ff922b"/>
<circle cx="709.1" cy="521.7" r="3" fill="#ff922b"/>
<polyline fill="none" stroke="#888888" stroke-width="2" stroke-dasharray="8,5" points="512.6,124.7 545.7,142.0 588.6,164.4 620.7,181.9 652.7,198.7 694.9,222.4 726.9,236.3 758.8,253.9 801.0,275.7 832.9,303.3"/>
<circle cx="512.6" cy="124.7" r="3" fill="#888888"/>
<circle cx="545.7" cy="142.0" r="3" fill="#888888"/>
<circle cx="588.6" cy="164.4" r="3" fill="#888888"/>
<circle cx="620.7" cy="181.9" r="3" fill="#888888"/>
<circle cx="652.7" cy="198.7" r="3" fill="#888888"/>
<circle cx="694.9" cy="222.4" r="3" fill="#888888"/>
<circle cx="726.9" cy="236.3" r="3" fill="#888888"/>
<circle cx="758.8" cy="253.9" r="3" fill="#888888"/>
<circle cx="801.0" cy="275.7" r="3" fill="#888888"/>
<circle cx="832.9" cy="303.3" r="3" fill="#888888"/>
<line x1="886" y1="60" x2="902" y2="60" stroke="#ef4444" stroke-width="2" stroke-dasharray="8,5"/>
<circle cx="894.0" cy="60.0" r="3" fill="#ef4444"/>
<text class="label" x="908" y="64">Theoretical</text>
<line x1="886" y1="78" x2="902" y2="78" stroke="#1a6b3c" stroke-width="2"/>
<polygon points="894.0,74.0 898.0,78.0 894.0,82.0 890.0,78.0" fill="#1a6b3c"/>
<text class="label" x="908" y="82">Grafite</text>
<line x1="886" y1="96" x2="902" y2="96" stroke="#1a3a6b" stroke-width="2"/>
<polygon points="894.0,91.0 892.8,94.4 889.2,94.5 892.1,96.6 891.1,100.0 894.0,98.0 896.9,100.0 895.9,96.6 898.8,94.5 895.2,94.4" fill="#1a3a6b"/>
<text class="label" x="908" y="100">SNARF</text>
<line x1="886" y1="114" x2="902" y2="114" stroke="#111111" stroke-width="2"/>
<rect x="891.0" y="111.0" width="6" height="6" fill="#111111"/>
<text class="label" x="908" y="118">SuRF</text>
<line x1="886" y1="132" x2="902" y2="132" stroke="#111111" stroke-width="2"/>
<polygon points="894.0,128.0 898.0,135.0 890.0,135.0" fill="#111111"/>
<text class="label" x="908" y="136">SuRFHash(8)</text>
<line x1="886" y1="150" x2="902" y2="150" stroke="#111111" stroke-width="2"/>
<polygon points="894.0,146.0 898.0,150.0 894.0,154.0 890.0,150.0" fill="#111111"/>
<text class="label" x="908" y="154">SuRFReal(8)</text>
<line x1="886" y1="168" x2="902" y2="168" stroke="#2a7fff" stroke-width="2"/>
<rect x="891.0" y="165.0" width="6" height="6" fill="#2a7fff"/>
<text class="label" x="908" y="172">Adaptive (t=0)</text>
<line x1="886" y1="186" x2="902" y2="186" stroke="#9b59b6" stroke-width="2"/>
<polygon points="894.0,182.0 898.0,189.0 890.0,189.0" fill="#9b59b6"/>
<text class="label" x="908" y="190">Truncation</text>
<line x1="886" y1="204" x2="902" y2="204" stroke="#4dd88a" stroke-width="2"/>
<polygon points="894.0,200.0 898.0,204.0 894.0,208.0 890.0,204.0" fill="#4dd88a"/>
<text class="label" x="908" y="208">SODA</text>
<line x1="886" y1="222" x2="902" y2="222" stroke="#ff6b6b" stroke-width="2"/>
<polygon points="894.0,217.0 892.8,220.4 889.2,220.5 892.1,222.6 891.1,226.0 894.0,224.0 896.9,226.0 895.9,222.6 898.8,220.5 895.2,220.4" fill="#ff6b6b"/>
<text class="label" x="908" y="226">Hybrid</text>
<line x1="886" y1="240" x2="902" y2="240" stroke="#ff922b" stroke-width="2"/>
<circle cx="894.0" cy="240.0" r="3" fill="#ff922b"/>
<text class="label" x="908" y="244">CDF-ARE</text>
<line x1="886" y1="258" x2="902" y2="258" stroke="#888888" stroke-width="2" stroke-dasharray="8,5"/>
<circle cx="894.0" cy="258.0" r="3" fill="#888888"/>
<text class="label" x="908" y="262">BloomARE</text>
<text x="480" y="590" text-anchor="middle">Bits per Key (BPK)</text>
<text transform="translate(16,295) rotate(-90)" text-anchor="middle">False Positive Rate (FPR)</text>
</svg>
