<svg xmlns="http://www.w3.org/2000/svg" width="1020" height="600" viewBox="0 0 1020 600">
<style>text{font-family:Menlo,Monaco,monospace;font-size:12px;fill:#222} .axis{stroke:#333;stroke-width:1} .grid{stroke:#eee;stroke-width:0.5} .label{font-size:11px;fill:#444}</style>
<text x="510" y="28" text-anchor="middle" style="font-size:14px;font-weight:bold">FPR vs BPK — sosd_fb (60-bit keys, n=1048576, L=128)</text>
<line class="axis" x1="90.0" y1="550.0" x2="870.0" y2="550.0"/>
<line class="axis" x1="90.0" y1="40.0" x2="90.0" y2="550.0"/>
<line class="grid" x1="90.0" y1="521.7" x2="870.0" y2="521.7"/>
<text class="label" x="82.0" y="525.7" text-anchor="end">10^-8</text>
<line class="grid" x1="90.0" y1="465.0" x2="870.0" y2="465.0"/>
<text class="label" x="82.0" y="469.0" text-anchor="end">10^-7</text>
<line class="grid" x1="90.0" y1="408.3" x2="870.0" y2="408.3"/>
<text class="label" x="82.0" y="412.3" text-anchor="end">10^-6</text>
<line class="grid" x1="90.0" y1="351.7" x2="870.0" y2="351.7"/>
<text class="label" x="82.0" y="355.7" text-anchor="end">10^-5</text>
<line class="grid" x1="90.0" y1="295.0" x2="870.0" y2="295.0"/>
<text class="label" x="82.0" y="299.0" text-anchor="end">10^-4</text>
<line class="grid" x1="90.0" y1="238.3" x2="870.0" y2="238.3"/>
<text class="label" x="82.0" y="242.3" text-anchor="end">10^-3</text>
<line class="grid" x1="90.0" y1="181.7" x2="870.0" y2="181.7"/>
<text class="label" x="82.0" y="185.7" text-anchor="end">10^-2</text>
<line class="grid" x1="90.0" y1="125.0" x2="870.0" y2="125.0"/>
<text class="label" x="82.0" y="129.0" text-anchor="end">10^-1</text>
<line class="grid" x1="90.0" y1="68.3" x2="870.0" y2="68.3"/>
<text class="label" x="82.0" y="72.3" text-anchor="end">1</text>
<line class="grid" x1="90.0" y1="40.0" x2="90.0" y2="550.0"/>
<text class="label" x="90.0" y="566.0" text-anchor="middle">0</text>
<line class="grid" x1="206.1" y1="40.0" x2="206.1" y2="550.0"/>
<text class="label" x="206.1" y="566.0" text-anchor="middle">5</text>
<line class="grid" x1="322.1" y1="40.0" x2="322.1" y2="550.0"/>
<text class="label" x="322.1" y="566.0" text-anchor="middle">10</text>
<line class="grid" x1="438.2" y1="40.0" x2="438.2" y2="550.0"/>
<text class="label" x="438.2" y="566.0" text-anchor="middle">15</text>
<line class="grid" x1="554.3" y1="40.0" x2="554.3" y2="550.0"/>
<text class="label" x="554.3" y="566.0" text-anchor="middle">20</text>
<line class="grid" x1="670.4" y1="40.0" x2="670.4" y2="550.0"/>
<text class="label" x="670.4" y="566.0" text-anchor="middle">25</text>
<line class="grid" x1="786.4" y1="40.0" x2="786.4" y2="550.0"/>
<text class="label" x="786.4" y="566.0" text-anchor="middle">30</text>
<polyline fill="none" stroke="#ef4444" stroke-width="2" stroke-dasharray="8,5" points="252.5,68.3 275.7,85.4 298.9,102.5 322.1,119.5 345.4,136.6 368.6,153.6 391.8,170.7 415.0,187.7 438.2,204.8 461.4,221.9 484.6,238.9 507.9,256.0 531.1,273.0 554.3,290.1 600.7,324.2 647.1,358.3 740.0,426.6 832.9,494.8"/>
<circle cx="252.5" cy="68.3" r="3" fill="#ef4444"/>
<circle cx="275.7" cy="85.4" r="3" fill="#ef4444"/>
<circle cx="298.9" cy="102.5" r="3" fill="#ef4444"/>
<circle cx="322.1" cy="119.5" r="3" fill="#ef4444"/>
<circle cx="345.4" cy="136.6" r="3" fill="#ef4444"/>
<circle cx="368.6" cy="153.6" r="3" fill="#ef4444"/>
<circle cx="391.8" cy="170.7" r="3" fill="#ef4444"/>
<circle cx="415.0" cy="187.7" r="3" fill="#ef4444"/>
<circle cx="438.2" cy="204.8" r="3" fill="#ef4444"/>
<circle cx="461.4" cy="221.9" r="3" fill="#ef4444"/>
<circle cx="484.6" cy="238.9" r="3" fill="#ef4444"/>
<circle cx="507.9" cy="256.0" r="3" fill="#ef4444"/>
<circle cx="531.1" cy="273.0" r="3" fill="#ef4444"/>
<circle cx="554.3" cy="290.1" r="3" fill="#ef4444"/>
<circle cx="600.7" cy="324.2" r="3" fill="#ef4444"/>
<circle cx="647.1" cy="358.3" r="3" fill="#ef4444"/>
<circle cx="740.0" cy="426.6" r="3" fill="#ef4444"/>
<circle cx="832.9" cy="494.8" r="3" fill="#ef4444"/>
<polyline fill="none" stroke="#1a6b3c" stroke-width="2" points="188.7,68.3 240.2,69.2 289.2,84.5 336.6,129.3"/>
<polygon points="188.7,64.3 192.7,68.3 188.7,72.3 184.7,68.3" fill="#1a6b3c"/>
<polygon points="240.2,65.2 244.2,69.2 240.2,73.2 236.2,69.2" fill="#1a6b3c"/>
<polygon points="289.2,80.5 293.2,84.5 289.2,88.5 285.2,84.5" fill="#1a6b3c"/>
<polygon points="336.6,125.3 340.6,129.3 336.6,133.3 332.6,129.3" fill="#1a6b3c"/>
<polyline fill="none" stroke="#1a3a6b" stroke-width="2" points="168.2,117.9 214.4,143.2 261.1,164.5 307.7,176.0 353.9,179.7 400.1,179.7 446.8,179.7 493.5,179.7 539.6,179.7"/>
<polygon points="168.2,112.9 167.0,116.3 163.5,116.4 166.3,118.5 165.3,122.0 168.2,119.9 171.2,122.0 170.1,118.5 173.0,116.4 169.4,116.3" fill="#1a3a6b"/>
<polygon points="214.4,138.2 213.2,141.6 209.7,141.6 212.5,143.8 211.5,147.2 214.4,145.2 217.4,147.2 216.3,143.8 219.2,141.6 215.6,141.6" fill="#1a3a6b"/>
<polygon points="261.1,159.5 259.9,162.9 256.3,163.0 259.2,165.1 258.2,168.5 261.1,166.5 264.0,168.5 263.0,165.1 265.9,163.0 262.3,162.9" fill="#1a3a6b"/>
<polygon points="307.7,171.0 306.6,174.4 303.0,174.5 305.8,176.7 304.8,180.1 307.7,178.0 310.7,180.1 309.6,176.7 312.5,174.5 308.9,174.4" fill="#1a3a6b"/>
<polygon points="353.9,174.7 352.8,178.1 349.2,178.1 352.0,180.3 351.0,183.7 353.9,181.7 356.9,183.7 355.8,180.3 358.7,178.1 355.1,178.1" fill="#1a3a6b"/>
<polygon points="400.1,174.7 399.0,178.1 395.4,178.2 398.2,180.3 397.2,183.8 400.1,181.7 403.1,183.8 402.0,180.3 404.9,178.2 401.3,178.1" fill="#1a3a6b"/>
<polygon points="446.8,174.7 445.6,178.1 442.1,178.2 444.9,180.4 443.9,183.8 446.8,181.7 449.8,183.8 448.7,180.4 451.6,178.2 448.0,178.1" fill="#1a3a6b"/>
<polygon points="493.5,174.7 492.3,178.1 488.7,178.2 491.6,180.4 490.5,183.8 493.5,181.7 496.4,183.8 495.4,180.4 498.2,178.2 494.6,178.1" fill="#1a3a6b"/>
<polygon points="539.6,174.7 538.5,178.1 534.9,178.2 537.7,180.4 536.7,183.8 539.6,181.7 542.6,183.8 541.6,180.4 544.4,178.2 540.8,178.1" fill="#1a3a6b"/>
<polyline fill="none" stroke="#111111" stroke-width="2" points="350.3,116.1"/>
<rect x="347.3" y="113.1" width="6" height="6" fill="#111111"/>
<polyline fill="none" stroke="#111111" stroke-width="2" points="536.0,116.1"/>
<polygon points="536.0,112.1 540.0,119.1 532.0,119.1" fill="#111111"/>
<polyline fill="none" stroke="#111111" stroke-width="2" points="536.0,308.0"/>
<polygon points="536.0,304.0 540.0,308.0 536.0,312.0 532.0,308.0" fill="#111111"/>
<polyline fill="none" stroke="#2a7fff" stroke-width="2" points="90.0,68.3 90.0,68.3 90.0,68.3 90.0,68.3 90.0,68.3 90.0,68.3 90.1,68.3 90.1,68.3 90.3,68.3 90.5,68.3 91.1,68.3 92.2,68.3 94.4,68.3 98.7,68.3 107.2,68.3 121.7,68.3 142.6,68.3 195.5,68.3 248.4,69.2 345.2,129.5 368.6,521.7"/>
<rect x="87.0" y="65.3" width="6" height="6" fill="#2a7fff"/>
<rect x="87.0" y="65.3" width="6" height="6" fill="#2a7fff"/>
<rect x="87.0" y="65.3" width="6" height="6" fill="#2a7fff"/>
<rect x="87.0" y="65.3" width="6" height="6" fill="#2a7fff"/>
<rect x="87.0" y="65.3" width="6" height="6" fill="#2a7fff"/>
<rect x="87.0" y="65.3" width="6" height="6" fill="#2a7fff"/>
<rect x="87.1" y="65.3" width="6" height="6" fill="#2a7fff"/>
<rect x="87.1" y="65.3" width="6" height="6" fill="#2a7fff"/>
<rect x="87.3" y="65.3" width="6" height="6" fill="#2a7fff"/>
<rect x="87.5" y="65.3" width="6" height="6" fill="#2a7fff"/>
<rect x="88.1" y="65.3" width="6" height="6" fill="#2a7fff"/>
<rect x="89.2" y="65.3" width="6" height="6" fill="#2a7fff"/>
<rect x="91.4" y="65.3" width="6" height="6" fill="#2a7fff"/>
<rect x="95.7" y="65.3" width="6" height="6" fill="#2a7fff"/>
<rect x="104.2" y="65.3" width="6" height="6" fill="#2a7fff"/>
<rect x="118.7" y="65.3" width="6" height="6" fill="#2a7fff"/>
<rect x="139.6" y="65.3" width="6" height="6" fill="#2a7fff"/>
<rect x="192.5" y="65.3" width="6" height="6" fill="#2a7fff"/>
<rect x="245.4" y="66.2" width="6" height="6" fill="#2a7fff"/>
<rect x="342.2" y="126.5" width="6" height="6" fill="#2a7fff"/>
<rect x="365.6" y="518.7" width="6" height="6" fill="#2a7fff"/>
<polyline fill="none" stroke="#9b59b6" stroke-width="2" points="90.0,68.3 90.0,68.3 90.0,68.3 90.0,68.3 90.0,68.3 90.0,68.3 90.1,68.3 90.1,68.3 90.2,68.4 90.4,68.5 90.9,69.0 91.7,70.3 93.2,72.8 95.9,77.1 100.2,83.2 107.0,91.6 117.3,102.0 149.4,126.9 199.1,158.2 334.9,241.3 438.2,521.7"/>
<polygon points="90.0,64.3 94.0,71.3 86.0,71.3" fill="#9b59b6"/>
<polygon points="90.0,64.3 94.0,71.3 86.0,71.3" fill="#9b59b6"/>
<polygon points="90.0,64.3 94.0,71.3 86.0,71.3" fill="#9b59b6"/>
<polygon points="90.0,64.3 94.0,71.3 86.0,71.3" fill="#9b59b6"/>
<polygon points="90.0,64.3 94.0,71.3 86.0,71.3" fill="#9b59b6"/>
<polygon points="90.0,64.3 94.0,71.3 86.0,71.3" fill="#9b59b6"/>
<polygon points="90.1,64.3 94.1,71.3 86.1,71.3" fill="#9b59b6"/>
<polygon points="90.1,64.3 94.1,71.3 86.1,71.3" fill="#9b59b6"/>
<polygon points="90.2,64.4 94.2,71.4 86.2,71.4" fill="#9b59b6"/>
<polygon points="90.4,64.5 94.4,71.5 86.4,71.5" fill="#9b59b6"/>
<polygon points="90.9,65.0 94.9,72.0 86.9,72.0" fill="#9b59b6"/>
<polygon points="91.7,66.3 95.7,73.3 87.7,73.3" fill="#9b59b6"/>
<polygon points="93.2,68.8 97.2,75.8 89.2,75.8" fill="#9b59b6"/>
<polygon points="95.9,73.1 99.9,80.1 91.9,80.1" fill="#9b59b6"/>
<polygon points="100.2,79.2 104.2,86.2 96.2,86.2" fill="#9b59b6"/>
<polygon points="107.0,87.6 111.0,94.6 103.0,94.6" fill="#9b59b6"/>
<polygon points="117.3,98.0 121.3,105.0 113.3,105.0" fill="#9b59b6"/>
<polygon points="149.4,122.9 153.4,129.9 145.4,129.9" fill="#9b59b6"/>
<polygon points="199.1,154.2 203.1,161.2 195.1,161.2" fill="#9b59b6"/>
<polygon points="334.9,237.3 338.9,244.3 330.9,244.3" fill="#9b59b6"/>
<polygon points="438.2,517.7 442.2,524.7 434.2,524.7" fill="#9b59b6"/>
<polyline fill="none" stroke="#4dd88a" stroke-width="2" points="90.0,68.3 90.0,68.3 90.0,68.3 90.0,68.3 90.0,68.3 90.0,68.3 90.1,68.3 90.1,68.3 90.3,68.3 90.5,68.3 91.1,68.3 92.2,68.3 94.4,68.3 98.7,68.3 107.2,68.3 121.7,68.3 142.6,68.3 195.5,68.3 248.4,69.2 345.2,129.5 438.2,521.7"/>
<polygon points="90.0,64.3 94.0,68.3 90.0,72.3 86.0,68.3" fill="#4dd88a"/>
<polygon points="90.0,64.3 94.0,68.3 90.0,72.3 86.0,68.3" fill="#4dd88a"/>
<polygon points="90.0,64.3 94.0,68.3 90.0,72.3 86.0,68.3" fill="#4dd88a"/>
<polygon points="90.0,64.3 94.0,68.3 90.0,72.3 86.0,68.3" fill="#4dd88a"/>
<polygon points="90.0,64.3 94.0,68.3 90.0,72.3 86.0,68.3" fill="#4dd88a"/>
<polygon points="90.0,64.3 94.0,68.3 90.0,72.3 86.0,68.3" fill="#4dd88a"/>
<polygon points="90.1,64.3 94.1,68.3 90.1,72.3 86.1,68.3" fill="#4dd88a"/>
<polygon points="90.1,64.3 94.1,68.3 90.1,72.3 86.1,68.3" fill="#4dd88a"/>
<polygon points="90.3,64.3 94.3,68.3 90.3,72.3 86.3,68.3" fill="#4dd88a"/>
<polygon points="90.5,64.3 94.5,68.3 90.5,72.3 86.5,68.3" fill="#4dd88a"/>
<polygon points="91.1,64.3 95.1,68.3 91.1,72.3 87.1,68.3" fill="#4dd88a"/>
<polygon points="92.2,64.3 96.2,68.3 92.2,72.3 88.2,68.3" fill="#4dd88a"/>
<polygon points="94.4,64.3 98.4,68.3 94.4,72.3 90.4,68.3" fill="#4dd88a"/>
<polygon points="98.7,64.3 102.7,68.3 98.7,72.3 94.7,68.3" fill="#4dd88a"/>
<polygon points="107.2,64.3 111.2,68.3 107.2,72.3 103.2,68.3" fill="#4dd88a"/>
<polygon points="121.7,64.3 125.7,68.3 121.7,72.3 117.7,68.3" fill="#4dd88a"/>
<polygon points="142.6,64.3 146.6,68.3 142.6,72.3 138.6,68.3" fill="#4dd88a"/>
<polygon points="195.5,64.3 199.5,68.3 195.5,72.3 191.5,68.3" fill="#4dd88a"/>
<polygon points="248.4,65.2 252.4,69.2 248.4,73.2 244.4,69.2" fill="#4dd88a"/>
<polygon points="345.2,125.5 349.2,129.5 345.2,133.5 341.2,129.5" fill="#4dd88a"/>
<polygon points="438.2,517.7 442.2,521.7 438.2,525.7 434.2,521.7" fill="#4dd88a"/>
<polyline fill="none" stroke="#ff6b6b" stroke-width="2" points="90.0,68.3 90.0,68.3 90.0,68.3 90.0,68.3 90.0,68.3 90.0,68.3 90.1,68.3 90.1,68.3 90.2,68.4 90.4,68.5 90.9,69.0 91.7,70.3 93.2,72.8 95.9,77.1 100.2,83.2 107.0,91.6 117.3,102.0 149.4,126.9 199.1,158.2 334.9,241.3 438.2,521.7"/>
<polygon points="90.0,63.3 88.8,66.7 85.2,66.8 88.1,69.0 87.1,72.4 90.0,70.3 92.9,72.4 91.9,69.0 94.8,66.8 91.2,66.7" fill="#ff6b6b"/>
<polygon points="90.0,63.3 88.8,66.7 85.2,66.8 88.1,69.0 87.1,72.4 90.0,70.3 92.9,72.4 91.9,69.0 94.8,66.8 91.2,66.7" fill="#ff6b6b"/>
<polygon points="90.0,63.3 88.8,66.7 85.2,66.8 88.1,69.0 87.1,72.4 90.0,70.3 92.9,72.4 91.9,69.0 94.8,66.8 91.2,66.7" fill="#ff6b6b"/>
<polygon points="90.0,63.3 88.8,66.7 85.3,66.8 88.1,69.0 87.1,72.4 90.0,70.3 92.9,72.4 91.9,69.0 94.8,66.8 91.2,66.7" fill="#ff6b6b"/>
<polygon points="90.0,63.3 88.8,66.7 85.3,66.8 88.1,69.0 87.1,72.4 90.0,70.3 93.0,72.4 91.9,69.0 94.8,66.8 91.2,66.7" fill="#ff6b6b"/>
<polygon points="90.0,63.3 88.9,66.7 85.3,66.8 88.1,69.0 87.1,72.4 90.0,70.3 93.0,72.4 91.9,69.0 94.8,66.8 91.2,66.7" fill="#ff6b6b"/>
<polygon points="90.1,63.3 88.9,66.7 85.3,66.8 88.2,69.0 87.1,72.4 90.1,70.3 93.0,72.4 92.0,69.0 94.8,66.8 91.2,66.7" fill="#ff6b6b"/>
<polygon points="90.1,63.3 88.9,66.7 85.4,66.8 88.2,69.0 87.2,72.4 90.1,70.3 93.0,72.4 92.0,69.0 94.9,66.8 91.3,66.7" fill="#ff6b6b"/>
<polygon points="90.2,63.4 89.0,66.8 85.5,66.8 88.3,69.0 87.3,72.4 90.2,70.4 93.2,72.4 92.1,69.0 95.0,66.8 91.4,66.8" fill="#ff6b6b"/>
<polygon points="90.4,63.5 89.3,66.9 85.7,67.0 88.5,69.1 87.5,72.6 90.4,70.5 93.4,72.6 92.3,69.1 95.2,67.0 91.6,66.9" fill="#ff6b6b"/>
<polygon points="90.9,64.0 89.7,67.3 86.1,67.4 89.0,69.6 87.9,73.0 90.9,71.0 93.8,73.0 92.8,69.6 95.6,67.4 92.0,67.3" fill="#ff6b6b"/>
<polygon points="91.7,65.3 90.5,68.7 86.9,68.8 89.8,70.9 88.7,74.3 91.7,72.3 94.6,74.3 93.6,70.9 96.4,68.8 92.8,68.7" fill="#ff6b6b"/>
<polygon points="93.2,67.8 92.0,71.2 88.4,71.3 91.3,73.4 90.2,76.9 93.2,74.8 96.1,76.9 95.1,73.4 97.9,71.3 94.4,71.2" fill="#ff6b6b"/>
<polygon points="95.9,72.1 94.7,75.5 91.2,75.5 94.0,77.7 93.0,81.1 95.9,79.1 98.8,81.1 97.8,77.7 100.7,75.5 97.1,75.5" fill="#ff6b6b"/>
<polygon points="100.2,78.2 99.1,81.6 95.5,81.7 98.3,83.9 97.3,87.3 100.2,85.2 103.2,87.3 102.1,83.9 105.0,81.7 101.4,81.6" fill="#ff6b6b"/>
<polygon points="107.0,86.6 105.8,90.0 102.3,90.1 105.1,92.2 104.1,95.6 107.0,93.6 109.9,95.6 108.9,92.2 111.8,90.1 108.2,90.0" fill="#ff6b6b"/>
<polygon points="117.3,97.0 116.2,100.4 112.6,100.5 115.4,102.7 114.4,106.1 117.3,104.0 120.3,106.1 119.2,102.7 122.1,100.5 118.5,100.4" fill="#ff6b6b"/>
<polygon points="149.4,121.9 148.3,125.3 144.7,125.4 147.5,127.6 146.5,131.0 149.4,128.9 152.4,131.0 151.3,127.6 154.2,125.4 150.6,125.3" fill="#ff6b6b"/>
<polygon points="199.1,153.2 198.0,156.6 194.4,156.7 197.2,158.8 196.2,162.3 199.1,160.2 202.1,162.3 201.0,158.8 203.9,156.7 200.3,156.6" fill="#ff6b6b"/>
<polygon points="334.9,236.3 333.7,239.7 330.1,239.7 333.0,241.9 331.9,245.3 334.9,243.3 337.8,245.3 336.8,241.9 339.6,239.7 336.1,239.7" fill="#ff6b6b"/>
<polygon points="438.2,516.7 437.0,520.0 433.5,520.1 436.3,522.3 435.3,525.7 438.2,523.7 441.2,525.7 440.1,522.3 443.0,520.1 439.4,520.0" fill="#ff6b6b"/>
<polyline fill="none" stroke="#ff922b" stroke-width="2" points="438.0,276.8 461.4,316.1 484.6,364.4 507.9,415.6 531.1,521.7 577.5,521.7 600.7,521.7 623.9,521.7 647.1,521.7 670.4,521.7"/>
<circle cx="438.0" cy="276.8" r="3" fill="#ff922b"/>
<circle cx="461.4" cy="316.1" r="3" fill="#ff922b"/>
<circle cx="484.6" cy="364.4" r="3" fill="#ff922b"/>
<circle cx="507.9" cy="415.6" r="3" fill="#ff922b"/>
<circle cx="531.1" cy="521.7" r="3" fill="#ff922b"/>
<circle cx="577.5" cy="521.7" r="3" fill="#ff922b"/>
<circle cx="600.7" cy="521.7" r="3" fill="#ff922b"/>
<circle cx="623.9" cy="521.7" r="3" fill="#ff922b"/>
<circle cx="647.1" cy="521.7" r="3" fill="#ff922b"/>
<circle cx="670.4" cy="521.7" r="3" fill="#ff922b"/>
<polyline fill="none" stroke="#888888" stroke-width="2" stroke-dasharray="8,5" points="433.2,124.8 468.0,141.9 513.0,164.5 546.7,181.7 580.3,198.8 624.7,221.5 658.2,238.7 691.7,255.7 736.0,278.9 769.5,295.2"/>
<circle cx="433.2" cy="124.8" r="3" fill="#888888"/>
<circle cx="468.0" cy="141.9" r="3" fill="#888888"/>
<circle cx="513.0" cy="164.5" r="3" fill="#888888"/>
<circle cx="546.7" cy="181.7" r="3" fill="#888888"/>
<circle cx="580.3" cy="198.8" r="3" fill="#888888"/>
<circle cx="624.7" cy="221.5" r="3" fill="#888888"/>
<circle cx="658.2" cy="238.7" r="3" fill="#888888"/>
<circle cx="691.7" cy="255.7" r="3" fill="#888888"/>
<circle cx="736.0" cy="278.9" r="3" fill="#888888"/>
<circle cx="769.5" cy="295.2" r="3" fill="#888888"/>
<line x1="886" y1="60" x2="902" y2="60" stroke="#ef4444" stroke-width="2" stroke-dasharray="8,5"/>
<circle cx="894.0" cy="60.0" r="3" fill="#ef4444"/>
<text class="label" x="908" y="64">Theoretical</text>
<line x1="886" y1="78" x2="902" y2="78" stroke="#1a6b3c" stroke-width="2"/>
<polygon points="894.0,74.0 898.0,78.0 894.0,82.0 890.0,78.0" fill="#1a6b3c"/>
<text class="label" x="908" y="82">Grafite</text>
<line x1="886" y1="96" x2="902" y2="96" stroke="#1a3a6b" stroke-width="2"/>
<polygon points="894.0,91.0 892.8,94.4 889.2,94.5 892.1,96.6 891.1,100.0 894.0,98.0 896.9,100.0 895.9,96.6 898.8,94.5 895.2,94.4" fill="#1a3a6b"/>
<text class="label" x="908" y="100">SNARF</text>
<line x1="886" y1="114" x2="902" y2="114" stroke="#111111" stroke-width="2"/>
<rect x="891.0" y="111.0" width="6" height="6" fill="#111111"/>
<text class="label" x="908" y="118">SuRF</text>
<line x1="886" y1="132" x2="902" y2="132" stroke="#111111" stroke-width="2"/>
<polygon points="894.0,128.0 898.0,135.0 890.0,135.0" fill="#111111"/>
<text class="label" x="908" y="136">SuRFHash(8)</text>
<line x1="886" y1="150" x2="902" y2="150" stroke="#111111" stroke-width="2"/>
<polygon points="894.0,146.0 898.0,150.0 894.0,154.0 890.0,150.0" fill="#111111"/>
<text class="label" x="908" y="154">SuRFReal(8)</text>
<line x1="886" y1="168" x2="902" y2="168" stroke="#2a7fff" stroke-width="2"/>
<rect x="891.0" y="165.0" width="6" height="6" fill="#2a7fff"/>
<text class="label" x="908" y="172">Adaptive (t=0)</text>
<line x1="886" y1="186" x2="902" y2="186" stroke="#9b59b6" stroke-width="2"/>
<polygon points="894.0,182.0 898.0,189.0 890.0,189.0" fill="#9b59b6"/>
<text class="label" x="908" y="190">Truncation</text>
<line x1="886" y1="204" x2="902" y2="204" stroke="#4dd88a" stroke-width="2"/>
<polygon points="894.0,200.0 898.0,204.0 894.0,208.0 890.0,204.0" fill="#4dd88a"/>
<text class="label" x="908" y="208">SODA</text>
<line x1="886" y1="222" x2="902" y2="222" stroke="#ff6b6b" stroke-width="2"/>
<polygon points="894.0,217.0 892.8,220.4 889.2,220.5 892.1,222.6 891.1,226.0 894.0,224.0 896.9,226.0 895.9,222.6 898.8,220.5 895.2,220.4" fill="#ff6b6b"/>
<text class="label" x="908" y="226">Hybrid</text>
<line x1="886" y1="240" x2="902" y2="240" stroke="#ff922b" stroke-width="2"/>
<circle cx="894.0" cy="240.0" r="3" fill="#ff922b"/>
<text class="label" x="908" y="244">CDF-ARE</text>
<line x1="886" y1="258" x2="902" y2="258" stroke="#888888" stroke-width="2" stroke-dasharray="8,5"/>
<circle cx="894.0" cy="258.0" r="3" fill="#888888"/>
<text class="label" x="908" y="262">BloomARE</text>
<text x="480" y="590" text-anchor="middle">Bits per Key (BPK)</text>
<text transform="translate(16,295) rotate(-90)" text-anchor="middle">False Positive Rate (FPR)</text>
</svg>
