<svg xmlns="http://www.w3.org/2000/svg" width="1020" height="600" viewBox="0 0 1020 600">
<style>text{font-family:Menlo,Monaco,monospace;font-size:12px;fill:#222} .axis{stroke:#333;stroke-width:1} .grid{stroke:#eee;stroke-width:0.5} .label{font-size:11px;fill:#444}</style>
<text x="510" y="28" text-anchor="middle" style="font-size:14px;font-weight:bold">FPR vs BPK — sosd_fb (60-bit keys, n=16777216, L=16)</text>
<line class="axis" x1="90.0" y1="550.0" x2="870.0" y2="550.0"/>
<line class="axis" x1="90.0" y1="40.0" x2="90.0" y2="550.0"/>
<line class="grid" x1="90.0" y1="524.5" x2="870.0" y2="524.5"/>
<text class="label" x="82.0" y="528.5" text-anchor="end">10^-9</text>
<line class="grid" x1="90.0" y1="473.5" x2="870.0" y2="473.5"/>
<text class="label" x="82.0" y="477.5" text-anchor="end">10^-8</text>
<line class="grid" x1="90.0" y1="422.5" x2="870.0" y2="422.5"/>
<text class="label" x="82.0" y="426.5" text-anchor="end">10^-7</text>
<line class="grid" x1="90.0" y1="371.5" x2="870.0" y2="371.5"/>
<text class="label" x="82.0" y="375.5" text-anchor="end">10^-6</text>
<line class="grid" x1="90.0" y1="320.5" x2="870.0" y2="320.5"/>
<text class="label" x="82.0" y="324.5" text-anchor="end">10^-5</text>
<line class="grid" x1="90.0" y1="269.5" x2="870.0" y2="269.5"/>
<text class="label" x="82.0" y="273.5" text-anchor="end">10^-4</text>
<line class="grid" x1="90.0" y1="218.5" x2="870.0" y2="218.5"/>
<text class="label" x="82.0" y="222.5" text-anchor="end">10^-3</text>
<line class="grid" x1="90.0" y1="167.5" x2="870.0" y2="167.5"/>
<text class="label" x="82.0" y="171.5" text-anchor="end">10^-2</text>
<line class="grid" x1="90.0" y1="116.5" x2="870.0" y2="116.5"/>
<text class="label" x="82.0" y="120.5" text-anchor="end">10^-1</text>
<line class="grid" x1="90.0" y1="65.5" x2="870.0" y2="65.5"/>
<text class="label" x="82.0" y="69.5" text-anchor="end">1</text>
<line class="grid" x1="90.0" y1="40.0" x2="90.0" y2="550.0"/>
<text class="label" x="90.0" y="566.0" text-anchor="middle">0</text>
<line class="grid" x1="206.1" y1="40.0" x2="206.1" y2="550.0"/>
<text class="label" x="206.1" y="566.0" text-anchor="middle">5</text>
<line class="grid" x1="322.1" y1="40.0" x2="322.1" y2="550.0"/>
<text class="label" x="322.1" y="566.0" text-anchor="middle">10</text>
<line class="grid" x1="438.2" y1="40.0" x2="438.2" y2="550.0"/>
<text class="label" x="438.2" y="566.0" text-anchor="middle">15</text>
<line class="grid" x1="554.3" y1="40.0" x2="554.3" y2="550.0"/>
<text class="label" x="554.3" y="566.0" text-anchor="middle">20</text>
<line class="grid" x1="670.4" y1="40.0" x2="670.4" y2="550.0"/>
<text class="label" x="670.4" y="566.0" text-anchor="middle">25</text>
<line class="grid" x1="786.4" y1="40.0" x2="786.4" y2="550.0"/>
<text class="label" x="786.4" y="566.0" text-anchor="middle">30</text>
<polyline fill="none" stroke="#ef4444" stroke-width="2" stroke-dasharray="8,5" points="182.9,65.5 206.1,80.9 229.3,96.2 252.5,111.6 275.7,126.9 298.9,142.3 322.1,157.6 345.4,173.0 368.6,188.3 391.8,203.7 415.0,219.0 438.2,234.4 461.4,249.7 484.6,265.1 507.9,280.4 531.1,295.8 554.3,311.1 600.7,341.8 647.1,372.6 740.0,434.0 832.9,495.4"/>
<circle cx="182.9" cy="65.5" r="3" fill="#ef4444"/>
<circle cx="206.1" cy="80.9" r="3" fill="#ef4444"/>
<circle cx="229.3" cy="96.2" r="3" fill="#ef4444"/>
<circle cx="252.5" cy="111.6" r="3" fill="#ef4444"/>
<circle cx="275.7" cy="126.9" r="3" fill="#ef4444"/>
<circle cx="298.9" cy="142.3" r="3" fill="#ef4444"/>
<circle cx="322.1" cy="157.6" r="3" fill="#ef4444"/>
<circle cx="345.4" cy="173.0" r="3" fill="#ef4444"/>
<circle cx="368.6" cy="188.3" r="3" fill="#ef4444"/>
<circle cx="391.8" cy="203.7" r="3" fill="#ef4444"/>
<circle cx="415.0" cy="219.0" r="3" fill="#ef4444"/>
<circle cx="438.2" cy="234.4" r="3" fill="#ef4444"/>
<circle cx="461.4" cy="249.7" r="3" fill="#ef4444"/>
<circle cx="484.6" cy="265.1" r="3" fill="#ef4444"/>
<circle cx="507.9" cy="280.4" r="3" fill="#ef4444"/>
<circle cx="531.1" cy="295.8" r="3" fill="#ef4444"/>
<circle cx="554.3" cy="311.1" r="3" fill="#ef4444"/>
<circle cx="600.7" cy="341.8" r="3" fill="#ef4444"/>
<circle cx="647.1" cy="372.6" r="3" fill="#ef4444"/>
<circle cx="740.0" cy="434.0" r="3" fill="#ef4444"/>
<circle cx="832.9" cy="495.4" r="3" fill="#ef4444"/>
<polyline fill="none" stroke="#1a6b3c" stroke-width="2" points="188.6,66.7 240.2,80.7 289.1,108.8 336.5,152.5"/>
<polygon points="188.6,62.7 192.6,66.7 188.6,70.7 184.6,66.7" fill="#1a6b3c"/>
<polygon points="240.2,76.7 244.2,80.7 240.2,84.7 236.2,80.7" fill="#1a6b3c"/>
<polygon points="289.1,104.8 293.1,108.8 289.1,112.8 285.1,108.8" fill="#1a6b3c"/>
<polygon points="336.5,148.5 340.5,152.5 336.5,156.5 332.5,152.5" fill="#1a6b3c"/>
<polyline fill="none" stroke="#1a3a6b" stroke-width="2" points="168.2,105.3 214.4,128.7 261.1,156.0 307.7,187.6 353.9,222.7 400.1,223.6 446.8,223.6 493.4,223.6 539.6,223.6"/>
<polygon points="168.2,100.3 167.0,103.6 163.5,103.7 166.3,105.9 165.3,109.3 168.2,107.3 171.1,109.3 170.1,105.9 173.0,103.7 169.4,103.6" fill="#1a3a6b"/>
<polygon points="214.4,123.7 213.2,127.1 209.7,127.2 212.5,129.3 211.5,132.7 214.4,130.7 217.4,132.7 216.3,129.3 219.2,127.2 215.6,127.1" fill="#1a3a6b"/>
<polygon points="261.1,151.0 259.9,154.4 256.3,154.5 259.2,156.6 258.1,160.0 261.1,158.0 264.0,160.0 263.0,156.6 265.8,154.5 262.3,154.4" fill="#1a3a6b"/>
<polygon points="307.7,182.6 306.6,186.0 303.0,186.1 305.8,188.2 304.8,191.7 307.7,189.6 310.7,191.7 309.6,188.2 312.5,186.1 308.9,186.0" fill="#1a3a6b"/>
<polygon points="353.9,217.7 352.7,221.1 349.2,221.2 352.0,223.4 351.0,226.8 353.9,224.7 356.9,226.8 355.8,223.4 358.7,221.2 355.1,221.1" fill="#1a3a6b"/>
<polygon points="400.1,218.6 399.0,221.9 395.4,222.0 398.2,224.2 397.2,227.6 400.1,225.6 403.1,227.6 402.0,224.2 404.9,222.0 401.3,221.9" fill="#1a3a6b"/>
<polygon points="446.8,218.6 445.6,221.9 442.0,222.0 444.9,224.2 443.9,227.6 446.8,225.6 449.7,227.6 448.7,224.2 451.6,222.0 448.0,221.9" fill="#1a3a6b"/>
<polygon points="493.4,218.6 492.3,221.9 488.7,222.0 491.5,224.2 490.5,227.6 493.4,225.6 496.4,227.6 495.3,224.2 498.2,222.0 494.6,221.9" fill="#1a3a6b"/>
<polygon points="539.6,218.6 538.5,221.9 534.9,222.0 537.7,224.2 536.7,227.6 539.6,225.6 542.6,227.6 541.5,224.2 544.4,222.0 540.8,221.9" fill="#1a3a6b"/>
<polyline fill="none" stroke="#111111" stroke-width="2" points="352.8,108.4"/>
<rect x="349.8" y="105.4" width="6" height="6" fill="#111111"/>
<polyline fill="none" stroke="#111111" stroke-width="2" points="538.5,108.4"/>
<polygon points="538.5,104.4 542.5,111.4 534.5,111.4" fill="#111111"/>
<polyline fill="none" stroke="#111111" stroke-width="2" points="538.5,281.2"/>
<polygon points="538.5,277.2 542.5,281.2 538.5,285.2 534.5,281.2" fill="#111111"/>
<polyline fill="none" stroke="#2a7fff" stroke-width="2" points="90.0,65.5 90.0,65.5 90.0,65.5 90.0,65.5 90.0,65.5 90.0,65.5 90.0,65.5 90.0,65.5 90.0,65.5 90.0,65.5 90.1,65.5 90.1,65.5 90.3,65.5 90.5,65.5 91.1,65.5 92.2,65.5 94.4,65.5 107.2,65.5 142.6,65.5 248.4,80.7 345.2,152.1"/>
<rect x="87.0" y="62.5" width="6" height="6" fill="#2a7fff"/>
<rect x="87.0" y="62.5" width="6" height="6" fill="#2a7fff"/>
<rect x="87.0" y="62.5" width="6" height="6" fill="#2a7fff"/>
<rect x="87.0" y="62.5" width="6" height="6" fill="#2a7fff"/>
<rect x="87.0" y="62.5" width="6" height="6" fill="#2a7fff"/>
<rect x="87.0" y="62.5" width="6" height="6" fill="#2a7fff"/>
<rect x="87.0" y="62.5" width="6" height="6" fill="#2a7fff"/>
<rect x="87.0" y="62.5" width="6" height="6" fill="#2a7fff"/>
<rect x="87.0" y="62.5" width="6" height="6" fill="#2a7fff"/>
<rect x="87.0" y="62.5" width="6" height="6" fill="#2a7fff"/>
<rect x="87.1" y="62.5" width="6" height="6" fill="#2a7fff"/>
<rect x="87.1" y="62.5" width="6" height="6" fill="#2a7fff"/>
<rect x="87.3" y="62.5" width="6" height="6" fill="#2a7fff"/>
<rect x="87.5" y="62.5" width="6" height="6" fill="#2a7fff"/>
<rect x="88.1" y="62.5" width="6" height="6" fill="#2a7fff"/>
<rect x="89.2" y="62.5" width="6" height="6" fill="#2a7fff"/>
<rect x="91.4" y="62.5" width="6" height="6" fill="#2a7fff"/>
<rect x="104.2" y="62.5" width="6" height="6" fill="#2a7fff"/>
<rect x="139.6" y="62.5" width="6" height="6" fill="#2a7fff"/>
<rect x="245.4" y="77.7" width="6" height="6" fill="#2a7fff"/>
<rect x="342.2" y="149.1" width="6" height="6" fill="#2a7fff"/>
<polyline fill="none" stroke="#9b59b6" stroke-width="2" points="90.0,65.5 90.0,65.5 90.0,65.5 90.0,65.5 90.0,65.5 90.0,65.5 90.0,65.5 90.0,65.5 90.0,65.5 90.0,65.5 90.1,65.5 90.1,65.5 90.2,65.5 90.4,65.7 90.9,66.2 91.7,67.3 93.3,69.5 100.5,77.8 117.9,91.9 200.0,136.8 335.1,208.5"/>
<polygon points="90.0,61.5 94.0,68.5 86.0,68.5" fill="#9b59b6"/>
<polygon points="90.0,61.5 94.0,68.5 86.0,68.5" fill="#9b59b6"/>
<polygon points="90.0,61.5 94.0,68.5 86.0,68.5" fill="#9b59b6"/>
<polygon points="90.0,61.5 94.0,68.5 86.0,68.5" fill="#9b59b6"/>
<polygon points="90.0,61.5 94.0,68.5 86.0,68.5" fill="#9b59b6"/>
<polygon points="90.0,61.5 94.0,68.5 86.0,68.5" fill="#9b59b6"/>
<polygon points="90.0,61.5 94.0,68.5 86.0,68.5" fill="#9b59b6"/>
<polygon points="90.0,61.5 94.0,68.5 86.0,68.5" fill="#9b59b6"/>
<polygon points="90.0,61.5 94.0,68.5 86.0,68.5" fill="#9b59b6"/>
<polygon points="90.0,61.5 94.0,68.5 86.0,68.5" fill="#9b59b6"/>
<polygon points="90.1,61.5 94.1,68.5 86.1,68.5" fill="#9b59b6"/>
<polygon points="90.1,61.5 94.1,68.5 86.1,68.5" fill="#9b59b6"/>
<polygon points="90.2,61.5 94.2,68.5 86.2,68.5" fill="#9b59b6"/>
<polygon points="90.4,61.7 94.4,68.7 86.4,68.7" fill="#9b59b6"/>
<polygon points="90.9,62.2 94.9,69.2 86.9,69.2" fill="#9b59b6"/>
<polygon points="91.7,63.3 95.7,70.3 87.7,70.3" fill="#9b59b6"/>
<polygon points="93.3,65.5 97.3,72.5 89.3,72.5" fill="#9b59b6"/>
<polygon points="100.5,73.8 104.5,80.8 96.5,80.8" fill="#9b59b6"/>
<polygon points="117.9,87.9 121.9,94.9 113.9,94.9" fill="#9b59b6"/>
<polygon points="200.0,132.8 204.0,139.8 196.0,139.8" fill="#9b59b6"/>
<polygon points="335.1,204.5 339.1,211.5 331.1,211.5" fill="#9b59b6"/>
<polyline fill="none" stroke="#4dd88a" stroke-width="2" points="90.0,65.5 90.0,65.5 90.0,65.5 90.0,65.5 90.0,65.5 90.0,65.5 90.0,65.5 90.0,65.5 90.0,65.5 90.0,65.5 90.1,65.5 90.1,65.5 90.3,65.5 90.5,65.5 91.1,65.5 92.2,65.5 94.4,65.5 107.2,65.5 142.6,65.5 248.4,80.7 345.2,152.1"/>
<polygon points="90.0,61.5 94.0,65.5 90.0,69.5 86.0,65.5" fill="#4dd88a"/>
<polygon points="90.0,61.5 94.0,65.5 90.0,69.5 86.0,65.5" fill="#4dd88a"/>
<polygon points="90.0,61.5 94.0,65.5 90.0,69.5 86.0,65.5" fill="#4dd88a"/>
<polygon points="90.0,61.5 94.0,65.5 90.0,69.5 86.0,65.5" fill="#4dd88a"/>
<polygon points="90.0,61.5 94.0,65.5 90.0,69.5 86.0,65.5" fill="#4dd88a"/>
<polygon points="90.0,61.5 94.0,65.5 90.0,69.5 86.0,65.5" fill="#4dd88a"/>
<polygon points="90.0,61.5 94.0,65.5 90.0,69.5 86.0,65.5" fill="#4dd88a"/>
<polygon points="90.0,61.5 94.0,65.5 90.0,69.5 86.0,65.5" fill="#4dd88a"/>
<polygon points="90.0,61.5 94.0,65.5 90.0,69.5 86.0,65.5" fill="#4dd88a"/>
<polygon points="90.0,61.5 94.0,65.5 90.0,69.5 86.0,65.5" fill="#4dd88a"/>
<polygon points="90.1,61.5 94.1,65.5 90.1,69.5 86.1,65.5" fill="#4dd88a"/>
<polygon points="90.1,61.5 94.1,65.5 90.1,69.5 86.1,65.5" fill="#4dd88a"/>
<polygon points="90.3,61.5 94.3,65.5 90.3,69.5 86.3,65.5" fill="#4dd88a"/>
<polygon points="90.5,61.5 94.5,65.5 90.5,69.5 86.5,65.5" fill="#4dd88a"/>
<polygon points="91.1,61.5 95.1,65.5 91.1,69.5 87.1,65.5" fill="#4dd88a"/>
<polygon points="92.2,61.5 96.2,65.5 92.2,69.5 88.2,65.5" fill="#4dd88a"/>
<polygon points="94.4,61.5 98.4,65.5 94.4,69.5 90.4,65.5" fill="#4dd88a"/>
<polygon points="107.2,61.5 111.2,65.5 107.2,69.5 103.2,65.5" fill="#4dd88a"/>
<polygon points="142.6,61.5 146.6,65.5 142.6,69.5 138.6,65.5" fill="#4dd88a"/>
<polygon points="248.4,76.7 252.4,80.7 248.4,84.7 244.4,80.7" fill="#4dd88a"/>
<polygon points="345.2,148.1 349.2,152.1 345.2,156.1 341.2,152.1" fill="#4dd88a"/>
<polyline fill="none" stroke="#ff6b6b" stroke-width="2" points="90.0,65.5 90.0,65.5 90.0,65.5 90.0,65.5 90.0,65.5 90.0,65.5 90.0,65.5 90.0,65.5 90.0,65.5 90.0,65.5 90.1,65.5 90.1,65.5 90.2,65.5 90.4,65.7 90.9,66.2 91.7,67.3 93.3,69.5 100.5,77.8 117.9,91.9 200.0,136.8 335.1,208.5"/>
<polygon points="90.0,60.5 88.8,63.9 85.2,64.0 88.1,66.1 87.1,69.5 90.0,67.5 92.9,69.5 91.9,66.1 94.8,64.0 91.2,63.9" fill="#ff6b6b"/>
<polygon points="90.0,60.5 88.8,63.9 85.2,64.0 88.1,66.1 87.1,69.5 90.0,67.5 92.9,69.5 91.9,66.1 94.8,64.0 91.2,63.9" fill="#ff6b6b"/>
<polygon points="90.0,60.5 88.8,63.9 85.2,64.0 88.1,66.1 87.1,69.5 90.0,67.5 92.9,69.5 91.9,66.1 94.8,64.0 91.2,63.9" fill="#ff6b6b"/>
<polygon points="90.0,60.5 88.8,63.9 85.2,64.0 88.1,66.1 87.1,69.5 90.0,67.5 92.9,69.5 91.9,66.1 94.8,64.0 91.2,63.9" fill="#ff6b6b"/>
<polygon points="90.0,60.5 88.8,63.9 85.2,64.0 88.1,66.1 87.1,69.5 90.0,67.5 92.9,69.5 91.9,66.1 94.8,64.0 91.2,63.9" fill="#ff6b6b"/>
<polygon points="90.0,60.5 88.8,63.9 85.2,64.0 88.1,66.1 87.1,69.5 90.0,67.5 92.9,69.5 91.9,66.1 94.8,64.0 91.2,63.9" fill="#ff6b6b"/>
<polygon points="90.0,60.5 88.8,63.9 85.2,64.0 88.1,66.1 87.1,69.5 90.0,67.5 92.9,69.5 91.9,66.1 94.8,64.0 91.2,63.9" fill="#ff6b6b"/>
<polygon points="90.0,60.5 88.8,63.9 85.3,64.0 88.1,66.1 87.1,69.5 90.0,67.5 92.9,69.5 91.9,66.1 94.8,64.0 91.2,63.9" fill="#ff6b6b"/>
<polygon points="90.0,60.5 88.8,63.9 85.3,64.0 88.1,66.1 87.1,69.5 90.0,67.5 93.0,69.5 91.9,66.1 94.8,64.0 91.2,63.9" fill="#ff6b6b"/>
<polygon points="90.0,60.5 88.9,63.9 85.3,64.0 88.1,66.1 87.1,69.5 90.0,67.5 93.0,69.5 91.9,66.1 94.8,64.0 91.2,63.9" fill="#ff6b6b"/>
<polygon points="90.1,60.5 88.9,63.9 85.3,64.0 88.2,66.1 87.1,69.5 90.1,67.5 93.0,69.5 92.0,66.1 94.8,64.0 91.2,63.9" fill="#ff6b6b"/>
<polygon points="90.1,60.5 88.9,63.9 85.4,64.0 88.2,66.1 87.2,69.5 90.1,67.5 93.1,69.5 92.0,66.1 94.9,64.0 91.3,63.9" fill="#ff6b6b"/>
<polygon points="90.2,60.5 89.0,63.9 85.5,64.0 88.3,66.1 87.3,69.6 90.2,67.5 93.2,69.6 92.1,66.1 95.0,64.0 91.4,63.9" fill="#ff6b6b"/>
<polygon points="90.4,60.7 89.3,64.1 85.7,64.1 88.5,66.3 87.5,69.7 90.4,67.7 93.4,69.7 92.4,66.3 95.2,64.1 91.6,64.1" fill="#ff6b6b"/>
<polygon points="90.9,61.2 89.7,64.5 86.1,64.6 89.0,66.8 87.9,70.2 90.9,68.2 93.8,70.2 92.8,66.8 95.6,64.6 92.1,64.5" fill="#ff6b6b"/>
<polygon points="91.7,62.3 90.5,65.7 87.0,65.7 89.8,67.9 88.8,71.3 91.7,69.3 94.7,71.3 93.6,67.9 96.5,65.7 92.9,65.7" fill="#ff6b6b"/>
<polygon points="93.3,64.5 92.1,67.8 88.5,67.9 91.4,70.1 90.3,73.5 93.3,71.5 96.2,73.5 95.2,70.1 98.0,67.9 94.4,67.8" fill="#ff6b6b"/>
<polygon points="100.5,72.8 99.3,76.2 95.7,76.2 98.6,78.4 97.5,81.8 100.5,79.8 103.4,81.8 102.4,78.4 105.2,76.2 101.6,76.2" fill="#ff6b6b"/>
<polygon points="117.9,86.9 116.7,90.3 113.1,90.4 116.0,92.5 114.9,96.0 117.9,93.9 120.8,96.0 119.8,92.5 122.6,90.4 119.0,90.3" fill="#ff6b6b"/>
<polygon points="200.0,131.8 198.8,135.2 195.2,135.2 198.1,137.4 197.0,140.8 200.0,138.8 202.9,140.8 201.9,137.4 204.7,135.2 201.1,135.2" fill="#ff6b6b"/>
<polygon points="335.1,203.5 334.0,206.9 330.4,207.0 333.2,209.1 332.2,212.6 335.1,210.5 338.1,212.6 337.0,209.1 339.9,207.0 336.3,206.9" fill="#ff6b6b"/>
<polyline fill="none" stroke="#888888" stroke-width="2" stroke-dasharray="8,5" points="332.9,116.2 367.6,131.6 412.5,152.1 446.2,167.4 479.9,182.7 524.2,203.7 557.7,218.6 591.2,234.8 635.5,253.8 669.0,267.6"/>
<circle cx="332.9" cy="116.2" r="3" fill="#888888"/>
<circle cx="367.6" cy="131.6" r="3" fill="#888888"/>
<circle cx="412.5" cy="152.1" r="3" fill="#888888"/>
<circle cx="446.2" cy="167.4" r="3" fill="#888888"/>
<circle cx="479.9" cy="182.7" r="3" fill="#888888"/>
<circle cx="524.2" cy="203.7" r="3" fill="#888888"/>
<circle cx="557.7" cy="218.6" r="3" fill="#888888"/>
<circle cx="591.2" cy="234.8" r="3" fill="#888888"/>
<circle cx="635.5" cy="253.8" r="3" fill="#888888"/>
<circle cx="669.0" cy="267.6" r="3" fill="#888888"/>
<line x1="886" y1="60" x2="902" y2="60" stroke="#ef4444" stroke-width="2" stroke-dasharray="8,5"/>
<circle cx="894.0" cy="60.0" r="3" fill="#ef4444"/>
<text class="label" x="908" y="64">Theoretical</text>
<line x1="886" y1="78" x2="902" y2="78" stroke="#1a6b3c" stroke-width="2"/>
<polygon points="894.0,74.0 898.0,78.0 894.0,82.0 890.0,78.0" fill="#1a6b3c"/>
<text class="label" x="908" y="82">Grafite</text>
<line x1="886" y1="96" x2="902" y2="96" stroke="#1a3a6b" stroke-width="2"/>
<polygon points="894.0,91.0 892.8,94.4 889.2,94.5 892.1,96.6 891.1,100.0 894.0,98.0 896.9,100.0 895.9,96.6 898.8,94.5 895.2,94.4" fill="#1a3a6b"/>
<text class="label" x="908" y="100">SNARF</text>
<line x1="886" y1="114" x2="902" y2="114" stroke="#111111" stroke-width="2"/>
<rect x="891.0" y="111.0" width="6" height="6" fill="#111111"/>
<text class="label" x="908" y="118">SuRF</text>
<line x1="886" y1="132" x2="902" y2="132" stroke="#111111" stroke-width="2"/>
<polygon points="894.0,128.0 898.0,135.0 890.0,135.0" fill="#111111"/>
<text class="label" x="908" y="136">SuRFHash(8)</text>
<line x1="886" y1="150" x2="902" y2="150" stroke="#111111" stroke-width="2"/>
<polygon points="894.0,146.0 898.0,150.0 894.0,154.0 890.0,150.0" fill="#111111"/>
<text class="label" x="908" y="154">SuRFReal(8)</text>
<line x1="886" y1="168" x2="902" y2="168" stroke="#2a7fff" stroke-width="2"/>
<rect x="891.0" y="165.0" width="6" height="6" fill="#2a7fff"/>
<text class="label" x="908" y="172">Adaptive (t=0)</text>
<line x1="886" y1="186" x2="902" y2="186" stroke="#9b59b6" stroke-width="2"/>
<polygon points="894.0,182.0 898.0,189.0 890.0,189.0" fill="#9b59b6"/>
<text class="label" x="908" y="190">Truncation</text>
<line x1="886" y1="204" x2="902" y2="204" stroke="#4dd88a" stroke-width="2"/>
<polygon points="894.0,200.0 898.0,204.0 894.0,208.0 890.0,204.0" fill="#4dd88a"/>
<text class="label" x="908" y="208">SODA</text>
<line x1="886" y1="222" x2="902" y2="222" stroke="#ff6b6b" stroke-width="2"/>
<polygon points="894.0,217.0 892.8,220.4 889.2,220.5 892.1,222.6 891.1,226.0 894.0,224.0 896.9,226.0 895.9,222.6 898.8,220.5 895.2,220.4" fill="#ff6b6b"/>
<text class="label" x="908" y="226">Hybrid</text>
<line x1="886" y1="240" x2="902" y2="240" stroke="#888888" stroke-width="2" stroke-dasharray="8,5"/>
<circle cx="894.0" cy="240.0" r="3" fill="#888888"/>
<text class="label" x="908" y="244">BloomARE</text>
<text x="480" y="590" text-anchor="middle">Bits per Key (BPK)</text>
<text transform="translate(16,295) rotate(-90)" text-anchor="middle">False Positive Rate (FPR)</text>
</svg>
