<svg xmlns="http://www.w3.org/2000/svg" width="1020" height="600" viewBox="0 0 1020 600">
<style>text{font-family:Menlo,Monaco,monospace;font-size:12px;fill:#222} .axis{stroke:#333;stroke-width:1} .grid{stroke:#eee;stroke-width:0.5} .label{font-size:11px;fill:#444}</style>
<text x="510" y="28" text-anchor="middle" style="font-size:14px;font-weight:bold">FPR vs BPK — sosd_wiki (60-bit keys, n=64358, L=1)</text>
<line class="axis" x1="90.0" y1="550.0" x2="870.0" y2="550.0"/>
<line class="axis" x1="90.0" y1="40.0" x2="90.0" y2="550.0"/>
<line class="grid" x1="90.0" y1="521.7" x2="870.0" y2="521.7"/>
<text class="label" x="82.0" y="525.7" text-anchor="end">10^-8</text>
<line class="grid" x1="90.0" y1="465.0" x2="870.0" y2="465.0"/>
<text class="label" x="82.0" y="469.0" text-anchor="end">10^-7</text>
<line class="grid" x1="90.0" y1="408.3" x2="870.0" y2="408.3"/>
<text class="label" x="82.0" y="412.3" text-anchor="end">10^-6</text>
<line class="grid" x1="90.0" y1="351.7" x2="870.0" y2="351.7"/>
<text class="label" x="82.0" y="355.7" text-anchor="end">10^-5</text>
<line class="grid" x1="90.0" y1="295.0" x2="870.0" y2="295.0"/>
<text class="label" x="82.0" y="299.0" text-anchor="end">10^-4</text>
<line class="grid" x1="90.0" y1="238.3" x2="870.0" y2="238.3"/>
<text class="label" x="82.0" y="242.3" text-anchor="end">10^-3</text>
<line class="grid" x1="90.0" y1="181.7" x2="870.0" y2="181.7"/>
<text class="label" x="82.0" y="185.7" text-anchor="end">10^-2</text>
<line class="grid" x1="90.0" y1="125.0" x2="870.0" y2="125.0"/>
<text class="label" x="82.0" y="129.0" text-anchor="end">10^-1</text>
<line class="grid" x1="90.0" y1="68.3" x2="870.0" y2="68.3"/>
<text class="label" x="82.0" y="72.3" text-anchor="end">1</text>
<line class="grid" x1="90.0" y1="40.0" x2="90.0" y2="550.0"/>
<text class="label" x="90.0" y="566.0" text-anchor="middle">0</text>
<line class="grid" x1="206.1" y1="40.0" x2="206.1" y2="550.0"/>
<text class="label" x="206.1" y="566.0" text-anchor="middle">5</text>
<line class="grid" x1="322.1" y1="40.0" x2="322.1" y2="550.0"/>
<text class="label" x="322.1" y="566.0" text-anchor="middle">10</text>
<line class="grid" x1="438.2" y1="40.0" x2="438.2" y2="550.0"/>
<text class="label" x="438.2" y="566.0" text-anchor="middle">15</text>
<line class="grid" x1="554.3" y1="40.0" x2="554.3" y2="550.0"/>
<text class="label" x="554.3" y="566.0" text-anchor="middle">20</text>
<line class="grid" x1="670.4" y1="40.0" x2="670.4" y2="550.0"/>
<text class="label" x="670.4" y="566.0" text-anchor="middle">25</text>
<line class="grid" x1="786.4" y1="40.0" x2="786.4" y2="550.0"/>
<text class="label" x="786.4" y="566.0" text-anchor="middle">30</text>
<polyline fill="none" stroke="#ef4444" stroke-width="2" stroke-dasharray="8,5" points="182.9,136.6 206.1,153.6 229.3,170.7 252.5,187.7 275.7,204.8 298.9,221.9 322.1,238.9 345.4,256.0 368.6,273.0 391.8,290.1 415.0,307.2 438.2,324.2 461.4,341.3 484.6,358.3 507.9,375.4 531.1,392.4 554.3,409.5 600.7,443.6 647.1,477.7 740.0,546.0 832.9,614.2"/>
<circle cx="182.9" cy="136.6" r="3" fill="#ef4444"/>
<circle cx="206.1" cy="153.6" r="3" fill="#ef4444"/>
<circle cx="229.3" cy="170.7" r="3" fill="#ef4444"/>
<circle cx="252.5" cy="187.7" r="3" fill="#ef4444"/>
<circle cx="275.7" cy="204.8" r="3" fill="#ef4444"/>
<circle cx="298.9" cy="221.9" r="3" fill="#ef4444"/>
<circle cx="322.1" cy="238.9" r="3" fill="#ef4444"/>
<circle cx="345.4" cy="256.0" r="3" fill="#ef4444"/>
<circle cx="368.6" cy="273.0" r="3" fill="#ef4444"/>
<circle cx="391.8" cy="290.1" r="3" fill="#ef4444"/>
<circle cx="415.0" cy="307.2" r="3" fill="#ef4444"/>
<circle cx="438.2" cy="324.2" r="3" fill="#ef4444"/>
<circle cx="461.4" cy="341.3" r="3" fill="#ef4444"/>
<circle cx="484.6" cy="358.3" r="3" fill="#ef4444"/>
<circle cx="507.9" cy="375.4" r="3" fill="#ef4444"/>
<circle cx="531.1" cy="392.4" r="3" fill="#ef4444"/>
<circle cx="554.3" cy="409.5" r="3" fill="#ef4444"/>
<circle cx="600.7" cy="443.6" r="3" fill="#ef4444"/>
<circle cx="647.1" cy="477.7" r="3" fill="#ef4444"/>
<circle cx="740.0" cy="546.0" r="3" fill="#ef4444"/>
<circle cx="832.9" cy="614.2" r="3" fill="#ef4444"/>
<polyline fill="none" stroke="#1a6b3c" stroke-width="2" points="189.9,105.5 241.6,138.3 290.5,174.4 337.7,213.9"/>
<polygon points="189.9,101.5 193.9,105.5 189.9,109.5 185.9,105.5" fill="#1a6b3c"/>
<polygon points="241.6,134.3 245.6,138.3 241.6,142.3 237.6,138.3" fill="#1a6b3c"/>
<polygon points="290.5,170.4 294.5,174.4 290.5,178.4 286.5,174.4" fill="#1a6b3c"/>
<polygon points="337.7,209.9 341.7,213.9 337.7,217.9 333.7,213.9" fill="#1a6b3c"/>
<polyline fill="none" stroke="#1a3a6b" stroke-width="2" points="168.5,97.7 214.7,123.9 261.3,155.2 308.0,191.7 354.2,236.6 400.4,312.8 447.0,343.4 493.7,402.4 539.9,521.7"/>
<polygon points="168.5,92.7 167.3,96.1 163.7,96.1 166.6,98.3 165.5,101.7 168.5,99.7 171.4,101.7 170.4,98.3 173.2,96.1 169.6,96.1" fill="#1a3a6b"/>
<polygon points="214.7,118.9 213.5,122.3 209.9,122.3 212.8,124.5 211.7,127.9 214.7,125.9 217.6,127.9 216.6,124.5 219.4,122.3 215.8,122.3" fill="#1a3a6b"/>
<polygon points="261.3,150.2 260.1,153.6 256.5,153.7 259.4,155.8 258.3,159.3 261.3,157.2 264.2,159.3 263.2,155.8 266.0,153.7 262.5,153.6" fill="#1a3a6b"/>
<polygon points="308.0,186.7 306.8,190.0 303.2,190.1 306.1,192.3 305.0,195.7 308.0,193.7 310.9,195.7 309.9,192.3 312.7,190.1 309.2,190.0" fill="#1a3a6b"/>
<polygon points="354.2,231.6 353.0,235.0 349.4,235.0 352.3,237.2 351.2,240.6 354.2,238.6 357.1,240.6 356.1,237.2 358.9,235.0 355.4,235.0" fill="#1a3a6b"/>
<polygon points="400.4,307.8 399.2,311.2 395.6,311.3 398.5,313.5 397.4,316.9 400.4,314.8 403.3,316.9 402.3,313.5 405.1,311.3 401.6,311.2" fill="#1a3a6b"/>
<polygon points="447.0,338.4 445.8,341.7 442.2,341.8 445.1,344.0 444.1,347.4 447.0,345.4 449.9,347.4 448.9,344.0 451.8,341.8 448.2,341.7" fill="#1a3a6b"/>
<polygon points="493.7,397.4 492.5,400.7 488.9,400.8 491.8,403.0 490.8,406.4 493.7,404.4 496.6,406.4 495.6,403.0 498.4,400.8 494.9,400.7" fill="#1a3a6b"/>
<polygon points="539.9,516.7 538.7,520.0 535.1,520.1 538.0,522.3 537.0,525.7 539.9,523.7 542.8,525.7 541.8,522.3 544.6,520.1 541.1,520.0" fill="#1a3a6b"/>
<polyline fill="none" stroke="#111111" stroke-width="2" points="359.0,116.1"/>
<rect x="356.0" y="113.1" width="6" height="6" fill="#111111"/>
<polyline fill="none" stroke="#111111" stroke-width="2" points="544.7,116.1"/>
<polygon points="544.7,112.1 548.7,119.1 540.7,119.1" fill="#111111"/>
<polyline fill="none" stroke="#111111" stroke-width="2" points="544.7,362.8"/>
<polygon points="544.7,358.8 548.7,362.8 544.7,366.8 540.7,362.8" fill="#111111"/>
<polyline fill="none" stroke="#2a7fff" stroke-width="2" points="90.0,68.3 90.0,68.3 90.1,68.3 90.1,68.3 90.3,68.3 90.6,68.3 91.1,68.3 92.2,68.3 94.4,68.3 98.9,68.3 107.5,68.9 122.1,72.1 143.2,79.9 168.8,91.7 196.2,106.0 223.2,121.7 249.2,138.5 298.5,175.0 345.7,219.4 369.0,521.7 369.0,521.7"/>
<rect x="87.0" y="65.3" width="6" height="6" fill="#2a7fff"/>
<rect x="87.0" y="65.3" width="6" height="6" fill="#2a7fff"/>
<rect x="87.1" y="65.3" width="6" height="6" fill="#2a7fff"/>
<rect x="87.1" y="65.3" width="6" height="6" fill="#2a7fff"/>
<rect x="87.3" y="65.3" width="6" height="6" fill="#2a7fff"/>
<rect x="87.6" y="65.3" width="6" height="6" fill="#2a7fff"/>
<rect x="88.1" y="65.3" width="6" height="6" fill="#2a7fff"/>
<rect x="89.2" y="65.3" width="6" height="6" fill="#2a7fff"/>
<rect x="91.4" y="65.3" width="6" height="6" fill="#2a7fff"/>
<rect x="95.9" y="65.3" width="6" height="6" fill="#2a7fff"/>
<rect x="104.5" y="65.9" width="6" height="6" fill="#2a7fff"/>
<rect x="119.1" y="69.1" width="6" height="6" fill="#2a7fff"/>
<rect x="140.2" y="76.9" width="6" height="6" fill="#2a7fff"/>
<rect x="165.8" y="88.7" width="6" height="6" fill="#2a7fff"/>
<rect x="193.2" y="103.0" width="6" height="6" fill="#2a7fff"/>
<rect x="220.2" y="118.7" width="6" height="6" fill="#2a7fff"/>
<rect x="246.2" y="135.5" width="6" height="6" fill="#2a7fff"/>
<rect x="295.5" y="172.0" width="6" height="6" fill="#2a7fff"/>
<rect x="342.7" y="216.4" width="6" height="6" fill="#2a7fff"/>
<rect x="366.0" y="518.7" width="6" height="6" fill="#2a7fff"/>
<rect x="366.0" y="518.7" width="6" height="6" fill="#2a7fff"/>
<polyline fill="none" stroke="#9b59b6" stroke-width="2" points="90.0,68.3 90.0,68.3 90.1,68.3 90.1,68.3 90.3,68.3 90.5,68.4 91.0,68.6 91.9,70.0 93.6,72.5 96.7,76.1 102.2,80.5 111.0,86.0 125.0,92.5 146.1,100.7 172.5,110.9 203.9,123.1 237.0,137.3 294.8,171.9 345.0,219.9 438.6,521.7 531.5,521.7"/>
<polygon points="90.0,64.3 94.0,71.3 86.0,71.3" fill="#9b59b6"/>
<polygon points="90.0,64.3 94.0,71.3 86.0,71.3" fill="#9b59b6"/>
<polygon points="90.1,64.3 94.1,71.3 86.1,71.3" fill="#9b59b6"/>
<polygon points="90.1,64.3 94.1,71.3 86.1,71.3" fill="#9b59b6"/>
<polygon points="90.3,64.3 94.3,71.3 86.3,71.3" fill="#9b59b6"/>
<polygon points="90.5,64.4 94.5,71.4 86.5,71.4" fill="#9b59b6"/>
<polygon points="91.0,64.6 95.0,71.6 87.0,71.6" fill="#9b59b6"/>
<polygon points="91.9,66.0 95.9,73.0 87.9,73.0" fill="#9b59b6"/>
<polygon points="93.6,68.5 97.6,75.5 89.6,75.5" fill="#9b59b6"/>
<polygon points="96.7,72.1 100.7,79.1 92.7,79.1" fill="#9b59b6"/>
<polygon points="102.2,76.5 106.2,83.5 98.2,83.5" fill="#9b59b6"/>
<polygon points="111.0,82.0 115.0,89.0 107.0,89.0" fill="#9b59b6"/>
<polygon points="125.0,88.5 129.0,95.5 121.0,95.5" fill="#9b59b6"/>
<polygon points="146.1,96.7 150.1,103.7 142.1,103.7" fill="#9b59b6"/>
<polygon points="172.5,106.9 176.5,113.9 168.5,113.9" fill="#9b59b6"/>
<polygon points="203.9,119.1 207.9,126.1 199.9,126.1" fill="#9b59b6"/>
<polygon points="237.0,133.3 241.0,140.3 233.0,140.3" fill="#9b59b6"/>
<polygon points="294.8,167.9 298.8,174.9 290.8,174.9" fill="#9b59b6"/>
<polygon points="345.0,215.9 349.0,222.9 341.0,222.9" fill="#9b59b6"/>
<polygon points="438.6,517.7 442.6,524.7 434.6,524.7" fill="#9b59b6"/>
<polygon points="531.5,517.7 535.5,524.7 527.5,524.7" fill="#9b59b6"/>
<polyline fill="none" stroke="#4dd88a" stroke-width="2" points="90.0,68.3 90.0,68.3 90.1,68.3 90.1,68.3 90.3,68.3 90.6,68.3 91.1,68.3 92.2,68.3 94.4,68.3 98.9,68.3 107.5,68.9 122.1,72.1 143.2,79.9 168.8,91.7 196.2,106.0 223.2,121.7 249.2,138.5 298.5,175.0 345.7,219.4 438.6,521.7 531.5,521.7"/>
<polygon points="90.0,64.3 94.0,68.3 90.0,72.3 86.0,68.3" fill="#4dd88a"/>
<polygon points="90.0,64.3 94.0,68.3 90.0,72.3 86.0,68.3" fill="#4dd88a"/>
<polygon points="90.1,64.3 94.1,68.3 90.1,72.3 86.1,68.3" fill="#4dd88a"/>
<polygon points="90.1,64.3 94.1,68.3 90.1,72.3 86.1,68.3" fill="#4dd88a"/>
<polygon points="90.3,64.3 94.3,68.3 90.3,72.3 86.3,68.3" fill="#4dd88a"/>
<polygon points="90.6,64.3 94.6,68.3 90.6,72.3 86.6,68.3" fill="#4dd88a"/>
<polygon points="91.1,64.3 95.1,68.3 91.1,72.3 87.1,68.3" fill="#4dd88a"/>
<polygon points="92.2,64.3 96.2,68.3 92.2,72.3 88.2,68.3" fill="#4dd88a"/>
<polygon points="94.4,64.3 98.4,68.3 94.4,72.3 90.4,68.3" fill="#4dd88a"/>
<polygon points="98.9,64.3 102.9,68.3 98.9,72.3 94.9,68.3" fill="#4dd88a"/>
<polygon points="107.5,64.9 111.5,68.9 107.5,72.9 103.5,68.9" fill="#4dd88a"/>
<polygon points="122.1,68.1 126.1,72.1 122.1,76.1 118.1,72.1" fill="#4dd88a"/>
<polygon points="143.2,75.9 147.2,79.9 143.2,83.9 139.2,79.9" fill="#4dd88a"/>
<polygon points="168.8,87.7 172.8,91.7 168.8,95.7 164.8,91.7" fill="#4dd88a"/>
<polygon points="196.2,102.0 200.2,106.0 196.2,110.0 192.2,106.0" fill="#4dd88a"/>
<polygon points="223.2,117.7 227.2,121.7 223.2,125.7 219.2,121.7" fill="#4dd88a"/>
<polygon points="249.2,134.5 253.2,138.5 249.2,142.5 245.2,138.5" fill="#4dd88a"/>
<polygon points="298.5,171.0 302.5,175.0 298.5,179.0 294.5,175.0" fill="#4dd88a"/>
<polygon points="345.7,215.4 349.7,219.4 345.7,223.4 341.7,219.4" fill="#4dd88a"/>
<polygon points="438.6,517.7 442.6,521.7 438.6,525.7 434.6,521.7" fill="#4dd88a"/>
<polygon points="531.5,517.7 535.5,521.7 531.5,525.7 527.5,521.7" fill="#4dd88a"/>
<polyline fill="none" stroke="#ff6b6b" stroke-width="2" points="91.3,68.3 91.7,68.3 92.5,68.3 94.0,68.3 96.9,68.4 102.0,68.5 109.6,69.1 119.7,71.1 131.3,74.2 144.5,78.5 159.5,83.9 176.8,90.3 198.1,98.1 221.6,107.8 244.7,119.6 266.3,133.1 285.1,148.3 318.0,183.7 347.5,232.6 404.4,521.7 461.0,521.7"/>
<polygon points="91.3,63.3 90.2,66.7 86.6,66.8 89.4,69.0 88.4,72.4 91.3,70.3 94.3,72.4 93.3,69.0 96.1,66.8 92.5,66.7" fill="#ff6b6b"/>
<polygon points="91.7,63.3 90.6,66.7 87.0,66.8 89.8,69.0 88.8,72.4 91.7,70.3 94.7,72.4 93.6,69.0 96.5,66.8 92.9,66.7" fill="#ff6b6b"/>
<polygon points="92.5,63.3 91.3,66.7 87.7,66.8 90.6,69.0 89.5,72.4 92.5,70.3 95.4,72.4 94.4,69.0 97.2,66.8 93.7,66.7" fill="#ff6b6b"/>
<polygon points="94.0,63.3 92.8,66.7 89.2,66.8 92.1,69.0 91.1,72.4 94.0,70.3 96.9,72.4 95.9,69.0 98.8,66.8 95.2,66.7" fill="#ff6b6b"/>
<polygon points="96.9,63.4 95.7,66.7 92.2,66.8 95.0,69.0 94.0,72.4 96.9,70.4 99.9,72.4 98.8,69.0 101.7,66.8 98.1,66.7" fill="#ff6b6b"/>
<polygon points="102.0,63.5 100.8,66.9 97.2,67.0 100.1,69.2 99.0,72.6 102.0,70.5 104.9,72.6 103.9,69.2 106.7,67.0 103.1,66.9" fill="#ff6b6b"/>
<polygon points="109.6,64.1 108.5,67.5 104.9,67.6 107.7,69.8 106.7,73.2 109.6,71.1 112.6,73.2 111.5,69.8 114.4,67.6 110.8,67.5" fill="#ff6b6b"/>
<polygon points="119.7,66.1 118.5,69.5 114.9,69.5 117.8,71.7 116.7,75.1 119.7,73.1 122.6,75.1 121.6,71.7 124.4,69.5 120.8,69.5" fill="#ff6b6b"/>
<polygon points="131.3,69.2 130.2,72.6 126.6,72.7 129.4,74.8 128.4,78.3 131.3,76.2 134.3,78.3 133.2,74.8 136.1,72.7 132.5,72.6" fill="#ff6b6b"/>
<polygon points="144.5,73.5 143.4,76.9 139.8,77.0 142.6,79.2 141.6,82.6 144.5,80.5 147.5,82.6 146.5,79.2 149.3,77.0 145.7,76.9" fill="#ff6b6b"/>
<polygon points="159.5,78.9 158.3,82.2 154.7,82.3 157.6,84.5 156.6,87.9 159.5,85.9 162.4,87.9 161.4,84.5 164.3,82.3 160.7,82.2" fill="#ff6b6b"/>
<polygon points="176.8,85.3 175.6,88.7 172.0,88.8 174.9,90.9 173.8,94.4 176.8,92.3 179.7,94.4 178.7,90.9 181.5,88.8 178.0,88.7" fill="#ff6b6b"/>
<polygon points="198.1,93.1 196.9,96.5 193.3,96.6 196.1,98.7 195.1,102.2 198.1,100.1 201.0,102.2 200.0,98.7 202.8,96.6 199.2,96.5" fill="#ff6b6b"/>
<polygon points="221.6,102.8 220.5,106.2 216.9,106.3 219.7,108.5 218.7,111.9 221.6,109.8 224.6,111.9 223.5,108.5 226.4,106.3 222.8,106.2" fill="#ff6b6b"/>
<polygon points="244.7,114.6 243.5,118.0 239.9,118.0 242.8,120.2 241.8,123.6 244.7,121.6 247.6,123.6 246.6,120.2 249.5,118.0 245.9,118.0" fill="#ff6b6b"/>
<polygon points="266.3,128.1 265.1,131.5 261.5,131.6 264.4,133.7 263.4,137.1 266.3,135.1 269.2,137.1 268.2,133.7 271.0,131.6 267.5,131.5" fill="#ff6b6b"/>
<polygon points="285.1,143.3 284.0,146.6 280.4,146.7 283.2,148.9 282.2,152.3 285.1,150.3 288.1,152.3 287.0,148.9 289.9,146.7 286.3,146.6" fill="#ff6b6b"/>
<polygon points="318.0,178.7 316.8,182.1 313.2,182.2 316.1,184.4 315.0,187.8 318.0,185.7 320.9,187.8 319.9,184.4 322.7,182.2 319.1,182.1" fill="#ff6b6b"/>
<polygon points="347.5,227.6 346.3,230.9 342.8,231.0 345.6,233.2 344.6,236.6 347.5,234.6 350.5,236.6 349.4,233.2 352.3,231.0 348.7,230.9" fill="#ff6b6b"/>
<polygon points="404.4,516.7 403.2,520.0 399.6,520.1 402.5,522.3 401.4,525.7 404.4,523.7 407.3,525.7 406.3,522.3 409.1,520.1 405.5,520.0" fill="#ff6b6b"/>
<polygon points="461.0,516.7 459.8,520.0 456.2,520.1 459.1,522.3 458.0,525.7 461.0,523.7 463.9,525.7 462.9,522.3 465.7,520.1 462.1,520.0" fill="#ff6b6b"/>
<polyline fill="none" stroke="#ff922b" stroke-width="2" points="293.4,139.4 319.4,155.7 344.3,173.4 368.5,192.6 392.2,213.6 415.5,235.5 438.7,260.1 461.9,292.7 508.3,521.7 531.6,521.7"/>
<circle cx="293.4" cy="139.4" r="3" fill="#ff922b"/>
<circle cx="319.4" cy="155.7" r="3" fill="#ff922b"/>
<circle cx="344.3" cy="173.4" r="3" fill="#ff922b"/>
<circle cx="368.5" cy="192.6" r="3" fill="#ff922b"/>
<circle cx="392.2" cy="213.6" r="3" fill="#ff922b"/>
<circle cx="415.5" cy="235.5" r="3" fill="#ff922b"/>
<circle cx="438.7" cy="260.1" r="3" fill="#ff922b"/>
<circle cx="461.9" cy="292.7" r="3" fill="#ff922b"/>
<circle cx="508.3" cy="521.7" r="3" fill="#ff922b"/>
<circle cx="531.6" cy="521.7" r="3" fill="#ff922b"/>
<polyline fill="none" stroke="#888888" stroke-width="2" stroke-dasharray="8,5" points="201.3,124.3 234.7,141.5 279.0,164.7 312.5,181.0 346.0,199.0 390.3,220.4 423.8,238.2 457.3,255.2 501.5,278.7 535.0,298.2"/>
<circle cx="201.3" cy="124.3" r="3" fill="#888888"/>
<circle cx="234.7" cy="141.5" r="3" fill="#888888"/>
<circle cx="279.0" cy="164.7" r="3" fill="#888888"/>
<circle cx="312.5" cy="181.0" r="3" fill="#888888"/>
<circle cx="346.0" cy="199.0" r="3" fill="#888888"/>
<circle cx="390.3" cy="220.4" r="3" fill="#888888"/>
<circle cx="423.8" cy="238.2" r="3" fill="#888888"/>
<circle cx="457.3" cy="255.2" r="3" fill="#888888"/>
<circle cx="501.5" cy="278.7" r="3" fill="#888888"/>
<circle cx="535.0" cy="298.2" r="3" fill="#888888"/>
<line x1="886" y1="60" x2="902" y2="60" stroke="#ef4444" stroke-width="2" stroke-dasharray="8,5"/>
<circle cx="894.0" cy="60.0" r="3" fill="#ef4444"/>
<text class="label" x="908" y="64">Theoretical</text>
<line x1="886" y1="78" x2="902" y2="78" stroke="#1a6b3c" stroke-width="2"/>
<polygon points="894.0,74.0 898.0,78.0 894.0,82.0 890.0,78.0" fill="#1a6b3c"/>
<text class="label" x="908" y="82">Grafite</text>
<line x1="886" y1="96" x2="902" y2="96" stroke="#1a3a6b" stroke-width="2"/>
<polygon points="894.0,91.0 892.8,94.4 889.2,94.5 892.1,96.6 891.1,100.0 894.0,98.0 896.9,100.0 895.9,96.6 898.8,94.5 895.2,94.4" fill="#1a3a6b"/>
<text class="label" x="908" y="100">SNARF</text>
<line x1="886" y1="114" x2="902" y2="114" stroke="#111111" stroke-width="2"/>
<rect x="891.0" y="111.0" width="6" height="6" fill="#111111"/>
<text class="label" x="908" y="118">SuRF</text>
<line x1="886" y1="132" x2="902" y2="132" stroke="#111111" stroke-width="2"/>
<polygon points="894.0,128.0 898.0,135.0 890.0,135.0" fill="#111111"/>
<text class="label" x="908" y="136">SuRFHash(8)</text>
<line x1="886" y1="150" x2="902" y2="150" stroke="#111111" stroke-width="2"/>
<polygon points="894.0,146.0 898.0,150.0 894.0,154.0 890.0,150.0" fill="#111111"/>
<text class="label" x="908" y="154">SuRFReal(8)</text>
<line x1="886" y1="168" x2="902" y2="168" stroke="#2a7fff" stroke-width="2"/>
<rect x="891.0" y="165.0" width="6" height="6" fill="#2a7fff"/>
<text class="label" x="908" y="172">Adaptive (t=0)</text>
<line x1="886" y1="186" x2="902" y2="186" stroke="#9b59b6" stroke-width="2"/>
<polygon points="894.0,182.0 898.0,189.0 890.0,189.0" fill="#9b59b6"/>
<text class="label" x="908" y="190">Truncation</text>
<line x1="886" y1="204" x2="902" y2="204" stroke="#4dd88a" stroke-width="2"/>
<polygon points="894.0,200.0 898.0,204.0 894.0,208.0 890.0,204.0" fill="#4dd88a"/>
<text class="label" x="908" y="208">SODA</text>
<line x1="886" y1="222" x2="902" y2="222" stroke="#ff6b6b" stroke-width="2"/>
<polygon points="894.0,217.0 892.8,220.4 889.2,220.5 892.1,222.6 891.1,226.0 894.0,224.0 896.9,226.0 895.9,222.6 898.8,220.5 895.2,220.4" fill="#ff6b6b"/>
<text class="label" x="908" y="226">Hybrid</text>
<line x1="886" y1="240" x2="902" y2="240" stroke="#ff922b" stroke-width="2"/>
<circle cx="894.0" cy="240.0" r="3" fill="#ff922b"/>
<text class="label" x="908" y="244">CDF-ARE</text>
<line x1="886" y1="258" x2="902" y2="258" stroke="#888888" stroke-width="2" stroke-dasharray="8,5"/>
<circle cx="894.0" cy="258.0" r="3" fill="#888888"/>
<text class="label" x="908" y="262">BloomARE</text>
<text x="480" y="590" text-anchor="middle">Bits per Key (BPK)</text>
<text transform="translate(16,295) rotate(-90)" text-anchor="middle">False Positive Rate (FPR)</text>
</svg>
