<svg xmlns="http://www.w3.org/2000/svg" width="1020" height="600" viewBox="0 0 1020 600">
<style>text{font-family:Menlo,Monaco,monospace;font-size:12px;fill:#222} .axis{stroke:#333;stroke-width:1} .grid{stroke:#eee;stroke-width:0.5} .label{font-size:11px;fill:#444}</style>
<text x="510" y="28" text-anchor="middle" style="font-size:14px;font-weight:bold">FPR vs BPK — sosd_wiki (60-bit keys, n=64358, L=1024)</text>
<line class="axis" x1="90.0" y1="550.0" x2="870.0" y2="550.0"/>
<line class="axis" x1="90.0" y1="40.0" x2="90.0" y2="550.0"/>
<line class="grid" x1="90.0" y1="521.7" x2="870.0" y2="521.7"/>
<text class="label" x="82.0" y="525.7" text-anchor="end">10^-8</text>
<line class="grid" x1="90.0" y1="465.0" x2="870.0" y2="465.0"/>
<text class="label" x="82.0" y="469.0" text-anchor="end">10^-7</text>
<line class="grid" x1="90.0" y1="408.3" x2="870.0" y2="408.3"/>
<text class="label" x="82.0" y="412.3" text-anchor="end">10^-6</text>
<line class="grid" x1="90.0" y1="351.7" x2="870.0" y2="351.7"/>
<text class="label" x="82.0" y="355.7" text-anchor="end">10^-5</text>
<line class="grid" x1="90.0" y1="295.0" x2="870.0" y2="295.0"/>
<text class="label" x="82.0" y="299.0" text-anchor="end">10^-4</text>
<line class="grid" x1="90.0" y1="238.3" x2="870.0" y2="238.3"/>
<text class="label" x="82.0" y="242.3" text-anchor="end">10^-3</text>
<line class="grid" x1="90.0" y1="181.7" x2="870.0" y2="181.7"/>
<text class="label" x="82.0" y="185.7" text-anchor="end">10^-2</text>
<line class="grid" x1="90.0" y1="125.0" x2="870.0" y2="125.0"/>
<text class="label" x="82.0" y="129.0" text-anchor="end">10^-1</text>
<line class="grid" x1="90.0" y1="68.3" x2="870.0" y2="68.3"/>
<text class="label" x="82.0" y="72.3" text-anchor="end">1</text>
<line class="grid" x1="90.0" y1="40.0" x2="90.0" y2="550.0"/>
<text class="label" x="90.0" y="566.0" text-anchor="middle">0</text>
<line class="grid" x1="200.6" y1="40.0" x2="200.6" y2="550.0"/>
<text class="label" x="200.6" y="566.0" text-anchor="middle">5</text>
<line class="grid" x1="311.1" y1="40.0" x2="311.1" y2="550.0"/>
<text class="label" x="311.1" y="566.0" text-anchor="middle">10</text>
<line class="grid" x1="421.7" y1="40.0" x2="421.7" y2="550.0"/>
<text class="label" x="421.7" y="566.0" text-anchor="middle">15</text>
<line class="grid" x1="532.2" y1="40.0" x2="532.2" y2="550.0"/>
<text class="label" x="532.2" y="566.0" text-anchor="middle">20</text>
<line class="grid" x1="642.8" y1="40.0" x2="642.8" y2="550.0"/>
<text class="label" x="642.8" y="566.0" text-anchor="middle">25</text>
<line class="grid" x1="753.3" y1="40.0" x2="753.3" y2="550.0"/>
<text class="label" x="753.3" y="566.0" text-anchor="middle">30</text>
<line class="grid" x1="863.9" y1="40.0" x2="863.9" y2="550.0"/>
<text class="label" x="863.9" y="566.0" text-anchor="middle">35</text>
<polyline fill="none" stroke="#ef4444" stroke-width="2" stroke-dasharray="8,5" points="311.1,68.3 333.2,85.4 355.3,102.5 377.4,119.5 399.6,136.6 421.7,153.6 443.8,170.7 465.9,187.7 488.0,204.8 510.1,221.9 532.2,238.9 576.4,273.0 620.7,307.2 709.1,375.4 797.5,443.6"/>
<circle cx="311.1" cy="68.3" r="3" fill="#ef4444"/>
<circle cx="333.2" cy="85.4" r="3" fill="#ef4444"/>
<circle cx="355.3" cy="102.5" r="3" fill="#ef4444"/>
<circle cx="377.4" cy="119.5" r="3" fill="#ef4444"/>
<circle cx="399.6" cy="136.6" r="3" fill="#ef4444"/>
<circle cx="421.7" cy="153.6" r="3" fill="#ef4444"/>
<circle cx="443.8" cy="170.7" r="3" fill="#ef4444"/>
<circle cx="465.9" cy="187.7" r="3" fill="#ef4444"/>
<circle cx="488.0" cy="204.8" r="3" fill="#ef4444"/>
<circle cx="510.1" cy="221.9" r="3" fill="#ef4444"/>
<circle cx="532.2" cy="238.9" r="3" fill="#ef4444"/>
<circle cx="576.4" cy="273.0" r="3" fill="#ef4444"/>
<circle cx="620.7" cy="307.2" r="3" fill="#ef4444"/>
<circle cx="709.1" cy="375.4" r="3" fill="#ef4444"/>
<circle cx="797.5" cy="443.6" r="3" fill="#ef4444"/>
<polyline fill="none" stroke="#1a6b3c" stroke-width="2" points="185.1,68.3 234.4,68.3 281.0,68.5 325.9,90.1"/>
<polygon points="185.1,64.3 189.1,68.3 185.1,72.3 181.1,68.3" fill="#1a6b3c"/>
<polygon points="234.4,64.3 238.4,68.3 234.4,72.3 230.4,68.3" fill="#1a6b3c"/>
<polygon points="281.0,64.5 285.0,68.5 281.0,72.5 277.0,68.5" fill="#1a6b3c"/>
<polygon points="325.9,86.1 329.9,90.1 325.9,94.1 321.9,90.1" fill="#1a6b3c"/>
<polyline fill="none" stroke="#1a3a6b" stroke-width="2" points="164.7,106.7 208.7,126.3 253.1,137.1 297.6,140.9 341.6,142.0 385.6,142.3 430.0,142.3 474.5,142.3 518.5,142.3"/>
<polygon points="164.7,101.7 163.6,105.1 160.0,105.2 162.8,107.3 161.8,110.8 164.7,108.7 167.7,110.8 166.6,107.3 169.5,105.2 165.9,105.1" fill="#1a3a6b"/>
<polygon points="208.7,121.3 207.6,124.7 204.0,124.8 206.8,127.0 205.8,130.4 208.7,128.3 211.7,130.4 210.7,127.0 213.5,124.8 209.9,124.7" fill="#1a3a6b"/>
<polygon points="253.1,132.1 252.0,135.4 248.4,135.5 251.2,137.7 250.2,141.1 253.1,139.1 256.1,141.1 255.0,137.7 257.9,135.5 254.3,135.4" fill="#1a3a6b"/>
<polygon points="297.6,135.9 296.4,139.3 292.9,139.4 295.7,141.5 294.7,145.0 297.6,142.9 300.6,145.0 299.5,141.5 302.4,139.4 298.8,139.3" fill="#1a3a6b"/>
<polygon points="341.6,137.0 340.4,140.4 336.9,140.5 339.7,142.6 338.7,146.1 341.6,144.0 344.6,146.1 343.5,142.6 346.4,140.5 342.8,140.4" fill="#1a3a6b"/>
<polygon points="385.6,137.3 384.5,140.7 380.9,140.7 383.7,142.9 382.7,146.3 385.6,144.3 388.6,146.3 387.5,142.9 390.4,140.7 386.8,140.7" fill="#1a3a6b"/>
<polygon points="430.0,137.3 428.9,140.7 425.3,140.7 428.1,142.9 427.1,146.3 430.0,144.3 433.0,146.3 431.9,142.9 434.8,140.7 431.2,140.7" fill="#1a3a6b"/>
<polygon points="474.5,137.3 473.3,140.7 469.7,140.8 472.6,142.9 471.6,146.3 474.5,144.3 477.4,146.3 476.4,142.9 479.3,140.8 475.7,140.7" fill="#1a3a6b"/>
<polygon points="518.5,137.3 517.3,140.7 513.8,140.8 516.6,142.9 515.6,146.3 518.5,144.3 521.4,146.3 520.4,142.9 523.3,140.8 519.7,140.7" fill="#1a3a6b"/>
<polyline fill="none" stroke="#111111" stroke-width="2" points="346.2,133.7"/>
<rect x="343.2" y="130.7" width="6" height="6" fill="#111111"/>
<polyline fill="none" stroke="#111111" stroke-width="2" points="523.1,133.7"/>
<polygon points="523.1,129.7 527.1,136.7 519.1,136.7" fill="#111111"/>
<polyline fill="none" stroke="#111111" stroke-width="2" points="523.1,337.9"/>
<polygon points="523.1,333.9 527.1,337.9 523.1,341.9 519.1,337.9" fill="#111111"/>
<polyline fill="none" stroke="#2a7fff" stroke-width="2" points="90.0,68.3 90.0,68.3 90.1,68.3 90.1,68.3 90.3,68.3 90.5,68.3 91.1,68.3 92.1,68.3 94.2,68.3 98.4,68.3 106.6,68.3 120.6,68.3 140.7,68.3 165.0,68.3 191.1,68.3 216.9,68.3 241.6,68.3 288.6,68.4 333.5,82.8 355.7,521.7 355.7,521.7"/>
<rect x="87.0" y="65.3" width="6" height="6" fill="#2a7fff"/>
<rect x="87.0" y="65.3" width="6" height="6" fill="#2a7fff"/>
<rect x="87.1" y="65.3" width="6" height="6" fill="#2a7fff"/>
<rect x="87.1" y="65.3" width="6" height="6" fill="#2a7fff"/>
<rect x="87.3" y="65.3" width="6" height="6" fill="#2a7fff"/>
<rect x="87.5" y="65.3" width="6" height="6" fill="#2a7fff"/>
<rect x="88.1" y="65.3" width="6" height="6" fill="#2a7fff"/>
<rect x="89.1" y="65.3" width="6" height="6" fill="#2a7fff"/>
<rect x="91.2" y="65.3" width="6" height="6" fill="#2a7fff"/>
<rect x="95.4" y="65.3" width="6" height="6" fill="#2a7fff"/>
<rect x="103.6" y="65.3" width="6" height="6" fill="#2a7fff"/>
<rect x="117.6" y="65.3" width="6" height="6" fill="#2a7fff"/>
<rect x="137.7" y="65.3" width="6" height="6" fill="#2a7fff"/>
<rect x="162.0" y="65.3" width="6" height="6" fill="#2a7fff"/>
<rect x="188.1" y="65.3" width="6" height="6" fill="#2a7fff"/>
<rect x="213.9" y="65.3" width="6" height="6" fill="#2a7fff"/>
<rect x="238.6" y="65.3" width="6" height="6" fill="#2a7fff"/>
<rect x="285.6" y="65.4" width="6" height="6" fill="#2a7fff"/>
<rect x="330.5" y="79.8" width="6" height="6" fill="#2a7fff"/>
<rect x="352.7" y="518.7" width="6" height="6" fill="#2a7fff"/>
<rect x="352.7" y="518.7" width="6" height="6" fill="#2a7fff"/>
<polyline fill="none" stroke="#9b59b6" stroke-width="2" points="90.0,68.3 90.0,68.3 90.1,68.3 90.1,68.3 90.2,68.3 90.5,68.4 91.0,68.8 91.8,71.5 93.5,76.5 96.4,84.0 101.6,93.9 110.0,104.2 123.3,117.5 143.5,132.2 168.6,148.3 198.5,164.8 230.1,181.6 285.0,217.4 332.9,263.7 422.1,521.7 510.5,521.7"/>
<polygon points="90.0,64.3 94.0,71.3 86.0,71.3" fill="#9b59b6"/>
<polygon points="90.0,64.3 94.0,71.3 86.0,71.3" fill="#9b59b6"/>
<polygon points="90.1,64.3 94.1,71.3 86.1,71.3" fill="#9b59b6"/>
<polygon points="90.1,64.3 94.1,71.3 86.1,71.3" fill="#9b59b6"/>
<polygon points="90.2,64.3 94.2,71.3 86.2,71.3" fill="#9b59b6"/>
<polygon points="90.5,64.4 94.5,71.4 86.5,71.4" fill="#9b59b6"/>
<polygon points="91.0,64.8 95.0,71.8 87.0,71.8" fill="#9b59b6"/>
<polygon points="91.8,67.5 95.8,74.5 87.8,74.5" fill="#9b59b6"/>
<polygon points="93.5,72.5 97.5,79.5 89.5,79.5" fill="#9b59b6"/>
<polygon points="96.4,80.0 100.4,87.0 92.4,87.0" fill="#9b59b6"/>
<polygon points="101.6,89.9 105.6,96.9 97.6,96.9" fill="#9b59b6"/>
<polygon points="110.0,100.2 114.0,107.2 106.0,107.2" fill="#9b59b6"/>
<polygon points="123.3,113.5 127.3,120.5 119.3,120.5" fill="#9b59b6"/>
<polygon points="143.5,128.2 147.5,135.2 139.5,135.2" fill="#9b59b6"/>
<polygon points="168.6,144.3 172.6,151.3 164.6,151.3" fill="#9b59b6"/>
<polygon points="198.5,160.8 202.5,167.8 194.5,167.8" fill="#9b59b6"/>
<polygon points="230.1,177.6 234.1,184.6 226.1,184.6" fill="#9b59b6"/>
<polygon points="285.0,213.4 289.0,220.4 281.0,220.4" fill="#9b59b6"/>
<polygon points="332.9,259.7 336.9,266.7 328.9,266.7" fill="#9b59b6"/>
<polygon points="422.1,517.7 426.1,524.7 418.1,524.7" fill="#9b59b6"/>
<polygon points="510.5,517.7 514.5,524.7 506.5,524.7" fill="#9b59b6"/>
<polyline fill="none" stroke="#4dd88a" stroke-width="2" points="90.0,68.3 90.0,68.3 90.1,68.3 90.1,68.3 90.3,68.3 90.5,68.3 91.1,68.3 92.1,68.3 94.2,68.3 98.4,68.3 106.6,68.3 120.6,68.3 140.7,68.3 165.0,68.3 191.1,68.3 216.9,68.3 241.6,68.3 288.6,68.4 333.5,82.8 422.1,521.7 510.5,521.7"/>
<polygon points="90.0,64.3 94.0,68.3 90.0,72.3 86.0,68.3" fill="#4dd88a"/>
<polygon points="90.0,64.3 94.0,68.3 90.0,72.3 86.0,68.3" fill="#4dd88a"/>
<polygon points="90.1,64.3 94.1,68.3 90.1,72.3 86.1,68.3" fill="#4dd88a"/>
<polygon points="90.1,64.3 94.1,68.3 90.1,72.3 86.1,68.3" fill="#4dd88a"/>
<polygon points="90.3,64.3 94.3,68.3 90.3,72.3 86.3,68.3" fill="#4dd88a"/>
<polygon points="90.5,64.3 94.5,68.3 90.5,72.3 86.5,68.3" fill="#4dd88a"/>
<polygon points="91.1,64.3 95.1,68.3 91.1,72.3 87.1,68.3" fill="#4dd88a"/>
<polygon points="92.1,64.3 96.1,68.3 92.1,72.3 88.1,68.3" fill="#4dd88a"/>
<polygon points="94.2,64.3 98.2,68.3 94.2,72.3 90.2,68.3" fill="#4dd88a"/>
<polygon points="98.4,64.3 102.4,68.3 98.4,72.3 94.4,68.3" fill="#4dd88a"/>
<polygon points="106.6,64.3 110.6,68.3 106.6,72.3 102.6,68.3" fill="#4dd88a"/>
<polygon points="120.6,64.3 124.6,68.3 120.6,72.3 116.6,68.3" fill="#4dd88a"/>
<polygon points="140.7,64.3 144.7,68.3 140.7,72.3 136.7,68.3" fill="#4dd88a"/>
<polygon points="165.0,64.3 169.0,68.3 165.0,72.3 161.0,68.3" fill="#4dd88a"/>
<polygon points="191.1,64.3 195.1,68.3 191.1,72.3 187.1,68.3" fill="#4dd88a"/>
<polygon points="216.9,64.3 220.9,68.3 216.9,72.3 212.9,68.3" fill="#4dd88a"/>
<polygon points="241.6,64.3 245.6,68.3 241.6,72.3 237.6,68.3" fill="#4dd88a"/>
<polygon points="288.6,64.4 292.6,68.4 288.6,72.4 284.6,68.4" fill="#4dd88a"/>
<polygon points="333.5,78.8 337.5,82.8 333.5,86.8 329.5,82.8" fill="#4dd88a"/>
<polygon points="422.1,517.7 426.1,521.7 422.1,525.7 418.1,521.7" fill="#4dd88a"/>
<polygon points="510.5,517.7 514.5,521.7 510.5,525.7 506.5,521.7" fill="#4dd88a"/>
<polyline fill="none" stroke="#ff6b6b" stroke-width="2" points="91.3,68.3 91.6,68.3 92.4,68.3 93.8,68.3 96.6,68.3 101.4,68.5 108.7,68.8 118.3,71.6 129.4,76.5 142.0,84.1 156.2,93.9 172.7,104.3 192.9,117.6 215.4,132.6 237.3,148.9 257.9,165.3 275.9,182.2 307.1,218.0 335.3,264.4 389.4,521.7 443.3,521.7"/>
<polygon points="91.3,63.3 90.1,66.7 86.5,66.8 89.4,69.0 88.3,72.4 91.3,70.3 94.2,72.4 93.2,69.0 96.0,66.8 92.5,66.7" fill="#ff6b6b"/>
<polygon points="91.6,63.3 90.5,66.7 86.9,66.8 89.7,69.0 88.7,72.4 91.6,70.3 94.6,72.4 93.5,69.0 96.4,66.8 92.8,66.7" fill="#ff6b6b"/>
<polygon points="92.4,63.3 91.2,66.7 87.6,66.8 90.5,69.0 89.4,72.4 92.4,70.3 95.3,72.4 94.3,69.0 97.1,66.8 93.5,66.7" fill="#ff6b6b"/>
<polygon points="93.8,63.3 92.6,66.7 89.1,66.8 91.9,69.0 90.9,72.4 93.8,70.3 96.7,72.4 95.7,69.0 98.6,66.8 95.0,66.7" fill="#ff6b6b"/>
<polygon points="96.6,63.3 95.4,66.7 91.8,66.8 94.7,69.0 93.7,72.4 96.6,70.3 99.5,72.4 98.5,69.0 101.3,66.8 97.8,66.7" fill="#ff6b6b"/>
<polygon points="101.4,63.5 100.2,66.8 96.6,66.9 99.5,69.1 98.4,72.5 101.4,70.5 104.3,72.5 103.3,69.1 106.1,66.9 102.6,66.8" fill="#ff6b6b"/>
<polygon points="108.7,63.8 107.5,67.2 104.0,67.3 106.8,69.5 105.8,72.9 108.7,70.8 111.6,72.9 110.6,69.5 113.5,67.3 109.9,67.2" fill="#ff6b6b"/>
<polygon points="118.3,66.6 117.1,69.9 113.5,70.0 116.4,72.2 115.3,75.6 118.3,73.6 121.2,75.6 120.2,72.2 123.0,70.0 119.4,69.9" fill="#ff6b6b"/>
<polygon points="129.4,71.5 128.2,74.9 124.6,74.9 127.5,77.1 126.4,80.5 129.4,78.5 132.3,80.5 131.3,77.1 134.1,74.9 130.5,74.9" fill="#ff6b6b"/>
<polygon points="142.0,79.1 140.8,82.5 137.2,82.5 140.1,84.7 139.0,88.1 142.0,86.1 144.9,88.1 143.9,84.7 146.7,82.5 143.1,82.5" fill="#ff6b6b"/>
<polygon points="156.2,88.9 155.0,92.3 151.4,92.4 154.3,94.6 153.3,98.0 156.2,95.9 159.1,98.0 158.1,94.6 161.0,92.4 157.4,92.3" fill="#ff6b6b"/>
<polygon points="172.7,99.3 171.5,102.7 167.9,102.8 170.8,104.9 169.7,108.4 172.7,106.3 175.6,108.4 174.6,104.9 177.4,102.8 173.8,102.7" fill="#ff6b6b"/>
<polygon points="192.9,112.6 191.7,116.0 188.2,116.0 191.0,118.2 190.0,121.6 192.9,119.6 195.9,121.6 194.8,118.2 197.7,116.0 194.1,116.0" fill="#ff6b6b"/>
<polygon points="215.4,127.6 214.2,131.0 210.6,131.1 213.5,133.2 212.4,136.6 215.4,134.6 218.3,136.6 217.3,133.2 220.1,131.1 216.5,131.0" fill="#ff6b6b"/>
<polygon points="237.3,143.9 236.2,147.2 232.6,147.3 235.4,149.5 234.4,152.9 237.3,150.9 240.3,152.9 239.2,149.5 242.1,147.3 238.5,147.2" fill="#ff6b6b"/>
<polygon points="257.9,160.3 256.7,163.7 253.2,163.8 256.0,166.0 255.0,169.4 257.9,167.3 260.9,169.4 259.8,166.0 262.7,163.8 259.1,163.7" fill="#ff6b6b"/>
<polygon points="275.9,177.2 274.7,180.5 271.1,180.6 274.0,182.8 272.9,186.2 275.9,184.2 278.8,186.2 277.8,182.8 280.6,180.6 277.0,180.5" fill="#ff6b6b"/>
<polygon points="307.1,213.0 306.0,216.4 302.4,216.4 305.2,218.6 304.2,222.0 307.1,220.0 310.1,222.0 309.0,218.6 311.9,216.4 308.3,216.4" fill="#ff6b6b"/>
<polygon points="335.3,259.4 334.1,262.8 330.5,262.8 333.4,265.0 332.3,268.4 335.3,266.4 338.2,268.4 337.2,265.0 340.0,262.8 336.5,262.8" fill="#ff6b6b"/>
<polygon points="389.4,516.7 388.3,520.0 384.7,520.1 387.5,522.3 386.5,525.7 389.4,523.7 392.4,525.7 391.3,522.3 394.2,520.1 390.6,520.0" fill="#ff6b6b"/>
<polygon points="443.3,516.7 442.2,520.0 438.6,520.1 441.4,522.3 440.4,525.7 443.3,523.7 446.3,525.7 445.2,522.3 448.1,520.1 444.5,520.0" fill="#ff6b6b"/>
<polyline fill="none" stroke="#ff922b" stroke-width="2" points="400.0,241.6 422.1,264.4 444.2,296.3 466.4,351.7 488.5,521.7 532.7,521.7 554.8,521.7 576.9,521.7 599.0,521.7 621.1,521.7"/>
<circle cx="400.0" cy="241.6" r="3" fill="#ff922b"/>
<circle cx="422.1" cy="264.4" r="3" fill="#ff922b"/>
<circle cx="444.2" cy="296.3" r="3" fill="#ff922b"/>
<circle cx="466.4" cy="351.7" r="3" fill="#ff922b"/>
<circle cx="488.5" cy="521.7" r="3" fill="#ff922b"/>
<circle cx="532.7" cy="521.7" r="3" fill="#ff922b"/>
<circle cx="554.8" cy="521.7" r="3" fill="#ff922b"/>
<circle cx="576.9" cy="521.7" r="3" fill="#ff922b"/>
<circle cx="599.0" cy="521.7" r="3" fill="#ff922b"/>
<circle cx="621.1" cy="521.7" r="3" fill="#ff922b"/>
<polyline fill="none" stroke="#888888" stroke-width="2" stroke-dasharray="8,5" points="512.6,124.7 545.7,141.9 588.6,164.4 620.7,182.3 652.7,199.5 694.9,221.7 726.9,248.7 758.8,246.1 801.0,263.0 832.9,295.7"/>
<circle cx="512.6" cy="124.7" r="3" fill="#888888"/>
<circle cx="545.7" cy="141.9" r="3" fill="#888888"/>
<circle cx="588.6" cy="164.4" r="3" fill="#888888"/>
<circle cx="620.7" cy="182.3" r="3" fill="#888888"/>
<circle cx="652.7" cy="199.5" r="3" fill="#888888"/>
<circle cx="694.9" cy="221.7" r="3" fill="#888888"/>
<circle cx="726.9" cy="248.7" r="3" fill="#888888"/>
<circle cx="758.8" cy="246.1" r="3" fill="#888888"/>
<circle cx="801.0" cy="263.0" r="3" fill="#888888"/>
<circle cx="832.9" cy="295.7" r="3" fill="#888888"/>
<line x1="886" y1="60" x2="902" y2="60" stroke="#ef4444" stroke-width="2" stroke-dasharray="8,5"/>
<circle cx="894.0" cy="60.0" r="3" fill="#ef4444"/>
<text class="label" x="908" y="64">Theoretical</text>
<line x1="886" y1="78" x2="902" y2="78" stroke="#1a6b3c" stroke-width="2"/>
<polygon points="894.0,74.0 898.0,78.0 894.0,82.0 890.0,78.0" fill="#1a6b3c"/>
<text class="label" x="908" y="82">Grafite</text>
<line x1="886" y1="96" x2="902" y2="96" stroke="#1a3a6b" stroke-width="2"/>
<polygon points="894.0,91.0 892.8,94.4 889.2,94.5 892.1,96.6 891.1,100.0 894.0,98.0 896.9,100.0 895.9,96.6 898.8,94.5 895.2,94.4" fill="#1a3a6b"/>
<text class="label" x="908" y="100">SNARF</text>
<line x1="886" y1="114" x2="902" y2="114" stroke="#111111" stroke-width="2"/>
<rect x="891.0" y="111.0" width="6" height="6" fill="#111111"/>
<text class="label" x="908" y="118">SuRF</text>
<line x1="886" y1="132" x2="902" y2="132" stroke="#111111" stroke-width="2"/>
<polygon points="894.0,128.0 898.0,135.0 890.0,135.0" fill="#111111"/>
<text class="label" x="908" y="136">SuRFHash(8)</text>
<line x1="886" y1="150" x2="902" y2="150" stroke="#111111" stroke-width="2"/>
<polygon points="894.0,146.0 898.0,150.0 894.0,154.0 890.0,150.0" fill="#111111"/>
<text class="label" x="908" y="154">SuRFReal(8)</text>
<line x1="886" y1="168" x2="902" y2="168" stroke="#2a7fff" stroke-width="2"/>
<rect x="891.0" y="165.0" width="6" height="6" fill="#2a7fff"/>
<text class="label" x="908" y="172">Adaptive (t=0)</text>
<line x1="886" y1="186" x2="902" y2="186" stroke="#9b59b6" stroke-width="2"/>
<polygon points="894.0,182.0 898.0,189.0 890.0,189.0" fill="#9b59b6"/>
<text class="label" x="908" y="190">Truncation</text>
<line x1="886" y1="204" x2="902" y2="204" stroke="#4dd88a" stroke-width="2"/>
<polygon points="894.0,200.0 898.0,204.0 894.0,208.0 890.0,204.0" fill="#4dd88a"/>
<text class="label" x="908" y="208">SODA</text>
<line x1="886" y1="222" x2="902" y2="222" stroke="#ff6b6b" stroke-width="2"/>
<polygon points="894.0,217.0 892.8,220.4 889.2,220.5 892.1,222.6 891.1,226.0 894.0,224.0 896.9,226.0 895.9,222.6 898.8,220.5 895.2,220.4" fill="#ff6b6b"/>
<text class="label" x="908" y="226">Hybrid</text>
<line x1="886" y1="240" x2="902" y2="240" stroke="#ff922b" stroke-width="2"/>
<circle cx="894.0" cy="240.0" r="3" fill="#ff922b"/>
<text class="label" x="908" y="244">CDF-ARE</text>
<line x1="886" y1="258" x2="902" y2="258" stroke="#888888" stroke-width="2" stroke-dasharray="8,5"/>
<circle cx="894.0" cy="258.0" r="3" fill="#888888"/>
<text class="label" x="908" y="262">BloomARE</text>
<text x="480" y="590" text-anchor="middle">Bits per Key (BPK)</text>
<text transform="translate(16,295) rotate(-90)" text-anchor="middle">False Positive Rate (FPR)</text>
</svg>
