<svg xmlns="http://www.w3.org/2000/svg" width="1020" height="600" viewBox="0 0 1020 600">
<style>text{font-family:Menlo,Monaco,monospace;font-size:12px;fill:#222} .axis{stroke:#333;stroke-width:1} .grid{stroke:#eee;stroke-width:0.5} .label{font-size:11px;fill:#444}</style>
<text x="510" y="28" text-anchor="middle" style="font-size:14px;font-weight:bold">FPR vs BPK — sosd_wiki (60-bit keys, n=64358, L=128)</text>
<line class="axis" x1="90.0" y1="550.0" x2="870.0" y2="550.0"/>
<line class="axis" x1="90.0" y1="40.0" x2="90.0" y2="550.0"/>
<line class="grid" x1="90.0" y1="521.7" x2="870.0" y2="521.7"/>
<text class="label" x="82.0" y="525.7" text-anchor="end">10^-8</text>
<line class="grid" x1="90.0" y1="465.0" x2="870.0" y2="465.0"/>
<text class="label" x="82.0" y="469.0" text-anchor="end">10^-7</text>
<line class="grid" x1="90.0" y1="408.3" x2="870.0" y2="408.3"/>
<text class="label" x="82.0" y="412.3" text-anchor="end">10^-6</text>
<line class="grid" x1="90.0" y1="351.7" x2="870.0" y2="351.7"/>
<text class="label" x="82.0" y="355.7" text-anchor="end">10^-5</text>
<line class="grid" x1="90.0" y1="295.0" x2="870.0" y2="295.0"/>
<text class="label" x="82.0" y="299.0" text-anchor="end">10^-4</text>
<line class="grid" x1="90.0" y1="238.3" x2="870.0" y2="238.3"/>
<text class="label" x="82.0" y="242.3" text-anchor="end">10^-3</text>
<line class="grid" x1="90.0" y1="181.7" x2="870.0" y2="181.7"/>
<text class="label" x="82.0" y="185.7" text-anchor="end">10^-2</text>
<line class="grid" x1="90.0" y1="125.0" x2="870.0" y2="125.0"/>
<text class="label" x="82.0" y="129.0" text-anchor="end">10^-1</text>
<line class="grid" x1="90.0" y1="68.3" x2="870.0" y2="68.3"/>
<text class="label" x="82.0" y="72.3" text-anchor="end">1</text>
<line class="grid" x1="90.0" y1="40.0" x2="90.0" y2="550.0"/>
<text class="label" x="90.0" y="566.0" text-anchor="middle">0</text>
<line class="grid" x1="206.1" y1="40.0" x2="206.1" y2="550.0"/>
<text class="label" x="206.1" y="566.0" text-anchor="middle">5</text>
<line class="grid" x1="322.1" y1="40.0" x2="322.1" y2="550.0"/>
<text class="label" x="322.1" y="566.0" text-anchor="middle">10</text>
<line class="grid" x1="438.2" y1="40.0" x2="438.2" y2="550.0"/>
<text class="label" x="438.2" y="566.0" text-anchor="middle">15</text>
<line class="grid" x1="554.3" y1="40.0" x2="554.3" y2="550.0"/>
<text class="label" x="554.3" y="566.0" text-anchor="middle">20</text>
<line class="grid" x1="670.4" y1="40.0" x2="670.4" y2="550.0"/>
<text class="label" x="670.4" y="566.0" text-anchor="middle">25</text>
<line class="grid" x1="786.4" y1="40.0" x2="786.4" y2="550.0"/>
<text class="label" x="786.4" y="566.0" text-anchor="middle">30</text>
<polyline fill="none" stroke="#ef4444" stroke-width="2" stroke-dasharray="8,5" points="252.5,68.3 275.7,85.4 298.9,102.5 322.1,119.5 345.4,136.6 368.6,153.6 391.8,170.7 415.0,187.7 438.2,204.8 461.4,221.9 484.6,238.9 507.9,256.0 531.1,273.0 554.3,290.1 600.7,324.2 647.1,358.3 740.0,426.6 832.9,494.8"/>
<circle cx="252.5" cy="68.3" r="3" fill="#ef4444"/>
<circle cx="275.7" cy="85.4" r="3" fill="#ef4444"/>
<circle cx="298.9" cy="102.5" r="3" fill="#ef4444"/>
<circle cx="322.1" cy="119.5" r="3" fill="#ef4444"/>
<circle cx="345.4" cy="136.6" r="3" fill="#ef4444"/>
<circle cx="368.6" cy="153.6" r="3" fill="#ef4444"/>
<circle cx="391.8" cy="170.7" r="3" fill="#ef4444"/>
<circle cx="415.0" cy="187.7" r="3" fill="#ef4444"/>
<circle cx="438.2" cy="204.8" r="3" fill="#ef4444"/>
<circle cx="461.4" cy="221.9" r="3" fill="#ef4444"/>
<circle cx="484.6" cy="238.9" r="3" fill="#ef4444"/>
<circle cx="507.9" cy="256.0" r="3" fill="#ef4444"/>
<circle cx="531.1" cy="273.0" r="3" fill="#ef4444"/>
<circle cx="554.3" cy="290.1" r="3" fill="#ef4444"/>
<circle cx="600.7" cy="324.2" r="3" fill="#ef4444"/>
<circle cx="647.1" cy="358.3" r="3" fill="#ef4444"/>
<circle cx="740.0" cy="426.6" r="3" fill="#ef4444"/>
<circle cx="832.9" cy="494.8" r="3" fill="#ef4444"/>
<polyline fill="none" stroke="#1a6b3c" stroke-width="2" points="189.9,68.3 241.6,68.4 290.4,75.8 337.5,114.1"/>
<polygon points="189.9,64.3 193.9,68.3 189.9,72.3 185.9,68.3" fill="#1a6b3c"/>
<polygon points="241.6,64.4 245.6,68.4 241.6,72.4 237.6,68.4" fill="#1a6b3c"/>
<polygon points="290.4,71.8 294.4,75.8 290.4,79.8 286.4,75.8" fill="#1a6b3c"/>
<polygon points="337.5,110.1 341.5,114.1 337.5,118.1 333.5,114.1" fill="#1a6b3c"/>
<polyline fill="none" stroke="#1a3a6b" stroke-width="2" points="168.5,100.4 214.7,122.5 261.3,140.0 308.0,148.6 354.2,151.5 400.4,152.0 447.0,152.1 493.7,152.1 539.9,152.1"/>
<polygon points="168.5,95.4 167.3,98.8 163.7,98.8 166.6,101.0 165.5,104.4 168.5,102.4 171.4,104.4 170.4,101.0 173.2,98.8 169.6,98.8" fill="#1a3a6b"/>
<polygon points="214.7,117.5 213.5,120.9 209.9,121.0 212.8,123.1 211.7,126.6 214.7,124.5 217.6,126.6 216.6,123.1 219.4,121.0 215.8,120.9" fill="#1a3a6b"/>
<polygon points="261.3,135.0 260.1,138.3 256.5,138.4 259.4,140.6 258.3,144.0 261.3,142.0 264.2,144.0 263.2,140.6 266.0,138.4 262.5,138.3" fill="#1a3a6b"/>
<polygon points="308.0,143.6 306.8,147.0 303.2,147.1 306.1,149.3 305.0,152.7 308.0,150.6 310.9,152.7 309.9,149.3 312.7,147.1 309.2,147.0" fill="#1a3a6b"/>
<polygon points="354.2,146.5 353.0,149.8 349.4,149.9 352.3,152.1 351.2,155.5 354.2,153.5 357.1,155.5 356.1,152.1 358.9,149.9 355.4,149.8" fill="#1a3a6b"/>
<polygon points="400.4,147.0 399.2,150.4 395.6,150.5 398.5,152.7 397.4,156.1 400.4,154.0 403.3,156.1 402.3,152.7 405.1,150.5 401.6,150.4" fill="#1a3a6b"/>
<polygon points="447.0,147.1 445.8,150.4 442.2,150.5 445.1,152.7 444.1,156.1 447.0,154.1 449.9,156.1 448.9,152.7 451.8,150.5 448.2,150.4" fill="#1a3a6b"/>
<polygon points="493.7,147.1 492.5,150.4 488.9,150.5 491.8,152.7 490.8,156.1 493.7,154.1 496.6,156.1 495.6,152.7 498.4,150.5 494.9,150.4" fill="#1a3a6b"/>
<polygon points="539.9,147.1 538.7,150.4 535.1,150.5 538.0,152.7 537.0,156.1 539.9,154.1 542.8,156.1 541.8,152.7 544.6,150.5 541.1,150.4" fill="#1a3a6b"/>
<polyline fill="none" stroke="#111111" stroke-width="2" points="359.0,116.8"/>
<rect x="356.0" y="113.8" width="6" height="6" fill="#111111"/>
<polyline fill="none" stroke="#111111" stroke-width="2" points="544.7,116.8"/>
<polygon points="544.7,112.8 548.7,119.8 540.7,119.8" fill="#111111"/>
<polyline fill="none" stroke="#111111" stroke-width="2" points="544.7,358.0"/>
<polygon points="544.7,354.0 548.7,358.0 544.7,362.0 540.7,358.0" fill="#111111"/>
<polyline fill="none" stroke="#2a7fff" stroke-width="2" points="90.0,68.3 90.0,68.3 90.1,68.3 90.1,68.3 90.3,68.3 90.6,68.3 91.1,68.3 92.2,68.3 94.4,68.3 98.9,68.3 107.5,68.3 122.1,68.3 143.2,68.3 168.8,68.3 196.2,68.3 223.2,68.3 249.2,68.4 298.5,75.3 345.7,109.7 369.0,521.7 369.0,521.7"/>
<rect x="87.0" y="65.3" width="6" height="6" fill="#2a7fff"/>
<rect x="87.0" y="65.3" width="6" height="6" fill="#2a7fff"/>
<rect x="87.1" y="65.3" width="6" height="6" fill="#2a7fff"/>
<rect x="87.1" y="65.3" width="6" height="6" fill="#2a7fff"/>
<rect x="87.3" y="65.3" width="6" height="6" fill="#2a7fff"/>
<rect x="87.6" y="65.3" width="6" height="6" fill="#2a7fff"/>
<rect x="88.1" y="65.3" width="6" height="6" fill="#2a7fff"/>
<rect x="89.2" y="65.3" width="6" height="6" fill="#2a7fff"/>
<rect x="91.4" y="65.3" width="6" height="6" fill="#2a7fff"/>
<rect x="95.9" y="65.3" width="6" height="6" fill="#2a7fff"/>
<rect x="104.5" y="65.3" width="6" height="6" fill="#2a7fff"/>
<rect x="119.1" y="65.3" width="6" height="6" fill="#2a7fff"/>
<rect x="140.2" y="65.3" width="6" height="6" fill="#2a7fff"/>
<rect x="165.8" y="65.3" width="6" height="6" fill="#2a7fff"/>
<rect x="193.2" y="65.3" width="6" height="6" fill="#2a7fff"/>
<rect x="220.2" y="65.3" width="6" height="6" fill="#2a7fff"/>
<rect x="246.2" y="65.4" width="6" height="6" fill="#2a7fff"/>
<rect x="295.5" y="72.3" width="6" height="6" fill="#2a7fff"/>
<rect x="342.7" y="106.7" width="6" height="6" fill="#2a7fff"/>
<rect x="366.0" y="518.7" width="6" height="6" fill="#2a7fff"/>
<rect x="366.0" y="518.7" width="6" height="6" fill="#2a7fff"/>
<polyline fill="none" stroke="#9b59b6" stroke-width="2" points="90.0,68.3 90.0,68.3 90.1,68.3 90.1,68.3 90.3,68.3 90.5,68.4 91.0,68.6 91.9,70.4 93.6,73.4 96.7,77.9 102.2,83.8 111.0,91.1 125.0,100.2 146.1,111.2 172.5,122.8 203.9,137.4 237.0,153.2 294.8,188.7 345.0,236.1 438.6,521.7 531.5,521.7"/>
<polygon points="90.0,64.3 94.0,71.3 86.0,71.3" fill="#9b59b6"/>
<polygon points="90.0,64.3 94.0,71.3 86.0,71.3" fill="#9b59b6"/>
<polygon points="90.1,64.3 94.1,71.3 86.1,71.3" fill="#9b59b6"/>
<polygon points="90.1,64.3 94.1,71.3 86.1,71.3" fill="#9b59b6"/>
<polygon points="90.3,64.3 94.3,71.3 86.3,71.3" fill="#9b59b6"/>
<polygon points="90.5,64.4 94.5,71.4 86.5,71.4" fill="#9b59b6"/>
<polygon points="91.0,64.6 95.0,71.6 87.0,71.6" fill="#9b59b6"/>
<polygon points="91.9,66.4 95.9,73.4 87.9,73.4" fill="#9b59b6"/>
<polygon points="93.6,69.4 97.6,76.4 89.6,76.4" fill="#9b59b6"/>
<polygon points="96.7,73.9 100.7,80.9 92.7,80.9" fill="#9b59b6"/>
<polygon points="102.2,79.8 106.2,86.8 98.2,86.8" fill="#9b59b6"/>
<polygon points="111.0,87.1 115.0,94.1 107.0,94.1" fill="#9b59b6"/>
<polygon points="125.0,96.2 129.0,103.2 121.0,103.2" fill="#9b59b6"/>
<polygon points="146.1,107.2 150.1,114.2 142.1,114.2" fill="#9b59b6"/>
<polygon points="172.5,118.8 176.5,125.8 168.5,125.8" fill="#9b59b6"/>
<polygon points="203.9,133.4 207.9,140.4 199.9,140.4" fill="#9b59b6"/>
<polygon points="237.0,149.2 241.0,156.2 233.0,156.2" fill="#9b59b6"/>
<polygon points="294.8,184.7 298.8,191.7 290.8,191.7" fill="#9b59b6"/>
<polygon points="345.0,232.1 349.0,239.1 341.0,239.1" fill="#9b59b6"/>
<polygon points="438.6,517.7 442.6,524.7 434.6,524.7" fill="#9b59b6"/>
<polygon points="531.5,517.7 535.5,524.7 527.5,524.7" fill="#9b59b6"/>
<polyline fill="none" stroke="#4dd88a" stroke-width="2" points="90.0,68.3 90.0,68.3 90.1,68.3 90.1,68.3 90.3,68.3 90.6,68.3 91.1,68.3 92.2,68.3 94.4,68.3 98.9,68.3 107.5,68.3 122.1,68.3 143.2,68.3 168.8,68.3 196.2,68.3 223.2,68.3 249.2,68.4 298.5,75.3 345.7,109.7 438.6,521.7 531.5,521.7"/>
<polygon points="90.0,64.3 94.0,68.3 90.0,72.3 86.0,68.3" fill="#4dd88a"/>
<polygon points="90.0,64.3 94.0,68.3 90.0,72.3 86.0,68.3" fill="#4dd88a"/>
<polygon points="90.1,64.3 94.1,68.3 90.1,72.3 86.1,68.3" fill="#4dd88a"/>
<polygon points="90.1,64.3 94.1,68.3 90.1,72.3 86.1,68.3" fill="#4dd88a"/>
<polygon points="90.3,64.3 94.3,68.3 90.3,72.3 86.3,68.3" fill="#4dd88a"/>
<polygon points="90.6,64.3 94.6,68.3 90.6,72.3 86.6,68.3" fill="#4dd88a"/>
<polygon points="91.1,64.3 95.1,68.3 91.1,72.3 87.1,68.3" fill="#4dd88a"/>
<polygon points="92.2,64.3 96.2,68.3 92.2,72.3 88.2,68.3" fill="#4dd88a"/>
<polygon points="94.4,64.3 98.4,68.3 94.4,72.3 90.4,68.3" fill="#4dd88a"/>
<polygon points="98.9,64.3 102.9,68.3 98.9,72.3 94.9,68.3" fill="#4dd88a"/>
<polygon points="107.5,64.3 111.5,68.3 107.5,72.3 103.5,68.3" fill="#4dd88a"/>
<polygon points="122.1,64.3 126.1,68.3 122.1,72.3 118.1,68.3" fill="#4dd88a"/>
<polygon points="143.2,64.3 147.2,68.3 143.2,72.3 139.2,68.3" fill="#4dd88a"/>
<polygon points="168.8,64.3 172.8,68.3 168.8,72.3 164.8,68.3" fill="#4dd88a"/>
<polygon points="196.2,64.3 200.2,68.3 196.2,72.3 192.2,68.3" fill="#4dd88a"/>
<polygon points="223.2,64.3 227.2,68.3 223.2,72.3 219.2,68.3" fill="#4dd88a"/>
<polygon points="249.2,64.4 253.2,68.4 249.2,72.4 245.2,68.4" fill="#4dd88a"/>
<polygon points="298.5,71.3 302.5,75.3 298.5,79.3 294.5,75.3" fill="#4dd88a"/>
<polygon points="345.7,105.7 349.7,109.7 345.7,113.7 341.7,109.7" fill="#4dd88a"/>
<polygon points="438.6,517.7 442.6,521.7 438.6,525.7 434.6,521.7" fill="#4dd88a"/>
<polygon points="531.5,517.7 535.5,521.7 531.5,525.7 527.5,521.7" fill="#4dd88a"/>
<polyline fill="none" stroke="#ff6b6b" stroke-width="2" points="91.3,68.3 91.7,68.3 92.5,68.3 94.0,68.3 96.9,68.3 102.0,68.4 109.6,68.7 119.7,70.4 131.3,73.4 144.5,78.0 159.5,83.8 176.8,91.3 198.1,101.2 221.6,113.7 244.7,126.8 266.3,142.4 285.1,158.5 318.0,194.4 347.5,241.4 404.4,521.7 461.0,521.7"/>
<polygon points="91.3,63.3 90.2,66.7 86.6,66.8 89.4,69.0 88.4,72.4 91.3,70.3 94.3,72.4 93.3,69.0 96.1,66.8 92.5,66.7" fill="#ff6b6b"/>
<polygon points="91.7,63.3 90.6,66.7 87.0,66.8 89.8,69.0 88.8,72.4 91.7,70.3 94.7,72.4 93.6,69.0 96.5,66.8 92.9,66.7" fill="#ff6b6b"/>
<polygon points="92.5,63.3 91.3,66.7 87.7,66.8 90.6,69.0 89.5,72.4 92.5,70.3 95.4,72.4 94.4,69.0 97.2,66.8 93.7,66.7" fill="#ff6b6b"/>
<polygon points="94.0,63.3 92.8,66.7 89.2,66.8 92.1,69.0 91.1,72.4 94.0,70.3 96.9,72.4 95.9,69.0 98.8,66.8 95.2,66.7" fill="#ff6b6b"/>
<polygon points="96.9,63.3 95.7,66.7 92.2,66.8 95.0,69.0 94.0,72.4 96.9,70.3 99.9,72.4 98.8,69.0 101.7,66.8 98.1,66.7" fill="#ff6b6b"/>
<polygon points="102.0,63.4 100.8,66.8 97.2,66.9 100.1,69.0 99.0,72.5 102.0,70.4 104.9,72.5 103.9,69.0 106.7,66.9 103.1,66.8" fill="#ff6b6b"/>
<polygon points="109.6,63.7 108.5,67.0 104.9,67.1 107.7,69.3 106.7,72.7 109.6,70.7 112.6,72.7 111.5,69.3 114.4,67.1 110.8,67.0" fill="#ff6b6b"/>
<polygon points="119.7,65.4 118.5,68.8 114.9,68.8 117.8,71.0 116.7,74.4 119.7,72.4 122.6,74.4 121.6,71.0 124.4,68.8 120.8,68.8" fill="#ff6b6b"/>
<polygon points="131.3,68.4 130.2,71.8 126.6,71.9 129.4,74.1 128.4,77.5 131.3,75.4 134.3,77.5 133.2,74.1 136.1,71.9 132.5,71.8" fill="#ff6b6b"/>
<polygon points="144.5,73.0 143.4,76.4 139.8,76.4 142.6,78.6 141.6,82.0 144.5,80.0 147.5,82.0 146.5,78.6 149.3,76.4 145.7,76.4" fill="#ff6b6b"/>
<polygon points="159.5,78.8 158.3,82.2 154.7,82.3 157.6,84.4 156.6,87.9 159.5,85.8 162.4,87.9 161.4,84.4 164.3,82.3 160.7,82.2" fill="#ff6b6b"/>
<polygon points="176.8,86.3 175.6,89.7 172.0,89.8 174.9,91.9 173.8,95.4 176.8,93.3 179.7,95.4 178.7,91.9 181.5,89.8 178.0,89.7" fill="#ff6b6b"/>
<polygon points="198.1,96.2 196.9,99.6 193.3,99.6 196.1,101.8 195.1,105.2 198.1,103.2 201.0,105.2 200.0,101.8 202.8,99.6 199.2,99.6" fill="#ff6b6b"/>
<polygon points="221.6,108.7 220.5,112.1 216.9,112.2 219.7,114.4 218.7,117.8 221.6,115.7 224.6,117.8 223.5,114.4 226.4,112.2 222.8,112.1" fill="#ff6b6b"/>
<polygon points="244.7,121.8 243.5,125.1 239.9,125.2 242.8,127.4 241.8,130.8 244.7,128.8 247.6,130.8 246.6,127.4 249.5,125.2 245.9,125.1" fill="#ff6b6b"/>
<polygon points="266.3,137.4 265.1,140.7 261.5,140.8 264.4,143.0 263.4,146.4 266.3,144.4 269.2,146.4 268.2,143.0 271.0,140.8 267.5,140.7" fill="#ff6b6b"/>
<polygon points="285.1,153.5 284.0,156.9 280.4,156.9 283.2,159.1 282.2,162.5 285.1,160.5 288.1,162.5 287.0,159.1 289.9,156.9 286.3,156.9" fill="#ff6b6b"/>
<polygon points="318.0,189.4 316.8,192.8 313.2,192.9 316.1,195.0 315.0,198.5 318.0,196.4 320.9,198.5 319.9,195.0 322.7,192.9 319.1,192.8" fill="#ff6b6b"/>
<polygon points="347.5,236.4 346.3,239.8 342.8,239.9 345.6,242.0 344.6,245.4 347.5,243.4 350.5,245.4 349.4,242.0 352.3,239.9 348.7,239.8" fill="#ff6b6b"/>
<polygon points="404.4,516.7 403.2,520.0 399.6,520.1 402.5,522.3 401.4,525.7 404.4,523.7 407.3,525.7 406.3,522.3 409.1,520.1 405.5,520.0" fill="#ff6b6b"/>
<polygon points="461.0,516.7 459.8,520.0 456.2,520.1 459.1,522.3 458.0,525.7 461.0,523.7 463.9,525.7 462.9,522.3 465.7,520.1 462.1,520.0" fill="#ff6b6b"/>
<polyline fill="none" stroke="#ff922b" stroke-width="2" points="344.3,177.4 368.5,196.3 392.2,217.6 415.5,239.3 438.7,263.1 485.1,363.4 508.3,521.7 531.6,521.7 554.8,521.7 578.0,521.7"/>
<circle cx="344.3" cy="177.4" r="3" fill="#ff922b"/>
<circle cx="368.5" cy="196.3" r="3" fill="#ff922b"/>
<circle cx="392.2" cy="217.6" r="3" fill="#ff922b"/>
<circle cx="415.5" cy="239.3" r="3" fill="#ff922b"/>
<circle cx="438.7" cy="263.1" r="3" fill="#ff922b"/>
<circle cx="485.1" cy="363.4" r="3" fill="#ff922b"/>
<circle cx="508.3" cy="521.7" r="3" fill="#ff922b"/>
<circle cx="531.6" cy="521.7" r="3" fill="#ff922b"/>
<circle cx="554.8" cy="521.7" r="3" fill="#ff922b"/>
<circle cx="578.0" cy="521.7" r="3" fill="#ff922b"/>
<polyline fill="none" stroke="#888888" stroke-width="2" stroke-dasharray="8,5" points="433.2,124.9 468.0,141.1 513.0,164.5 546.7,181.8 580.3,197.9 624.7,222.9 658.2,237.3 691.7,263.5 736.0,280.6 769.5,303.3"/>
<circle cx="433.2" cy="124.9" r="3" fill="#888888"/>
<circle cx="468.0" cy="141.1" r="3" fill="#888888"/>
<circle cx="513.0" cy="164.5" r="3" fill="#888888"/>
<circle cx="546.7" cy="181.8" r="3" fill="#888888"/>
<circle cx="580.3" cy="197.9" r="3" fill="#888888"/>
<circle cx="624.7" cy="222.9" r="3" fill="#888888"/>
<circle cx="658.2" cy="237.3" r="3" fill="#888888"/>
<circle cx="691.7" cy="263.5" r="3" fill="#888888"/>
<circle cx="736.0" cy="280.6" r="3" fill="#888888"/>
<circle cx="769.5" cy="303.3" r="3" fill="#888888"/>
<line x1="886" y1="60" x2="902" y2="60" stroke="#ef4444" stroke-width="2" stroke-dasharray="8,5"/>
<circle cx="894.0" cy="60.0" r="3" fill="#ef4444"/>
<text class="label" x="908" y="64">Theoretical</text>
<line x1="886" y1="78" x2="902" y2="78" stroke="#1a6b3c" stroke-width="2"/>
<polygon points="894.0,74.0 898.0,78.0 894.0,82.0 890.0,78.0" fill="#1a6b3c"/>
<text class="label" x="908" y="82">Grafite</text>
<line x1="886" y1="96" x2="902" y2="96" stroke="#1a3a6b" stroke-width="2"/>
<polygon points="894.0,91.0 892.8,94.4 889.2,94.5 892.1,96.6 891.1,100.0 894.0,98.0 896.9,100.0 895.9,96.6 898.8,94.5 895.2,94.4" fill="#1a3a6b"/>
<text class="label" x="908" y="100">SNARF</text>
<line x1="886" y1="114" x2="902" y2="114" stroke="#111111" stroke-width="2"/>
<rect x="891.0" y="111.0" width="6" height="6" fill="#111111"/>
<text class="label" x="908" y="118">SuRF</text>
<line x1="886" y1="132" x2="902" y2="132" stroke="#111111" stroke-width="2"/>
<polygon points="894.0,128.0 898.0,135.0 890.0,135.0" fill="#111111"/>
<text class="label" x="908" y="136">SuRFHash(8)</text>
<line x1="886" y1="150" x2="902" y2="150" stroke="#111111" stroke-width="2"/>
<polygon points="894.0,146.0 898.0,150.0 894.0,154.0 890.0,150.0" fill="#111111"/>
<text class="label" x="908" y="154">SuRFReal(8)</text>
<line x1="886" y1="168" x2="902" y2="168" stroke="#2a7fff" stroke-width="2"/>
<rect x="891.0" y="165.0" width="6" height="6" fill="#2a7fff"/>
<text class="label" x="908" y="172">Adaptive (t=0)</text>
<line x1="886" y1="186" x2="902" y2="186" stroke="#9b59b6" stroke-width="2"/>
<polygon points="894.0,182.0 898.0,189.0 890.0,189.0" fill="#9b59b6"/>
<text class="label" x="908" y="190">Truncation</text>
<line x1="886" y1="204" x2="902" y2="204" stroke="#4dd88a" stroke-width="2"/>
<polygon points="894.0,200.0 898.0,204.0 894.0,208.0 890.0,204.0" fill="#4dd88a"/>
<text class="label" x="908" y="208">SODA</text>
<line x1="886" y1="222" x2="902" y2="222" stroke="#ff6b6b" stroke-width="2"/>
<polygon points="894.0,217.0 892.8,220.4 889.2,220.5 892.1,222.6 891.1,226.0 894.0,224.0 896.9,226.0 895.9,222.6 898.8,220.5 895.2,220.4" fill="#ff6b6b"/>
<text class="label" x="908" y="226">Hybrid</text>
<line x1="886" y1="240" x2="902" y2="240" stroke="#ff922b" stroke-width="2"/>
<circle cx="894.0" cy="240.0" r="3" fill="#ff922b"/>
<text class="label" x="908" y="244">CDF-ARE</text>
<line x1="886" y1="258" x2="902" y2="258" stroke="#888888" stroke-width="2" stroke-dasharray="8,5"/>
<circle cx="894.0" cy="258.0" r="3" fill="#888888"/>
<text class="label" x="908" y="262">BloomARE</text>
<text x="480" y="590" text-anchor="middle">Bits per Key (BPK)</text>
<text transform="translate(16,295) rotate(-90)" text-anchor="middle">False Positive Rate (FPR)</text>
</svg>
