<svg xmlns="http://www.w3.org/2000/svg" width="1020" height="600" viewBox="0 0 1020 600">
<style>text{font-family:Menlo,Monaco,monospace;font-size:12px;fill:#222} .axis{stroke:#333;stroke-width:1} .grid{stroke:#eee;stroke-width:0.5} .label{font-size:11px;fill:#444}</style>
<text x="510" y="28" text-anchor="middle" style="font-size:14px;font-weight:bold">FPR vs BPK — spread (60-bit keys, n=1048576, L=1)</text>
<line class="axis" x1="90.0" y1="550.0" x2="870.0" y2="550.0"/>
<line class="axis" x1="90.0" y1="40.0" x2="90.0" y2="550.0"/>
<line class="grid" x1="90.0" y1="521.7" x2="870.0" y2="521.7"/>
<text class="label" x="82.0" y="525.7" text-anchor="end">10^-8</text>
<line class="grid" x1="90.0" y1="465.0" x2="870.0" y2="465.0"/>
<text class="label" x="82.0" y="469.0" text-anchor="end">10^-7</text>
<line class="grid" x1="90.0" y1="408.3" x2="870.0" y2="408.3"/>
<text class="label" x="82.0" y="412.3" text-anchor="end">10^-6</text>
<line class="grid" x1="90.0" y1="351.7" x2="870.0" y2="351.7"/>
<text class="label" x="82.0" y="355.7" text-anchor="end">10^-5</text>
<line class="grid" x1="90.0" y1="295.0" x2="870.0" y2="295.0"/>
<text class="label" x="82.0" y="299.0" text-anchor="end">10^-4</text>
<line class="grid" x1="90.0" y1="238.3" x2="870.0" y2="238.3"/>
<text class="label" x="82.0" y="242.3" text-anchor="end">10^-3</text>
<line class="grid" x1="90.0" y1="181.7" x2="870.0" y2="181.7"/>
<text class="label" x="82.0" y="185.7" text-anchor="end">10^-2</text>
<line class="grid" x1="90.0" y1="125.0" x2="870.0" y2="125.0"/>
<text class="label" x="82.0" y="129.0" text-anchor="end">10^-1</text>
<line class="grid" x1="90.0" y1="68.3" x2="870.0" y2="68.3"/>
<text class="label" x="82.0" y="72.3" text-anchor="end">1</text>
<line class="grid" x1="90.0" y1="40.0" x2="90.0" y2="550.0"/>
<text class="label" x="90.0" y="566.0" text-anchor="middle">0</text>
<line class="grid" x1="206.1" y1="40.0" x2="206.1" y2="550.0"/>
<text class="label" x="206.1" y="566.0" text-anchor="middle">5</text>
<line class="grid" x1="322.1" y1="40.0" x2="322.1" y2="550.0"/>
<text class="label" x="322.1" y="566.0" text-anchor="middle">10</text>
<line class="grid" x1="438.2" y1="40.0" x2="438.2" y2="550.0"/>
<text class="label" x="438.2" y="566.0" text-anchor="middle">15</text>
<line class="grid" x1="554.3" y1="40.0" x2="554.3" y2="550.0"/>
<text class="label" x="554.3" y="566.0" text-anchor="middle">20</text>
<line class="grid" x1="670.4" y1="40.0" x2="670.4" y2="550.0"/>
<text class="label" x="670.4" y="566.0" text-anchor="middle">25</text>
<line class="grid" x1="786.4" y1="40.0" x2="786.4" y2="550.0"/>
<text class="label" x="786.4" y="566.0" text-anchor="middle">30</text>
<polyline fill="none" stroke="#ef4444" stroke-width="2" stroke-dasharray="8,5" points="182.9,136.6 206.1,153.6 229.3,170.7 252.5,187.7 275.7,204.8 298.9,221.9 322.1,238.9 345.4,256.0 368.6,273.0 391.8,290.1 415.0,307.2 438.2,324.2 461.4,341.3 484.6,358.3 507.9,375.4 531.1,392.4 554.3,409.5 600.7,443.6 647.1,477.7 740.0,546.0 832.9,614.2"/>
<circle cx="182.9" cy="136.6" r="3" fill="#ef4444"/>
<circle cx="206.1" cy="153.6" r="3" fill="#ef4444"/>
<circle cx="229.3" cy="170.7" r="3" fill="#ef4444"/>
<circle cx="252.5" cy="187.7" r="3" fill="#ef4444"/>
<circle cx="275.7" cy="204.8" r="3" fill="#ef4444"/>
<circle cx="298.9" cy="221.9" r="3" fill="#ef4444"/>
<circle cx="322.1" cy="238.9" r="3" fill="#ef4444"/>
<circle cx="345.4" cy="256.0" r="3" fill="#ef4444"/>
<circle cx="368.6" cy="273.0" r="3" fill="#ef4444"/>
<circle cx="391.8" cy="290.1" r="3" fill="#ef4444"/>
<circle cx="415.0" cy="307.2" r="3" fill="#ef4444"/>
<circle cx="438.2" cy="324.2" r="3" fill="#ef4444"/>
<circle cx="461.4" cy="341.3" r="3" fill="#ef4444"/>
<circle cx="484.6" cy="358.3" r="3" fill="#ef4444"/>
<circle cx="507.9" cy="375.4" r="3" fill="#ef4444"/>
<circle cx="531.1" cy="392.4" r="3" fill="#ef4444"/>
<circle cx="554.3" cy="409.5" r="3" fill="#ef4444"/>
<circle cx="600.7" cy="443.6" r="3" fill="#ef4444"/>
<circle cx="647.1" cy="477.7" r="3" fill="#ef4444"/>
<circle cx="740.0" cy="546.0" r="3" fill="#ef4444"/>
<circle cx="832.9" cy="614.2" r="3" fill="#ef4444"/>
<polyline fill="none" stroke="#1a6b3c" stroke-width="2" points="90.1,521.7 90.1,375.4 91.6,309.3 101.6,290.1 251.8,254.2 436.8,274.2 483.3,303.8 529.7,345.8 576.1,402.4"/>
<polygon points="90.1,517.7 94.1,521.7 90.1,525.7 86.1,521.7" fill="#1a6b3c"/>
<polygon points="90.1,371.4 94.1,375.4 90.1,379.4 86.1,375.4" fill="#1a6b3c"/>
<polygon points="91.6,305.3 95.6,309.3 91.6,313.3 87.6,309.3" fill="#1a6b3c"/>
<polygon points="101.6,286.1 105.6,290.1 101.6,294.1 97.6,290.1" fill="#1a6b3c"/>
<polygon points="251.8,250.2 255.8,254.2 251.8,258.2 247.8,254.2" fill="#1a6b3c"/>
<polygon points="436.8,270.2 440.8,274.2 436.8,278.2 432.8,274.2" fill="#1a6b3c"/>
<polygon points="483.3,299.8 487.3,303.8 483.3,307.8 479.3,303.8" fill="#1a6b3c"/>
<polygon points="529.7,341.8 533.7,345.8 529.7,349.8 525.7,345.8" fill="#1a6b3c"/>
<polygon points="576.1,398.4 580.1,402.4 576.1,406.4 572.1,402.4" fill="#1a6b3c"/>
<polyline fill="none" stroke="#1a3a6b" stroke-width="2" points="168.0,85.3 214.0,119.5 261.7,153.4 307.7,187.8 353.7,222.2 399.7,254.3 447.4,289.1 493.5,330.0 539.4,375.4"/>
<polygon points="168.0,80.3 166.8,83.7 163.3,83.8 166.1,85.9 165.1,89.3 168.0,87.3 171.0,89.3 169.9,85.9 172.8,83.8 169.2,83.7" fill="#1a3a6b"/>
<polygon points="214.0,114.5 212.8,117.8 209.3,117.9 212.1,120.1 211.1,123.5 214.0,121.5 217.0,123.5 215.9,120.1 218.8,117.9 215.2,117.8" fill="#1a3a6b"/>
<polygon points="261.7,148.4 260.6,151.8 257.0,151.9 259.8,154.1 258.8,157.5 261.7,155.4 264.7,157.5 263.6,154.1 266.5,151.9 262.9,151.8" fill="#1a3a6b"/>
<polygon points="307.7,182.8 306.6,186.2 303.0,186.3 305.8,188.5 304.8,191.9 307.7,189.8 310.7,191.9 309.6,188.5 312.5,186.3 308.9,186.2" fill="#1a3a6b"/>
<polygon points="353.7,217.2 352.6,220.6 349.0,220.7 351.8,222.8 350.8,226.3 353.7,224.2 356.7,226.3 355.6,222.8 358.5,220.7 354.9,220.6" fill="#1a3a6b"/>
<polygon points="399.7,249.3 398.6,252.7 395.0,252.8 397.8,254.9 396.8,258.3 399.7,256.3 402.7,258.3 401.6,254.9 404.5,252.8 400.9,252.7" fill="#1a3a6b"/>
<polygon points="447.4,284.1 446.3,287.5 442.7,287.5 445.5,289.7 444.5,293.1 447.4,291.1 450.4,293.1 449.4,289.7 452.2,287.5 448.6,287.5" fill="#1a3a6b"/>
<polygon points="493.5,325.0 492.3,328.3 488.7,328.4 491.6,330.6 490.5,334.0 493.5,332.0 496.4,334.0 495.4,330.6 498.2,328.4 494.6,328.3" fill="#1a3a6b"/>
<polygon points="539.4,370.4 538.3,373.8 534.7,373.8 537.5,376.0 536.5,379.4 539.4,377.4 542.4,379.4 541.4,376.0 544.2,373.8 540.6,373.8" fill="#1a3a6b"/>
<polyline fill="none" stroke="#111111" stroke-width="2" points="139.8,68.3"/>
<rect x="136.8" y="65.3" width="6" height="6" fill="#111111"/>
<polyline fill="none" stroke="#111111" stroke-width="2" points="325.5,68.3"/>
<polygon points="325.5,64.3 329.5,71.3 321.5,71.3" fill="#111111"/>
<polyline fill="none" stroke="#111111" stroke-width="2" points="325.5,204.9"/>
<polygon points="325.5,200.9 329.5,204.9 325.5,208.9 321.5,204.9" fill="#111111"/>
<polyline fill="none" stroke="#2a7fff" stroke-width="2" points="90.0,136.4 90.0,153.5 90.0,170.6 90.0,187.3 90.0,204.2 90.0,220.7 90.0,237.2 90.0,253.7 90.0,269.1 90.0,285.9 90.0,309.3 90.0,327.5 90.0,341.3 90.0,351.2 90.0,368.3 90.0,385.4 90.0,402.4 90.0,521.7 90.0,521.7 90.0,521.7 90.0,521.7"/>
<rect x="87.0" y="133.4" width="6" height="6" fill="#2a7fff"/>
<rect x="87.0" y="150.5" width="6" height="6" fill="#2a7fff"/>
<rect x="87.0" y="167.6" width="6" height="6" fill="#2a7fff"/>
<rect x="87.0" y="184.3" width="6" height="6" fill="#2a7fff"/>
<rect x="87.0" y="201.2" width="6" height="6" fill="#2a7fff"/>
<rect x="87.0" y="217.7" width="6" height="6" fill="#2a7fff"/>
<rect x="87.0" y="234.2" width="6" height="6" fill="#2a7fff"/>
<rect x="87.0" y="250.7" width="6" height="6" fill="#2a7fff"/>
<rect x="87.0" y="266.1" width="6" height="6" fill="#2a7fff"/>
<rect x="87.0" y="282.9" width="6" height="6" fill="#2a7fff"/>
<rect x="87.0" y="306.3" width="6" height="6" fill="#2a7fff"/>
<rect x="87.0" y="324.5" width="6" height="6" fill="#2a7fff"/>
<rect x="87.0" y="338.3" width="6" height="6" fill="#2a7fff"/>
<rect x="87.0" y="348.2" width="6" height="6" fill="#2a7fff"/>
<rect x="87.0" y="365.3" width="6" height="6" fill="#2a7fff"/>
<rect x="87.0" y="382.4" width="6" height="6" fill="#2a7fff"/>
<rect x="87.0" y="399.4" width="6" height="6" fill="#2a7fff"/>
<rect x="87.0" y="518.7" width="6" height="6" fill="#2a7fff"/>
<rect x="87.0" y="518.7" width="6" height="6" fill="#2a7fff"/>
<rect x="87.0" y="518.7" width="6" height="6" fill="#2a7fff"/>
<rect x="87.0" y="518.7" width="6" height="6" fill="#2a7fff"/>
<polyline fill="none" stroke="#9b59b6" stroke-width="2" points="90.0,68.3 90.0,68.3 90.0,68.3 90.0,68.3 90.0,68.3 90.0,68.3 90.1,68.3 90.1,68.3 90.3,68.3 90.5,68.3 91.1,68.3 92.2,68.3 94.4,68.3 98.7,68.3 107.4,68.3 124.8,68.3 159.6,68.3 206.1,102.5 252.5,136.7 345.4,204.9 438.2,272.4"/>
<polygon points="90.0,64.3 94.0,71.3 86.0,71.3" fill="#9b59b6"/>
<polygon points="90.0,64.3 94.0,71.3 86.0,71.3" fill="#9b59b6"/>
<polygon points="90.0,64.3 94.0,71.3 86.0,71.3" fill="#9b59b6"/>
<polygon points="90.0,64.3 94.0,71.3 86.0,71.3" fill="#9b59b6"/>
<polygon points="90.0,64.3 94.0,71.3 86.0,71.3" fill="#9b59b6"/>
<polygon points="90.0,64.3 94.0,71.3 86.0,71.3" fill="#9b59b6"/>
<polygon points="90.1,64.3 94.1,71.3 86.1,71.3" fill="#9b59b6"/>
<polygon points="90.1,64.3 94.1,71.3 86.1,71.3" fill="#9b59b6"/>
<polygon points="90.3,64.3 94.3,71.3 86.3,71.3" fill="#9b59b6"/>
<polygon points="90.5,64.3 94.5,71.3 86.5,71.3" fill="#9b59b6"/>
<polygon points="91.1,64.3 95.1,71.3 87.1,71.3" fill="#9b59b6"/>
<polygon points="92.2,64.3 96.2,71.3 88.2,71.3" fill="#9b59b6"/>
<polygon points="94.4,64.3 98.4,71.3 90.4,71.3" fill="#9b59b6"/>
<polygon points="98.7,64.3 102.7,71.3 94.7,71.3" fill="#9b59b6"/>
<polygon points="107.4,64.3 111.4,71.3 103.4,71.3" fill="#9b59b6"/>
<polygon points="124.8,64.3 128.8,71.3 120.8,71.3" fill="#9b59b6"/>
<polygon points="159.6,64.3 163.6,71.3 155.6,71.3" fill="#9b59b6"/>
<polygon points="206.1,98.5 210.1,105.5 202.1,105.5" fill="#9b59b6"/>
<polygon points="252.5,132.7 256.5,139.7 248.5,139.7" fill="#9b59b6"/>
<polygon points="345.4,200.9 349.4,207.9 341.4,207.9" fill="#9b59b6"/>
<polygon points="438.2,268.4 442.2,275.4 434.2,275.4" fill="#9b59b6"/>
<polyline fill="none" stroke="#4dd88a" stroke-width="2" points="90.0,136.4 90.0,153.5 90.0,170.6 90.0,187.3 90.0,204.2 90.0,220.7 90.0,237.2 90.0,253.7 90.0,269.1 90.0,285.9 90.0,309.3 90.0,327.5 90.0,341.3 90.0,351.2 90.0,368.3 90.0,385.4 90.0,402.4 90.0,521.7 90.0,521.7 90.0,521.7 90.0,521.7"/>
<polygon points="90.0,132.4 94.0,136.4 90.0,140.4 86.0,136.4" fill="#4dd88a"/>
<polygon points="90.0,149.5 94.0,153.5 90.0,157.5 86.0,153.5" fill="#4dd88a"/>
<polygon points="90.0,166.6 94.0,170.6 90.0,174.6 86.0,170.6" fill="#4dd88a"/>
<polygon points="90.0,183.3 94.0,187.3 90.0,191.3 86.0,187.3" fill="#4dd88a"/>
<polygon points="90.0,200.2 94.0,204.2 90.0,208.2 86.0,204.2" fill="#4dd88a"/>
<polygon points="90.0,216.7 94.0,220.7 90.0,224.7 86.0,220.7" fill="#4dd88a"/>
<polygon points="90.0,233.2 94.0,237.2 90.0,241.2 86.0,237.2" fill="#4dd88a"/>
<polygon points="90.0,249.7 94.0,253.7 90.0,257.7 86.0,253.7" fill="#4dd88a"/>
<polygon points="90.0,265.1 94.0,269.1 90.0,273.1 86.0,269.1" fill="#4dd88a"/>
<polygon points="90.0,281.9 94.0,285.9 90.0,289.9 86.0,285.9" fill="#4dd88a"/>
<polygon points="90.0,305.3 94.0,309.3 90.0,313.3 86.0,309.3" fill="#4dd88a"/>
<polygon points="90.0,323.5 94.0,327.5 90.0,331.5 86.0,327.5" fill="#4dd88a"/>
<polygon points="90.0,337.3 94.0,341.3 90.0,345.3 86.0,341.3" fill="#4dd88a"/>
<polygon points="90.0,347.2 94.0,351.2 90.0,355.2 86.0,351.2" fill="#4dd88a"/>
<polygon points="90.0,364.3 94.0,368.3 90.0,372.3 86.0,368.3" fill="#4dd88a"/>
<polygon points="90.0,381.4 94.0,385.4 90.0,389.4 86.0,385.4" fill="#4dd88a"/>
<polygon points="90.0,398.4 94.0,402.4 90.0,406.4 86.0,402.4" fill="#4dd88a"/>
<polygon points="90.0,517.7 94.0,521.7 90.0,525.7 86.0,521.7" fill="#4dd88a"/>
<polygon points="90.0,517.7 94.0,521.7 90.0,525.7 86.0,521.7" fill="#4dd88a"/>
<polygon points="90.0,517.7 94.0,521.7 90.0,525.7 86.0,521.7" fill="#4dd88a"/>
<polygon points="90.0,517.7 94.0,521.7 90.0,525.7 86.0,521.7" fill="#4dd88a"/>
<polyline fill="none" stroke="#ff6b6b" stroke-width="2" points="90.0,68.3 90.0,68.3 90.0,68.3 90.0,68.3 90.0,68.3 90.0,68.3 90.1,68.3 90.1,68.3 90.3,68.3 90.5,68.3 91.1,68.3 92.2,68.3 94.4,68.3 98.7,68.3 107.4,68.3 124.8,68.3 159.6,68.3 206.1,102.5 252.5,136.7 345.4,204.9 438.2,272.4"/>
<polygon points="90.0,63.3 88.8,66.7 85.2,66.8 88.1,69.0 87.1,72.4 90.0,70.3 92.9,72.4 91.9,69.0 94.8,66.8 91.2,66.7" fill="#ff6b6b"/>
<polygon points="90.0,63.3 88.8,66.7 85.2,66.8 88.1,69.0 87.1,72.4 90.0,70.3 92.9,72.4 91.9,69.0 94.8,66.8 91.2,66.7" fill="#ff6b6b"/>
<polygon points="90.0,63.3 88.8,66.7 85.2,66.8 88.1,69.0 87.1,72.4 90.0,70.3 92.9,72.4 91.9,69.0 94.8,66.8 91.2,66.7" fill="#ff6b6b"/>
<polygon points="90.0,63.3 88.8,66.7 85.3,66.8 88.1,69.0 87.1,72.4 90.0,70.3 92.9,72.4 91.9,69.0 94.8,66.8 91.2,66.7" fill="#ff6b6b"/>
<polygon points="90.0,63.3 88.8,66.7 85.3,66.8 88.1,69.0 87.1,72.4 90.0,70.3 93.0,72.4 91.9,69.0 94.8,66.8 91.2,66.7" fill="#ff6b6b"/>
<polygon points="90.0,63.3 88.9,66.7 85.3,66.8 88.1,69.0 87.1,72.4 90.0,70.3 93.0,72.4 91.9,69.0 94.8,66.8 91.2,66.7" fill="#ff6b6b"/>
<polygon points="90.1,63.3 88.9,66.7 85.3,66.8 88.2,69.0 87.1,72.4 90.1,70.3 93.0,72.4 92.0,69.0 94.8,66.8 91.2,66.7" fill="#ff6b6b"/>
<polygon points="90.1,63.3 89.0,66.7 85.4,66.8 88.2,69.0 87.2,72.4 90.1,70.3 93.1,72.4 92.0,69.0 94.9,66.8 91.3,66.7" fill="#ff6b6b"/>
<polygon points="90.3,63.3 89.1,66.7 85.5,66.8 88.4,69.0 87.3,72.4 90.3,70.3 93.2,72.4 92.2,69.0 95.0,66.8 91.4,66.7" fill="#ff6b6b"/>
<polygon points="90.5,63.3 89.4,66.7 85.8,66.8 88.6,69.0 87.6,72.4 90.5,70.3 93.5,72.4 92.4,69.0 95.3,66.8 91.7,66.7" fill="#ff6b6b"/>
<polygon points="91.1,63.3 89.9,66.7 86.3,66.8 89.2,69.0 88.1,72.4 91.1,70.3 94.0,72.4 93.0,69.0 95.8,66.8 92.3,66.7" fill="#ff6b6b"/>
<polygon points="92.2,63.3 91.0,66.7 87.4,66.8 90.3,69.0 89.2,72.4 92.2,70.3 95.1,72.4 94.1,69.0 96.9,66.8 93.4,66.7" fill="#ff6b6b"/>
<polygon points="94.4,63.3 93.2,66.7 89.6,66.8 92.5,69.0 91.4,72.4 94.4,70.3 97.3,72.4 96.3,69.0 99.1,66.8 95.5,66.7" fill="#ff6b6b"/>
<polygon points="98.7,63.3 97.5,66.7 94.0,66.8 96.8,69.0 95.8,72.4 98.7,70.3 101.6,72.4 100.6,69.0 103.5,66.8 99.9,66.7" fill="#ff6b6b"/>
<polygon points="107.4,63.3 106.2,66.7 102.7,66.8 105.5,69.0 104.5,72.4 107.4,70.3 110.3,72.4 109.3,69.0 112.2,66.8 108.6,66.7" fill="#ff6b6b"/>
<polygon points="124.8,63.3 123.6,66.7 120.1,66.8 122.9,69.0 121.9,72.4 124.8,70.3 127.8,72.4 126.7,69.0 129.6,66.8 126.0,66.7" fill="#ff6b6b"/>
<polygon points="159.6,63.3 158.5,66.7 154.9,66.8 157.7,69.0 156.7,72.4 159.6,70.3 162.6,72.4 161.5,69.0 164.4,66.8 160.8,66.7" fill="#ff6b6b"/>
<polygon points="206.1,97.5 204.9,100.9 201.3,101.0 204.2,103.1 203.1,106.5 206.1,104.5 209.0,106.5 208.0,103.1 210.8,101.0 207.2,100.9" fill="#ff6b6b"/>
<polygon points="252.5,131.7 251.3,135.1 247.7,135.1 250.6,137.3 249.6,140.7 252.5,138.7 255.4,140.7 254.4,137.3 257.3,135.1 253.7,135.1" fill="#ff6b6b"/>
<polygon points="345.4,199.9 344.2,203.3 340.6,203.3 343.5,205.5 342.4,208.9 345.4,206.9 348.3,208.9 347.3,205.5 350.1,203.3 346.5,203.3" fill="#ff6b6b"/>
<polygon points="438.2,267.4 437.0,270.8 433.5,270.9 436.3,273.0 435.3,276.4 438.2,274.4 441.2,276.4 440.1,273.0 443.0,270.9 439.4,270.8" fill="#ff6b6b"/>
<polyline fill="none" stroke="#ff922b" stroke-width="2" points="298.9,136.7 322.1,153.6 345.4,170.9 368.6,187.7 391.8,204.9 415.0,222.2 438.2,240.4 461.4,255.8 507.9,290.1 531.1,305.7"/>
<circle cx="298.9" cy="136.7" r="3" fill="#ff922b"/>
<circle cx="322.1" cy="153.6" r="3" fill="#ff922b"/>
<circle cx="345.4" cy="170.9" r="3" fill="#ff922b"/>
<circle cx="368.6" cy="187.7" r="3" fill="#ff922b"/>
<circle cx="391.8" cy="204.9" r="3" fill="#ff922b"/>
<circle cx="415.0" cy="222.2" r="3" fill="#ff922b"/>
<circle cx="438.2" cy="240.4" r="3" fill="#ff922b"/>
<circle cx="461.4" cy="255.8" r="3" fill="#ff922b"/>
<circle cx="507.9" cy="290.1" r="3" fill="#ff922b"/>
<circle cx="531.1" cy="305.7" r="3" fill="#ff922b"/>
<polyline fill="none" stroke="#888888" stroke-width="2" stroke-dasharray="8,5" points="201.3,124.5 234.7,141.4 279.0,164.6 312.5,181.7 346.0,198.2 390.3,220.6 423.8,239.1 457.3,256.6 501.5,275.6 535.0,289.1"/>
<circle cx="201.3" cy="124.5" r="3" fill="#888888"/>
<circle cx="234.7" cy="141.4" r="3" fill="#888888"/>
<circle cx="279.0" cy="164.6" r="3" fill="#888888"/>
<circle cx="312.5" cy="181.7" r="3" fill="#888888"/>
<circle cx="346.0" cy="198.2" r="3" fill="#888888"/>
<circle cx="390.3" cy="220.6" r="3" fill="#888888"/>
<circle cx="423.8" cy="239.1" r="3" fill="#888888"/>
<circle cx="457.3" cy="256.6" r="3" fill="#888888"/>
<circle cx="501.5" cy="275.6" r="3" fill="#888888"/>
<circle cx="535.0" cy="289.1" r="3" fill="#888888"/>
<line x1="886" y1="60" x2="902" y2="60" stroke="#ef4444" stroke-width="2" stroke-dasharray="8,5"/>
<circle cx="894.0" cy="60.0" r="3" fill="#ef4444"/>
<text class="label" x="908" y="64">Theoretical</text>
<line x1="886" y1="78" x2="902" y2="78" stroke="#1a6b3c" stroke-width="2"/>
<polygon points="894.0,74.0 898.0,78.0 894.0,82.0 890.0,78.0" fill="#1a6b3c"/>
<text class="label" x="908" y="82">Grafite</text>
<line x1="886" y1="96" x2="902" y2="96" stroke="#1a3a6b" stroke-width="2"/>
<polygon points="894.0,91.0 892.8,94.4 889.2,94.5 892.1,96.6 891.1,100.0 894.0,98.0 896.9,100.0 895.9,96.6 898.8,94.5 895.2,94.4" fill="#1a3a6b"/>
<text class="label" x="908" y="100">SNARF</text>
<line x1="886" y1="114" x2="902" y2="114" stroke="#111111" stroke-width="2"/>
<rect x="891.0" y="111.0" width="6" height="6" fill="#111111"/>
<text class="label" x="908" y="118">SuRF</text>
<line x1="886" y1="132" x2="902" y2="132" stroke="#111111" stroke-width="2"/>
<polygon points="894.0,128.0 898.0,135.0 890.0,135.0" fill="#111111"/>
<text class="label" x="908" y="136">SuRFHash(8)</text>
<line x1="886" y1="150" x2="902" y2="150" stroke="#111111" stroke-width="2"/>
<polygon points="894.0,146.0 898.0,150.0 894.0,154.0 890.0,150.0" fill="#111111"/>
<text class="label" x="908" y="154">SuRFReal(8)</text>
<line x1="886" y1="168" x2="902" y2="168" stroke="#2a7fff" stroke-width="2"/>
<rect x="891.0" y="165.0" width="6" height="6" fill="#2a7fff"/>
<text class="label" x="908" y="172">Adaptive (t=0)</text>
<line x1="886" y1="186" x2="902" y2="186" stroke="#9b59b6" stroke-width="2"/>
<polygon points="894.0,182.0 898.0,189.0 890.0,189.0" fill="#9b59b6"/>
<text class="label" x="908" y="190">Truncation</text>
<line x1="886" y1="204" x2="902" y2="204" stroke="#4dd88a" stroke-width="2"/>
<polygon points="894.0,200.0 898.0,204.0 894.0,208.0 890.0,204.0" fill="#4dd88a"/>
<text class="label" x="908" y="208">SODA</text>
<line x1="886" y1="222" x2="902" y2="222" stroke="#ff6b6b" stroke-width="2"/>
<polygon points="894.0,217.0 892.8,220.4 889.2,220.5 892.1,222.6 891.1,226.0 894.0,224.0 896.9,226.0 895.9,222.6 898.8,220.5 895.2,220.4" fill="#ff6b6b"/>
<text class="label" x="908" y="226">Hybrid</text>
<line x1="886" y1="240" x2="902" y2="240" stroke="#ff922b" stroke-width="2"/>
<circle cx="894.0" cy="240.0" r="3" fill="#ff922b"/>
<text class="label" x="908" y="244">CDF-ARE</text>
<line x1="886" y1="258" x2="902" y2="258" stroke="#888888" stroke-width="2" stroke-dasharray="8,5"/>
<circle cx="894.0" cy="258.0" r="3" fill="#888888"/>
<text class="label" x="908" y="262">BloomARE</text>
<text x="480" y="590" text-anchor="middle">Bits per Key (BPK)</text>
<text transform="translate(16,295) rotate(-90)" text-anchor="middle">False Positive Rate (FPR)</text>
</svg>
