<svg xmlns="http://www.w3.org/2000/svg" width="1020" height="600" viewBox="0 0 1020 600">
<style>text{font-family:Menlo,Monaco,monospace;font-size:12px;fill:#222} .axis{stroke:#333;stroke-width:1} .grid{stroke:#eee;stroke-width:0.5} .label{font-size:11px;fill:#444}</style>
<text x="510" y="28" text-anchor="middle" style="font-size:14px;font-weight:bold">FPR vs BPK — sosd_wiki (60-bit keys, n=988851, L=1024)</text>
<line class="axis" x1="90.0" y1="550.0" x2="870.0" y2="550.0"/>
<line class="axis" x1="90.0" y1="40.0" x2="90.0" y2="550.0"/>
<line class="grid" x1="90.0" y1="521.7" x2="870.0" y2="521.7"/>
<text class="label" x="82.0" y="525.7" text-anchor="end">10^-8</text>
<line class="grid" x1="90.0" y1="465.0" x2="870.0" y2="465.0"/>
<text class="label" x="82.0" y="469.0" text-anchor="end">10^-7</text>
<line class="grid" x1="90.0" y1="408.3" x2="870.0" y2="408.3"/>
<text class="label" x="82.0" y="412.3" text-anchor="end">10^-6</text>
<line class="grid" x1="90.0" y1="351.7" x2="870.0" y2="351.7"/>
<text class="label" x="82.0" y="355.7" text-anchor="end">10^-5</text>
<line class="grid" x1="90.0" y1="295.0" x2="870.0" y2="295.0"/>
<text class="label" x="82.0" y="299.0" text-anchor="end">10^-4</text>
<line class="grid" x1="90.0" y1="238.3" x2="870.0" y2="238.3"/>
<text class="label" x="82.0" y="242.3" text-anchor="end">10^-3</text>
<line class="grid" x1="90.0" y1="181.7" x2="870.0" y2="181.7"/>
<text class="label" x="82.0" y="185.7" text-anchor="end">10^-2</text>
<line class="grid" x1="90.0" y1="125.0" x2="870.0" y2="125.0"/>
<text class="label" x="82.0" y="129.0" text-anchor="end">10^-1</text>
<line class="grid" x1="90.0" y1="68.3" x2="870.0" y2="68.3"/>
<text class="label" x="82.0" y="72.3" text-anchor="end">1</text>
<line class="grid" x1="90.0" y1="40.0" x2="90.0" y2="550.0"/>
<text class="label" x="90.0" y="566.0" text-anchor="middle">0</text>
<line class="grid" x1="200.6" y1="40.0" x2="200.6" y2="550.0"/>
<text class="label" x="200.6" y="566.0" text-anchor="middle">5</text>
<line class="grid" x1="311.1" y1="40.0" x2="311.1" y2="550.0"/>
<text class="label" x="311.1" y="566.0" text-anchor="middle">10</text>
<line class="grid" x1="421.7" y1="40.0" x2="421.7" y2="550.0"/>
<text class="label" x="421.7" y="566.0" text-anchor="middle">15</text>
<line class="grid" x1="532.2" y1="40.0" x2="532.2" y2="550.0"/>
<text class="label" x="532.2" y="566.0" text-anchor="middle">20</text>
<line class="grid" x1="642.8" y1="40.0" x2="642.8" y2="550.0"/>
<text class="label" x="642.8" y="566.0" text-anchor="middle">25</text>
<line class="grid" x1="753.3" y1="40.0" x2="753.3" y2="550.0"/>
<text class="label" x="753.3" y="566.0" text-anchor="middle">30</text>
<line class="grid" x1="863.9" y1="40.0" x2="863.9" y2="550.0"/>
<text class="label" x="863.9" y="566.0" text-anchor="middle">35</text>
<polyline fill="none" stroke="#ef4444" stroke-width="2" stroke-dasharray="8,5" points="311.1,68.3 333.2,85.4 355.3,102.5 377.4,119.5 399.6,136.6 421.7,153.6 443.8,170.7 465.9,187.7 488.0,204.8 510.1,221.9 532.2,238.9 576.4,273.0 620.7,307.2 709.1,375.4 797.5,443.6"/>
<circle cx="311.1" cy="68.3" r="3" fill="#ef4444"/>
<circle cx="333.2" cy="85.4" r="3" fill="#ef4444"/>
<circle cx="355.3" cy="102.5" r="3" fill="#ef4444"/>
<circle cx="377.4" cy="119.5" r="3" fill="#ef4444"/>
<circle cx="399.6" cy="136.6" r="3" fill="#ef4444"/>
<circle cx="421.7" cy="153.6" r="3" fill="#ef4444"/>
<circle cx="443.8" cy="170.7" r="3" fill="#ef4444"/>
<circle cx="465.9" cy="187.7" r="3" fill="#ef4444"/>
<circle cx="488.0" cy="204.8" r="3" fill="#ef4444"/>
<circle cx="510.1" cy="221.9" r="3" fill="#ef4444"/>
<circle cx="532.2" cy="238.9" r="3" fill="#ef4444"/>
<circle cx="576.4" cy="273.0" r="3" fill="#ef4444"/>
<circle cx="620.7" cy="307.2" r="3" fill="#ef4444"/>
<circle cx="709.1" cy="375.4" r="3" fill="#ef4444"/>
<circle cx="797.5" cy="443.6" r="3" fill="#ef4444"/>
<polyline fill="none" stroke="#1a6b3c" stroke-width="2" points="184.7,68.3 234.2,68.3 269.2,71.2"/>
<polygon points="184.7,64.3 188.7,68.3 184.7,72.3 180.7,68.3" fill="#1a6b3c"/>
<polygon points="234.2,64.3 238.2,68.3 234.2,72.3 230.2,68.3" fill="#1a6b3c"/>
<polygon points="269.2,67.2 273.2,71.2 269.2,75.2 265.2,71.2" fill="#1a6b3c"/>
<polyline fill="none" stroke="#1a3a6b" stroke-width="2" points="164.5,113.1 208.5,138.7 253.0,157.6 297.4,166.9 341.4,169.9 385.4,170.6 429.8,170.6 474.3,170.6 518.3,170.6"/>
<polygon points="164.5,108.1 163.3,111.5 159.7,111.5 162.6,113.7 161.6,117.1 164.5,115.1 167.4,117.1 166.4,113.7 169.3,111.5 165.7,111.5" fill="#1a3a6b"/>
<polygon points="208.5,133.7 207.3,137.1 203.8,137.2 206.6,139.4 205.6,142.8 208.5,140.7 211.5,142.8 210.4,139.4 213.3,137.2 209.7,137.1" fill="#1a3a6b"/>
<polygon points="253.0,152.6 251.8,156.0 248.2,156.1 251.1,158.2 250.0,161.7 253.0,159.6 255.9,161.7 254.9,158.2 257.7,156.1 254.1,156.0" fill="#1a3a6b"/>
<polygon points="297.4,161.9 296.2,165.2 292.6,165.3 295.5,167.5 294.5,170.9 297.4,168.9 300.3,170.9 299.3,167.5 302.2,165.3 298.6,165.2" fill="#1a3a6b"/>
<polygon points="341.4,164.9 340.2,168.2 336.6,168.3 339.5,170.5 338.4,173.9 341.4,171.9 344.3,173.9 343.3,170.5 346.1,168.3 342.6,168.2" fill="#1a3a6b"/>
<polygon points="385.4,165.6 384.2,169.0 380.6,169.0 383.5,171.2 382.5,174.6 385.4,172.6 388.3,174.6 387.3,171.2 390.2,169.0 386.6,169.0" fill="#1a3a6b"/>
<polygon points="429.8,165.6 428.7,169.0 425.1,169.0 427.9,171.2 426.9,174.6 429.8,172.6 432.8,174.6 431.8,171.2 434.6,169.0 431.0,169.0" fill="#1a3a6b"/>
<polygon points="474.3,165.6 473.1,169.0 469.5,169.0 472.4,171.2 471.3,174.6 474.3,172.6 477.2,174.6 476.2,171.2 479.0,169.0 475.5,169.0" fill="#1a3a6b"/>
<polygon points="518.3,165.6 517.1,169.0 513.5,169.0 516.4,171.2 515.3,174.6 518.3,172.6 521.2,174.6 520.2,171.2 523.0,169.0 519.4,169.0" fill="#1a3a6b"/>
<polyline fill="none" stroke="#111111" stroke-width="2" points="319.7,131.8"/>
<rect x="316.7" y="128.8" width="6" height="6" fill="#111111"/>
<polyline fill="none" stroke="#111111" stroke-width="2" points="496.6,131.8"/>
<polygon points="496.6,127.8 500.6,134.8 492.6,134.8" fill="#111111"/>
<polyline fill="none" stroke="#111111" stroke-width="2" points="496.6,349.0"/>
<polygon points="496.6,345.0 500.6,349.0 496.6,353.0 492.6,349.0" fill="#111111"/>
<polyline fill="none" stroke="#2a7fff" stroke-width="2" points="90.0,68.3 90.0,68.3 90.0,68.3 90.0,68.3 90.0,68.3 90.0,68.3 90.1,68.3 90.1,68.3 90.3,68.3 90.5,68.3 91.1,68.3 92.2,68.3 94.4,68.3 98.8,68.3 107.3,68.3 121.7,68.3 142.3,68.3 193.2,68.3 243.8,68.3 312.4,521.7 312.4,521.7"/>
<rect x="87.0" y="65.3" width="6" height="6" fill="#2a7fff"/>
<rect x="87.0" y="65.3" width="6" height="6" fill="#2a7fff"/>
<rect x="87.0" y="65.3" width="6" height="6" fill="#2a7fff"/>
<rect x="87.0" y="65.3" width="6" height="6" fill="#2a7fff"/>
<rect x="87.0" y="65.3" width="6" height="6" fill="#2a7fff"/>
<rect x="87.0" y="65.3" width="6" height="6" fill="#2a7fff"/>
<rect x="87.1" y="65.3" width="6" height="6" fill="#2a7fff"/>
<rect x="87.1" y="65.3" width="6" height="6" fill="#2a7fff"/>
<rect x="87.3" y="65.3" width="6" height="6" fill="#2a7fff"/>
<rect x="87.5" y="65.3" width="6" height="6" fill="#2a7fff"/>
<rect x="88.1" y="65.3" width="6" height="6" fill="#2a7fff"/>
<rect x="89.2" y="65.3" width="6" height="6" fill="#2a7fff"/>
<rect x="91.4" y="65.3" width="6" height="6" fill="#2a7fff"/>
<rect x="95.8" y="65.3" width="6" height="6" fill="#2a7fff"/>
<rect x="104.3" y="65.3" width="6" height="6" fill="#2a7fff"/>
<rect x="118.7" y="65.3" width="6" height="6" fill="#2a7fff"/>
<rect x="139.3" y="65.3" width="6" height="6" fill="#2a7fff"/>
<rect x="190.2" y="65.3" width="6" height="6" fill="#2a7fff"/>
<rect x="240.8" y="65.3" width="6" height="6" fill="#2a7fff"/>
<rect x="309.4" y="518.7" width="6" height="6" fill="#2a7fff"/>
<rect x="309.4" y="518.7" width="6" height="6" fill="#2a7fff"/>
<polyline fill="none" stroke="#9b59b6" stroke-width="2" points="90.0,68.3 90.0,68.3 90.0,68.3 90.0,68.3 90.0,68.3 90.0,68.3 90.0,68.3 90.1,68.6 90.2,69.0 90.4,71.5 90.7,76.1 91.4,83.3 92.7,92.6 95.1,102.1 99.6,114.8 107.6,129.0 121.5,144.6 169.6,177.7 229.5,213.4 334.6,521.7 423.0,521.7"/>
<polygon points="90.0,64.3 94.0,71.3 86.0,71.3" fill="#9b59b6"/>
<polygon points="90.0,64.3 94.0,71.3 86.0,71.3" fill="#9b59b6"/>
<polygon points="90.0,64.3 94.0,71.3 86.0,71.3" fill="#9b59b6"/>
<polygon points="90.0,64.3 94.0,71.3 86.0,71.3" fill="#9b59b6"/>
<polygon points="90.0,64.3 94.0,71.3 86.0,71.3" fill="#9b59b6"/>
<polygon points="90.0,64.3 94.0,71.3 86.0,71.3" fill="#9b59b6"/>
<polygon points="90.0,64.3 94.0,71.3 86.0,71.3" fill="#9b59b6"/>
<polygon points="90.1,64.6 94.1,71.6 86.1,71.6" fill="#9b59b6"/>
<polygon points="90.2,65.0 94.2,72.0 86.2,72.0" fill="#9b59b6"/>
<polygon points="90.4,67.5 94.4,74.5 86.4,74.5" fill="#9b59b6"/>
<polygon points="90.7,72.1 94.7,79.1 86.7,79.1" fill="#9b59b6"/>
<polygon points="91.4,79.3 95.4,86.3 87.4,86.3" fill="#9b59b6"/>
<polygon points="92.7,88.6 96.7,95.6 88.7,95.6" fill="#9b59b6"/>
<polygon points="95.1,98.1 99.1,105.1 91.1,105.1" fill="#9b59b6"/>
<polygon points="99.6,110.8 103.6,117.8 95.6,117.8" fill="#9b59b6"/>
<polygon points="107.6,125.0 111.6,132.0 103.6,132.0" fill="#9b59b6"/>
<polygon points="121.5,140.6 125.5,147.6 117.5,147.6" fill="#9b59b6"/>
<polygon points="169.6,173.7 173.6,180.7 165.6,180.7" fill="#9b59b6"/>
<polygon points="229.5,209.4 233.5,216.4 225.5,216.4" fill="#9b59b6"/>
<polygon points="334.6,517.7 338.6,524.7 330.6,524.7" fill="#9b59b6"/>
<polygon points="423.0,517.7 427.0,524.7 419.0,524.7" fill="#9b59b6"/>
<polyline fill="none" stroke="#4dd88a" stroke-width="2" points="90.0,68.3 90.0,68.3 90.0,68.3 90.0,68.3 90.0,68.3 90.0,68.3 90.1,68.3 90.1,68.3 90.3,68.3 90.5,68.3 91.1,68.3 92.2,68.3 94.4,68.3 98.8,68.3 107.3,68.3 121.7,68.3 142.3,68.3 193.2,68.3 243.8,68.3 334.6,521.7 423.0,521.7"/>
<polygon points="90.0,64.3 94.0,68.3 90.0,72.3 86.0,68.3" fill="#4dd88a"/>
<polygon points="90.0,64.3 94.0,68.3 90.0,72.3 86.0,68.3" fill="#4dd88a"/>
<polygon points="90.0,64.3 94.0,68.3 90.0,72.3 86.0,68.3" fill="#4dd88a"/>
<polygon points="90.0,64.3 94.0,68.3 90.0,72.3 86.0,68.3" fill="#4dd88a"/>
<polygon points="90.0,64.3 94.0,68.3 90.0,72.3 86.0,68.3" fill="#4dd88a"/>
<polygon points="90.0,64.3 94.0,68.3 90.0,72.3 86.0,68.3" fill="#4dd88a"/>
<polygon points="90.1,64.3 94.1,68.3 90.1,72.3 86.1,68.3" fill="#4dd88a"/>
<polygon points="90.1,64.3 94.1,68.3 90.1,72.3 86.1,68.3" fill="#4dd88a"/>
<polygon points="90.3,64.3 94.3,68.3 90.3,72.3 86.3,68.3" fill="#4dd88a"/>
<polygon points="90.5,64.3 94.5,68.3 90.5,72.3 86.5,68.3" fill="#4dd88a"/>
<polygon points="91.1,64.3 95.1,68.3 91.1,72.3 87.1,68.3" fill="#4dd88a"/>
<polygon points="92.2,64.3 96.2,68.3 92.2,72.3 88.2,68.3" fill="#4dd88a"/>
<polygon points="94.4,64.3 98.4,68.3 94.4,72.3 90.4,68.3" fill="#4dd88a"/>
<polygon points="98.8,64.3 102.8,68.3 98.8,72.3 94.8,68.3" fill="#4dd88a"/>
<polygon points="107.3,64.3 111.3,68.3 107.3,72.3 103.3,68.3" fill="#4dd88a"/>
<polygon points="121.7,64.3 125.7,68.3 121.7,72.3 117.7,68.3" fill="#4dd88a"/>
<polygon points="142.3,64.3 146.3,68.3 142.3,72.3 138.3,68.3" fill="#4dd88a"/>
<polygon points="193.2,64.3 197.2,68.3 193.2,72.3 189.2,68.3" fill="#4dd88a"/>
<polygon points="243.8,64.3 247.8,68.3 243.8,72.3 239.8,68.3" fill="#4dd88a"/>
<polygon points="334.6,517.7 338.6,521.7 334.6,525.7 330.6,521.7" fill="#4dd88a"/>
<polygon points="423.0,517.7 427.0,521.7 423.0,525.7 419.0,521.7" fill="#4dd88a"/>
<polyline fill="none" stroke="#ff6b6b" stroke-width="2" points="90.0,68.3 90.0,68.3 90.0,68.3 90.0,68.3 90.0,68.3 90.1,68.3 90.1,68.3 90.2,68.6 90.5,69.0 90.9,71.5 91.5,76.1 92.5,83.3 94.1,92.6 96.5,102.1 100.9,114.8 109.0,129.0 122.8,144.6 170.9,177.7 230.3,213.4 333.4,521.7 420.9,521.7"/>
<polygon points="90.0,63.3 88.8,66.7 85.2,66.8 88.1,69.0 87.1,72.4 90.0,70.3 92.9,72.4 91.9,69.0 94.8,66.8 91.2,66.7" fill="#ff6b6b"/>
<polygon points="90.0,63.3 88.8,66.7 85.3,66.8 88.1,69.0 87.1,72.4 90.0,70.3 92.9,72.4 91.9,69.0 94.8,66.8 91.2,66.7" fill="#ff6b6b"/>
<polygon points="90.0,63.3 88.8,66.7 85.3,66.8 88.1,69.0 87.1,72.4 90.0,70.3 92.9,72.4 91.9,69.0 94.8,66.8 91.2,66.7" fill="#ff6b6b"/>
<polygon points="90.0,63.3 88.8,66.7 85.3,66.8 88.1,69.0 87.1,72.4 90.0,70.3 93.0,72.4 91.9,69.0 94.8,66.8 91.2,66.7" fill="#ff6b6b"/>
<polygon points="90.0,63.3 88.9,66.7 85.3,66.8 88.1,69.0 87.1,72.4 90.0,70.3 93.0,72.4 91.9,69.0 94.8,66.8 91.2,66.7" fill="#ff6b6b"/>
<polygon points="90.1,63.3 88.9,66.7 85.3,66.8 88.2,69.0 87.1,72.4 90.1,70.3 93.0,72.4 92.0,69.0 94.8,66.8 91.2,66.7" fill="#ff6b6b"/>
<polygon points="90.1,63.3 88.9,66.7 85.4,66.8 88.2,69.0 87.2,72.4 90.1,70.3 93.1,72.4 92.0,69.0 94.9,66.8 91.3,66.7" fill="#ff6b6b"/>
<polygon points="90.2,63.6 89.1,67.0 85.5,67.1 88.3,69.2 87.3,72.7 90.2,70.6 93.2,72.7 92.1,69.2 95.0,67.1 91.4,67.0" fill="#ff6b6b"/>
<polygon points="90.5,64.0 89.3,67.4 85.7,67.4 88.6,69.6 87.5,73.0 90.5,71.0 93.4,73.0 92.4,69.6 95.2,67.4 91.6,67.4" fill="#ff6b6b"/>
<polygon points="90.9,66.5 89.7,69.9 86.1,70.0 89.0,72.2 87.9,75.6 90.9,73.5 93.8,75.6 92.8,72.2 95.6,70.0 92.0,69.9" fill="#ff6b6b"/>
<polygon points="91.5,71.1 90.3,74.5 86.8,74.6 89.6,76.8 88.6,80.2 91.5,78.1 94.5,80.2 93.4,76.8 96.3,74.6 92.7,74.5" fill="#ff6b6b"/>
<polygon points="92.5,78.3 91.3,81.7 87.7,81.7 90.6,83.9 89.6,87.3 92.5,85.3 95.4,87.3 94.4,83.9 97.3,81.7 93.7,81.7" fill="#ff6b6b"/>
<polygon points="94.1,87.6 92.9,91.0 89.3,91.1 92.2,93.2 91.1,96.7 94.1,94.6 97.0,96.7 96.0,93.2 98.8,91.1 95.2,91.0" fill="#ff6b6b"/>
<polygon points="96.5,97.1 95.3,100.4 91.7,100.5 94.6,102.7 93.5,106.1 96.5,104.1 99.4,106.1 98.4,102.7 101.2,100.5 97.7,100.4" fill="#ff6b6b"/>
<polygon points="100.9,109.8 99.8,113.2 96.2,113.3 99.0,115.5 98.0,118.9 100.9,116.8 103.9,118.9 102.8,115.5 105.7,113.3 102.1,113.2" fill="#ff6b6b"/>
<polygon points="109.0,124.0 107.8,127.3 104.2,127.4 107.1,129.6 106.0,133.0 109.0,131.0 111.9,133.0 110.9,129.6 113.7,127.4 110.2,127.3" fill="#ff6b6b"/>
<polygon points="122.8,139.6 121.7,142.9 118.1,143.0 120.9,145.2 119.9,148.6 122.8,146.6 125.8,148.6 124.7,145.2 127.6,143.0 124.0,142.9" fill="#ff6b6b"/>
<polygon points="170.9,172.7 169.7,176.1 166.1,176.2 169.0,178.3 167.9,181.8 170.9,179.7 173.8,181.8 172.8,178.3 175.6,176.2 172.0,176.1" fill="#ff6b6b"/>
<polygon points="230.3,208.4 229.1,211.8 225.6,211.9 228.4,214.0 227.4,217.5 230.3,215.4 233.2,217.5 232.2,214.0 235.1,211.9 231.5,211.8" fill="#ff6b6b"/>
<polygon points="333.4,516.7 332.2,520.0 328.7,520.1 331.5,522.3 330.5,525.7 333.4,523.7 336.4,525.7 335.3,522.3 338.2,520.1 334.6,520.0" fill="#ff6b6b"/>
<polygon points="420.9,516.7 419.7,520.0 416.1,520.1 419.0,522.3 417.9,525.7 420.9,523.7 423.8,525.7 422.8,522.3 425.6,520.1 422.0,520.0" fill="#ff6b6b"/>
<polyline fill="none" stroke="#ff922b" stroke-width="2" points="555.7,521.7 577.8,521.7 599.9,521.7 622.0,521.7 644.1,521.7 666.2,521.7 688.3,521.7 710.4,521.7 754.7,521.7 776.8,521.7"/>
<circle cx="555.7" cy="521.7" r="3" fill="#ff922b"/>
<circle cx="577.8" cy="521.7" r="3" fill="#ff922b"/>
<circle cx="599.9" cy="521.7" r="3" fill="#ff922b"/>
<circle cx="622.0" cy="521.7" r="3" fill="#ff922b"/>
<circle cx="644.1" cy="521.7" r="3" fill="#ff922b"/>
<circle cx="666.2" cy="521.7" r="3" fill="#ff922b"/>
<circle cx="688.3" cy="521.7" r="3" fill="#ff922b"/>
<circle cx="710.4" cy="521.7" r="3" fill="#ff922b"/>
<circle cx="754.7" cy="521.7" r="3" fill="#ff922b"/>
<circle cx="776.8" cy="521.7" r="3" fill="#ff922b"/>
<polyline fill="none" stroke="#888888" stroke-width="2" stroke-dasharray="8,5" points="512.6,125.6 545.7,141.3 588.6,164.8 620.7,180.5 652.7,196.3 694.9,223.5 726.9,235.2 758.8,257.3 801.0,312.0 832.9,290.0"/>
<circle cx="512.6" cy="125.6" r="3" fill="#888888"/>
<circle cx="545.7" cy="141.3" r="3" fill="#888888"/>
<circle cx="588.6" cy="164.8" r="3" fill="#888888"/>
<circle cx="620.7" cy="180.5" r="3" fill="#888888"/>
<circle cx="652.7" cy="196.3" r="3" fill="#888888"/>
<circle cx="694.9" cy="223.5" r="3" fill="#888888"/>
<circle cx="726.9" cy="235.2" r="3" fill="#888888"/>
<circle cx="758.8" cy="257.3" r="3" fill="#888888"/>
<circle cx="801.0" cy="312.0" r="3" fill="#888888"/>
<circle cx="832.9" cy="290.0" r="3" fill="#888888"/>
<line x1="886" y1="60" x2="902" y2="60" stroke="#ef4444" stroke-width="2" stroke-dasharray="8,5"/>
<circle cx="894.0" cy="60.0" r="3" fill="#ef4444"/>
<text class="label" x="908" y="64">Theoretical</text>
<line x1="886" y1="78" x2="902" y2="78" stroke="#1a6b3c" stroke-width="2"/>
<polygon points="894.0,74.0 898.0,78.0 894.0,82.0 890.0,78.0" fill="#1a6b3c"/>
<text class="label" x="908" y="82">Grafite</text>
<line x1="886" y1="96" x2="902" y2="96" stroke="#1a3a6b" stroke-width="2"/>
<polygon points="894.0,91.0 892.8,94.4 889.2,94.5 892.1,96.6 891.1,100.0 894.0,98.0 896.9,100.0 895.9,96.6 898.8,94.5 895.2,94.4" fill="#1a3a6b"/>
<text class="label" x="908" y="100">SNARF</text>
<line x1="886" y1="114" x2="902" y2="114" stroke="#111111" stroke-width="2"/>
<rect x="891.0" y="111.0" width="6" height="6" fill="#111111"/>
<text class="label" x="908" y="118">SuRF</text>
<line x1="886" y1="132" x2="902" y2="132" stroke="#111111" stroke-width="2"/>
<polygon points="894.0,128.0 898.0,135.0 890.0,135.0" fill="#111111"/>
<text class="label" x="908" y="136">SuRFHash(8)</text>
<line x1="886" y1="150" x2="902" y2="150" stroke="#111111" stroke-width="2"/>
<polygon points="894.0,146.0 898.0,150.0 894.0,154.0 890.0,150.0" fill="#111111"/>
<text class="label" x="908" y="154">SuRFReal(8)</text>
<line x1="886" y1="168" x2="902" y2="168" stroke="#2a7fff" stroke-width="2"/>
<rect x="891.0" y="165.0" width="6" height="6" fill="#2a7fff"/>
<text class="label" x="908" y="172">Adaptive (t=0)</text>
<line x1="886" y1="186" x2="902" y2="186" stroke="#9b59b6" stroke-width="2"/>
<polygon points="894.0,182.0 898.0,189.0 890.0,189.0" fill="#9b59b6"/>
<text class="label" x="908" y="190">Truncation</text>
<line x1="886" y1="204" x2="902" y2="204" stroke="#4dd88a" stroke-width="2"/>
<polygon points="894.0,200.0 898.0,204.0 894.0,208.0 890.0,204.0" fill="#4dd88a"/>
<text class="label" x="908" y="208">SODA</text>
<line x1="886" y1="222" x2="902" y2="222" stroke="#ff6b6b" stroke-width="2"/>
<polygon points="894.0,217.0 892.8,220.4 889.2,220.5 892.1,222.6 891.1,226.0 894.0,224.0 896.9,226.0 895.9,222.6 898.8,220.5 895.2,220.4" fill="#ff6b6b"/>
<text class="label" x="908" y="226">Hybrid</text>
<line x1="886" y1="240" x2="902" y2="240" stroke="#ff922b" stroke-width="2"/>
<circle cx="894.0" cy="240.0" r="3" fill="#ff922b"/>
<text class="label" x="908" y="244">CDF-ARE</text>
<line x1="886" y1="258" x2="902" y2="258" stroke="#888888" stroke-width="2" stroke-dasharray="8,5"/>
<circle cx="894.0" cy="258.0" r="3" fill="#888888"/>
<text class="label" x="908" y="262">BloomARE</text>
<text x="480" y="590" text-anchor="middle">Bits per Key (BPK)</text>
<text transform="translate(16,295) rotate(-90)" text-anchor="middle">False Positive Rate (FPR)</text>
</svg>
