<svg xmlns="http://www.w3.org/2000/svg" width="1020" height="600" viewBox="0 0 1020 600">
<style>text{font-family:Menlo,Monaco,monospace;font-size:12px;fill:#222} .axis{stroke:#333;stroke-width:1} .grid{stroke:#eee;stroke-width:0.5} .label{font-size:11px;fill:#444}</style>
<text x="510" y="28" text-anchor="middle" style="font-size:14px;font-weight:bold">FPR vs BPK — clustered (60-bit keys, n=262144, L=1)</text>
<line class="axis" x1="90.0" y1="550.0" x2="870.0" y2="550.0"/>
<line class="axis" x1="90.0" y1="40.0" x2="90.0" y2="550.0"/>
<line class="grid" x1="90.0" y1="521.7" x2="870.0" y2="521.7"/>
<text class="label" x="82.0" y="525.7" text-anchor="end">10^-8</text>
<line class="grid" x1="90.0" y1="465.0" x2="870.0" y2="465.0"/>
<text class="label" x="82.0" y="469.0" text-anchor="end">10^-7</text>
<line class="grid" x1="90.0" y1="408.3" x2="870.0" y2="408.3"/>
<text class="label" x="82.0" y="412.3" text-anchor="end">10^-6</text>
<line class="grid" x1="90.0" y1="351.7" x2="870.0" y2="351.7"/>
<text class="label" x="82.0" y="355.7" text-anchor="end">10^-5</text>
<line class="grid" x1="90.0" y1="295.0" x2="870.0" y2="295.0"/>
<text class="label" x="82.0" y="299.0" text-anchor="end">10^-4</text>
<line class="grid" x1="90.0" y1="238.3" x2="870.0" y2="238.3"/>
<text class="label" x="82.0" y="242.3" text-anchor="end">10^-3</text>
<line class="grid" x1="90.0" y1="181.7" x2="870.0" y2="181.7"/>
<text class="label" x="82.0" y="185.7" text-anchor="end">10^-2</text>
<line class="grid" x1="90.0" y1="125.0" x2="870.0" y2="125.0"/>
<text class="label" x="82.0" y="129.0" text-anchor="end">10^-1</text>
<line class="grid" x1="90.0" y1="68.3" x2="870.0" y2="68.3"/>
<text class="label" x="82.0" y="72.3" text-anchor="end">1</text>
<line class="grid" x1="90.0" y1="40.0" x2="90.0" y2="550.0"/>
<text class="label" x="90.0" y="566.0" text-anchor="middle">0</text>
<line class="grid" x1="206.1" y1="40.0" x2="206.1" y2="550.0"/>
<text class="label" x="206.1" y="566.0" text-anchor="middle">5</text>
<line class="grid" x1="322.1" y1="40.0" x2="322.1" y2="550.0"/>
<text class="label" x="322.1" y="566.0" text-anchor="middle">10</text>
<line class="grid" x1="438.2" y1="40.0" x2="438.2" y2="550.0"/>
<text class="label" x="438.2" y="566.0" text-anchor="middle">15</text>
<line class="grid" x1="554.3" y1="40.0" x2="554.3" y2="550.0"/>
<text class="label" x="554.3" y="566.0" text-anchor="middle">20</text>
<line class="grid" x1="670.4" y1="40.0" x2="670.4" y2="550.0"/>
<text class="label" x="670.4" y="566.0" text-anchor="middle">25</text>
<line class="grid" x1="786.4" y1="40.0" x2="786.4" y2="550.0"/>
<text class="label" x="786.4" y="566.0" text-anchor="middle">30</text>
<polyline fill="none" stroke="#ef4444" stroke-width="2" stroke-dasharray="8,5" points="182.9,136.6 206.1,153.6 229.3,170.7 252.5,187.7 275.7,204.8 298.9,221.9 322.1,238.9 345.4,256.0 368.6,273.0 391.8,290.1 415.0,307.2 438.2,324.2 461.4,341.3 484.6,358.3 507.9,375.4 531.1,392.4 554.3,409.5 600.7,443.6 647.1,477.7 740.0,546.0 832.9,614.2"/>
<circle cx="182.9" cy="136.6" r="3" fill="#ef4444"/>
<circle cx="206.1" cy="153.6" r="3" fill="#ef4444"/>
<circle cx="229.3" cy="170.7" r="3" fill="#ef4444"/>
<circle cx="252.5" cy="187.7" r="3" fill="#ef4444"/>
<circle cx="275.7" cy="204.8" r="3" fill="#ef4444"/>
<circle cx="298.9" cy="221.9" r="3" fill="#ef4444"/>
<circle cx="322.1" cy="238.9" r="3" fill="#ef4444"/>
<circle cx="345.4" cy="256.0" r="3" fill="#ef4444"/>
<circle cx="368.6" cy="273.0" r="3" fill="#ef4444"/>
<circle cx="391.8" cy="290.1" r="3" fill="#ef4444"/>
<circle cx="415.0" cy="307.2" r="3" fill="#ef4444"/>
<circle cx="438.2" cy="324.2" r="3" fill="#ef4444"/>
<circle cx="461.4" cy="341.3" r="3" fill="#ef4444"/>
<circle cx="484.6" cy="358.3" r="3" fill="#ef4444"/>
<circle cx="507.9" cy="375.4" r="3" fill="#ef4444"/>
<circle cx="531.1" cy="392.4" r="3" fill="#ef4444"/>
<circle cx="554.3" cy="409.5" r="3" fill="#ef4444"/>
<circle cx="600.7" cy="443.6" r="3" fill="#ef4444"/>
<circle cx="647.1" cy="477.7" r="3" fill="#ef4444"/>
<circle cx="740.0" cy="546.0" r="3" fill="#ef4444"/>
<circle cx="832.9" cy="614.2" r="3" fill="#ef4444"/>
<polyline fill="none" stroke="#1a6b3c" stroke-width="2" points="188.9,105.6 240.5,137.9 289.3,172.4 336.5,200.8 383.2,238.9 429.8,273.4 483.5,337.4 529.9,385.3 576.3,521.7"/>
<polygon points="188.9,101.6 192.9,105.6 188.9,109.6 184.9,105.6" fill="#1a6b3c"/>
<polygon points="240.5,133.9 244.5,137.9 240.5,141.9 236.5,137.9" fill="#1a6b3c"/>
<polygon points="289.3,168.4 293.3,172.4 289.3,176.4 285.3,172.4" fill="#1a6b3c"/>
<polygon points="336.5,196.8 340.5,200.8 336.5,204.8 332.5,200.8" fill="#1a6b3c"/>
<polygon points="383.2,234.9 387.2,238.9 383.2,242.9 379.2,238.9" fill="#1a6b3c"/>
<polygon points="429.8,269.4 433.8,273.4 429.8,277.4 425.8,273.4" fill="#1a6b3c"/>
<polygon points="483.5,333.4 487.5,337.4 483.5,341.4 479.5,337.4" fill="#1a6b3c"/>
<polygon points="529.9,381.3 533.9,385.3 529.9,389.3 525.9,385.3" fill="#1a6b3c"/>
<polygon points="576.3,517.7 580.3,521.7 576.3,525.7 572.3,521.7" fill="#1a6b3c"/>
<polyline fill="none" stroke="#1a3a6b" stroke-width="2" points="168.3,84.6 214.5,97.6 261.1,103.8 307.8,105.7 354.0,106.2 400.2,106.3 446.8,106.3 493.5,106.3 539.7,106.3"/>
<polygon points="168.3,79.6 167.1,83.0 163.5,83.1 166.4,85.2 165.3,88.7 168.3,86.6 171.2,88.7 170.2,85.2 173.0,83.1 169.5,83.0" fill="#1a3a6b"/>
<polygon points="214.5,92.6 213.3,96.0 209.7,96.1 212.6,98.3 211.5,101.7 214.5,99.6 217.4,101.7 216.4,98.3 219.2,96.1 215.7,96.0" fill="#1a3a6b"/>
<polygon points="261.1,98.8 259.9,102.2 256.4,102.3 259.2,104.4 258.2,107.9 261.1,105.8 264.1,107.9 263.0,104.4 265.9,102.3 262.3,102.2" fill="#1a3a6b"/>
<polygon points="307.8,100.7 306.6,104.1 303.0,104.2 305.9,106.4 304.9,109.8 307.8,107.7 310.7,109.8 309.7,106.4 312.6,104.2 309.0,104.1" fill="#1a3a6b"/>
<polygon points="354.0,101.2 352.8,104.6 349.2,104.7 352.1,106.8 351.1,110.3 354.0,108.2 356.9,110.3 355.9,106.8 358.7,104.7 355.2,104.6" fill="#1a3a6b"/>
<polygon points="400.2,101.3 399.0,104.7 395.4,104.7 398.3,106.9 397.3,110.3 400.2,108.3 403.1,110.3 402.1,106.9 404.9,104.7 401.4,104.7" fill="#1a3a6b"/>
<polygon points="446.8,101.3 445.7,104.7 442.1,104.8 444.9,106.9 443.9,110.3 446.8,108.3 449.8,110.3 448.7,106.9 451.6,104.8 448.0,104.7" fill="#1a3a6b"/>
<polygon points="493.5,101.3 492.3,104.7 488.8,104.8 491.6,106.9 490.6,110.3 493.5,108.3 496.5,110.3 495.4,106.9 498.3,104.8 494.7,104.7" fill="#1a3a6b"/>
<polygon points="539.7,101.3 538.5,104.7 535.0,104.8 537.8,106.9 536.8,110.3 539.7,108.3 542.6,110.3 541.6,106.9 544.5,104.8 540.9,104.7" fill="#1a3a6b"/>
<polyline fill="none" stroke="#111111" stroke-width="2" points="527.9,109.6"/>
<rect x="524.9" y="106.6" width="6" height="6" fill="#111111"/>
<polyline fill="none" stroke="#111111" stroke-width="2" points="713.6,109.6"/>
<polygon points="713.6,105.6 717.6,112.6 709.6,112.6" fill="#111111"/>
<polyline fill="none" stroke="#111111" stroke-width="2" points="713.6,314.2"/>
<polygon points="713.6,310.2 717.6,314.2 713.6,318.2 709.6,314.2" fill="#111111"/>
<polyline fill="none" stroke="#2a7fff" stroke-width="2" points="90.0,68.3 90.0,68.3 90.0,68.3 90.0,68.3 90.1,68.3 90.1,68.3 90.3,68.3 90.5,68.3 91.1,68.3 92.2,68.3 94.4,68.3 98.7,68.3 107.2,68.8 121.7,72.0 142.5,79.7 167.9,91.4 195.3,105.6 248.4,137.7 297.7,172.3 391.7,241.6 484.6,337.4"/>
<rect x="87.0" y="65.3" width="6" height="6" fill="#2a7fff"/>
<rect x="87.0" y="65.3" width="6" height="6" fill="#2a7fff"/>
<rect x="87.0" y="65.3" width="6" height="6" fill="#2a7fff"/>
<rect x="87.0" y="65.3" width="6" height="6" fill="#2a7fff"/>
<rect x="87.1" y="65.3" width="6" height="6" fill="#2a7fff"/>
<rect x="87.1" y="65.3" width="6" height="6" fill="#2a7fff"/>
<rect x="87.3" y="65.3" width="6" height="6" fill="#2a7fff"/>
<rect x="87.5" y="65.3" width="6" height="6" fill="#2a7fff"/>
<rect x="88.1" y="65.3" width="6" height="6" fill="#2a7fff"/>
<rect x="89.2" y="65.3" width="6" height="6" fill="#2a7fff"/>
<rect x="91.4" y="65.3" width="6" height="6" fill="#2a7fff"/>
<rect x="95.7" y="65.3" width="6" height="6" fill="#2a7fff"/>
<rect x="104.2" y="65.8" width="6" height="6" fill="#2a7fff"/>
<rect x="118.7" y="69.0" width="6" height="6" fill="#2a7fff"/>
<rect x="139.5" y="76.7" width="6" height="6" fill="#2a7fff"/>
<rect x="164.9" y="88.4" width="6" height="6" fill="#2a7fff"/>
<rect x="192.3" y="102.6" width="6" height="6" fill="#2a7fff"/>
<rect x="245.4" y="134.7" width="6" height="6" fill="#2a7fff"/>
<rect x="294.7" y="169.3" width="6" height="6" fill="#2a7fff"/>
<rect x="388.7" y="238.6" width="6" height="6" fill="#2a7fff"/>
<rect x="481.6" y="334.4" width="6" height="6" fill="#2a7fff"/>
<polyline fill="none" stroke="#9b59b6" stroke-width="2" points="90.0,68.3 90.0,68.3 90.0,68.3 90.0,68.3 90.1,68.3 90.1,68.3 90.3,68.3 90.5,68.3 91.1,68.3 92.2,68.4 94.1,68.7 97.0,69.5 100.8,70.5 104.8,71.2 108.7,71.7 112.6,72.0 116.3,72.2 123.5,72.3 130.6,72.3 144.6,72.3 158.5,72.3"/>
<polygon points="90.0,64.3 94.0,71.3 86.0,71.3" fill="#9b59b6"/>
<polygon points="90.0,64.3 94.0,71.3 86.0,71.3" fill="#9b59b6"/>
<polygon points="90.0,64.3 94.0,71.3 86.0,71.3" fill="#9b59b6"/>
<polygon points="90.0,64.3 94.0,71.3 86.0,71.3" fill="#9b59b6"/>
<polygon points="90.1,64.3 94.1,71.3 86.1,71.3" fill="#9b59b6"/>
<polygon points="90.1,64.3 94.1,71.3 86.1,71.3" fill="#9b59b6"/>
<polygon points="90.3,64.3 94.3,71.3 86.3,71.3" fill="#9b59b6"/>
<polygon points="90.5,64.3 94.5,71.3 86.5,71.3" fill="#9b59b6"/>
<polygon points="91.1,64.3 95.1,71.3 87.1,71.3" fill="#9b59b6"/>
<polygon points="92.2,64.4 96.2,71.4 88.2,71.4" fill="#9b59b6"/>
<polygon points="94.1,64.7 98.1,71.7 90.1,71.7" fill="#9b59b6"/>
<polygon points="97.0,65.5 101.0,72.5 93.0,72.5" fill="#9b59b6"/>
<polygon points="100.8,66.5 104.8,73.5 96.8,73.5" fill="#9b59b6"/>
<polygon points="104.8,67.2 108.8,74.2 100.8,74.2" fill="#9b59b6"/>
<polygon points="108.7,67.7 112.7,74.7 104.7,74.7" fill="#9b59b6"/>
<polygon points="112.6,68.0 116.6,75.0 108.6,75.0" fill="#9b59b6"/>
<polygon points="116.3,68.2 120.3,75.2 112.3,75.2" fill="#9b59b6"/>
<polygon points="123.5,68.3 127.5,75.3 119.5,75.3" fill="#9b59b6"/>
<polygon points="130.6,68.3 134.6,75.3 126.6,75.3" fill="#9b59b6"/>
<polygon points="144.6,68.3 148.6,75.3 140.6,75.3" fill="#9b59b6"/>
<polygon points="158.5,68.3 162.5,75.3 154.5,75.3" fill="#9b59b6"/>
<polyline fill="none" stroke="#4dd88a" stroke-width="2" points="90.0,68.3 90.0,68.3 90.0,68.3 90.0,68.3 90.1,68.3 90.1,68.3 90.3,68.3 90.5,68.3 91.1,68.3 92.2,68.3 94.4,68.3 98.7,68.3 107.2,68.8 121.7,72.0 142.5,79.7 167.9,91.4 195.3,105.6 248.4,137.7 297.7,172.3 391.7,241.6 484.6,337.4"/>
<polygon points="90.0,64.3 94.0,68.3 90.0,72.3 86.0,68.3" fill="#4dd88a"/>
<polygon points="90.0,64.3 94.0,68.3 90.0,72.3 86.0,68.3" fill="#4dd88a"/>
<polygon points="90.0,64.3 94.0,68.3 90.0,72.3 86.0,68.3" fill="#4dd88a"/>
<polygon points="90.0,64.3 94.0,68.3 90.0,72.3 86.0,68.3" fill="#4dd88a"/>
<polygon points="90.1,64.3 94.1,68.3 90.1,72.3 86.1,68.3" fill="#4dd88a"/>
<polygon points="90.1,64.3 94.1,68.3 90.1,72.3 86.1,68.3" fill="#4dd88a"/>
<polygon points="90.3,64.3 94.3,68.3 90.3,72.3 86.3,68.3" fill="#4dd88a"/>
<polygon points="90.5,64.3 94.5,68.3 90.5,72.3 86.5,68.3" fill="#4dd88a"/>
<polygon points="91.1,64.3 95.1,68.3 91.1,72.3 87.1,68.3" fill="#4dd88a"/>
<polygon points="92.2,64.3 96.2,68.3 92.2,72.3 88.2,68.3" fill="#4dd88a"/>
<polygon points="94.4,64.3 98.4,68.3 94.4,72.3 90.4,68.3" fill="#4dd88a"/>
<polygon points="98.7,64.3 102.7,68.3 98.7,72.3 94.7,68.3" fill="#4dd88a"/>
<polygon points="107.2,64.8 111.2,68.8 107.2,72.8 103.2,68.8" fill="#4dd88a"/>
<polygon points="121.7,68.0 125.7,72.0 121.7,76.0 117.7,72.0" fill="#4dd88a"/>
<polygon points="142.5,75.7 146.5,79.7 142.5,83.7 138.5,79.7" fill="#4dd88a"/>
<polygon points="167.9,87.4 171.9,91.4 167.9,95.4 163.9,91.4" fill="#4dd88a"/>
<polygon points="195.3,101.6 199.3,105.6 195.3,109.6 191.3,105.6" fill="#4dd88a"/>
<polygon points="248.4,133.7 252.4,137.7 248.4,141.7 244.4,137.7" fill="#4dd88a"/>
<polygon points="297.7,168.3 301.7,172.3 297.7,176.3 293.7,172.3" fill="#4dd88a"/>
<polygon points="391.7,237.6 395.7,241.6 391.7,245.6 387.7,241.6" fill="#4dd88a"/>
<polygon points="484.6,333.4 488.6,337.4 484.6,341.4 480.6,337.4" fill="#4dd88a"/>
<polyline fill="none" stroke="#ff6b6b" stroke-width="2" points="90.1,68.3 90.1,68.3 90.2,68.3 90.3,68.3 90.5,68.3 90.9,68.3 91.7,68.3 93.3,68.3 96.6,68.3 102.6,68.5 113.0,71.4 129.0,79.4 150.3,88.7 175.7,101.0 201.9,115.5 228.2,131.3 253.7,147.9 302.8,183.7 350.2,228.5 443.2,334.2 512.7,521.7"/>
<polygon points="90.1,63.3 88.9,66.7 85.3,66.8 88.2,69.0 87.1,72.4 90.1,70.3 93.0,72.4 92.0,69.0 94.8,66.8 91.3,66.7" fill="#ff6b6b"/>
<polygon points="90.1,63.3 88.9,66.7 85.4,66.8 88.2,69.0 87.2,72.4 90.1,70.3 93.0,72.4 92.0,69.0 94.9,66.8 91.3,66.7" fill="#ff6b6b"/>
<polygon points="90.2,63.3 89.0,66.7 85.4,66.8 88.3,69.0 87.2,72.4 90.2,70.3 93.1,72.4 92.1,69.0 94.9,66.8 91.3,66.7" fill="#ff6b6b"/>
<polygon points="90.3,63.3 89.1,66.7 85.5,66.8 88.4,69.0 87.3,72.4 90.3,70.3 93.2,72.4 92.2,69.0 95.0,66.8 91.4,66.7" fill="#ff6b6b"/>
<polygon points="90.5,63.3 89.3,66.7 85.7,66.8 88.6,69.0 87.5,72.4 90.5,70.3 93.4,72.4 92.4,69.0 95.2,66.8 91.6,66.7" fill="#ff6b6b"/>
<polygon points="90.9,63.3 89.7,66.7 86.1,66.8 89.0,69.0 87.9,72.4 90.9,70.3 93.8,72.4 92.8,69.0 95.6,66.8 92.0,66.7" fill="#ff6b6b"/>
<polygon points="91.7,63.3 90.5,66.7 86.9,66.8 89.8,69.0 88.8,72.4 91.7,70.3 94.6,72.4 93.6,69.0 96.4,66.8 92.9,66.7" fill="#ff6b6b"/>
<polygon points="93.3,63.3 92.1,66.7 88.6,66.8 91.4,69.0 90.4,72.4 93.3,70.3 96.3,72.4 95.2,69.0 98.1,66.8 94.5,66.7" fill="#ff6b6b"/>
<polygon points="96.6,63.3 95.4,66.7 91.8,66.8 94.7,69.0 93.6,72.4 96.6,70.3 99.5,72.4 98.5,69.0 101.3,66.8 97.7,66.7" fill="#ff6b6b"/>
<polygon points="102.6,63.5 101.4,66.9 97.9,67.0 100.7,69.1 99.7,72.5 102.6,70.5 105.6,72.5 104.5,69.1 107.4,67.0 103.8,66.9" fill="#ff6b6b"/>
<polygon points="113.0,66.4 111.9,69.8 108.3,69.9 111.1,72.0 110.1,75.5 113.0,73.4 116.0,75.5 114.9,72.0 117.8,69.9 114.2,69.8" fill="#ff6b6b"/>
<polygon points="129.0,74.4 127.8,77.8 124.3,77.9 127.1,80.0 126.1,83.4 129.0,81.4 131.9,83.4 130.9,80.0 133.8,77.9 130.2,77.8" fill="#ff6b6b"/>
<polygon points="150.3,83.7 149.1,87.1 145.6,87.2 148.4,89.3 147.4,92.8 150.3,90.7 153.3,92.8 152.2,89.3 155.1,87.2 151.5,87.1" fill="#ff6b6b"/>
<polygon points="175.7,96.0 174.6,99.4 171.0,99.5 173.8,101.7 172.8,105.1 175.7,103.0 178.7,105.1 177.6,101.7 180.5,99.5 176.9,99.4" fill="#ff6b6b"/>
<polygon points="201.9,110.5 200.8,113.9 197.2,114.0 200.0,116.1 199.0,119.6 201.9,117.5 204.9,119.6 203.8,116.1 206.7,114.0 203.1,113.9" fill="#ff6b6b"/>
<polygon points="228.2,126.3 227.0,129.7 223.4,129.8 226.3,132.0 225.2,135.4 228.2,133.3 231.1,135.4 230.1,132.0 232.9,129.8 229.3,129.7" fill="#ff6b6b"/>
<polygon points="253.7,142.9 252.6,146.2 249.0,146.3 251.8,148.5 250.8,151.9 253.7,149.9 256.7,151.9 255.6,148.5 258.5,146.3 254.9,146.2" fill="#ff6b6b"/>
<polygon points="302.8,178.7 301.6,182.0 298.0,182.1 300.9,184.3 299.8,187.7 302.8,185.7 305.7,187.7 304.7,184.3 307.5,182.1 304.0,182.0" fill="#ff6b6b"/>
<polygon points="350.2,223.5 349.0,226.9 345.4,227.0 348.2,229.2 347.2,232.6 350.2,230.5 353.1,232.6 352.1,229.2 354.9,227.0 351.3,226.9" fill="#ff6b6b"/>
<polygon points="443.2,329.2 442.0,332.5 438.5,332.6 441.3,334.8 440.3,338.2 443.2,336.2 446.2,338.2 445.1,334.8 448.0,332.6 444.4,332.5" fill="#ff6b6b"/>
<polygon points="512.7,516.7 511.6,520.0 508.0,520.1 510.8,522.3 509.8,525.7 512.7,523.7 515.7,525.7 514.7,522.3 517.5,520.1 513.9,520.0" fill="#ff6b6b"/>
<polyline fill="none" stroke="#ff922b" stroke-width="2" points="290.6,121.1 317.2,137.3 342.5,153.9 366.9,170.0 390.8,186.0 414.4,200.9 437.8,212.3 461.1,219.2 507.5,222.7 530.7,223.1"/>
<circle cx="290.6" cy="121.1" r="3" fill="#ff922b"/>
<circle cx="317.2" cy="137.3" r="3" fill="#ff922b"/>
<circle cx="342.5" cy="153.9" r="3" fill="#ff922b"/>
<circle cx="366.9" cy="170.0" r="3" fill="#ff922b"/>
<circle cx="390.8" cy="186.0" r="3" fill="#ff922b"/>
<circle cx="414.4" cy="200.9" r="3" fill="#ff922b"/>
<circle cx="437.8" cy="212.3" r="3" fill="#ff922b"/>
<circle cx="461.1" cy="219.2" r="3" fill="#ff922b"/>
<circle cx="507.5" cy="222.7" r="3" fill="#ff922b"/>
<circle cx="530.7" cy="223.1" r="3" fill="#ff922b"/>
<polyline fill="none" stroke="#888888" stroke-width="2" stroke-dasharray="8,5" points="201.3,124.3 234.7,141.5 279.0,164.6 312.5,181.4 346.0,198.4 390.3,221.6 423.8,239.2 457.3,257.9 501.5,278.1 535.0,290.6"/>
<circle cx="201.3" cy="124.3" r="3" fill="#888888"/>
<circle cx="234.7" cy="141.5" r="3" fill="#888888"/>
<circle cx="279.0" cy="164.6" r="3" fill="#888888"/>
<circle cx="312.5" cy="181.4" r="3" fill="#888888"/>
<circle cx="346.0" cy="198.4" r="3" fill="#888888"/>
<circle cx="390.3" cy="221.6" r="3" fill="#888888"/>
<circle cx="423.8" cy="239.2" r="3" fill="#888888"/>
<circle cx="457.3" cy="257.9" r="3" fill="#888888"/>
<circle cx="501.5" cy="278.1" r="3" fill="#888888"/>
<circle cx="535.0" cy="290.6" r="3" fill="#888888"/>
<line x1="886" y1="60" x2="902" y2="60" stroke="#ef4444" stroke-width="2" stroke-dasharray="8,5"/>
<circle cx="894.0" cy="60.0" r="3" fill="#ef4444"/>
<text class="label" x="908" y="64">Theoretical</text>
<line x1="886" y1="78" x2="902" y2="78" stroke="#1a6b3c" stroke-width="2"/>
<polygon points="894.0,74.0 898.0,78.0 894.0,82.0 890.0,78.0" fill="#1a6b3c"/>
<text class="label" x="908" y="82">Grafite</text>
<line x1="886" y1="96" x2="902" y2="96" stroke="#1a3a6b" stroke-width="2"/>
<polygon points="894.0,91.0 892.8,94.4 889.2,94.5 892.1,96.6 891.1,100.0 894.0,98.0 896.9,100.0 895.9,96.6 898.8,94.5 895.2,94.4" fill="#1a3a6b"/>
<text class="label" x="908" y="100">SNARF</text>
<line x1="886" y1="114" x2="902" y2="114" stroke="#111111" stroke-width="2"/>
<rect x="891.0" y="111.0" width="6" height="6" fill="#111111"/>
<text class="label" x="908" y="118">SuRF</text>
<line x1="886" y1="132" x2="902" y2="132" stroke="#111111" stroke-width="2"/>
<polygon points="894.0,128.0 898.0,135.0 890.0,135.0" fill="#111111"/>
<text class="label" x="908" y="136">SuRFHash(8)</text>
<line x1="886" y1="150" x2="902" y2="150" stroke="#111111" stroke-width="2"/>
<polygon points="894.0,146.0 898.0,150.0 894.0,154.0 890.0,150.0" fill="#111111"/>
<text class="label" x="908" y="154">SuRFReal(8)</text>
<line x1="886" y1="168" x2="902" y2="168" stroke="#2a7fff" stroke-width="2"/>
<rect x="891.0" y="165.0" width="6" height="6" fill="#2a7fff"/>
<text class="label" x="908" y="172">Adaptive (t=0)</text>
<line x1="886" y1="186" x2="902" y2="186" stroke="#9b59b6" stroke-width="2"/>
<polygon points="894.0,182.0 898.0,189.0 890.0,189.0" fill="#9b59b6"/>
<text class="label" x="908" y="190">Truncation</text>
<line x1="886" y1="204" x2="902" y2="204" stroke="#4dd88a" stroke-width="2"/>
<polygon points="894.0,200.0 898.0,204.0 894.0,208.0 890.0,204.0" fill="#4dd88a"/>
<text class="label" x="908" y="208">SODA</text>
<line x1="886" y1="222" x2="902" y2="222" stroke="#ff6b6b" stroke-width="2"/>
<polygon points="894.0,217.0 892.8,220.4 889.2,220.5 892.1,222.6 891.1,226.0 894.0,224.0 896.9,226.0 895.9,222.6 898.8,220.5 895.2,220.4" fill="#ff6b6b"/>
<text class="label" x="908" y="226">Hybrid</text>
<line x1="886" y1="240" x2="902" y2="240" stroke="#ff922b" stroke-width="2"/>
<circle cx="894.0" cy="240.0" r="3" fill="#ff922b"/>
<text class="label" x="908" y="244">CDF-ARE</text>
<line x1="886" y1="258" x2="902" y2="258" stroke="#888888" stroke-width="2" stroke-dasharray="8,5"/>
<circle cx="894.0" cy="258.0" r="3" fill="#888888"/>
<text class="label" x="908" y="262">BloomARE</text>
<text x="480" y="590" text-anchor="middle">Bits per Key (BPK)</text>
<text transform="translate(16,295) rotate(-90)" text-anchor="middle">False Positive Rate (FPR)</text>
</svg>
