<svg xmlns="http://www.w3.org/2000/svg" width="1020" height="600" viewBox="0 0 1020 600">
<style>text{font-family:Menlo,Monaco,monospace;font-size:12px;fill:#222} .axis{stroke:#333;stroke-width:1} .grid{stroke:#eee;stroke-width:0.5} .label{font-size:11px;fill:#444}</style>
<text x="510" y="28" text-anchor="middle" style="font-size:14px;font-weight:bold">FPR vs BPK — clustered (60-bit keys, n=262144, L=1024)</text>
<line class="axis" x1="90.0" y1="550.0" x2="870.0" y2="550.0"/>
<line class="axis" x1="90.0" y1="40.0" x2="90.0" y2="550.0"/>
<line class="grid" x1="90.0" y1="521.7" x2="870.0" y2="521.7"/>
<text class="label" x="82.0" y="525.7" text-anchor="end">10^-8</text>
<line class="grid" x1="90.0" y1="465.0" x2="870.0" y2="465.0"/>
<text class="label" x="82.0" y="469.0" text-anchor="end">10^-7</text>
<line class="grid" x1="90.0" y1="408.3" x2="870.0" y2="408.3"/>
<text class="label" x="82.0" y="412.3" text-anchor="end">10^-6</text>
<line class="grid" x1="90.0" y1="351.7" x2="870.0" y2="351.7"/>
<text class="label" x="82.0" y="355.7" text-anchor="end">10^-5</text>
<line class="grid" x1="90.0" y1="295.0" x2="870.0" y2="295.0"/>
<text class="label" x="82.0" y="299.0" text-anchor="end">10^-4</text>
<line class="grid" x1="90.0" y1="238.3" x2="870.0" y2="238.3"/>
<text class="label" x="82.0" y="242.3" text-anchor="end">10^-3</text>
<line class="grid" x1="90.0" y1="181.7" x2="870.0" y2="181.7"/>
<text class="label" x="82.0" y="185.7" text-anchor="end">10^-2</text>
<line class="grid" x1="90.0" y1="125.0" x2="870.0" y2="125.0"/>
<text class="label" x="82.0" y="129.0" text-anchor="end">10^-1</text>
<line class="grid" x1="90.0" y1="68.3" x2="870.0" y2="68.3"/>
<text class="label" x="82.0" y="72.3" text-anchor="end">1</text>
<line class="grid" x1="90.0" y1="40.0" x2="90.0" y2="550.0"/>
<text class="label" x="90.0" y="566.0" text-anchor="middle">0</text>
<line class="grid" x1="200.6" y1="40.0" x2="200.6" y2="550.0"/>
<text class="label" x="200.6" y="566.0" text-anchor="middle">5</text>
<line class="grid" x1="311.1" y1="40.0" x2="311.1" y2="550.0"/>
<text class="label" x="311.1" y="566.0" text-anchor="middle">10</text>
<line class="grid" x1="421.7" y1="40.0" x2="421.7" y2="550.0"/>
<text class="label" x="421.7" y="566.0" text-anchor="middle">15</text>
<line class="grid" x1="532.2" y1="40.0" x2="532.2" y2="550.0"/>
<text class="label" x="532.2" y="566.0" text-anchor="middle">20</text>
<line class="grid" x1="642.8" y1="40.0" x2="642.8" y2="550.0"/>
<text class="label" x="642.8" y="566.0" text-anchor="middle">25</text>
<line class="grid" x1="753.3" y1="40.0" x2="753.3" y2="550.0"/>
<text class="label" x="753.3" y="566.0" text-anchor="middle">30</text>
<line class="grid" x1="863.9" y1="40.0" x2="863.9" y2="550.0"/>
<text class="label" x="863.9" y="566.0" text-anchor="middle">35</text>
<polyline fill="none" stroke="#ef4444" stroke-width="2" stroke-dasharray="8,5" points="311.1,68.3 333.2,85.4 355.3,102.5 377.4,119.5 399.6,136.6 421.7,153.6 443.8,170.7 465.9,187.7 488.0,204.8 510.1,221.9 532.2,238.9 576.4,273.0 620.7,307.2 709.1,375.4 797.5,443.6"/>
<circle cx="311.1" cy="68.3" r="3" fill="#ef4444"/>
<circle cx="333.2" cy="85.4" r="3" fill="#ef4444"/>
<circle cx="355.3" cy="102.5" r="3" fill="#ef4444"/>
<circle cx="377.4" cy="119.5" r="3" fill="#ef4444"/>
<circle cx="399.6" cy="136.6" r="3" fill="#ef4444"/>
<circle cx="421.7" cy="153.6" r="3" fill="#ef4444"/>
<circle cx="443.8" cy="170.7" r="3" fill="#ef4444"/>
<circle cx="465.9" cy="187.7" r="3" fill="#ef4444"/>
<circle cx="488.0" cy="204.8" r="3" fill="#ef4444"/>
<circle cx="510.1" cy="221.9" r="3" fill="#ef4444"/>
<circle cx="532.2" cy="238.9" r="3" fill="#ef4444"/>
<circle cx="576.4" cy="273.0" r="3" fill="#ef4444"/>
<circle cx="620.7" cy="307.2" r="3" fill="#ef4444"/>
<circle cx="709.1" cy="375.4" r="3" fill="#ef4444"/>
<circle cx="797.5" cy="443.6" r="3" fill="#ef4444"/>
<polyline fill="none" stroke="#1a6b3c" stroke-width="2" points="184.1,68.3 233.3,68.3 279.8,68.3 324.9,70.3 369.3,85.4 413.6,133.0 464.8,168.0 509.0,201.6 553.2,235.0"/>
<polygon points="184.1,64.3 188.1,68.3 184.1,72.3 180.1,68.3" fill="#1a6b3c"/>
<polygon points="233.3,64.3 237.3,68.3 233.3,72.3 229.3,68.3" fill="#1a6b3c"/>
<polygon points="279.8,64.3 283.8,68.3 279.8,72.3 275.8,68.3" fill="#1a6b3c"/>
<polygon points="324.9,66.3 328.9,70.3 324.9,74.3 320.9,70.3" fill="#1a6b3c"/>
<polygon points="369.3,81.4 373.3,85.4 369.3,89.4 365.3,85.4" fill="#1a6b3c"/>
<polygon points="413.6,129.0 417.6,133.0 413.6,137.0 409.6,133.0" fill="#1a6b3c"/>
<polygon points="464.8,164.0 468.8,168.0 464.8,172.0 460.8,168.0" fill="#1a6b3c"/>
<polygon points="509.0,197.6 513.0,201.6 509.0,205.6 505.0,201.6" fill="#1a6b3c"/>
<polygon points="553.2,231.0 557.2,235.0 553.2,239.0 549.2,235.0" fill="#1a6b3c"/>
<polyline fill="none" stroke="#1a3a6b" stroke-width="2" points="164.6,83.4 208.6,92.6 253.0,96.5 297.4,97.6 341.4,97.9 385.4,98.0 429.9,98.0 474.3,98.0 518.3,98.0"/>
<polygon points="164.6,78.4 163.4,81.8 159.8,81.9 162.7,84.0 161.6,87.4 164.6,85.4 167.5,87.4 166.5,84.0 169.3,81.9 165.7,81.8" fill="#1a3a6b"/>
<polygon points="208.6,87.6 207.4,90.9 203.8,91.0 206.7,93.2 205.6,96.6 208.6,94.6 211.5,96.6 210.5,93.2 213.3,91.0 209.7,90.9" fill="#1a3a6b"/>
<polygon points="253.0,91.5 251.8,94.9 248.2,94.9 251.1,97.1 250.0,100.5 253.0,98.5 255.9,100.5 254.9,97.1 257.7,94.9 254.2,94.9" fill="#1a3a6b"/>
<polygon points="297.4,92.6 296.3,96.0 292.7,96.1 295.5,98.2 294.5,101.7 297.4,99.6 300.4,101.7 299.3,98.2 302.2,96.1 298.6,96.0" fill="#1a3a6b"/>
<polygon points="341.4,92.9 340.3,96.3 336.7,96.4 339.5,98.5 338.5,102.0 341.4,99.9 344.4,102.0 343.3,98.5 346.2,96.4 342.6,96.3" fill="#1a3a6b"/>
<polygon points="385.4,93.0 384.3,96.4 380.7,96.4 383.5,98.6 382.5,102.0 385.4,100.0 388.4,102.0 387.4,98.6 390.2,96.4 386.6,96.4" fill="#1a3a6b"/>
<polygon points="429.9,93.0 428.7,96.4 425.1,96.4 428.0,98.6 426.9,102.0 429.9,100.0 432.8,102.0 431.8,98.6 434.6,96.4 431.0,96.4" fill="#1a3a6b"/>
<polygon points="474.3,93.0 473.2,96.4 469.6,96.4 472.4,98.6 471.4,102.0 474.3,100.0 477.3,102.0 476.2,98.6 479.1,96.4 475.5,96.4" fill="#1a3a6b"/>
<polygon points="518.3,93.0 517.2,96.4 513.6,96.4 516.4,98.6 515.4,102.0 518.3,100.0 521.3,102.0 520.2,98.6 523.1,96.4 519.5,96.4" fill="#1a3a6b"/>
<polyline fill="none" stroke="#111111" stroke-width="2" points="507.1,123.8"/>
<rect x="504.1" y="120.8" width="6" height="6" fill="#111111"/>
<polyline fill="none" stroke="#111111" stroke-width="2" points="684.0,123.8"/>
<polygon points="684.0,119.8 688.0,126.8 680.0,126.8" fill="#111111"/>
<polyline fill="none" stroke="#111111" stroke-width="2" points="684.0,299.0"/>
<polygon points="684.0,295.0 688.0,299.0 684.0,303.0 680.0,299.0" fill="#111111"/>
<polyline fill="none" stroke="#2a7fff" stroke-width="2" points="90.0,68.3 90.0,68.3 90.0,68.3 90.0,68.3 90.1,68.3 90.1,68.3 90.3,68.3 90.5,68.3 91.0,68.3 92.1,68.3 94.1,68.3 98.3,68.3 106.4,68.3 120.2,68.3 140.0,68.3 164.2,68.3 190.3,68.3 240.8,68.3 287.8,68.3 377.4,86.2 465.9,167.3"/>
<rect x="87.0" y="65.3" width="6" height="6" fill="#2a7fff"/>
<rect x="87.0" y="65.3" width="6" height="6" fill="#2a7fff"/>
<rect x="87.0" y="65.3" width="6" height="6" fill="#2a7fff"/>
<rect x="87.0" y="65.3" width="6" height="6" fill="#2a7fff"/>
<rect x="87.1" y="65.3" width="6" height="6" fill="#2a7fff"/>
<rect x="87.1" y="65.3" width="6" height="6" fill="#2a7fff"/>
<rect x="87.3" y="65.3" width="6" height="6" fill="#2a7fff"/>
<rect x="87.5" y="65.3" width="6" height="6" fill="#2a7fff"/>
<rect x="88.0" y="65.3" width="6" height="6" fill="#2a7fff"/>
<rect x="89.1" y="65.3" width="6" height="6" fill="#2a7fff"/>
<rect x="91.1" y="65.3" width="6" height="6" fill="#2a7fff"/>
<rect x="95.3" y="65.3" width="6" height="6" fill="#2a7fff"/>
<rect x="103.4" y="65.3" width="6" height="6" fill="#2a7fff"/>
<rect x="117.2" y="65.3" width="6" height="6" fill="#2a7fff"/>
<rect x="137.0" y="65.3" width="6" height="6" fill="#2a7fff"/>
<rect x="161.2" y="65.3" width="6" height="6" fill="#2a7fff"/>
<rect x="187.3" y="65.3" width="6" height="6" fill="#2a7fff"/>
<rect x="237.8" y="65.3" width="6" height="6" fill="#2a7fff"/>
<rect x="284.8" y="65.3" width="6" height="6" fill="#2a7fff"/>
<rect x="374.4" y="83.2" width="6" height="6" fill="#2a7fff"/>
<rect x="462.9" y="164.3" width="6" height="6" fill="#2a7fff"/>
<polyline fill="none" stroke="#9b59b6" stroke-width="2" points="90.0,68.3 90.0,68.3 90.0,68.3 90.0,68.3 90.1,68.3 90.1,68.3 90.3,68.3 90.5,68.3 91.0,68.3 92.1,68.4 93.9,69.0 96.6,70.8 100.2,73.0 104.1,74.8 107.9,76.1 111.5,76.8 115.1,77.2 121.9,77.5 128.7,77.6 142.0,77.6 155.2,77.6"/>
<polygon points="90.0,64.3 94.0,71.3 86.0,71.3" fill="#9b59b6"/>
<polygon points="90.0,64.3 94.0,71.3 86.0,71.3" fill="#9b59b6"/>
<polygon points="90.0,64.3 94.0,71.3 86.0,71.3" fill="#9b59b6"/>
<polygon points="90.0,64.3 94.0,71.3 86.0,71.3" fill="#9b59b6"/>
<polygon points="90.1,64.3 94.1,71.3 86.1,71.3" fill="#9b59b6"/>
<polygon points="90.1,64.3 94.1,71.3 86.1,71.3" fill="#9b59b6"/>
<polygon points="90.3,64.3 94.3,71.3 86.3,71.3" fill="#9b59b6"/>
<polygon points="90.5,64.3 94.5,71.3 86.5,71.3" fill="#9b59b6"/>
<polygon points="91.0,64.3 95.0,71.3 87.0,71.3" fill="#9b59b6"/>
<polygon points="92.1,64.4 96.1,71.4 88.1,71.4" fill="#9b59b6"/>
<polygon points="93.9,65.0 97.9,72.0 89.9,72.0" fill="#9b59b6"/>
<polygon points="96.6,66.8 100.6,73.8 92.6,73.8" fill="#9b59b6"/>
<polygon points="100.2,69.0 104.2,76.0 96.2,76.0" fill="#9b59b6"/>
<polygon points="104.1,70.8 108.1,77.8 100.1,77.8" fill="#9b59b6"/>
<polygon points="107.9,72.1 111.9,79.1 103.9,79.1" fill="#9b59b6"/>
<polygon points="111.5,72.8 115.5,79.8 107.5,79.8" fill="#9b59b6"/>
<polygon points="115.1,73.2 119.1,80.2 111.1,80.2" fill="#9b59b6"/>
<polygon points="121.9,73.5 125.9,80.5 117.9,80.5" fill="#9b59b6"/>
<polygon points="128.7,73.6 132.7,80.6 124.7,80.6" fill="#9b59b6"/>
<polygon points="142.0,73.6 146.0,80.6 138.0,80.6" fill="#9b59b6"/>
<polygon points="155.2,73.6 159.2,80.6 151.2,80.6" fill="#9b59b6"/>
<polyline fill="none" stroke="#4dd88a" stroke-width="2" points="90.0,68.3 90.0,68.3 90.0,68.3 90.0,68.3 90.1,68.3 90.1,68.3 90.3,68.3 90.5,68.3 91.0,68.3 92.1,68.3 94.1,68.3 98.3,68.3 106.4,68.3 120.2,68.3 140.0,68.3 164.2,68.3 190.3,68.3 240.8,68.3 287.8,68.3 377.4,86.2 465.9,167.3"/>
<polygon points="90.0,64.3 94.0,68.3 90.0,72.3 86.0,68.3" fill="#4dd88a"/>
<polygon points="90.0,64.3 94.0,68.3 90.0,72.3 86.0,68.3" fill="#4dd88a"/>
<polygon points="90.0,64.3 94.0,68.3 90.0,72.3 86.0,68.3" fill="#4dd88a"/>
<polygon points="90.0,64.3 94.0,68.3 90.0,72.3 86.0,68.3" fill="#4dd88a"/>
<polygon points="90.1,64.3 94.1,68.3 90.1,72.3 86.1,68.3" fill="#4dd88a"/>
<polygon points="90.1,64.3 94.1,68.3 90.1,72.3 86.1,68.3" fill="#4dd88a"/>
<polygon points="90.3,64.3 94.3,68.3 90.3,72.3 86.3,68.3" fill="#4dd88a"/>
<polygon points="90.5,64.3 94.5,68.3 90.5,72.3 86.5,68.3" fill="#4dd88a"/>
<polygon points="91.0,64.3 95.0,68.3 91.0,72.3 87.0,68.3" fill="#4dd88a"/>
<polygon points="92.1,64.3 96.1,68.3 92.1,72.3 88.1,68.3" fill="#4dd88a"/>
<polygon points="94.1,64.3 98.1,68.3 94.1,72.3 90.1,68.3" fill="#4dd88a"/>
<polygon points="98.3,64.3 102.3,68.3 98.3,72.3 94.3,68.3" fill="#4dd88a"/>
<polygon points="106.4,64.3 110.4,68.3 106.4,72.3 102.4,68.3" fill="#4dd88a"/>
<polygon points="120.2,64.3 124.2,68.3 120.2,72.3 116.2,68.3" fill="#4dd88a"/>
<polygon points="140.0,64.3 144.0,68.3 140.0,72.3 136.0,68.3" fill="#4dd88a"/>
<polygon points="164.2,64.3 168.2,68.3 164.2,72.3 160.2,68.3" fill="#4dd88a"/>
<polygon points="190.3,64.3 194.3,68.3 190.3,72.3 186.3,68.3" fill="#4dd88a"/>
<polygon points="240.8,64.3 244.8,68.3 240.8,72.3 236.8,68.3" fill="#4dd88a"/>
<polygon points="287.8,64.3 291.8,68.3 287.8,72.3 283.8,68.3" fill="#4dd88a"/>
<polygon points="377.4,82.2 381.4,86.2 377.4,90.2 373.4,86.2" fill="#4dd88a"/>
<polygon points="465.9,163.3 469.9,167.3 465.9,171.3 461.9,167.3" fill="#4dd88a"/>
<polyline fill="none" stroke="#ff6b6b" stroke-width="2" points="90.1,68.3 90.1,68.3 90.2,68.3 90.2,68.3 90.4,68.3 90.8,68.3 91.6,68.3 93.2,68.3 96.2,68.3 102.0,68.4 111.9,69.0 127.2,70.8 147.5,73.0 171.7,74.8 196.6,76.1 221.6,76.8 246.0,77.2 292.7,78.1 337.8,94.0 426.4,314.5 492.7,521.7"/>
<polygon points="90.1,63.3 88.9,66.7 85.3,66.8 88.2,69.0 87.1,72.4 90.1,70.3 93.0,72.4 92.0,69.0 94.8,66.8 91.3,66.7" fill="#ff6b6b"/>
<polygon points="90.1,63.3 88.9,66.7 85.3,66.8 88.2,69.0 87.2,72.4 90.1,70.3 93.0,72.4 92.0,69.0 94.9,66.8 91.3,66.7" fill="#ff6b6b"/>
<polygon points="90.2,63.3 89.0,66.7 85.4,66.8 88.2,69.0 87.2,72.4 90.2,70.3 93.1,72.4 92.1,69.0 94.9,66.8 91.3,66.7" fill="#ff6b6b"/>
<polygon points="90.2,63.3 89.1,66.7 85.5,66.8 88.3,69.0 87.3,72.4 90.2,70.3 93.2,72.4 92.2,69.0 95.0,66.8 91.4,66.7" fill="#ff6b6b"/>
<polygon points="90.4,63.3 89.3,66.7 85.7,66.8 88.5,69.0 87.5,72.4 90.4,70.3 93.4,72.4 92.3,69.0 95.2,66.8 91.6,66.7" fill="#ff6b6b"/>
<polygon points="90.8,63.3 89.7,66.7 86.1,66.8 88.9,69.0 87.9,72.4 90.8,70.3 93.8,72.4 92.7,69.0 95.6,66.8 92.0,66.7" fill="#ff6b6b"/>
<polygon points="91.6,63.3 90.4,66.7 86.9,66.8 89.7,69.0 88.7,72.4 91.6,70.3 94.5,72.4 93.5,69.0 96.4,66.8 92.8,66.7" fill="#ff6b6b"/>
<polygon points="93.2,63.3 92.0,66.7 88.4,66.8 91.3,69.0 90.2,72.4 93.2,70.3 96.1,72.4 95.1,69.0 97.9,66.8 94.3,66.7" fill="#ff6b6b"/>
<polygon points="96.2,63.3 95.1,66.7 91.5,66.8 94.3,69.0 93.3,72.4 96.2,70.3 99.2,72.4 98.1,69.0 101.0,66.8 97.4,66.7" fill="#ff6b6b"/>
<polygon points="102.0,63.4 100.8,66.8 97.3,66.8 100.1,69.0 99.1,72.4 102.0,70.4 105.0,72.4 103.9,69.0 106.8,66.8 103.2,66.8" fill="#ff6b6b"/>
<polygon points="111.9,64.0 110.8,67.4 107.2,67.5 110.0,69.7 109.0,73.1 111.9,71.0 114.9,73.1 113.8,69.7 116.7,67.5 113.1,67.4" fill="#ff6b6b"/>
<polygon points="127.2,65.8 126.0,69.1 122.4,69.2 125.2,71.4 124.2,74.8 127.2,72.8 130.1,74.8 129.1,71.4 131.9,69.2 128.3,69.1" fill="#ff6b6b"/>
<polygon points="147.5,68.0 146.3,71.4 142.7,71.4 145.6,73.6 144.5,77.0 147.5,75.0 150.4,77.0 149.4,73.6 152.2,71.4 148.6,71.4" fill="#ff6b6b"/>
<polygon points="171.7,69.8 170.5,73.2 166.9,73.3 169.8,75.5 168.7,78.9 171.7,76.8 174.6,78.9 173.6,75.5 176.4,73.3 172.8,73.2" fill="#ff6b6b"/>
<polygon points="196.6,71.1 195.4,74.5 191.9,74.5 194.7,76.7 193.7,80.1 196.6,78.1 199.6,80.1 198.5,76.7 201.4,74.5 197.8,74.5" fill="#ff6b6b"/>
<polygon points="221.6,71.8 220.4,75.2 216.8,75.3 219.7,77.4 218.7,80.9 221.6,78.8 224.5,80.9 223.5,77.4 226.4,75.3 222.8,75.2" fill="#ff6b6b"/>
<polygon points="246.0,72.2 244.8,75.6 241.2,75.6 244.1,77.8 243.0,81.2 246.0,79.2 248.9,81.2 247.9,77.8 250.7,75.6 247.1,75.6" fill="#ff6b6b"/>
<polygon points="292.7,73.1 291.5,76.5 287.9,76.6 290.8,78.7 289.7,82.2 292.7,80.1 295.6,82.2 294.6,78.7 297.4,76.6 293.8,76.5" fill="#ff6b6b"/>
<polygon points="337.8,89.0 336.6,92.4 333.0,92.5 335.9,94.6 334.8,98.1 337.8,96.0 340.7,98.1 339.7,94.6 342.5,92.5 339.0,92.4" fill="#ff6b6b"/>
<polygon points="426.4,309.5 425.3,312.9 421.7,313.0 424.5,315.1 423.5,318.6 426.4,316.5 429.4,318.6 428.3,315.1 431.2,313.0 427.6,312.9" fill="#ff6b6b"/>
<polygon points="492.7,516.7 491.5,520.0 487.9,520.1 490.8,522.3 489.7,525.7 492.7,523.7 495.6,525.7 494.6,522.3 497.4,520.1 493.8,520.0" fill="#ff6b6b"/>
<polyline fill="none" stroke="#ff922b" stroke-width="2" points="330.5,151.6 353.7,166.2 376.5,179.1 399.0,189.3 421.3,197.0 443.4,201.6 465.5,203.4 487.6,204.6 531.8,205.3 553.9,205.3"/>
<circle cx="330.5" cy="151.6" r="3" fill="#ff922b"/>
<circle cx="353.7" cy="166.2" r="3" fill="#ff922b"/>
<circle cx="376.5" cy="179.1" r="3" fill="#ff922b"/>
<circle cx="399.0" cy="189.3" r="3" fill="#ff922b"/>
<circle cx="421.3" cy="197.0" r="3" fill="#ff922b"/>
<circle cx="443.4" cy="201.6" r="3" fill="#ff922b"/>
<circle cx="465.5" cy="203.4" r="3" fill="#ff922b"/>
<circle cx="487.6" cy="204.6" r="3" fill="#ff922b"/>
<circle cx="531.8" cy="205.3" r="3" fill="#ff922b"/>
<circle cx="553.9" cy="205.3" r="3" fill="#ff922b"/>
<polyline fill="none" stroke="#888888" stroke-width="2" stroke-dasharray="8,5" points="512.6,124.7 545.7,142.2 588.6,164.9 620.7,181.5 652.7,199.7 694.9,222.7 726.9,241.5 758.8,259.2 801.0,287.0 832.9,294.1"/>
<circle cx="512.6" cy="124.7" r="3" fill="#888888"/>
<circle cx="545.7" cy="142.2" r="3" fill="#888888"/>
<circle cx="588.6" cy="164.9" r="3" fill="#888888"/>
<circle cx="620.7" cy="181.5" r="3" fill="#888888"/>
<circle cx="652.7" cy="199.7" r="3" fill="#888888"/>
<circle cx="694.9" cy="222.7" r="3" fill="#888888"/>
<circle cx="726.9" cy="241.5" r="3" fill="#888888"/>
<circle cx="758.8" cy="259.2" r="3" fill="#888888"/>
<circle cx="801.0" cy="287.0" r="3" fill="#888888"/>
<circle cx="832.9" cy="294.1" r="3" fill="#888888"/>
<line x1="886" y1="60" x2="902" y2="60" stroke="#ef4444" stroke-width="2" stroke-dasharray="8,5"/>
<circle cx="894.0" cy="60.0" r="3" fill="#ef4444"/>
<text class="label" x="908" y="64">Theoretical</text>
<line x1="886" y1="78" x2="902" y2="78" stroke="#1a6b3c" stroke-width="2"/>
<polygon points="894.0,74.0 898.0,78.0 894.0,82.0 890.0,78.0" fill="#1a6b3c"/>
<text class="label" x="908" y="82">Grafite</text>
<line x1="886" y1="96" x2="902" y2="96" stroke="#1a3a6b" stroke-width="2"/>
<polygon points="894.0,91.0 892.8,94.4 889.2,94.5 892.1,96.6 891.1,100.0 894.0,98.0 896.9,100.0 895.9,96.6 898.8,94.5 895.2,94.4" fill="#1a3a6b"/>
<text class="label" x="908" y="100">SNARF</text>
<line x1="886" y1="114" x2="902" y2="114" stroke="#111111" stroke-width="2"/>
<rect x="891.0" y="111.0" width="6" height="6" fill="#111111"/>
<text class="label" x="908" y="118">SuRF</text>
<line x1="886" y1="132" x2="902" y2="132" stroke="#111111" stroke-width="2"/>
<polygon points="894.0,128.0 898.0,135.0 890.0,135.0" fill="#111111"/>
<text class="label" x="908" y="136">SuRFHash(8)</text>
<line x1="886" y1="150" x2="902" y2="150" stroke="#111111" stroke-width="2"/>
<polygon points="894.0,146.0 898.0,150.0 894.0,154.0 890.0,150.0" fill="#111111"/>
<text class="label" x="908" y="154">SuRFReal(8)</text>
<line x1="886" y1="168" x2="902" y2="168" stroke="#2a7fff" stroke-width="2"/>
<rect x="891.0" y="165.0" width="6" height="6" fill="#2a7fff"/>
<text class="label" x="908" y="172">Adaptive (t=0)</text>
<line x1="886" y1="186" x2="902" y2="186" stroke="#9b59b6" stroke-width="2"/>
<polygon points="894.0,182.0 898.0,189.0 890.0,189.0" fill="#9b59b6"/>
<text class="label" x="908" y="190">Truncation</text>
<line x1="886" y1="204" x2="902" y2="204" stroke="#4dd88a" stroke-width="2"/>
<polygon points="894.0,200.0 898.0,204.0 894.0,208.0 890.0,204.0" fill="#4dd88a"/>
<text class="label" x="908" y="208">SODA</text>
<line x1="886" y1="222" x2="902" y2="222" stroke="#ff6b6b" stroke-width="2"/>
<polygon points="894.0,217.0 892.8,220.4 889.2,220.5 892.1,222.6 891.1,226.0 894.0,224.0 896.9,226.0 895.9,222.6 898.8,220.5 895.2,220.4" fill="#ff6b6b"/>
<text class="label" x="908" y="226">Hybrid</text>
<line x1="886" y1="240" x2="902" y2="240" stroke="#ff922b" stroke-width="2"/>
<circle cx="894.0" cy="240.0" r="3" fill="#ff922b"/>
<text class="label" x="908" y="244">CDF-ARE</text>
<line x1="886" y1="258" x2="902" y2="258" stroke="#888888" stroke-width="2" stroke-dasharray="8,5"/>
<circle cx="894.0" cy="258.0" r="3" fill="#888888"/>
<text class="label" x="908" y="262">BloomARE</text>
<text x="480" y="590" text-anchor="middle">Bits per Key (BPK)</text>
<text transform="translate(16,295) rotate(-90)" text-anchor="middle">False Positive Rate (FPR)</text>
</svg>
