<svg xmlns="http://www.w3.org/2000/svg" width="1020" height="600" viewBox="0 0 1020 600">
<style>text{font-family:Menlo,Monaco,monospace;font-size:12px;fill:#222} .axis{stroke:#333;stroke-width:1} .grid{stroke:#eee;stroke-width:0.5} .label{font-size:11px;fill:#444}</style>
<text x="510" y="28" text-anchor="middle" style="font-size:14px;font-weight:bold">FPR vs BPK — clustered (60-bit keys, n=262144, L=16)</text>
<line class="axis" x1="90.0" y1="550.0" x2="870.0" y2="550.0"/>
<line class="axis" x1="90.0" y1="40.0" x2="90.0" y2="550.0"/>
<line class="grid" x1="90.0" y1="521.7" x2="870.0" y2="521.7"/>
<text class="label" x="82.0" y="525.7" text-anchor="end">10^-8</text>
<line class="grid" x1="90.0" y1="465.0" x2="870.0" y2="465.0"/>
<text class="label" x="82.0" y="469.0" text-anchor="end">10^-7</text>
<line class="grid" x1="90.0" y1="408.3" x2="870.0" y2="408.3"/>
<text class="label" x="82.0" y="412.3" text-anchor="end">10^-6</text>
<line class="grid" x1="90.0" y1="351.7" x2="870.0" y2="351.7"/>
<text class="label" x="82.0" y="355.7" text-anchor="end">10^-5</text>
<line class="grid" x1="90.0" y1="295.0" x2="870.0" y2="295.0"/>
<text class="label" x="82.0" y="299.0" text-anchor="end">10^-4</text>
<line class="grid" x1="90.0" y1="238.3" x2="870.0" y2="238.3"/>
<text class="label" x="82.0" y="242.3" text-anchor="end">10^-3</text>
<line class="grid" x1="90.0" y1="181.7" x2="870.0" y2="181.7"/>
<text class="label" x="82.0" y="185.7" text-anchor="end">10^-2</text>
<line class="grid" x1="90.0" y1="125.0" x2="870.0" y2="125.0"/>
<text class="label" x="82.0" y="129.0" text-anchor="end">10^-1</text>
<line class="grid" x1="90.0" y1="68.3" x2="870.0" y2="68.3"/>
<text class="label" x="82.0" y="72.3" text-anchor="end">1</text>
<line class="grid" x1="90.0" y1="40.0" x2="90.0" y2="550.0"/>
<text class="label" x="90.0" y="566.0" text-anchor="middle">0</text>
<line class="grid" x1="206.1" y1="40.0" x2="206.1" y2="550.0"/>
<text class="label" x="206.1" y="566.0" text-anchor="middle">5</text>
<line class="grid" x1="322.1" y1="40.0" x2="322.1" y2="550.0"/>
<text class="label" x="322.1" y="566.0" text-anchor="middle">10</text>
<line class="grid" x1="438.2" y1="40.0" x2="438.2" y2="550.0"/>
<text class="label" x="438.2" y="566.0" text-anchor="middle">15</text>
<line class="grid" x1="554.3" y1="40.0" x2="554.3" y2="550.0"/>
<text class="label" x="554.3" y="566.0" text-anchor="middle">20</text>
<line class="grid" x1="670.4" y1="40.0" x2="670.4" y2="550.0"/>
<text class="label" x="670.4" y="566.0" text-anchor="middle">25</text>
<line class="grid" x1="786.4" y1="40.0" x2="786.4" y2="550.0"/>
<text class="label" x="786.4" y="566.0" text-anchor="middle">30</text>
<polyline fill="none" stroke="#ef4444" stroke-width="2" stroke-dasharray="8,5" points="182.9,68.3 206.1,85.4 229.3,102.5 252.5,119.5 275.7,136.6 298.9,153.6 322.1,170.7 345.4,187.7 368.6,204.8 391.8,221.9 415.0,238.9 438.2,256.0 461.4,273.0 484.6,290.1 507.9,307.2 531.1,324.2 554.3,341.3 600.7,375.4 647.1,409.5 740.0,477.7 832.9,546.0"/>
<circle cx="182.9" cy="68.3" r="3" fill="#ef4444"/>
<circle cx="206.1" cy="85.4" r="3" fill="#ef4444"/>
<circle cx="229.3" cy="102.5" r="3" fill="#ef4444"/>
<circle cx="252.5" cy="119.5" r="3" fill="#ef4444"/>
<circle cx="275.7" cy="136.6" r="3" fill="#ef4444"/>
<circle cx="298.9" cy="153.6" r="3" fill="#ef4444"/>
<circle cx="322.1" cy="170.7" r="3" fill="#ef4444"/>
<circle cx="345.4" cy="187.7" r="3" fill="#ef4444"/>
<circle cx="368.6" cy="204.8" r="3" fill="#ef4444"/>
<circle cx="391.8" cy="221.9" r="3" fill="#ef4444"/>
<circle cx="415.0" cy="238.9" r="3" fill="#ef4444"/>
<circle cx="438.2" cy="256.0" r="3" fill="#ef4444"/>
<circle cx="461.4" cy="273.0" r="3" fill="#ef4444"/>
<circle cx="484.6" cy="290.1" r="3" fill="#ef4444"/>
<circle cx="507.9" cy="307.2" r="3" fill="#ef4444"/>
<circle cx="531.1" cy="324.2" r="3" fill="#ef4444"/>
<circle cx="554.3" cy="341.3" r="3" fill="#ef4444"/>
<circle cx="600.7" cy="375.4" r="3" fill="#ef4444"/>
<circle cx="647.1" cy="409.5" r="3" fill="#ef4444"/>
<circle cx="740.0" cy="477.7" r="3" fill="#ef4444"/>
<circle cx="832.9" cy="546.0" r="3" fill="#ef4444"/>
<polyline fill="none" stroke="#1a6b3c" stroke-width="2" points="188.9,68.8 240.5,79.9 289.3,107.3 336.5,139.6 383.3,179.7 429.8,217.8 483.5,269.1 529.9,229.6 576.3,330.8"/>
<polygon points="188.9,64.8 192.9,68.8 188.9,72.8 184.9,68.8" fill="#1a6b3c"/>
<polygon points="240.5,75.9 244.5,79.9 240.5,83.9 236.5,79.9" fill="#1a6b3c"/>
<polygon points="289.3,103.3 293.3,107.3 289.3,111.3 285.3,107.3" fill="#1a6b3c"/>
<polygon points="336.5,135.6 340.5,139.6 336.5,143.6 332.5,139.6" fill="#1a6b3c"/>
<polygon points="383.3,175.7 387.3,179.7 383.3,183.7 379.3,179.7" fill="#1a6b3c"/>
<polygon points="429.8,213.8 433.8,217.8 429.8,221.8 425.8,217.8" fill="#1a6b3c"/>
<polygon points="483.5,265.1 487.5,269.1 483.5,273.1 479.5,269.1" fill="#1a6b3c"/>
<polygon points="529.9,225.6 533.9,229.6 529.9,233.6 525.9,229.6" fill="#1a6b3c"/>
<polygon points="576.3,326.8 580.3,330.8 576.3,334.8 572.3,330.8" fill="#1a6b3c"/>
<polyline fill="none" stroke="#1a3a6b" stroke-width="2" points="168.3,84.7 214.5,97.5 261.1,103.6 307.8,105.5 354.0,105.9 400.2,106.0 446.8,106.0 493.5,106.0 539.7,106.0"/>
<polygon points="168.3,79.7 167.1,83.0 163.5,83.1 166.4,85.3 165.3,88.7 168.3,86.7 171.2,88.7 170.2,85.3 173.0,83.1 169.5,83.0" fill="#1a3a6b"/>
<polygon points="214.5,92.5 213.3,95.9 209.7,96.0 212.6,98.1 211.5,101.6 214.5,99.5 217.4,101.6 216.4,98.1 219.2,96.0 215.7,95.9" fill="#1a3a6b"/>
<polygon points="261.1,98.6 259.9,102.0 256.4,102.0 259.2,104.2 258.2,107.6 261.1,105.6 264.1,107.6 263.0,104.2 265.9,102.0 262.3,102.0" fill="#1a3a6b"/>
<polygon points="307.8,100.5 306.6,103.8 303.0,103.9 305.9,106.1 304.9,109.5 307.8,107.5 310.7,109.5 309.7,106.1 312.6,103.9 309.0,103.8" fill="#1a3a6b"/>
<polygon points="354.0,100.9 352.8,104.3 349.2,104.4 352.1,106.5 351.1,110.0 354.0,107.9 356.9,110.0 355.9,106.5 358.7,104.4 355.2,104.3" fill="#1a3a6b"/>
<polygon points="400.2,101.0 399.0,104.4 395.4,104.4 398.3,106.6 397.3,110.0 400.2,108.0 403.1,110.0 402.1,106.6 404.9,104.4 401.4,104.4" fill="#1a3a6b"/>
<polygon points="446.8,101.0 445.7,104.4 442.1,104.5 444.9,106.6 443.9,110.0 446.8,108.0 449.8,110.0 448.7,106.6 451.6,104.5 448.0,104.4" fill="#1a3a6b"/>
<polygon points="493.5,101.0 492.3,104.4 488.8,104.5 491.6,106.6 490.6,110.0 493.5,108.0 496.5,110.0 495.4,106.6 498.3,104.5 494.7,104.4" fill="#1a3a6b"/>
<polygon points="539.7,101.0 538.5,104.4 535.0,104.5 537.8,106.6 536.8,110.0 539.7,108.0 542.6,110.0 541.6,106.6 544.5,104.5 540.9,104.4" fill="#1a3a6b"/>
<polyline fill="none" stroke="#111111" stroke-width="2" points="527.9,109.5"/>
<rect x="524.9" y="106.5" width="6" height="6" fill="#111111"/>
<polyline fill="none" stroke="#111111" stroke-width="2" points="713.6,109.5"/>
<polygon points="713.6,105.5 717.6,112.5 709.6,112.5" fill="#111111"/>
<polyline fill="none" stroke="#111111" stroke-width="2" points="713.6,313.1"/>
<polygon points="713.6,309.1 717.6,313.1 713.6,317.1 709.6,313.1" fill="#111111"/>
<polyline fill="none" stroke="#2a7fff" stroke-width="2" points="90.0,68.3 90.0,68.3 90.0,68.3 90.0,68.3 90.1,68.3 90.1,68.3 90.3,68.3 90.5,68.3 91.1,68.3 92.2,68.3 94.4,68.3 98.7,68.3 107.2,68.3 121.7,68.3 142.5,68.3 167.9,68.3 195.3,68.8 248.4,79.9 297.7,107.2 391.7,175.1 484.6,269.0"/>
<rect x="87.0" y="65.3" width="6" height="6" fill="#2a7fff"/>
<rect x="87.0" y="65.3" width="6" height="6" fill="#2a7fff"/>
<rect x="87.0" y="65.3" width="6" height="6" fill="#2a7fff"/>
<rect x="87.0" y="65.3" width="6" height="6" fill="#2a7fff"/>
<rect x="87.1" y="65.3" width="6" height="6" fill="#2a7fff"/>
<rect x="87.1" y="65.3" width="6" height="6" fill="#2a7fff"/>
<rect x="87.3" y="65.3" width="6" height="6" fill="#2a7fff"/>
<rect x="87.5" y="65.3" width="6" height="6" fill="#2a7fff"/>
<rect x="88.1" y="65.3" width="6" height="6" fill="#2a7fff"/>
<rect x="89.2" y="65.3" width="6" height="6" fill="#2a7fff"/>
<rect x="91.4" y="65.3" width="6" height="6" fill="#2a7fff"/>
<rect x="95.7" y="65.3" width="6" height="6" fill="#2a7fff"/>
<rect x="104.2" y="65.3" width="6" height="6" fill="#2a7fff"/>
<rect x="118.7" y="65.3" width="6" height="6" fill="#2a7fff"/>
<rect x="139.5" y="65.3" width="6" height="6" fill="#2a7fff"/>
<rect x="164.9" y="65.3" width="6" height="6" fill="#2a7fff"/>
<rect x="192.3" y="65.8" width="6" height="6" fill="#2a7fff"/>
<rect x="245.4" y="76.9" width="6" height="6" fill="#2a7fff"/>
<rect x="294.7" y="104.2" width="6" height="6" fill="#2a7fff"/>
<rect x="388.7" y="172.1" width="6" height="6" fill="#2a7fff"/>
<rect x="481.6" y="266.0" width="6" height="6" fill="#2a7fff"/>
<polyline fill="none" stroke="#9b59b6" stroke-width="2" points="90.0,68.3 90.0,68.3 90.0,68.3 90.0,68.3 90.1,68.3 90.1,68.3 90.3,68.3 90.5,68.3 91.1,68.3 92.2,68.4 94.1,68.7 97.0,69.5 100.8,70.5 104.8,71.3 108.7,71.8 112.6,72.1 116.3,72.3 123.5,72.4 130.6,72.4 144.6,72.4 158.5,72.4"/>
<polygon points="90.0,64.3 94.0,71.3 86.0,71.3" fill="#9b59b6"/>
<polygon points="90.0,64.3 94.0,71.3 86.0,71.3" fill="#9b59b6"/>
<polygon points="90.0,64.3 94.0,71.3 86.0,71.3" fill="#9b59b6"/>
<polygon points="90.0,64.3 94.0,71.3 86.0,71.3" fill="#9b59b6"/>
<polygon points="90.1,64.3 94.1,71.3 86.1,71.3" fill="#9b59b6"/>
<polygon points="90.1,64.3 94.1,71.3 86.1,71.3" fill="#9b59b6"/>
<polygon points="90.3,64.3 94.3,71.3 86.3,71.3" fill="#9b59b6"/>
<polygon points="90.5,64.3 94.5,71.3 86.5,71.3" fill="#9b59b6"/>
<polygon points="91.1,64.3 95.1,71.3 87.1,71.3" fill="#9b59b6"/>
<polygon points="92.2,64.4 96.2,71.4 88.2,71.4" fill="#9b59b6"/>
<polygon points="94.1,64.7 98.1,71.7 90.1,71.7" fill="#9b59b6"/>
<polygon points="97.0,65.5 101.0,72.5 93.0,72.5" fill="#9b59b6"/>
<polygon points="100.8,66.5 104.8,73.5 96.8,73.5" fill="#9b59b6"/>
<polygon points="104.8,67.3 108.8,74.3 100.8,74.3" fill="#9b59b6"/>
<polygon points="108.7,67.8 112.7,74.8 104.7,74.8" fill="#9b59b6"/>
<polygon points="112.6,68.1 116.6,75.1 108.6,75.1" fill="#9b59b6"/>
<polygon points="116.3,68.3 120.3,75.3 112.3,75.3" fill="#9b59b6"/>
<polygon points="123.5,68.4 127.5,75.4 119.5,75.4" fill="#9b59b6"/>
<polygon points="130.6,68.4 134.6,75.4 126.6,75.4" fill="#9b59b6"/>
<polygon points="144.6,68.4 148.6,75.4 140.6,75.4" fill="#9b59b6"/>
<polygon points="158.5,68.4 162.5,75.4 154.5,75.4" fill="#9b59b6"/>
<polyline fill="none" stroke="#4dd88a" stroke-width="2" points="90.0,68.3 90.0,68.3 90.0,68.3 90.0,68.3 90.1,68.3 90.1,68.3 90.3,68.3 90.5,68.3 91.1,68.3 92.2,68.3 94.4,68.3 98.7,68.3 107.2,68.3 121.7,68.3 142.5,68.3 167.9,68.3 195.3,68.8 248.4,79.9 297.7,107.2 391.7,175.1 484.6,269.0"/>
<polygon points="90.0,64.3 94.0,68.3 90.0,72.3 86.0,68.3" fill="#4dd88a"/>
<polygon points="90.0,64.3 94.0,68.3 90.0,72.3 86.0,68.3" fill="#4dd88a"/>
<polygon points="90.0,64.3 94.0,68.3 90.0,72.3 86.0,68.3" fill="#4dd88a"/>
<polygon points="90.0,64.3 94.0,68.3 90.0,72.3 86.0,68.3" fill="#4dd88a"/>
<polygon points="90.1,64.3 94.1,68.3 90.1,72.3 86.1,68.3" fill="#4dd88a"/>
<polygon points="90.1,64.3 94.1,68.3 90.1,72.3 86.1,68.3" fill="#4dd88a"/>
<polygon points="90.3,64.3 94.3,68.3 90.3,72.3 86.3,68.3" fill="#4dd88a"/>
<polygon points="90.5,64.3 94.5,68.3 90.5,72.3 86.5,68.3" fill="#4dd88a"/>
<polygon points="91.1,64.3 95.1,68.3 91.1,72.3 87.1,68.3" fill="#4dd88a"/>
<polygon points="92.2,64.3 96.2,68.3 92.2,72.3 88.2,68.3" fill="#4dd88a"/>
<polygon points="94.4,64.3 98.4,68.3 94.4,72.3 90.4,68.3" fill="#4dd88a"/>
<polygon points="98.7,64.3 102.7,68.3 98.7,72.3 94.7,68.3" fill="#4dd88a"/>
<polygon points="107.2,64.3 111.2,68.3 107.2,72.3 103.2,68.3" fill="#4dd88a"/>
<polygon points="121.7,64.3 125.7,68.3 121.7,72.3 117.7,68.3" fill="#4dd88a"/>
<polygon points="142.5,64.3 146.5,68.3 142.5,72.3 138.5,68.3" fill="#4dd88a"/>
<polygon points="167.9,64.3 171.9,68.3 167.9,72.3 163.9,68.3" fill="#4dd88a"/>
<polygon points="195.3,64.8 199.3,68.8 195.3,72.8 191.3,68.8" fill="#4dd88a"/>
<polygon points="248.4,75.9 252.4,79.9 248.4,83.9 244.4,79.9" fill="#4dd88a"/>
<polygon points="297.7,103.2 301.7,107.2 297.7,111.2 293.7,107.2" fill="#4dd88a"/>
<polygon points="391.7,171.1 395.7,175.1 391.7,179.1 387.7,175.1" fill="#4dd88a"/>
<polygon points="484.6,265.0 488.6,269.0 484.6,273.0 480.6,269.0" fill="#4dd88a"/>
<polyline fill="none" stroke="#ff6b6b" stroke-width="2" points="90.1,68.3 90.1,68.3 90.2,68.3 90.3,68.3 90.5,68.3 90.9,68.3 91.7,68.3 93.3,68.3 96.6,68.3 102.6,68.4 113.0,68.7 129.0,69.5 150.3,70.7 175.7,73.0 201.9,77.2 228.2,83.7 253.7,93.3 302.8,122.4 350.2,168.6 443.2,333.7 512.7,521.7"/>
<polygon points="90.1,63.3 88.9,66.7 85.3,66.8 88.2,69.0 87.1,72.4 90.1,70.3 93.0,72.4 92.0,69.0 94.8,66.8 91.3,66.7" fill="#ff6b6b"/>
<polygon points="90.1,63.3 88.9,66.7 85.4,66.8 88.2,69.0 87.2,72.4 90.1,70.3 93.0,72.4 92.0,69.0 94.9,66.8 91.3,66.7" fill="#ff6b6b"/>
<polygon points="90.2,63.3 89.0,66.7 85.4,66.8 88.3,69.0 87.2,72.4 90.2,70.3 93.1,72.4 92.1,69.0 94.9,66.8 91.3,66.7" fill="#ff6b6b"/>
<polygon points="90.3,63.3 89.1,66.7 85.5,66.8 88.4,69.0 87.3,72.4 90.3,70.3 93.2,72.4 92.2,69.0 95.0,66.8 91.4,66.7" fill="#ff6b6b"/>
<polygon points="90.5,63.3 89.3,66.7 85.7,66.8 88.6,69.0 87.5,72.4 90.5,70.3 93.4,72.4 92.4,69.0 95.2,66.8 91.6,66.7" fill="#ff6b6b"/>
<polygon points="90.9,63.3 89.7,66.7 86.1,66.8 89.0,69.0 87.9,72.4 90.9,70.3 93.8,72.4 92.8,69.0 95.6,66.8 92.0,66.7" fill="#ff6b6b"/>
<polygon points="91.7,63.3 90.5,66.7 86.9,66.8 89.8,69.0 88.8,72.4 91.7,70.3 94.6,72.4 93.6,69.0 96.4,66.8 92.9,66.7" fill="#ff6b6b"/>
<polygon points="93.3,63.3 92.1,66.7 88.6,66.8 91.4,69.0 90.4,72.4 93.3,70.3 96.3,72.4 95.2,69.0 98.1,66.8 94.5,66.7" fill="#ff6b6b"/>
<polygon points="96.6,63.3 95.4,66.7 91.8,66.8 94.7,69.0 93.6,72.4 96.6,70.3 99.5,72.4 98.5,69.0 101.3,66.8 97.7,66.7" fill="#ff6b6b"/>
<polygon points="102.6,63.4 101.4,66.7 97.9,66.8 100.7,69.0 99.7,72.4 102.6,70.4 105.6,72.4 104.5,69.0 107.4,66.8 103.8,66.7" fill="#ff6b6b"/>
<polygon points="113.0,63.7 111.9,67.1 108.3,67.1 111.1,69.3 110.1,72.7 113.0,70.7 116.0,72.7 114.9,69.3 117.8,67.1 114.2,67.1" fill="#ff6b6b"/>
<polygon points="129.0,64.5 127.8,67.9 124.3,67.9 127.1,70.1 126.1,73.5 129.0,71.5 131.9,73.5 130.9,70.1 133.8,67.9 130.2,67.9" fill="#ff6b6b"/>
<polygon points="150.3,65.7 149.1,69.1 145.6,69.2 148.4,71.3 147.4,74.8 150.3,72.7 153.3,74.8 152.2,71.3 155.1,69.2 151.5,69.1" fill="#ff6b6b"/>
<polygon points="175.7,68.0 174.6,71.4 171.0,71.5 173.8,73.6 172.8,77.1 175.7,75.0 178.7,77.1 177.6,73.6 180.5,71.5 176.9,71.4" fill="#ff6b6b"/>
<polygon points="201.9,72.2 200.8,75.6 197.2,75.7 200.0,77.8 199.0,81.3 201.9,79.2 204.9,81.3 203.8,77.8 206.7,75.7 203.1,75.6" fill="#ff6b6b"/>
<polygon points="228.2,78.7 227.0,82.1 223.4,82.2 226.3,84.4 225.2,87.8 228.2,85.7 231.1,87.8 230.1,84.4 232.9,82.2 229.3,82.1" fill="#ff6b6b"/>
<polygon points="253.7,88.3 252.6,91.7 249.0,91.7 251.8,93.9 250.8,97.3 253.7,95.3 256.7,97.3 255.6,93.9 258.5,91.7 254.9,91.7" fill="#ff6b6b"/>
<polygon points="302.8,117.4 301.6,120.7 298.0,120.8 300.9,123.0 299.8,126.4 302.8,124.4 305.7,126.4 304.7,123.0 307.5,120.8 304.0,120.7" fill="#ff6b6b"/>
<polygon points="350.2,163.6 349.0,167.0 345.4,167.0 348.2,169.2 347.2,172.6 350.2,170.6 353.1,172.6 352.1,169.2 354.9,167.0 351.3,167.0" fill="#ff6b6b"/>
<polygon points="443.2,328.7 442.0,332.1 438.5,332.2 441.3,334.3 440.3,337.7 443.2,335.7 446.2,337.7 445.1,334.3 448.0,332.2 444.4,332.1" fill="#ff6b6b"/>
<polygon points="512.7,516.7 511.6,520.0 508.0,520.1 510.8,522.3 509.8,525.7 512.7,523.7 515.7,525.7 514.7,522.3 517.5,520.1 513.9,520.0" fill="#ff6b6b"/>
<polyline fill="none" stroke="#ff922b" stroke-width="2" points="290.6,121.2 317.2,137.4 342.5,154.0 366.9,170.1 390.8,186.1 414.4,200.8 437.8,212.2 461.1,218.9 507.5,222.1 530.7,222.6"/>
<circle cx="290.6" cy="121.2" r="3" fill="#ff922b"/>
<circle cx="317.2" cy="137.4" r="3" fill="#ff922b"/>
<circle cx="342.5" cy="154.0" r="3" fill="#ff922b"/>
<circle cx="366.9" cy="170.1" r="3" fill="#ff922b"/>
<circle cx="390.8" cy="186.1" r="3" fill="#ff922b"/>
<circle cx="414.4" cy="200.8" r="3" fill="#ff922b"/>
<circle cx="437.8" cy="212.2" r="3" fill="#ff922b"/>
<circle cx="461.1" cy="218.9" r="3" fill="#ff922b"/>
<circle cx="507.5" cy="222.1" r="3" fill="#ff922b"/>
<circle cx="530.7" cy="222.6" r="3" fill="#ff922b"/>
<polyline fill="none" stroke="#888888" stroke-width="2" stroke-dasharray="8,5" points="332.9,124.7 367.6,141.6 412.5,164.4 446.2,181.7 479.9,198.4 524.2,221.0 557.7,236.9 591.2,254.6 635.5,280.3 669.0,292.9"/>
<circle cx="332.9" cy="124.7" r="3" fill="#888888"/>
<circle cx="367.6" cy="141.6" r="3" fill="#888888"/>
<circle cx="412.5" cy="164.4" r="3" fill="#888888"/>
<circle cx="446.2" cy="181.7" r="3" fill="#888888"/>
<circle cx="479.9" cy="198.4" r="3" fill="#888888"/>
<circle cx="524.2" cy="221.0" r="3" fill="#888888"/>
<circle cx="557.7" cy="236.9" r="3" fill="#888888"/>
<circle cx="591.2" cy="254.6" r="3" fill="#888888"/>
<circle cx="635.5" cy="280.3" r="3" fill="#888888"/>
<circle cx="669.0" cy="292.9" r="3" fill="#888888"/>
<line x1="886" y1="60" x2="902" y2="60" stroke="#ef4444" stroke-width="2" stroke-dasharray="8,5"/>
<circle cx="894.0" cy="60.0" r="3" fill="#ef4444"/>
<text class="label" x="908" y="64">Theoretical</text>
<line x1="886" y1="78" x2="902" y2="78" stroke="#1a6b3c" stroke-width="2"/>
<polygon points="894.0,74.0 898.0,78.0 894.0,82.0 890.0,78.0" fill="#1a6b3c"/>
<text class="label" x="908" y="82">Grafite</text>
<line x1="886" y1="96" x2="902" y2="96" stroke="#1a3a6b" stroke-width="2"/>
<polygon points="894.0,91.0 892.8,94.4 889.2,94.5 892.1,96.6 891.1,100.0 894.0,98.0 896.9,100.0 895.9,96.6 898.8,94.5 895.2,94.4" fill="#1a3a6b"/>
<text class="label" x="908" y="100">SNARF</text>
<line x1="886" y1="114" x2="902" y2="114" stroke="#111111" stroke-width="2"/>
<rect x="891.0" y="111.0" width="6" height="6" fill="#111111"/>
<text class="label" x="908" y="118">SuRF</text>
<line x1="886" y1="132" x2="902" y2="132" stroke="#111111" stroke-width="2"/>
<polygon points="894.0,128.0 898.0,135.0 890.0,135.0" fill="#111111"/>
<text class="label" x="908" y="136">SuRFHash(8)</text>
<line x1="886" y1="150" x2="902" y2="150" stroke="#111111" stroke-width="2"/>
<polygon points="894.0,146.0 898.0,150.0 894.0,154.0 890.0,150.0" fill="#111111"/>
<text class="label" x="908" y="154">SuRFReal(8)</text>
<line x1="886" y1="168" x2="902" y2="168" stroke="#2a7fff" stroke-width="2"/>
<rect x="891.0" y="165.0" width="6" height="6" fill="#2a7fff"/>
<text class="label" x="908" y="172">Adaptive (t=0)</text>
<line x1="886" y1="186" x2="902" y2="186" stroke="#9b59b6" stroke-width="2"/>
<polygon points="894.0,182.0 898.0,189.0 890.0,189.0" fill="#9b59b6"/>
<text class="label" x="908" y="190">Truncation</text>
<line x1="886" y1="204" x2="902" y2="204" stroke="#4dd88a" stroke-width="2"/>
<polygon points="894.0,200.0 898.0,204.0 894.0,208.0 890.0,204.0" fill="#4dd88a"/>
<text class="label" x="908" y="208">SODA</text>
<line x1="886" y1="222" x2="902" y2="222" stroke="#ff6b6b" stroke-width="2"/>
<polygon points="894.0,217.0 892.8,220.4 889.2,220.5 892.1,222.6 891.1,226.0 894.0,224.0 896.9,226.0 895.9,222.6 898.8,220.5 895.2,220.4" fill="#ff6b6b"/>
<text class="label" x="908" y="226">Hybrid</text>
<line x1="886" y1="240" x2="902" y2="240" stroke="#ff922b" stroke-width="2"/>
<circle cx="894.0" cy="240.0" r="3" fill="#ff922b"/>
<text class="label" x="908" y="244">CDF-ARE</text>
<line x1="886" y1="258" x2="902" y2="258" stroke="#888888" stroke-width="2" stroke-dasharray="8,5"/>
<circle cx="894.0" cy="258.0" r="3" fill="#888888"/>
<text class="label" x="908" y="262">BloomARE</text>
<text x="480" y="590" text-anchor="middle">Bits per Key (BPK)</text>
<text transform="translate(16,295) rotate(-90)" text-anchor="middle">False Positive Rate (FPR)</text>
</svg>
