<svg xmlns="http://www.w3.org/2000/svg" width="1020" height="600" viewBox="0 0 1020 600">
<style>text{font-family:Menlo,Monaco,monospace;font-size:12px;fill:#222} .axis{stroke:#333;stroke-width:1} .grid{stroke:#eee;stroke-width:0.5} .label{font-size:11px;fill:#444}</style>
<text x="510" y="28" text-anchor="middle" style="font-size:14px;font-weight:bold">FPR vs BPK — sosd_wiki (60-bit keys, n=14060704, L=1)</text>
<line class="axis" x1="90.0" y1="550.0" x2="870.0" y2="550.0"/>
<line class="axis" x1="90.0" y1="40.0" x2="90.0" y2="550.0"/>
<line class="grid" x1="90.0" y1="521.7" x2="870.0" y2="521.7"/>
<text class="label" x="82.0" y="525.7" text-anchor="end">10^-8</text>
<line class="grid" x1="90.0" y1="465.0" x2="870.0" y2="465.0"/>
<text class="label" x="82.0" y="469.0" text-anchor="end">10^-7</text>
<line class="grid" x1="90.0" y1="408.3" x2="870.0" y2="408.3"/>
<text class="label" x="82.0" y="412.3" text-anchor="end">10^-6</text>
<line class="grid" x1="90.0" y1="351.7" x2="870.0" y2="351.7"/>
<text class="label" x="82.0" y="355.7" text-anchor="end">10^-5</text>
<line class="grid" x1="90.0" y1="295.0" x2="870.0" y2="295.0"/>
<text class="label" x="82.0" y="299.0" text-anchor="end">10^-4</text>
<line class="grid" x1="90.0" y1="238.3" x2="870.0" y2="238.3"/>
<text class="label" x="82.0" y="242.3" text-anchor="end">10^-3</text>
<line class="grid" x1="90.0" y1="181.7" x2="870.0" y2="181.7"/>
<text class="label" x="82.0" y="185.7" text-anchor="end">10^-2</text>
<line class="grid" x1="90.0" y1="125.0" x2="870.0" y2="125.0"/>
<text class="label" x="82.0" y="129.0" text-anchor="end">10^-1</text>
<line class="grid" x1="90.0" y1="68.3" x2="870.0" y2="68.3"/>
<text class="label" x="82.0" y="72.3" text-anchor="end">1</text>
<line class="grid" x1="90.0" y1="40.0" x2="90.0" y2="550.0"/>
<text class="label" x="90.0" y="566.0" text-anchor="middle">0</text>
<line class="grid" x1="206.1" y1="40.0" x2="206.1" y2="550.0"/>
<text class="label" x="206.1" y="566.0" text-anchor="middle">5</text>
<line class="grid" x1="322.1" y1="40.0" x2="322.1" y2="550.0"/>
<text class="label" x="322.1" y="566.0" text-anchor="middle">10</text>
<line class="grid" x1="438.2" y1="40.0" x2="438.2" y2="550.0"/>
<text class="label" x="438.2" y="566.0" text-anchor="middle">15</text>
<line class="grid" x1="554.3" y1="40.0" x2="554.3" y2="550.0"/>
<text class="label" x="554.3" y="566.0" text-anchor="middle">20</text>
<line class="grid" x1="670.4" y1="40.0" x2="670.4" y2="550.0"/>
<text class="label" x="670.4" y="566.0" text-anchor="middle">25</text>
<line class="grid" x1="786.4" y1="40.0" x2="786.4" y2="550.0"/>
<text class="label" x="786.4" y="566.0" text-anchor="middle">30</text>
<polyline fill="none" stroke="#ef4444" stroke-width="2" stroke-dasharray="8,5" points="182.9,136.6 206.1,153.6 229.3,170.7 252.5,187.7 275.7,204.8 298.9,221.9 322.1,238.9 345.4,256.0 368.6,273.0 391.8,290.1 415.0,307.2 438.2,324.2 461.4,341.3 484.6,358.3 507.9,375.4 531.1,392.4 554.3,409.5 600.7,443.6 647.1,477.7 740.0,546.0 832.9,614.2"/>
<circle cx="182.9" cy="136.6" r="3" fill="#ef4444"/>
<circle cx="206.1" cy="153.6" r="3" fill="#ef4444"/>
<circle cx="229.3" cy="170.7" r="3" fill="#ef4444"/>
<circle cx="252.5" cy="187.7" r="3" fill="#ef4444"/>
<circle cx="275.7" cy="204.8" r="3" fill="#ef4444"/>
<circle cx="298.9" cy="221.9" r="3" fill="#ef4444"/>
<circle cx="322.1" cy="238.9" r="3" fill="#ef4444"/>
<circle cx="345.4" cy="256.0" r="3" fill="#ef4444"/>
<circle cx="368.6" cy="273.0" r="3" fill="#ef4444"/>
<circle cx="391.8" cy="290.1" r="3" fill="#ef4444"/>
<circle cx="415.0" cy="307.2" r="3" fill="#ef4444"/>
<circle cx="438.2" cy="324.2" r="3" fill="#ef4444"/>
<circle cx="461.4" cy="341.3" r="3" fill="#ef4444"/>
<circle cx="484.6" cy="358.3" r="3" fill="#ef4444"/>
<circle cx="507.9" cy="375.4" r="3" fill="#ef4444"/>
<circle cx="531.1" cy="392.4" r="3" fill="#ef4444"/>
<circle cx="554.3" cy="409.5" r="3" fill="#ef4444"/>
<circle cx="600.7" cy="443.6" r="3" fill="#ef4444"/>
<circle cx="647.1" cy="477.7" r="3" fill="#ef4444"/>
<circle cx="740.0" cy="546.0" r="3" fill="#ef4444"/>
<circle cx="832.9" cy="614.2" r="3" fill="#ef4444"/>
<polyline fill="none" stroke="#1a6b3c" stroke-width="2" points="195.4,113.1"/>
<polygon points="195.4,109.1 199.4,113.1 195.4,117.1 191.4,113.1" fill="#1a6b3c"/>
<polyline fill="none" stroke="#1a3a6b" stroke-width="2" points="168.2,96.9 214.4,134.6 261.1,180.9 307.7,228.8 353.9,280.4 400.1,521.7 446.8,521.7 493.4,521.7 539.6,521.7"/>
<polygon points="168.2,91.9 167.0,95.3 163.5,95.4 166.3,97.6 165.3,101.0 168.2,98.9 171.2,101.0 170.1,97.6 173.0,95.4 169.4,95.3" fill="#1a3a6b"/>
<polygon points="214.4,129.6 213.2,133.0 209.7,133.1 212.5,135.2 211.5,138.7 214.4,136.6 217.4,138.7 216.3,135.2 219.2,133.1 215.6,133.0" fill="#1a3a6b"/>
<polygon points="261.1,175.9 259.9,179.3 256.3,179.3 259.2,181.5 258.1,184.9 261.1,182.9 264.0,184.9 263.0,181.5 265.8,179.3 262.3,179.3" fill="#1a3a6b"/>
<polygon points="307.7,223.8 306.6,227.2 303.0,227.3 305.8,229.5 304.8,232.9 307.7,230.8 310.7,232.9 309.6,229.5 312.5,227.3 308.9,227.2" fill="#1a3a6b"/>
<polygon points="353.9,275.4 352.8,278.8 349.2,278.9 352.0,281.1 351.0,284.5 353.9,282.4 356.9,284.5 355.8,281.1 358.7,278.9 355.1,278.8" fill="#1a3a6b"/>
<polygon points="400.1,516.7 399.0,520.0 395.4,520.1 398.2,522.3 397.2,525.7 400.1,523.7 403.1,525.7 402.0,522.3 404.9,520.1 401.3,520.0" fill="#1a3a6b"/>
<polygon points="446.8,516.7 445.6,520.0 442.0,520.1 444.9,522.3 443.9,525.7 446.8,523.7 449.7,525.7 448.7,522.3 451.5,520.1 448.0,520.0" fill="#1a3a6b"/>
<polygon points="493.4,516.7 492.3,520.0 488.7,520.1 491.5,522.3 490.5,525.7 493.4,523.7 496.4,525.7 495.3,522.3 498.2,520.1 494.6,520.0" fill="#1a3a6b"/>
<polygon points="539.6,516.7 538.5,520.0 534.9,520.1 537.7,522.3 536.7,525.7 539.6,523.7 542.6,525.7 541.5,522.3 544.4,520.1 540.8,520.0" fill="#1a3a6b"/>
<polyline fill="none" stroke="#111111" stroke-width="2" points="325.3,132.9"/>
<rect x="322.3" y="129.9" width="6" height="6" fill="#111111"/>
<polyline fill="none" stroke="#111111" stroke-width="2" points="642.3,132.9"/>
<polygon points="642.3,128.9 646.3,135.9 638.3,135.9" fill="#111111"/>
<polyline fill="none" stroke="#111111" stroke-width="2" points="642.3,382.8"/>
<polygon points="642.3,378.8 646.3,382.8 642.3,386.8 638.3,382.8" fill="#111111"/>
<polyline fill="none" stroke="#2a7fff" stroke-width="2" points="90.0,68.3 90.0,68.3 90.0,68.3 90.0,68.3 90.0,68.3 90.0,68.3 90.0,68.3 90.0,68.3 90.0,68.3 90.0,68.3 90.1,68.3 90.2,68.3 90.3,68.3 90.6,68.3 91.3,68.3 92.6,68.3 95.2,68.3 110.5,68.9 151.7,81.9 257.0,521.7 257.0,521.7"/>
<rect x="87.0" y="65.3" width="6" height="6" fill="#2a7fff"/>
<rect x="87.0" y="65.3" width="6" height="6" fill="#2a7fff"/>
<rect x="87.0" y="65.3" width="6" height="6" fill="#2a7fff"/>
<rect x="87.0" y="65.3" width="6" height="6" fill="#2a7fff"/>
<rect x="87.0" y="65.3" width="6" height="6" fill="#2a7fff"/>
<rect x="87.0" y="65.3" width="6" height="6" fill="#2a7fff"/>
<rect x="87.0" y="65.3" width="6" height="6" fill="#2a7fff"/>
<rect x="87.0" y="65.3" width="6" height="6" fill="#2a7fff"/>
<rect x="87.0" y="65.3" width="6" height="6" fill="#2a7fff"/>
<rect x="87.0" y="65.3" width="6" height="6" fill="#2a7fff"/>
<rect x="87.1" y="65.3" width="6" height="6" fill="#2a7fff"/>
<rect x="87.2" y="65.3" width="6" height="6" fill="#2a7fff"/>
<rect x="87.3" y="65.3" width="6" height="6" fill="#2a7fff"/>
<rect x="87.6" y="65.3" width="6" height="6" fill="#2a7fff"/>
<rect x="88.3" y="65.3" width="6" height="6" fill="#2a7fff"/>
<rect x="89.6" y="65.3" width="6" height="6" fill="#2a7fff"/>
<rect x="92.2" y="65.3" width="6" height="6" fill="#2a7fff"/>
<rect x="107.5" y="65.9" width="6" height="6" fill="#2a7fff"/>
<rect x="148.7" y="78.9" width="6" height="6" fill="#2a7fff"/>
<rect x="254.0" y="518.7" width="6" height="6" fill="#2a7fff"/>
<rect x="254.0" y="518.7" width="6" height="6" fill="#2a7fff"/>
<polyline fill="none" stroke="#9b59b6" stroke-width="2" points="90.0,68.3 90.0,68.3 90.0,68.3 90.0,68.3 90.0,68.3 90.0,68.3 90.0,68.3 90.0,68.4 90.0,68.4 90.0,68.5 90.1,68.9 90.1,69.4 90.2,70.2 90.4,71.1 90.8,72.0 91.6,73.2 93.0,74.6 100.9,79.3 125.3,89.0 257.0,521.7 349.8,521.7"/>
<polygon points="90.0,64.3 94.0,71.3 86.0,71.3" fill="#9b59b6"/>
<polygon points="90.0,64.3 94.0,71.3 86.0,71.3" fill="#9b59b6"/>
<polygon points="90.0,64.3 94.0,71.3 86.0,71.3" fill="#9b59b6"/>
<polygon points="90.0,64.3 94.0,71.3 86.0,71.3" fill="#9b59b6"/>
<polygon points="90.0,64.3 94.0,71.3 86.0,71.3" fill="#9b59b6"/>
<polygon points="90.0,64.3 94.0,71.3 86.0,71.3" fill="#9b59b6"/>
<polygon points="90.0,64.3 94.0,71.3 86.0,71.3" fill="#9b59b6"/>
<polygon points="90.0,64.4 94.0,71.4 86.0,71.4" fill="#9b59b6"/>
<polygon points="90.0,64.4 94.0,71.4 86.0,71.4" fill="#9b59b6"/>
<polygon points="90.0,64.5 94.0,71.5 86.0,71.5" fill="#9b59b6"/>
<polygon points="90.1,64.9 94.1,71.9 86.1,71.9" fill="#9b59b6"/>
<polygon points="90.1,65.4 94.1,72.4 86.1,72.4" fill="#9b59b6"/>
<polygon points="90.2,66.2 94.2,73.2 86.2,73.2" fill="#9b59b6"/>
<polygon points="90.4,67.1 94.4,74.1 86.4,74.1" fill="#9b59b6"/>
<polygon points="90.8,68.0 94.8,75.0 86.8,75.0" fill="#9b59b6"/>
<polygon points="91.6,69.2 95.6,76.2 87.6,76.2" fill="#9b59b6"/>
<polygon points="93.0,70.6 97.0,77.6 89.0,77.6" fill="#9b59b6"/>
<polygon points="100.9,75.3 104.9,82.3 96.9,82.3" fill="#9b59b6"/>
<polygon points="125.3,85.0 129.3,92.0 121.3,92.0" fill="#9b59b6"/>
<polygon points="257.0,517.7 261.0,524.7 253.0,524.7" fill="#9b59b6"/>
<polygon points="349.8,517.7 353.8,524.7 345.8,524.7" fill="#9b59b6"/>
<polyline fill="none" stroke="#4dd88a" stroke-width="2" points="90.0,68.3 90.0,68.3 90.0,68.3 90.0,68.3 90.0,68.3 90.0,68.3 90.0,68.3 90.0,68.3 90.0,68.3 90.0,68.3 90.1,68.3 90.2,68.3 90.3,68.3 90.6,68.3 91.3,68.3 92.6,68.3 95.2,68.3 110.5,68.9 151.7,81.9 257.0,521.7 349.8,521.7"/>
<polygon points="90.0,64.3 94.0,68.3 90.0,72.3 86.0,68.3" fill="#4dd88a"/>
<polygon points="90.0,64.3 94.0,68.3 90.0,72.3 86.0,68.3" fill="#4dd88a"/>
<polygon points="90.0,64.3 94.0,68.3 90.0,72.3 86.0,68.3" fill="#4dd88a"/>
<polygon points="90.0,64.3 94.0,68.3 90.0,72.3 86.0,68.3" fill="#4dd88a"/>
<polygon points="90.0,64.3 94.0,68.3 90.0,72.3 86.0,68.3" fill="#4dd88a"/>
<polygon points="90.0,64.3 94.0,68.3 90.0,72.3 86.0,68.3" fill="#4dd88a"/>
<polygon points="90.0,64.3 94.0,68.3 90.0,72.3 86.0,68.3" fill="#4dd88a"/>
<polygon points="90.0,64.3 94.0,68.3 90.0,72.3 86.0,68.3" fill="#4dd88a"/>
<polygon points="90.0,64.3 94.0,68.3 90.0,72.3 86.0,68.3" fill="#4dd88a"/>
<polygon points="90.0,64.3 94.0,68.3 90.0,72.3 86.0,68.3" fill="#4dd88a"/>
<polygon points="90.1,64.3 94.1,68.3 90.1,72.3 86.1,68.3" fill="#4dd88a"/>
<polygon points="90.2,64.3 94.2,68.3 90.2,72.3 86.2,68.3" fill="#4dd88a"/>
<polygon points="90.3,64.3 94.3,68.3 90.3,72.3 86.3,68.3" fill="#4dd88a"/>
<polygon points="90.6,64.3 94.6,68.3 90.6,72.3 86.6,68.3" fill="#4dd88a"/>
<polygon points="91.3,64.3 95.3,68.3 91.3,72.3 87.3,68.3" fill="#4dd88a"/>
<polygon points="92.6,64.3 96.6,68.3 92.6,72.3 88.6,68.3" fill="#4dd88a"/>
<polygon points="95.2,64.3 99.2,68.3 95.2,72.3 91.2,68.3" fill="#4dd88a"/>
<polygon points="110.5,64.9 114.5,68.9 110.5,72.9 106.5,68.9" fill="#4dd88a"/>
<polygon points="151.7,77.9 155.7,81.9 151.7,85.9 147.7,81.9" fill="#4dd88a"/>
<polygon points="257.0,517.7 261.0,521.7 257.0,525.7 253.0,521.7" fill="#4dd88a"/>
<polygon points="349.8,517.7 353.8,521.7 349.8,525.7 345.8,521.7" fill="#4dd88a"/>
<polyline fill="none" stroke="#ff6b6b" stroke-width="2" points="90.0,68.3 90.0,68.3 90.0,68.3 90.0,68.3 90.0,68.3 90.0,68.3 90.0,68.3 90.0,68.4 90.0,68.4 90.1,68.5 90.1,68.9 90.3,69.4 90.5,70.2 91.0,71.1 91.7,72.1 92.8,73.2 94.3,74.7 102.1,79.3 126.4,89.1 256.6,521.7 348.4,521.7"/>
<polygon points="90.0,63.3 88.8,66.7 85.2,66.8 88.1,69.0 87.1,72.4 90.0,70.3 92.9,72.4 91.9,69.0 94.8,66.8 91.2,66.7" fill="#ff6b6b"/>
<polygon points="90.0,63.3 88.8,66.7 85.2,66.8 88.1,69.0 87.1,72.4 90.0,70.3 92.9,72.4 91.9,69.0 94.8,66.8 91.2,66.7" fill="#ff6b6b"/>
<polygon points="90.0,63.3 88.8,66.7 85.2,66.8 88.1,69.0 87.1,72.4 90.0,70.3 92.9,72.4 91.9,69.0 94.8,66.8 91.2,66.7" fill="#ff6b6b"/>
<polygon points="90.0,63.3 88.8,66.7 85.2,66.8 88.1,69.0 87.1,72.4 90.0,70.3 92.9,72.4 91.9,69.0 94.8,66.8 91.2,66.7" fill="#ff6b6b"/>
<polygon points="90.0,63.3 88.8,66.7 85.2,66.8 88.1,69.0 87.1,72.4 90.0,70.3 92.9,72.4 91.9,69.0 94.8,66.8 91.2,66.7" fill="#ff6b6b"/>
<polygon points="90.0,63.3 88.8,66.7 85.2,66.8 88.1,69.0 87.1,72.4 90.0,70.3 92.9,72.4 91.9,69.0 94.8,66.8 91.2,66.7" fill="#ff6b6b"/>
<polygon points="90.0,63.3 88.8,66.7 85.3,66.8 88.1,69.0 87.1,72.4 90.0,70.3 92.9,72.4 91.9,69.0 94.8,66.8 91.2,66.7" fill="#ff6b6b"/>
<polygon points="90.0,63.4 88.8,66.7 85.3,66.8 88.1,69.0 87.1,72.4 90.0,70.4 93.0,72.4 91.9,69.0 94.8,66.8 91.2,66.7" fill="#ff6b6b"/>
<polygon points="90.0,63.4 88.9,66.8 85.3,66.9 88.1,69.0 87.1,72.5 90.0,70.4 93.0,72.5 91.9,69.0 94.8,66.9 91.2,66.8" fill="#ff6b6b"/>
<polygon points="90.1,63.5 88.9,66.9 85.3,67.0 88.2,69.1 87.1,72.5 90.1,70.5 93.0,72.5 92.0,69.1 94.8,67.0 91.2,66.9" fill="#ff6b6b"/>
<polygon points="90.1,63.9 89.0,67.3 85.4,67.3 88.2,69.5 87.2,72.9 90.1,70.9 93.1,72.9 92.0,69.5 94.9,67.3 91.3,67.3" fill="#ff6b6b"/>
<polygon points="90.3,64.4 89.1,67.8 85.5,67.9 88.4,70.1 87.3,73.5 90.3,71.4 93.2,73.5 92.2,70.1 95.0,67.9 91.4,67.8" fill="#ff6b6b"/>
<polygon points="90.5,65.2 89.4,68.6 85.8,68.7 88.6,70.8 87.6,74.3 90.5,72.2 93.5,74.3 92.4,70.8 95.3,68.7 91.7,68.6" fill="#ff6b6b"/>
<polygon points="91.0,66.1 89.8,69.5 86.2,69.6 89.1,71.7 88.0,75.1 91.0,73.1 93.9,75.1 92.9,71.7 95.7,69.6 92.2,69.5" fill="#ff6b6b"/>
<polygon points="91.7,67.1 90.5,70.5 87.0,70.5 89.8,72.7 88.8,76.1 91.7,74.1 94.6,76.1 93.6,72.7 96.5,70.5 92.9,70.5" fill="#ff6b6b"/>
<polygon points="92.8,68.2 91.6,71.6 88.0,71.7 90.9,73.8 89.9,77.3 92.8,75.2 95.7,77.3 94.7,73.8 97.6,71.7 94.0,71.6" fill="#ff6b6b"/>
<polygon points="94.3,69.7 93.1,73.1 89.5,73.1 92.4,75.3 91.3,78.7 94.3,76.7 97.2,78.7 96.2,75.3 99.0,73.1 95.4,73.1" fill="#ff6b6b"/>
<polygon points="102.1,74.3 100.9,77.7 97.3,77.8 100.2,80.0 99.1,83.4 102.1,81.3 105.0,83.4 104.0,80.0 106.8,77.8 103.3,77.7" fill="#ff6b6b"/>
<polygon points="126.4,84.1 125.2,87.5 121.6,87.6 124.5,89.7 123.4,93.1 126.4,91.1 129.3,93.1 128.3,89.7 131.1,87.6 127.6,87.5" fill="#ff6b6b"/>
<polygon points="256.6,516.7 255.5,520.0 251.9,520.1 254.7,522.3 253.7,525.7 256.6,523.7 259.6,525.7 258.5,522.3 261.4,520.1 257.8,520.0" fill="#ff6b6b"/>
<polygon points="348.4,516.7 347.3,520.0 343.7,520.1 346.5,522.3 345.5,525.7 348.4,523.7 351.4,525.7 350.3,522.3 353.2,520.1 349.6,520.0" fill="#ff6b6b"/>
<polyline fill="none" stroke="#888888" stroke-width="2" stroke-dasharray="8,5" points="201.3,124.3 234.7,141.5 279.0,164.8 312.5,181.3 346.0,198.5 390.3,221.6 423.8,238.7 457.3,256.3 501.5,275.4 535.0,295.3"/>
<circle cx="201.3" cy="124.3" r="3" fill="#888888"/>
<circle cx="234.7" cy="141.5" r="3" fill="#888888"/>
<circle cx="279.0" cy="164.8" r="3" fill="#888888"/>
<circle cx="312.5" cy="181.3" r="3" fill="#888888"/>
<circle cx="346.0" cy="198.5" r="3" fill="#888888"/>
<circle cx="390.3" cy="221.6" r="3" fill="#888888"/>
<circle cx="423.8" cy="238.7" r="3" fill="#888888"/>
<circle cx="457.3" cy="256.3" r="3" fill="#888888"/>
<circle cx="501.5" cy="275.4" r="3" fill="#888888"/>
<circle cx="535.0" cy="295.3" r="3" fill="#888888"/>
<line x1="886" y1="60" x2="902" y2="60" stroke="#ef4444" stroke-width="2" stroke-dasharray="8,5"/>
<circle cx="894.0" cy="60.0" r="3" fill="#ef4444"/>
<text class="label" x="908" y="64">Theoretical</text>
<line x1="886" y1="78" x2="902" y2="78" stroke="#1a6b3c" stroke-width="2"/>
<polygon points="894.0,74.0 898.0,78.0 894.0,82.0 890.0,78.0" fill="#1a6b3c"/>
<text class="label" x="908" y="82">Grafite</text>
<line x1="886" y1="96" x2="902" y2="96" stroke="#1a3a6b" stroke-width="2"/>
<polygon points="894.0,91.0 892.8,94.4 889.2,94.5 892.1,96.6 891.1,100.0 894.0,98.0 896.9,100.0 895.9,96.6 898.8,94.5 895.2,94.4" fill="#1a3a6b"/>
<text class="label" x="908" y="100">SNARF</text>
<line x1="886" y1="114" x2="902" y2="114" stroke="#111111" stroke-width="2"/>
<rect x="891.0" y="111.0" width="6" height="6" fill="#111111"/>
<text class="label" x="908" y="118">SuRF</text>
<line x1="886" y1="132" x2="902" y2="132" stroke="#111111" stroke-width="2"/>
<polygon points="894.0,128.0 898.0,135.0 890.0,135.0" fill="#111111"/>
<text class="label" x="908" y="136">SuRFHash(8)</text>
<line x1="886" y1="150" x2="902" y2="150" stroke="#111111" stroke-width="2"/>
<polygon points="894.0,146.0 898.0,150.0 894.0,154.0 890.0,150.0" fill="#111111"/>
<text class="label" x="908" y="154">SuRFReal(8)</text>
<line x1="886" y1="168" x2="902" y2="168" stroke="#2a7fff" stroke-width="2"/>
<rect x="891.0" y="165.0" width="6" height="6" fill="#2a7fff"/>
<text class="label" x="908" y="172">Adaptive (t=0)</text>
<line x1="886" y1="186" x2="902" y2="186" stroke="#9b59b6" stroke-width="2"/>
<polygon points="894.0,182.0 898.0,189.0 890.0,189.0" fill="#9b59b6"/>
<text class="label" x="908" y="190">Truncation</text>
<line x1="886" y1="204" x2="902" y2="204" stroke="#4dd88a" stroke-width="2"/>
<polygon points="894.0,200.0 898.0,204.0 894.0,208.0 890.0,204.0" fill="#4dd88a"/>
<text class="label" x="908" y="208">SODA</text>
<line x1="886" y1="222" x2="902" y2="222" stroke="#ff6b6b" stroke-width="2"/>
<polygon points="894.0,217.0 892.8,220.4 889.2,220.5 892.1,222.6 891.1,226.0 894.0,224.0 896.9,226.0 895.9,222.6 898.8,220.5 895.2,220.4" fill="#ff6b6b"/>
<text class="label" x="908" y="226">Hybrid</text>
<line x1="886" y1="240" x2="902" y2="240" stroke="#888888" stroke-width="2" stroke-dasharray="8,5"/>
<circle cx="894.0" cy="240.0" r="3" fill="#888888"/>
<text class="label" x="908" y="244">BloomARE</text>
<text x="480" y="590" text-anchor="middle">Bits per Key (BPK)</text>
<text transform="translate(16,295) rotate(-90)" text-anchor="middle">False Positive Rate (FPR)</text>
</svg>
