<svg xmlns="http://www.w3.org/2000/svg" width="1020" height="600" viewBox="0 0 1020 600">
<style>text{font-family:Menlo,Monaco,monospace;font-size:12px;fill:#222} .axis{stroke:#333;stroke-width:1} .grid{stroke:#eee;stroke-width:0.5} .label{font-size:11px;fill:#444}</style>
<text x="510" y="28" text-anchor="middle" style="font-size:14px;font-weight:bold">FPR vs BPK — sosd_wiki (60-bit keys, n=14060704, L=128)</text>
<line class="axis" x1="90.0" y1="550.0" x2="870.0" y2="550.0"/>
<line class="axis" x1="90.0" y1="40.0" x2="90.0" y2="550.0"/>
<line class="grid" x1="90.0" y1="521.7" x2="870.0" y2="521.7"/>
<text class="label" x="82.0" y="525.7" text-anchor="end">10^-8</text>
<line class="grid" x1="90.0" y1="465.0" x2="870.0" y2="465.0"/>
<text class="label" x="82.0" y="469.0" text-anchor="end">10^-7</text>
<line class="grid" x1="90.0" y1="408.3" x2="870.0" y2="408.3"/>
<text class="label" x="82.0" y="412.3" text-anchor="end">10^-6</text>
<line class="grid" x1="90.0" y1="351.7" x2="870.0" y2="351.7"/>
<text class="label" x="82.0" y="355.7" text-anchor="end">10^-5</text>
<line class="grid" x1="90.0" y1="295.0" x2="870.0" y2="295.0"/>
<text class="label" x="82.0" y="299.0" text-anchor="end">10^-4</text>
<line class="grid" x1="90.0" y1="238.3" x2="870.0" y2="238.3"/>
<text class="label" x="82.0" y="242.3" text-anchor="end">10^-3</text>
<line class="grid" x1="90.0" y1="181.7" x2="870.0" y2="181.7"/>
<text class="label" x="82.0" y="185.7" text-anchor="end">10^-2</text>
<line class="grid" x1="90.0" y1="125.0" x2="870.0" y2="125.0"/>
<text class="label" x="82.0" y="129.0" text-anchor="end">10^-1</text>
<line class="grid" x1="90.0" y1="68.3" x2="870.0" y2="68.3"/>
<text class="label" x="82.0" y="72.3" text-anchor="end">1</text>
<line class="grid" x1="90.0" y1="40.0" x2="90.0" y2="550.0"/>
<text class="label" x="90.0" y="566.0" text-anchor="middle">0</text>
<line class="grid" x1="206.1" y1="40.0" x2="206.1" y2="550.0"/>
<text class="label" x="206.1" y="566.0" text-anchor="middle">5</text>
<line class="grid" x1="322.1" y1="40.0" x2="322.1" y2="550.0"/>
<text class="label" x="322.1" y="566.0" text-anchor="middle">10</text>
<line class="grid" x1="438.2" y1="40.0" x2="438.2" y2="550.0"/>
<text class="label" x="438.2" y="566.0" text-anchor="middle">15</text>
<line class="grid" x1="554.3" y1="40.0" x2="554.3" y2="550.0"/>
<text class="label" x="554.3" y="566.0" text-anchor="middle">20</text>
<line class="grid" x1="670.4" y1="40.0" x2="670.4" y2="550.0"/>
<text class="label" x="670.4" y="566.0" text-anchor="middle">25</text>
<line class="grid" x1="786.4" y1="40.0" x2="786.4" y2="550.0"/>
<text class="label" x="786.4" y="566.0" text-anchor="middle">30</text>
<polyline fill="none" stroke="#ef4444" stroke-width="2" stroke-dasharray="8,5" points="252.5,68.3 275.7,85.4 298.9,102.5 322.1,119.5 345.4,136.6 368.6,153.6 391.8,170.7 415.0,187.7 438.2,204.8 461.4,221.9 484.6,238.9 507.9,256.0 531.1,273.0 554.3,290.1 600.7,324.2 647.1,358.3 740.0,426.6 832.9,494.8"/>
<circle cx="252.5" cy="68.3" r="3" fill="#ef4444"/>
<circle cx="275.7" cy="85.4" r="3" fill="#ef4444"/>
<circle cx="298.9" cy="102.5" r="3" fill="#ef4444"/>
<circle cx="322.1" cy="119.5" r="3" fill="#ef4444"/>
<circle cx="345.4" cy="136.6" r="3" fill="#ef4444"/>
<circle cx="368.6" cy="153.6" r="3" fill="#ef4444"/>
<circle cx="391.8" cy="170.7" r="3" fill="#ef4444"/>
<circle cx="415.0" cy="187.7" r="3" fill="#ef4444"/>
<circle cx="438.2" cy="204.8" r="3" fill="#ef4444"/>
<circle cx="461.4" cy="221.9" r="3" fill="#ef4444"/>
<circle cx="484.6" cy="238.9" r="3" fill="#ef4444"/>
<circle cx="507.9" cy="256.0" r="3" fill="#ef4444"/>
<circle cx="531.1" cy="273.0" r="3" fill="#ef4444"/>
<circle cx="554.3" cy="290.1" r="3" fill="#ef4444"/>
<circle cx="600.7" cy="324.2" r="3" fill="#ef4444"/>
<circle cx="647.1" cy="358.3" r="3" fill="#ef4444"/>
<circle cx="740.0" cy="426.6" r="3" fill="#ef4444"/>
<circle cx="832.9" cy="494.8" r="3" fill="#ef4444"/>
<polyline fill="none" stroke="#1a6b3c" stroke-width="2" points="194.8,68.8"/>
<polygon points="194.8,64.8 198.8,68.8 194.8,72.8 190.8,68.8" fill="#1a6b3c"/>
<polyline fill="none" stroke="#1a3a6b" stroke-width="2" points="168.2,105.9 214.4,134.5 261.1,167.5 307.7,205.0 353.9,236.1 400.1,246.1 446.8,246.1 493.4,246.1 539.6,246.1"/>
<polygon points="168.2,100.9 167.0,104.3 163.5,104.4 166.3,106.5 165.3,110.0 168.2,107.9 171.2,110.0 170.1,106.5 173.0,104.4 169.4,104.3" fill="#1a3a6b"/>
<polygon points="214.4,129.5 213.2,132.9 209.7,132.9 212.5,135.1 211.5,138.5 214.4,136.5 217.4,138.5 216.3,135.1 219.2,132.9 215.6,132.9" fill="#1a3a6b"/>
<polygon points="261.1,162.5 259.9,165.9 256.3,165.9 259.2,168.1 258.1,171.5 261.1,169.5 264.0,171.5 263.0,168.1 265.8,165.9 262.3,165.9" fill="#1a3a6b"/>
<polygon points="307.7,200.0 306.6,203.4 303.0,203.4 305.8,205.6 304.8,209.0 307.7,207.0 310.7,209.0 309.6,205.6 312.5,203.4 308.9,203.4" fill="#1a3a6b"/>
<polygon points="353.9,231.1 352.8,234.4 349.2,234.5 352.0,236.7 351.0,240.1 353.9,238.1 356.9,240.1 355.8,236.7 358.7,234.5 355.1,234.4" fill="#1a3a6b"/>
<polygon points="400.1,241.1 399.0,244.5 395.4,244.6 398.2,246.8 397.2,250.2 400.1,248.1 403.1,250.2 402.0,246.8 404.9,244.6 401.3,244.5" fill="#1a3a6b"/>
<polygon points="446.8,241.1 445.6,244.5 442.0,244.6 444.9,246.8 443.9,250.2 446.8,248.1 449.7,250.2 448.7,246.8 451.5,244.6 448.0,244.5" fill="#1a3a6b"/>
<polygon points="493.4,241.1 492.3,244.5 488.7,244.6 491.5,246.8 490.5,250.2 493.4,248.1 496.4,250.2 495.3,246.8 498.2,244.6 494.6,244.5" fill="#1a3a6b"/>
<polygon points="539.6,241.1 538.5,244.5 534.9,244.6 537.7,246.8 536.7,250.2 539.6,248.1 542.6,250.2 541.5,246.8 544.4,244.6 540.8,244.5" fill="#1a3a6b"/>
<polyline fill="none" stroke="#111111" stroke-width="2" points="325.3,109.6"/>
<rect x="322.3" y="106.6" width="6" height="6" fill="#111111"/>
<polyline fill="none" stroke="#111111" stroke-width="2" points="642.3,109.6"/>
<polygon points="642.3,105.6 646.3,112.6 638.3,112.6" fill="#111111"/>
<polyline fill="none" stroke="#111111" stroke-width="2" points="642.3,341.8"/>
<polygon points="642.3,337.8 646.3,341.8 642.3,345.8 638.3,341.8" fill="#111111"/>
<polyline fill="none" stroke="#2a7fff" stroke-width="2" points="90.0,68.3 90.0,68.3 90.0,68.3 90.0,68.3 90.0,68.3 90.0,68.3 90.0,68.3 90.0,68.3 90.0,68.3 90.0,68.3 90.1,68.3 90.2,68.3 90.3,68.3 90.6,68.3 91.3,68.3 92.6,68.3 95.2,68.3 110.5,68.3 151.7,68.3 257.0,521.7 257.0,521.7"/>
<rect x="87.0" y="65.3" width="6" height="6" fill="#2a7fff"/>
<rect x="87.0" y="65.3" width="6" height="6" fill="#2a7fff"/>
<rect x="87.0" y="65.3" width="6" height="6" fill="#2a7fff"/>
<rect x="87.0" y="65.3" width="6" height="6" fill="#2a7fff"/>
<rect x="87.0" y="65.3" width="6" height="6" fill="#2a7fff"/>
<rect x="87.0" y="65.3" width="6" height="6" fill="#2a7fff"/>
<rect x="87.0" y="65.3" width="6" height="6" fill="#2a7fff"/>
<rect x="87.0" y="65.3" width="6" height="6" fill="#2a7fff"/>
<rect x="87.0" y="65.3" width="6" height="6" fill="#2a7fff"/>
<rect x="87.0" y="65.3" width="6" height="6" fill="#2a7fff"/>
<rect x="87.1" y="65.3" width="6" height="6" fill="#2a7fff"/>
<rect x="87.2" y="65.3" width="6" height="6" fill="#2a7fff"/>
<rect x="87.3" y="65.3" width="6" height="6" fill="#2a7fff"/>
<rect x="87.6" y="65.3" width="6" height="6" fill="#2a7fff"/>
<rect x="88.3" y="65.3" width="6" height="6" fill="#2a7fff"/>
<rect x="89.6" y="65.3" width="6" height="6" fill="#2a7fff"/>
<rect x="92.2" y="65.3" width="6" height="6" fill="#2a7fff"/>
<rect x="107.5" y="65.3" width="6" height="6" fill="#2a7fff"/>
<rect x="148.7" y="65.3" width="6" height="6" fill="#2a7fff"/>
<rect x="254.0" y="518.7" width="6" height="6" fill="#2a7fff"/>
<rect x="254.0" y="518.7" width="6" height="6" fill="#2a7fff"/>
<polyline fill="none" stroke="#9b59b6" stroke-width="2" points="90.0,68.3 90.0,68.3 90.0,68.3 90.0,68.3 90.0,68.3 90.0,68.3 90.0,68.3 90.0,68.4 90.0,68.6 90.0,68.9 90.1,70.3 90.1,72.5 90.2,75.6 90.4,79.6 90.8,84.4 91.6,90.7 93.0,99.1 100.9,119.8 125.3,150.2 257.0,521.7 349.8,521.7"/>
<polygon points="90.0,64.3 94.0,71.3 86.0,71.3" fill="#9b59b6"/>
<polygon points="90.0,64.3 94.0,71.3 86.0,71.3" fill="#9b59b6"/>
<polygon points="90.0,64.3 94.0,71.3 86.0,71.3" fill="#9b59b6"/>
<polygon points="90.0,64.3 94.0,71.3 86.0,71.3" fill="#9b59b6"/>
<polygon points="90.0,64.3 94.0,71.3 86.0,71.3" fill="#9b59b6"/>
<polygon points="90.0,64.3 94.0,71.3 86.0,71.3" fill="#9b59b6"/>
<polygon points="90.0,64.3 94.0,71.3 86.0,71.3" fill="#9b59b6"/>
<polygon points="90.0,64.4 94.0,71.4 86.0,71.4" fill="#9b59b6"/>
<polygon points="90.0,64.6 94.0,71.6 86.0,71.6" fill="#9b59b6"/>
<polygon points="90.0,64.9 94.0,71.9 86.0,71.9" fill="#9b59b6"/>
<polygon points="90.1,66.3 94.1,73.3 86.1,73.3" fill="#9b59b6"/>
<polygon points="90.1,68.5 94.1,75.5 86.1,75.5" fill="#9b59b6"/>
<polygon points="90.2,71.6 94.2,78.6 86.2,78.6" fill="#9b59b6"/>
<polygon points="90.4,75.6 94.4,82.6 86.4,82.6" fill="#9b59b6"/>
<polygon points="90.8,80.4 94.8,87.4 86.8,87.4" fill="#9b59b6"/>
<polygon points="91.6,86.7 95.6,93.7 87.6,93.7" fill="#9b59b6"/>
<polygon points="93.0,95.1 97.0,102.1 89.0,102.1" fill="#9b59b6"/>
<polygon points="100.9,115.8 104.9,122.8 96.9,122.8" fill="#9b59b6"/>
<polygon points="125.3,146.2 129.3,153.2 121.3,153.2" fill="#9b59b6"/>
<polygon points="257.0,517.7 261.0,524.7 253.0,524.7" fill="#9b59b6"/>
<polygon points="349.8,517.7 353.8,524.7 345.8,524.7" fill="#9b59b6"/>
<polyline fill="none" stroke="#4dd88a" stroke-width="2" points="90.0,68.3 90.0,68.3 90.0,68.3 90.0,68.3 90.0,68.3 90.0,68.3 90.0,68.3 90.0,68.3 90.0,68.3 90.0,68.3 90.1,68.3 90.2,68.3 90.3,68.3 90.6,68.3 91.3,68.3 92.6,68.3 95.2,68.3 110.5,68.3 151.7,68.3 257.0,521.7 349.8,521.7"/>
<polygon points="90.0,64.3 94.0,68.3 90.0,72.3 86.0,68.3" fill="#4dd88a"/>
<polygon points="90.0,64.3 94.0,68.3 90.0,72.3 86.0,68.3" fill="#4dd88a"/>
<polygon points="90.0,64.3 94.0,68.3 90.0,72.3 86.0,68.3" fill="#4dd88a"/>
<polygon points="90.0,64.3 94.0,68.3 90.0,72.3 86.0,68.3" fill="#4dd88a"/>
<polygon points="90.0,64.3 94.0,68.3 90.0,72.3 86.0,68.3" fill="#4dd88a"/>
<polygon points="90.0,64.3 94.0,68.3 90.0,72.3 86.0,68.3" fill="#4dd88a"/>
<polygon points="90.0,64.3 94.0,68.3 90.0,72.3 86.0,68.3" fill="#4dd88a"/>
<polygon points="90.0,64.3 94.0,68.3 90.0,72.3 86.0,68.3" fill="#4dd88a"/>
<polygon points="90.0,64.3 94.0,68.3 90.0,72.3 86.0,68.3" fill="#4dd88a"/>
<polygon points="90.0,64.3 94.0,68.3 90.0,72.3 86.0,68.3" fill="#4dd88a"/>
<polygon points="90.1,64.3 94.1,68.3 90.1,72.3 86.1,68.3" fill="#4dd88a"/>
<polygon points="90.2,64.3 94.2,68.3 90.2,72.3 86.2,68.3" fill="#4dd88a"/>
<polygon points="90.3,64.3 94.3,68.3 90.3,72.3 86.3,68.3" fill="#4dd88a"/>
<polygon points="90.6,64.3 94.6,68.3 90.6,72.3 86.6,68.3" fill="#4dd88a"/>
<polygon points="91.3,64.3 95.3,68.3 91.3,72.3 87.3,68.3" fill="#4dd88a"/>
<polygon points="92.6,64.3 96.6,68.3 92.6,72.3 88.6,68.3" fill="#4dd88a"/>
<polygon points="95.2,64.3 99.2,68.3 95.2,72.3 91.2,68.3" fill="#4dd88a"/>
<polygon points="110.5,64.3 114.5,68.3 110.5,72.3 106.5,68.3" fill="#4dd88a"/>
<polygon points="151.7,64.3 155.7,68.3 151.7,72.3 147.7,68.3" fill="#4dd88a"/>
<polygon points="257.0,517.7 261.0,521.7 257.0,525.7 253.0,521.7" fill="#4dd88a"/>
<polygon points="349.8,517.7 353.8,521.7 349.8,525.7 345.8,521.7" fill="#4dd88a"/>
<polyline fill="none" stroke="#ff6b6b" stroke-width="2" points="90.0,68.3 90.0,68.3 90.0,68.3 90.0,68.3 90.0,68.3 90.0,68.3 90.0,68.3 90.0,68.4 90.0,68.6 90.1,68.9 90.1,70.3 90.3,72.5 90.5,75.6 91.0,79.6 91.7,84.4 92.8,90.7 94.3,99.1 102.1,119.8 126.4,150.2 256.6,521.7 348.4,521.7"/>
<polygon points="90.0,63.3 88.8,66.7 85.2,66.8 88.1,69.0 87.1,72.4 90.0,70.3 92.9,72.4 91.9,69.0 94.8,66.8 91.2,66.7" fill="#ff6b6b"/>
<polygon points="90.0,63.3 88.8,66.7 85.2,66.8 88.1,69.0 87.1,72.4 90.0,70.3 92.9,72.4 91.9,69.0 94.8,66.8 91.2,66.7" fill="#ff6b6b"/>
<polygon points="90.0,63.3 88.8,66.7 85.2,66.8 88.1,69.0 87.1,72.4 90.0,70.3 92.9,72.4 91.9,69.0 94.8,66.8 91.2,66.7" fill="#ff6b6b"/>
<polygon points="90.0,63.3 88.8,66.7 85.2,66.8 88.1,69.0 87.1,72.4 90.0,70.3 92.9,72.4 91.9,69.0 94.8,66.8 91.2,66.7" fill="#ff6b6b"/>
<polygon points="90.0,63.3 88.8,66.7 85.2,66.8 88.1,69.0 87.1,72.4 90.0,70.3 92.9,72.4 91.9,69.0 94.8,66.8 91.2,66.7" fill="#ff6b6b"/>
<polygon points="90.0,63.3 88.8,66.7 85.2,66.8 88.1,69.0 87.1,72.4 90.0,70.3 92.9,72.4 91.9,69.0 94.8,66.8 91.2,66.7" fill="#ff6b6b"/>
<polygon points="90.0,63.3 88.8,66.7 85.3,66.8 88.1,69.0 87.1,72.4 90.0,70.3 92.9,72.4 91.9,69.0 94.8,66.8 91.2,66.7" fill="#ff6b6b"/>
<polygon points="90.0,63.4 88.8,66.8 85.3,66.9 88.1,69.0 87.1,72.5 90.0,70.4 93.0,72.5 91.9,69.0 94.8,66.9 91.2,66.8" fill="#ff6b6b"/>
<polygon points="90.0,63.6 88.9,67.0 85.3,67.1 88.1,69.3 87.1,72.7 90.0,70.6 93.0,72.7 91.9,69.3 94.8,67.1 91.2,67.0" fill="#ff6b6b"/>
<polygon points="90.1,63.9 88.9,67.3 85.3,67.4 88.2,69.5 87.1,73.0 90.1,70.9 93.0,73.0 92.0,69.5 94.8,67.4 91.2,67.3" fill="#ff6b6b"/>
<polygon points="90.1,65.3 89.0,68.7 85.4,68.7 88.2,70.9 87.2,74.3 90.1,72.3 93.1,74.3 92.0,70.9 94.9,68.7 91.3,68.7" fill="#ff6b6b"/>
<polygon points="90.3,67.5 89.1,70.9 85.5,70.9 88.4,73.1 87.3,76.5 90.3,74.5 93.2,76.5 92.2,73.1 95.0,70.9 91.4,70.9" fill="#ff6b6b"/>
<polygon points="90.5,70.6 89.4,74.0 85.8,74.1 88.6,76.3 87.6,79.7 90.5,77.6 93.5,79.7 92.4,76.3 95.3,74.1 91.7,74.0" fill="#ff6b6b"/>
<polygon points="91.0,74.6 89.8,77.9 86.2,78.0 89.1,80.2 88.0,83.6 91.0,81.6 93.9,83.6 92.9,80.2 95.7,78.0 92.2,77.9" fill="#ff6b6b"/>
<polygon points="91.7,79.4 90.5,82.7 87.0,82.8 89.8,85.0 88.8,88.4 91.7,86.4 94.6,88.4 93.6,85.0 96.5,82.8 92.9,82.7" fill="#ff6b6b"/>
<polygon points="92.8,85.7 91.6,89.1 88.0,89.1 90.9,91.3 89.9,94.7 92.8,92.7 95.7,94.7 94.7,91.3 97.6,89.1 94.0,89.1" fill="#ff6b6b"/>
<polygon points="94.3,94.1 93.1,97.5 89.5,97.5 92.4,99.7 91.3,103.1 94.3,101.1 97.2,103.1 96.2,99.7 99.0,97.5 95.4,97.5" fill="#ff6b6b"/>
<polygon points="102.1,114.8 100.9,118.2 97.3,118.3 100.2,120.5 99.1,123.9 102.1,121.8 105.0,123.9 104.0,120.5 106.8,118.3 103.3,118.2" fill="#ff6b6b"/>
<polygon points="126.4,145.2 125.2,148.6 121.6,148.7 124.5,150.8 123.4,154.3 126.4,152.2 129.3,154.3 128.3,150.8 131.1,148.7 127.6,148.6" fill="#ff6b6b"/>
<polygon points="256.6,516.7 255.5,520.0 251.9,520.1 254.7,522.3 253.7,525.7 256.6,523.7 259.6,525.7 258.5,522.3 261.4,520.1 257.8,520.0" fill="#ff6b6b"/>
<polygon points="348.4,516.7 347.3,520.0 343.7,520.1 346.5,522.3 345.5,525.7 348.4,523.7 351.4,525.7 350.3,522.3 353.2,520.1 349.6,520.0" fill="#ff6b6b"/>
<polyline fill="none" stroke="#888888" stroke-width="2" stroke-dasharray="8,5" points="433.2,124.9 468.0,142.2 513.0,164.5 546.7,180.4 580.3,200.3 624.7,220.1 658.2,239.9 691.7,254.5 736.0,276.2 769.5,297.7"/>
<circle cx="433.2" cy="124.9" r="3" fill="#888888"/>
<circle cx="468.0" cy="142.2" r="3" fill="#888888"/>
<circle cx="513.0" cy="164.5" r="3" fill="#888888"/>
<circle cx="546.7" cy="180.4" r="3" fill="#888888"/>
<circle cx="580.3" cy="200.3" r="3" fill="#888888"/>
<circle cx="624.7" cy="220.1" r="3" fill="#888888"/>
<circle cx="658.2" cy="239.9" r="3" fill="#888888"/>
<circle cx="691.7" cy="254.5" r="3" fill="#888888"/>
<circle cx="736.0" cy="276.2" r="3" fill="#888888"/>
<circle cx="769.5" cy="297.7" r="3" fill="#888888"/>
<line x1="886" y1="60" x2="902" y2="60" stroke="#ef4444" stroke-width="2" stroke-dasharray="8,5"/>
<circle cx="894.0" cy="60.0" r="3" fill="#ef4444"/>
<text class="label" x="908" y="64">Theoretical</text>
<line x1="886" y1="78" x2="902" y2="78" stroke="#1a6b3c" stroke-width="2"/>
<polygon points="894.0,74.0 898.0,78.0 894.0,82.0 890.0,78.0" fill="#1a6b3c"/>
<text class="label" x="908" y="82">Grafite</text>
<line x1="886" y1="96" x2="902" y2="96" stroke="#1a3a6b" stroke-width="2"/>
<polygon points="894.0,91.0 892.8,94.4 889.2,94.5 892.1,96.6 891.1,100.0 894.0,98.0 896.9,100.0 895.9,96.6 898.8,94.5 895.2,94.4" fill="#1a3a6b"/>
<text class="label" x="908" y="100">SNARF</text>
<line x1="886" y1="114" x2="902" y2="114" stroke="#111111" stroke-width="2"/>
<rect x="891.0" y="111.0" width="6" height="6" fill="#111111"/>
<text class="label" x="908" y="118">SuRF</text>
<line x1="886" y1="132" x2="902" y2="132" stroke="#111111" stroke-width="2"/>
<polygon points="894.0,128.0 898.0,135.0 890.0,135.0" fill="#111111"/>
<text class="label" x="908" y="136">SuRFHash(8)</text>
<line x1="886" y1="150" x2="902" y2="150" stroke="#111111" stroke-width="2"/>
<polygon points="894.0,146.0 898.0,150.0 894.0,154.0 890.0,150.0" fill="#111111"/>
<text class="label" x="908" y="154">SuRFReal(8)</text>
<line x1="886" y1="168" x2="902" y2="168" stroke="#2a7fff" stroke-width="2"/>
<rect x="891.0" y="165.0" width="6" height="6" fill="#2a7fff"/>
<text class="label" x="908" y="172">Adaptive (t=0)</text>
<line x1="886" y1="186" x2="902" y2="186" stroke="#9b59b6" stroke-width="2"/>
<polygon points="894.0,182.0 898.0,189.0 890.0,189.0" fill="#9b59b6"/>
<text class="label" x="908" y="190">Truncation</text>
<line x1="886" y1="204" x2="902" y2="204" stroke="#4dd88a" stroke-width="2"/>
<polygon points="894.0,200.0 898.0,204.0 894.0,208.0 890.0,204.0" fill="#4dd88a"/>
<text class="label" x="908" y="208">SODA</text>
<line x1="886" y1="222" x2="902" y2="222" stroke="#ff6b6b" stroke-width="2"/>
<polygon points="894.0,217.0 892.8,220.4 889.2,220.5 892.1,222.6 891.1,226.0 894.0,224.0 896.9,226.0 895.9,222.6 898.8,220.5 895.2,220.4" fill="#ff6b6b"/>
<text class="label" x="908" y="226">Hybrid</text>
<line x1="886" y1="240" x2="902" y2="240" stroke="#888888" stroke-width="2" stroke-dasharray="8,5"/>
<circle cx="894.0" cy="240.0" r="3" fill="#888888"/>
<text class="label" x="908" y="244">BloomARE</text>
<text x="480" y="590" text-anchor="middle">Bits per Key (BPK)</text>
<text transform="translate(16,295) rotate(-90)" text-anchor="middle">False Positive Rate (FPR)</text>
</svg>
