<svg xmlns="http://www.w3.org/2000/svg" width="1020" height="600" viewBox="0 0 1020 600">
<style>text{font-family:Menlo,Monaco,monospace;font-size:12px;fill:#222} .axis{stroke:#333;stroke-width:1} .grid{stroke:#eee;stroke-width:0.5} .label{font-size:11px;fill:#444}</style>
<text x="510" y="28" text-anchor="middle" style="font-size:14px;font-weight:bold">FPR vs BPK — sosd_wiki (60-bit keys, n=14060704, L=16)</text>
<line class="axis" x1="90.0" y1="550.0" x2="870.0" y2="550.0"/>
<line class="axis" x1="90.0" y1="40.0" x2="90.0" y2="550.0"/>
<line class="grid" x1="90.0" y1="521.7" x2="870.0" y2="521.7"/>
<text class="label" x="82.0" y="525.7" text-anchor="end">10^-8</text>
<line class="grid" x1="90.0" y1="465.0" x2="870.0" y2="465.0"/>
<text class="label" x="82.0" y="469.0" text-anchor="end">10^-7</text>
<line class="grid" x1="90.0" y1="408.3" x2="870.0" y2="408.3"/>
<text class="label" x="82.0" y="412.3" text-anchor="end">10^-6</text>
<line class="grid" x1="90.0" y1="351.7" x2="870.0" y2="351.7"/>
<text class="label" x="82.0" y="355.7" text-anchor="end">10^-5</text>
<line class="grid" x1="90.0" y1="295.0" x2="870.0" y2="295.0"/>
<text class="label" x="82.0" y="299.0" text-anchor="end">10^-4</text>
<line class="grid" x1="90.0" y1="238.3" x2="870.0" y2="238.3"/>
<text class="label" x="82.0" y="242.3" text-anchor="end">10^-3</text>
<line class="grid" x1="90.0" y1="181.7" x2="870.0" y2="181.7"/>
<text class="label" x="82.0" y="185.7" text-anchor="end">10^-2</text>
<line class="grid" x1="90.0" y1="125.0" x2="870.0" y2="125.0"/>
<text class="label" x="82.0" y="129.0" text-anchor="end">10^-1</text>
<line class="grid" x1="90.0" y1="68.3" x2="870.0" y2="68.3"/>
<text class="label" x="82.0" y="72.3" text-anchor="end">1</text>
<line class="grid" x1="90.0" y1="40.0" x2="90.0" y2="550.0"/>
<text class="label" x="90.0" y="566.0" text-anchor="middle">0</text>
<line class="grid" x1="206.1" y1="40.0" x2="206.1" y2="550.0"/>
<text class="label" x="206.1" y="566.0" text-anchor="middle">5</text>
<line class="grid" x1="322.1" y1="40.0" x2="322.1" y2="550.0"/>
<text class="label" x="322.1" y="566.0" text-anchor="middle">10</text>
<line class="grid" x1="438.2" y1="40.0" x2="438.2" y2="550.0"/>
<text class="label" x="438.2" y="566.0" text-anchor="middle">15</text>
<line class="grid" x1="554.3" y1="40.0" x2="554.3" y2="550.0"/>
<text class="label" x="554.3" y="566.0" text-anchor="middle">20</text>
<line class="grid" x1="670.4" y1="40.0" x2="670.4" y2="550.0"/>
<text class="label" x="670.4" y="566.0" text-anchor="middle">25</text>
<line class="grid" x1="786.4" y1="40.0" x2="786.4" y2="550.0"/>
<text class="label" x="786.4" y="566.0" text-anchor="middle">30</text>
<polyline fill="none" stroke="#ef4444" stroke-width="2" stroke-dasharray="8,5" points="182.9,68.3 206.1,85.4 229.3,102.5 252.5,119.5 275.7,136.6 298.9,153.6 322.1,170.7 345.4,187.7 368.6,204.8 391.8,221.9 415.0,238.9 438.2,256.0 461.4,273.0 484.6,290.1 507.9,307.2 531.1,324.2 554.3,341.3 600.7,375.4 647.1,409.5 740.0,477.7 832.9,546.0"/>
<circle cx="182.9" cy="68.3" r="3" fill="#ef4444"/>
<circle cx="206.1" cy="85.4" r="3" fill="#ef4444"/>
<circle cx="229.3" cy="102.5" r="3" fill="#ef4444"/>
<circle cx="252.5" cy="119.5" r="3" fill="#ef4444"/>
<circle cx="275.7" cy="136.6" r="3" fill="#ef4444"/>
<circle cx="298.9" cy="153.6" r="3" fill="#ef4444"/>
<circle cx="322.1" cy="170.7" r="3" fill="#ef4444"/>
<circle cx="345.4" cy="187.7" r="3" fill="#ef4444"/>
<circle cx="368.6" cy="204.8" r="3" fill="#ef4444"/>
<circle cx="391.8" cy="221.9" r="3" fill="#ef4444"/>
<circle cx="415.0" cy="238.9" r="3" fill="#ef4444"/>
<circle cx="438.2" cy="256.0" r="3" fill="#ef4444"/>
<circle cx="461.4" cy="273.0" r="3" fill="#ef4444"/>
<circle cx="484.6" cy="290.1" r="3" fill="#ef4444"/>
<circle cx="507.9" cy="307.2" r="3" fill="#ef4444"/>
<circle cx="531.1" cy="324.2" r="3" fill="#ef4444"/>
<circle cx="554.3" cy="341.3" r="3" fill="#ef4444"/>
<circle cx="600.7" cy="375.4" r="3" fill="#ef4444"/>
<circle cx="647.1" cy="409.5" r="3" fill="#ef4444"/>
<circle cx="740.0" cy="477.7" r="3" fill="#ef4444"/>
<circle cx="832.9" cy="546.0" r="3" fill="#ef4444"/>
<polyline fill="none" stroke="#1a6b3c" stroke-width="2" points="194.6,72.1"/>
<polygon points="194.6,68.1 198.6,72.1 194.6,76.1 190.6,72.1" fill="#1a6b3c"/>
<polyline fill="none" stroke="#1a3a6b" stroke-width="2" points="168.2,98.4 214.4,129.0 261.1,169.9 307.7,214.3 353.9,252.0 400.1,275.2 446.8,275.2 493.4,275.2 539.6,275.2"/>
<polygon points="168.2,93.4 167.0,96.8 163.5,96.8 166.3,99.0 165.3,102.4 168.2,100.4 171.2,102.4 170.1,99.0 173.0,96.8 169.4,96.8" fill="#1a3a6b"/>
<polygon points="214.4,124.0 213.2,127.3 209.7,127.4 212.5,129.6 211.5,133.0 214.4,131.0 217.4,133.0 216.3,129.6 219.2,127.4 215.6,127.3" fill="#1a3a6b"/>
<polygon points="261.1,164.9 259.9,168.2 256.3,168.3 259.2,170.5 258.1,173.9 261.1,171.9 264.0,173.9 263.0,170.5 265.8,168.3 262.3,168.2" fill="#1a3a6b"/>
<polygon points="307.7,209.3 306.6,212.7 303.0,212.8 305.8,214.9 304.8,218.4 307.7,216.3 310.7,218.4 309.6,214.9 312.5,212.8 308.9,212.7" fill="#1a3a6b"/>
<polygon points="353.9,247.0 352.8,250.4 349.2,250.5 352.0,252.6 351.0,256.1 353.9,254.0 356.9,256.1 355.8,252.6 358.7,250.5 355.1,250.4" fill="#1a3a6b"/>
<polygon points="400.1,270.2 399.0,273.6 395.4,273.7 398.2,275.8 397.2,279.3 400.1,277.2 403.1,279.3 402.0,275.8 404.9,273.7 401.3,273.6" fill="#1a3a6b"/>
<polygon points="446.8,270.2 445.6,273.6 442.0,273.7 444.9,275.8 443.9,279.3 446.8,277.2 449.7,279.3 448.7,275.8 451.5,273.7 448.0,273.6" fill="#1a3a6b"/>
<polygon points="493.4,270.2 492.3,273.6 488.7,273.7 491.5,275.8 490.5,279.3 493.4,277.2 496.4,279.3 495.3,275.8 498.2,273.7 494.6,273.6" fill="#1a3a6b"/>
<polygon points="539.6,270.2 538.5,273.6 534.9,273.7 537.7,275.8 536.7,279.3 539.6,277.2 542.6,279.3 541.5,275.8 544.4,273.7 540.8,273.6" fill="#1a3a6b"/>
<polyline fill="none" stroke="#111111" stroke-width="2" points="325.3,119.5"/>
<rect x="322.3" y="116.5" width="6" height="6" fill="#111111"/>
<polyline fill="none" stroke="#111111" stroke-width="2" points="642.3,119.5"/>
<polygon points="642.3,115.5 646.3,122.5 638.3,122.5" fill="#111111"/>
<polyline fill="none" stroke="#111111" stroke-width="2" points="642.3,368.9"/>
<polygon points="642.3,364.9 646.3,368.9 642.3,372.9 638.3,368.9" fill="#111111"/>
<polyline fill="none" stroke="#2a7fff" stroke-width="2" points="90.0,68.3 90.0,68.3 90.0,68.3 90.0,68.3 90.0,68.3 90.0,68.3 90.0,68.3 90.0,68.3 90.0,68.3 90.0,68.3 90.1,68.3 90.2,68.3 90.3,68.3 90.6,68.3 91.3,68.3 92.6,68.3 95.2,68.3 110.5,68.3 151.7,68.3 257.0,521.7 257.0,521.7"/>
<rect x="87.0" y="65.3" width="6" height="6" fill="#2a7fff"/>
<rect x="87.0" y="65.3" width="6" height="6" fill="#2a7fff"/>
<rect x="87.0" y="65.3" width="6" height="6" fill="#2a7fff"/>
<rect x="87.0" y="65.3" width="6" height="6" fill="#2a7fff"/>
<rect x="87.0" y="65.3" width="6" height="6" fill="#2a7fff"/>
<rect x="87.0" y="65.3" width="6" height="6" fill="#2a7fff"/>
<rect x="87.0" y="65.3" width="6" height="6" fill="#2a7fff"/>
<rect x="87.0" y="65.3" width="6" height="6" fill="#2a7fff"/>
<rect x="87.0" y="65.3" width="6" height="6" fill="#2a7fff"/>
<rect x="87.0" y="65.3" width="6" height="6" fill="#2a7fff"/>
<rect x="87.1" y="65.3" width="6" height="6" fill="#2a7fff"/>
<rect x="87.2" y="65.3" width="6" height="6" fill="#2a7fff"/>
<rect x="87.3" y="65.3" width="6" height="6" fill="#2a7fff"/>
<rect x="87.6" y="65.3" width="6" height="6" fill="#2a7fff"/>
<rect x="88.3" y="65.3" width="6" height="6" fill="#2a7fff"/>
<rect x="89.6" y="65.3" width="6" height="6" fill="#2a7fff"/>
<rect x="92.2" y="65.3" width="6" height="6" fill="#2a7fff"/>
<rect x="107.5" y="65.3" width="6" height="6" fill="#2a7fff"/>
<rect x="148.7" y="65.3" width="6" height="6" fill="#2a7fff"/>
<rect x="254.0" y="518.7" width="6" height="6" fill="#2a7fff"/>
<rect x="254.0" y="518.7" width="6" height="6" fill="#2a7fff"/>
<polyline fill="none" stroke="#9b59b6" stroke-width="2" points="90.0,68.3 90.0,68.3 90.0,68.3 90.0,68.3 90.0,68.3 90.0,68.3 90.0,68.3 90.0,68.4 90.0,68.5 90.0,68.6 90.1,69.3 90.1,70.3 90.2,71.7 90.4,73.4 90.8,75.2 91.6,77.5 93.0,80.6 100.9,90.9 125.3,109.7 257.0,521.7 349.8,521.7"/>
<polygon points="90.0,64.3 94.0,71.3 86.0,71.3" fill="#9b59b6"/>
<polygon points="90.0,64.3 94.0,71.3 86.0,71.3" fill="#9b59b6"/>
<polygon points="90.0,64.3 94.0,71.3 86.0,71.3" fill="#9b59b6"/>
<polygon points="90.0,64.3 94.0,71.3 86.0,71.3" fill="#9b59b6"/>
<polygon points="90.0,64.3 94.0,71.3 86.0,71.3" fill="#9b59b6"/>
<polygon points="90.0,64.3 94.0,71.3 86.0,71.3" fill="#9b59b6"/>
<polygon points="90.0,64.3 94.0,71.3 86.0,71.3" fill="#9b59b6"/>
<polygon points="90.0,64.4 94.0,71.4 86.0,71.4" fill="#9b59b6"/>
<polygon points="90.0,64.5 94.0,71.5 86.0,71.5" fill="#9b59b6"/>
<polygon points="90.0,64.6 94.0,71.6 86.0,71.6" fill="#9b59b6"/>
<polygon points="90.1,65.3 94.1,72.3 86.1,72.3" fill="#9b59b6"/>
<polygon points="90.1,66.3 94.1,73.3 86.1,73.3" fill="#9b59b6"/>
<polygon points="90.2,67.7 94.2,74.7 86.2,74.7" fill="#9b59b6"/>
<polygon points="90.4,69.4 94.4,76.4 86.4,76.4" fill="#9b59b6"/>
<polygon points="90.8,71.2 94.8,78.2 86.8,78.2" fill="#9b59b6"/>
<polygon points="91.6,73.5 95.6,80.5 87.6,80.5" fill="#9b59b6"/>
<polygon points="93.0,76.6 97.0,83.6 89.0,83.6" fill="#9b59b6"/>
<polygon points="100.9,86.9 104.9,93.9 96.9,93.9" fill="#9b59b6"/>
<polygon points="125.3,105.7 129.3,112.7 121.3,112.7" fill="#9b59b6"/>
<polygon points="257.0,517.7 261.0,524.7 253.0,524.7" fill="#9b59b6"/>
<polygon points="349.8,517.7 353.8,524.7 345.8,524.7" fill="#9b59b6"/>
<polyline fill="none" stroke="#4dd88a" stroke-width="2" points="90.0,68.3 90.0,68.3 90.0,68.3 90.0,68.3 90.0,68.3 90.0,68.3 90.0,68.3 90.0,68.3 90.0,68.3 90.0,68.3 90.1,68.3 90.2,68.3 90.3,68.3 90.6,68.3 91.3,68.3 92.6,68.3 95.2,68.3 110.5,68.3 151.7,68.3 257.0,521.7 349.8,521.7"/>
<polygon points="90.0,64.3 94.0,68.3 90.0,72.3 86.0,68.3" fill="#4dd88a"/>
<polygon points="90.0,64.3 94.0,68.3 90.0,72.3 86.0,68.3" fill="#4dd88a"/>
<polygon points="90.0,64.3 94.0,68.3 90.0,72.3 86.0,68.3" fill="#4dd88a"/>
<polygon points="90.0,64.3 94.0,68.3 90.0,72.3 86.0,68.3" fill="#4dd88a"/>
<polygon points="90.0,64.3 94.0,68.3 90.0,72.3 86.0,68.3" fill="#4dd88a"/>
<polygon points="90.0,64.3 94.0,68.3 90.0,72.3 86.0,68.3" fill="#4dd88a"/>
<polygon points="90.0,64.3 94.0,68.3 90.0,72.3 86.0,68.3" fill="#4dd88a"/>
<polygon points="90.0,64.3 94.0,68.3 90.0,72.3 86.0,68.3" fill="#4dd88a"/>
<polygon points="90.0,64.3 94.0,68.3 90.0,72.3 86.0,68.3" fill="#4dd88a"/>
<polygon points="90.0,64.3 94.0,68.3 90.0,72.3 86.0,68.3" fill="#4dd88a"/>
<polygon points="90.1,64.3 94.1,68.3 90.1,72.3 86.1,68.3" fill="#4dd88a"/>
<polygon points="90.2,64.3 94.2,68.3 90.2,72.3 86.2,68.3" fill="#4dd88a"/>
<polygon points="90.3,64.3 94.3,68.3 90.3,72.3 86.3,68.3" fill="#4dd88a"/>
<polygon points="90.6,64.3 94.6,68.3 90.6,72.3 86.6,68.3" fill="#4dd88a"/>
<polygon points="91.3,64.3 95.3,68.3 91.3,72.3 87.3,68.3" fill="#4dd88a"/>
<polygon points="92.6,64.3 96.6,68.3 92.6,72.3 88.6,68.3" fill="#4dd88a"/>
<polygon points="95.2,64.3 99.2,68.3 95.2,72.3 91.2,68.3" fill="#4dd88a"/>
<polygon points="110.5,64.3 114.5,68.3 110.5,72.3 106.5,68.3" fill="#4dd88a"/>
<polygon points="151.7,64.3 155.7,68.3 151.7,72.3 147.7,68.3" fill="#4dd88a"/>
<polygon points="257.0,517.7 261.0,521.7 257.0,525.7 253.0,521.7" fill="#4dd88a"/>
<polygon points="349.8,517.7 353.8,521.7 349.8,525.7 345.8,521.7" fill="#4dd88a"/>
<polyline fill="none" stroke="#ff6b6b" stroke-width="2" points="90.0,68.3 90.0,68.3 90.0,68.3 90.0,68.3 90.0,68.3 90.0,68.3 90.0,68.3 90.0,68.4 90.0,68.5 90.1,68.6 90.1,69.3 90.3,70.3 90.5,71.7 91.0,73.4 91.7,75.2 92.8,77.5 94.3,80.6 102.1,90.9 126.4,109.7 256.6,521.7 348.4,521.7"/>
<polygon points="90.0,63.3 88.8,66.7 85.2,66.8 88.1,69.0 87.1,72.4 90.0,70.3 92.9,72.4 91.9,69.0 94.8,66.8 91.2,66.7" fill="#ff6b6b"/>
<polygon points="90.0,63.3 88.8,66.7 85.2,66.8 88.1,69.0 87.1,72.4 90.0,70.3 92.9,72.4 91.9,69.0 94.8,66.8 91.2,66.7" fill="#ff6b6b"/>
<polygon points="90.0,63.3 88.8,66.7 85.2,66.8 88.1,69.0 87.1,72.4 90.0,70.3 92.9,72.4 91.9,69.0 94.8,66.8 91.2,66.7" fill="#ff6b6b"/>
<polygon points="90.0,63.3 88.8,66.7 85.2,66.8 88.1,69.0 87.1,72.4 90.0,70.3 92.9,72.4 91.9,69.0 94.8,66.8 91.2,66.7" fill="#ff6b6b"/>
<polygon points="90.0,63.3 88.8,66.7 85.2,66.8 88.1,69.0 87.1,72.4 90.0,70.3 92.9,72.4 91.9,69.0 94.8,66.8 91.2,66.7" fill="#ff6b6b"/>
<polygon points="90.0,63.3 88.8,66.7 85.2,66.8 88.1,69.0 87.1,72.4 90.0,70.3 92.9,72.4 91.9,69.0 94.8,66.8 91.2,66.7" fill="#ff6b6b"/>
<polygon points="90.0,63.3 88.8,66.7 85.3,66.8 88.1,69.0 87.1,72.4 90.0,70.3 92.9,72.4 91.9,69.0 94.8,66.8 91.2,66.7" fill="#ff6b6b"/>
<polygon points="90.0,63.4 88.8,66.8 85.3,66.8 88.1,69.0 87.1,72.4 90.0,70.4 93.0,72.4 91.9,69.0 94.8,66.8 91.2,66.8" fill="#ff6b6b"/>
<polygon points="90.0,63.5 88.9,66.9 85.3,66.9 88.1,69.1 87.1,72.5 90.0,70.5 93.0,72.5 91.9,69.1 94.8,66.9 91.2,66.9" fill="#ff6b6b"/>
<polygon points="90.1,63.6 88.9,67.0 85.3,67.1 88.2,69.2 87.1,72.7 90.1,70.6 93.0,72.7 92.0,69.2 94.8,67.1 91.2,67.0" fill="#ff6b6b"/>
<polygon points="90.1,64.3 89.0,67.7 85.4,67.7 88.2,69.9 87.2,73.3 90.1,71.3 93.1,73.3 92.0,69.9 94.9,67.7 91.3,67.7" fill="#ff6b6b"/>
<polygon points="90.3,65.3 89.1,68.7 85.5,68.8 88.4,70.9 87.3,74.4 90.3,72.3 93.2,74.4 92.2,70.9 95.0,68.8 91.4,68.7" fill="#ff6b6b"/>
<polygon points="90.5,66.7 89.4,70.1 85.8,70.2 88.6,72.4 87.6,75.8 90.5,73.7 93.5,75.8 92.4,72.4 95.3,70.2 91.7,70.1" fill="#ff6b6b"/>
<polygon points="91.0,68.4 89.8,71.8 86.2,71.8 89.1,74.0 88.0,77.4 91.0,75.4 93.9,77.4 92.9,74.0 95.7,71.8 92.2,71.8" fill="#ff6b6b"/>
<polygon points="91.7,70.2 90.5,73.6 87.0,73.7 89.8,75.9 88.8,79.3 91.7,77.2 94.6,79.3 93.6,75.9 96.5,73.7 92.9,73.6" fill="#ff6b6b"/>
<polygon points="92.8,72.5 91.6,75.9 88.0,76.0 90.9,78.2 89.9,81.6 92.8,79.5 95.7,81.6 94.7,78.2 97.6,76.0 94.0,75.9" fill="#ff6b6b"/>
<polygon points="94.3,75.6 93.1,78.9 89.5,79.0 92.4,81.2 91.3,84.6 94.3,82.6 97.2,84.6 96.2,81.2 99.0,79.0 95.4,78.9" fill="#ff6b6b"/>
<polygon points="102.1,85.9 100.9,89.3 97.3,89.3 100.2,91.5 99.1,94.9 102.1,92.9 105.0,94.9 104.0,91.5 106.8,89.3 103.3,89.3" fill="#ff6b6b"/>
<polygon points="126.4,104.7 125.2,108.1 121.6,108.1 124.5,110.3 123.4,113.7 126.4,111.7 129.3,113.7 128.3,110.3 131.1,108.1 127.6,108.1" fill="#ff6b6b"/>
<polygon points="256.6,516.7 255.5,520.0 251.9,520.1 254.7,522.3 253.7,525.7 256.6,523.7 259.6,525.7 258.5,522.3 261.4,520.1 257.8,520.0" fill="#ff6b6b"/>
<polygon points="348.4,516.7 347.3,520.0 343.7,520.1 346.5,522.3 345.5,525.7 348.4,523.7 351.4,525.7 350.3,522.3 353.2,520.1 349.6,520.0" fill="#ff6b6b"/>
<polyline fill="none" stroke="#888888" stroke-width="2" stroke-dasharray="8,5" points="332.9,124.7 367.6,141.9 412.5,164.6 446.2,181.4 479.9,199.0 524.2,222.8 557.7,239.0 591.2,257.5 635.5,283.2 669.0,293.4"/>
<circle cx="332.9" cy="124.7" r="3" fill="#888888"/>
<circle cx="367.6" cy="141.9" r="3" fill="#888888"/>
<circle cx="412.5" cy="164.6" r="3" fill="#888888"/>
<circle cx="446.2" cy="181.4" r="3" fill="#888888"/>
<circle cx="479.9" cy="199.0" r="3" fill="#888888"/>
<circle cx="524.2" cy="222.8" r="3" fill="#888888"/>
<circle cx="557.7" cy="239.0" r="3" fill="#888888"/>
<circle cx="591.2" cy="257.5" r="3" fill="#888888"/>
<circle cx="635.5" cy="283.2" r="3" fill="#888888"/>
<circle cx="669.0" cy="293.4" r="3" fill="#888888"/>
<line x1="886" y1="60" x2="902" y2="60" stroke="#ef4444" stroke-width="2" stroke-dasharray="8,5"/>
<circle cx="894.0" cy="60.0" r="3" fill="#ef4444"/>
<text class="label" x="908" y="64">Theoretical</text>
<line x1="886" y1="78" x2="902" y2="78" stroke="#1a6b3c" stroke-width="2"/>
<polygon points="894.0,74.0 898.0,78.0 894.0,82.0 890.0,78.0" fill="#1a6b3c"/>
<text class="label" x="908" y="82">Grafite</text>
<line x1="886" y1="96" x2="902" y2="96" stroke="#1a3a6b" stroke-width="2"/>
<polygon points="894.0,91.0 892.8,94.4 889.2,94.5 892.1,96.6 891.1,100.0 894.0,98.0 896.9,100.0 895.9,96.6 898.8,94.5 895.2,94.4" fill="#1a3a6b"/>
<text class="label" x="908" y="100">SNARF</text>
<line x1="886" y1="114" x2="902" y2="114" stroke="#111111" stroke-width="2"/>
<rect x="891.0" y="111.0" width="6" height="6" fill="#111111"/>
<text class="label" x="908" y="118">SuRF</text>
<line x1="886" y1="132" x2="902" y2="132" stroke="#111111" stroke-width="2"/>
<polygon points="894.0,128.0 898.0,135.0 890.0,135.0" fill="#111111"/>
<text class="label" x="908" y="136">SuRFHash(8)</text>
<line x1="886" y1="150" x2="902" y2="150" stroke="#111111" stroke-width="2"/>
<polygon points="894.0,146.0 898.0,150.0 894.0,154.0 890.0,150.0" fill="#111111"/>
<text class="label" x="908" y="154">SuRFReal(8)</text>
<line x1="886" y1="168" x2="902" y2="168" stroke="#2a7fff" stroke-width="2"/>
<rect x="891.0" y="165.0" width="6" height="6" fill="#2a7fff"/>
<text class="label" x="908" y="172">Adaptive (t=0)</text>
<line x1="886" y1="186" x2="902" y2="186" stroke="#9b59b6" stroke-width="2"/>
<polygon points="894.0,182.0 898.0,189.0 890.0,189.0" fill="#9b59b6"/>
<text class="label" x="908" y="190">Truncation</text>
<line x1="886" y1="204" x2="902" y2="204" stroke="#4dd88a" stroke-width="2"/>
<polygon points="894.0,200.0 898.0,204.0 894.0,208.0 890.0,204.0" fill="#4dd88a"/>
<text class="label" x="908" y="208">SODA</text>
<line x1="886" y1="222" x2="902" y2="222" stroke="#ff6b6b" stroke-width="2"/>
<polygon points="894.0,217.0 892.8,220.4 889.2,220.5 892.1,222.6 891.1,226.0 894.0,224.0 896.9,226.0 895.9,222.6 898.8,220.5 895.2,220.4" fill="#ff6b6b"/>
<text class="label" x="908" y="226">Hybrid</text>
<line x1="886" y1="240" x2="902" y2="240" stroke="#888888" stroke-width="2" stroke-dasharray="8,5"/>
<circle cx="894.0" cy="240.0" r="3" fill="#888888"/>
<text class="label" x="908" y="244">BloomARE</text>
<text x="480" y="590" text-anchor="middle">Bits per Key (BPK)</text>
<text transform="translate(16,295) rotate(-90)" text-anchor="middle">False Positive Rate (FPR)</text>
</svg>
