<svg xmlns="http://www.w3.org/2000/svg" width="1020" height="600" viewBox="0 0 1020 600">
<style>text{font-family:Menlo,Monaco,monospace;font-size:12px;fill:#222} .axis{stroke:#333;stroke-width:1} .grid{stroke:#eee;stroke-width:0.5} .label{font-size:11px;fill:#444}</style>
<text x="510" y="28" text-anchor="middle" style="font-size:14px;font-weight:bold">FPR vs BPK — spread (60-bit keys, n=65536, L=128)</text>
<line class="axis" x1="90.0" y1="550.0" x2="870.0" y2="550.0"/>
<line class="axis" x1="90.0" y1="40.0" x2="90.0" y2="550.0"/>
<line class="grid" x1="90.0" y1="521.7" x2="870.0" y2="521.7"/>
<text class="label" x="82.0" y="525.7" text-anchor="end">10^-8</text>
<line class="grid" x1="90.0" y1="465.0" x2="870.0" y2="465.0"/>
<text class="label" x="82.0" y="469.0" text-anchor="end">10^-7</text>
<line class="grid" x1="90.0" y1="408.3" x2="870.0" y2="408.3"/>
<text class="label" x="82.0" y="412.3" text-anchor="end">10^-6</text>
<line class="grid" x1="90.0" y1="351.7" x2="870.0" y2="351.7"/>
<text class="label" x="82.0" y="355.7" text-anchor="end">10^-5</text>
<line class="grid" x1="90.0" y1="295.0" x2="870.0" y2="295.0"/>
<text class="label" x="82.0" y="299.0" text-anchor="end">10^-4</text>
<line class="grid" x1="90.0" y1="238.3" x2="870.0" y2="238.3"/>
<text class="label" x="82.0" y="242.3" text-anchor="end">10^-3</text>
<line class="grid" x1="90.0" y1="181.7" x2="870.0" y2="181.7"/>
<text class="label" x="82.0" y="185.7" text-anchor="end">10^-2</text>
<line class="grid" x1="90.0" y1="125.0" x2="870.0" y2="125.0"/>
<text class="label" x="82.0" y="129.0" text-anchor="end">10^-1</text>
<line class="grid" x1="90.0" y1="68.3" x2="870.0" y2="68.3"/>
<text class="label" x="82.0" y="72.3" text-anchor="end">1</text>
<line class="grid" x1="90.0" y1="40.0" x2="90.0" y2="550.0"/>
<text class="label" x="90.0" y="566.0" text-anchor="middle">0</text>
<line class="grid" x1="177.8" y1="40.0" x2="177.8" y2="550.0"/>
<text class="label" x="177.8" y="566.0" text-anchor="middle">5</text>
<line class="grid" x1="265.6" y1="40.0" x2="265.6" y2="550.0"/>
<text class="label" x="265.6" y="566.0" text-anchor="middle">10</text>
<line class="grid" x1="353.5" y1="40.0" x2="353.5" y2="550.0"/>
<text class="label" x="353.5" y="566.0" text-anchor="middle">15</text>
<line class="grid" x1="441.3" y1="40.0" x2="441.3" y2="550.0"/>
<text class="label" x="441.3" y="566.0" text-anchor="middle">20</text>
<line class="grid" x1="529.1" y1="40.0" x2="529.1" y2="550.0"/>
<text class="label" x="529.1" y="566.0" text-anchor="middle">25</text>
<line class="grid" x1="616.9" y1="40.0" x2="616.9" y2="550.0"/>
<text class="label" x="616.9" y="566.0" text-anchor="middle">30</text>
<line class="grid" x1="704.8" y1="40.0" x2="704.8" y2="550.0"/>
<text class="label" x="704.8" y="566.0" text-anchor="middle">35</text>
<line class="grid" x1="792.6" y1="40.0" x2="792.6" y2="550.0"/>
<text class="label" x="792.6" y="566.0" text-anchor="middle">40</text>
<polyline fill="none" stroke="#ef4444" stroke-width="2" stroke-dasharray="8,5" points="213.0,68.3 230.5,85.4 248.1,102.5 265.6,119.5 283.2,136.6 300.8,153.6 318.3,170.7 335.9,187.7 353.5,204.8 371.0,221.9 388.6,238.9 406.2,256.0 423.7,273.0 441.3,290.1 476.4,324.2 511.6,358.3 581.8,426.6 652.1,494.8"/>
<circle cx="213.0" cy="68.3" r="3" fill="#ef4444"/>
<circle cx="230.5" cy="85.4" r="3" fill="#ef4444"/>
<circle cx="248.1" cy="102.5" r="3" fill="#ef4444"/>
<circle cx="265.6" cy="119.5" r="3" fill="#ef4444"/>
<circle cx="283.2" cy="136.6" r="3" fill="#ef4444"/>
<circle cx="300.8" cy="153.6" r="3" fill="#ef4444"/>
<circle cx="318.3" cy="170.7" r="3" fill="#ef4444"/>
<circle cx="335.9" cy="187.7" r="3" fill="#ef4444"/>
<circle cx="353.5" cy="204.8" r="3" fill="#ef4444"/>
<circle cx="371.0" cy="221.9" r="3" fill="#ef4444"/>
<circle cx="388.6" cy="238.9" r="3" fill="#ef4444"/>
<circle cx="406.2" cy="256.0" r="3" fill="#ef4444"/>
<circle cx="423.7" cy="273.0" r="3" fill="#ef4444"/>
<circle cx="441.3" cy="290.1" r="3" fill="#ef4444"/>
<circle cx="476.4" cy="324.2" r="3" fill="#ef4444"/>
<circle cx="511.6" cy="358.3" r="3" fill="#ef4444"/>
<circle cx="581.8" cy="426.6" r="3" fill="#ef4444"/>
<circle cx="652.1" cy="494.8" r="3" fill="#ef4444"/>
<polyline fill="none" stroke="#1a6b3c" stroke-width="2" points="91.0,250.8 91.0,279.4 91.0,316.4 91.1,285.4 91.7,272.2 111.6,222.5 388.3,187.5 423.5,221.8 458.6,256.3"/>
<polygon points="91.0,246.8 95.0,250.8 91.0,254.8 87.0,250.8" fill="#1a6b3c"/>
<polygon points="91.0,275.4 95.0,279.4 91.0,283.4 87.0,279.4" fill="#1a6b3c"/>
<polygon points="91.0,312.4 95.0,316.4 91.0,320.4 87.0,316.4" fill="#1a6b3c"/>
<polygon points="91.1,281.4 95.1,285.4 91.1,289.4 87.1,285.4" fill="#1a6b3c"/>
<polygon points="91.7,268.2 95.7,272.2 91.7,276.2 87.7,272.2" fill="#1a6b3c"/>
<polygon points="111.6,218.5 115.6,222.5 111.6,226.5 107.6,222.5" fill="#1a6b3c"/>
<polygon points="388.3,183.5 392.3,187.5 388.3,191.5 384.3,187.5" fill="#1a6b3c"/>
<polygon points="423.5,217.8 427.5,221.8 423.5,225.8 419.5,221.8" fill="#1a6b3c"/>
<polygon points="458.6,252.3 462.6,256.3 458.6,260.3 454.6,256.3" fill="#1a6b3c"/>
<polyline fill="none" stroke="#1a3a6b" stroke-width="2" points="149.3,84.7 184.3,117.3 220.0,151.2 254.9,185.3 289.9,219.6 324.8,253.1 360.5,285.2 395.4,314.2 430.4,335.8"/>
<polygon points="149.3,79.7 148.2,83.1 144.6,83.1 147.4,85.3 146.4,88.7 149.3,86.7 152.3,88.7 151.2,85.3 154.1,83.1 150.5,83.1" fill="#1a3a6b"/>
<polygon points="184.3,112.3 183.1,115.7 179.5,115.7 182.4,117.9 181.3,121.3 184.3,119.3 187.2,121.3 186.2,117.9 189.0,115.7 185.4,115.7" fill="#1a3a6b"/>
<polygon points="220.0,146.2 218.8,149.5 215.2,149.6 218.1,151.8 217.1,155.2 220.0,153.2 222.9,155.2 221.9,151.8 224.7,149.6 221.2,149.5" fill="#1a3a6b"/>
<polygon points="254.9,180.3 253.8,183.7 250.2,183.8 253.0,185.9 252.0,189.3 254.9,187.3 257.9,189.3 256.8,185.9 259.7,183.8 256.1,183.7" fill="#1a3a6b"/>
<polygon points="289.9,214.6 288.7,218.0 285.1,218.0 288.0,220.2 286.9,223.6 289.9,221.6 292.8,223.6 291.8,220.2 294.6,218.0 291.0,218.0" fill="#1a3a6b"/>
<polygon points="324.8,248.1 323.6,251.5 320.0,251.5 322.9,253.7 321.8,257.1 324.8,255.1 327.7,257.1 326.7,253.7 329.5,251.5 326.0,251.5" fill="#1a3a6b"/>
<polygon points="360.5,280.2 359.3,283.6 355.8,283.7 358.6,285.8 357.6,289.3 360.5,287.2 363.4,289.3 362.4,285.8 365.3,283.7 361.7,283.6" fill="#1a3a6b"/>
<polygon points="395.4,309.2 394.3,312.6 390.7,312.7 393.5,314.8 392.5,318.3 395.4,316.2 398.4,318.3 397.3,314.8 400.2,312.7 396.6,312.6" fill="#1a3a6b"/>
<polygon points="430.4,330.8 429.2,334.2 425.6,334.2 428.5,336.4 427.4,339.8 430.4,337.8 433.3,339.8 432.3,336.4 435.1,334.2 431.5,334.2" fill="#1a3a6b"/>
<polyline fill="none" stroke="#111111" stroke-width="2" points="271.3,136.5"/>
<rect x="268.3" y="133.5" width="6" height="6" fill="#111111"/>
<polyline fill="none" stroke="#111111" stroke-width="2" points="832.9,136.5"/>
<polygon points="832.9,132.5 836.9,139.5 828.9,139.5" fill="#111111"/>
<polyline fill="none" stroke="#111111" stroke-width="2" points="832.9,273.4"/>
<polygon points="832.9,269.4 836.9,273.4 832.9,277.4 828.9,273.4" fill="#111111"/>
<polyline fill="none" stroke="#2a7fff" stroke-width="2" points="90.0,68.3 90.0,68.3 90.0,68.3 90.0,68.3 90.0,85.4 90.0,102.4 90.0,119.5 90.0,136.5 90.0,153.8 90.0,170.9 90.0,188.0 90.0,205.2 90.0,222.0 90.0,238.9 90.0,257.4 90.0,275.5 90.0,292.5 90.0,326.4 90.0,351.2 90.0,521.7 90.0,521.7"/>
<rect x="87.0" y="65.3" width="6" height="6" fill="#2a7fff"/>
<rect x="87.0" y="65.3" width="6" height="6" fill="#2a7fff"/>
<rect x="87.0" y="65.3" width="6" height="6" fill="#2a7fff"/>
<rect x="87.0" y="65.3" width="6" height="6" fill="#2a7fff"/>
<rect x="87.0" y="82.4" width="6" height="6" fill="#2a7fff"/>
<rect x="87.0" y="99.4" width="6" height="6" fill="#2a7fff"/>
<rect x="87.0" y="116.5" width="6" height="6" fill="#2a7fff"/>
<rect x="87.0" y="133.5" width="6" height="6" fill="#2a7fff"/>
<rect x="87.0" y="150.8" width="6" height="6" fill="#2a7fff"/>
<rect x="87.0" y="167.9" width="6" height="6" fill="#2a7fff"/>
<rect x="87.0" y="185.0" width="6" height="6" fill="#2a7fff"/>
<rect x="87.0" y="202.2" width="6" height="6" fill="#2a7fff"/>
<rect x="87.0" y="219.0" width="6" height="6" fill="#2a7fff"/>
<rect x="87.0" y="235.9" width="6" height="6" fill="#2a7fff"/>
<rect x="87.0" y="254.4" width="6" height="6" fill="#2a7fff"/>
<rect x="87.0" y="272.5" width="6" height="6" fill="#2a7fff"/>
<rect x="87.0" y="289.5" width="6" height="6" fill="#2a7fff"/>
<rect x="87.0" y="323.4" width="6" height="6" fill="#2a7fff"/>
<rect x="87.0" y="348.2" width="6" height="6" fill="#2a7fff"/>
<rect x="87.0" y="518.7" width="6" height="6" fill="#2a7fff"/>
<rect x="87.0" y="518.7" width="6" height="6" fill="#2a7fff"/>
<polyline fill="none" stroke="#9b59b6" stroke-width="2" points="90.0,68.3 90.0,68.3 90.1,68.3 90.1,68.3 90.2,68.3 90.4,68.3 90.8,68.3 91.6,68.3 93.3,68.3 96.6,68.3 103.2,68.3 116.3,68.3 142.7,68.3 160.3,85.4 177.8,102.4 195.4,119.4 213.0,136.5 248.1,170.5 283.2,205.6 353.5,273.4 423.7,337.5"/>
<polygon points="90.0,64.3 94.0,71.3 86.0,71.3" fill="#9b59b6"/>
<polygon points="90.0,64.3 94.0,71.3 86.0,71.3" fill="#9b59b6"/>
<polygon points="90.1,64.3 94.1,71.3 86.1,71.3" fill="#9b59b6"/>
<polygon points="90.1,64.3 94.1,71.3 86.1,71.3" fill="#9b59b6"/>
<polygon points="90.2,64.3 94.2,71.3 86.2,71.3" fill="#9b59b6"/>
<polygon points="90.4,64.3 94.4,71.3 86.4,71.3" fill="#9b59b6"/>
<polygon points="90.8,64.3 94.8,71.3 86.8,71.3" fill="#9b59b6"/>
<polygon points="91.6,64.3 95.6,71.3 87.6,71.3" fill="#9b59b6"/>
<polygon points="93.3,64.3 97.3,71.3 89.3,71.3" fill="#9b59b6"/>
<polygon points="96.6,64.3 100.6,71.3 92.6,71.3" fill="#9b59b6"/>
<polygon points="103.2,64.3 107.2,71.3 99.2,71.3" fill="#9b59b6"/>
<polygon points="116.3,64.3 120.3,71.3 112.3,71.3" fill="#9b59b6"/>
<polygon points="142.7,64.3 146.7,71.3 138.7,71.3" fill="#9b59b6"/>
<polygon points="160.3,81.4 164.3,88.4 156.3,88.4" fill="#9b59b6"/>
<polygon points="177.8,98.4 181.8,105.4 173.8,105.4" fill="#9b59b6"/>
<polygon points="195.4,115.4 199.4,122.4 191.4,122.4" fill="#9b59b6"/>
<polygon points="213.0,132.5 217.0,139.5 209.0,139.5" fill="#9b59b6"/>
<polygon points="248.1,166.5 252.1,173.5 244.1,173.5" fill="#9b59b6"/>
<polygon points="283.2,201.6 287.2,208.6 279.2,208.6" fill="#9b59b6"/>
<polygon points="353.5,269.4 357.5,276.4 349.5,276.4" fill="#9b59b6"/>
<polygon points="423.7,333.5 427.7,340.5 419.7,340.5" fill="#9b59b6"/>
<polyline fill="none" stroke="#4dd88a" stroke-width="2" points="90.0,68.3 90.0,68.3 90.0,68.3 90.0,68.3 90.0,85.4 90.0,102.4 90.0,119.5 90.0,136.5 90.0,153.8 90.0,170.9 90.0,188.0 90.0,205.2 90.0,222.0 90.0,238.9 90.0,257.4 90.0,275.5 90.0,292.5 90.0,326.4 90.0,351.2 90.0,521.7 90.0,521.7"/>
<polygon points="90.0,64.3 94.0,68.3 90.0,72.3 86.0,68.3" fill="#4dd88a"/>
<polygon points="90.0,64.3 94.0,68.3 90.0,72.3 86.0,68.3" fill="#4dd88a"/>
<polygon points="90.0,64.3 94.0,68.3 90.0,72.3 86.0,68.3" fill="#4dd88a"/>
<polygon points="90.0,64.3 94.0,68.3 90.0,72.3 86.0,68.3" fill="#4dd88a"/>
<polygon points="90.0,81.4 94.0,85.4 90.0,89.4 86.0,85.4" fill="#4dd88a"/>
<polygon points="90.0,98.4 94.0,102.4 90.0,106.4 86.0,102.4" fill="#4dd88a"/>
<polygon points="90.0,115.5 94.0,119.5 90.0,123.5 86.0,119.5" fill="#4dd88a"/>
<polygon points="90.0,132.5 94.0,136.5 90.0,140.5 86.0,136.5" fill="#4dd88a"/>
<polygon points="90.0,149.8 94.0,153.8 90.0,157.8 86.0,153.8" fill="#4dd88a"/>
<polygon points="90.0,166.9 94.0,170.9 90.0,174.9 86.0,170.9" fill="#4dd88a"/>
<polygon points="90.0,184.0 94.0,188.0 90.0,192.0 86.0,188.0" fill="#4dd88a"/>
<polygon points="90.0,201.2 94.0,205.2 90.0,209.2 86.0,205.2" fill="#4dd88a"/>
<polygon points="90.0,218.0 94.0,222.0 90.0,226.0 86.0,222.0" fill="#4dd88a"/>
<polygon points="90.0,234.9 94.0,238.9 90.0,242.9 86.0,238.9" fill="#4dd88a"/>
<polygon points="90.0,253.4 94.0,257.4 90.0,261.4 86.0,257.4" fill="#4dd88a"/>
<polygon points="90.0,271.5 94.0,275.5 90.0,279.5 86.0,275.5" fill="#4dd88a"/>
<polygon points="90.0,288.5 94.0,292.5 90.0,296.5 86.0,292.5" fill="#4dd88a"/>
<polygon points="90.0,322.4 94.0,326.4 90.0,330.4 86.0,326.4" fill="#4dd88a"/>
<polygon points="90.0,347.2 94.0,351.2 90.0,355.2 86.0,351.2" fill="#4dd88a"/>
<polygon points="90.0,517.7 94.0,521.7 90.0,525.7 86.0,521.7" fill="#4dd88a"/>
<polygon points="90.0,517.7 94.0,521.7 90.0,525.7 86.0,521.7" fill="#4dd88a"/>
<polyline fill="none" stroke="#ff6b6b" stroke-width="2" points="90.0,68.3 90.0,68.3 90.1,68.3 90.1,68.3 90.2,68.3 90.4,68.3 90.8,68.3 91.6,68.3 93.3,68.3 96.6,68.3 103.2,68.3 116.3,68.3 142.7,68.3 160.3,85.4 177.8,102.4 195.4,119.4 213.0,136.5 248.1,170.5 283.2,205.6 353.5,273.4 423.7,337.5"/>
<polygon points="90.0,63.3 88.8,66.7 85.3,66.8 88.1,69.0 87.1,72.4 90.0,70.3 93.0,72.4 91.9,69.0 94.8,66.8 91.2,66.7" fill="#ff6b6b"/>
<polygon points="90.0,63.3 88.9,66.7 85.3,66.8 88.1,69.0 87.1,72.4 90.0,70.3 93.0,72.4 91.9,69.0 94.8,66.8 91.2,66.7" fill="#ff6b6b"/>
<polygon points="90.1,63.3 88.9,66.7 85.3,66.8 88.1,69.0 87.1,72.4 90.1,70.3 93.0,72.4 92.0,69.0 94.8,66.8 91.2,66.7" fill="#ff6b6b"/>
<polygon points="90.1,63.3 88.9,66.7 85.3,66.8 88.2,69.0 87.2,72.4 90.1,70.3 93.0,72.4 92.0,69.0 94.9,66.8 91.3,66.7" fill="#ff6b6b"/>
<polygon points="90.2,63.3 89.0,66.7 85.5,66.8 88.3,69.0 87.3,72.4 90.2,70.3 93.1,72.4 92.1,69.0 95.0,66.8 91.4,66.7" fill="#ff6b6b"/>
<polygon points="90.4,63.3 89.2,66.7 85.7,66.8 88.5,69.0 87.5,72.4 90.4,70.3 93.4,72.4 92.3,69.0 95.2,66.8 91.6,66.7" fill="#ff6b6b"/>
<polygon points="90.8,63.3 89.6,66.7 86.1,66.8 88.9,69.0 87.9,72.4 90.8,70.3 93.8,72.4 92.7,69.0 95.6,66.8 92.0,66.7" fill="#ff6b6b"/>
<polygon points="91.6,63.3 90.5,66.7 86.9,66.8 89.7,69.0 88.7,72.4 91.6,70.3 94.6,72.4 93.5,69.0 96.4,66.8 92.8,66.7" fill="#ff6b6b"/>
<polygon points="93.3,63.3 92.1,66.7 88.5,66.8 91.4,69.0 90.4,72.4 93.3,70.3 96.2,72.4 95.2,69.0 98.0,66.8 94.5,66.7" fill="#ff6b6b"/>
<polygon points="96.6,63.3 95.4,66.7 91.8,66.8 94.7,69.0 93.6,72.4 96.6,70.3 99.5,72.4 98.5,69.0 101.3,66.8 97.8,66.7" fill="#ff6b6b"/>
<polygon points="103.2,63.3 102.0,66.7 98.4,66.8 101.3,69.0 100.2,72.4 103.2,70.3 106.1,72.4 105.1,69.0 107.9,66.8 104.3,66.7" fill="#ff6b6b"/>
<polygon points="116.3,63.3 115.2,66.7 111.6,66.8 114.4,69.0 113.4,72.4 116.3,70.3 119.3,72.4 118.2,69.0 121.1,66.8 117.5,66.7" fill="#ff6b6b"/>
<polygon points="142.7,63.3 141.5,66.7 137.9,66.8 140.8,69.0 139.8,72.4 142.7,70.3 145.6,72.4 144.6,69.0 147.4,66.8 143.9,66.7" fill="#ff6b6b"/>
<polygon points="160.3,80.4 159.1,83.7 155.5,83.8 158.4,86.0 157.3,89.4 160.3,87.4 163.2,89.4 162.2,86.0 165.0,83.8 161.4,83.7" fill="#ff6b6b"/>
<polygon points="177.8,97.4 176.6,100.8 173.1,100.8 175.9,103.0 174.9,106.4 177.8,104.4 180.8,106.4 179.7,103.0 182.6,100.8 179.0,100.8" fill="#ff6b6b"/>
<polygon points="195.4,114.4 194.2,117.8 190.6,117.8 193.5,120.0 192.4,123.4 195.4,121.4 198.3,123.4 197.3,120.0 200.1,117.8 196.6,117.8" fill="#ff6b6b"/>
<polygon points="213.0,131.5 211.8,134.9 208.2,135.0 211.1,137.1 210.0,140.6 213.0,138.5 215.9,140.6 214.9,137.1 217.7,135.0 214.1,134.9" fill="#ff6b6b"/>
<polygon points="248.1,165.5 246.9,168.9 243.3,169.0 246.2,171.1 245.1,174.6 248.1,172.5 251.0,174.6 250.0,171.1 252.8,169.0 249.3,168.9" fill="#ff6b6b"/>
<polygon points="283.2,200.6 282.0,204.0 278.5,204.1 281.3,206.2 280.3,209.7 283.2,207.6 286.2,209.7 285.1,206.2 288.0,204.1 284.4,204.0" fill="#ff6b6b"/>
<polygon points="353.5,268.4 352.3,271.8 348.7,271.9 351.6,274.0 350.5,277.5 353.5,275.4 356.4,277.5 355.4,274.0 358.2,271.9 354.6,271.8" fill="#ff6b6b"/>
<polygon points="423.7,332.5 422.6,335.9 419.0,335.9 421.8,338.1 420.8,341.5 423.7,339.5 426.7,341.5 425.6,338.1 428.5,335.9 424.9,335.9" fill="#ff6b6b"/>
<polyline fill="none" stroke="#ff922b" stroke-width="2" points="248.1,136.7 265.7,153.7 283.2,171.0 300.8,188.5 318.4,205.8 335.9,223.2 353.5,240.2 371.1,256.9 406.2,291.7 423.8,311.6"/>
<circle cx="248.1" cy="136.7" r="3" fill="#ff922b"/>
<circle cx="265.7" cy="153.7" r="3" fill="#ff922b"/>
<circle cx="283.2" cy="171.0" r="3" fill="#ff922b"/>
<circle cx="300.8" cy="188.5" r="3" fill="#ff922b"/>
<circle cx="318.4" cy="205.8" r="3" fill="#ff922b"/>
<circle cx="335.9" cy="223.2" r="3" fill="#ff922b"/>
<circle cx="353.5" cy="240.2" r="3" fill="#ff922b"/>
<circle cx="371.1" cy="256.9" r="3" fill="#ff922b"/>
<circle cx="406.2" cy="291.7" r="3" fill="#ff922b"/>
<circle cx="423.8" cy="311.6" r="3" fill="#ff922b"/>
<polyline fill="none" stroke="#888888" stroke-width="2" stroke-dasharray="8,5" points="349.7,124.5 376.0,141.6 410.0,164.4 435.6,181.8 461.0,199.1 494.5,222.0 519.9,237.2 545.3,255.3 578.8,277.4 604.1,297.9"/>
<circle cx="349.7" cy="124.5" r="3" fill="#888888"/>
<circle cx="376.0" cy="141.6" r="3" fill="#888888"/>
<circle cx="410.0" cy="164.4" r="3" fill="#888888"/>
<circle cx="435.6" cy="181.8" r="3" fill="#888888"/>
<circle cx="461.0" cy="199.1" r="3" fill="#888888"/>
<circle cx="494.5" cy="222.0" r="3" fill="#888888"/>
<circle cx="519.9" cy="237.2" r="3" fill="#888888"/>
<circle cx="545.3" cy="255.3" r="3" fill="#888888"/>
<circle cx="578.8" cy="277.4" r="3" fill="#888888"/>
<circle cx="604.1" cy="297.9" r="3" fill="#888888"/>
<line x1="886" y1="60" x2="902" y2="60" stroke="#ef4444" stroke-width="2" stroke-dasharray="8,5"/>
<circle cx="894.0" cy="60.0" r="3" fill="#ef4444"/>
<text class="label" x="908" y="64">Theoretical</text>
<line x1="886" y1="78" x2="902" y2="78" stroke="#1a6b3c" stroke-width="2"/>
<polygon points="894.0,74.0 898.0,78.0 894.0,82.0 890.0,78.0" fill="#1a6b3c"/>
<text class="label" x="908" y="82">Grafite</text>
<line x1="886" y1="96" x2="902" y2="96" stroke="#1a3a6b" stroke-width="2"/>
<polygon points="894.0,91.0 892.8,94.4 889.2,94.5 892.1,96.6 891.1,100.0 894.0,98.0 896.9,100.0 895.9,96.6 898.8,94.5 895.2,94.4" fill="#1a3a6b"/>
<text class="label" x="908" y="100">SNARF</text>
<line x1="886" y1="114" x2="902" y2="114" stroke="#111111" stroke-width="2"/>
<rect x="891.0" y="111.0" width="6" height="6" fill="#111111"/>
<text class="label" x="908" y="118">SuRF</text>
<line x1="886" y1="132" x2="902" y2="132" stroke="#111111" stroke-width="2"/>
<polygon points="894.0,128.0 898.0,135.0 890.0,135.0" fill="#111111"/>
<text class="label" x="908" y="136">SuRFHash(8)</text>
<line x1="886" y1="150" x2="902" y2="150" stroke="#111111" stroke-width="2"/>
<polygon points="894.0,146.0 898.0,150.0 894.0,154.0 890.0,150.0" fill="#111111"/>
<text class="label" x="908" y="154">SuRFReal(8)</text>
<line x1="886" y1="168" x2="902" y2="168" stroke="#2a7fff" stroke-width="2"/>
<rect x="891.0" y="165.0" width="6" height="6" fill="#2a7fff"/>
<text class="label" x="908" y="172">Adaptive (t=0)</text>
<line x1="886" y1="186" x2="902" y2="186" stroke="#9b59b6" stroke-width="2"/>
<polygon points="894.0,182.0 898.0,189.0 890.0,189.0" fill="#9b59b6"/>
<text class="label" x="908" y="190">Truncation</text>
<line x1="886" y1="204" x2="902" y2="204" stroke="#4dd88a" stroke-width="2"/>
<polygon points="894.0,200.0 898.0,204.0 894.0,208.0 890.0,204.0" fill="#4dd88a"/>
<text class="label" x="908" y="208">SODA</text>
<line x1="886" y1="222" x2="902" y2="222" stroke="#ff6b6b" stroke-width="2"/>
<polygon points="894.0,217.0 892.8,220.4 889.2,220.5 892.1,222.6 891.1,226.0 894.0,224.0 896.9,226.0 895.9,222.6 898.8,220.5 895.2,220.4" fill="#ff6b6b"/>
<text class="label" x="908" y="226">Hybrid</text>
<line x1="886" y1="240" x2="902" y2="240" stroke="#ff922b" stroke-width="2"/>
<circle cx="894.0" cy="240.0" r="3" fill="#ff922b"/>
<text class="label" x="908" y="244">CDF-ARE</text>
<line x1="886" y1="258" x2="902" y2="258" stroke="#888888" stroke-width="2" stroke-dasharray="8,5"/>
<circle cx="894.0" cy="258.0" r="3" fill="#888888"/>
<text class="label" x="908" y="262">BloomARE</text>
<text x="480" y="590" text-anchor="middle">Bits per Key (BPK)</text>
<text transform="translate(16,295) rotate(-90)" text-anchor="middle">False Positive Rate (FPR)</text>
</svg>
