<svg xmlns="http://www.w3.org/2000/svg" width="1020" height="600" viewBox="0 0 1020 600">
<style>text{font-family:Menlo,Monaco,monospace;font-size:12px;fill:#222} .axis{stroke:#333;stroke-width:1} .grid{stroke:#eee;stroke-width:0.5} .label{font-size:11px;fill:#444}</style>
<text x="510" y="28" text-anchor="middle" style="font-size:14px;font-weight:bold">FPR vs BPK — clustered (60-bit keys, n=65536, L=1)</text>
<line class="axis" x1="90.0" y1="550.0" x2="870.0" y2="550.0"/>
<line class="axis" x1="90.0" y1="40.0" x2="90.0" y2="550.0"/>
<line class="grid" x1="90.0" y1="521.7" x2="870.0" y2="521.7"/>
<text class="label" x="82.0" y="525.7" text-anchor="end">10^-8</text>
<line class="grid" x1="90.0" y1="465.0" x2="870.0" y2="465.0"/>
<text class="label" x="82.0" y="469.0" text-anchor="end">10^-7</text>
<line class="grid" x1="90.0" y1="408.3" x2="870.0" y2="408.3"/>
<text class="label" x="82.0" y="412.3" text-anchor="end">10^-6</text>
<line class="grid" x1="90.0" y1="351.7" x2="870.0" y2="351.7"/>
<text class="label" x="82.0" y="355.7" text-anchor="end">10^-5</text>
<line class="grid" x1="90.0" y1="295.0" x2="870.0" y2="295.0"/>
<text class="label" x="82.0" y="299.0" text-anchor="end">10^-4</text>
<line class="grid" x1="90.0" y1="238.3" x2="870.0" y2="238.3"/>
<text class="label" x="82.0" y="242.3" text-anchor="end">10^-3</text>
<line class="grid" x1="90.0" y1="181.7" x2="870.0" y2="181.7"/>
<text class="label" x="82.0" y="185.7" text-anchor="end">10^-2</text>
<line class="grid" x1="90.0" y1="125.0" x2="870.0" y2="125.0"/>
<text class="label" x="82.0" y="129.0" text-anchor="end">10^-1</text>
<line class="grid" x1="90.0" y1="68.3" x2="870.0" y2="68.3"/>
<text class="label" x="82.0" y="72.3" text-anchor="end">1</text>
<line class="grid" x1="90.0" y1="40.0" x2="90.0" y2="550.0"/>
<text class="label" x="90.0" y="566.0" text-anchor="middle">0</text>
<line class="grid" x1="177.0" y1="40.0" x2="177.0" y2="550.0"/>
<text class="label" x="177.0" y="566.0" text-anchor="middle">5</text>
<line class="grid" x1="263.9" y1="40.0" x2="263.9" y2="550.0"/>
<text class="label" x="263.9" y="566.0" text-anchor="middle">10</text>
<line class="grid" x1="350.9" y1="40.0" x2="350.9" y2="550.0"/>
<text class="label" x="350.9" y="566.0" text-anchor="middle">15</text>
<line class="grid" x1="437.9" y1="40.0" x2="437.9" y2="550.0"/>
<text class="label" x="437.9" y="566.0" text-anchor="middle">20</text>
<line class="grid" x1="524.8" y1="40.0" x2="524.8" y2="550.0"/>
<text class="label" x="524.8" y="566.0" text-anchor="middle">25</text>
<line class="grid" x1="611.8" y1="40.0" x2="611.8" y2="550.0"/>
<text class="label" x="611.8" y="566.0" text-anchor="middle">30</text>
<line class="grid" x1="698.8" y1="40.0" x2="698.8" y2="550.0"/>
<text class="label" x="698.8" y="566.0" text-anchor="middle">35</text>
<line class="grid" x1="785.7" y1="40.0" x2="785.7" y2="550.0"/>
<text class="label" x="785.7" y="566.0" text-anchor="middle">40</text>
<polyline fill="none" stroke="#ef4444" stroke-width="2" stroke-dasharray="8,5" points="159.6,136.6 177.0,153.6 194.4,170.7 211.8,187.7 229.1,204.8 246.5,221.9 263.9,238.9 281.3,256.0 298.7,273.0 316.1,290.1 333.5,307.2 350.9,324.2 368.3,341.3 385.7,358.3 403.1,375.4 420.5,392.4 437.9,409.5 472.7,443.6 507.4,477.7 577.0,546.0 646.6,614.2"/>
<circle cx="159.6" cy="136.6" r="3" fill="#ef4444"/>
<circle cx="177.0" cy="153.6" r="3" fill="#ef4444"/>
<circle cx="194.4" cy="170.7" r="3" fill="#ef4444"/>
<circle cx="211.8" cy="187.7" r="3" fill="#ef4444"/>
<circle cx="229.1" cy="204.8" r="3" fill="#ef4444"/>
<circle cx="246.5" cy="221.9" r="3" fill="#ef4444"/>
<circle cx="263.9" cy="238.9" r="3" fill="#ef4444"/>
<circle cx="281.3" cy="256.0" r="3" fill="#ef4444"/>
<circle cx="298.7" cy="273.0" r="3" fill="#ef4444"/>
<circle cx="316.1" cy="290.1" r="3" fill="#ef4444"/>
<circle cx="333.5" cy="307.2" r="3" fill="#ef4444"/>
<circle cx="350.9" cy="324.2" r="3" fill="#ef4444"/>
<circle cx="368.3" cy="341.3" r="3" fill="#ef4444"/>
<circle cx="385.7" cy="358.3" r="3" fill="#ef4444"/>
<circle cx="403.1" cy="375.4" r="3" fill="#ef4444"/>
<circle cx="420.5" cy="392.4" r="3" fill="#ef4444"/>
<circle cx="437.9" cy="409.5" r="3" fill="#ef4444"/>
<circle cx="472.7" cy="443.6" r="3" fill="#ef4444"/>
<circle cx="507.4" cy="477.7" r="3" fill="#ef4444"/>
<circle cx="577.0" cy="546.0" r="3" fill="#ef4444"/>
<circle cx="646.6" cy="614.2" r="3" fill="#ef4444"/>
<polyline fill="none" stroke="#1a6b3c" stroke-width="2" points="164.6,105.4 203.4,137.6 239.9,171.8 275.4,205.8 310.3,240.1 345.2,275.7 385.4,312.3 420.2,358.3 455.0,385.4"/>
<polygon points="164.6,101.4 168.6,105.4 164.6,109.4 160.6,105.4" fill="#1a6b3c"/>
<polygon points="203.4,133.6 207.4,137.6 203.4,141.6 199.4,137.6" fill="#1a6b3c"/>
<polygon points="239.9,167.8 243.9,171.8 239.9,175.8 235.9,171.8" fill="#1a6b3c"/>
<polygon points="275.4,201.8 279.4,205.8 275.4,209.8 271.4,205.8" fill="#1a6b3c"/>
<polygon points="310.3,236.1 314.3,240.1 310.3,244.1 306.3,240.1" fill="#1a6b3c"/>
<polygon points="345.2,271.7 349.2,275.7 345.2,279.7 341.2,275.7" fill="#1a6b3c"/>
<polygon points="385.4,308.3 389.4,312.3 385.4,316.3 381.4,312.3" fill="#1a6b3c"/>
<polygon points="420.2,354.3 424.2,358.3 420.2,362.3 416.2,358.3" fill="#1a6b3c"/>
<polygon points="455.0,381.4 459.0,385.4 455.0,389.4 451.0,385.4" fill="#1a6b3c"/>
<polyline fill="none" stroke="#1a3a6b" stroke-width="2" points="148.8,73.5 183.4,75.0 218.3,75.5 253.3,75.6 287.9,75.7 322.6,75.7 357.5,75.7 392.5,75.7 427.1,75.7"/>
<polygon points="148.8,68.5 147.6,71.9 144.0,71.9 146.9,74.1 145.8,77.5 148.8,75.5 151.7,77.5 150.7,74.1 153.5,71.9 150.0,71.9" fill="#1a3a6b"/>
<polygon points="183.4,70.0 182.2,73.4 178.7,73.5 181.5,75.6 180.5,79.1 183.4,77.0 186.4,79.1 185.3,75.6 188.2,73.5 184.6,73.4" fill="#1a3a6b"/>
<polygon points="218.3,70.5 217.2,73.9 213.6,74.0 216.4,76.1 215.4,79.6 218.3,77.5 221.3,79.6 220.2,76.1 223.1,74.0 219.5,73.9" fill="#1a3a6b"/>
<polygon points="253.3,70.6 252.1,74.0 248.6,74.1 251.4,76.3 250.4,79.7 253.3,77.6 256.3,79.7 255.2,76.3 258.1,74.1 254.5,74.0" fill="#1a3a6b"/>
<polygon points="287.9,70.7 286.8,74.1 283.2,74.1 286.0,76.3 285.0,79.7 287.9,77.7 290.9,79.7 289.8,76.3 292.7,74.1 289.1,74.1" fill="#1a3a6b"/>
<polygon points="322.6,70.7 321.4,74.1 317.8,74.1 320.7,76.3 319.6,79.7 322.6,77.7 325.5,79.7 324.5,76.3 327.3,74.1 323.7,74.1" fill="#1a3a6b"/>
<polygon points="357.5,70.7 356.3,74.1 352.7,74.1 355.6,76.3 354.6,79.7 357.5,77.7 360.4,79.7 359.4,76.3 362.2,74.1 358.7,74.1" fill="#1a3a6b"/>
<polygon points="392.5,70.7 391.3,74.1 387.7,74.1 390.6,76.3 389.5,79.7 392.5,77.7 395.4,79.7 394.4,76.3 397.2,74.1 393.6,74.1" fill="#1a3a6b"/>
<polygon points="427.1,70.7 425.9,74.1 422.3,74.1 425.2,76.3 424.1,79.7 427.1,77.7 430.0,79.7 429.0,76.3 431.8,74.1 428.3,74.1" fill="#1a3a6b"/>
<polyline fill="none" stroke="#111111" stroke-width="2" points="307.3,103.1"/>
<rect x="304.3" y="100.1" width="6" height="6" fill="#111111"/>
<polyline fill="none" stroke="#111111" stroke-width="2" points="832.9,103.1"/>
<polygon points="832.9,99.1 836.9,106.1 828.9,106.1" fill="#111111"/>
<polyline fill="none" stroke="#111111" stroke-width="2" points="832.9,246.7"/>
<polygon points="832.9,242.7 836.9,246.7 832.9,250.7 828.9,246.7" fill="#111111"/>
<polyline fill="none" stroke="#2a7fff" stroke-width="2" points="90.0,68.3 90.0,68.3 90.1,68.3 90.1,68.3 90.2,68.3 90.4,68.3 90.8,68.3 91.6,68.3 93.3,68.3 96.5,68.3 102.9,68.8 113.7,72.0 129.4,79.7 148.4,91.4 168.9,105.6 189.1,121.2 208.6,137.4 245.4,171.5 281.0,206.0 350.9,273.3 420.5,341.3"/>
<rect x="87.0" y="65.3" width="6" height="6" fill="#2a7fff"/>
<rect x="87.0" y="65.3" width="6" height="6" fill="#2a7fff"/>
<rect x="87.1" y="65.3" width="6" height="6" fill="#2a7fff"/>
<rect x="87.1" y="65.3" width="6" height="6" fill="#2a7fff"/>
<rect x="87.2" y="65.3" width="6" height="6" fill="#2a7fff"/>
<rect x="87.4" y="65.3" width="6" height="6" fill="#2a7fff"/>
<rect x="87.8" y="65.3" width="6" height="6" fill="#2a7fff"/>
<rect x="88.6" y="65.3" width="6" height="6" fill="#2a7fff"/>
<rect x="90.3" y="65.3" width="6" height="6" fill="#2a7fff"/>
<rect x="93.5" y="65.3" width="6" height="6" fill="#2a7fff"/>
<rect x="99.9" y="65.8" width="6" height="6" fill="#2a7fff"/>
<rect x="110.7" y="69.0" width="6" height="6" fill="#2a7fff"/>
<rect x="126.4" y="76.7" width="6" height="6" fill="#2a7fff"/>
<rect x="145.4" y="88.4" width="6" height="6" fill="#2a7fff"/>
<rect x="165.9" y="102.6" width="6" height="6" fill="#2a7fff"/>
<rect x="186.1" y="118.2" width="6" height="6" fill="#2a7fff"/>
<rect x="205.6" y="134.4" width="6" height="6" fill="#2a7fff"/>
<rect x="242.4" y="168.5" width="6" height="6" fill="#2a7fff"/>
<rect x="278.0" y="203.0" width="6" height="6" fill="#2a7fff"/>
<rect x="347.9" y="270.3" width="6" height="6" fill="#2a7fff"/>
<rect x="417.5" y="338.3" width="6" height="6" fill="#2a7fff"/>
<polyline fill="none" stroke="#9b59b6" stroke-width="2" points="90.0,68.3 90.0,68.3 90.1,68.3 90.1,68.3 90.2,68.3 90.4,68.3 90.8,68.3 91.6,68.4 93.1,68.7 95.2,69.5 98.1,70.4 101.1,71.2 104.1,71.7 107.0,72.0 109.7,72.2 112.5,72.3 115.1,72.3 120.4,72.3 125.7,72.3 136.1,72.3 146.6,72.3"/>
<polygon points="90.0,64.3 94.0,71.3 86.0,71.3" fill="#9b59b6"/>
<polygon points="90.0,64.3 94.0,71.3 86.0,71.3" fill="#9b59b6"/>
<polygon points="90.1,64.3 94.1,71.3 86.1,71.3" fill="#9b59b6"/>
<polygon points="90.1,64.3 94.1,71.3 86.1,71.3" fill="#9b59b6"/>
<polygon points="90.2,64.3 94.2,71.3 86.2,71.3" fill="#9b59b6"/>
<polygon points="90.4,64.3 94.4,71.3 86.4,71.3" fill="#9b59b6"/>
<polygon points="90.8,64.3 94.8,71.3 86.8,71.3" fill="#9b59b6"/>
<polygon points="91.6,64.4 95.6,71.4 87.6,71.4" fill="#9b59b6"/>
<polygon points="93.1,64.7 97.1,71.7 89.1,71.7" fill="#9b59b6"/>
<polygon points="95.2,65.5 99.2,72.5 91.2,72.5" fill="#9b59b6"/>
<polygon points="98.1,66.4 102.1,73.4 94.1,73.4" fill="#9b59b6"/>
<polygon points="101.1,67.2 105.1,74.2 97.1,74.2" fill="#9b59b6"/>
<polygon points="104.1,67.7 108.1,74.7 100.1,74.7" fill="#9b59b6"/>
<polygon points="107.0,68.0 111.0,75.0 103.0,75.0" fill="#9b59b6"/>
<polygon points="109.7,68.2 113.7,75.2 105.7,75.2" fill="#9b59b6"/>
<polygon points="112.5,68.3 116.5,75.3 108.5,75.3" fill="#9b59b6"/>
<polygon points="115.1,68.3 119.1,75.3 111.1,75.3" fill="#9b59b6"/>
<polygon points="120.4,68.3 124.4,75.3 116.4,75.3" fill="#9b59b6"/>
<polygon points="125.7,68.3 129.7,75.3 121.7,75.3" fill="#9b59b6"/>
<polygon points="136.1,68.3 140.1,75.3 132.1,75.3" fill="#9b59b6"/>
<polygon points="146.6,68.3 150.6,75.3 142.6,75.3" fill="#9b59b6"/>
<polyline fill="none" stroke="#4dd88a" stroke-width="2" points="90.0,68.3 90.0,68.3 90.1,68.3 90.1,68.3 90.2,68.3 90.4,68.3 90.8,68.3 91.6,68.3 93.3,68.3 96.5,68.3 102.9,68.8 113.7,72.0 129.4,79.7 148.4,91.4 168.9,105.6 189.1,121.2 208.6,137.4 245.4,171.5 281.0,206.0 350.9,273.3 420.5,341.3"/>
<polygon points="90.0,64.3 94.0,68.3 90.0,72.3 86.0,68.3" fill="#4dd88a"/>
<polygon points="90.0,64.3 94.0,68.3 90.0,72.3 86.0,68.3" fill="#4dd88a"/>
<polygon points="90.1,64.3 94.1,68.3 90.1,72.3 86.1,68.3" fill="#4dd88a"/>
<polygon points="90.1,64.3 94.1,68.3 90.1,72.3 86.1,68.3" fill="#4dd88a"/>
<polygon points="90.2,64.3 94.2,68.3 90.2,72.3 86.2,68.3" fill="#4dd88a"/>
<polygon points="90.4,64.3 94.4,68.3 90.4,72.3 86.4,68.3" fill="#4dd88a"/>
<polygon points="90.8,64.3 94.8,68.3 90.8,72.3 86.8,68.3" fill="#4dd88a"/>
<polygon points="91.6,64.3 95.6,68.3 91.6,72.3 87.6,68.3" fill="#4dd88a"/>
<polygon points="93.3,64.3 97.3,68.3 93.3,72.3 89.3,68.3" fill="#4dd88a"/>
<polygon points="96.5,64.3 100.5,68.3 96.5,72.3 92.5,68.3" fill="#4dd88a"/>
<polygon points="102.9,64.8 106.9,68.8 102.9,72.8 98.9,68.8" fill="#4dd88a"/>
<polygon points="113.7,68.0 117.7,72.0 113.7,76.0 109.7,72.0" fill="#4dd88a"/>
<polygon points="129.4,75.7 133.4,79.7 129.4,83.7 125.4,79.7" fill="#4dd88a"/>
<polygon points="148.4,87.4 152.4,91.4 148.4,95.4 144.4,91.4" fill="#4dd88a"/>
<polygon points="168.9,101.6 172.9,105.6 168.9,109.6 164.9,105.6" fill="#4dd88a"/>
<polygon points="189.1,117.2 193.1,121.2 189.1,125.2 185.1,121.2" fill="#4dd88a"/>
<polygon points="208.6,133.4 212.6,137.4 208.6,141.4 204.6,137.4" fill="#4dd88a"/>
<polygon points="245.4,167.5 249.4,171.5 245.4,175.5 241.4,171.5" fill="#4dd88a"/>
<polygon points="281.0,202.0 285.0,206.0 281.0,210.0 277.0,206.0" fill="#4dd88a"/>
<polygon points="350.9,269.3 354.9,273.3 350.9,277.3 346.9,273.3" fill="#4dd88a"/>
<polygon points="420.5,337.3 424.5,341.3 420.5,345.3 416.5,341.3" fill="#4dd88a"/>
<polyline fill="none" stroke="#ff6b6b" stroke-width="2" points="90.2,68.3 90.3,68.3 90.5,68.3 90.8,68.3 91.4,68.3 92.6,68.3 94.9,68.3 99.3,68.5 106.7,70.8 118.2,80.5 133.8,89.7 152.0,101.6 171.4,115.8 191.1,131.3 210.4,147.9 229.0,164.6 247.3,181.7 282.8,218.7 317.8,252.9 387.5,332.7 457.0,521.7"/>
<polygon points="90.2,63.3 89.1,66.7 85.5,66.8 88.3,69.0 87.3,72.4 90.2,70.3 93.2,72.4 92.1,69.0 95.0,66.8 91.4,66.7" fill="#ff6b6b"/>
<polygon points="90.3,63.3 89.1,66.7 85.6,66.8 88.4,69.0 87.4,72.4 90.3,70.3 93.3,72.4 92.2,69.0 95.1,66.8 91.5,66.7" fill="#ff6b6b"/>
<polygon points="90.5,63.3 89.3,66.7 85.7,66.8 88.6,69.0 87.5,72.4 90.5,70.3 93.4,72.4 92.4,69.0 95.2,66.8 91.7,66.7" fill="#ff6b6b"/>
<polygon points="90.8,63.3 89.6,66.7 86.0,66.8 88.9,69.0 87.8,72.4 90.8,70.3 93.7,72.4 92.7,69.0 95.5,66.8 92.0,66.7" fill="#ff6b6b"/>
<polygon points="91.4,63.3 90.2,66.7 86.6,66.8 89.5,69.0 88.5,72.4 91.4,70.3 94.3,72.4 93.3,69.0 96.1,66.8 92.6,66.7" fill="#ff6b6b"/>
<polygon points="92.6,63.3 91.4,66.7 87.8,66.8 90.7,69.0 89.7,72.4 92.6,70.3 95.5,72.4 94.5,69.0 97.4,66.8 93.8,66.7" fill="#ff6b6b"/>
<polygon points="94.9,63.3 93.7,66.7 90.2,66.8 93.0,69.0 92.0,72.4 94.9,70.3 97.9,72.4 96.8,69.0 99.7,66.8 96.1,66.7" fill="#ff6b6b"/>
<polygon points="99.3,63.5 98.1,66.9 94.5,67.0 97.4,69.2 96.4,72.6 99.3,70.5 102.2,72.6 101.2,69.2 104.1,67.0 100.5,66.9" fill="#ff6b6b"/>
<polygon points="106.7,65.8 105.5,69.2 102.0,69.3 104.8,71.5 103.8,74.9 106.7,72.8 109.6,74.9 108.6,71.5 111.5,69.3 107.9,69.2" fill="#ff6b6b"/>
<polygon points="118.2,75.5 117.1,78.9 113.5,79.0 116.3,81.1 115.3,84.6 118.2,82.5 121.2,84.6 120.1,81.1 123.0,79.0 119.4,78.9" fill="#ff6b6b"/>
<polygon points="133.8,84.7 132.6,88.0 129.0,88.1 131.9,90.3 130.8,93.7 133.8,91.7 136.7,93.7 135.7,90.3 138.5,88.1 134.9,88.0" fill="#ff6b6b"/>
<polygon points="152.0,96.6 150.9,100.0 147.3,100.1 150.1,102.3 149.1,105.7 152.0,103.6 155.0,105.7 153.9,102.3 156.8,100.1 153.2,100.0" fill="#ff6b6b"/>
<polygon points="171.4,110.8 170.3,114.2 166.7,114.2 169.5,116.4 168.5,119.8 171.4,117.8 174.4,119.8 173.4,116.4 176.2,114.2 172.6,114.2" fill="#ff6b6b"/>
<polygon points="191.1,126.3 189.9,129.7 186.4,129.7 189.2,131.9 188.2,135.3 191.1,133.3 194.1,135.3 193.0,131.9 195.9,129.7 192.3,129.7" fill="#ff6b6b"/>
<polygon points="210.4,142.9 209.2,146.2 205.6,146.3 208.5,148.5 207.4,151.9 210.4,149.9 213.3,151.9 212.3,148.5 215.1,146.3 211.6,146.2" fill="#ff6b6b"/>
<polygon points="229.0,159.6 227.9,163.0 224.3,163.0 227.1,165.2 226.1,168.6 229.0,166.6 232.0,168.6 230.9,165.2 233.8,163.0 230.2,163.0" fill="#ff6b6b"/>
<polygon points="247.3,176.7 246.1,180.0 242.5,180.1 245.3,182.3 244.3,185.7 247.3,183.7 250.2,185.7 249.2,182.3 252.0,180.1 248.4,180.0" fill="#ff6b6b"/>
<polygon points="282.8,213.7 281.6,217.1 278.0,217.2 280.9,219.4 279.8,222.8 282.8,220.7 285.7,222.8 284.7,219.4 287.5,217.2 283.9,217.1" fill="#ff6b6b"/>
<polygon points="317.8,247.9 316.6,251.3 313.0,251.4 315.9,253.5 314.8,256.9 317.8,254.9 320.7,256.9 319.7,253.5 322.5,251.4 319.0,251.3" fill="#ff6b6b"/>
<polygon points="387.5,327.7 386.3,331.1 382.7,331.1 385.6,333.3 384.5,336.7 387.5,334.7 390.4,336.7 389.4,333.3 392.2,331.1 388.6,331.1" fill="#ff6b6b"/>
<polygon points="457.0,516.7 455.9,520.0 452.3,520.1 455.1,522.3 454.1,525.7 457.0,523.7 460.0,525.7 458.9,522.3 461.8,520.1 458.2,520.0" fill="#ff6b6b"/>
<polyline fill="none" stroke="#ff922b" stroke-width="2" points="240.0,119.0 259.9,133.1 278.6,145.9 296.9,156.5 314.6,164.4 332.2,169.4 349.7,172.3 367.0,173.7 401.7,174.8 419.1,174.9"/>
<circle cx="240.0" cy="119.0" r="3" fill="#ff922b"/>
<circle cx="259.9" cy="133.1" r="3" fill="#ff922b"/>
<circle cx="278.6" cy="145.9" r="3" fill="#ff922b"/>
<circle cx="296.9" cy="156.5" r="3" fill="#ff922b"/>
<circle cx="314.6" cy="164.4" r="3" fill="#ff922b"/>
<circle cx="332.2" cy="169.4" r="3" fill="#ff922b"/>
<circle cx="349.7" cy="172.3" r="3" fill="#ff922b"/>
<circle cx="367.0" cy="173.7" r="3" fill="#ff922b"/>
<circle cx="401.7" cy="174.8" r="3" fill="#ff922b"/>
<circle cx="419.1" cy="174.9" r="3" fill="#ff922b"/>
<polyline fill="none" stroke="#888888" stroke-width="2" stroke-dasharray="8,5" points="173.4,124.4 198.5,141.3 231.6,164.5 256.7,182.3 281.8,198.4 315.0,222.4 340.1,239.8 365.2,256.0 398.3,279.8 423.4,296.5"/>
<circle cx="173.4" cy="124.4" r="3" fill="#888888"/>
<circle cx="198.5" cy="141.3" r="3" fill="#888888"/>
<circle cx="231.6" cy="164.5" r="3" fill="#888888"/>
<circle cx="256.7" cy="182.3" r="3" fill="#888888"/>
<circle cx="281.8" cy="198.4" r="3" fill="#888888"/>
<circle cx="315.0" cy="222.4" r="3" fill="#888888"/>
<circle cx="340.1" cy="239.8" r="3" fill="#888888"/>
<circle cx="365.2" cy="256.0" r="3" fill="#888888"/>
<circle cx="398.3" cy="279.8" r="3" fill="#888888"/>
<circle cx="423.4" cy="296.5" r="3" fill="#888888"/>
<line x1="886" y1="60" x2="902" y2="60" stroke="#ef4444" stroke-width="2" stroke-dasharray="8,5"/>
<circle cx="894.0" cy="60.0" r="3" fill="#ef4444"/>
<text class="label" x="908" y="64">Theoretical</text>
<line x1="886" y1="78" x2="902" y2="78" stroke="#1a6b3c" stroke-width="2"/>
<polygon points="894.0,74.0 898.0,78.0 894.0,82.0 890.0,78.0" fill="#1a6b3c"/>
<text class="label" x="908" y="82">Grafite</text>
<line x1="886" y1="96" x2="902" y2="96" stroke="#1a3a6b" stroke-width="2"/>
<polygon points="894.0,91.0 892.8,94.4 889.2,94.5 892.1,96.6 891.1,100.0 894.0,98.0 896.9,100.0 895.9,96.6 898.8,94.5 895.2,94.4" fill="#1a3a6b"/>
<text class="label" x="908" y="100">SNARF</text>
<line x1="886" y1="114" x2="902" y2="114" stroke="#111111" stroke-width="2"/>
<rect x="891.0" y="111.0" width="6" height="6" fill="#111111"/>
<text class="label" x="908" y="118">SuRF</text>
<line x1="886" y1="132" x2="902" y2="132" stroke="#111111" stroke-width="2"/>
<polygon points="894.0,128.0 898.0,135.0 890.0,135.0" fill="#111111"/>
<text class="label" x="908" y="136">SuRFHash(8)</text>
<line x1="886" y1="150" x2="902" y2="150" stroke="#111111" stroke-width="2"/>
<polygon points="894.0,146.0 898.0,150.0 894.0,154.0 890.0,150.0" fill="#111111"/>
<text class="label" x="908" y="154">SuRFReal(8)</text>
<line x1="886" y1="168" x2="902" y2="168" stroke="#2a7fff" stroke-width="2"/>
<rect x="891.0" y="165.0" width="6" height="6" fill="#2a7fff"/>
<text class="label" x="908" y="172">Adaptive (t=0)</text>
<line x1="886" y1="186" x2="902" y2="186" stroke="#9b59b6" stroke-width="2"/>
<polygon points="894.0,182.0 898.0,189.0 890.0,189.0" fill="#9b59b6"/>
<text class="label" x="908" y="190">Truncation</text>
<line x1="886" y1="204" x2="902" y2="204" stroke="#4dd88a" stroke-width="2"/>
<polygon points="894.0,200.0 898.0,204.0 894.0,208.0 890.0,204.0" fill="#4dd88a"/>
<text class="label" x="908" y="208">SODA</text>
<line x1="886" y1="222" x2="902" y2="222" stroke="#ff6b6b" stroke-width="2"/>
<polygon points="894.0,217.0 892.8,220.4 889.2,220.5 892.1,222.6 891.1,226.0 894.0,224.0 896.9,226.0 895.9,222.6 898.8,220.5 895.2,220.4" fill="#ff6b6b"/>
<text class="label" x="908" y="226">Hybrid</text>
<line x1="886" y1="240" x2="902" y2="240" stroke="#ff922b" stroke-width="2"/>
<circle cx="894.0" cy="240.0" r="3" fill="#ff922b"/>
<text class="label" x="908" y="244">CDF-ARE</text>
<line x1="886" y1="258" x2="902" y2="258" stroke="#888888" stroke-width="2" stroke-dasharray="8,5"/>
<circle cx="894.0" cy="258.0" r="3" fill="#888888"/>
<text class="label" x="908" y="262">BloomARE</text>
<text x="480" y="590" text-anchor="middle">Bits per Key (BPK)</text>
<text transform="translate(16,295) rotate(-90)" text-anchor="middle">False Positive Rate (FPR)</text>
</svg>
