<svg xmlns="http://www.w3.org/2000/svg" width="1020" height="600" viewBox="0 0 1020 600">
<style>text{font-family:Menlo,Monaco,monospace;font-size:12px;fill:#222} .axis{stroke:#333;stroke-width:1} .grid{stroke:#eee;stroke-width:0.5} .label{font-size:11px;fill:#444}</style>
<text x="510" y="28" text-anchor="middle" style="font-size:14px;font-weight:bold">FPR vs BPK — clustered (60-bit keys, n=65536, L=16)</text>
<line class="axis" x1="90.0" y1="550.0" x2="870.0" y2="550.0"/>
<line class="axis" x1="90.0" y1="40.0" x2="90.0" y2="550.0"/>
<line class="grid" x1="90.0" y1="521.7" x2="870.0" y2="521.7"/>
<text class="label" x="82.0" y="525.7" text-anchor="end">10^-8</text>
<line class="grid" x1="90.0" y1="465.0" x2="870.0" y2="465.0"/>
<text class="label" x="82.0" y="469.0" text-anchor="end">10^-7</text>
<line class="grid" x1="90.0" y1="408.3" x2="870.0" y2="408.3"/>
<text class="label" x="82.0" y="412.3" text-anchor="end">10^-6</text>
<line class="grid" x1="90.0" y1="351.7" x2="870.0" y2="351.7"/>
<text class="label" x="82.0" y="355.7" text-anchor="end">10^-5</text>
<line class="grid" x1="90.0" y1="295.0" x2="870.0" y2="295.0"/>
<text class="label" x="82.0" y="299.0" text-anchor="end">10^-4</text>
<line class="grid" x1="90.0" y1="238.3" x2="870.0" y2="238.3"/>
<text class="label" x="82.0" y="242.3" text-anchor="end">10^-3</text>
<line class="grid" x1="90.0" y1="181.7" x2="870.0" y2="181.7"/>
<text class="label" x="82.0" y="185.7" text-anchor="end">10^-2</text>
<line class="grid" x1="90.0" y1="125.0" x2="870.0" y2="125.0"/>
<text class="label" x="82.0" y="129.0" text-anchor="end">10^-1</text>
<line class="grid" x1="90.0" y1="68.3" x2="870.0" y2="68.3"/>
<text class="label" x="82.0" y="72.3" text-anchor="end">1</text>
<line class="grid" x1="90.0" y1="40.0" x2="90.0" y2="550.0"/>
<text class="label" x="90.0" y="566.0" text-anchor="middle">0</text>
<line class="grid" x1="177.0" y1="40.0" x2="177.0" y2="550.0"/>
<text class="label" x="177.0" y="566.0" text-anchor="middle">5</text>
<line class="grid" x1="263.9" y1="40.0" x2="263.9" y2="550.0"/>
<text class="label" x="263.9" y="566.0" text-anchor="middle">10</text>
<line class="grid" x1="350.9" y1="40.0" x2="350.9" y2="550.0"/>
<text class="label" x="350.9" y="566.0" text-anchor="middle">15</text>
<line class="grid" x1="437.9" y1="40.0" x2="437.9" y2="550.0"/>
<text class="label" x="437.9" y="566.0" text-anchor="middle">20</text>
<line class="grid" x1="524.8" y1="40.0" x2="524.8" y2="550.0"/>
<text class="label" x="524.8" y="566.0" text-anchor="middle">25</text>
<line class="grid" x1="611.8" y1="40.0" x2="611.8" y2="550.0"/>
<text class="label" x="611.8" y="566.0" text-anchor="middle">30</text>
<line class="grid" x1="698.8" y1="40.0" x2="698.8" y2="550.0"/>
<text class="label" x="698.8" y="566.0" text-anchor="middle">35</text>
<line class="grid" x1="785.7" y1="40.0" x2="785.7" y2="550.0"/>
<text class="label" x="785.7" y="566.0" text-anchor="middle">40</text>
<polyline fill="none" stroke="#ef4444" stroke-width="2" stroke-dasharray="8,5" points="159.6,68.3 177.0,85.4 194.4,102.5 211.8,119.5 229.1,136.6 246.5,153.6 263.9,170.7 281.3,187.7 298.7,204.8 316.1,221.9 333.5,238.9 350.9,256.0 368.3,273.0 385.7,290.1 403.1,307.2 420.5,324.2 437.9,341.3 472.7,375.4 507.4,409.5 577.0,477.7 646.6,546.0"/>
<circle cx="159.6" cy="68.3" r="3" fill="#ef4444"/>
<circle cx="177.0" cy="85.4" r="3" fill="#ef4444"/>
<circle cx="194.4" cy="102.5" r="3" fill="#ef4444"/>
<circle cx="211.8" cy="119.5" r="3" fill="#ef4444"/>
<circle cx="229.1" cy="136.6" r="3" fill="#ef4444"/>
<circle cx="246.5" cy="153.6" r="3" fill="#ef4444"/>
<circle cx="263.9" cy="170.7" r="3" fill="#ef4444"/>
<circle cx="281.3" cy="187.7" r="3" fill="#ef4444"/>
<circle cx="298.7" cy="204.8" r="3" fill="#ef4444"/>
<circle cx="316.1" cy="221.9" r="3" fill="#ef4444"/>
<circle cx="333.5" cy="238.9" r="3" fill="#ef4444"/>
<circle cx="350.9" cy="256.0" r="3" fill="#ef4444"/>
<circle cx="368.3" cy="273.0" r="3" fill="#ef4444"/>
<circle cx="385.7" cy="290.1" r="3" fill="#ef4444"/>
<circle cx="403.1" cy="307.2" r="3" fill="#ef4444"/>
<circle cx="420.5" cy="324.2" r="3" fill="#ef4444"/>
<circle cx="437.9" cy="341.3" r="3" fill="#ef4444"/>
<circle cx="472.7" cy="375.4" r="3" fill="#ef4444"/>
<circle cx="507.4" cy="409.5" r="3" fill="#ef4444"/>
<circle cx="577.0" cy="477.7" r="3" fill="#ef4444"/>
<circle cx="646.6" cy="546.0" r="3" fill="#ef4444"/>
<polyline fill="none" stroke="#1a6b3c" stroke-width="2" points="164.7,68.8 203.3,79.7 239.8,105.8 275.3,136.6 310.3,172.4 345.2,208.1 380.0,242.4 420.2,287.7 455.0,331.1"/>
<polygon points="164.7,64.8 168.7,68.8 164.7,72.8 160.7,68.8" fill="#1a6b3c"/>
<polygon points="203.3,75.7 207.3,79.7 203.3,83.7 199.3,79.7" fill="#1a6b3c"/>
<polygon points="239.8,101.8 243.8,105.8 239.8,109.8 235.8,105.8" fill="#1a6b3c"/>
<polygon points="275.3,132.6 279.3,136.6 275.3,140.6 271.3,136.6" fill="#1a6b3c"/>
<polygon points="310.3,168.4 314.3,172.4 310.3,176.4 306.3,172.4" fill="#1a6b3c"/>
<polygon points="345.2,204.1 349.2,208.1 345.2,212.1 341.2,208.1" fill="#1a6b3c"/>
<polygon points="380.0,238.4 384.0,242.4 380.0,246.4 376.0,242.4" fill="#1a6b3c"/>
<polygon points="420.2,283.7 424.2,287.7 420.2,291.7 416.2,287.7" fill="#1a6b3c"/>
<polygon points="455.0,327.1 459.0,331.1 455.0,335.1 451.0,331.1" fill="#1a6b3c"/>
<polyline fill="none" stroke="#1a3a6b" stroke-width="2" points="148.8,73.5 183.4,75.1 218.3,75.6 253.3,75.7 287.9,75.7 322.6,75.7 357.5,75.7 392.5,75.7 427.1,75.7"/>
<polygon points="148.8,68.5 147.6,71.9 144.0,72.0 146.9,74.1 145.8,77.6 148.8,75.5 151.7,77.6 150.7,74.1 153.5,72.0 150.0,71.9" fill="#1a3a6b"/>
<polygon points="183.4,70.1 182.2,73.4 178.7,73.5 181.5,75.7 180.5,79.1 183.4,77.1 186.4,79.1 185.3,75.7 188.2,73.5 184.6,73.4" fill="#1a3a6b"/>
<polygon points="218.3,70.6 217.2,73.9 213.6,74.0 216.4,76.2 215.4,79.6 218.3,77.6 221.3,79.6 220.2,76.2 223.1,74.0 219.5,73.9" fill="#1a3a6b"/>
<polygon points="253.3,70.7 252.1,74.1 248.6,74.2 251.4,76.3 250.4,79.7 253.3,77.7 256.3,79.7 255.2,76.3 258.1,74.2 254.5,74.1" fill="#1a3a6b"/>
<polygon points="287.9,70.7 286.8,74.1 283.2,74.2 286.0,76.3 285.0,79.8 287.9,77.7 290.9,79.8 289.8,76.3 292.7,74.2 289.1,74.1" fill="#1a3a6b"/>
<polygon points="322.6,70.7 321.4,74.1 317.8,74.2 320.7,76.4 319.6,79.8 322.6,77.7 325.5,79.8 324.5,76.4 327.3,74.2 323.7,74.1" fill="#1a3a6b"/>
<polygon points="357.5,70.7 356.3,74.1 352.7,74.2 355.6,76.4 354.6,79.8 357.5,77.7 360.4,79.8 359.4,76.4 362.2,74.2 358.7,74.1" fill="#1a3a6b"/>
<polygon points="392.5,70.7 391.3,74.1 387.7,74.2 390.6,76.4 389.5,79.8 392.5,77.7 395.4,79.8 394.4,76.4 397.2,74.2 393.6,74.1" fill="#1a3a6b"/>
<polygon points="427.1,70.7 425.9,74.1 422.3,74.2 425.2,76.4 424.1,79.8 427.1,77.7 430.0,79.8 429.0,76.4 431.8,74.2 428.3,74.1" fill="#1a3a6b"/>
<polyline fill="none" stroke="#111111" stroke-width="2" points="307.3,103.0"/>
<rect x="304.3" y="100.0" width="6" height="6" fill="#111111"/>
<polyline fill="none" stroke="#111111" stroke-width="2" points="832.9,103.0"/>
<polygon points="832.9,99.0 836.9,106.0 828.9,106.0" fill="#111111"/>
<polyline fill="none" stroke="#111111" stroke-width="2" points="832.9,246.7"/>
<polygon points="832.9,242.7 836.9,246.7 832.9,250.7 828.9,246.7" fill="#111111"/>
<polyline fill="none" stroke="#2a7fff" stroke-width="2" points="90.0,68.3 90.0,68.3 90.1,68.3 90.1,68.3 90.2,68.3 90.4,68.3 90.8,68.3 91.6,68.3 93.3,68.3 96.5,68.3 102.9,68.3 113.7,68.3 129.4,68.3 148.4,68.3 168.9,68.8 189.1,71.9 208.6,79.7 245.4,106.1 281.0,138.5 350.9,207.1 420.5,280.7"/>
<rect x="87.0" y="65.3" width="6" height="6" fill="#2a7fff"/>
<rect x="87.0" y="65.3" width="6" height="6" fill="#2a7fff"/>
<rect x="87.1" y="65.3" width="6" height="6" fill="#2a7fff"/>
<rect x="87.1" y="65.3" width="6" height="6" fill="#2a7fff"/>
<rect x="87.2" y="65.3" width="6" height="6" fill="#2a7fff"/>
<rect x="87.4" y="65.3" width="6" height="6" fill="#2a7fff"/>
<rect x="87.8" y="65.3" width="6" height="6" fill="#2a7fff"/>
<rect x="88.6" y="65.3" width="6" height="6" fill="#2a7fff"/>
<rect x="90.3" y="65.3" width="6" height="6" fill="#2a7fff"/>
<rect x="93.5" y="65.3" width="6" height="6" fill="#2a7fff"/>
<rect x="99.9" y="65.3" width="6" height="6" fill="#2a7fff"/>
<rect x="110.7" y="65.3" width="6" height="6" fill="#2a7fff"/>
<rect x="126.4" y="65.3" width="6" height="6" fill="#2a7fff"/>
<rect x="145.4" y="65.3" width="6" height="6" fill="#2a7fff"/>
<rect x="165.9" y="65.8" width="6" height="6" fill="#2a7fff"/>
<rect x="186.1" y="68.9" width="6" height="6" fill="#2a7fff"/>
<rect x="205.6" y="76.7" width="6" height="6" fill="#2a7fff"/>
<rect x="242.4" y="103.1" width="6" height="6" fill="#2a7fff"/>
<rect x="278.0" y="135.5" width="6" height="6" fill="#2a7fff"/>
<rect x="347.9" y="204.1" width="6" height="6" fill="#2a7fff"/>
<rect x="417.5" y="277.7" width="6" height="6" fill="#2a7fff"/>
<polyline fill="none" stroke="#9b59b6" stroke-width="2" points="90.0,68.3 90.0,68.3 90.1,68.3 90.1,68.3 90.2,68.3 90.4,68.3 90.8,68.3 91.6,68.4 93.1,68.7 95.2,69.5 98.1,70.5 101.1,71.2 104.1,71.8 107.0,72.0 109.7,72.2 112.5,72.3 115.1,72.3 120.4,72.3 125.7,72.4 136.1,72.4 146.6,72.4"/>
<polygon points="90.0,64.3 94.0,71.3 86.0,71.3" fill="#9b59b6"/>
<polygon points="90.0,64.3 94.0,71.3 86.0,71.3" fill="#9b59b6"/>
<polygon points="90.1,64.3 94.1,71.3 86.1,71.3" fill="#9b59b6"/>
<polygon points="90.1,64.3 94.1,71.3 86.1,71.3" fill="#9b59b6"/>
<polygon points="90.2,64.3 94.2,71.3 86.2,71.3" fill="#9b59b6"/>
<polygon points="90.4,64.3 94.4,71.3 86.4,71.3" fill="#9b59b6"/>
<polygon points="90.8,64.3 94.8,71.3 86.8,71.3" fill="#9b59b6"/>
<polygon points="91.6,64.4 95.6,71.4 87.6,71.4" fill="#9b59b6"/>
<polygon points="93.1,64.7 97.1,71.7 89.1,71.7" fill="#9b59b6"/>
<polygon points="95.2,65.5 99.2,72.5 91.2,72.5" fill="#9b59b6"/>
<polygon points="98.1,66.5 102.1,73.5 94.1,73.5" fill="#9b59b6"/>
<polygon points="101.1,67.2 105.1,74.2 97.1,74.2" fill="#9b59b6"/>
<polygon points="104.1,67.8 108.1,74.8 100.1,74.8" fill="#9b59b6"/>
<polygon points="107.0,68.0 111.0,75.0 103.0,75.0" fill="#9b59b6"/>
<polygon points="109.7,68.2 113.7,75.2 105.7,75.2" fill="#9b59b6"/>
<polygon points="112.5,68.3 116.5,75.3 108.5,75.3" fill="#9b59b6"/>
<polygon points="115.1,68.3 119.1,75.3 111.1,75.3" fill="#9b59b6"/>
<polygon points="120.4,68.3 124.4,75.3 116.4,75.3" fill="#9b59b6"/>
<polygon points="125.7,68.4 129.7,75.4 121.7,75.4" fill="#9b59b6"/>
<polygon points="136.1,68.4 140.1,75.4 132.1,75.4" fill="#9b59b6"/>
<polygon points="146.6,68.4 150.6,75.4 142.6,75.4" fill="#9b59b6"/>
<polyline fill="none" stroke="#4dd88a" stroke-width="2" points="90.0,68.3 90.0,68.3 90.1,68.3 90.1,68.3 90.2,68.3 90.4,68.3 90.8,68.3 91.6,68.3 93.3,68.3 96.5,68.3 102.9,68.3 113.7,68.3 129.4,68.3 148.4,68.3 168.9,68.8 189.1,71.9 208.6,79.7 245.4,106.1 281.0,138.5 350.9,207.1 420.5,280.7"/>
<polygon points="90.0,64.3 94.0,68.3 90.0,72.3 86.0,68.3" fill="#4dd88a"/>
<polygon points="90.0,64.3 94.0,68.3 90.0,72.3 86.0,68.3" fill="#4dd88a"/>
<polygon points="90.1,64.3 94.1,68.3 90.1,72.3 86.1,68.3" fill="#4dd88a"/>
<polygon points="90.1,64.3 94.1,68.3 90.1,72.3 86.1,68.3" fill="#4dd88a"/>
<polygon points="90.2,64.3 94.2,68.3 90.2,72.3 86.2,68.3" fill="#4dd88a"/>
<polygon points="90.4,64.3 94.4,68.3 90.4,72.3 86.4,68.3" fill="#4dd88a"/>
<polygon points="90.8,64.3 94.8,68.3 90.8,72.3 86.8,68.3" fill="#4dd88a"/>
<polygon points="91.6,64.3 95.6,68.3 91.6,72.3 87.6,68.3" fill="#4dd88a"/>
<polygon points="93.3,64.3 97.3,68.3 93.3,72.3 89.3,68.3" fill="#4dd88a"/>
<polygon points="96.5,64.3 100.5,68.3 96.5,72.3 92.5,68.3" fill="#4dd88a"/>
<polygon points="102.9,64.3 106.9,68.3 102.9,72.3 98.9,68.3" fill="#4dd88a"/>
<polygon points="113.7,64.3 117.7,68.3 113.7,72.3 109.7,68.3" fill="#4dd88a"/>
<polygon points="129.4,64.3 133.4,68.3 129.4,72.3 125.4,68.3" fill="#4dd88a"/>
<polygon points="148.4,64.3 152.4,68.3 148.4,72.3 144.4,68.3" fill="#4dd88a"/>
<polygon points="168.9,64.8 172.9,68.8 168.9,72.8 164.9,68.8" fill="#4dd88a"/>
<polygon points="189.1,67.9 193.1,71.9 189.1,75.9 185.1,71.9" fill="#4dd88a"/>
<polygon points="208.6,75.7 212.6,79.7 208.6,83.7 204.6,79.7" fill="#4dd88a"/>
<polygon points="245.4,102.1 249.4,106.1 245.4,110.1 241.4,106.1" fill="#4dd88a"/>
<polygon points="281.0,134.5 285.0,138.5 281.0,142.5 277.0,138.5" fill="#4dd88a"/>
<polygon points="350.9,203.1 354.9,207.1 350.9,211.1 346.9,207.1" fill="#4dd88a"/>
<polygon points="420.5,276.7 424.5,280.7 420.5,284.7 416.5,280.7" fill="#4dd88a"/>
<polyline fill="none" stroke="#ff6b6b" stroke-width="2" points="90.2,68.3 90.3,68.3 90.5,68.3 90.8,68.3 91.4,68.3 92.6,68.3 94.9,68.3 99.3,68.4 106.7,68.7 118.2,69.7 133.8,71.6 152.0,74.2 171.4,78.2 191.1,84.6 210.4,93.7 229.0,105.7 247.3,120.1 282.8,154.6 317.8,188.7 387.5,266.2 457.0,521.7"/>
<polygon points="90.2,63.3 89.1,66.7 85.5,66.8 88.3,69.0 87.3,72.4 90.2,70.3 93.2,72.4 92.1,69.0 95.0,66.8 91.4,66.7" fill="#ff6b6b"/>
<polygon points="90.3,63.3 89.1,66.7 85.6,66.8 88.4,69.0 87.4,72.4 90.3,70.3 93.3,72.4 92.2,69.0 95.1,66.8 91.5,66.7" fill="#ff6b6b"/>
<polygon points="90.5,63.3 89.3,66.7 85.7,66.8 88.6,69.0 87.5,72.4 90.5,70.3 93.4,72.4 92.4,69.0 95.2,66.8 91.7,66.7" fill="#ff6b6b"/>
<polygon points="90.8,63.3 89.6,66.7 86.0,66.8 88.9,69.0 87.8,72.4 90.8,70.3 93.7,72.4 92.7,69.0 95.5,66.8 92.0,66.7" fill="#ff6b6b"/>
<polygon points="91.4,63.3 90.2,66.7 86.6,66.8 89.5,69.0 88.5,72.4 91.4,70.3 94.3,72.4 93.3,69.0 96.1,66.8 92.6,66.7" fill="#ff6b6b"/>
<polygon points="92.6,63.3 91.4,66.7 87.8,66.8 90.7,69.0 89.7,72.4 92.6,70.3 95.5,72.4 94.5,69.0 97.4,66.8 93.8,66.7" fill="#ff6b6b"/>
<polygon points="94.9,63.3 93.7,66.7 90.2,66.8 93.0,69.0 92.0,72.4 94.9,70.3 97.9,72.4 96.8,69.0 99.7,66.8 96.1,66.7" fill="#ff6b6b"/>
<polygon points="99.3,63.4 98.1,66.7 94.5,66.8 97.4,69.0 96.4,72.4 99.3,70.4 102.2,72.4 101.2,69.0 104.1,66.8 100.5,66.7" fill="#ff6b6b"/>
<polygon points="106.7,63.7 105.5,67.1 102.0,67.1 104.8,69.3 103.8,72.7 106.7,70.7 109.6,72.7 108.6,69.3 111.5,67.1 107.9,67.1" fill="#ff6b6b"/>
<polygon points="118.2,64.7 117.1,68.1 113.5,68.2 116.3,70.4 115.3,73.8 118.2,71.7 121.2,73.8 120.1,70.4 123.0,68.2 119.4,68.1" fill="#ff6b6b"/>
<polygon points="133.8,66.6 132.6,70.0 129.0,70.0 131.9,72.2 130.8,75.6 133.8,73.6 136.7,75.6 135.7,72.2 138.5,70.0 134.9,70.0" fill="#ff6b6b"/>
<polygon points="152.0,69.2 150.9,72.6 147.3,72.7 150.1,74.8 149.1,78.3 152.0,76.2 155.0,78.3 153.9,74.8 156.8,72.7 153.2,72.6" fill="#ff6b6b"/>
<polygon points="171.4,73.2 170.3,76.6 166.7,76.7 169.5,78.8 168.5,82.3 171.4,80.2 174.4,82.3 173.4,78.8 176.2,76.7 172.6,76.6" fill="#ff6b6b"/>
<polygon points="191.1,79.6 189.9,83.0 186.4,83.1 189.2,85.3 188.2,88.7 191.1,86.6 194.1,88.7 193.0,85.3 195.9,83.1 192.3,83.0" fill="#ff6b6b"/>
<polygon points="210.4,88.7 209.2,92.1 205.6,92.2 208.5,94.3 207.4,97.7 210.4,95.7 213.3,97.7 212.3,94.3 215.1,92.2 211.6,92.1" fill="#ff6b6b"/>
<polygon points="229.0,100.7 227.9,104.1 224.3,104.2 227.1,106.3 226.1,109.8 229.0,107.7 232.0,109.8 230.9,106.3 233.8,104.2 230.2,104.1" fill="#ff6b6b"/>
<polygon points="247.3,115.1 246.1,118.5 242.5,118.6 245.3,120.7 244.3,124.2 247.3,122.1 250.2,124.2 249.2,120.7 252.0,118.6 248.4,118.5" fill="#ff6b6b"/>
<polygon points="282.8,149.6 281.6,152.9 278.0,153.0 280.9,155.2 279.8,158.6 282.8,156.6 285.7,158.6 284.7,155.2 287.5,153.0 283.9,152.9" fill="#ff6b6b"/>
<polygon points="317.8,183.7 316.6,187.1 313.0,187.2 315.9,189.3 314.8,192.7 317.8,190.7 320.7,192.7 319.7,189.3 322.5,187.2 319.0,187.1" fill="#ff6b6b"/>
<polygon points="387.5,261.2 386.3,264.6 382.7,264.6 385.6,266.8 384.5,270.2 387.5,268.2 390.4,270.2 389.4,266.8 392.2,264.6 388.6,264.6" fill="#ff6b6b"/>
<polygon points="457.0,516.7 455.9,520.0 452.3,520.1 455.1,522.3 454.1,525.7 457.0,523.7 460.0,525.7 458.9,522.3 461.8,520.1 458.2,520.0" fill="#ff6b6b"/>
<polyline fill="none" stroke="#ff922b" stroke-width="2" points="240.0,119.0 259.9,133.2 278.6,145.9 296.9,156.5 314.6,164.3 332.2,169.3 349.7,172.2 367.0,173.6 401.7,174.7 419.1,174.8"/>
<circle cx="240.0" cy="119.0" r="3" fill="#ff922b"/>
<circle cx="259.9" cy="133.2" r="3" fill="#ff922b"/>
<circle cx="278.6" cy="145.9" r="3" fill="#ff922b"/>
<circle cx="296.9" cy="156.5" r="3" fill="#ff922b"/>
<circle cx="314.6" cy="164.3" r="3" fill="#ff922b"/>
<circle cx="332.2" cy="169.3" r="3" fill="#ff922b"/>
<circle cx="349.7" cy="172.2" r="3" fill="#ff922b"/>
<circle cx="367.0" cy="173.6" r="3" fill="#ff922b"/>
<circle cx="401.7" cy="174.7" r="3" fill="#ff922b"/>
<circle cx="419.1" cy="174.8" r="3" fill="#ff922b"/>
<polyline fill="none" stroke="#888888" stroke-width="2" stroke-dasharray="8,5" points="272.0,124.7 298.0,141.5 331.7,164.7 356.9,181.1 382.1,199.0 415.3,221.6 440.4,238.4 465.5,254.6 498.7,276.0 523.8,292.7"/>
<circle cx="272.0" cy="124.7" r="3" fill="#888888"/>
<circle cx="298.0" cy="141.5" r="3" fill="#888888"/>
<circle cx="331.7" cy="164.7" r="3" fill="#888888"/>
<circle cx="356.9" cy="181.1" r="3" fill="#888888"/>
<circle cx="382.1" cy="199.0" r="3" fill="#888888"/>
<circle cx="415.3" cy="221.6" r="3" fill="#888888"/>
<circle cx="440.4" cy="238.4" r="3" fill="#888888"/>
<circle cx="465.5" cy="254.6" r="3" fill="#888888"/>
<circle cx="498.7" cy="276.0" r="3" fill="#888888"/>
<circle cx="523.8" cy="292.7" r="3" fill="#888888"/>
<line x1="886" y1="60" x2="902" y2="60" stroke="#ef4444" stroke-width="2" stroke-dasharray="8,5"/>
<circle cx="894.0" cy="60.0" r="3" fill="#ef4444"/>
<text class="label" x="908" y="64">Theoretical</text>
<line x1="886" y1="78" x2="902" y2="78" stroke="#1a6b3c" stroke-width="2"/>
<polygon points="894.0,74.0 898.0,78.0 894.0,82.0 890.0,78.0" fill="#1a6b3c"/>
<text class="label" x="908" y="82">Grafite</text>
<line x1="886" y1="96" x2="902" y2="96" stroke="#1a3a6b" stroke-width="2"/>
<polygon points="894.0,91.0 892.8,94.4 889.2,94.5 892.1,96.6 891.1,100.0 894.0,98.0 896.9,100.0 895.9,96.6 898.8,94.5 895.2,94.4" fill="#1a3a6b"/>
<text class="label" x="908" y="100">SNARF</text>
<line x1="886" y1="114" x2="902" y2="114" stroke="#111111" stroke-width="2"/>
<rect x="891.0" y="111.0" width="6" height="6" fill="#111111"/>
<text class="label" x="908" y="118">SuRF</text>
<line x1="886" y1="132" x2="902" y2="132" stroke="#111111" stroke-width="2"/>
<polygon points="894.0,128.0 898.0,135.0 890.0,135.0" fill="#111111"/>
<text class="label" x="908" y="136">SuRFHash(8)</text>
<line x1="886" y1="150" x2="902" y2="150" stroke="#111111" stroke-width="2"/>
<polygon points="894.0,146.0 898.0,150.0 894.0,154.0 890.0,150.0" fill="#111111"/>
<text class="label" x="908" y="154">SuRFReal(8)</text>
<line x1="886" y1="168" x2="902" y2="168" stroke="#2a7fff" stroke-width="2"/>
<rect x="891.0" y="165.0" width="6" height="6" fill="#2a7fff"/>
<text class="label" x="908" y="172">Adaptive (t=0)</text>
<line x1="886" y1="186" x2="902" y2="186" stroke="#9b59b6" stroke-width="2"/>
<polygon points="894.0,182.0 898.0,189.0 890.0,189.0" fill="#9b59b6"/>
<text class="label" x="908" y="190">Truncation</text>
<line x1="886" y1="204" x2="902" y2="204" stroke="#4dd88a" stroke-width="2"/>
<polygon points="894.0,200.0 898.0,204.0 894.0,208.0 890.0,204.0" fill="#4dd88a"/>
<text class="label" x="908" y="208">SODA</text>
<line x1="886" y1="222" x2="902" y2="222" stroke="#ff6b6b" stroke-width="2"/>
<polygon points="894.0,217.0 892.8,220.4 889.2,220.5 892.1,222.6 891.1,226.0 894.0,224.0 896.9,226.0 895.9,222.6 898.8,220.5 895.2,220.4" fill="#ff6b6b"/>
<text class="label" x="908" y="226">Hybrid</text>
<line x1="886" y1="240" x2="902" y2="240" stroke="#ff922b" stroke-width="2"/>
<circle cx="894.0" cy="240.0" r="3" fill="#ff922b"/>
<text class="label" x="908" y="244">CDF-ARE</text>
<line x1="886" y1="258" x2="902" y2="258" stroke="#888888" stroke-width="2" stroke-dasharray="8,5"/>
<circle cx="894.0" cy="258.0" r="3" fill="#888888"/>
<text class="label" x="908" y="262">BloomARE</text>
<text x="480" y="590" text-anchor="middle">Bits per Key (BPK)</text>
<text transform="translate(16,295) rotate(-90)" text-anchor="middle">False Positive Rate (FPR)</text>
</svg>
