<svg xmlns="http://www.w3.org/2000/svg" width="1020" height="600" viewBox="0 0 1020 600">
<style>text{font-family:Menlo,Monaco,monospace;font-size:12px;fill:#222} .axis{stroke:#333;stroke-width:1} .grid{stroke:#eee;stroke-width:0.5} .label{font-size:11px;fill:#444}</style>
<text x="510" y="28" text-anchor="middle" style="font-size:14px;font-weight:bold">FPR vs BPK — sosd_osm (60-bit keys, n=1048576, L=16)</text>
<line class="axis" x1="90.0" y1="550.0" x2="870.0" y2="550.0"/>
<line class="axis" x1="90.0" y1="40.0" x2="90.0" y2="550.0"/>
<line class="grid" x1="90.0" y1="524.5" x2="870.0" y2="524.5"/>
<text class="label" x="82.0" y="528.5" text-anchor="end">10^-9</text>
<line class="grid" x1="90.0" y1="473.5" x2="870.0" y2="473.5"/>
<text class="label" x="82.0" y="477.5" text-anchor="end">10^-8</text>
<line class="grid" x1="90.0" y1="422.5" x2="870.0" y2="422.5"/>
<text class="label" x="82.0" y="426.5" text-anchor="end">10^-7</text>
<line class="grid" x1="90.0" y1="371.5" x2="870.0" y2="371.5"/>
<text class="label" x="82.0" y="375.5" text-anchor="end">10^-6</text>
<line class="grid" x1="90.0" y1="320.5" x2="870.0" y2="320.5"/>
<text class="label" x="82.0" y="324.5" text-anchor="end">10^-5</text>
<line class="grid" x1="90.0" y1="269.5" x2="870.0" y2="269.5"/>
<text class="label" x="82.0" y="273.5" text-anchor="end">10^-4</text>
<line class="grid" x1="90.0" y1="218.5" x2="870.0" y2="218.5"/>
<text class="label" x="82.0" y="222.5" text-anchor="end">10^-3</text>
<line class="grid" x1="90.0" y1="167.5" x2="870.0" y2="167.5"/>
<text class="label" x="82.0" y="171.5" text-anchor="end">10^-2</text>
<line class="grid" x1="90.0" y1="116.5" x2="870.0" y2="116.5"/>
<text class="label" x="82.0" y="120.5" text-anchor="end">10^-1</text>
<line class="grid" x1="90.0" y1="65.5" x2="870.0" y2="65.5"/>
<text class="label" x="82.0" y="69.5" text-anchor="end">1</text>
<line class="grid" x1="90.0" y1="40.0" x2="90.0" y2="550.0"/>
<text class="label" x="90.0" y="566.0" text-anchor="middle">0</text>
<line class="grid" x1="206.1" y1="40.0" x2="206.1" y2="550.0"/>
<text class="label" x="206.1" y="566.0" text-anchor="middle">5</text>
<line class="grid" x1="322.1" y1="40.0" x2="322.1" y2="550.0"/>
<text class="label" x="322.1" y="566.0" text-anchor="middle">10</text>
<line class="grid" x1="438.2" y1="40.0" x2="438.2" y2="550.0"/>
<text class="label" x="438.2" y="566.0" text-anchor="middle">15</text>
<line class="grid" x1="554.3" y1="40.0" x2="554.3" y2="550.0"/>
<text class="label" x="554.3" y="566.0" text-anchor="middle">20</text>
<line class="grid" x1="670.4" y1="40.0" x2="670.4" y2="550.0"/>
<text class="label" x="670.4" y="566.0" text-anchor="middle">25</text>
<line class="grid" x1="786.4" y1="40.0" x2="786.4" y2="550.0"/>
<text class="label" x="786.4" y="566.0" text-anchor="middle">30</text>
<polyline fill="none" stroke="#ef4444" stroke-width="2" stroke-dasharray="8,5" points="182.9,65.5 206.1,80.9 229.3,96.2 252.5,111.6 275.7,126.9 298.9,142.3 322.1,157.6 345.4,173.0 368.6,188.3 391.8,203.7 415.0,219.0 438.2,234.4 461.4,249.7 484.6,265.1 507.9,280.4 531.1,295.8 554.3,311.1 600.7,341.8 647.1,372.6 740.0,434.0 832.9,495.4"/>
<circle cx="182.9" cy="65.5" r="3" fill="#ef4444"/>
<circle cx="206.1" cy="80.9" r="3" fill="#ef4444"/>
<circle cx="229.3" cy="96.2" r="3" fill="#ef4444"/>
<circle cx="252.5" cy="111.6" r="3" fill="#ef4444"/>
<circle cx="275.7" cy="126.9" r="3" fill="#ef4444"/>
<circle cx="298.9" cy="142.3" r="3" fill="#ef4444"/>
<circle cx="322.1" cy="157.6" r="3" fill="#ef4444"/>
<circle cx="345.4" cy="173.0" r="3" fill="#ef4444"/>
<circle cx="368.6" cy="188.3" r="3" fill="#ef4444"/>
<circle cx="391.8" cy="203.7" r="3" fill="#ef4444"/>
<circle cx="415.0" cy="219.0" r="3" fill="#ef4444"/>
<circle cx="438.2" cy="234.4" r="3" fill="#ef4444"/>
<circle cx="461.4" cy="249.7" r="3" fill="#ef4444"/>
<circle cx="484.6" cy="265.1" r="3" fill="#ef4444"/>
<circle cx="507.9" cy="280.4" r="3" fill="#ef4444"/>
<circle cx="531.1" cy="295.8" r="3" fill="#ef4444"/>
<circle cx="554.3" cy="311.1" r="3" fill="#ef4444"/>
<circle cx="600.7" cy="341.8" r="3" fill="#ef4444"/>
<circle cx="647.1" cy="372.6" r="3" fill="#ef4444"/>
<circle cx="740.0" cy="434.0" r="3" fill="#ef4444"/>
<circle cx="832.9" cy="495.4" r="3" fill="#ef4444"/>
<polyline fill="none" stroke="#1a6b3c" stroke-width="2" points="188.6,65.9 236.5,75.7 287.7,98.9 335.9,127.6 382.9,157.7 429.5,188.3 476.0,219.9 522.4,250.1 568.9,281.4"/>
<polygon points="188.6,61.9 192.6,65.9 188.6,69.9 184.6,65.9" fill="#1a6b3c"/>
<polygon points="236.5,71.7 240.5,75.7 236.5,79.7 232.5,75.7" fill="#1a6b3c"/>
<polygon points="287.7,94.9 291.7,98.9 287.7,102.9 283.7,98.9" fill="#1a6b3c"/>
<polygon points="335.9,123.6 339.9,127.6 335.9,131.6 331.9,127.6" fill="#1a6b3c"/>
<polygon points="382.9,153.7 386.9,157.7 382.9,161.7 378.9,157.7" fill="#1a6b3c"/>
<polygon points="429.5,184.3 433.5,188.3 429.5,192.3 425.5,188.3" fill="#1a6b3c"/>
<polygon points="476.0,215.9 480.0,219.9 476.0,223.9 472.0,219.9" fill="#1a6b3c"/>
<polygon points="522.4,246.1 526.4,250.1 522.4,254.1 518.4,250.1" fill="#1a6b3c"/>
<polygon points="568.9,277.4 572.9,281.4 568.9,285.4 564.9,281.4" fill="#1a6b3c"/>
<polyline fill="none" stroke="#1a3a6b" stroke-width="2" points="168.2,125.3 214.4,144.7 261.1,166.4 307.7,189.8 353.9,214.5 400.2,240.5 446.8,267.3 493.5,293.2 539.7,320.1"/>
<polygon points="168.2,120.3 167.0,123.7 163.5,123.8 166.3,125.9 165.3,129.4 168.2,127.3 171.2,129.4 170.1,125.9 173.0,123.8 169.4,123.7" fill="#1a3a6b"/>
<polygon points="214.4,139.7 213.3,143.1 209.7,143.1 212.5,145.3 211.5,148.7 214.4,146.7 217.4,148.7 216.3,145.3 219.2,143.1 215.6,143.1" fill="#1a3a6b"/>
<polygon points="261.1,161.4 259.9,164.8 256.3,164.9 259.2,167.0 258.2,170.4 261.1,168.4 264.0,170.4 263.0,167.0 265.9,164.9 262.3,164.8" fill="#1a3a6b"/>
<polygon points="307.7,184.8 306.6,188.2 303.0,188.2 305.8,190.4 304.8,193.8 307.7,191.8 310.7,193.8 309.6,190.4 312.5,188.2 308.9,188.2" fill="#1a3a6b"/>
<polygon points="353.9,209.5 352.8,212.8 349.2,212.9 352.0,215.1 351.0,218.5 353.9,216.5 356.9,218.5 355.8,215.1 358.7,212.9 355.1,212.8" fill="#1a3a6b"/>
<polygon points="400.2,235.5 399.0,238.9 395.4,239.0 398.3,241.1 397.2,244.6 400.2,242.5 403.1,244.6 402.1,241.1 404.9,239.0 401.3,238.9" fill="#1a3a6b"/>
<polygon points="446.8,262.3 445.6,265.6 442.1,265.7 444.9,267.9 443.9,271.3 446.8,269.3 449.8,271.3 448.7,267.9 451.6,265.7 448.0,265.6" fill="#1a3a6b"/>
<polygon points="493.5,288.2 492.3,291.6 488.7,291.6 491.6,293.8 490.5,297.2 493.5,295.2 496.4,297.2 495.4,293.8 498.2,291.6 494.6,291.6" fill="#1a3a6b"/>
<polygon points="539.7,315.1 538.5,318.5 534.9,318.6 537.8,320.7 536.7,324.2 539.7,322.1 542.6,324.2 541.6,320.7 544.4,318.6 540.8,318.5" fill="#1a3a6b"/>
<polyline fill="none" stroke="#111111" stroke-width="2" points="402.2,106.1"/>
<rect x="399.2" y="103.1" width="6" height="6" fill="#111111"/>
<polyline fill="none" stroke="#111111" stroke-width="2" points="587.9,106.1"/>
<polygon points="587.9,102.1 591.9,109.1 583.9,109.1" fill="#111111"/>
<polyline fill="none" stroke="#111111" stroke-width="2" points="587.9,228.0"/>
<polygon points="587.9,224.0 591.9,228.0 587.9,232.0 583.9,228.0" fill="#111111"/>
<polyline fill="none" stroke="#2a7fff" stroke-width="2" points="90.0,65.5 90.0,65.5 90.0,65.5 90.0,65.5 90.0,65.5 90.0,65.5 90.0,65.5 90.1,65.5 90.2,65.5 90.4,65.5 90.7,65.5 91.5,65.5 92.9,65.5 95.8,65.5 101.6,65.5 112.9,65.5 131.7,65.5 186.3,65.9 244.2,75.7 344.5,127.7 438.1,189.2"/>
<rect x="87.0" y="62.5" width="6" height="6" fill="#2a7fff"/>
<rect x="87.0" y="62.5" width="6" height="6" fill="#2a7fff"/>
<rect x="87.0" y="62.5" width="6" height="6" fill="#2a7fff"/>
<rect x="87.0" y="62.5" width="6" height="6" fill="#2a7fff"/>
<rect x="87.0" y="62.5" width="6" height="6" fill="#2a7fff"/>
<rect x="87.0" y="62.5" width="6" height="6" fill="#2a7fff"/>
<rect x="87.0" y="62.5" width="6" height="6" fill="#2a7fff"/>
<rect x="87.1" y="62.5" width="6" height="6" fill="#2a7fff"/>
<rect x="87.2" y="62.5" width="6" height="6" fill="#2a7fff"/>
<rect x="87.4" y="62.5" width="6" height="6" fill="#2a7fff"/>
<rect x="87.7" y="62.5" width="6" height="6" fill="#2a7fff"/>
<rect x="88.5" y="62.5" width="6" height="6" fill="#2a7fff"/>
<rect x="89.9" y="62.5" width="6" height="6" fill="#2a7fff"/>
<rect x="92.8" y="62.5" width="6" height="6" fill="#2a7fff"/>
<rect x="98.6" y="62.5" width="6" height="6" fill="#2a7fff"/>
<rect x="109.9" y="62.5" width="6" height="6" fill="#2a7fff"/>
<rect x="128.7" y="62.5" width="6" height="6" fill="#2a7fff"/>
<rect x="183.3" y="62.9" width="6" height="6" fill="#2a7fff"/>
<rect x="241.2" y="72.7" width="6" height="6" fill="#2a7fff"/>
<rect x="341.5" y="124.7" width="6" height="6" fill="#2a7fff"/>
<rect x="435.1" y="186.2" width="6" height="6" fill="#2a7fff"/>
<polyline fill="none" stroke="#9b59b6" stroke-width="2" points="90.0,65.5 90.0,65.5 90.0,66.9 90.0,70.0 90.0,73.3 90.0,76.1 90.0,78.3 90.1,79.7 90.1,80.9 90.2,82.0 90.4,83.6 90.8,85.6 91.4,88.7 92.4,93.3 94.1,98.3 96.7,104.1 100.8,110.3 114.6,125.9 145.7,141.1 270.9,182.7 412.9,236.9"/>
<polygon points="90.0,61.5 94.0,68.5 86.0,68.5" fill="#9b59b6"/>
<polygon points="90.0,61.5 94.0,68.5 86.0,68.5" fill="#9b59b6"/>
<polygon points="90.0,62.9 94.0,69.9 86.0,69.9" fill="#9b59b6"/>
<polygon points="90.0,66.0 94.0,73.0 86.0,73.0" fill="#9b59b6"/>
<polygon points="90.0,69.3 94.0,76.3 86.0,76.3" fill="#9b59b6"/>
<polygon points="90.0,72.1 94.0,79.1 86.0,79.1" fill="#9b59b6"/>
<polygon points="90.0,74.3 94.0,81.3 86.0,81.3" fill="#9b59b6"/>
<polygon points="90.1,75.7 94.1,82.7 86.1,82.7" fill="#9b59b6"/>
<polygon points="90.1,76.9 94.1,83.9 86.1,83.9" fill="#9b59b6"/>
<polygon points="90.2,78.0 94.2,85.0 86.2,85.0" fill="#9b59b6"/>
<polygon points="90.4,79.6 94.4,86.6 86.4,86.6" fill="#9b59b6"/>
<polygon points="90.8,81.6 94.8,88.6 86.8,88.6" fill="#9b59b6"/>
<polygon points="91.4,84.7 95.4,91.7 87.4,91.7" fill="#9b59b6"/>
<polygon points="92.4,89.3 96.4,96.3 88.4,96.3" fill="#9b59b6"/>
<polygon points="94.1,94.3 98.1,101.3 90.1,101.3" fill="#9b59b6"/>
<polygon points="96.7,100.1 100.7,107.1 92.7,107.1" fill="#9b59b6"/>
<polygon points="100.8,106.3 104.8,113.3 96.8,113.3" fill="#9b59b6"/>
<polygon points="114.6,121.9 118.6,128.9 110.6,128.9" fill="#9b59b6"/>
<polygon points="145.7,137.1 149.7,144.1 141.7,144.1" fill="#9b59b6"/>
<polygon points="270.9,178.7 274.9,185.7 266.9,185.7" fill="#9b59b6"/>
<polygon points="412.9,232.9 416.9,239.9 408.9,239.9" fill="#9b59b6"/>
<polyline fill="none" stroke="#4dd88a" stroke-width="2" points="90.0,65.5 90.0,65.5 90.0,65.5 90.0,65.5 90.0,65.5 90.0,65.5 90.0,65.5 90.1,65.5 90.2,65.5 90.4,65.5 90.7,65.5 91.5,65.5 92.9,65.5 95.8,65.5 101.6,65.5 112.9,65.5 131.7,65.5 186.3,65.9 244.2,75.7 344.5,127.7 438.1,189.2"/>
<polygon points="90.0,61.5 94.0,65.5 90.0,69.5 86.0,65.5" fill="#4dd88a"/>
<polygon points="90.0,61.5 94.0,65.5 90.0,69.5 86.0,65.5" fill="#4dd88a"/>
<polygon points="90.0,61.5 94.0,65.5 90.0,69.5 86.0,65.5" fill="#4dd88a"/>
<polygon points="90.0,61.5 94.0,65.5 90.0,69.5 86.0,65.5" fill="#4dd88a"/>
<polygon points="90.0,61.5 94.0,65.5 90.0,69.5 86.0,65.5" fill="#4dd88a"/>
<polygon points="90.0,61.5 94.0,65.5 90.0,69.5 86.0,65.5" fill="#4dd88a"/>
<polygon points="90.0,61.5 94.0,65.5 90.0,69.5 86.0,65.5" fill="#4dd88a"/>
<polygon points="90.1,61.5 94.1,65.5 90.1,69.5 86.1,65.5" fill="#4dd88a"/>
<polygon points="90.2,61.5 94.2,65.5 90.2,69.5 86.2,65.5" fill="#4dd88a"/>
<polygon points="90.4,61.5 94.4,65.5 90.4,69.5 86.4,65.5" fill="#4dd88a"/>
<polygon points="90.7,61.5 94.7,65.5 90.7,69.5 86.7,65.5" fill="#4dd88a"/>
<polygon points="91.5,61.5 95.5,65.5 91.5,69.5 87.5,65.5" fill="#4dd88a"/>
<polygon points="92.9,61.5 96.9,65.5 92.9,69.5 88.9,65.5" fill="#4dd88a"/>
<polygon points="95.8,61.5 99.8,65.5 95.8,69.5 91.8,65.5" fill="#4dd88a"/>
<polygon points="101.6,61.5 105.6,65.5 101.6,69.5 97.6,65.5" fill="#4dd88a"/>
<polygon points="112.9,61.5 116.9,65.5 112.9,69.5 108.9,65.5" fill="#4dd88a"/>
<polygon points="131.7,61.5 135.7,65.5 131.7,69.5 127.7,65.5" fill="#4dd88a"/>
<polygon points="186.3,61.9 190.3,65.9 186.3,69.9 182.3,65.9" fill="#4dd88a"/>
<polygon points="244.2,71.7 248.2,75.7 244.2,79.7 240.2,75.7" fill="#4dd88a"/>
<polygon points="344.5,123.7 348.5,127.7 344.5,131.7 340.5,127.7" fill="#4dd88a"/>
<polygon points="438.1,185.2 442.1,189.2 438.1,193.2 434.1,189.2" fill="#4dd88a"/>
<polyline fill="none" stroke="#ff6b6b" stroke-width="2" points="90.0,65.5 90.0,65.5 90.0,66.9 90.1,70.0 90.1,73.3 90.2,76.1 90.4,78.3 90.7,79.7 91.4,80.9 92.7,82.0 94.9,83.6 98.0,85.6 101.8,88.7 106.3,93.3 111.4,98.4 117.1,104.2 124.3,110.5 143.7,126.2 179.6,141.7 307.1,183.9 442.3,239.3"/>
<polygon points="90.0,60.5 88.8,63.9 85.3,64.0 88.1,66.1 87.1,69.5 90.0,67.5 93.0,69.5 91.9,66.1 94.8,64.0 91.2,63.9" fill="#ff6b6b"/>
<polygon points="90.0,60.5 88.9,63.9 85.3,64.0 88.1,66.1 87.1,69.5 90.0,67.5 93.0,69.5 91.9,66.1 94.8,64.0 91.2,63.9" fill="#ff6b6b"/>
<polygon points="90.0,61.9 88.9,65.3 85.3,65.3 88.1,67.5 87.1,70.9 90.0,68.9 93.0,70.9 91.9,67.5 94.8,65.3 91.2,65.3" fill="#ff6b6b"/>
<polygon points="90.1,65.0 88.9,68.3 85.3,68.4 88.2,70.6 87.1,74.0 90.1,72.0 93.0,74.0 92.0,70.6 94.8,68.4 91.2,68.3" fill="#ff6b6b"/>
<polygon points="90.1,68.3 88.9,71.6 85.4,71.7 88.2,73.9 87.2,77.3 90.1,75.3 93.0,77.3 92.0,73.9 94.9,71.7 91.3,71.6" fill="#ff6b6b"/>
<polygon points="90.2,71.1 89.0,74.4 85.4,74.5 88.3,76.7 87.3,80.1 90.2,78.1 93.1,80.1 92.1,76.7 95.0,74.5 91.4,74.4" fill="#ff6b6b"/>
<polygon points="90.4,73.3 89.2,76.6 85.6,76.7 88.5,78.9 87.4,82.3 90.4,80.3 93.3,82.3 92.3,78.9 95.1,76.7 91.5,76.6" fill="#ff6b6b"/>
<polygon points="90.7,74.7 89.5,78.1 86.0,78.2 88.8,80.3 87.8,83.8 90.7,81.7 93.7,83.8 92.6,80.3 95.5,78.2 91.9,78.1" fill="#ff6b6b"/>
<polygon points="91.4,75.9 90.2,79.3 86.6,79.4 89.5,81.5 88.5,84.9 91.4,82.9 94.3,84.9 93.3,81.5 96.2,79.4 92.6,79.3" fill="#ff6b6b"/>
<polygon points="92.7,77.0 91.5,80.4 88.0,80.5 90.8,82.7 89.8,86.1 92.7,84.0 95.7,86.1 94.6,82.7 97.5,80.5 93.9,80.4" fill="#ff6b6b"/>
<polygon points="94.9,78.6 93.7,82.0 90.1,82.0 93.0,84.2 91.9,87.6 94.9,85.6 97.8,87.6 96.8,84.2 99.6,82.0 96.0,82.0" fill="#ff6b6b"/>
<polygon points="98.0,80.6 96.8,83.9 93.2,84.0 96.1,86.2 95.1,89.6 98.0,87.6 100.9,89.6 99.9,86.2 102.8,84.0 99.2,83.9" fill="#ff6b6b"/>
<polygon points="101.8,83.7 100.7,87.1 97.1,87.2 99.9,89.3 98.9,92.7 101.8,90.7 104.8,92.7 103.7,89.3 106.6,87.2 103.0,87.1" fill="#ff6b6b"/>
<polygon points="106.3,88.3 105.2,91.7 101.6,91.7 104.4,93.9 103.4,97.3 106.3,95.3 109.3,97.3 108.2,93.9 111.1,91.7 107.5,91.7" fill="#ff6b6b"/>
<polygon points="111.4,93.4 110.2,96.8 106.6,96.8 109.5,99.0 108.4,102.4 111.4,100.4 114.3,102.4 113.3,99.0 116.1,96.8 112.5,96.8" fill="#ff6b6b"/>
<polygon points="117.1,99.2 115.9,102.6 112.4,102.7 115.2,104.8 114.2,108.3 117.1,106.2 120.1,108.3 119.0,104.8 121.9,102.7 118.3,102.6" fill="#ff6b6b"/>
<polygon points="124.3,105.5 123.1,108.8 119.6,108.9 122.4,111.1 121.4,114.5 124.3,112.5 127.2,114.5 126.2,111.1 129.1,108.9 125.5,108.8" fill="#ff6b6b"/>
<polygon points="143.7,121.2 142.6,124.6 139.0,124.7 141.8,126.8 140.8,130.3 143.7,128.2 146.7,130.3 145.6,126.8 148.5,124.7 144.9,124.6" fill="#ff6b6b"/>
<polygon points="179.6,136.7 178.4,140.1 174.8,140.2 177.7,142.4 176.6,145.8 179.6,143.7 182.5,145.8 181.5,142.4 184.3,140.2 180.7,140.1" fill="#ff6b6b"/>
<polygon points="307.1,178.9 305.9,182.3 302.3,182.4 305.2,184.5 304.1,188.0 307.1,185.9 310.0,188.0 309.0,184.5 311.8,182.4 308.3,182.3" fill="#ff6b6b"/>
<polygon points="442.3,234.3 441.2,237.7 437.6,237.8 440.4,240.0 439.4,243.4 442.3,241.3 445.3,243.4 444.2,240.0 447.1,237.8 443.5,237.7" fill="#ff6b6b"/>
<polyline fill="none" stroke="#ff922b" stroke-width="2" points="272.2,138.3 301.2,151.3 329.9,164.3 357.9,177.9 384.9,191.7 410.7,206.3 435.7,219.9 460.0,234.7 507.4,264.2 530.8,280.4"/>
<circle cx="272.2" cy="138.3" r="3" fill="#ff922b"/>
<circle cx="301.2" cy="151.3" r="3" fill="#ff922b"/>
<circle cx="329.9" cy="164.3" r="3" fill="#ff922b"/>
<circle cx="357.9" cy="177.9" r="3" fill="#ff922b"/>
<circle cx="384.9" cy="191.7" r="3" fill="#ff922b"/>
<circle cx="410.7" cy="206.3" r="3" fill="#ff922b"/>
<circle cx="435.7" cy="219.9" r="3" fill="#ff922b"/>
<circle cx="460.0" cy="234.7" r="3" fill="#ff922b"/>
<circle cx="507.4" cy="264.2" r="3" fill="#ff922b"/>
<circle cx="530.8" cy="280.4" r="3" fill="#ff922b"/>
<polyline fill="none" stroke="#888888" stroke-width="2" stroke-dasharray="8,5" points="332.9,116.2 367.6,131.6 412.5,152.4 446.2,167.4 479.9,182.1 524.2,202.7 557.7,217.9 591.2,234.0 635.5,250.9 669.0,270.8"/>
<circle cx="332.9" cy="116.2" r="3" fill="#888888"/>
<circle cx="367.6" cy="131.6" r="3" fill="#888888"/>
<circle cx="412.5" cy="152.4" r="3" fill="#888888"/>
<circle cx="446.2" cy="167.4" r="3" fill="#888888"/>
<circle cx="479.9" cy="182.1" r="3" fill="#888888"/>
<circle cx="524.2" cy="202.7" r="3" fill="#888888"/>
<circle cx="557.7" cy="217.9" r="3" fill="#888888"/>
<circle cx="591.2" cy="234.0" r="3" fill="#888888"/>
<circle cx="635.5" cy="250.9" r="3" fill="#888888"/>
<circle cx="669.0" cy="270.8" r="3" fill="#888888"/>
<line x1="886" y1="60" x2="902" y2="60" stroke="#ef4444" stroke-width="2" stroke-dasharray="8,5"/>
<circle cx="894.0" cy="60.0" r="3" fill="#ef4444"/>
<text class="label" x="908" y="64">Theoretical</text>
<line x1="886" y1="78" x2="902" y2="78" stroke="#1a6b3c" stroke-width="2"/>
<polygon points="894.0,74.0 898.0,78.0 894.0,82.0 890.0,78.0" fill="#1a6b3c"/>
<text class="label" x="908" y="82">Grafite</text>
<line x1="886" y1="96" x2="902" y2="96" stroke="#1a3a6b" stroke-width="2"/>
<polygon points="894.0,91.0 892.8,94.4 889.2,94.5 892.1,96.6 891.1,100.0 894.0,98.0 896.9,100.0 895.9,96.6 898.8,94.5 895.2,94.4" fill="#1a3a6b"/>
<text class="label" x="908" y="100">SNARF</text>
<line x1="886" y1="114" x2="902" y2="114" stroke="#111111" stroke-width="2"/>
<rect x="891.0" y="111.0" width="6" height="6" fill="#111111"/>
<text class="label" x="908" y="118">SuRF</text>
<line x1="886" y1="132" x2="902" y2="132" stroke="#111111" stroke-width="2"/>
<polygon points="894.0,128.0 898.0,135.0 890.0,135.0" fill="#111111"/>
<text class="label" x="908" y="136">SuRFHash(8)</text>
<line x1="886" y1="150" x2="902" y2="150" stroke="#111111" stroke-width="2"/>
<polygon points="894.0,146.0 898.0,150.0 894.0,154.0 890.0,150.0" fill="#111111"/>
<text class="label" x="908" y="154">SuRFReal(8)</text>
<line x1="886" y1="168" x2="902" y2="168" stroke="#2a7fff" stroke-width="2"/>
<rect x="891.0" y="165.0" width="6" height="6" fill="#2a7fff"/>
<text class="label" x="908" y="172">Adaptive (t=0)</text>
<line x1="886" y1="186" x2="902" y2="186" stroke="#9b59b6" stroke-width="2"/>
<polygon points="894.0,182.0 898.0,189.0 890.0,189.0" fill="#9b59b6"/>
<text class="label" x="908" y="190">Truncation</text>
<line x1="886" y1="204" x2="902" y2="204" stroke="#4dd88a" stroke-width="2"/>
<polygon points="894.0,200.0 898.0,204.0 894.0,208.0 890.0,204.0" fill="#4dd88a"/>
<text class="label" x="908" y="208">SODA</text>
<line x1="886" y1="222" x2="902" y2="222" stroke="#ff6b6b" stroke-width="2"/>
<polygon points="894.0,217.0 892.8,220.4 889.2,220.5 892.1,222.6 891.1,226.0 894.0,224.0 896.9,226.0 895.9,222.6 898.8,220.5 895.2,220.4" fill="#ff6b6b"/>
<text class="label" x="908" y="226">Hybrid</text>
<line x1="886" y1="240" x2="902" y2="240" stroke="#ff922b" stroke-width="2"/>
<circle cx="894.0" cy="240.0" r="3" fill="#ff922b"/>
<text class="label" x="908" y="244">CDF-ARE</text>
<line x1="886" y1="258" x2="902" y2="258" stroke="#888888" stroke-width="2" stroke-dasharray="8,5"/>
<circle cx="894.0" cy="258.0" r="3" fill="#888888"/>
<text class="label" x="908" y="262">BloomARE</text>
<text x="480" y="590" text-anchor="middle">Bits per Key (BPK)</text>
<text transform="translate(16,295) rotate(-90)" text-anchor="middle">False Positive Rate (FPR)</text>
</svg>
