<svg xmlns="http://www.w3.org/2000/svg" width="1020" height="600" viewBox="0 0 1020 600">
<style>text{font-family:Menlo,Monaco,monospace;font-size:12px;fill:#222} .axis{stroke:#333;stroke-width:1} .grid{stroke:#eee;stroke-width:0.5} .label{font-size:11px;fill:#444}</style>
<text x="510" y="28" text-anchor="middle" style="font-size:14px;font-weight:bold">CDF of Key Distributions (n=65536, normalized)</text>
<line class="axis" x1="90.0" y1="550.0" x2="870.0" y2="550.0"/>
<line class="axis" x1="90.0" y1="40.0" x2="90.0" y2="550.0"/>
<line class="grid" x1="90.0" y1="550.0" x2="870.0" y2="550.0"/>
<text class="label" x="82.0" y="554.0" text-anchor="end">0</text>
<line class="grid" x1="90.0" y1="457.3" x2="870.0" y2="457.3"/>
<text class="label" x="82.0" y="461.3" text-anchor="end">0.20</text>
<line class="grid" x1="90.0" y1="364.5" x2="870.0" y2="364.5"/>
<text class="label" x="82.0" y="368.5" text-anchor="end">0.40</text>
<line class="grid" x1="90.0" y1="271.8" x2="870.0" y2="271.8"/>
<text class="label" x="82.0" y="275.8" text-anchor="end">0.60</text>
<line class="grid" x1="90.0" y1="179.1" x2="870.0" y2="179.1"/>
<text class="label" x="82.0" y="183.1" text-anchor="end">0.80</text>
<line class="grid" x1="90.0" y1="86.4" x2="870.0" y2="86.4"/>
<text class="label" x="82.0" y="90.4" text-anchor="end">1</text>
<line class="grid" x1="90.0" y1="40.0" x2="90.0" y2="550.0"/>
<text class="label" x="90.0" y="566.0" text-anchor="middle">0</text>
<line class="grid" x1="164.3" y1="40.0" x2="164.3" y2="550.0"/>
<text class="label" x="164.3" y="566.0" text-anchor="middle">0.10</text>
<line class="grid" x1="238.6" y1="40.0" x2="238.6" y2="550.0"/>
<text class="label" x="238.6" y="566.0" text-anchor="middle">0.20</text>
<line class="grid" x1="312.9" y1="40.0" x2="312.9" y2="550.0"/>
<text class="label" x="312.9" y="566.0" text-anchor="middle">0.30</text>
<line class="grid" x1="387.1" y1="40.0" x2="387.1" y2="550.0"/>
<text class="label" x="387.1" y="566.0" text-anchor="middle">0.40</text>
<line class="grid" x1="461.4" y1="40.0" x2="461.4" y2="550.0"/>
<text class="label" x="461.4" y="566.0" text-anchor="middle">0.50</text>
<line class="grid" x1="535.7" y1="40.0" x2="535.7" y2="550.0"/>
<text class="label" x="535.7" y="566.0" text-anchor="middle">0.60</text>
<line class="grid" x1="610.0" y1="40.0" x2="610.0" y2="550.0"/>
<text class="label" x="610.0" y="566.0" text-anchor="middle">0.70</text>
<line class="grid" x1="684.3" y1="40.0" x2="684.3" y2="550.0"/>
<text class="label" x="684.3" y="566.0" text-anchor="middle">0.80</text>
<line class="grid" x1="758.6" y1="40.0" x2="758.6" y2="550.0"/>
<text class="label" x="758.6" y="566.0" text-anchor="middle">0.90</text>
<line class="grid" x1="832.9" y1="40.0" x2="832.9" y2="550.0"/>
<text class="label" x="832.9" y="566.0" text-anchor="middle">1.00</text>
<polyline fill="none" stroke="#2a7fff" stroke-width="2" points="90.0,550.0 90.0,550.0 108.6,548.2 127.9,546.4 146.7,544.6 164.8,542.7 182.8,540.9 183.7,539.1 183.7,537.3 183.7,535.5 183.7,533.7 183.7,531.9 183.7,530.1 183.7,528.3 183.7,526.4 183.7,524.6 183.7,522.8 183.7,521.0 183.7,519.2 183.7,517.4 183.7,515.6 183.7,513.8 183.7,512.0 183.7,510.1 183.7,508.3 183.7,506.5 183.7,504.7 183.7,502.9 183.7,501.1 183.7,499.3 183.7,497.5 194.0,495.7 204.3,493.8 204.3,492.0 204.3,490.2 204.3,488.4 204.3,486.6 204.3,484.8 204.3,483.0 204.3,481.2 204.3,479.4 204.3,477.5 204.3,475.7 204.3,473.9 204.3,472.1 204.3,470.3 204.3,468.5 204.3,466.7 204.3,464.9 204.3,463.1 204.3,461.3 204.3,459.4 204.3,457.6 204.3,455.8 204.3,454.0 204.3,452.2 204.3,450.4 204.3,448.6 204.3,446.8 204.3,445.0 204.3,443.1 204.3,441.3 204.3,439.5 204.3,437.7 204.3,435.9 204.3,434.1 204.3,432.3 204.3,430.5 204.3,428.7 204.3,426.8 204.3,425.0 204.3,423.2 204.3,421.4 204.3,419.6 204.3,417.8 204.3,416.0 204.3,414.2 204.3,412.4 204.3,410.5 204.3,408.7 204.3,406.9 204.3,405.1 204.3,403.3 204.3,401.5 204.3,399.7 204.3,397.9 204.3,396.1 204.3,394.2 204.3,392.4 204.3,390.6 204.3,388.8 204.3,387.0 204.3,385.2 204.3,383.4 204.3,381.6 204.3,379.8 204.3,377.9 204.3,376.1 204.3,374.3 204.3,372.5 204.3,370.7 204.3,368.9 204.3,367.1 204.3,365.3 204.3,363.5 204.3,361.6 204.3,359.8 204.3,358.0 204.3,356.2 204.3,354.4 204.3,352.6 204.3,350.8 204.3,349.0 204.3,347.2 204.3,345.3 204.3,343.5 204.3,341.7 204.3,339.9 204.3,338.1 204.3,336.3 204.3,334.5 204.3,332.7 204.3,330.9 204.3,329.0 204.3,327.2 204.3,325.4 204.3,323.6 204.3,321.8 204.3,320.0 204.3,318.2 204.3,316.4 204.3,314.6 204.3,312.7 204.3,310.9 204.3,309.1 204.3,307.3 204.3,305.5 204.3,303.7 204.3,301.9 204.3,300.1 204.3,298.3 204.3,296.4 204.3,294.6 204.3,292.8 204.3,291.0 204.3,289.2 204.3,287.4 211.7,285.6 230.1,283.8 251.8,282.0 270.6,280.1 290.8,278.3 306.2,276.5 306.2,274.7 306.2,272.9 306.2,271.1 306.2,269.3 306.2,267.5 320.3,265.7 337.9,263.8 357.4,262.0 371.0,260.2 371.0,258.4 371.0,256.6 371.0,254.8 371.0,253.0 371.0,251.2 371.0,249.4 371.0,247.5 371.0,245.7 371.0,243.9 371.0,242.1 371.0,240.3 371.0,238.5 371.0,236.7 371.0,234.9 371.0,233.1 371.0,231.2 371.0,229.4 371.0,227.6 371.0,225.8 371.0,224.0 371.0,222.2 371.0,220.4 371.0,218.6 371.0,216.8 371.0,214.9 371.0,213.1 371.0,211.3 371.0,209.5 371.0,207.7 371.0,205.9 371.0,204.1 371.0,202.3 371.0,200.5 371.0,198.6 371.0,196.8 371.0,195.0 371.0,193.2 371.0,191.4 371.0,189.6 371.0,187.8 371.0,186.0 371.0,184.2 371.0,182.3 371.0,180.5 371.0,178.7 371.0,176.9 383.3,175.1 404.2,173.3 422.5,171.5 443.5,169.7 463.8,167.9 484.1,166.0 501.7,164.2 520.9,162.4 540.6,160.6 561.2,158.8 580.4,157.0 600.6,155.2 620.6,153.4 637.8,151.6 657.8,149.7 678.2,147.9 696.5,146.1 718.3,144.3 738.2,142.5 751.8,140.7 751.8,138.9 751.8,137.1 751.8,135.3 751.8,133.4 751.8,131.6 751.8,129.8 751.8,128.0 751.8,126.2 751.8,124.4 751.8,122.6 751.8,120.8 751.8,119.0 751.8,117.1 751.8,115.3 751.8,113.5 751.8,111.7 751.8,109.9 751.8,108.1 751.8,106.3 751.8,104.5 751.8,102.7 751.8,100.8 751.8,99.0 751.8,97.2 751.8,95.4 758.8,93.6 775.1,91.8 795.0,90.0 813.9,88.2 832.9,86.4"/>
<polyline fill="none" stroke="#22a06b" stroke-width="2" points="90.0,550.0 90.0,550.0 92.8,548.2 95.7,546.4 98.6,544.6 101.5,542.7 104.1,540.9 107.2,539.1 109.9,537.3 112.9,535.5 115.8,533.7 118.8,531.9 121.6,530.1 124.5,528.3 127.1,526.4 130.3,524.6 133.0,522.8 136.1,521.0 138.9,519.2 141.6,517.4 144.5,515.6 147.2,513.8 150.0,512.0 152.8,510.1 155.5,508.3 158.2,506.5 161.4,504.7 164.3,502.9 167.0,501.1 170.0,499.3 173.2,497.5 176.3,495.7 179.3,493.8 182.4,492.0 185.4,490.2 188.3,488.4 191.5,486.6 194.4,484.8 197.4,483.0 200.3,481.2 203.0,479.4 205.5,477.5 208.3,475.7 211.0,473.9 214.0,472.1 216.9,470.3 220.0,468.5 223.1,466.7 225.9,464.9 228.9,463.1 231.7,461.3 235.1,459.4 237.9,457.6 241.0,455.8 244.0,454.0 246.9,452.2 249.9,450.4 253.2,448.6 255.9,446.8 258.5,445.0 261.2,443.1 264.0,441.3 266.8,439.5 269.7,437.7 272.6,435.9 275.8,434.1 278.7,432.3 281.5,430.5 284.6,428.7 287.1,426.8 290.2,425.0 293.0,423.2 296.0,421.4 298.9,419.6 301.6,417.8 304.7,416.0 307.9,414.2 310.8,412.4 313.8,410.5 316.9,408.7 319.7,406.9 322.5,405.1 325.1,403.3 327.8,401.5 330.5,399.7 333.3,397.9 336.1,396.1 338.9,394.2 341.5,392.4 344.2,390.6 347.2,388.8 350.2,387.0 352.9,385.2 356.0,383.4 358.8,381.6 361.9,379.8 364.5,377.9 367.5,376.1 370.3,374.3 373.2,372.5 375.8,370.7 378.7,368.9 381.4,367.1 384.2,365.3 387.2,363.5 390.6,361.6 393.6,359.8 396.7,358.0 399.6,356.2 402.7,354.4 405.5,352.6 408.7,350.8 411.7,349.0 414.3,347.2 416.6,345.3 419.5,343.5 422.5,341.7 425.4,339.9 428.1,338.1 431.0,336.3 434.2,334.5 436.8,332.7 439.7,330.9 442.8,329.0 445.9,327.2 448.8,325.4 451.8,323.6 454.7,321.8 457.6,320.0 460.8,318.2 463.8,316.4 466.4,314.6 469.2,312.7 472.3,310.9 475.1,309.1 478.1,307.3 481.0,305.5 484.2,303.7 486.8,301.9 489.8,300.1 492.8,298.3 495.6,296.4 498.6,294.6 501.5,292.8 504.3,291.0 507.3,289.2 510.3,287.4 512.9,285.6 515.9,283.8 519.1,282.0 522.1,280.1 525.0,278.3 527.8,276.5 530.8,274.7 533.9,272.9 536.8,271.1 539.7,269.3 542.6,267.5 545.5,265.7 548.5,263.8 551.6,262.0 554.3,260.2 557.2,258.4 560.4,256.6 563.3,254.8 566.2,253.0 569.0,251.2 571.9,249.4 575.0,247.5 577.7,245.7 580.4,243.9 583.0,242.1 586.0,240.3 588.9,238.5 591.8,236.7 594.8,234.9 597.6,233.1 600.7,231.2 603.5,229.4 606.2,227.6 609.3,225.8 612.3,224.0 615.3,222.2 618.2,220.4 621.1,218.6 623.7,216.8 626.6,214.9 629.6,213.1 632.4,211.3 635.0,209.5 637.7,207.7 640.8,205.9 643.7,204.1 646.7,202.3 649.7,200.5 653.0,198.6 655.9,196.8 658.3,195.0 661.0,193.2 664.0,191.4 667.6,189.6 670.7,187.8 673.4,186.0 676.3,184.2 679.3,182.3 682.1,180.5 685.1,178.7 687.9,176.9 690.7,175.1 693.4,173.3 696.4,171.5 699.4,169.7 702.1,167.9 704.6,166.0 707.5,164.2 710.0,162.4 712.7,160.6 715.2,158.8 718.2,157.0 721.3,155.2 724.3,153.4 727.2,151.6 730.2,149.7 733.2,147.9 736.2,146.1 739.2,144.3 742.0,142.5 744.9,140.7 748.1,138.9 751.0,137.1 754.1,135.3 756.8,133.4 759.8,131.6 762.6,129.8 765.6,128.0 768.7,126.2 771.8,124.4 774.5,122.6 777.4,120.8 780.2,119.0 783.0,117.1 785.8,115.3 788.6,113.5 791.8,111.7 794.8,109.9 797.7,108.1 800.8,106.3 803.7,104.5 806.6,102.7 809.3,100.8 812.2,99.0 815.2,97.2 818.1,95.4 820.8,93.6 823.8,91.8 827.0,90.0 830.0,88.2 832.9,86.4"/>
<polyline fill="none" stroke="#e05d10" stroke-width="2" points="90.0,550.0 90.0,550.0 92.9,548.2 95.8,546.4 98.7,544.6 101.6,542.7 104.5,540.9 107.4,539.1 110.3,537.3 113.2,535.5 116.1,533.7 119.0,531.9 121.9,530.1 124.8,528.3 127.7,526.4 130.6,524.6 133.5,522.8 136.4,521.0 139.3,519.2 142.2,517.4 145.1,515.6 148.0,513.8 150.9,512.0 153.8,510.1 156.7,508.3 159.6,506.5 162.5,504.7 165.4,502.9 168.3,501.1 171.3,499.3 174.2,497.5 177.1,495.7 180.0,493.8 182.9,492.0 185.8,490.2 188.7,488.4 191.6,486.6 194.5,484.8 197.4,483.0 200.3,481.2 203.2,479.4 206.1,477.5 209.0,475.7 211.9,473.9 214.8,472.1 217.7,470.3 220.6,468.5 223.5,466.7 226.4,464.9 229.3,463.1 232.2,461.3 235.1,459.4 238.0,457.6 240.9,455.8 243.8,454.0 246.7,452.2 249.6,450.4 252.5,448.6 255.4,446.8 258.3,445.0 261.2,443.1 264.1,441.3 267.0,439.5 269.9,437.7 272.8,435.9 275.7,434.1 278.6,432.3 281.5,430.5 284.4,428.7 287.3,426.8 290.2,425.0 293.1,423.2 296.0,421.4 298.9,419.6 301.8,417.8 304.7,416.0 307.6,414.2 310.5,412.4 313.4,410.5 316.3,408.7 319.2,406.9 322.1,405.1 325.0,403.3 328.0,401.5 330.9,399.7 333.8,397.9 336.7,396.1 339.6,394.2 342.5,392.4 345.4,390.6 348.3,388.8 351.2,387.0 354.1,385.2 357.0,383.4 359.9,381.6 362.8,379.8 365.7,377.9 368.6,376.1 371.5,374.3 374.4,372.5 377.3,370.7 380.2,368.9 383.1,367.1 386.0,365.3 388.9,363.5 391.8,361.6 394.7,359.8 397.6,358.0 400.5,356.2 403.4,354.4 406.3,352.6 409.2,350.8 412.1,349.0 415.0,347.2 417.9,345.3 420.8,343.5 423.7,341.7 426.6,339.9 429.5,338.1 432.4,336.3 435.3,334.5 438.2,332.7 441.1,330.9 444.0,329.0 446.9,327.2 449.8,325.4 452.7,323.6 455.6,321.8 458.5,320.0 461.4,318.2 464.3,316.4 467.2,314.6 470.1,312.7 473.0,310.9 475.9,309.1 478.8,307.3 481.7,305.5 484.6,303.7 487.6,301.9 490.5,300.1 493.4,298.3 496.3,296.4 499.2,294.6 502.1,292.8 505.0,291.0 507.9,289.2 510.8,287.4 513.7,285.6 516.6,283.8 519.5,282.0 522.4,280.1 525.3,278.3 528.2,276.5 531.1,274.7 534.0,272.9 536.9,271.1 539.8,269.3 542.7,267.5 545.6,265.7 548.5,263.8 551.4,262.0 554.3,260.2 557.2,258.4 560.1,256.6 563.0,254.8 565.9,253.0 568.8,251.2 571.7,249.4 574.6,247.5 577.5,245.7 580.4,243.9 583.3,242.1 586.2,240.3 589.1,238.5 592.0,236.7 594.9,234.9 597.8,233.1 600.7,231.2 603.6,229.4 606.5,227.6 609.4,225.8 612.3,224.0 615.2,222.2 618.1,220.4 621.0,218.6 623.9,216.8 626.8,214.9 629.7,213.1 632.6,211.3 635.5,209.5 638.4,207.7 641.3,205.9 644.2,204.1 647.2,202.3 650.1,200.5 653.0,198.6 655.9,196.8 658.8,195.0 661.7,193.2 664.6,191.4 667.5,189.6 670.4,187.8 673.3,186.0 676.2,184.2 679.1,182.3 682.0,180.5 684.9,178.7 687.8,176.9 690.7,175.1 693.6,173.3 696.5,171.5 699.4,169.7 702.3,167.9 705.2,166.0 708.1,164.2 711.0,162.4 713.9,160.6 716.8,158.8 719.7,157.0 722.6,155.2 725.5,153.4 728.4,151.6 731.3,149.7 734.2,147.9 737.1,146.1 740.0,144.3 742.9,142.5 745.8,140.7 748.7,138.9 751.6,137.1 754.5,135.3 757.4,133.4 760.3,131.6 763.2,129.8 766.1,128.0 769.0,126.2 771.9,124.4 774.8,122.6 777.7,120.8 780.6,119.0 783.5,117.1 786.4,115.3 789.3,113.5 792.2,111.7 795.1,109.9 798.0,108.1 800.9,106.3 803.9,104.5 806.8,102.7 809.7,100.8 812.6,99.0 815.5,97.2 818.4,95.4 821.3,93.6 824.2,91.8 827.1,90.0 830.0,88.2 832.9,86.4"/>
<polyline fill="none" stroke="#9b59b6" stroke-width="2" points="90.0,550.0 90.0,550.0 90.0,548.2 90.0,546.4 90.0,544.6 90.0,542.7 90.0,540.9 90.0,539.1 90.0,537.3 90.0,535.5 90.0,533.7 90.0,531.9 90.0,530.1 90.0,528.3 90.0,526.4 90.0,524.6 90.0,522.8 90.0,521.0 90.0,519.2 90.0,517.4 90.0,515.6 90.0,513.8 103.2,512.0 103.2,510.1 103.2,508.3 103.2,506.5 103.2,504.7 103.2,502.9 103.2,501.1 103.2,499.3 103.2,497.5 103.2,495.7 103.2,493.8 103.2,492.0 103.2,490.2 103.2,488.4 103.2,486.6 103.2,484.8 103.2,483.0 103.2,481.2 103.2,479.4 103.2,477.5 107.0,475.7 107.0,473.9 107.0,472.1 107.0,470.3 107.0,468.5 107.0,466.7 107.0,464.9 107.0,463.1 107.0,461.3 107.0,459.4 107.0,457.6 107.0,455.8 107.0,454.0 107.0,452.2 107.0,450.4 107.0,448.6 107.0,446.8 107.0,445.0 107.0,443.1 107.0,441.3 107.0,439.5 131.0,437.7 131.0,435.9 131.0,434.1 131.0,432.3 131.0,430.5 131.0,428.7 131.0,426.8 131.0,425.0 131.0,423.2 131.0,421.4 131.0,419.6 131.0,417.8 131.0,416.0 131.0,414.2 131.0,412.4 131.0,410.5 131.0,408.7 131.0,406.9 131.0,405.1 131.0,403.3 131.0,401.5 142.7,399.7 142.7,397.9 142.7,396.1 142.7,394.2 142.7,392.4 142.7,390.6 142.7,388.8 142.7,387.0 142.7,385.2 142.7,383.4 142.7,381.6 142.7,379.8 142.7,377.9 142.7,376.1 142.7,374.3 142.7,372.5 142.7,370.7 142.7,368.9 142.7,367.1 142.7,365.3 144.3,363.5 144.3,361.6 144.3,359.8 144.3,358.0 144.3,356.2 144.3,354.4 144.3,352.6 144.3,350.8 144.3,349.0 144.3,347.2 144.3,345.3 144.3,343.5 144.3,341.7 144.3,339.9 144.3,338.1 144.3,336.3 144.3,334.5 144.3,332.7 144.3,330.9 144.3,329.0 150.2,327.2 150.2,325.4 150.2,323.6 150.2,321.8 150.2,320.0 150.2,318.2 150.2,316.4 150.2,314.6 150.2,312.7 150.2,310.9 150.2,309.1 150.2,307.3 150.2,305.5 150.2,303.7 150.2,301.9 150.2,300.1 150.2,298.3 150.2,296.4 150.2,294.6 150.2,292.8 150.2,291.0 186.7,289.2 186.7,287.4 186.7,285.6 186.7,283.8 186.7,282.0 186.7,280.1 186.7,278.3 186.7,276.5 186.7,274.7 186.7,272.9 186.7,271.1 186.7,269.3 186.7,267.5 186.7,265.7 186.7,263.8 186.7,262.0 186.7,260.2 186.7,258.4 186.7,256.6 186.7,254.8 189.7,253.0 189.7,251.2 189.7,249.4 189.7,247.5 189.7,245.7 189.7,243.9 189.7,242.1 189.7,240.3 189.7,238.5 189.7,236.7 189.7,234.9 189.7,233.1 189.7,231.2 189.7,229.4 189.7,227.6 189.7,225.8 189.7,224.0 189.7,222.2 189.7,220.4 189.7,218.6 189.7,216.8 196.4,214.9 196.4,213.1 196.4,211.3 196.4,209.5 196.4,207.7 196.4,205.9 196.4,204.1 196.4,202.3 196.4,200.5 196.4,198.6 196.4,196.8 196.4,195.0 196.4,193.2 196.4,191.4 196.4,189.6 196.4,187.8 196.4,186.0 196.4,184.2 196.4,182.3 196.4,180.5 198.7,178.7 205.7,176.9 209.7,175.1 210.6,173.3 227.4,171.5 253.3,169.7 266.3,167.9 277.4,166.0 278.7,164.2 286.7,162.4 295.8,160.6 318.0,158.8 321.6,157.0 341.8,155.2 343.9,153.4 354.1,151.6 372.9,149.7 375.9,147.9 398.7,146.1 402.9,144.3 419.7,142.5 435.8,140.7 444.9,138.9 454.3,137.1 462.4,135.3 464.5,133.4 479.2,131.6 487.5,129.8 502.6,128.0 504.9,126.2 514.5,124.4 534.1,122.6 547.9,120.8 560.0,119.0 560.4,117.1 587.6,115.3 600.4,113.5 629.6,111.7 635.4,109.9 651.9,108.1 668.4,106.3 682.8,104.5 718.8,102.7 736.7,100.8 742.3,99.0 742.6,97.2 759.5,95.4 767.2,93.6 793.8,91.8 821.7,90.0 825.7,88.2 832.9,86.4"/>
<polyline fill="none" stroke="#c0392b" stroke-width="2" points="90.0,550.0 90.0,550.0 110.1,548.2 132.7,546.4 152.1,544.6 172.7,542.7 194.2,540.9 215.2,539.1 233.9,537.3 254.7,535.5 276.9,533.7 295.6,531.9 315.0,530.1 328.7,528.3 330.8,526.4 332.8,524.6 334.9,522.8 337.0,521.0 339.0,519.2 341.1,517.4 343.2,515.6 345.2,513.8 347.3,512.0 349.4,510.1 351.4,508.3 353.5,506.5 355.6,504.7 357.6,502.9 359.7,501.1 361.8,499.3 363.8,497.5 365.9,495.7 368.0,493.8 370.0,492.0 372.1,490.2 374.2,488.4 376.2,486.6 378.3,484.8 380.4,483.0 382.4,481.2 384.5,479.4 386.6,477.5 388.6,475.7 390.7,473.9 392.8,472.1 394.8,470.3 396.9,468.5 399.0,466.7 401.0,464.9 403.1,463.1 405.2,461.3 407.2,459.4 409.3,457.6 411.4,455.8 413.4,454.0 415.5,452.2 417.6,450.4 419.6,448.6 421.7,446.8 423.8,445.0 425.8,443.1 427.9,441.3 429.9,439.5 432.0,437.7 434.1,435.9 436.1,434.1 438.2,432.3 440.3,430.5 442.3,428.7 444.4,426.8 446.5,425.0 448.5,423.2 450.6,421.4 452.7,419.6 454.7,417.8 456.8,416.0 458.9,414.2 460.9,412.4 463.0,410.5 465.1,408.7 467.1,406.9 469.2,405.1 471.3,403.3 473.3,401.5 475.4,399.7 477.5,397.9 479.5,396.1 481.6,394.2 483.7,392.4 485.7,390.6 487.8,388.8 489.9,387.0 491.9,385.2 494.0,383.4 496.1,381.6 498.1,379.8 500.2,377.9 502.3,376.1 504.3,374.3 506.4,372.5 508.5,370.7 510.5,368.9 512.6,367.1 514.7,365.3 516.7,363.5 518.8,361.6 520.9,359.8 522.9,358.0 525.0,356.2 527.1,354.4 529.1,352.6 531.2,350.8 533.3,349.0 535.3,347.2 537.4,345.3 539.5,343.5 541.5,341.7 543.6,339.9 545.7,338.1 547.7,336.3 549.8,334.5 551.9,332.7 553.9,330.9 556.0,329.0 558.1,327.2 560.1,325.4 562.2,323.6 564.3,321.8 566.3,320.0 568.4,318.2 570.5,316.4 572.5,314.6 574.6,312.7 576.7,310.9 578.7,309.1 580.8,307.3 582.8,305.5 584.9,303.7 587.0,301.9 589.0,300.1 591.1,298.3 593.2,296.4 595.2,294.6 597.3,292.8 599.4,291.0 601.4,289.2 603.5,287.4 605.6,285.6 607.6,283.8 609.7,282.0 611.8,280.1 613.8,278.3 615.9,276.5 618.0,274.7 620.0,272.9 622.1,271.1 624.2,269.3 626.2,267.5 628.3,265.7 630.4,263.8 632.4,262.0 634.5,260.2 636.6,258.4 638.6,256.6 640.7,254.8 642.8,253.0 644.8,251.2 646.9,249.4 649.0,247.5 651.0,245.7 653.1,243.9 655.2,242.1 657.2,240.3 659.3,238.5 661.4,236.7 663.4,234.9 665.5,233.1 667.6,231.2 669.6,229.4 671.7,227.6 673.8,225.8 675.8,224.0 677.9,222.2 680.0,220.4 682.0,218.6 684.1,216.8 686.2,214.9 688.2,213.1 690.3,211.3 692.4,209.5 694.4,207.7 696.5,205.9 698.6,204.1 700.6,202.3 702.7,200.5 704.8,198.6 706.8,196.8 708.9,195.0 711.0,193.2 713.0,191.4 715.1,189.6 717.2,187.8 719.2,186.0 721.3,184.2 723.4,182.3 725.4,180.5 727.5,178.7 729.6,176.9 731.6,175.1 733.7,173.3 735.7,171.5 737.8,169.7 739.9,167.9 741.9,166.0 744.0,164.2 746.1,162.4 748.1,160.6 750.2,158.8 752.3,157.0 754.3,155.2 756.4,153.4 758.5,151.6 760.5,149.7 762.6,147.9 764.7,146.1 766.7,144.3 768.8,142.5 770.9,140.7 772.9,138.9 775.0,137.1 777.1,135.3 779.1,133.4 781.2,131.6 783.3,129.8 785.3,128.0 787.4,126.2 789.5,124.4 791.5,122.6 793.6,120.8 795.7,119.0 797.7,117.1 799.8,115.3 801.9,113.5 803.9,111.7 806.0,109.9 808.1,108.1 810.1,106.3 812.2,104.5 814.3,102.7 816.3,100.8 818.4,99.0 820.5,97.2 822.5,95.4 824.6,93.6 826.7,91.8 828.7,90.0 830.8,88.2 832.9,86.4"/>
<line x1="886" y1="60" x2="902" y2="60" stroke="#2a7fff" stroke-width="2"/>
<circle cx="894.0" cy="60.0" r="3" fill="#2a7fff"/>
<text class="label" x="908" y="64">clustered</text>
<line x1="886" y1="78" x2="902" y2="78" stroke="#22a06b" stroke-width="2"/>
<circle cx="894.0" cy="78.0" r="3" fill="#22a06b"/>
<text class="label" x="908" y="82">uniform</text>
<line x1="886" y1="96" x2="902" y2="96" stroke="#e05d10" stroke-width="2"/>
<circle cx="894.0" cy="96.0" r="3" fill="#e05d10"/>
<text class="label" x="908" y="100">spread</text>
<line x1="886" y1="114" x2="902" y2="114" stroke="#9b59b6" stroke-width="2"/>
<circle cx="894.0" cy="114.0" r="3" fill="#9b59b6"/>
<text class="label" x="908" y="118">zipfian</text>
<line x1="886" y1="132" x2="902" y2="132" stroke="#c0392b" stroke-width="2"/>
<circle cx="894.0" cy="132.0" r="3" fill="#c0392b"/>
<text class="label" x="908" y="136">temporal</text>
<text x="480" y="590" text-anchor="middle">Normalized Key Position</text>
<text transform="translate(16,295) rotate(-90)" text-anchor="middle">Cumulative Fraction</text>
</svg>
