<svg xmlns="http://www.w3.org/2000/svg" width="1020" height="600" viewBox="0 0 1020 600">
<style>text{font-family:Menlo,Monaco,monospace;font-size:12px;fill:#222} .axis{stroke:#333;stroke-width:1} .grid{stroke:#eee;stroke-width:0.5} .label{font-size:11px;fill:#444}</style>
<text x="510" y="28" text-anchor="middle" style="font-size:14px;font-weight:bold">Key Density — clustered (n=65536, 200 bins)</text>
<line class="axis" x1="90.0" y1="550.0" x2="870.0" y2="550.0"/>
<line class="axis" x1="90.0" y1="40.0" x2="90.0" y2="550.0"/>
<line class="grid" x1="90.0" y1="550.0" x2="870.0" y2="550.0"/>
<text class="label" x="82.0" y="554.0" text-anchor="end">0</text>
<line class="grid" x1="90.0" y1="457.3" x2="870.0" y2="457.3"/>
<text class="label" x="82.0" y="461.3" text-anchor="end">0.20</text>
<line class="grid" x1="90.0" y1="364.5" x2="870.0" y2="364.5"/>
<text class="label" x="82.0" y="368.5" text-anchor="end">0.40</text>
<line class="grid" x1="90.0" y1="271.8" x2="870.0" y2="271.8"/>
<text class="label" x="82.0" y="275.8" text-anchor="end">0.60</text>
<line class="grid" x1="90.0" y1="179.1" x2="870.0" y2="179.1"/>
<text class="label" x="82.0" y="183.1" text-anchor="end">0.80</text>
<line class="grid" x1="90.0" y1="86.4" x2="870.0" y2="86.4"/>
<text class="label" x="82.0" y="90.4" text-anchor="end">1</text>
<line class="grid" x1="90.0" y1="40.0" x2="90.0" y2="550.0"/>
<text class="label" x="90.0" y="566.0" text-anchor="middle">0</text>
<line class="grid" x1="164.5" y1="40.0" x2="164.5" y2="550.0"/>
<text class="label" x="164.5" y="566.0" text-anchor="middle">0.10</text>
<line class="grid" x1="239.0" y1="40.0" x2="239.0" y2="550.0"/>
<text class="label" x="239.0" y="566.0" text-anchor="middle">0.20</text>
<line class="grid" x1="313.4" y1="40.0" x2="313.4" y2="550.0"/>
<text class="label" x="313.4" y="566.0" text-anchor="middle">0.30</text>
<line class="grid" x1="387.9" y1="40.0" x2="387.9" y2="550.0"/>
<text class="label" x="387.9" y="566.0" text-anchor="middle">0.40</text>
<line class="grid" x1="462.4" y1="40.0" x2="462.4" y2="550.0"/>
<text class="label" x="462.4" y="566.0" text-anchor="middle">0.50</text>
<line class="grid" x1="536.9" y1="40.0" x2="536.9" y2="550.0"/>
<text class="label" x="536.9" y="566.0" text-anchor="middle">0.60</text>
<line class="grid" x1="611.4" y1="40.0" x2="611.4" y2="550.0"/>
<text class="label" x="611.4" y="566.0" text-anchor="middle">0.70</text>
<line class="grid" x1="685.8" y1="40.0" x2="685.8" y2="550.0"/>
<text class="label" x="685.8" y="566.0" text-anchor="middle">0.80</text>
<line class="grid" x1="760.3" y1="40.0" x2="760.3" y2="550.0"/>
<text class="label" x="760.3" y="566.0" text-anchor="middle">0.90</text>
<line class="grid" x1="834.8" y1="40.0" x2="834.8" y2="550.0"/>
<text class="label" x="834.8" y="566.0" text-anchor="middle">1.00</text>
<polyline fill="none" stroke="#2a7fff" stroke-width="2" points="91.9,548.9 95.6,549.3 99.3,549.2 103.0,549.3 106.8,549.2 110.5,549.1 114.2,549.3 117.9,549.4 121.7,549.2 125.4,549.2 129.1,549.1 132.8,549.0 136.6,549.4 140.3,549.2 144.0,549.4 147.7,549.3 151.4,549.1 155.2,549.0 158.9,549.2 162.6,549.3 166.3,549.0 170.1,549.3 173.8,549.2 177.5,549.1 181.2,549.2 185.0,451.1 188.7,549.2 192.4,549.2 196.1,549.2 199.9,549.5 203.6,86.4 207.3,549.2 211.0,549.3 214.8,549.3 218.5,549.2 222.2,549.2 225.9,549.2 229.7,549.1 233.4,549.4 237.1,549.3 240.8,549.2 244.5,549.4 248.3,549.3 252.0,549.2 255.7,549.1 259.4,549.3 263.2,549.3 266.9,549.1 270.6,549.3 274.3,549.3 278.1,549.3 281.8,549.2 285.5,549.1 289.2,549.3 293.0,549.3 296.7,549.2 300.4,549.3 304.1,549.3 307.9,527.1 311.6,549.2 315.3,549.2 319.0,549.3 322.8,549.2 326.5,549.2 330.2,549.2 333.9,549.1 337.6,549.0 341.4,549.5 345.1,549.3 348.8,549.0 352.5,549.3 356.3,549.2 360.0,549.1 363.7,549.3 367.4,549.1 371.2,361.9 374.9,549.0 378.6,549.4 382.3,549.3 386.1,549.3 389.8,549.2 393.5,549.3 397.2,549.3 401.0,549.4 404.7,549.2 408.4,549.1 412.1,549.2 415.9,549.0 419.6,549.3 423.3,549.2 427.0,549.1 430.7,549.4 434.5,549.4 438.2,549.3 441.9,549.4 445.6,549.2 449.4,549.2 453.1,549.4 456.8,549.2 460.5,549.2 464.3,549.4 468.0,549.4 471.7,549.2 475.4,549.3 479.2,549.2 482.9,549.2 486.6,549.2 490.3,549.1 494.1,549.3 497.8,549.1 501.5,549.2 505.2,549.1 509.0,549.1 512.7,549.2 516.4,549.4 520.1,549.2 523.9,549.2 527.6,549.3 531.3,549.3 535.0,549.2 538.7,549.2 542.5,549.2 546.2,549.2 549.9,549.4 553.6,549.3 557.4,549.3 561.1,549.1 564.8,549.3 568.5,549.3 572.3,549.4 576.0,549.1 579.7,549.2 583.4,549.2 587.2,549.4 590.9,549.2 594.6,549.2 598.3,549.2 602.1,549.4 605.8,549.2 609.5,549.2 613.2,549.4 617.0,549.3 620.7,549.1 624.4,549.1 628.1,549.2 631.8,549.3 635.6,548.9 639.3,549.2 643.0,549.5 646.7,549.2 650.5,549.2 654.2,549.4 657.9,549.0 661.6,549.3 665.4,549.2 669.1,549.3 672.8,549.4 676.5,549.3 680.3,549.0 684.0,549.1 687.7,549.2 691.4,549.2 695.2,549.4 698.9,549.2 702.6,549.4 706.3,549.3 710.1,549.2 713.8,549.4 717.5,549.3 721.2,549.2 724.9,549.2 728.7,549.4 732.4,549.3 736.1,549.2 739.8,549.2 743.6,549.2 747.3,549.0 751.0,549.3 754.7,445.2 758.5,549.3 762.2,549.1 765.9,549.0 769.6,549.2 773.4,549.0 777.1,549.3 780.8,549.3 784.5,549.2 788.3,549.3 792.0,549.2 795.7,549.2 799.4,549.2 803.2,549.3 806.9,549.2 810.6,549.2 814.3,549.2 818.0,549.1 821.8,549.3 825.5,549.3 829.2,549.3 832.9,549.1"/>
<line x1="886" y1="60" x2="902" y2="60" stroke="#2a7fff" stroke-width="2"/>
<circle cx="894.0" cy="60.0" r="3" fill="#2a7fff"/>
<text class="label" x="908" y="64">clustered</text>
<text x="480" y="590" text-anchor="middle">Normalized Key Position</text>
<text transform="translate(16,295) rotate(-90)" text-anchor="middle">Relative Density</text>
</svg>
