<svg xmlns="http://www.w3.org/2000/svg" width="1020" height="600" viewBox="0 0 1020 600">
<style>text{font-family:Menlo,Monaco,monospace;font-size:12px;fill:#222} .axis{stroke:#333;stroke-width:1} .grid{stroke:#eee;stroke-width:0.5} .label{font-size:11px;fill:#444}</style>
<text x="510" y="28" text-anchor="middle" style="font-size:14px;font-weight:bold">Key Density — uniform (n=65536, 200 bins)</text>
<line class="axis" x1="90.0" y1="550.0" x2="870.0" y2="550.0"/>
<line class="axis" x1="90.0" y1="40.0" x2="90.0" y2="550.0"/>
<line class="grid" x1="90.0" y1="550.0" x2="870.0" y2="550.0"/>
<text class="label" x="82.0" y="554.0" text-anchor="end">0</text>
<line class="grid" x1="90.0" y1="457.3" x2="870.0" y2="457.3"/>
<text class="label" x="82.0" y="461.3" text-anchor="end">0.20</text>
<line class="grid" x1="90.0" y1="364.5" x2="870.0" y2="364.5"/>
<text class="label" x="82.0" y="368.5" text-anchor="end">0.40</text>
<line class="grid" x1="90.0" y1="271.8" x2="870.0" y2="271.8"/>
<text class="label" x="82.0" y="275.8" text-anchor="end">0.60</text>
<line class="grid" x1="90.0" y1="179.1" x2="870.0" y2="179.1"/>
<text class="label" x="82.0" y="183.1" text-anchor="end">0.80</text>
<line class="grid" x1="90.0" y1="86.4" x2="870.0" y2="86.4"/>
<text class="label" x="82.0" y="90.4" text-anchor="end">1</text>
<line class="grid" x1="90.0" y1="40.0" x2="90.0" y2="550.0"/>
<text class="label" x="90.0" y="566.0" text-anchor="middle">0</text>
<line class="grid" x1="164.5" y1="40.0" x2="164.5" y2="550.0"/>
<text class="label" x="164.5" y="566.0" text-anchor="middle">0.10</text>
<line class="grid" x1="239.0" y1="40.0" x2="239.0" y2="550.0"/>
<text class="label" x="239.0" y="566.0" text-anchor="middle">0.20</text>
<line class="grid" x1="313.4" y1="40.0" x2="313.4" y2="550.0"/>
<text class="label" x="313.4" y="566.0" text-anchor="middle">0.30</text>
<line class="grid" x1="387.9" y1="40.0" x2="387.9" y2="550.0"/>
<text class="label" x="387.9" y="566.0" text-anchor="middle">0.40</text>
<line class="grid" x1="462.4" y1="40.0" x2="462.4" y2="550.0"/>
<text class="label" x="462.4" y="566.0" text-anchor="middle">0.50</text>
<line class="grid" x1="536.9" y1="40.0" x2="536.9" y2="550.0"/>
<text class="label" x="536.9" y="566.0" text-anchor="middle">0.60</text>
<line class="grid" x1="611.4" y1="40.0" x2="611.4" y2="550.0"/>
<text class="label" x="611.4" y="566.0" text-anchor="middle">0.70</text>
<line class="grid" x1="685.8" y1="40.0" x2="685.8" y2="550.0"/>
<text class="label" x="685.8" y="566.0" text-anchor="middle">0.80</text>
<line class="grid" x1="760.3" y1="40.0" x2="760.3" y2="550.0"/>
<text class="label" x="760.3" y="566.0" text-anchor="middle">0.90</text>
<line class="grid" x1="834.8" y1="40.0" x2="834.8" y2="550.0"/>
<text class="label" x="834.8" y="566.0" text-anchor="middle">1.00</text>
<polyline fill="none" stroke="#22a06b" stroke-width="2" points="91.9,149.7 95.6,147.3 99.3,176.0 103.0,119.8 106.8,171.2 110.5,152.1 114.2,158.1 117.9,154.5 121.7,185.5 125.4,107.9 129.1,176.0 132.8,152.1 136.6,183.2 140.3,115.0 144.0,156.9 147.7,124.6 151.4,152.1 155.2,116.2 158.9,195.1 162.6,153.3 166.3,129.4 170.1,197.5 173.8,186.7 177.5,167.6 181.2,185.5 185.0,162.8 188.7,189.1 192.4,166.4 196.1,166.4 199.9,156.9 203.6,106.7 207.3,129.4 211.0,164.0 214.8,146.1 218.5,180.8 222.2,165.2 225.9,184.3 229.7,144.9 233.4,196.3 237.1,173.6 240.8,159.3 244.5,168.8 248.3,166.4 252.0,207.1 255.7,125.8 259.4,127.0 263.2,141.3 266.9,138.9 270.6,158.1 274.3,190.3 278.1,165.2 281.8,158.1 285.5,121.0 289.2,182.0 293.0,137.7 296.7,166.4 300.4,148.5 304.1,184.3 307.9,190.3 311.6,162.8 315.3,165.2 319.0,161.6 322.8,119.8 326.5,133.0 330.2,131.8 333.9,153.3 337.6,141.3 341.4,110.3 345.1,146.1 348.8,183.2 352.5,161.6 356.3,137.7 360.0,192.7 363.7,122.2 367.4,146.1 371.2,172.4 374.9,112.7 378.6,153.3 382.3,154.5 386.1,159.3 389.8,204.7 393.5,191.5 397.2,148.5 401.0,184.3 404.7,156.9 408.4,189.1 412.1,134.2 415.9,86.4 419.6,170.0 423.3,149.7 427.0,147.3 430.7,161.6 434.5,167.6 438.2,138.9 441.9,192.7 445.6,176.0 449.4,164.0 453.1,165.2 456.8,156.9 460.5,196.3 464.3,143.7 468.0,148.5 471.7,162.8 475.4,164.0 479.2,150.9 482.9,185.5 486.6,140.1 490.3,160.4 494.1,144.9 497.8,190.3 501.5,141.3 505.2,162.8 509.0,173.6 512.7,119.8 516.4,180.8 520.1,205.9 523.9,144.9 527.6,144.9 531.3,174.8 535.0,182.0 538.7,153.3 542.5,171.2 546.2,160.4 549.9,161.6 553.6,148.5 557.4,189.1 561.1,159.3 564.8,160.4 568.5,147.3 572.3,166.4 576.0,174.8 579.7,110.3 583.4,112.7 587.2,164.0 590.9,178.4 594.6,160.4 598.3,149.7 602.1,174.8 605.8,135.4 609.5,176.0 613.2,185.5 617.0,165.2 620.7,148.5 624.4,124.6 628.1,166.4 631.8,155.7 635.6,103.1 639.3,167.6 643.0,161.6 646.7,180.8 650.5,180.8 654.2,189.1 657.9,107.9 661.6,136.6 665.4,208.2 669.1,198.7 672.8,148.5 676.5,148.5 680.3,179.6 684.0,161.6 687.7,144.9 691.4,142.5 695.2,133.0 698.9,191.5 702.6,111.5 706.3,130.6 710.1,119.8 713.8,129.4 717.5,136.6 721.2,177.2 724.9,179.6 728.7,137.7 732.4,179.6 736.1,180.8 739.8,155.7 743.6,167.6 747.3,187.9 751.0,159.3 754.7,146.1 758.5,174.8 762.2,141.3 765.9,179.6 769.6,173.6 773.4,156.9 777.1,160.4 780.8,140.1 784.5,155.7 788.3,142.5 792.0,182.0 795.7,165.2 799.4,167.6 803.2,170.0 806.9,156.9 810.6,144.9 814.3,159.3 818.0,172.4 821.8,119.8 825.5,192.7 829.2,179.6 832.9,161.6"/>
<line x1="886" y1="60" x2="902" y2="60" stroke="#22a06b" stroke-width="2"/>
<circle cx="894.0" cy="60.0" r="3" fill="#22a06b"/>
<text class="label" x="908" y="64">uniform</text>
<text x="480" y="590" text-anchor="middle">Normalized Key Position</text>
<text transform="translate(16,295) rotate(-90)" text-anchor="middle">Relative Density</text>
</svg>
