<svg xmlns="http://www.w3.org/2000/svg" width="1020" height="600" viewBox="0 0 1020 600">
<style>text{font-family:Menlo,Monaco,monospace;font-size:12px;fill:#222} .axis{stroke:#333;stroke-width:1} .grid{stroke:#eee;stroke-width:0.5} .label{font-size:11px;fill:#444}</style>
<text x="510" y="28" text-anchor="middle" style="font-size:14px;font-weight:bold">Key Density — spread (n=65536, 200 bins)</text>
<line class="axis" x1="90.0" y1="550.0" x2="870.0" y2="550.0"/>
<line class="axis" x1="90.0" y1="40.0" x2="90.0" y2="550.0"/>
<line class="grid" x1="90.0" y1="550.0" x2="870.0" y2="550.0"/>
<text class="label" x="82.0" y="554.0" text-anchor="end">0</text>
<line class="grid" x1="90.0" y1="457.3" x2="870.0" y2="457.3"/>
<text class="label" x="82.0" y="461.3" text-anchor="end">0.20</text>
<line class="grid" x1="90.0" y1="364.5" x2="870.0" y2="364.5"/>
<text class="label" x="82.0" y="368.5" text-anchor="end">0.40</text>
<line class="grid" x1="90.0" y1="271.8" x2="870.0" y2="271.8"/>
<text class="label" x="82.0" y="275.8" text-anchor="end">0.60</text>
<line class="grid" x1="90.0" y1="179.1" x2="870.0" y2="179.1"/>
<text class="label" x="82.0" y="183.1" text-anchor="end">0.80</text>
<line class="grid" x1="90.0" y1="86.4" x2="870.0" y2="86.4"/>
<text class="label" x="82.0" y="90.4" text-anchor="end">1</text>
<line class="grid" x1="90.0" y1="40.0" x2="90.0" y2="550.0"/>
<text class="label" x="90.0" y="566.0" text-anchor="middle">0</text>
<line class="grid" x1="164.5" y1="40.0" x2="164.5" y2="550.0"/>
<text class="label" x="164.5" y="566.0" text-anchor="middle">0.10</text>
<line class="grid" x1="239.0" y1="40.0" x2="239.0" y2="550.0"/>
<text class="label" x="239.0" y="566.0" text-anchor="middle">0.20</text>
<line class="grid" x1="313.4" y1="40.0" x2="313.4" y2="550.0"/>
<text class="label" x="313.4" y="566.0" text-anchor="middle">0.30</text>
<line class="grid" x1="387.9" y1="40.0" x2="387.9" y2="550.0"/>
<text class="label" x="387.9" y="566.0" text-anchor="middle">0.40</text>
<line class="grid" x1="462.4" y1="40.0" x2="462.4" y2="550.0"/>
<text class="label" x="462.4" y="566.0" text-anchor="middle">0.50</text>
<line class="grid" x1="536.9" y1="40.0" x2="536.9" y2="550.0"/>
<text class="label" x="536.9" y="566.0" text-anchor="middle">0.60</text>
<line class="grid" x1="611.4" y1="40.0" x2="611.4" y2="550.0"/>
<text class="label" x="611.4" y="566.0" text-anchor="middle">0.70</text>
<line class="grid" x1="685.8" y1="40.0" x2="685.8" y2="550.0"/>
<text class="label" x="685.8" y="566.0" text-anchor="middle">0.80</text>
<line class="grid" x1="760.3" y1="40.0" x2="760.3" y2="550.0"/>
<text class="label" x="760.3" y="566.0" text-anchor="middle">0.90</text>
<line class="grid" x1="834.8" y1="40.0" x2="834.8" y2="550.0"/>
<text class="label" x="834.8" y="566.0" text-anchor="middle">1.00</text>
<polyline fill="none" stroke="#e05d10" stroke-width="2" points="91.9,86.4 95.6,86.4 99.3,86.4 103.0,87.8 106.8,86.4 110.5,86.4 114.2,87.8 117.9,86.4 121.7,86.4 125.4,87.8 129.1,86.4 132.8,86.4 136.6,87.8 140.3,86.4 144.0,86.4 147.7,87.8 151.4,86.4 155.2,86.4 158.9,87.8 162.6,86.4 166.3,86.4 170.1,87.8 173.8,86.4 177.5,86.4 181.2,87.8 185.0,86.4 188.7,86.4 192.4,87.8 196.1,86.4 199.9,86.4 203.6,87.8 207.3,86.4 211.0,86.4 214.8,87.8 218.5,86.4 222.2,86.4 225.9,87.8 229.7,86.4 233.4,86.4 237.1,87.8 240.8,86.4 244.5,86.4 248.3,86.4 252.0,87.8 255.7,86.4 259.4,86.4 263.2,87.8 266.9,86.4 270.6,86.4 274.3,87.8 278.1,86.4 281.8,86.4 285.5,87.8 289.2,86.4 293.0,86.4 296.7,87.8 300.4,86.4 304.1,86.4 307.9,87.8 311.6,86.4 315.3,86.4 319.0,87.8 322.8,86.4 326.5,86.4 330.2,87.8 333.9,86.4 337.6,86.4 341.4,87.8 345.1,86.4 348.8,86.4 352.5,87.8 356.3,86.4 360.0,86.4 363.7,87.8 367.4,86.4 371.2,86.4 374.9,87.8 378.6,86.4 382.3,86.4 386.1,87.8 389.8,86.4 393.5,86.4 397.2,86.4 401.0,87.8 404.7,86.4 408.4,86.4 412.1,87.8 415.9,86.4 419.6,86.4 423.3,87.8 427.0,86.4 430.7,86.4 434.5,87.8 438.2,86.4 441.9,86.4 445.6,87.8 449.4,86.4 453.1,86.4 456.8,87.8 460.5,86.4 464.3,86.4 468.0,87.8 471.7,86.4 475.4,86.4 479.2,87.8 482.9,86.4 486.6,86.4 490.3,87.8 494.1,86.4 497.8,86.4 501.5,87.8 505.2,86.4 509.0,86.4 512.7,87.8 516.4,86.4 520.1,86.4 523.9,87.8 527.6,86.4 531.3,86.4 535.0,87.8 538.7,86.4 542.5,86.4 546.2,86.4 549.9,87.8 553.6,86.4 557.4,86.4 561.1,87.8 564.8,86.4 568.5,86.4 572.3,87.8 576.0,86.4 579.7,86.4 583.4,87.8 587.2,86.4 590.9,86.4 594.6,87.8 598.3,86.4 602.1,86.4 605.8,87.8 609.5,86.4 613.2,86.4 617.0,87.8 620.7,86.4 624.4,86.4 628.1,87.8 631.8,86.4 635.6,86.4 639.3,87.8 643.0,86.4 646.7,86.4 650.5,87.8 654.2,86.4 657.9,86.4 661.6,87.8 665.4,86.4 669.1,86.4 672.8,87.8 676.5,86.4 680.3,86.4 684.0,87.8 687.7,86.4 691.4,86.4 695.2,86.4 698.9,87.8 702.6,86.4 706.3,86.4 710.1,87.8 713.8,86.4 717.5,86.4 721.2,87.8 724.9,86.4 728.7,86.4 732.4,87.8 736.1,86.4 739.8,86.4 743.6,87.8 747.3,86.4 751.0,86.4 754.7,87.8 758.5,86.4 762.2,86.4 765.9,87.8 769.6,86.4 773.4,86.4 777.1,87.8 780.8,86.4 784.5,86.4 788.3,87.8 792.0,86.4 795.7,86.4 799.4,87.8 803.2,86.4 806.9,86.4 810.6,87.8 814.3,86.4 818.0,86.4 821.8,87.8 825.5,86.4 829.2,86.4 832.9,86.4"/>
<line x1="886" y1="60" x2="902" y2="60" stroke="#e05d10" stroke-width="2"/>
<circle cx="894.0" cy="60.0" r="3" fill="#e05d10"/>
<text class="label" x="908" y="64">spread</text>
<text x="480" y="590" text-anchor="middle">Normalized Key Position</text>
<text transform="translate(16,295) rotate(-90)" text-anchor="middle">Relative Density</text>
</svg>
