<svg xmlns="http://www.w3.org/2000/svg" width="1020" height="600" viewBox="0 0 1020 600">
<style>text{font-family:Menlo,Monaco,monospace;font-size:12px;fill:#222} .axis{stroke:#333;stroke-width:1} .grid{stroke:#eee;stroke-width:0.5} .label{font-size:11px;fill:#444}</style>
<text x="510" y="28" text-anchor="middle" style="font-size:14px;font-weight:bold">Key Density — sosd_books (n=199999999, 1000 bins)</text>
<line class="axis" x1="90.0" y1="550.0" x2="870.0" y2="550.0"/>
<line class="axis" x1="90.0" y1="40.0" x2="90.0" y2="550.0"/>
<line class="grid" x1="90.0" y1="521.7" x2="870.0" y2="521.7"/>
<text class="label" x="82.0" y="525.7" text-anchor="end">10^-8</text>
<line class="grid" x1="90.0" y1="465.0" x2="870.0" y2="465.0"/>
<text class="label" x="82.0" y="469.0" text-anchor="end">10^-7</text>
<line class="grid" x1="90.0" y1="408.3" x2="870.0" y2="408.3"/>
<text class="label" x="82.0" y="412.3" text-anchor="end">10^-6</text>
<line class="grid" x1="90.0" y1="351.7" x2="870.0" y2="351.7"/>
<text class="label" x="82.0" y="355.7" text-anchor="end">10^-5</text>
<line class="grid" x1="90.0" y1="295.0" x2="870.0" y2="295.0"/>
<text class="label" x="82.0" y="299.0" text-anchor="end">10^-4</text>
<line class="grid" x1="90.0" y1="238.3" x2="870.0" y2="238.3"/>
<text class="label" x="82.0" y="242.3" text-anchor="end">10^-3</text>
<line class="grid" x1="90.0" y1="181.7" x2="870.0" y2="181.7"/>
<text class="label" x="82.0" y="185.7" text-anchor="end">10^-2</text>
<line class="grid" x1="90.0" y1="125.0" x2="870.0" y2="125.0"/>
<text class="label" x="82.0" y="129.0" text-anchor="end">10^-1</text>
<line class="grid" x1="90.0" y1="68.3" x2="870.0" y2="68.3"/>
<text class="label" x="82.0" y="72.3" text-anchor="end">1</text>
<line class="grid" x1="90.0" y1="40.0" x2="90.0" y2="550.0"/>
<text class="label" x="90.0" y="566.0" text-anchor="middle">0</text>
<line class="grid" x1="164.3" y1="40.0" x2="164.3" y2="550.0"/>
<text class="label" x="164.3" y="566.0" text-anchor="middle">0.10</text>
<line class="grid" x1="238.6" y1="40.0" x2="238.6" y2="550.0"/>
<text class="label" x="238.6" y="566.0" text-anchor="middle">0.20</text>
<line class="grid" x1="313.0" y1="40.0" x2="313.0" y2="550.0"/>
<text class="label" x="313.0" y="566.0" text-anchor="middle">0.30</text>
<line class="grid" x1="387.3" y1="40.0" x2="387.3" y2="550.0"/>
<text class="label" x="387.3" y="566.0" text-anchor="middle">0.40</text>
<line class="grid" x1="461.6" y1="40.0" x2="461.6" y2="550.0"/>
<text class="label" x="461.6" y="566.0" text-anchor="middle">0.50</text>
<line class="grid" x1="535.9" y1="40.0" x2="535.9" y2="550.0"/>
<text class="label" x="535.9" y="566.0" text-anchor="middle">0.60</text>
<line class="grid" x1="610.3" y1="40.0" x2="610.3" y2="550.0"/>
<text class="label" x="610.3" y="566.0" text-anchor="middle">0.70</text>
<line class="grid" x1="684.6" y1="40.0" x2="684.6" y2="550.0"/>
<text class="label" x="684.6" y="566.0" text-anchor="middle">0.80</text>
<line class="grid" x1="758.9" y1="40.0" x2="758.9" y2="550.0"/>
<text class="label" x="758.9" y="566.0" text-anchor="middle">0.90</text>
<line class="grid" x1="833.2" y1="40.0" x2="833.2" y2="550.0"/>
<text class="label" x="833.2" y="566.0" text-anchor="middle">1.00</text>
<polyline fill="none" stroke="#8e44ad" stroke-width="2" points="90.4,68.3 91.1,68.4 91.9,68.3 92.6,68.4 93.3,68.4 94.1,68.4 94.8,68.4 95.6,68.4 96.3,68.4 97.1,68.4 97.8,68.4 98.5,68.4 99.3,68.4 100.0,68.4 100.8,68.4 101.5,68.3 102.3,68.4 103.0,68.4 103.8,68.4 104.5,68.3 105.2,68.4 106.0,68.4 106.7,68.4 107.5,68.4 108.2,68.4 109.0,68.4 109.7,68.4 110.4,68.4 111.2,68.4 111.9,68.5 112.7,68.5 113.4,68.5 114.2,68.6 114.9,68.6 115.6,68.7 116.4,68.8 117.1,68.9 117.9,69.0 118.6,69.1 119.4,69.2 120.1,69.4 120.8,69.5 121.6,69.5 122.3,69.5 123.1,69.9 123.8,70.3 124.6,70.6 125.3,70.9 126.0,71.1 126.8,71.5 127.5,71.8 128.3,71.9 129.0,72.2 129.8,72.5 130.5,72.7 131.3,73.2 132.0,73.5 132.7,74.1 133.5,74.6 134.2,75.4 135.0,76.2 135.7,76.4 136.5,76.5 137.2,76.9 137.9,76.9 138.7,77.2 139.4,77.3 140.2,77.4 140.9,78.0 141.7,78.4 142.4,78.7 143.1,78.6 143.9,78.8 144.6,79.4 145.4,79.5 146.1,79.8 146.9,80.1 147.6,80.4 148.3,80.9 149.1,81.1 149.8,81.5 150.6,81.5 151.3,81.8 152.1,82.3 152.8,82.4 153.5,82.8 154.3,82.7 155.0,83.2 155.8,83.4 156.5,83.7 157.3,84.4 158.0,84.7 158.8,84.7 159.5,84.9 160.2,85.2 161.0,85.7 161.7,86.4 162.5,86.8 163.2,86.8 164.0,87.4 164.7,87.5 165.4,87.7 166.2,87.8 166.9,88.1 167.7,88.4 168.4,88.4 169.2,88.5 169.9,88.8 170.6,89.4 171.4,89.6 172.1,89.5 172.9,89.8 173.6,90.0 174.4,90.3 175.1,90.5 175.8,90.7 176.6,90.7 177.3,91.0 178.1,91.3 178.8,91.2 179.6,92.1 180.3,92.0 181.0,92.4 181.8,93.0 182.5,93.7 183.3,94.4 184.0,94.5 184.8,94.7 185.5,95.2 186.3,95.8 187.0,95.5 187.7,95.5 188.5,95.4 189.2,95.5 190.0,95.4 190.7,95.6 191.5,95.8 192.2,95.4 192.9,95.5 193.7,95.8 194.4,96.4 195.2,96.2 195.9,96.5 196.7,96.3 197.4,96.1 198.1,96.3 198.9,96.2 199.6,96.5 200.4,97.0 201.1,96.8 201.9,97.9 202.6,98.3 203.3,97.8 204.1,98.3 204.8,98.7 205.6,98.6 206.3,99.0 207.1,99.5 207.8,99.3 208.5,99.5 209.3,99.5 210.0,99.5 210.8,100.2 211.5,100.6 212.3,102.2 213.0,103.3 213.8,103.8 214.5,103.8 215.2,104.4 216.0,105.0 216.7,105.0 217.5,105.7 218.2,106.0 219.0,105.9 219.7,106.9 220.4,106.5 221.2,108.2 221.9,108.5 222.7,108.8 223.4,109.2 224.2,109.8 224.9,111.1 225.6,110.9 226.4,110.6 227.1,111.7 227.9,111.4 228.6,113.5 229.4,114.8 230.1,117.2 230.8,119.3 231.6,119.9 232.3,121.5 233.1,120.1 233.8,121.1 234.6,121.6 235.3,124.2 236.0,124.2 236.8,125.2 237.5,125.3 238.3,126.1 239.0,127.0 239.8,129.0 240.5,129.5 241.3,130.4 242.0,131.9 242.7,132.8 243.5,136.3 244.2,134.9 245.0,139.0 245.7,137.7 246.5,139.0 247.2,141.7 247.9,142.6 248.7,143.0 249.4,146.3 250.2,147.9 250.9,147.9 251.7,146.9 252.4,144.5 253.1,147.3 253.9,151.2 254.6,149.8 255.4,148.9 256.1,148.0 256.9,147.5 257.6,151.0 258.3,150.6 259.1,153.2 259.8,156.2 260.6,155.2 261.3,152.9 262.1,156.6 262.8,150.5 263.5,146.4 264.3,147.4 265.0,148.5 265.8,150.6 266.5,144.5 267.3,146.1 268.0,142.0 268.8,140.3 269.5,144.2 270.2,142.9 271.0,139.8 271.7,143.2 272.5,145.3 273.2,158.0 274.0,171.0 274.7,184.5 275.4,218.8 276.2,422.6 276.9,521.7 277.7,521.7 278.4,521.7 279.2,521.7 279.9,521.7 280.6,521.7 281.4,521.7 282.1,521.7 282.9,521.7 283.6,521.7 284.4,521.7 285.1,521.7 285.8,521.7 286.6,521.7 287.3,521.7 288.1,521.7 288.8,521.7 289.6,521.7 290.3,521.7 291.0,521.7 291.8,521.7 292.5,521.7 293.3,521.7 294.0,521.7 294.8,521.7 295.5,521.7 296.3,521.7 297.0,521.7 297.7,521.7 298.5,521.7 299.2,521.7 300.0,521.7 300.7,521.7 301.5,521.7 302.2,521.7 302.9,521.7 303.7,521.7 304.4,521.7 305.2,521.7 305.9,521.7 306.7,521.7 307.4,521.7 308.1,521.7 308.9,521.7 309.6,521.7 310.4,521.7 311.1,521.7 311.9,521.7 312.6,521.7 313.3,521.7 314.1,521.7 314.8,521.7 315.6,521.7 316.3,521.7 317.1,521.7 317.8,521.7 318.5,521.7 319.3,521.7 320.0,521.7 320.8,521.7 321.5,521.7 322.3,521.7 323.0,521.7 323.8,521.7 324.5,521.7 325.2,521.7 326.0,521.7 326.7,521.7 327.5,521.7 328.2,521.7 329.0,521.7 329.7,521.7 330.4,521.7 331.2,521.7 331.9,521.7 332.7,521.7 333.4,521.7 334.2,521.7 334.9,521.7 335.6,521.7 336.4,521.7 337.1,521.7 337.9,422.6 338.6,521.7 339.4,521.7 340.1,521.7 340.8,521.7 341.6,521.7 342.3,521.7 343.1,521.7 343.8,521.7 344.6,521.7 345.3,521.7 346.0,521.7 346.8,521.7 347.5,521.7 348.3,521.7 349.0,521.7 349.8,521.7 350.5,521.7 351.3,521.7 352.0,521.7 352.7,521.7 353.5,521.7 354.2,521.7 355.0,521.7 355.7,521.7 356.5,521.7 357.2,521.7 357.9,521.7 358.7,521.7 359.4,521.7 360.2,521.7 360.9,521.7 361.7,521.7 362.4,521.7 363.1,521.7 363.9,521.7 364.6,521.7 365.4,521.7 366.1,521.7 366.9,521.7 367.6,521.7 368.3,521.7 369.1,521.7 369.8,521.7 370.6,521.7 371.3,521.7 372.1,521.7 372.8,521.7 373.5,521.7 374.3,521.7 375.0,521.7 375.8,521.7 376.5,521.7 377.3,521.7 378.0,521.7 378.8,521.7 379.5,521.7 380.2,521.7 381.0,521.7 381.7,521.7 382.5,521.7 383.2,521.7 384.0,521.7 384.7,521.7 385.4,521.7 386.2,521.7 386.9,521.7 387.7,521.7 388.4,521.7 389.2,521.7 389.9,521.7 390.6,521.7 391.4,521.7 392.1,521.7 392.9,521.7 393.6,521.7 394.4,521.7 395.1,521.7 395.8,521.7 396.6,521.7 397.3,521.7 398.1,521.7 398.8,521.7 399.6,422.6 400.3,521.7 401.0,521.7 401.8,521.7 402.5,521.7 403.3,521.7 404.0,521.7 404.8,521.7 405.5,521.7 406.3,521.7 407.0,521.7 407.7,521.7 408.5,521.7 409.2,521.7 410.0,521.7 410.7,521.7 411.5,521.7 412.2,521.7 412.9,521.7 413.7,521.7 414.4,521.7 415.2,521.7 415.9,521.7 416.7,521.7 417.4,521.7 418.1,521.7 418.9,521.7 419.6,521.7 420.4,521.7 421.1,521.7 421.9,521.7 422.6,521.7 423.3,521.7 424.1,521.7 424.8,521.7 425.6,521.7 426.3,521.7 427.1,521.7 427.8,521.7 428.5,521.7 429.3,521.7 430.0,521.7 430.8,521.7 431.5,521.7 432.3,521.7 433.0,521.7 433.8,521.7 434.5,521.7 435.2,521.7 436.0,521.7 436.7,521.7 437.5,521.7 438.2,521.7 439.0,521.7 439.7,521.7 440.4,521.7 441.2,521.7 441.9,521.7 442.7,521.7 443.4,521.7 444.2,521.7 444.9,521.7 445.6,521.7 446.4,521.7 447.1,521.7 447.9,521.7 448.6,521.7 449.4,521.7 450.1,521.7 450.8,521.7 451.6,521.7 452.3,521.7 453.1,521.7 453.8,521.7 454.6,521.7 455.3,521.7 456.0,521.7 456.8,521.7 457.5,521.7 458.3,521.7 459.0,521.7 459.8,521.7 460.5,521.7 461.3,422.6 462.0,521.7 462.7,521.7 463.5,521.7 464.2,521.7 465.0,521.7 465.7,521.7 466.5,521.7 467.2,521.7 467.9,521.7 468.7,521.7 469.4,521.7 470.2,521.7 470.9,521.7 471.7,521.7 472.4,521.7 473.1,521.7 473.9,521.7 474.6,521.7 475.4,521.7 476.1,521.7 476.9,521.7 477.6,521.7 478.3,521.7 479.1,521.7 479.8,521.7 480.6,521.7 481.3,521.7 482.1,521.7 482.8,521.7 483.5,521.7 484.3,521.7 485.0,521.7 485.8,521.7 486.5,521.7 487.3,521.7 488.0,521.7 488.8,521.7 489.5,521.7 490.2,521.7 491.0,521.7 491.7,521.7 492.5,521.7 493.2,521.7 494.0,521.7 494.7,521.7 495.4,521.7 496.2,521.7 496.9,521.7 497.7,521.7 498.4,521.7 499.2,521.7 499.9,521.7 500.6,521.7 501.4,521.7 502.1,521.7 502.9,521.7 503.6,521.7 504.4,521.7 505.1,521.7 505.8,521.7 506.6,521.7 507.3,521.7 508.1,521.7 508.8,521.7 509.6,521.7 510.3,521.7 511.0,521.7 511.8,521.7 512.5,521.7 513.3,521.7 514.0,521.7 514.8,521.7 515.5,521.7 516.3,521.7 517.0,521.7 517.7,521.7 518.5,521.7 519.2,521.7 520.0,521.7 520.7,521.7 521.5,521.7 522.2,521.7 522.9,521.7 523.7,422.6 524.4,521.7 525.2,521.7 525.9,521.7 526.7,521.7 527.4,521.7 528.1,521.7 528.9,521.7 529.6,521.7 530.4,521.7 531.1,521.7 531.9,521.7 532.6,521.7 533.3,521.7 534.1,521.7 534.8,521.7 535.6,521.7 536.3,521.7 537.1,521.7 537.8,521.7 538.5,521.7 539.3,521.7 540.0,521.7 540.8,521.7 541.5,521.7 542.3,521.7 543.0,521.7 543.8,521.7 544.5,521.7 545.2,521.7 546.0,521.7 546.7,521.7 547.5,521.7 548.2,521.7 549.0,521.7 549.7,521.7 550.4,521.7 551.2,521.7 551.9,521.7 552.7,521.7 553.4,521.7 554.2,521.7 554.9,521.7 555.6,521.7 556.4,521.7 557.1,521.7 557.9,521.7 558.6,521.7 559.4,521.7 560.1,521.7 560.8,521.7 561.6,521.7 562.3,521.7 563.1,521.7 563.8,521.7 564.6,521.7 565.3,521.7 566.0,521.7 566.8,521.7 567.5,521.7 568.3,521.7 569.0,521.7 569.8,521.7 570.5,521.7 571.3,521.7 572.0,521.7 572.7,521.7 573.5,521.7 574.2,521.7 575.0,521.7 575.7,521.7 576.5,521.7 577.2,521.7 577.9,521.7 578.7,521.7 579.4,521.7 580.2,521.7 580.9,521.7 581.7,521.7 582.4,521.7 583.1,521.7 583.9,521.7 584.6,521.7 585.4,422.6 586.1,521.7 586.9,521.7 587.6,521.7 588.3,521.7 589.1,521.7 589.8,521.7 590.6,521.7 591.3,521.7 592.1,521.7 592.8,521.7 593.5,521.7 594.3,521.7 595.0,521.7 595.8,521.7 596.5,521.7 597.3,521.7 598.0,521.7 598.8,521.7 599.5,521.7 600.2,521.7 601.0,521.7 601.7,521.7 602.5,521.7 603.2,521.7 604.0,521.7 604.7,521.7 605.4,521.7 606.2,521.7 606.9,521.7 607.7,521.7 608.4,521.7 609.2,521.7 609.9,521.7 610.6,521.7 611.4,521.7 612.1,521.7 612.9,521.7 613.6,521.7 614.4,521.7 615.1,521.7 615.8,521.7 616.6,521.7 617.3,521.7 618.1,521.7 618.8,521.7 619.6,521.7 620.3,521.7 621.0,521.7 621.8,521.7 622.5,521.7 623.3,521.7 624.0,521.7 624.8,521.7 625.5,521.7 626.3,521.7 627.0,521.7 627.7,521.7 628.5,521.7 629.2,521.7 630.0,521.7 630.7,521.7 631.5,521.7 632.2,521.7 632.9,521.7 633.7,521.7 634.4,521.7 635.2,521.7 635.9,521.7 636.7,521.7 637.4,521.7 638.1,521.7 638.9,521.7 639.6,521.7 640.4,521.7 641.1,521.7 641.9,521.7 642.6,521.7 643.3,521.7 644.1,521.7 644.8,521.7 645.6,521.7 646.3,521.7 647.1,422.6 647.8,521.7 648.5,521.7 649.3,521.7 650.0,521.7 650.8,521.7 651.5,521.7 652.3,521.7 653.0,521.7 653.8,521.7 654.5,521.7 655.2,521.7 656.0,521.7 656.7,521.7 657.5,521.7 658.2,521.7 659.0,521.7 659.7,521.7 660.4,521.7 661.2,521.7 661.9,521.7 662.7,521.7 663.4,521.7 664.2,521.7 664.9,521.7 665.6,521.7 666.4,521.7 667.1,521.7 667.9,521.7 668.6,521.7 669.4,521.7 670.1,521.7 670.8,521.7 671.6,521.7 672.3,521.7 673.1,521.7 673.8,521.7 674.6,521.7 675.3,521.7 676.0,521.7 676.8,521.7 677.5,521.7 678.3,521.7 679.0,521.7 679.8,521.7 680.5,521.7 681.3,521.7 682.0,521.7 682.7,521.7 683.5,521.7 684.2,521.7 685.0,521.7 685.7,521.7 686.5,521.7 687.2,521.7 687.9,521.7 688.7,521.7 689.4,521.7 690.2,521.7 690.9,521.7 691.7,521.7 692.4,521.7 693.1,521.7 693.9,521.7 694.6,521.7 695.4,521.7 696.1,521.7 696.9,521.7 697.6,521.7 698.3,521.7 699.1,521.7 699.8,521.7 700.6,521.7 701.3,521.7 702.1,521.7 702.8,521.7 703.5,521.7 704.3,521.7 705.0,521.7 705.8,521.7 706.5,521.7 707.3,521.7 708.0,521.7 708.8,521.7 709.5,422.6 710.2,521.7 711.0,521.7 711.7,521.7 712.5,521.7 713.2,521.7 714.0,521.7 714.7,521.7 715.4,521.7 716.2,521.7 716.9,521.7 717.7,521.7 718.4,521.7 719.2,521.7 719.9,521.7 720.6,521.7 721.4,521.7 722.1,521.7 722.9,521.7 723.6,521.7 724.4,521.7 725.1,521.7 725.8,521.7 726.6,521.7 727.3,521.7 728.1,521.7 728.8,521.7 729.6,521.7 730.3,521.7 731.1,521.7 731.8,521.7 732.5,521.7 733.3,521.7 734.0,521.7 734.8,521.7 735.5,521.7 736.3,521.7 737.0,521.7 737.7,521.7 738.5,521.7 739.2,521.7 740.0,521.7 740.7,521.7 741.5,521.7 742.2,521.7 742.9,521.7 743.7,521.7 744.4,521.7 745.2,521.7 745.9,521.7 746.7,521.7 747.4,521.7 748.1,521.7 748.9,521.7 749.6,521.7 750.4,521.7 751.1,521.7 751.9,521.7 752.6,521.7 753.3,521.7 754.1,521.7 754.8,521.7 755.6,521.7 756.3,521.7 757.1,521.7 757.8,521.7 758.6,521.7 759.3,521.7 760.0,521.7 760.8,521.7 761.5,521.7 762.3,521.7 763.0,521.7 763.8,521.7 764.5,521.7 765.2,521.7 766.0,521.7 766.7,521.7 767.5,521.7 768.2,521.7 769.0,521.7 769.7,521.7 770.4,521.7 771.2,422.6 771.9,521.7 772.7,521.7 773.4,521.7 774.2,521.7 774.9,521.7 775.6,521.7 776.4,521.7 777.1,521.7 777.9,521.7 778.6,521.7 779.4,521.7 780.1,521.7 780.8,521.7 781.6,521.7 782.3,521.7 783.1,521.7 783.8,521.7 784.6,521.7 785.3,521.7 786.1,521.7 786.8,521.7 787.5,521.7 788.3,521.7 789.0,521.7 789.8,521.7 790.5,521.7 791.3,521.7 792.0,521.7 792.7,521.7 793.5,521.7 794.2,521.7 795.0,521.7 795.7,521.7 796.5,521.7 797.2,521.7 797.9,521.7 798.7,521.7 799.4,521.7 800.2,521.7 800.9,521.7 801.7,521.7 802.4,521.7 803.1,521.7 803.9,521.7 804.6,521.7 805.4,521.7 806.1,521.7 806.9,521.7 807.6,521.7 808.3,521.7 809.1,521.7 809.8,521.7 810.6,521.7 811.3,521.7 812.1,521.7 812.8,521.7 813.6,521.7 814.3,521.7 815.0,521.7 815.8,521.7 816.5,521.7 817.3,521.7 818.0,521.7 818.8,521.7 819.5,521.7 820.2,521.7 821.0,521.7 821.7,521.7 822.5,521.7 823.2,521.7 824.0,521.7 824.7,521.7 825.4,521.7 826.2,521.7 826.9,521.7 827.7,521.7 828.4,521.7 829.2,521.7 829.9,521.7 830.6,521.7 831.4,521.7 832.1,521.7 832.9,422.6"/>
<line x1="886" y1="60" x2="902" y2="60" stroke="#8e44ad" stroke-width="2"/>
<circle cx="894.0" cy="60.0" r="3" fill="#8e44ad"/>
<text class="label" x="908" y="64">sosd_books</text>
<text x="480" y="590" text-anchor="middle">Normalized Key Position</text>
<text transform="translate(16,295) rotate(-90)" text-anchor="middle">Relative Density</text>
</svg>
