<svg xmlns="http://www.w3.org/2000/svg" width="1020" height="600" viewBox="0 0 1020 600">
<style>text{font-family:Menlo,Monaco,monospace;font-size:12px;fill:#222} .axis{stroke:#333;stroke-width:1} .grid{stroke:#eee;stroke-width:0.5} .label{font-size:11px;fill:#444}</style>
<text x="510" y="28" text-anchor="middle" style="font-size:14px;font-weight:bold">Key Density — zipfian (n=65536, 200 bins)</text>
<line class="axis" x1="90.0" y1="550.0" x2="870.0" y2="550.0"/>
<line class="axis" x1="90.0" y1="40.0" x2="90.0" y2="550.0"/>
<line class="grid" x1="90.0" y1="550.0" x2="870.0" y2="550.0"/>
<text class="label" x="82.0" y="554.0" text-anchor="end">0</text>
<line class="grid" x1="90.0" y1="457.3" x2="870.0" y2="457.3"/>
<text class="label" x="82.0" y="461.3" text-anchor="end">0.20</text>
<line class="grid" x1="90.0" y1="364.5" x2="870.0" y2="364.5"/>
<text class="label" x="82.0" y="368.5" text-anchor="end">0.40</text>
<line class="grid" x1="90.0" y1="271.8" x2="870.0" y2="271.8"/>
<text class="label" x="82.0" y="275.8" text-anchor="end">0.60</text>
<line class="grid" x1="90.0" y1="179.1" x2="870.0" y2="179.1"/>
<text class="label" x="82.0" y="183.1" text-anchor="end">0.80</text>
<line class="grid" x1="90.0" y1="86.4" x2="870.0" y2="86.4"/>
<text class="label" x="82.0" y="90.4" text-anchor="end">1</text>
<line class="grid" x1="90.0" y1="40.0" x2="90.0" y2="550.0"/>
<text class="label" x="90.0" y="566.0" text-anchor="middle">0</text>
<line class="grid" x1="164.5" y1="40.0" x2="164.5" y2="550.0"/>
<text class="label" x="164.5" y="566.0" text-anchor="middle">0.10</text>
<line class="grid" x1="239.0" y1="40.0" x2="239.0" y2="550.0"/>
<text class="label" x="239.0" y="566.0" text-anchor="middle">0.20</text>
<line class="grid" x1="313.4" y1="40.0" x2="313.4" y2="550.0"/>
<text class="label" x="313.4" y="566.0" text-anchor="middle">0.30</text>
<line class="grid" x1="387.9" y1="40.0" x2="387.9" y2="550.0"/>
<text class="label" x="387.9" y="566.0" text-anchor="middle">0.40</text>
<line class="grid" x1="462.4" y1="40.0" x2="462.4" y2="550.0"/>
<text class="label" x="462.4" y="566.0" text-anchor="middle">0.50</text>
<line class="grid" x1="536.9" y1="40.0" x2="536.9" y2="550.0"/>
<text class="label" x="536.9" y="566.0" text-anchor="middle">0.60</text>
<line class="grid" x1="611.4" y1="40.0" x2="611.4" y2="550.0"/>
<text class="label" x="611.4" y="566.0" text-anchor="middle">0.70</text>
<line class="grid" x1="685.8" y1="40.0" x2="685.8" y2="550.0"/>
<text class="label" x="685.8" y="566.0" text-anchor="middle">0.80</text>
<line class="grid" x1="760.3" y1="40.0" x2="760.3" y2="550.0"/>
<text class="label" x="760.3" y="566.0" text-anchor="middle">0.90</text>
<line class="grid" x1="834.8" y1="40.0" x2="834.8" y2="550.0"/>
<text class="label" x="834.8" y="566.0" text-anchor="middle">1.00</text>
<polyline fill="none" stroke="#9b59b6" stroke-width="2" points="91.9,316.2 95.6,550.0 99.3,550.0 103.0,320.9 106.8,316.5 110.5,550.0 114.2,550.0 117.9,550.0 121.7,550.0 125.4,550.0 129.1,550.0 132.8,315.5 136.6,550.0 140.3,550.0 144.0,88.1 147.7,550.0 151.4,316.8 155.2,550.0 158.9,550.0 162.6,550.0 166.3,550.0 170.1,550.0 173.8,550.0 177.5,550.0 181.2,550.0 185.0,550.0 188.7,86.4 192.4,550.0 196.1,319.7 199.9,543.7 203.6,543.9 207.3,543.0 211.0,531.1 214.8,550.0 218.5,550.0 222.2,550.0 225.9,543.5 229.7,544.2 233.4,550.0 237.1,550.0 240.8,550.0 244.5,550.0 248.3,544.6 252.0,543.5 255.7,550.0 259.4,550.0 263.2,544.1 266.9,543.3 270.6,550.0 274.3,550.0 278.1,531.9 281.8,542.6 285.5,543.6 289.2,550.0 293.0,550.0 296.7,538.0 300.4,550.0 304.1,550.0 307.9,550.0 311.6,550.0 315.3,544.0 319.0,543.1 322.8,536.3 326.5,550.0 330.2,550.0 333.9,550.0 337.6,550.0 341.4,543.3 345.1,538.0 348.8,550.0 352.5,543.9 356.3,543.7 360.0,550.0 363.7,550.0 367.4,543.5 371.2,550.0 374.9,536.7 378.6,543.9 382.3,550.0 386.1,550.0 389.8,550.0 393.5,550.0 397.2,550.0 401.0,535.5 404.7,543.0 408.4,550.0 412.1,550.0 415.9,550.0 419.6,543.2 423.3,550.0 427.0,550.0 430.7,544.2 434.5,550.0 438.2,543.7 441.9,544.3 445.6,544.7 449.4,550.0 453.1,544.0 456.8,537.7 460.5,550.0 464.3,536.7 468.0,550.0 471.7,544.1 475.4,550.0 479.2,543.2 482.9,543.8 486.6,550.0 490.3,543.8 494.1,550.0 497.8,544.3 501.5,550.0 505.2,528.8 509.0,550.0 512.7,550.0 516.4,543.4 520.1,550.0 523.9,550.0 527.6,544.1 531.3,550.0 535.0,542.9 538.7,550.0 542.5,550.0 546.2,550.0 549.9,538.8 553.6,550.0 557.4,543.2 561.1,530.6 564.8,550.0 568.5,550.0 572.3,550.0 576.0,550.0 579.7,550.0 583.4,550.0 587.2,543.7 590.9,543.0 594.6,550.0 598.3,550.0 602.1,543.1 605.8,550.0 609.5,550.0 613.2,550.0 617.0,550.0 620.7,550.0 624.4,543.3 628.1,550.0 631.8,543.1 635.6,544.0 639.3,550.0 643.0,543.5 646.7,550.0 650.5,550.0 654.2,542.9 657.9,550.0 661.6,543.8 665.4,550.0 669.1,543.9 672.8,550.0 676.5,550.0 680.3,550.0 684.0,538.7 687.7,550.0 691.4,550.0 695.2,550.0 698.9,550.0 702.6,550.0 706.3,550.0 710.1,550.0 713.8,550.0 717.5,550.0 721.2,541.8 724.9,542.7 728.7,550.0 732.4,550.0 736.1,550.0 739.8,536.4 743.6,537.4 747.3,550.0 751.0,550.0 754.7,550.0 758.5,550.0 762.2,536.2 765.9,543.5 769.6,544.0 773.4,550.0 777.1,550.0 780.8,550.0 784.5,550.0 788.3,543.7 792.0,550.0 795.7,542.7 799.4,550.0 803.2,550.0 806.9,550.0 810.6,550.0 814.3,550.0 818.0,550.0 821.8,550.0 825.5,537.7 829.2,542.8 832.9,542.5"/>
<line x1="886" y1="60" x2="902" y2="60" stroke="#9b59b6" stroke-width="2"/>
<circle cx="894.0" cy="60.0" r="3" fill="#9b59b6"/>
<text class="label" x="908" y="64">zipfian</text>
<text x="480" y="590" text-anchor="middle">Normalized Key Position</text>
<text transform="translate(16,295) rotate(-90)" text-anchor="middle">Relative Density</text>
</svg>
