<svg xmlns="http://www.w3.org/2000/svg" width="1020" height="600" viewBox="0 0 1020 600">
<style>text{font-family:Menlo,Monaco,monospace;font-size:12px;fill:#222} .axis{stroke:#333;stroke-width:1} .grid{stroke:#eee;stroke-width:0.5} .label{font-size:11px;fill:#444}</style>
<text x="510" y="28" text-anchor="middle" style="font-size:14px;font-weight:bold">Key Density — All Distributions (n=65536, 200 bins)</text>
<line class="axis" x1="90.0" y1="550.0" x2="870.0" y2="550.0"/>
<line class="axis" x1="90.0" y1="40.0" x2="90.0" y2="550.0"/>
<line class="grid" x1="90.0" y1="550.0" x2="870.0" y2="550.0"/>
<text class="label" x="82.0" y="554.0" text-anchor="end">0</text>
<line class="grid" x1="90.0" y1="457.3" x2="870.0" y2="457.3"/>
<text class="label" x="82.0" y="461.3" text-anchor="end">0.20</text>
<line class="grid" x1="90.0" y1="364.5" x2="870.0" y2="364.5"/>
<text class="label" x="82.0" y="368.5" text-anchor="end">0.40</text>
<line class="grid" x1="90.0" y1="271.8" x2="870.0" y2="271.8"/>
<text class="label" x="82.0" y="275.8" text-anchor="end">0.60</text>
<line class="grid" x1="90.0" y1="179.1" x2="870.0" y2="179.1"/>
<text class="label" x="82.0" y="183.1" text-anchor="end">0.80</text>
<line class="grid" x1="90.0" y1="86.4" x2="870.0" y2="86.4"/>
<text class="label" x="82.0" y="90.4" text-anchor="end">1</text>
<line class="grid" x1="90.0" y1="40.0" x2="90.0" y2="550.0"/>
<text class="label" x="90.0" y="566.0" text-anchor="middle">0</text>
<line class="grid" x1="164.5" y1="40.0" x2="164.5" y2="550.0"/>
<text class="label" x="164.5" y="566.0" text-anchor="middle">0.10</text>
<line class="grid" x1="239.0" y1="40.0" x2="239.0" y2="550.0"/>
<text class="label" x="239.0" y="566.0" text-anchor="middle">0.20</text>
<line class="grid" x1="313.4" y1="40.0" x2="313.4" y2="550.0"/>
<text class="label" x="313.4" y="566.0" text-anchor="middle">0.30</text>
<line class="grid" x1="387.9" y1="40.0" x2="387.9" y2="550.0"/>
<text class="label" x="387.9" y="566.0" text-anchor="middle">0.40</text>
<line class="grid" x1="462.4" y1="40.0" x2="462.4" y2="550.0"/>
<text class="label" x="462.4" y="566.0" text-anchor="middle">0.50</text>
<line class="grid" x1="536.9" y1="40.0" x2="536.9" y2="550.0"/>
<text class="label" x="536.9" y="566.0" text-anchor="middle">0.60</text>
<line class="grid" x1="611.4" y1="40.0" x2="611.4" y2="550.0"/>
<text class="label" x="611.4" y="566.0" text-anchor="middle">0.70</text>
<line class="grid" x1="685.8" y1="40.0" x2="685.8" y2="550.0"/>
<text class="label" x="685.8" y="566.0" text-anchor="middle">0.80</text>
<line class="grid" x1="760.3" y1="40.0" x2="760.3" y2="550.0"/>
<text class="label" x="760.3" y="566.0" text-anchor="middle">0.90</text>
<line class="grid" x1="834.8" y1="40.0" x2="834.8" y2="550.0"/>
<text class="label" x="834.8" y="566.0" text-anchor="middle">1.00</text>
<polyline fill="none" stroke="#2a7fff" stroke-width="2" points="91.9,548.9 95.6,549.3 99.3,549.2 103.0,549.3 106.8,549.2 110.5,549.1 114.2,549.3 117.9,549.4 121.7,549.2 125.4,549.2 129.1,549.1 132.8,549.0 136.6,549.4 140.3,549.2 144.0,549.4 147.7,549.3 151.4,549.1 155.2,549.0 158.9,549.2 162.6,549.3 166.3,549.0 170.1,549.3 173.8,549.2 177.5,549.1 181.2,549.2 185.0,451.1 188.7,549.2 192.4,549.2 196.1,549.2 199.9,549.5 203.6,86.4 207.3,549.2 211.0,549.3 214.8,549.3 218.5,549.2 222.2,549.2 225.9,549.2 229.7,549.1 233.4,549.4 237.1,549.3 240.8,549.2 244.5,549.4 248.3,549.3 252.0,549.2 255.7,549.1 259.4,549.3 263.2,549.3 266.9,549.1 270.6,549.3 274.3,549.3 278.1,549.3 281.8,549.2 285.5,549.1 289.2,549.3 293.0,549.3 296.7,549.2 300.4,549.3 304.1,549.3 307.9,527.1 311.6,549.2 315.3,549.2 319.0,549.3 322.8,549.2 326.5,549.2 330.2,549.2 333.9,549.1 337.6,549.0 341.4,549.5 345.1,549.3 348.8,549.0 352.5,549.3 356.3,549.2 360.0,549.1 363.7,549.3 367.4,549.1 371.2,361.9 374.9,549.0 378.6,549.4 382.3,549.3 386.1,549.3 389.8,549.2 393.5,549.3 397.2,549.3 401.0,549.4 404.7,549.2 408.4,549.1 412.1,549.2 415.9,549.0 419.6,549.3 423.3,549.2 427.0,549.1 430.7,549.4 434.5,549.4 438.2,549.3 441.9,549.4 445.6,549.2 449.4,549.2 453.1,549.4 456.8,549.2 460.5,549.2 464.3,549.4 468.0,549.4 471.7,549.2 475.4,549.3 479.2,549.2 482.9,549.2 486.6,549.2 490.3,549.1 494.1,549.3 497.8,549.1 501.5,549.2 505.2,549.1 509.0,549.1 512.7,549.2 516.4,549.4 520.1,549.2 523.9,549.2 527.6,549.3 531.3,549.3 535.0,549.2 538.7,549.2 542.5,549.2 546.2,549.2 549.9,549.4 553.6,549.3 557.4,549.3 561.1,549.1 564.8,549.3 568.5,549.3 572.3,549.4 576.0,549.1 579.7,549.2 583.4,549.2 587.2,549.4 590.9,549.2 594.6,549.2 598.3,549.2 602.1,549.4 605.8,549.2 609.5,549.2 613.2,549.4 617.0,549.3 620.7,549.1 624.4,549.1 628.1,549.2 631.8,549.3 635.6,548.9 639.3,549.2 643.0,549.5 646.7,549.2 650.5,549.2 654.2,549.4 657.9,549.0 661.6,549.3 665.4,549.2 669.1,549.3 672.8,549.4 676.5,549.3 680.3,549.0 684.0,549.1 687.7,549.2 691.4,549.2 695.2,549.4 698.9,549.2 702.6,549.4 706.3,549.3 710.1,549.2 713.8,549.4 717.5,549.3 721.2,549.2 724.9,549.2 728.7,549.4 732.4,549.3 736.1,549.2 739.8,549.2 743.6,549.2 747.3,549.0 751.0,549.3 754.7,445.2 758.5,549.3 762.2,549.1 765.9,549.0 769.6,549.2 773.4,549.0 777.1,549.3 780.8,549.3 784.5,549.2 788.3,549.3 792.0,549.2 795.7,549.2 799.4,549.2 803.2,549.3 806.9,549.2 810.6,549.2 814.3,549.2 818.0,549.1 821.8,549.3 825.5,549.3 829.2,549.3 832.9,549.1"/>
<polyline fill="none" stroke="#22a06b" stroke-width="2" points="91.9,149.7 95.6,147.3 99.3,176.0 103.0,119.8 106.8,171.2 110.5,152.1 114.2,158.1 117.9,154.5 121.7,185.5 125.4,107.9 129.1,176.0 132.8,152.1 136.6,183.2 140.3,115.0 144.0,156.9 147.7,124.6 151.4,152.1 155.2,116.2 158.9,195.1 162.6,153.3 166.3,129.4 170.1,197.5 173.8,186.7 177.5,167.6 181.2,185.5 185.0,162.8 188.7,189.1 192.4,166.4 196.1,166.4 199.9,156.9 203.6,106.7 207.3,129.4 211.0,164.0 214.8,146.1 218.5,180.8 222.2,165.2 225.9,184.3 229.7,144.9 233.4,196.3 237.1,173.6 240.8,159.3 244.5,168.8 248.3,166.4 252.0,207.1 255.7,125.8 259.4,127.0 263.2,141.3 266.9,138.9 270.6,158.1 274.3,190.3 278.1,165.2 281.8,158.1 285.5,121.0 289.2,182.0 293.0,137.7 296.7,166.4 300.4,148.5 304.1,184.3 307.9,190.3 311.6,162.8 315.3,165.2 319.0,161.6 322.8,119.8 326.5,133.0 330.2,131.8 333.9,153.3 337.6,141.3 341.4,110.3 345.1,146.1 348.8,183.2 352.5,161.6 356.3,137.7 360.0,192.7 363.7,122.2 367.4,146.1 371.2,172.4 374.9,112.7 378.6,153.3 382.3,154.5 386.1,159.3 389.8,204.7 393.5,191.5 397.2,148.5 401.0,184.3 404.7,156.9 408.4,189.1 412.1,134.2 415.9,86.4 419.6,170.0 423.3,149.7 427.0,147.3 430.7,161.6 434.5,167.6 438.2,138.9 441.9,192.7 445.6,176.0 449.4,164.0 453.1,165.2 456.8,156.9 460.5,196.3 464.3,143.7 468.0,148.5 471.7,162.8 475.4,164.0 479.2,150.9 482.9,185.5 486.6,140.1 490.3,160.4 494.1,144.9 497.8,190.3 501.5,141.3 505.2,162.8 509.0,173.6 512.7,119.8 516.4,180.8 520.1,205.9 523.9,144.9 527.6,144.9 531.3,174.8 535.0,182.0 538.7,153.3 542.5,171.2 546.2,160.4 549.9,161.6 553.6,148.5 557.4,189.1 561.1,159.3 564.8,160.4 568.5,147.3 572.3,166.4 576.0,174.8 579.7,110.3 583.4,112.7 587.2,164.0 590.9,178.4 594.6,160.4 598.3,149.7 602.1,174.8 605.8,135.4 609.5,176.0 613.2,185.5 617.0,165.2 620.7,148.5 624.4,124.6 628.1,166.4 631.8,155.7 635.6,103.1 639.3,167.6 643.0,161.6 646.7,180.8 650.5,180.8 654.2,189.1 657.9,107.9 661.6,136.6 665.4,208.2 669.1,198.7 672.8,148.5 676.5,148.5 680.3,179.6 684.0,161.6 687.7,144.9 691.4,142.5 695.2,133.0 698.9,191.5 702.6,111.5 706.3,130.6 710.1,119.8 713.8,129.4 717.5,136.6 721.2,177.2 724.9,179.6 728.7,137.7 732.4,179.6 736.1,180.8 739.8,155.7 743.6,167.6 747.3,187.9 751.0,159.3 754.7,146.1 758.5,174.8 762.2,141.3 765.9,179.6 769.6,173.6 773.4,156.9 777.1,160.4 780.8,140.1 784.5,155.7 788.3,142.5 792.0,182.0 795.7,165.2 799.4,167.6 803.2,170.0 806.9,156.9 810.6,144.9 814.3,159.3 818.0,172.4 821.8,119.8 825.5,192.7 829.2,179.6 832.9,161.6"/>
<polyline fill="none" stroke="#e05d10" stroke-width="2" points="91.9,86.4 95.6,86.4 99.3,86.4 103.0,87.8 106.8,86.4 110.5,86.4 114.2,87.8 117.9,86.4 121.7,86.4 125.4,87.8 129.1,86.4 132.8,86.4 136.6,87.8 140.3,86.4 144.0,86.4 147.7,87.8 151.4,86.4 155.2,86.4 158.9,87.8 162.6,86.4 166.3,86.4 170.1,87.8 173.8,86.4 177.5,86.4 181.2,87.8 185.0,86.4 188.7,86.4 192.4,87.8 196.1,86.4 199.9,86.4 203.6,87.8 207.3,86.4 211.0,86.4 214.8,87.8 218.5,86.4 222.2,86.4 225.9,87.8 229.7,86.4 233.4,86.4 237.1,87.8 240.8,86.4 244.5,86.4 248.3,86.4 252.0,87.8 255.7,86.4 259.4,86.4 263.2,87.8 266.9,86.4 270.6,86.4 274.3,87.8 278.1,86.4 281.8,86.4 285.5,87.8 289.2,86.4 293.0,86.4 296.7,87.8 300.4,86.4 304.1,86.4 307.9,87.8 311.6,86.4 315.3,86.4 319.0,87.8 322.8,86.4 326.5,86.4 330.2,87.8 333.9,86.4 337.6,86.4 341.4,87.8 345.1,86.4 348.8,86.4 352.5,87.8 356.3,86.4 360.0,86.4 363.7,87.8 367.4,86.4 371.2,86.4 374.9,87.8 378.6,86.4 382.3,86.4 386.1,87.8 389.8,86.4 393.5,86.4 397.2,86.4 401.0,87.8 404.7,86.4 408.4,86.4 412.1,87.8 415.9,86.4 419.6,86.4 423.3,87.8 427.0,86.4 430.7,86.4 434.5,87.8 438.2,86.4 441.9,86.4 445.6,87.8 449.4,86.4 453.1,86.4 456.8,87.8 460.5,86.4 464.3,86.4 468.0,87.8 471.7,86.4 475.4,86.4 479.2,87.8 482.9,86.4 486.6,86.4 490.3,87.8 494.1,86.4 497.8,86.4 501.5,87.8 505.2,86.4 509.0,86.4 512.7,87.8 516.4,86.4 520.1,86.4 523.9,87.8 527.6,86.4 531.3,86.4 535.0,87.8 538.7,86.4 542.5,86.4 546.2,86.4 549.9,87.8 553.6,86.4 557.4,86.4 561.1,87.8 564.8,86.4 568.5,86.4 572.3,87.8 576.0,86.4 579.7,86.4 583.4,87.8 587.2,86.4 590.9,86.4 594.6,87.8 598.3,86.4 602.1,86.4 605.8,87.8 609.5,86.4 613.2,86.4 617.0,87.8 620.7,86.4 624.4,86.4 628.1,87.8 631.8,86.4 635.6,86.4 639.3,87.8 643.0,86.4 646.7,86.4 650.5,87.8 654.2,86.4 657.9,86.4 661.6,87.8 665.4,86.4 669.1,86.4 672.8,87.8 676.5,86.4 680.3,86.4 684.0,87.8 687.7,86.4 691.4,86.4 695.2,86.4 698.9,87.8 702.6,86.4 706.3,86.4 710.1,87.8 713.8,86.4 717.5,86.4 721.2,87.8 724.9,86.4 728.7,86.4 732.4,87.8 736.1,86.4 739.8,86.4 743.6,87.8 747.3,86.4 751.0,86.4 754.7,87.8 758.5,86.4 762.2,86.4 765.9,87.8 769.6,86.4 773.4,86.4 777.1,87.8 780.8,86.4 784.5,86.4 788.3,87.8 792.0,86.4 795.7,86.4 799.4,87.8 803.2,86.4 806.9,86.4 810.6,87.8 814.3,86.4 818.0,86.4 821.8,87.8 825.5,86.4 829.2,86.4 832.9,86.4"/>
<polyline fill="none" stroke="#9b59b6" stroke-width="2" points="91.9,316.2 95.6,550.0 99.3,550.0 103.0,320.9 106.8,316.5 110.5,550.0 114.2,550.0 117.9,550.0 121.7,550.0 125.4,550.0 129.1,550.0 132.8,315.5 136.6,550.0 140.3,550.0 144.0,88.1 147.7,550.0 151.4,316.8 155.2,550.0 158.9,550.0 162.6,550.0 166.3,550.0 170.1,550.0 173.8,550.0 177.5,550.0 181.2,550.0 185.0,550.0 188.7,86.4 192.4,550.0 196.1,319.7 199.9,543.7 203.6,543.9 207.3,543.0 211.0,531.1 214.8,550.0 218.5,550.0 222.2,550.0 225.9,543.5 229.7,544.2 233.4,550.0 237.1,550.0 240.8,550.0 244.5,550.0 248.3,544.6 252.0,543.5 255.7,550.0 259.4,550.0 263.2,544.1 266.9,543.3 270.6,550.0 274.3,550.0 278.1,531.9 281.8,542.6 285.5,543.6 289.2,550.0 293.0,550.0 296.7,538.0 300.4,550.0 304.1,550.0 307.9,550.0 311.6,550.0 315.3,544.0 319.0,543.1 322.8,536.3 326.5,550.0 330.2,550.0 333.9,550.0 337.6,550.0 341.4,543.3 345.1,538.0 348.8,550.0 352.5,543.9 356.3,543.7 360.0,550.0 363.7,550.0 367.4,543.5 371.2,550.0 374.9,536.7 378.6,543.9 382.3,550.0 386.1,550.0 389.8,550.0 393.5,550.0 397.2,550.0 401.0,535.5 404.7,543.0 408.4,550.0 412.1,550.0 415.9,550.0 419.6,543.2 423.3,550.0 427.0,550.0 430.7,544.2 434.5,550.0 438.2,543.7 441.9,544.3 445.6,544.7 449.4,550.0 453.1,544.0 456.8,537.7 460.5,550.0 464.3,536.7 468.0,550.0 471.7,544.1 475.4,550.0 479.2,543.2 482.9,543.8 486.6,550.0 490.3,543.8 494.1,550.0 497.8,544.3 501.5,550.0 505.2,528.8 509.0,550.0 512.7,550.0 516.4,543.4 520.1,550.0 523.9,550.0 527.6,544.1 531.3,550.0 535.0,542.9 538.7,550.0 542.5,550.0 546.2,550.0 549.9,538.8 553.6,550.0 557.4,543.2 561.1,530.6 564.8,550.0 568.5,550.0 572.3,550.0 576.0,550.0 579.7,550.0 583.4,550.0 587.2,543.7 590.9,543.0 594.6,550.0 598.3,550.0 602.1,543.1 605.8,550.0 609.5,550.0 613.2,550.0 617.0,550.0 620.7,550.0 624.4,543.3 628.1,550.0 631.8,543.1 635.6,544.0 639.3,550.0 643.0,543.5 646.7,550.0 650.5,550.0 654.2,542.9 657.9,550.0 661.6,543.8 665.4,550.0 669.1,543.9 672.8,550.0 676.5,550.0 680.3,550.0 684.0,538.7 687.7,550.0 691.4,550.0 695.2,550.0 698.9,550.0 702.6,550.0 706.3,550.0 710.1,550.0 713.8,550.0 717.5,550.0 721.2,541.8 724.9,542.7 728.7,550.0 732.4,550.0 736.1,550.0 739.8,536.4 743.6,537.4 747.3,550.0 751.0,550.0 754.7,550.0 758.5,550.0 762.2,536.2 765.9,543.5 769.6,544.0 773.4,550.0 777.1,550.0 780.8,550.0 784.5,550.0 788.3,543.7 792.0,550.0 795.7,542.7 799.4,550.0 803.2,550.0 806.9,550.0 810.6,550.0 814.3,550.0 818.0,550.0 821.8,550.0 825.5,537.7 829.2,542.8 832.9,542.5"/>
<polyline fill="none" stroke="#c0392b" stroke-width="2" points="91.9,504.7 95.6,494.7 99.3,510.8 103.0,507.8 106.8,497.7 110.5,504.7 114.2,510.8 117.9,507.8 121.7,512.8 125.4,502.7 129.1,506.8 132.8,500.7 136.6,497.7 140.3,497.7 144.0,491.7 147.7,506.8 151.4,504.7 155.2,499.7 158.9,502.7 162.6,498.7 166.3,501.7 170.1,515.8 173.8,513.8 177.5,505.7 181.2,509.8 185.0,498.7 188.7,503.7 192.4,503.7 196.1,495.7 199.9,508.8 203.6,509.8 207.3,501.7 211.0,508.8 214.8,502.7 218.5,515.8 222.2,497.7 225.9,493.7 229.7,487.6 233.4,501.7 237.1,507.8 240.8,504.7 244.5,501.7 248.3,507.8 252.0,502.7 255.7,500.7 259.4,509.8 263.2,511.8 266.9,504.7 270.6,499.7 274.3,505.7 278.1,500.7 281.8,499.7 285.5,506.8 289.2,498.7 293.0,497.7 296.7,500.7 300.4,502.7 304.1,503.7 307.9,501.7 311.6,486.6 315.3,506.8 319.0,493.7 322.8,502.7 326.5,502.7 330.2,120.6 333.9,87.4 337.6,86.4 341.4,87.4 345.1,87.4 348.8,87.4 352.5,86.4 356.3,87.4 360.0,87.4 363.7,86.4 367.4,87.4 371.2,87.4 374.9,88.4 378.6,86.4 382.3,86.4 386.1,87.4 389.8,87.4 393.5,87.4 397.2,87.4 401.0,87.4 404.7,87.4 408.4,86.4 412.1,87.4 415.9,86.4 419.6,88.4 423.3,86.4 427.0,87.4 430.7,86.4 434.5,88.4 438.2,86.4 441.9,87.4 445.6,87.4 449.4,87.4 453.1,86.4 456.8,87.4 460.5,87.4 464.3,87.4 468.0,86.4 471.7,87.4 475.4,87.4 479.2,87.4 482.9,87.4 486.6,86.4 490.3,87.4 494.1,87.4 497.8,87.4 501.5,87.4 505.2,86.4 509.0,87.4 512.7,87.4 516.4,87.4 520.1,87.4 523.9,88.4 527.6,86.4 531.3,86.4 535.0,88.4 538.7,87.4 542.5,86.4 546.2,88.4 549.9,86.4 553.6,87.4 557.4,87.4 561.1,86.4 564.8,87.4 568.5,87.4 572.3,86.4 576.0,88.4 579.7,87.4 583.4,86.4 587.2,87.4 590.9,86.4 594.6,87.4 598.3,87.4 602.1,87.4 605.8,87.4 609.5,87.4 613.2,86.4 617.0,87.4 620.7,87.4 624.4,87.4 628.1,86.4 631.8,87.4 635.6,87.4 639.3,87.4 643.0,87.4 646.7,87.4 650.5,87.4 654.2,87.4 657.9,87.4 661.6,87.4 665.4,86.4 669.1,87.4 672.8,87.4 676.5,87.4 680.3,86.4 684.0,87.4 687.7,87.4 691.4,87.4 695.2,87.4 698.9,86.4 702.6,87.4 706.3,86.4 710.1,88.4 713.8,87.4 717.5,86.4 721.2,87.4 724.9,86.4 728.7,87.4 732.4,88.4 736.1,86.4 739.8,87.4 743.6,87.4 747.3,87.4 751.0,86.4 754.7,87.4 758.5,87.4 762.2,87.4 765.9,86.4 769.6,87.4 773.4,88.4 777.1,87.4 780.8,87.4 784.5,86.4 788.3,87.4 792.0,87.4 795.7,87.4 799.4,87.4 803.2,86.4 806.9,87.4 810.6,87.4 814.3,87.4 818.0,87.4 821.8,86.4 825.5,87.4 829.2,87.4 832.9,86.4"/>
<line x1="886" y1="60" x2="902" y2="60" stroke="#2a7fff" stroke-width="2"/>
<circle cx="894.0" cy="60.0" r="3" fill="#2a7fff"/>
<text class="label" x="908" y="64">clustered</text>
<line x1="886" y1="78" x2="902" y2="78" stroke="#22a06b" stroke-width="2"/>
<circle cx="894.0" cy="78.0" r="3" fill="#22a06b"/>
<text class="label" x="908" y="82">uniform</text>
<line x1="886" y1="96" x2="902" y2="96" stroke="#e05d10" stroke-width="2"/>
<circle cx="894.0" cy="96.0" r="3" fill="#e05d10"/>
<text class="label" x="908" y="100">spread</text>
<line x1="886" y1="114" x2="902" y2="114" stroke="#9b59b6" stroke-width="2"/>
<circle cx="894.0" cy="114.0" r="3" fill="#9b59b6"/>
<text class="label" x="908" y="118">zipfian</text>
<line x1="886" y1="132" x2="902" y2="132" stroke="#c0392b" stroke-width="2"/>
<circle cx="894.0" cy="132.0" r="3" fill="#c0392b"/>
<text class="label" x="908" y="136">temporal</text>
<text x="480" y="590" text-anchor="middle">Normalized Key Position</text>
<text transform="translate(16,295) rotate(-90)" text-anchor="middle">Relative Density</text>
</svg>
