<svg xmlns="http://www.w3.org/2000/svg" width="1020" height="600" viewBox="0 0 1020 600">
<style>text{font-family:Menlo,Monaco,monospace;font-size:12px;fill:#222} .axis{stroke:#333;stroke-width:1} .grid{stroke:#eee;stroke-width:0.5} .label{font-size:11px;fill:#444}</style>
<text x="510" y="28" text-anchor="middle" style="font-size:14px;font-weight:bold">Key Density — sosd_wiki (n=90437011, 1000 bins)</text>
<line class="axis" x1="90.0" y1="550.0" x2="870.0" y2="550.0"/>
<line class="axis" x1="90.0" y1="40.0" x2="90.0" y2="550.0"/>
<line class="grid" x1="90.0" y1="499.0" x2="870.0" y2="499.0"/>
<text class="label" x="82.0" y="503.0" text-anchor="end">10^-4</text>
<line class="grid" x1="90.0" y1="397.0" x2="870.0" y2="397.0"/>
<text class="label" x="82.0" y="401.0" text-anchor="end">10^-3</text>
<line class="grid" x1="90.0" y1="295.0" x2="870.0" y2="295.0"/>
<text class="label" x="82.0" y="299.0" text-anchor="end">10^-2</text>
<line class="grid" x1="90.0" y1="193.0" x2="870.0" y2="193.0"/>
<text class="label" x="82.0" y="197.0" text-anchor="end">10^-1</text>
<line class="grid" x1="90.0" y1="91.0" x2="870.0" y2="91.0"/>
<text class="label" x="82.0" y="95.0" text-anchor="end">1</text>
<line class="grid" x1="90.0" y1="40.0" x2="90.0" y2="550.0"/>
<text class="label" x="90.0" y="566.0" text-anchor="middle">0</text>
<line class="grid" x1="164.3" y1="40.0" x2="164.3" y2="550.0"/>
<text class="label" x="164.3" y="566.0" text-anchor="middle">0.10</text>
<line class="grid" x1="238.6" y1="40.0" x2="238.6" y2="550.0"/>
<text class="label" x="238.6" y="566.0" text-anchor="middle">0.20</text>
<line class="grid" x1="313.0" y1="40.0" x2="313.0" y2="550.0"/>
<text class="label" x="313.0" y="566.0" text-anchor="middle">0.30</text>
<line class="grid" x1="387.3" y1="40.0" x2="387.3" y2="550.0"/>
<text class="label" x="387.3" y="566.0" text-anchor="middle">0.40</text>
<line class="grid" x1="461.6" y1="40.0" x2="461.6" y2="550.0"/>
<text class="label" x="461.6" y="566.0" text-anchor="middle">0.50</text>
<line class="grid" x1="535.9" y1="40.0" x2="535.9" y2="550.0"/>
<text class="label" x="535.9" y="566.0" text-anchor="middle">0.60</text>
<line class="grid" x1="610.3" y1="40.0" x2="610.3" y2="550.0"/>
<text class="label" x="610.3" y="566.0" text-anchor="middle">0.70</text>
<line class="grid" x1="684.6" y1="40.0" x2="684.6" y2="550.0"/>
<text class="label" x="684.6" y="566.0" text-anchor="middle">0.80</text>
<line class="grid" x1="758.9" y1="40.0" x2="758.9" y2="550.0"/>
<text class="label" x="758.9" y="566.0" text-anchor="middle">0.90</text>
<line class="grid" x1="833.2" y1="40.0" x2="833.2" y2="550.0"/>
<text class="label" x="833.2" y="566.0" text-anchor="middle">1.00</text>
<polyline fill="none" stroke="#3498db" stroke-width="2" points="90.4,492.9 91.1,465.9 91.9,487.9 92.6,447.3 93.3,424.2 94.1,427.3 94.8,447.9 95.6,455.6 96.3,444.8 97.1,464.0 97.8,446.7 98.5,460.5 99.3,430.2 100.0,415.6 100.8,472.1 101.5,452.7 102.3,459.6 103.0,410.9 103.8,395.6 104.5,439.7 105.2,436.2 106.0,435.2 106.7,449.2 107.5,416.6 108.2,398.4 109.0,405.5 109.7,417.9 110.4,439.2 111.2,429.3 111.9,444.2 112.7,468.9 113.4,421.3 114.2,454.9 114.9,455.6 115.6,436.2 116.4,403.1 117.1,423.8 117.9,431.5 118.6,451.3 119.4,393.8 120.1,463.1 120.8,402.1 121.6,416.3 122.3,403.3 123.1,375.0 123.8,388.3 124.6,415.3 125.3,399.3 126.0,398.4 126.8,431.9 127.5,444.8 128.3,441.4 129.0,433.8 129.8,416.9 130.5,422.0 131.3,443.6 132.0,428.5 132.7,438.2 133.5,425.3 134.2,400.1 135.0,424.5 135.7,421.3 136.5,429.3 137.2,434.2 137.9,418.2 138.7,464.9 139.4,425.7 140.2,437.2 140.9,421.6 141.7,359.0 142.4,358.5 143.1,368.3 143.9,368.9 144.6,394.2 145.4,371.2 146.1,388.8 146.9,390.2 147.6,363.1 148.3,380.1 149.1,368.4 149.8,384.2 150.6,385.7 151.3,380.7 152.1,381.9 152.8,357.5 153.5,377.8 154.3,367.8 155.0,367.3 155.8,359.6 156.5,350.1 157.3,358.2 158.0,338.7 158.8,322.8 159.5,326.3 160.2,322.6 161.0,351.7 161.7,357.3 162.5,334.9 163.2,325.2 164.0,322.0 164.7,332.0 165.4,341.5 166.2,331.3 166.9,333.3 167.7,318.8 168.4,317.2 169.2,329.8 169.9,319.7 170.6,329.1 171.4,335.8 172.1,321.3 172.9,312.5 173.6,286.6 174.4,309.2 175.1,307.1 175.8,296.7 176.6,290.6 177.3,276.9 178.1,286.8 178.8,285.9 179.6,281.4 180.3,291.4 181.0,299.9 181.8,302.9 182.5,322.3 183.3,324.9 184.0,303.8 184.8,312.5 185.5,304.9 186.3,312.9 187.0,302.6 187.7,300.1 188.5,301.5 189.2,307.0 190.0,318.7 190.7,313.7 191.5,324.7 192.2,311.9 192.9,337.9 193.7,310.6 194.4,307.0 195.2,311.5 195.9,309.5 196.7,311.7 197.4,305.3 198.1,304.9 198.9,308.6 199.6,294.4 200.4,294.2 201.1,299.3 201.9,296.7 202.6,294.3 203.3,292.8 204.1,296.0 204.8,301.0 205.6,301.2 206.3,289.6 207.1,296.9 207.8,292.7 208.5,296.6 209.3,299.0 210.0,282.9 210.8,285.2 211.5,291.6 212.3,301.6 213.0,303.3 213.8,305.5 214.5,302.8 215.2,327.3 216.0,311.1 216.7,318.8 217.5,321.5 218.2,316.5 219.0,322.0 219.7,324.9 220.4,338.4 221.2,317.6 221.9,318.3 222.7,285.0 223.4,289.0 224.2,290.4 224.9,297.4 225.6,286.1 226.4,303.8 227.1,297.5 227.9,277.8 228.6,282.5 229.4,274.4 230.1,281.9 230.8,276.8 231.6,285.7 232.3,288.8 233.1,290.2 233.8,337.7 234.6,313.6 235.3,283.7 236.0,297.2 236.8,297.5 237.5,287.1 238.3,294.0 239.0,302.1 239.8,261.8 240.5,255.0 241.3,276.0 242.0,260.3 242.7,262.4 243.5,260.0 244.2,251.7 245.0,260.5 245.7,259.3 246.5,260.1 247.2,263.9 247.9,247.8 248.7,258.8 249.4,253.7 250.2,247.3 250.9,242.2 251.7,243.4 252.4,250.1 253.1,237.0 253.9,243.8 254.6,249.1 255.4,243.0 256.1,236.1 256.9,237.6 257.6,233.6 258.3,229.5 259.1,235.7 259.8,248.0 260.6,248.0 261.3,241.0 262.1,243.7 262.8,239.5 263.5,218.9 264.3,203.2 265.0,209.5 265.8,217.8 266.5,249.0 267.3,252.3 268.0,251.3 268.8,251.3 269.5,251.0 270.2,252.5 271.0,253.2 271.7,251.3 272.5,253.2 273.2,259.0 274.0,249.9 274.7,254.9 275.4,260.5 276.2,257.7 276.9,249.0 277.7,222.5 278.4,225.1 279.2,198.1 279.9,207.9 280.6,250.4 281.4,247.5 282.1,258.3 282.9,255.8 283.6,250.5 284.4,231.3 285.1,235.0 285.8,236.2 286.6,244.0 287.3,241.2 288.1,241.9 288.8,233.4 289.6,234.9 290.3,231.4 291.0,242.1 291.8,244.2 292.5,242.3 293.3,251.1 294.0,239.4 294.8,243.3 295.5,236.4 296.3,240.1 297.0,239.5 297.7,228.9 298.5,232.4 299.2,239.6 300.0,239.7 300.7,236.3 301.5,239.1 302.2,240.6 302.9,248.1 303.7,238.1 304.4,242.2 305.2,244.1 305.9,240.3 306.7,242.5 307.4,232.4 308.1,237.9 308.9,241.9 309.6,250.0 310.4,237.4 311.1,237.5 311.9,227.9 312.6,233.3 313.3,241.1 314.1,240.7 314.8,231.5 315.6,230.4 316.3,236.8 317.1,231.0 317.8,233.6 318.5,238.2 319.3,229.5 320.0,228.0 320.8,228.2 321.5,222.4 322.3,223.8 323.0,228.7 323.8,227.0 324.5,225.5 325.2,229.1 326.0,224.5 326.7,228.4 327.5,225.4 328.2,223.4 329.0,222.0 329.7,210.8 330.4,230.9 331.2,231.4 331.9,232.5 332.7,227.2 333.4,222.6 334.2,216.6 334.9,228.9 335.6,223.4 336.4,225.5 337.1,221.6 337.9,223.8 338.6,219.5 339.4,224.3 340.1,203.2 340.8,218.8 341.6,218.3 342.3,213.1 343.1,215.1 343.8,215.7 344.6,212.2 345.3,217.5 346.0,213.9 346.8,211.7 347.5,214.5 348.3,217.4 349.0,215.5 349.8,215.0 350.5,216.9 351.3,215.3 352.0,227.8 352.7,225.4 353.5,219.6 354.2,223.1 355.0,216.1 355.7,219.5 356.5,218.7 357.2,207.6 357.9,212.1 358.7,220.6 359.4,230.4 360.2,226.0 360.9,217.3 361.7,220.3 362.4,210.5 363.1,210.5 363.9,212.8 364.6,209.0 365.4,214.3 366.1,215.2 366.9,218.4 367.6,214.0 368.3,204.4 369.1,199.3 369.8,198.2 370.6,199.1 371.3,198.3 372.1,194.7 372.8,201.0 373.5,203.6 374.3,203.8 375.0,201.4 375.8,197.5 376.5,186.0 377.3,190.7 378.0,188.9 378.8,191.0 379.5,193.4 380.2,195.3 381.0,214.5 381.7,227.4 382.5,245.2 383.2,204.5 384.0,195.1 384.7,199.9 385.4,203.0 386.2,198.3 386.9,200.6 387.7,207.7 388.4,196.0 389.2,206.5 389.9,196.9 390.6,201.3 391.4,193.7 392.1,194.3 392.9,189.8 393.6,187.3 394.4,194.2 395.1,180.4 395.8,183.7 396.6,177.4 397.3,172.6 398.1,173.7 398.8,180.1 399.6,171.5 400.3,171.5 401.0,170.8 401.8,172.2 402.5,171.6 403.3,167.9 404.0,172.1 404.8,172.2 405.5,172.0 406.3,167.7 407.0,173.3 407.7,170.9 408.5,168.6 409.2,169.6 410.0,175.0 410.7,176.1 411.5,173.3 412.2,172.3 412.9,172.8 413.7,175.2 414.4,172.8 415.2,180.2 415.9,176.9 416.7,172.3 417.4,172.8 418.1,176.4 418.9,175.7 419.6,172.9 420.4,170.5 421.1,170.4 421.9,176.0 422.6,180.2 423.3,183.8 424.1,157.0 424.8,145.9 425.6,176.6 426.3,171.6 427.1,162.5 427.8,164.8 428.5,162.2 429.3,168.5 430.0,160.0 430.8,160.4 431.5,157.0 432.3,161.3 433.0,161.5 433.8,158.3 434.5,158.3 435.2,155.5 436.0,148.7 436.7,155.6 437.5,159.0 438.2,159.2 439.0,165.7 439.7,165.5 440.4,166.9 441.2,165.9 441.9,159.5 442.7,155.6 443.4,154.5 444.2,157.9 444.9,158.0 445.6,154.6 446.4,154.9 447.1,153.4 447.9,156.2 448.6,153.5 449.4,154.9 450.1,156.7 450.8,153.2 451.6,154.4 452.3,150.1 453.1,152.9 453.8,154.3 454.6,148.5 455.3,148.8 456.0,154.6 456.8,155.8 457.5,158.2 458.3,153.1 459.0,151.9 459.8,155.7 460.5,143.9 461.3,151.6 462.0,147.3 462.7,152.5 463.5,146.6 464.2,152.1 465.0,149.6 465.7,148.8 466.5,153.2 467.2,142.9 467.9,136.1 468.7,127.8 469.4,139.8 470.2,140.7 470.9,135.6 471.7,139.5 472.4,143.3 473.1,146.2 473.9,141.6 474.6,140.3 475.4,142.6 476.1,145.4 476.9,142.6 477.6,142.3 478.3,139.0 479.1,144.7 479.8,135.9 480.6,150.1 481.3,142.7 482.1,144.0 482.8,143.9 483.5,151.0 484.3,148.8 485.0,150.2 485.8,152.7 486.5,157.6 487.3,153.9 488.0,147.6 488.8,143.6 489.5,142.4 490.2,143.3 491.0,144.3 491.7,145.1 492.5,140.6 493.2,140.8 494.0,143.0 494.7,138.1 495.4,139.0 496.2,151.3 496.9,163.5 497.7,146.9 498.4,145.7 499.2,140.9 499.9,141.9 500.6,138.7 501.4,138.8 502.1,136.7 502.9,146.6 503.6,136.1 504.4,136.6 505.1,136.6 505.8,134.3 506.6,136.0 507.3,133.9 508.1,131.3 508.8,130.7 509.6,129.7 510.3,128.2 511.0,128.6 511.8,127.7 512.5,127.5 513.3,130.3 514.0,127.3 514.8,122.1 515.5,129.5 516.3,129.9 517.0,129.3 517.7,127.4 518.5,131.8 519.2,127.2 520.0,126.8 520.7,129.9 521.5,125.8 522.2,129.1 522.9,130.8 523.7,124.7 524.4,125.4 525.2,131.0 525.9,127.8 526.7,123.4 527.4,121.9 528.1,124.3 528.9,119.2 529.6,120.3 530.4,140.4 531.1,119.5 531.9,124.3 532.6,121.0 533.3,118.6 534.1,118.2 534.8,117.1 535.6,120.9 536.3,117.8 537.1,116.3 537.8,120.6 538.5,118.7 539.3,119.5 540.0,118.9 540.8,116.8 541.5,119.5 542.3,115.1 543.0,116.4 543.8,117.5 544.5,117.4 545.2,118.0 546.0,115.2 546.7,117.2 547.5,118.2 548.2,115.7 549.0,117.1 549.7,116.4 550.4,119.2 551.2,120.9 551.9,123.2 552.7,125.9 553.4,118.2 554.2,114.1 554.9,115.2 555.6,116.0 556.4,114.2 557.1,113.1 557.9,114.0 558.6,117.5 559.4,115.5 560.1,116.0 560.8,114.3 561.6,112.8 562.3,111.8 563.1,113.6 563.8,113.6 564.6,111.1 565.3,110.9 566.0,112.3 566.8,109.9 567.5,108.8 568.3,110.6 569.0,110.1 569.8,115.3 570.5,115.7 571.3,115.5 572.0,111.2 572.7,108.0 573.5,108.0 574.2,105.4 575.0,104.9 575.7,106.7 576.5,100.9 577.2,103.3 577.9,104.2 578.7,103.3 579.4,109.8 580.2,105.7 580.9,103.8 581.7,105.1 582.4,102.9 583.1,103.3 583.9,102.9 584.6,102.5 585.4,102.4 586.1,102.2 586.9,102.5 587.6,100.5 588.3,100.0 589.1,102.3 589.8,98.9 590.6,98.7 591.3,99.2 592.1,100.2 592.8,102.1 593.5,104.0 594.3,101.9 595.0,100.8 595.8,99.3 596.5,98.8 597.3,100.4 598.0,100.4 598.8,99.7 599.5,97.5 600.2,99.6 601.0,99.4 601.7,97.9 602.5,98.7 603.2,99.8 604.0,98.9 604.7,98.6 605.4,98.8 606.2,99.7 606.9,97.5 607.7,98.7 608.4,103.2 609.2,99.7 609.9,100.8 610.6,101.4 611.4,98.7 612.1,97.7 612.9,97.6 613.6,98.1 614.4,98.4 615.1,99.4 615.8,98.2 616.6,96.2 617.3,98.7 618.1,96.8 618.8,97.0 619.6,96.5 620.3,96.4 621.0,98.3 621.8,95.1 622.5,95.8 623.3,97.9 624.0,96.5 624.8,96.8 625.5,96.0 626.3,96.3 627.0,97.6 627.7,95.0 628.5,97.4 629.2,97.3 630.0,96.2 630.7,97.8 631.5,96.8 632.2,96.9 632.9,97.0 633.7,95.3 634.4,97.8 635.2,96.4 635.9,96.4 636.7,96.0 637.4,94.5 638.1,97.1 638.9,95.4 639.6,94.7 640.4,95.7 641.1,94.1 641.9,94.5 642.6,94.0 643.3,94.7 644.1,97.1 644.8,93.3 645.6,94.4 646.3,94.5 647.1,94.1 647.8,95.8 648.5,95.7 649.3,95.6 650.0,94.9 650.8,94.3 651.5,97.3 652.3,95.7 653.0,94.9 653.8,95.7 654.5,95.1 655.2,95.8 656.0,95.5 656.7,94.7 657.5,95.9 658.2,95.0 659.0,94.5 659.7,94.7 660.4,94.4 661.2,95.1 661.9,93.2 662.7,95.2 663.4,95.5 664.2,93.7 664.9,95.1 665.6,94.0 666.4,94.2 667.1,94.0 667.9,93.4 668.6,95.3 669.4,93.5 670.1,94.6 670.8,94.5 671.6,93.1 672.3,94.3 673.1,93.2 673.8,93.2 674.6,94.4 675.3,92.6 676.0,94.2 676.8,94.5 677.5,94.6 678.3,97.2 679.0,97.5 679.8,94.9 680.5,94.5 681.3,92.2 682.0,93.2 682.7,93.8 683.5,93.5 684.2,93.0 685.0,93.2 685.7,94.3 686.5,93.0 687.2,92.4 687.9,92.8 688.7,92.5 689.4,92.4 690.2,92.1 690.9,92.1 691.7,92.7 692.4,91.9 693.1,92.6 693.9,92.3 694.6,92.0 695.4,91.7 696.1,92.1 696.9,92.6 697.6,92.4 698.3,91.6 699.1,92.7 699.8,92.0 700.6,92.8 701.3,91.9 702.1,92.4 702.8,93.1 703.5,92.1 704.3,91.5 705.0,93.1 705.8,92.1 706.5,92.7 707.3,92.1 708.0,91.4 708.8,92.3 709.5,91.0 710.2,91.6 711.0,91.0 711.7,92.0 712.5,92.0 713.2,91.3 714.0,93.0 714.7,92.1 715.4,91.6 716.2,92.9 716.9,92.1 717.7,93.0 718.4,92.6 719.2,92.1 719.9,93.4 720.6,92.4 721.4,91.5 722.1,93.3 722.9,91.4 723.6,93.6 724.4,93.0 725.1,93.1 725.8,93.9 726.6,92.6 727.3,93.3 728.1,93.8 728.8,93.5 729.6,93.9 730.3,93.5 731.1,94.1 731.8,93.8 732.5,92.8 733.3,94.3 734.0,93.5 734.8,93.0 735.5,93.1 736.3,92.6 737.0,94.6 737.7,93.3 738.5,93.0 739.2,94.0 740.0,94.0 740.7,95.0 741.5,93.6 742.2,93.3 742.9,93.6 743.7,92.5 744.4,94.2 745.2,93.5 745.9,93.9 746.7,93.6 747.4,93.2 748.1,93.7 748.9,92.9 749.6,92.2 750.4,93.5 751.1,93.2 751.9,93.5 752.6,92.9 753.3,93.0 754.1,94.5 754.8,92.9 755.6,93.0 756.3,93.4 757.1,92.7 757.8,92.3 758.6,92.6 759.3,93.4 760.0,93.8 760.8,92.7 761.5,93.3 762.3,94.2 763.0,94.3 763.8,93.3 764.5,92.6 765.2,94.0 766.0,93.2 766.7,92.3 767.5,94.6 768.2,94.2 769.0,94.9 769.7,93.0 770.4,92.9 771.2,93.6 771.9,93.1 772.7,93.3 773.4,94.2 774.2,93.5 774.9,93.8 775.6,93.3 776.4,93.9 777.1,95.6 777.9,97.8 778.6,95.4 779.4,95.0 780.1,92.6 780.8,93.3 781.6,93.7 782.3,93.9 783.1,93.3 783.8,92.5 784.6,93.6 785.3,92.6 786.1,92.8 786.8,93.1 787.5,93.3 788.3,93.6 789.0,92.2 789.8,92.6 790.5,93.4 791.3,92.3 792.0,93.0 792.7,92.0 793.5,92.9 794.2,93.4 795.0,91.8 795.7,93.1 796.5,92.9 797.2,92.1 797.9,91.9 798.7,92.3 799.4,93.3 800.2,93.4 800.9,91.4 801.7,92.4 802.4,91.9 803.1,91.5 803.9,91.7 804.6,92.0 805.4,92.5 806.1,92.5 806.9,92.2 807.6,93.7 808.3,92.8 809.1,93.3 809.8,92.6 810.6,92.5 811.3,93.8 812.1,92.2 812.8,93.3 813.6,92.9 814.3,92.9 815.0,93.5 815.8,92.2 816.5,93.5 817.3,93.1 818.0,91.7 818.8,93.5 819.5,92.9 820.2,92.3 821.0,92.4 821.7,92.7 822.5,93.4 823.2,92.6 824.0,92.1 824.7,93.6 825.4,93.1 826.2,93.2 826.9,92.0 827.7,93.0 828.4,94.6 829.2,92.7 829.9,93.0 830.6,93.5 831.4,92.9 832.1,94.1 832.9,93.1"/>
<line x1="886" y1="60" x2="902" y2="60" stroke="#3498db" stroke-width="2"/>
<circle cx="894.0" cy="60.0" r="3" fill="#3498db"/>
<text class="label" x="908" y="64">sosd_wiki</text>
<text x="480" y="590" text-anchor="middle">Normalized Key Position</text>
<text transform="translate(16,295) rotate(-90)" text-anchor="middle">Relative Density</text>
</svg>
