<svg xmlns="http://www.w3.org/2000/svg" width="1020" height="600" viewBox="0 0 1020 600">
<style>text{font-family:Menlo,Monaco,monospace;font-size:12px;fill:#222} .axis{stroke:#333;stroke-width:1} .grid{stroke:#eee;stroke-width:0.5} .label{font-size:11px;fill:#444}</style>
<text x="510" y="28" text-anchor="middle" style="font-size:14px;font-weight:bold">Key Density — sosd_osm (n=800000000, 1000 bins)</text>
<line class="axis" x1="90.0" y1="550.0" x2="870.0" y2="550.0"/>
<line class="axis" x1="90.0" y1="40.0" x2="90.0" y2="550.0"/>
<line class="grid" x1="90.0" y1="521.7" x2="870.0" y2="521.7"/>
<text class="label" x="82.0" y="525.7" text-anchor="end">10^-8</text>
<line class="grid" x1="90.0" y1="465.0" x2="870.0" y2="465.0"/>
<text class="label" x="82.0" y="469.0" text-anchor="end">10^-7</text>
<line class="grid" x1="90.0" y1="408.3" x2="870.0" y2="408.3"/>
<text class="label" x="82.0" y="412.3" text-anchor="end">10^-6</text>
<line class="grid" x1="90.0" y1="351.7" x2="870.0" y2="351.7"/>
<text class="label" x="82.0" y="355.7" text-anchor="end">10^-5</text>
<line class="grid" x1="90.0" y1="295.0" x2="870.0" y2="295.0"/>
<text class="label" x="82.0" y="299.0" text-anchor="end">10^-4</text>
<line class="grid" x1="90.0" y1="238.3" x2="870.0" y2="238.3"/>
<text class="label" x="82.0" y="242.3" text-anchor="end">10^-3</text>
<line class="grid" x1="90.0" y1="181.7" x2="870.0" y2="181.7"/>
<text class="label" x="82.0" y="185.7" text-anchor="end">10^-2</text>
<line class="grid" x1="90.0" y1="125.0" x2="870.0" y2="125.0"/>
<text class="label" x="82.0" y="129.0" text-anchor="end">10^-1</text>
<line class="grid" x1="90.0" y1="68.3" x2="870.0" y2="68.3"/>
<text class="label" x="82.0" y="72.3" text-anchor="end">1</text>
<line class="grid" x1="90.0" y1="40.0" x2="90.0" y2="550.0"/>
<text class="label" x="90.0" y="566.0" text-anchor="middle">0</text>
<line class="grid" x1="164.3" y1="40.0" x2="164.3" y2="550.0"/>
<text class="label" x="164.3" y="566.0" text-anchor="middle">0.10</text>
<line class="grid" x1="238.6" y1="40.0" x2="238.6" y2="550.0"/>
<text class="label" x="238.6" y="566.0" text-anchor="middle">0.20</text>
<line class="grid" x1="313.0" y1="40.0" x2="313.0" y2="550.0"/>
<text class="label" x="313.0" y="566.0" text-anchor="middle">0.30</text>
<line class="grid" x1="387.3" y1="40.0" x2="387.3" y2="550.0"/>
<text class="label" x="387.3" y="566.0" text-anchor="middle">0.40</text>
<line class="grid" x1="461.6" y1="40.0" x2="461.6" y2="550.0"/>
<text class="label" x="461.6" y="566.0" text-anchor="middle">0.50</text>
<line class="grid" x1="535.9" y1="40.0" x2="535.9" y2="550.0"/>
<text class="label" x="535.9" y="566.0" text-anchor="middle">0.60</text>
<line class="grid" x1="610.3" y1="40.0" x2="610.3" y2="550.0"/>
<text class="label" x="610.3" y="566.0" text-anchor="middle">0.70</text>
<line class="grid" x1="684.6" y1="40.0" x2="684.6" y2="550.0"/>
<text class="label" x="684.6" y="566.0" text-anchor="middle">0.80</text>
<line class="grid" x1="758.9" y1="40.0" x2="758.9" y2="550.0"/>
<text class="label" x="758.9" y="566.0" text-anchor="middle">0.90</text>
<line class="grid" x1="833.2" y1="40.0" x2="833.2" y2="550.0"/>
<text class="label" x="833.2" y="566.0" text-anchor="middle">1.00</text>
<polyline fill="none" stroke="#27ae60" stroke-width="2" points="90.4,178.3 91.1,186.6 91.9,456.9 92.6,360.9 93.3,465.7 94.1,521.7 94.8,521.7 95.6,521.7 96.3,521.7 97.1,343.2 97.8,368.0 98.5,521.7 99.3,521.7 100.0,521.7 100.8,521.7 101.5,521.7 102.3,521.7 103.0,521.7 103.8,521.7 104.5,521.7 105.2,521.7 106.0,521.7 106.7,513.6 107.5,307.9 108.2,521.7 109.0,521.7 109.7,521.7 110.4,327.6 111.2,521.7 111.9,456.9 112.7,311.3 113.4,521.7 114.2,486.6 114.9,456.9 115.6,202.4 116.4,216.1 117.1,237.9 117.9,203.8 118.6,221.1 119.4,246.2 120.1,459.5 120.8,521.7 121.6,358.9 122.3,513.6 123.1,521.7 123.8,271.4 124.6,258.9 125.3,521.7 126.0,521.7 126.8,513.6 127.5,521.7 128.3,521.7 129.0,521.7 129.8,521.7 130.5,474.0 131.3,469.5 132.0,240.8 132.7,261.4 133.5,521.7 134.2,521.7 135.0,521.7 135.7,201.7 136.5,189.2 137.2,435.4 137.9,439.9 138.7,288.7 139.4,132.8 140.2,112.5 140.9,159.6 141.7,161.5 142.4,302.4 143.1,219.7 143.9,168.7 144.6,275.3 145.4,223.5 146.1,192.2 146.9,158.6 147.6,521.7 148.3,412.8 149.1,164.4 149.8,196.6 150.6,284.1 151.3,191.5 152.1,165.6 152.8,168.7 153.5,187.9 154.3,187.5 155.0,204.4 155.8,265.4 156.5,291.0 157.3,182.4 158.0,213.5 158.8,267.6 159.5,226.0 160.2,208.6 161.0,102.1 161.7,114.0 162.5,150.4 163.2,121.2 164.0,146.8 164.7,213.6 165.4,262.5 166.2,302.3 166.9,242.4 167.7,201.5 168.4,166.7 169.2,144.9 169.9,162.4 170.6,158.8 171.4,211.7 172.1,247.1 172.9,219.7 173.6,242.5 174.4,216.5 175.1,206.8 175.8,225.0 176.6,224.9 177.3,224.9 178.1,183.1 178.8,207.2 179.6,183.1 180.3,207.0 181.0,225.2 181.8,223.8 182.5,199.8 183.3,224.9 184.0,272.3 184.8,235.8 185.5,206.8 186.3,202.9 187.0,204.1 187.7,204.1 188.5,185.5 189.2,181.0 190.0,223.7 190.7,222.2 191.5,228.1 192.2,368.0 192.9,521.7 193.7,521.7 194.4,521.7 195.2,521.7 195.9,231.1 196.7,229.0 197.4,224.3 198.1,204.3 198.9,281.7 199.6,246.8 200.4,521.7 201.1,521.7 201.9,521.7 202.6,521.7 203.3,521.7 204.1,433.4 204.8,201.3 205.6,486.6 206.3,409.8 207.1,195.8 207.8,170.9 208.5,185.3 209.3,174.8 210.0,243.5 210.8,211.9 211.5,244.0 212.3,521.7 213.0,521.7 213.8,521.7 214.5,521.7 215.2,521.7 216.0,521.7 216.7,521.7 217.5,433.4 218.2,521.7 219.0,176.9 219.7,265.3 220.4,178.6 221.2,198.2 221.9,276.5 222.7,271.1 223.4,521.7 224.2,300.2 224.9,377.2 225.6,301.5 226.4,521.7 227.1,396.8 227.9,394.4 228.6,312.6 229.4,521.7 230.1,521.7 230.8,318.5 231.6,331.6 232.3,521.7 233.1,521.7 233.8,521.7 234.6,521.7 235.3,521.7 236.0,521.7 236.8,521.7 237.5,521.7 238.3,521.7 239.0,521.7 239.8,521.7 240.5,353.4 241.3,521.7 242.0,521.7 242.7,521.7 243.5,521.7 244.2,521.7 245.0,521.7 245.7,521.7 246.5,521.7 247.2,521.7 247.9,521.7 248.7,521.7 249.4,521.7 250.2,521.7 250.9,521.7 251.7,521.7 252.4,521.7 253.1,184.7 253.9,282.6 254.6,267.8 255.4,269.6 256.1,273.2 256.9,235.4 257.6,276.9 258.3,261.8 259.1,226.4 259.8,248.4 260.6,521.7 261.3,200.3 262.1,241.7 262.8,244.6 263.5,233.2 264.3,246.4 265.0,241.7 265.8,221.0 266.5,175.7 267.3,176.4 268.0,237.0 268.8,214.9 269.5,165.7 270.2,521.7 271.0,521.7 271.7,331.0 272.5,521.7 273.2,521.7 274.0,521.7 274.7,203.5 275.4,521.7 276.2,201.8 276.9,196.9 277.7,270.0 278.4,187.5 279.2,173.0 279.9,169.3 280.6,191.9 281.4,194.0 282.1,214.0 282.9,187.3 283.6,223.4 284.4,219.5 285.1,231.9 285.8,240.8 286.6,286.0 287.3,176.5 288.1,344.5 288.8,414.5 289.6,154.5 290.3,179.8 291.0,186.4 291.8,184.0 292.5,171.5 293.3,193.6 294.0,370.0 294.8,210.6 295.5,200.6 296.3,122.1 297.0,157.2 297.7,185.6 298.5,187.9 299.2,214.0 300.0,228.8 300.7,200.0 301.5,195.3 302.2,196.1 302.9,204.0 303.7,201.0 304.4,196.4 305.2,246.7 305.9,245.0 306.7,247.2 307.4,255.3 308.1,261.5 308.9,199.2 309.6,166.7 310.4,189.9 311.1,171.0 311.9,192.6 312.6,178.8 313.3,186.7 314.1,182.4 314.8,188.3 315.6,192.1 316.3,258.7 317.1,521.7 317.8,206.0 318.5,200.3 319.3,281.1 320.0,282.6 320.8,213.0 321.5,159.4 322.3,186.3 323.0,312.8 323.8,438.7 324.5,486.6 325.2,521.7 326.0,521.7 326.7,395.0 327.5,259.7 328.2,232.5 329.0,235.4 329.7,230.6 330.4,272.2 331.2,203.9 331.9,204.1 332.7,210.2 333.4,228.5 334.2,208.1 334.9,227.9 335.6,206.6 336.4,204.8 337.1,203.6 337.9,196.9 338.6,181.2 339.4,155.2 340.1,165.6 340.8,138.6 341.6,126.6 342.3,141.8 343.1,121.4 343.8,153.8 344.6,227.8 345.3,252.9 346.0,235.9 346.8,189.5 347.5,219.5 348.3,243.1 349.0,162.6 349.8,176.6 350.5,181.0 351.3,172.0 352.0,161.3 352.7,142.3 353.5,137.1 354.2,143.8 355.0,193.3 355.7,185.0 356.5,211.0 357.2,259.8 357.9,243.7 358.7,277.8 359.4,309.2 360.2,295.7 360.9,166.0 361.7,184.7 362.4,121.3 363.1,117.3 363.9,117.1 364.6,116.9 365.4,92.1 366.1,103.3 366.9,101.5 367.6,71.3 368.3,68.3 369.1,79.2 369.8,112.1 370.6,140.6 371.3,103.9 372.1,217.0 372.8,189.6 373.5,290.3 374.3,330.3 375.0,474.0 375.8,395.0 376.5,392.5 377.3,474.0 378.0,521.7 378.8,462.4 379.5,496.5 380.2,513.6 381.0,205.8 381.7,258.2 382.5,137.9 383.2,155.0 384.0,448.7 384.7,348.1 385.4,242.3 386.2,141.8 386.9,138.0 387.7,125.7 388.4,129.2 389.2,152.1 389.9,114.3 390.6,188.4 391.4,243.6 392.1,231.2 392.9,225.6 393.6,253.8 394.4,234.4 395.1,212.9 395.8,247.4 396.6,253.7 397.3,238.7 398.1,326.4 398.8,257.4 399.6,220.6 400.3,223.7 401.0,285.9 401.8,448.7 402.5,465.7 403.3,253.4 404.0,223.9 404.8,222.1 405.5,157.1 406.3,221.5 407.0,203.2 407.7,224.2 408.5,198.6 409.2,204.2 410.0,167.2 410.7,148.9 411.5,125.4 412.2,134.4 412.9,160.1 413.7,147.8 414.4,126.2 415.2,159.4 415.9,143.5 416.7,178.6 417.4,193.1 418.1,127.0 418.9,146.0 419.6,145.2 420.4,521.7 421.1,521.7 421.9,513.6 422.6,521.7 423.3,521.7 424.1,521.7 424.8,521.7 425.6,317.8 426.3,211.9 427.1,197.9 427.8,207.5 428.5,229.0 429.3,251.9 430.0,288.0 430.8,267.0 431.5,496.5 432.3,306.2 433.0,284.9 433.8,521.7 434.5,372.8 435.2,228.0 436.0,238.9 436.7,263.0 437.5,224.4 438.2,244.3 439.0,260.6 439.7,239.6 440.4,203.7 441.2,287.4 441.9,521.7 442.7,240.4 443.4,262.3 444.2,224.9 444.9,238.6 445.6,234.9 446.4,213.4 447.1,212.7 447.9,222.6 448.6,231.9 449.4,229.6 450.1,230.7 450.8,182.1 451.6,200.9 452.3,204.3 453.1,249.2 453.8,194.5 454.6,205.0 455.3,249.5 456.0,203.5 456.8,220.7 457.5,217.0 458.3,189.6 459.0,159.0 459.8,194.9 460.5,179.9 461.3,132.8 462.0,194.4 462.7,136.1 463.5,117.9 464.2,253.7 465.0,343.8 465.7,439.9 466.5,267.2 467.2,314.0 467.9,374.7 468.7,513.6 469.4,513.6 470.2,521.7 470.9,521.7 471.7,521.7 472.4,521.7 473.1,521.7 473.9,486.6 474.6,521.7 475.4,410.5 476.1,410.5 476.9,521.7 477.6,513.6 478.3,521.7 479.1,432.5 479.8,306.7 480.6,347.3 481.3,513.6 482.1,496.5 482.8,283.3 483.5,474.0 484.3,282.4 485.0,299.1 485.8,289.2 486.5,363.7 487.3,419.9 488.0,292.1 488.8,429.1 489.5,282.0 490.2,327.8 491.0,258.5 491.7,521.7 492.5,305.9 493.2,356.7 494.0,392.2 494.7,267.2 495.4,233.1 496.2,260.6 496.9,281.5 497.7,250.2 498.4,249.5 499.2,333.6 499.9,214.0 500.6,240.8 501.4,266.2 502.1,247.4 502.9,241.8 503.6,259.0 504.4,230.3 505.1,157.6 505.8,223.8 506.6,167.8 507.3,271.1 508.1,179.1 508.8,213.2 509.6,209.4 510.3,231.8 511.0,334.9 511.8,313.7 512.5,439.9 513.3,228.3 514.0,173.0 514.8,154.2 515.5,164.1 516.3,343.5 517.0,409.4 517.7,281.6 518.5,250.1 519.2,385.5 520.0,224.2 520.7,324.8 521.5,272.8 522.2,260.0 522.9,405.2 523.7,302.6 524.4,331.0 525.2,292.6 525.9,412.0 526.7,336.2 527.4,327.4 528.1,382.1 528.9,359.0 529.6,364.2 530.4,292.8 531.1,331.4 531.9,242.6 532.6,272.3 533.3,261.8 534.1,400.5 534.8,303.2 535.6,385.1 536.3,246.3 537.1,496.5 537.8,521.7 538.5,521.7 539.3,521.7 540.0,521.7 540.8,395.2 541.5,349.4 542.3,339.4 543.0,521.7 543.8,521.7 544.5,521.7 545.2,521.7 546.0,521.7 546.7,521.7 547.5,329.8 548.2,318.4 549.0,313.1 549.7,293.4 550.4,281.2 551.2,257.9 551.9,291.4 552.7,371.6 553.4,398.4 554.2,392.0 554.9,521.7 555.6,378.6 556.4,521.7 557.1,521.7 557.9,521.7 558.6,521.7 559.4,521.7 560.1,521.7 560.8,521.7 561.6,263.5 562.3,231.0 563.1,513.6 563.8,513.6 564.6,296.9 565.3,324.2 566.0,521.7 566.8,368.0 567.5,513.6 568.3,521.7 569.0,513.6 569.8,486.6 570.5,361.9 571.3,462.4 572.0,385.0 572.7,225.8 573.5,418.9 574.2,318.4 575.0,323.4 575.7,388.7 576.5,419.4 577.2,496.5 577.9,496.5 578.7,521.7 579.4,521.7 580.2,521.7 580.9,521.7 581.7,521.7 582.4,413.7 583.1,272.2 583.9,521.7 584.6,521.7 585.4,521.7 586.1,521.7 586.9,521.7 587.6,521.7 588.3,513.6 589.1,521.7 589.8,158.6 590.6,129.0 591.3,130.9 592.1,521.7 592.8,256.3 593.5,521.7 594.3,521.7 595.0,521.7 595.8,521.7 596.5,521.7 597.3,521.7 598.0,521.7 598.8,521.7 599.5,521.7 600.2,521.7 601.0,521.7 601.7,521.7 602.5,521.7 603.2,348.6 604.0,204.4 604.7,218.9 605.4,371.2 606.2,521.7 606.9,521.7 607.7,392.7 608.4,496.5 609.2,342.5 609.9,213.6 610.6,177.4 611.4,222.4 612.1,135.7 612.9,142.8 613.6,207.7 614.4,191.4 615.1,161.4 615.8,140.7 616.6,137.3 617.3,140.4 618.1,130.1 618.8,125.6 619.6,119.7 620.3,108.1 621.0,127.3 621.8,147.2 622.5,143.5 623.3,129.1 624.0,214.4 624.8,513.6 625.5,126.3 626.3,104.8 627.0,119.5 627.7,266.6 628.5,521.7 629.2,521.7 630.0,521.7 630.7,521.7 631.5,521.7 632.2,521.7 632.9,521.7 633.7,521.7 634.4,513.6 635.2,168.5 635.9,195.2 636.7,191.2 637.4,521.7 638.1,462.4 638.9,208.1 639.6,439.9 640.4,249.6 641.1,237.7 641.9,222.8 642.6,233.4 643.3,171.9 644.1,169.5 644.8,198.3 645.6,168.5 646.3,202.0 647.1,218.5 647.8,193.5 648.5,202.4 649.3,194.0 650.0,273.8 650.8,280.9 651.5,201.2 652.3,435.4 653.0,513.6 653.8,424.1 654.5,191.9 655.2,231.2 656.0,179.0 656.7,205.3 657.5,189.3 658.2,237.7 659.0,231.1 659.7,220.7 660.4,235.7 661.2,219.5 661.9,235.6 662.7,241.9 663.4,191.4 664.2,220.9 664.9,219.2 665.6,182.2 666.4,182.9 667.1,188.5 667.9,195.3 668.6,185.0 669.4,159.0 670.1,168.0 670.8,220.9 671.6,250.7 672.3,192.4 673.1,182.3 673.8,219.2 674.6,199.6 675.3,171.8 676.0,196.9 676.8,235.7 677.5,323.9 678.3,343.1 679.0,412.8 679.8,521.7 680.5,402.1 681.3,437.5 682.0,521.7 682.7,521.7 683.5,521.7 684.2,521.7 685.0,521.7 685.7,424.7 686.5,298.0 687.2,387.2 687.9,521.7 688.7,521.7 689.4,521.7 690.2,521.7 690.9,521.7 691.7,521.7 692.4,279.6 693.1,521.7 693.9,513.6 694.6,521.7 695.4,521.7 696.1,521.7 696.9,521.7 697.6,521.7 698.3,521.7 699.1,521.7 699.8,521.7 700.6,521.7 701.3,521.7 702.1,521.7 702.8,521.7 703.5,521.7 704.3,521.7 705.0,521.7 705.8,327.1 706.5,375.5 707.3,521.7 708.0,411.3 708.8,521.7 709.5,521.7 710.2,521.7 711.0,521.7 711.7,521.7 712.5,521.7 713.2,521.7 714.0,521.7 714.7,521.7 715.4,521.7 716.2,521.7 716.9,521.7 717.7,521.7 718.4,521.7 719.2,521.7 719.9,513.6 720.6,521.7 721.4,521.7 722.1,521.7 722.9,521.7 723.6,521.7 724.4,521.7 725.1,521.7 725.8,486.6 726.6,521.7 727.3,521.7 728.1,521.7 728.8,513.6 729.6,329.4 730.3,469.5 731.1,311.0 731.8,270.7 732.5,272.5 733.3,294.4 734.0,247.8 734.8,264.7 735.5,424.7 736.3,403.4 737.0,521.7 737.7,521.7 738.5,496.5 739.2,521.7 740.0,521.7 740.7,521.7 741.5,521.7 742.2,408.4 742.9,429.9 743.7,397.0 744.4,314.1 745.2,194.0 745.9,385.1 746.7,465.7 747.4,417.3 748.1,287.8 748.9,496.5 749.6,521.7 750.4,474.0 751.1,184.4 751.9,416.4 752.6,521.7 753.3,219.7 754.1,180.9 754.8,304.4 755.6,521.7 756.3,521.7 757.1,521.7 757.8,521.7 758.6,521.7 759.3,521.7 760.0,521.7 760.8,521.7 761.5,521.7 762.3,521.7 763.0,521.7 763.8,521.7 764.5,521.7 765.2,521.7 766.0,521.7 766.7,380.5 767.5,297.9 768.2,459.5 769.0,379.8 769.7,282.4 770.4,291.2 771.2,299.6 771.9,277.6 772.7,238.9 773.4,213.3 774.2,261.6 774.9,333.9 775.6,294.6 776.4,445.4 777.1,454.6 777.9,285.3 778.6,265.5 779.4,274.3 780.1,295.9 780.8,278.0 781.6,247.7 782.3,321.9 783.1,262.4 783.8,389.6 784.6,521.7 785.3,521.7 786.1,521.7 786.8,521.7 787.5,288.7 788.3,521.7 789.0,296.1 789.8,521.7 790.5,521.7 791.3,521.7 792.0,431.6 792.7,521.7 793.5,513.6 794.2,521.7 795.0,294.9 795.7,521.7 796.5,521.7 797.2,437.5 797.9,340.1 798.7,521.7 799.4,513.6 800.2,521.7 800.9,521.7 801.7,521.7 802.4,521.7 803.1,521.7 803.9,474.0 804.6,402.6 805.4,422.2 806.1,521.7 806.9,521.7 807.6,521.7 808.3,496.5 809.1,521.7 809.8,521.7 810.6,352.6 811.3,347.7 812.1,374.5 812.8,486.6 813.6,521.7 814.3,318.1 815.0,295.0 815.8,299.7 816.5,279.7 817.3,275.8 818.0,267.6 818.8,247.9 819.5,290.5 820.2,189.9 821.0,376.1 821.7,486.6 822.5,282.4 823.2,221.3 824.0,221.6 824.7,479.5 825.4,437.5 826.2,394.8 826.9,422.2 827.7,423.4 828.4,212.1 829.2,225.1 829.9,209.3 830.6,356.8 831.4,521.7 832.1,295.9 832.9,317.9"/>
<line x1="886" y1="60" x2="902" y2="60" stroke="#27ae60" stroke-width="2"/>
<circle cx="894.0" cy="60.0" r="3" fill="#27ae60"/>
<text class="label" x="908" y="64">sosd_osm</text>
<text x="480" y="590" text-anchor="middle">Normalized Key Position</text>
<text transform="translate(16,295) rotate(-90)" text-anchor="middle">Relative Density</text>
</svg>
