<svg xmlns="http://www.w3.org/2000/svg" width="1020" height="600" viewBox="0 0 1020 600">
<style>text{font-family:Menlo,Monaco,monospace;font-size:12px;fill:#222} .axis{stroke:#333;stroke-width:1} .grid{stroke:#eee;stroke-width:0.5} .label{font-size:11px;fill:#444}</style>
<text x="510" y="28" text-anchor="middle" style="font-size:14px;font-weight:bold">Key Density — temporal (n=65536, 200 bins)</text>
<line class="axis" x1="90.0" y1="550.0" x2="870.0" y2="550.0"/>
<line class="axis" x1="90.0" y1="40.0" x2="90.0" y2="550.0"/>
<line class="grid" x1="90.0" y1="550.0" x2="870.0" y2="550.0"/>
<text class="label" x="82.0" y="554.0" text-anchor="end">0</text>
<line class="grid" x1="90.0" y1="457.3" x2="870.0" y2="457.3"/>
<text class="label" x="82.0" y="461.3" text-anchor="end">0.20</text>
<line class="grid" x1="90.0" y1="364.5" x2="870.0" y2="364.5"/>
<text class="label" x="82.0" y="368.5" text-anchor="end">0.40</text>
<line class="grid" x1="90.0" y1="271.8" x2="870.0" y2="271.8"/>
<text class="label" x="82.0" y="275.8" text-anchor="end">0.60</text>
<line class="grid" x1="90.0" y1="179.1" x2="870.0" y2="179.1"/>
<text class="label" x="82.0" y="183.1" text-anchor="end">0.80</text>
<line class="grid" x1="90.0" y1="86.4" x2="870.0" y2="86.4"/>
<text class="label" x="82.0" y="90.4" text-anchor="end">1</text>
<line class="grid" x1="90.0" y1="40.0" x2="90.0" y2="550.0"/>
<text class="label" x="90.0" y="566.0" text-anchor="middle">0</text>
<line class="grid" x1="164.5" y1="40.0" x2="164.5" y2="550.0"/>
<text class="label" x="164.5" y="566.0" text-anchor="middle">0.10</text>
<line class="grid" x1="239.0" y1="40.0" x2="239.0" y2="550.0"/>
<text class="label" x="239.0" y="566.0" text-anchor="middle">0.20</text>
<line class="grid" x1="313.4" y1="40.0" x2="313.4" y2="550.0"/>
<text class="label" x="313.4" y="566.0" text-anchor="middle">0.30</text>
<line class="grid" x1="387.9" y1="40.0" x2="387.9" y2="550.0"/>
<text class="label" x="387.9" y="566.0" text-anchor="middle">0.40</text>
<line class="grid" x1="462.4" y1="40.0" x2="462.4" y2="550.0"/>
<text class="label" x="462.4" y="566.0" text-anchor="middle">0.50</text>
<line class="grid" x1="536.9" y1="40.0" x2="536.9" y2="550.0"/>
<text class="label" x="536.9" y="566.0" text-anchor="middle">0.60</text>
<line class="grid" x1="611.4" y1="40.0" x2="611.4" y2="550.0"/>
<text class="label" x="611.4" y="566.0" text-anchor="middle">0.70</text>
<line class="grid" x1="685.8" y1="40.0" x2="685.8" y2="550.0"/>
<text class="label" x="685.8" y="566.0" text-anchor="middle">0.80</text>
<line class="grid" x1="760.3" y1="40.0" x2="760.3" y2="550.0"/>
<text class="label" x="760.3" y="566.0" text-anchor="middle">0.90</text>
<line class="grid" x1="834.8" y1="40.0" x2="834.8" y2="550.0"/>
<text class="label" x="834.8" y="566.0" text-anchor="middle">1.00</text>
<polyline fill="none" stroke="#c0392b" stroke-width="2" points="91.9,504.7 95.6,494.7 99.3,510.8 103.0,507.8 106.8,497.7 110.5,504.7 114.2,510.8 117.9,507.8 121.7,512.8 125.4,502.7 129.1,506.8 132.8,500.7 136.6,497.7 140.3,497.7 144.0,491.7 147.7,506.8 151.4,504.7 155.2,499.7 158.9,502.7 162.6,498.7 166.3,501.7 170.1,515.8 173.8,513.8 177.5,505.7 181.2,509.8 185.0,498.7 188.7,503.7 192.4,503.7 196.1,495.7 199.9,508.8 203.6,509.8 207.3,501.7 211.0,508.8 214.8,502.7 218.5,515.8 222.2,497.7 225.9,493.7 229.7,487.6 233.4,501.7 237.1,507.8 240.8,504.7 244.5,501.7 248.3,507.8 252.0,502.7 255.7,500.7 259.4,509.8 263.2,511.8 266.9,504.7 270.6,499.7 274.3,505.7 278.1,500.7 281.8,499.7 285.5,506.8 289.2,498.7 293.0,497.7 296.7,500.7 300.4,502.7 304.1,503.7 307.9,501.7 311.6,486.6 315.3,506.8 319.0,493.7 322.8,502.7 326.5,502.7 330.2,120.6 333.9,87.4 337.6,86.4 341.4,87.4 345.1,87.4 348.8,87.4 352.5,86.4 356.3,87.4 360.0,87.4 363.7,86.4 367.4,87.4 371.2,87.4 374.9,88.4 378.6,86.4 382.3,86.4 386.1,87.4 389.8,87.4 393.5,87.4 397.2,87.4 401.0,87.4 404.7,87.4 408.4,86.4 412.1,87.4 415.9,86.4 419.6,88.4 423.3,86.4 427.0,87.4 430.7,86.4 434.5,88.4 438.2,86.4 441.9,87.4 445.6,87.4 449.4,87.4 453.1,86.4 456.8,87.4 460.5,87.4 464.3,87.4 468.0,86.4 471.7,87.4 475.4,87.4 479.2,87.4 482.9,87.4 486.6,86.4 490.3,87.4 494.1,87.4 497.8,87.4 501.5,87.4 505.2,86.4 509.0,87.4 512.7,87.4 516.4,87.4 520.1,87.4 523.9,88.4 527.6,86.4 531.3,86.4 535.0,88.4 538.7,87.4 542.5,86.4 546.2,88.4 549.9,86.4 553.6,87.4 557.4,87.4 561.1,86.4 564.8,87.4 568.5,87.4 572.3,86.4 576.0,88.4 579.7,87.4 583.4,86.4 587.2,87.4 590.9,86.4 594.6,87.4 598.3,87.4 602.1,87.4 605.8,87.4 609.5,87.4 613.2,86.4 617.0,87.4 620.7,87.4 624.4,87.4 628.1,86.4 631.8,87.4 635.6,87.4 639.3,87.4 643.0,87.4 646.7,87.4 650.5,87.4 654.2,87.4 657.9,87.4 661.6,87.4 665.4,86.4 669.1,87.4 672.8,87.4 676.5,87.4 680.3,86.4 684.0,87.4 687.7,87.4 691.4,87.4 695.2,87.4 698.9,86.4 702.6,87.4 706.3,86.4 710.1,88.4 713.8,87.4 717.5,86.4 721.2,87.4 724.9,86.4 728.7,87.4 732.4,88.4 736.1,86.4 739.8,87.4 743.6,87.4 747.3,87.4 751.0,86.4 754.7,87.4 758.5,87.4 762.2,87.4 765.9,86.4 769.6,87.4 773.4,88.4 777.1,87.4 780.8,87.4 784.5,86.4 788.3,87.4 792.0,87.4 795.7,87.4 799.4,87.4 803.2,86.4 806.9,87.4 810.6,87.4 814.3,87.4 818.0,87.4 821.8,86.4 825.5,87.4 829.2,87.4 832.9,86.4"/>
<line x1="886" y1="60" x2="902" y2="60" stroke="#c0392b" stroke-width="2"/>
<circle cx="894.0" cy="60.0" r="3" fill="#c0392b"/>
<text class="label" x="908" y="64">temporal</text>
<text x="480" y="590" text-anchor="middle">Normalized Key Position</text>
<text transform="translate(16,295) rotate(-90)" text-anchor="middle">Relative Density</text>
</svg>
