<svg xmlns="http://www.w3.org/2000/svg" width="1020" height="600" viewBox="0 0 1020 600">
<style>text{font-family:Menlo,Monaco,monospace;font-size:12px;fill:#222} .axis{stroke:#333;stroke-width:1} .grid{stroke:#eee;stroke-width:0.5} .label{font-size:11px;fill:#444}</style>
<text x="510" y="28" text-anchor="middle" style="font-size:14px;font-weight:bold">FPR vs BPK — uniform (60-bit keys, n=262144, L=1)</text>
<line class="axis" x1="90.0" y1="550.0" x2="870.0" y2="550.0"/>
<line class="axis" x1="90.0" y1="40.0" x2="90.0" y2="550.0"/>
<line class="grid" x1="90.0" y1="526.8" x2="870.0" y2="526.8"/>
<text class="label" x="82.0" y="530.8" text-anchor="end">10^-10</text>
<line class="grid" x1="90.0" y1="480.5" x2="870.0" y2="480.5"/>
<text class="label" x="82.0" y="484.5" text-anchor="end">10^-9</text>
<line class="grid" x1="90.0" y1="434.1" x2="870.0" y2="434.1"/>
<text class="label" x="82.0" y="438.1" text-anchor="end">10^-8</text>
<line class="grid" x1="90.0" y1="387.7" x2="870.0" y2="387.7"/>
<text class="label" x="82.0" y="391.7" text-anchor="end">10^-7</text>
<line class="grid" x1="90.0" y1="341.4" x2="870.0" y2="341.4"/>
<text class="label" x="82.0" y="345.4" text-anchor="end">10^-6</text>
<line class="grid" x1="90.0" y1="295.0" x2="870.0" y2="295.0"/>
<text class="label" x="82.0" y="299.0" text-anchor="end">10^-5</text>
<line class="grid" x1="90.0" y1="248.6" x2="870.0" y2="248.6"/>
<text class="label" x="82.0" y="252.6" text-anchor="end">10^-4</text>
<line class="grid" x1="90.0" y1="202.3" x2="870.0" y2="202.3"/>
<text class="label" x="82.0" y="206.3" text-anchor="end">10^-3</text>
<line class="grid" x1="90.0" y1="155.9" x2="870.0" y2="155.9"/>
<text class="label" x="82.0" y="159.9" text-anchor="end">10^-2</text>
<line class="grid" x1="90.0" y1="109.5" x2="870.0" y2="109.5"/>
<text class="label" x="82.0" y="113.5" text-anchor="end">10^-1</text>
<line class="grid" x1="90.0" y1="63.2" x2="870.0" y2="63.2"/>
<text class="label" x="82.0" y="67.2" text-anchor="end">1</text>
<line class="grid" x1="90.0" y1="40.0" x2="90.0" y2="550.0"/>
<text class="label" x="90.0" y="566.0" text-anchor="middle">0</text>
<line class="grid" x1="206.1" y1="40.0" x2="206.1" y2="550.0"/>
<text class="label" x="206.1" y="566.0" text-anchor="middle">5</text>
<line class="grid" x1="322.1" y1="40.0" x2="322.1" y2="550.0"/>
<text class="label" x="322.1" y="566.0" text-anchor="middle">10</text>
<line class="grid" x1="438.2" y1="40.0" x2="438.2" y2="550.0"/>
<text class="label" x="438.2" y="566.0" text-anchor="middle">15</text>
<line class="grid" x1="554.3" y1="40.0" x2="554.3" y2="550.0"/>
<text class="label" x="554.3" y="566.0" text-anchor="middle">20</text>
<line class="grid" x1="670.4" y1="40.0" x2="670.4" y2="550.0"/>
<text class="label" x="670.4" y="566.0" text-anchor="middle">25</text>
<line class="grid" x1="786.4" y1="40.0" x2="786.4" y2="550.0"/>
<text class="label" x="786.4" y="566.0" text-anchor="middle">30</text>
<polyline fill="none" stroke="#ef4444" stroke-width="2" stroke-dasharray="8,5" points="182.9,119.0 206.1,133.0 229.3,146.9 252.5,160.9 275.7,174.8 298.9,188.8 322.1,202.8 345.4,216.7 368.6,230.7 391.8,244.6 415.0,258.6 438.2,272.5 461.4,286.5 484.6,300.4 507.9,314.4 531.1,328.4 554.3,342.3 600.7,370.2 647.1,398.1 740.0,454.0 832.9,509.8"/>
<circle cx="182.9" cy="119.0" r="3" fill="#ef4444"/>
<circle cx="206.1" cy="133.0" r="3" fill="#ef4444"/>
<circle cx="229.3" cy="146.9" r="3" fill="#ef4444"/>
<circle cx="252.5" cy="160.9" r="3" fill="#ef4444"/>
<circle cx="275.7" cy="174.8" r="3" fill="#ef4444"/>
<circle cx="298.9" cy="188.8" r="3" fill="#ef4444"/>
<circle cx="322.1" cy="202.8" r="3" fill="#ef4444"/>
<circle cx="345.4" cy="216.7" r="3" fill="#ef4444"/>
<circle cx="368.6" cy="230.7" r="3" fill="#ef4444"/>
<circle cx="391.8" cy="244.6" r="3" fill="#ef4444"/>
<circle cx="415.0" cy="258.6" r="3" fill="#ef4444"/>
<circle cx="438.2" cy="272.5" r="3" fill="#ef4444"/>
<circle cx="461.4" cy="286.5" r="3" fill="#ef4444"/>
<circle cx="484.6" cy="300.4" r="3" fill="#ef4444"/>
<circle cx="507.9" cy="314.4" r="3" fill="#ef4444"/>
<circle cx="531.1" cy="328.4" r="3" fill="#ef4444"/>
<circle cx="554.3" cy="342.3" r="3" fill="#ef4444"/>
<circle cx="600.7" cy="370.2" r="3" fill="#ef4444"/>
<circle cx="647.1" cy="398.1" r="3" fill="#ef4444"/>
<circle cx="740.0" cy="454.0" r="3" fill="#ef4444"/>
<circle cx="832.9" cy="509.8" r="3" fill="#ef4444"/>
<polyline fill="none" stroke="#1a6b3c" stroke-width="2" points="188.9,93.6 240.3,119.8 289.2,147.2 336.5,175.1 383.2,202.7 429.8,226.9 476.2,259.0 529.9,280.7 576.3,308.6"/>
<polygon points="188.9,89.6 192.9,93.6 188.9,97.6 184.9,93.6" fill="#1a6b3c"/>
<polygon points="240.3,115.8 244.3,119.8 240.3,123.8 236.3,119.8" fill="#1a6b3c"/>
<polygon points="289.2,143.2 293.2,147.2 289.2,151.2 285.2,147.2" fill="#1a6b3c"/>
<polygon points="336.5,171.1 340.5,175.1 336.5,179.1 332.5,175.1" fill="#1a6b3c"/>
<polygon points="383.2,198.7 387.2,202.7 383.2,206.7 379.2,202.7" fill="#1a6b3c"/>
<polygon points="429.8,222.9 433.8,226.9 429.8,230.9 425.8,226.9" fill="#1a6b3c"/>
<polygon points="476.2,255.0 480.2,259.0 476.2,263.0 472.2,259.0" fill="#1a6b3c"/>
<polygon points="529.9,276.7 533.9,280.7 529.9,284.7 525.9,280.7" fill="#1a6b3c"/>
<polygon points="576.3,304.6 580.3,308.6 576.3,312.6 572.3,308.6" fill="#1a6b3c"/>
<polyline fill="none" stroke="#1a3a6b" stroke-width="2" points="168.3,81.4 214.5,105.7 261.1,132.7 307.8,159.9 354.0,188.0 400.2,216.7 446.8,246.6 493.5,274.3 539.7,304.1"/>
<polygon points="168.3,76.4 167.1,79.8 163.5,79.9 166.4,82.1 165.3,85.5 168.3,83.4 171.2,85.5 170.2,82.1 173.0,79.9 169.5,79.8" fill="#1a3a6b"/>
<polygon points="214.5,100.7 213.3,104.0 209.7,104.1 212.6,106.3 211.5,109.7 214.5,107.7 217.4,109.7 216.4,106.3 219.2,104.1 215.7,104.0" fill="#1a3a6b"/>
<polygon points="261.1,127.7 260.0,131.1 256.4,131.2 259.2,133.3 258.2,136.8 261.1,134.7 264.1,136.8 263.0,133.3 265.9,131.2 262.3,131.1" fill="#1a3a6b"/>
<polygon points="307.8,154.9 306.6,158.2 303.0,158.3 305.9,160.5 304.9,163.9 307.8,161.9 310.7,163.9 309.7,160.5 312.6,158.3 309.0,158.2" fill="#1a3a6b"/>
<polygon points="354.0,183.0 352.8,186.3 349.2,186.4 352.1,188.6 351.1,192.0 354.0,190.0 356.9,192.0 355.9,188.6 358.8,186.4 355.2,186.3" fill="#1a3a6b"/>
<polygon points="400.2,211.7 399.0,215.1 395.4,215.2 398.3,217.3 397.3,220.8 400.2,218.7 403.1,220.8 402.1,217.3 404.9,215.2 401.4,215.1" fill="#1a3a6b"/>
<polygon points="446.8,241.6 445.7,245.0 442.1,245.1 444.9,247.2 443.9,250.6 446.8,248.6 449.8,250.6 448.8,247.2 451.6,245.1 448.0,245.0" fill="#1a3a6b"/>
<polygon points="493.5,269.3 492.3,272.7 488.8,272.7 491.6,274.9 490.6,278.3 493.5,276.3 496.5,278.3 495.4,274.9 498.3,272.7 494.7,272.7" fill="#1a3a6b"/>
<polygon points="539.7,299.1 538.5,302.5 535.0,302.6 537.8,304.7 536.8,308.2 539.7,306.1 542.7,308.2 541.6,304.7 544.5,302.6 540.9,302.5" fill="#1a3a6b"/>
<polyline fill="none" stroke="#111111" stroke-width="2" points="342.5,96.1"/>
<rect x="339.5" y="93.1" width="6" height="6" fill="#111111"/>
<polyline fill="none" stroke="#111111" stroke-width="2" points="528.2,96.1"/>
<polygon points="528.2,92.1 532.2,99.1 524.2,99.1" fill="#111111"/>
<polyline fill="none" stroke="#111111" stroke-width="2" points="528.2,208.6"/>
<polygon points="528.2,204.6 532.2,208.6 528.2,212.6 524.2,208.6" fill="#111111"/>
<polyline fill="none" stroke="#2a7fff" stroke-width="2" points="90.0,63.2 90.0,63.2 90.0,63.2 90.0,63.2 90.1,63.2 90.1,63.2 90.3,63.2 90.5,63.2 91.1,63.2 92.2,63.2 94.4,63.2 98.7,63.2 107.2,63.6 121.7,66.1 142.5,72.4 168.0,82.0 195.3,93.5 248.2,119.5 297.5,147.0 391.7,202.0 484.6,254.4"/>
<rect x="87.0" y="60.2" width="6" height="6" fill="#2a7fff"/>
<rect x="87.0" y="60.2" width="6" height="6" fill="#2a7fff"/>
<rect x="87.0" y="60.2" width="6" height="6" fill="#2a7fff"/>
<rect x="87.0" y="60.2" width="6" height="6" fill="#2a7fff"/>
<rect x="87.1" y="60.2" width="6" height="6" fill="#2a7fff"/>
<rect x="87.1" y="60.2" width="6" height="6" fill="#2a7fff"/>
<rect x="87.3" y="60.2" width="6" height="6" fill="#2a7fff"/>
<rect x="87.5" y="60.2" width="6" height="6" fill="#2a7fff"/>
<rect x="88.1" y="60.2" width="6" height="6" fill="#2a7fff"/>
<rect x="89.2" y="60.2" width="6" height="6" fill="#2a7fff"/>
<rect x="91.4" y="60.2" width="6" height="6" fill="#2a7fff"/>
<rect x="95.7" y="60.2" width="6" height="6" fill="#2a7fff"/>
<rect x="104.2" y="60.6" width="6" height="6" fill="#2a7fff"/>
<rect x="118.7" y="63.1" width="6" height="6" fill="#2a7fff"/>
<rect x="139.5" y="69.4" width="6" height="6" fill="#2a7fff"/>
<rect x="165.0" y="79.0" width="6" height="6" fill="#2a7fff"/>
<rect x="192.3" y="90.5" width="6" height="6" fill="#2a7fff"/>
<rect x="245.2" y="116.5" width="6" height="6" fill="#2a7fff"/>
<rect x="294.5" y="144.0" width="6" height="6" fill="#2a7fff"/>
<rect x="388.7" y="199.0" width="6" height="6" fill="#2a7fff"/>
<rect x="481.6" y="251.4" width="6" height="6" fill="#2a7fff"/>
<polyline fill="none" stroke="#9b59b6" stroke-width="2" points="90.0,63.2 90.0,63.2 90.0,63.2 90.0,63.2 90.1,63.2 90.1,63.2 90.3,63.2 90.5,63.2 91.1,63.2 92.2,63.2 94.4,63.2 98.7,63.2 107.2,63.6 121.7,66.1 142.5,72.4 167.9,82.0 195.2,93.5 248.2,119.6 297.5,147.1 391.7,202.9 484.6,255.1"/>
<polygon points="90.0,59.2 94.0,66.2 86.0,66.2" fill="#9b59b6"/>
<polygon points="90.0,59.2 94.0,66.2 86.0,66.2" fill="#9b59b6"/>
<polygon points="90.0,59.2 94.0,66.2 86.0,66.2" fill="#9b59b6"/>
<polygon points="90.0,59.2 94.0,66.2 86.0,66.2" fill="#9b59b6"/>
<polygon points="90.1,59.2 94.1,66.2 86.1,66.2" fill="#9b59b6"/>
<polygon points="90.1,59.2 94.1,66.2 86.1,66.2" fill="#9b59b6"/>
<polygon points="90.3,59.2 94.3,66.2 86.3,66.2" fill="#9b59b6"/>
<polygon points="90.5,59.2 94.5,66.2 86.5,66.2" fill="#9b59b6"/>
<polygon points="91.1,59.2 95.1,66.2 87.1,66.2" fill="#9b59b6"/>
<polygon points="92.2,59.2 96.2,66.2 88.2,66.2" fill="#9b59b6"/>
<polygon points="94.4,59.2 98.4,66.2 90.4,66.2" fill="#9b59b6"/>
<polygon points="98.7,59.2 102.7,66.2 94.7,66.2" fill="#9b59b6"/>
<polygon points="107.2,59.6 111.2,66.6 103.2,66.6" fill="#9b59b6"/>
<polygon points="121.7,62.1 125.7,69.1 117.7,69.1" fill="#9b59b6"/>
<polygon points="142.5,68.4 146.5,75.4 138.5,75.4" fill="#9b59b6"/>
<polygon points="167.9,78.0 171.9,85.0 163.9,85.0" fill="#9b59b6"/>
<polygon points="195.2,89.5 199.2,96.5 191.2,96.5" fill="#9b59b6"/>
<polygon points="248.2,115.6 252.2,122.6 244.2,122.6" fill="#9b59b6"/>
<polygon points="297.5,143.1 301.5,150.1 293.5,150.1" fill="#9b59b6"/>
<polygon points="391.7,198.9 395.7,205.9 387.7,205.9" fill="#9b59b6"/>
<polygon points="484.6,251.1 488.6,258.1 480.6,258.1" fill="#9b59b6"/>
<polyline fill="none" stroke="#4dd88a" stroke-width="2" points="90.0,63.2 90.0,63.2 90.0,63.2 90.0,63.2 90.1,63.2 90.1,63.2 90.3,63.2 90.5,63.2 91.1,63.2 92.2,63.2 94.4,63.2 98.7,63.2 107.2,63.6 121.7,66.1 142.5,72.4 168.0,82.0 195.3,93.5 248.2,119.5 297.5,147.0 391.7,202.0 484.6,254.4"/>
<polygon points="90.0,59.2 94.0,63.2 90.0,67.2 86.0,63.2" fill="#4dd88a"/>
<polygon points="90.0,59.2 94.0,63.2 90.0,67.2 86.0,63.2" fill="#4dd88a"/>
<polygon points="90.0,59.2 94.0,63.2 90.0,67.2 86.0,63.2" fill="#4dd88a"/>
<polygon points="90.0,59.2 94.0,63.2 90.0,67.2 86.0,63.2" fill="#4dd88a"/>
<polygon points="90.1,59.2 94.1,63.2 90.1,67.2 86.1,63.2" fill="#4dd88a"/>
<polygon points="90.1,59.2 94.1,63.2 90.1,67.2 86.1,63.2" fill="#4dd88a"/>
<polygon points="90.3,59.2 94.3,63.2 90.3,67.2 86.3,63.2" fill="#4dd88a"/>
<polygon points="90.5,59.2 94.5,63.2 90.5,67.2 86.5,63.2" fill="#4dd88a"/>
<polygon points="91.1,59.2 95.1,63.2 91.1,67.2 87.1,63.2" fill="#4dd88a"/>
<polygon points="92.2,59.2 96.2,63.2 92.2,67.2 88.2,63.2" fill="#4dd88a"/>
<polygon points="94.4,59.2 98.4,63.2 94.4,67.2 90.4,63.2" fill="#4dd88a"/>
<polygon points="98.7,59.2 102.7,63.2 98.7,67.2 94.7,63.2" fill="#4dd88a"/>
<polygon points="107.2,59.6 111.2,63.6 107.2,67.6 103.2,63.6" fill="#4dd88a"/>
<polygon points="121.7,62.1 125.7,66.1 121.7,70.1 117.7,66.1" fill="#4dd88a"/>
<polygon points="142.5,68.4 146.5,72.4 142.5,76.4 138.5,72.4" fill="#4dd88a"/>
<polygon points="168.0,78.0 172.0,82.0 168.0,86.0 164.0,82.0" fill="#4dd88a"/>
<polygon points="195.3,89.5 199.3,93.5 195.3,97.5 191.3,93.5" fill="#4dd88a"/>
<polygon points="248.2,115.5 252.2,119.5 248.2,123.5 244.2,119.5" fill="#4dd88a"/>
<polygon points="297.5,143.0 301.5,147.0 297.5,151.0 293.5,147.0" fill="#4dd88a"/>
<polygon points="391.7,198.0 395.7,202.0 391.7,206.0 387.7,202.0" fill="#4dd88a"/>
<polygon points="484.6,250.4 488.6,254.4 484.6,258.4 480.6,254.4" fill="#4dd88a"/>
<polyline fill="none" stroke="#ff6b6b" stroke-width="2" points="90.0,63.2 90.0,63.2 90.0,63.2 90.0,63.2 90.1,63.2 90.1,63.2 90.3,63.2 90.5,63.2 91.1,63.2 92.2,63.2 94.4,63.2 98.7,63.2 107.2,63.6 121.7,66.1 142.5,72.4 167.9,82.0 195.2,93.5 248.2,119.6 297.5,147.1 391.7,202.9 484.6,255.1"/>
<polygon points="90.0,58.2 88.8,61.6 85.2,61.6 88.1,63.8 87.1,67.2 90.0,65.2 92.9,67.2 91.9,63.8 94.8,61.6 91.2,61.6" fill="#ff6b6b"/>
<polygon points="90.0,58.2 88.8,61.6 85.3,61.6 88.1,63.8 87.1,67.2 90.0,65.2 92.9,67.2 91.9,63.8 94.8,61.6 91.2,61.6" fill="#ff6b6b"/>
<polygon points="90.0,58.2 88.8,61.6 85.3,61.6 88.1,63.8 87.1,67.2 90.0,65.2 93.0,67.2 91.9,63.8 94.8,61.6 91.2,61.6" fill="#ff6b6b"/>
<polygon points="90.0,58.2 88.9,61.6 85.3,61.6 88.1,63.8 87.1,67.2 90.0,65.2 93.0,67.2 91.9,63.8 94.8,61.6 91.2,61.6" fill="#ff6b6b"/>
<polygon points="90.1,58.2 88.9,61.6 85.3,61.6 88.2,63.8 87.1,67.2 90.1,65.2 93.0,67.2 92.0,63.8 94.8,61.6 91.2,61.6" fill="#ff6b6b"/>
<polygon points="90.1,58.2 89.0,61.6 85.4,61.6 88.2,63.8 87.2,67.2 90.1,65.2 93.1,67.2 92.0,63.8 94.9,61.6 91.3,61.6" fill="#ff6b6b"/>
<polygon points="90.3,58.2 89.1,61.6 85.5,61.6 88.4,63.8 87.3,67.2 90.3,65.2 93.2,67.2 92.2,63.8 95.0,61.6 91.4,61.6" fill="#ff6b6b"/>
<polygon points="90.5,58.2 89.4,61.6 85.8,61.6 88.6,63.8 87.6,67.2 90.5,65.2 93.5,67.2 92.4,63.8 95.3,61.6 91.7,61.6" fill="#ff6b6b"/>
<polygon points="91.1,58.2 89.9,61.6 86.3,61.6 89.2,63.8 88.1,67.2 91.1,65.2 94.0,67.2 93.0,63.8 95.8,61.6 92.3,61.6" fill="#ff6b6b"/>
<polygon points="92.2,58.2 91.0,61.6 87.4,61.6 90.3,63.8 89.2,67.2 92.2,65.2 95.1,67.2 94.1,63.8 96.9,61.6 93.4,61.6" fill="#ff6b6b"/>
<polygon points="94.4,58.2 93.2,61.6 89.6,61.6 92.5,63.8 91.4,67.2 94.4,65.2 97.3,67.2 96.3,63.8 99.1,61.6 95.5,61.6" fill="#ff6b6b"/>
<polygon points="98.7,58.2 97.5,61.6 93.9,61.6 96.8,63.8 95.8,67.2 98.7,65.2 101.6,67.2 100.6,63.8 103.5,61.6 99.9,61.6" fill="#ff6b6b"/>
<polygon points="107.2,58.6 106.0,61.9 102.4,62.0 105.3,64.2 104.3,67.6 107.2,65.6 110.1,67.6 109.1,64.2 112.0,62.0 108.4,61.9" fill="#ff6b6b"/>
<polygon points="121.7,61.1 120.5,64.5 116.9,64.6 119.8,66.8 118.7,70.2 121.7,68.1 124.6,70.2 123.6,66.8 126.4,64.6 122.8,64.5" fill="#ff6b6b"/>
<polygon points="142.5,67.4 141.4,70.8 137.8,70.9 140.6,73.1 139.6,76.5 142.5,74.4 145.5,76.5 144.4,73.1 147.3,70.9 143.7,70.8" fill="#ff6b6b"/>
<polygon points="167.9,77.0 166.7,80.4 163.2,80.4 166.0,82.6 165.0,86.0 167.9,84.0 170.9,86.0 169.8,82.6 172.7,80.4 169.1,80.4" fill="#ff6b6b"/>
<polygon points="195.2,88.5 194.1,91.9 190.5,92.0 193.3,94.2 192.3,97.6 195.2,95.5 198.2,97.6 197.1,94.2 200.0,92.0 196.4,91.9" fill="#ff6b6b"/>
<polygon points="248.2,114.6 247.0,118.0 243.4,118.1 246.3,120.2 245.3,123.7 248.2,121.6 251.1,123.7 250.1,120.2 252.9,118.1 249.4,118.0" fill="#ff6b6b"/>
<polygon points="297.5,142.1 296.3,145.5 292.7,145.5 295.6,147.7 294.5,151.1 297.5,149.1 300.4,151.1 299.4,147.7 302.2,145.5 298.6,145.5" fill="#ff6b6b"/>
<polygon points="391.7,197.9 390.5,201.2 386.9,201.3 389.8,203.5 388.7,206.9 391.7,204.9 394.6,206.9 393.6,203.5 396.4,201.3 392.8,201.2" fill="#ff6b6b"/>
<polygon points="484.6,250.1 483.5,253.5 479.9,253.6 482.7,255.7 481.7,259.2 484.6,257.1 487.6,259.2 486.5,255.7 489.4,253.6 485.8,253.5" fill="#ff6b6b"/>
<polyline fill="none" stroke="#ff922b" stroke-width="2" points="293.0,112.9 318.7,126.6 343.4,140.2 367.4,153.8 391.1,167.7 414.6,181.9 438.0,195.4 461.3,209.8 507.8,240.5 531.1,251.0"/>
<circle cx="293.0" cy="112.9" r="3" fill="#ff922b"/>
<circle cx="318.7" cy="126.6" r="3" fill="#ff922b"/>
<circle cx="343.4" cy="140.2" r="3" fill="#ff922b"/>
<circle cx="367.4" cy="153.8" r="3" fill="#ff922b"/>
<circle cx="391.1" cy="167.7" r="3" fill="#ff922b"/>
<circle cx="414.6" cy="181.9" r="3" fill="#ff922b"/>
<circle cx="438.0" cy="195.4" r="3" fill="#ff922b"/>
<circle cx="461.3" cy="209.8" r="3" fill="#ff922b"/>
<circle cx="507.8" cy="240.5" r="3" fill="#ff922b"/>
<circle cx="531.1" cy="251.0" r="3" fill="#ff922b"/>
<polyline fill="none" stroke="#888888" stroke-width="2" stroke-dasharray="8,5" points="201.3,109.0 234.7,123.0 279.0,142.0 312.5,156.1 346.0,169.4 390.3,188.4 423.8,201.7 457.3,215.5 501.5,235.8 535.0,249.6"/>
<circle cx="201.3" cy="109.0" r="3" fill="#888888"/>
<circle cx="234.7" cy="123.0" r="3" fill="#888888"/>
<circle cx="279.0" cy="142.0" r="3" fill="#888888"/>
<circle cx="312.5" cy="156.1" r="3" fill="#888888"/>
<circle cx="346.0" cy="169.4" r="3" fill="#888888"/>
<circle cx="390.3" cy="188.4" r="3" fill="#888888"/>
<circle cx="423.8" cy="201.7" r="3" fill="#888888"/>
<circle cx="457.3" cy="215.5" r="3" fill="#888888"/>
<circle cx="501.5" cy="235.8" r="3" fill="#888888"/>
<circle cx="535.0" cy="249.6" r="3" fill="#888888"/>
<line x1="886" y1="60" x2="902" y2="60" stroke="#ef4444" stroke-width="2" stroke-dasharray="8,5"/>
<circle cx="894.0" cy="60.0" r="3" fill="#ef4444"/>
<text class="label" x="908" y="64">Theoretical</text>
<line x1="886" y1="78" x2="902" y2="78" stroke="#1a6b3c" stroke-width="2"/>
<polygon points="894.0,74.0 898.0,78.0 894.0,82.0 890.0,78.0" fill="#1a6b3c"/>
<text class="label" x="908" y="82">Grafite</text>
<line x1="886" y1="96" x2="902" y2="96" stroke="#1a3a6b" stroke-width="2"/>
<polygon points="894.0,91.0 892.8,94.4 889.2,94.5 892.1,96.6 891.1,100.0 894.0,98.0 896.9,100.0 895.9,96.6 898.8,94.5 895.2,94.4" fill="#1a3a6b"/>
<text class="label" x="908" y="100">SNARF</text>
<line x1="886" y1="114" x2="902" y2="114" stroke="#111111" stroke-width="2"/>
<rect x="891.0" y="111.0" width="6" height="6" fill="#111111"/>
<text class="label" x="908" y="118">SuRF</text>
<line x1="886" y1="132" x2="902" y2="132" stroke="#111111" stroke-width="2"/>
<polygon points="894.0,128.0 898.0,135.0 890.0,135.0" fill="#111111"/>
<text class="label" x="908" y="136">SuRFHash(8)</text>
<line x1="886" y1="150" x2="902" y2="150" stroke="#111111" stroke-width="2"/>
<polygon points="894.0,146.0 898.0,150.0 894.0,154.0 890.0,150.0" fill="#111111"/>
<text class="label" x="908" y="154">SuRFReal(8)</text>
<line x1="886" y1="168" x2="902" y2="168" stroke="#2a7fff" stroke-width="2"/>
<rect x="891.0" y="165.0" width="6" height="6" fill="#2a7fff"/>
<text class="label" x="908" y="172">Adaptive (t=0)</text>
<line x1="886" y1="186" x2="902" y2="186" stroke="#9b59b6" stroke-width="2"/>
<polygon points="894.0,182.0 898.0,189.0 890.0,189.0" fill="#9b59b6"/>
<text class="label" x="908" y="190">Truncation</text>
<line x1="886" y1="204" x2="902" y2="204" stroke="#4dd88a" stroke-width="2"/>
<polygon points="894.0,200.0 898.0,204.0 894.0,208.0 890.0,204.0" fill="#4dd88a"/>
<text class="label" x="908" y="208">SODA</text>
<line x1="886" y1="222" x2="902" y2="222" stroke="#ff6b6b" stroke-width="2"/>
<polygon points="894.0,217.0 892.8,220.4 889.2,220.5 892.1,222.6 891.1,226.0 894.0,224.0 896.9,226.0 895.9,222.6 898.8,220.5 895.2,220.4" fill="#ff6b6b"/>
<text class="label" x="908" y="226">Hybrid</text>
<line x1="886" y1="240" x2="902" y2="240" stroke="#ff922b" stroke-width="2"/>
<circle cx="894.0" cy="240.0" r="3" fill="#ff922b"/>
<text class="label" x="908" y="244">CDF-ARE</text>
<line x1="886" y1="258" x2="902" y2="258" stroke="#888888" stroke-width="2" stroke-dasharray="8,5"/>
<circle cx="894.0" cy="258.0" r="3" fill="#888888"/>
<text class="label" x="908" y="262">BloomARE</text>
<text x="480" y="590" text-anchor="middle">Bits per Key (BPK)</text>
<text transform="translate(16,295) rotate(-90)" text-anchor="middle">False Positive Rate (FPR)</text>
</svg>
