<svg xmlns="http://www.w3.org/2000/svg" width="1020" height="600" viewBox="0 0 1020 600">
<style>text{font-family:Menlo,Monaco,monospace;font-size:12px;fill:#222} .axis{stroke:#333;stroke-width:1} .grid{stroke:#eee;stroke-width:0.5} .label{font-size:11px;fill:#444}</style>
<text x="510" y="28" text-anchor="middle" style="font-size:14px;font-weight:bold">FPR vs BPK — uniform (60-bit keys, n=262144, L=1024)</text>
<line class="axis" x1="90.0" y1="550.0" x2="870.0" y2="550.0"/>
<line class="axis" x1="90.0" y1="40.0" x2="90.0" y2="550.0"/>
<line class="grid" x1="90.0" y1="518.1" x2="870.0" y2="518.1"/>
<text class="label" x="82.0" y="522.1" text-anchor="end">10^-7</text>
<line class="grid" x1="90.0" y1="454.4" x2="870.0" y2="454.4"/>
<text class="label" x="82.0" y="458.4" text-anchor="end">10^-6</text>
<line class="grid" x1="90.0" y1="390.6" x2="870.0" y2="390.6"/>
<text class="label" x="82.0" y="394.6" text-anchor="end">10^-5</text>
<line class="grid" x1="90.0" y1="326.9" x2="870.0" y2="326.9"/>
<text class="label" x="82.0" y="330.9" text-anchor="end">10^-4</text>
<line class="grid" x1="90.0" y1="263.1" x2="870.0" y2="263.1"/>
<text class="label" x="82.0" y="267.1" text-anchor="end">10^-3</text>
<line class="grid" x1="90.0" y1="199.4" x2="870.0" y2="199.4"/>
<text class="label" x="82.0" y="203.4" text-anchor="end">10^-2</text>
<line class="grid" x1="90.0" y1="135.6" x2="870.0" y2="135.6"/>
<text class="label" x="82.0" y="139.6" text-anchor="end">10^-1</text>
<line class="grid" x1="90.0" y1="71.9" x2="870.0" y2="71.9"/>
<text class="label" x="82.0" y="75.9" text-anchor="end">1</text>
<line class="grid" x1="90.0" y1="40.0" x2="90.0" y2="550.0"/>
<text class="label" x="90.0" y="566.0" text-anchor="middle">0</text>
<line class="grid" x1="200.6" y1="40.0" x2="200.6" y2="550.0"/>
<text class="label" x="200.6" y="566.0" text-anchor="middle">5</text>
<line class="grid" x1="311.1" y1="40.0" x2="311.1" y2="550.0"/>
<text class="label" x="311.1" y="566.0" text-anchor="middle">10</text>
<line class="grid" x1="421.7" y1="40.0" x2="421.7" y2="550.0"/>
<text class="label" x="421.7" y="566.0" text-anchor="middle">15</text>
<line class="grid" x1="532.2" y1="40.0" x2="532.2" y2="550.0"/>
<text class="label" x="532.2" y="566.0" text-anchor="middle">20</text>
<line class="grid" x1="642.8" y1="40.0" x2="642.8" y2="550.0"/>
<text class="label" x="642.8" y="566.0" text-anchor="middle">25</text>
<line class="grid" x1="753.3" y1="40.0" x2="753.3" y2="550.0"/>
<text class="label" x="753.3" y="566.0" text-anchor="middle">30</text>
<line class="grid" x1="863.9" y1="40.0" x2="863.9" y2="550.0"/>
<text class="label" x="863.9" y="566.0" text-anchor="middle">35</text>
<polyline fill="none" stroke="#ef4444" stroke-width="2" stroke-dasharray="8,5" points="311.1,71.9 333.2,91.1 355.3,110.3 377.4,129.4 399.6,148.6 421.7,167.8 443.8,187.0 465.9,206.2 488.0,225.4 510.1,244.6 532.2,263.8 576.4,302.2 620.7,340.5 709.1,417.3 797.5,494.1"/>
<circle cx="311.1" cy="71.9" r="3" fill="#ef4444"/>
<circle cx="333.2" cy="91.1" r="3" fill="#ef4444"/>
<circle cx="355.3" cy="110.3" r="3" fill="#ef4444"/>
<circle cx="377.4" cy="129.4" r="3" fill="#ef4444"/>
<circle cx="399.6" cy="148.6" r="3" fill="#ef4444"/>
<circle cx="421.7" cy="167.8" r="3" fill="#ef4444"/>
<circle cx="443.8" cy="187.0" r="3" fill="#ef4444"/>
<circle cx="465.9" cy="206.2" r="3" fill="#ef4444"/>
<circle cx="488.0" cy="225.4" r="3" fill="#ef4444"/>
<circle cx="510.1" cy="244.6" r="3" fill="#ef4444"/>
<circle cx="532.2" cy="263.8" r="3" fill="#ef4444"/>
<circle cx="576.4" cy="302.2" r="3" fill="#ef4444"/>
<circle cx="620.7" cy="340.5" r="3" fill="#ef4444"/>
<circle cx="709.1" cy="417.3" r="3" fill="#ef4444"/>
<circle cx="797.5" cy="494.1" r="3" fill="#ef4444"/>
<polyline fill="none" stroke="#1a6b3c" stroke-width="2" points="184.1,71.9 233.2,71.9 279.8,71.9 324.8,72.4 369.3,84.6 413.6,113.7 457.8,149.4 502.1,187.3 553.2,225.8"/>
<polygon points="184.1,67.9 188.1,71.9 184.1,75.9 180.1,71.9" fill="#1a6b3c"/>
<polygon points="233.2,67.9 237.2,71.9 233.2,75.9 229.2,71.9" fill="#1a6b3c"/>
<polygon points="279.8,67.9 283.8,71.9 279.8,75.9 275.8,71.9" fill="#1a6b3c"/>
<polygon points="324.8,68.4 328.8,72.4 324.8,76.4 320.8,72.4" fill="#1a6b3c"/>
<polygon points="369.3,80.6 373.3,84.6 369.3,88.6 365.3,84.6" fill="#1a6b3c"/>
<polygon points="413.6,109.7 417.6,113.7 413.6,117.7 409.6,113.7" fill="#1a6b3c"/>
<polygon points="457.8,145.4 461.8,149.4 457.8,153.4 453.8,149.4" fill="#1a6b3c"/>
<polygon points="502.1,183.3 506.1,187.3 502.1,191.3 498.1,187.3" fill="#1a6b3c"/>
<polygon points="553.2,221.8 557.2,225.8 553.2,229.8 549.2,225.8" fill="#1a6b3c"/>
<polyline fill="none" stroke="#1a3a6b" stroke-width="2" points="164.6,97.0 208.6,130.3 253.0,167.5 297.4,204.8 341.5,243.4 385.4,283.0 429.9,324.1 474.3,362.1 518.3,403.2"/>
<polygon points="164.6,92.0 163.4,95.4 159.8,95.4 162.7,97.6 161.6,101.0 164.6,99.0 167.5,101.0 166.5,97.6 169.3,95.4 165.7,95.4" fill="#1a3a6b"/>
<polygon points="208.6,125.3 207.4,128.7 203.8,128.7 206.7,130.9 205.6,134.3 208.6,132.3 211.5,134.3 210.5,130.9 213.3,128.7 209.7,128.7" fill="#1a3a6b"/>
<polygon points="253.0,162.5 251.8,165.9 248.2,165.9 251.1,168.1 250.1,171.5 253.0,169.5 255.9,171.5 254.9,168.1 257.8,165.9 254.2,165.9" fill="#1a3a6b"/>
<polygon points="297.4,199.8 296.3,203.2 292.7,203.3 295.5,205.4 294.5,208.8 297.4,206.8 300.4,208.8 299.3,205.4 302.2,203.3 298.6,203.2" fill="#1a3a6b"/>
<polygon points="341.5,238.4 340.3,241.8 336.7,241.9 339.5,244.1 338.5,247.5 341.5,245.4 344.4,247.5 343.4,244.1 346.2,241.9 342.6,241.8" fill="#1a3a6b"/>
<polygon points="385.4,278.0 384.3,281.4 380.7,281.4 383.5,283.6 382.5,287.0 385.4,285.0 388.4,287.0 387.3,283.6 390.2,281.4 386.6,281.4" fill="#1a3a6b"/>
<polygon points="429.9,319.1 428.7,322.5 425.1,322.5 428.0,324.7 426.9,328.1 429.9,326.1 432.8,328.1 431.8,324.7 434.6,322.5 431.1,322.5" fill="#1a3a6b"/>
<polygon points="474.3,357.1 473.2,360.5 469.6,360.6 472.4,362.8 471.4,366.2 474.3,364.1 477.3,366.2 476.2,362.8 479.1,360.6 475.5,360.5" fill="#1a3a6b"/>
<polygon points="518.3,398.2 517.2,401.5 513.6,401.6 516.4,403.8 515.4,407.2 518.3,405.2 521.3,407.2 520.2,403.8 523.1,401.6 519.5,401.5" fill="#1a3a6b"/>
<polyline fill="none" stroke="#111111" stroke-width="2" points="330.5,117.2"/>
<rect x="327.5" y="114.2" width="6" height="6" fill="#111111"/>
<polyline fill="none" stroke="#111111" stroke-width="2" points="507.4,117.2"/>
<polygon points="507.4,113.2 511.4,120.2 503.4,120.2" fill="#111111"/>
<polyline fill="none" stroke="#111111" stroke-width="2" points="507.4,271.8"/>
<polygon points="507.4,267.8 511.4,271.8 507.4,275.8 503.4,271.8" fill="#111111"/>
<polyline fill="none" stroke="#2a7fff" stroke-width="2" points="90.0,71.9 90.0,71.9 90.0,71.9 90.0,71.9 90.1,71.9 90.1,71.9 90.3,71.9 90.5,71.9 91.0,71.9 92.1,71.9 94.1,71.9 98.3,71.9 106.4,71.9 120.2,71.9 140.0,71.9 164.3,71.9 190.3,71.9 240.7,71.9 287.6,71.9 377.3,84.5 465.9,149.5"/>
<rect x="87.0" y="68.9" width="6" height="6" fill="#2a7fff"/>
<rect x="87.0" y="68.9" width="6" height="6" fill="#2a7fff"/>
<rect x="87.0" y="68.9" width="6" height="6" fill="#2a7fff"/>
<rect x="87.0" y="68.9" width="6" height="6" fill="#2a7fff"/>
<rect x="87.1" y="68.9" width="6" height="6" fill="#2a7fff"/>
<rect x="87.1" y="68.9" width="6" height="6" fill="#2a7fff"/>
<rect x="87.3" y="68.9" width="6" height="6" fill="#2a7fff"/>
<rect x="87.5" y="68.9" width="6" height="6" fill="#2a7fff"/>
<rect x="88.0" y="68.9" width="6" height="6" fill="#2a7fff"/>
<rect x="89.1" y="68.9" width="6" height="6" fill="#2a7fff"/>
<rect x="91.1" y="68.9" width="6" height="6" fill="#2a7fff"/>
<rect x="95.3" y="68.9" width="6" height="6" fill="#2a7fff"/>
<rect x="103.4" y="68.9" width="6" height="6" fill="#2a7fff"/>
<rect x="117.2" y="68.9" width="6" height="6" fill="#2a7fff"/>
<rect x="137.0" y="68.9" width="6" height="6" fill="#2a7fff"/>
<rect x="161.3" y="68.9" width="6" height="6" fill="#2a7fff"/>
<rect x="187.3" y="68.9" width="6" height="6" fill="#2a7fff"/>
<rect x="237.7" y="68.9" width="6" height="6" fill="#2a7fff"/>
<rect x="284.6" y="68.9" width="6" height="6" fill="#2a7fff"/>
<rect x="374.3" y="81.5" width="6" height="6" fill="#2a7fff"/>
<rect x="462.9" y="146.5" width="6" height="6" fill="#2a7fff"/>
<polyline fill="none" stroke="#9b59b6" stroke-width="2" points="90.0,71.9 90.0,71.9 90.0,71.9 90.0,71.9 90.1,71.9 90.1,71.9 90.3,71.9 90.5,71.9 91.0,71.9 92.1,71.9 94.1,71.9 98.3,71.9 106.4,72.4 120.2,75.9 140.0,84.6 164.2,97.7 190.2,113.6 240.7,149.5 287.6,187.2 377.3,263.9 465.9,335.8"/>
<polygon points="90.0,67.9 94.0,74.9 86.0,74.9" fill="#9b59b6"/>
<polygon points="90.0,67.9 94.0,74.9 86.0,74.9" fill="#9b59b6"/>
<polygon points="90.0,67.9 94.0,74.9 86.0,74.9" fill="#9b59b6"/>
<polygon points="90.0,67.9 94.0,74.9 86.0,74.9" fill="#9b59b6"/>
<polygon points="90.1,67.9 94.1,74.9 86.1,74.9" fill="#9b59b6"/>
<polygon points="90.1,67.9 94.1,74.9 86.1,74.9" fill="#9b59b6"/>
<polygon points="90.3,67.9 94.3,74.9 86.3,74.9" fill="#9b59b6"/>
<polygon points="90.5,67.9 94.5,74.9 86.5,74.9" fill="#9b59b6"/>
<polygon points="91.0,67.9 95.0,74.9 87.0,74.9" fill="#9b59b6"/>
<polygon points="92.1,67.9 96.1,74.9 88.1,74.9" fill="#9b59b6"/>
<polygon points="94.1,67.9 98.1,74.9 90.1,74.9" fill="#9b59b6"/>
<polygon points="98.3,67.9 102.3,74.9 94.3,74.9" fill="#9b59b6"/>
<polygon points="106.4,68.4 110.4,75.4 102.4,75.4" fill="#9b59b6"/>
<polygon points="120.2,71.9 124.2,78.9 116.2,78.9" fill="#9b59b6"/>
<polygon points="140.0,80.6 144.0,87.6 136.0,87.6" fill="#9b59b6"/>
<polygon points="164.2,93.7 168.2,100.7 160.2,100.7" fill="#9b59b6"/>
<polygon points="190.2,109.6 194.2,116.6 186.2,116.6" fill="#9b59b6"/>
<polygon points="240.7,145.5 244.7,152.5 236.7,152.5" fill="#9b59b6"/>
<polygon points="287.6,183.2 291.6,190.2 283.6,190.2" fill="#9b59b6"/>
<polygon points="377.3,259.9 381.3,266.9 373.3,266.9" fill="#9b59b6"/>
<polygon points="465.9,331.8 469.9,338.8 461.9,338.8" fill="#9b59b6"/>
<polyline fill="none" stroke="#4dd88a" stroke-width="2" points="90.0,71.9 90.0,71.9 90.0,71.9 90.0,71.9 90.1,71.9 90.1,71.9 90.3,71.9 90.5,71.9 91.0,71.9 92.1,71.9 94.1,71.9 98.3,71.9 106.4,71.9 120.2,71.9 140.0,71.9 164.3,71.9 190.3,71.9 240.7,71.9 287.6,71.9 377.3,84.5 465.9,149.5"/>
<polygon points="90.0,67.9 94.0,71.9 90.0,75.9 86.0,71.9" fill="#4dd88a"/>
<polygon points="90.0,67.9 94.0,71.9 90.0,75.9 86.0,71.9" fill="#4dd88a"/>
<polygon points="90.0,67.9 94.0,71.9 90.0,75.9 86.0,71.9" fill="#4dd88a"/>
<polygon points="90.0,67.9 94.0,71.9 90.0,75.9 86.0,71.9" fill="#4dd88a"/>
<polygon points="90.1,67.9 94.1,71.9 90.1,75.9 86.1,71.9" fill="#4dd88a"/>
<polygon points="90.1,67.9 94.1,71.9 90.1,75.9 86.1,71.9" fill="#4dd88a"/>
<polygon points="90.3,67.9 94.3,71.9 90.3,75.9 86.3,71.9" fill="#4dd88a"/>
<polygon points="90.5,67.9 94.5,71.9 90.5,75.9 86.5,71.9" fill="#4dd88a"/>
<polygon points="91.0,67.9 95.0,71.9 91.0,75.9 87.0,71.9" fill="#4dd88a"/>
<polygon points="92.1,67.9 96.1,71.9 92.1,75.9 88.1,71.9" fill="#4dd88a"/>
<polygon points="94.1,67.9 98.1,71.9 94.1,75.9 90.1,71.9" fill="#4dd88a"/>
<polygon points="98.3,67.9 102.3,71.9 98.3,75.9 94.3,71.9" fill="#4dd88a"/>
<polygon points="106.4,67.9 110.4,71.9 106.4,75.9 102.4,71.9" fill="#4dd88a"/>
<polygon points="120.2,67.9 124.2,71.9 120.2,75.9 116.2,71.9" fill="#4dd88a"/>
<polygon points="140.0,67.9 144.0,71.9 140.0,75.9 136.0,71.9" fill="#4dd88a"/>
<polygon points="164.3,67.9 168.3,71.9 164.3,75.9 160.3,71.9" fill="#4dd88a"/>
<polygon points="190.3,67.9 194.3,71.9 190.3,75.9 186.3,71.9" fill="#4dd88a"/>
<polygon points="240.7,67.9 244.7,71.9 240.7,75.9 236.7,71.9" fill="#4dd88a"/>
<polygon points="287.6,67.9 291.6,71.9 287.6,75.9 283.6,71.9" fill="#4dd88a"/>
<polygon points="377.3,80.5 381.3,84.5 377.3,88.5 373.3,84.5" fill="#4dd88a"/>
<polygon points="465.9,145.5 469.9,149.5 465.9,153.5 461.9,149.5" fill="#4dd88a"/>
<polyline fill="none" stroke="#ff6b6b" stroke-width="2" points="90.0,71.9 90.0,71.9 90.0,71.9 90.0,71.9 90.1,71.9 90.1,71.9 90.3,71.9 90.5,71.9 91.0,71.9 92.1,71.9 94.1,71.9 98.3,71.9 106.4,72.4 120.2,75.9 140.0,84.6 164.2,97.7 190.2,113.6 240.7,149.5 287.6,187.2 377.3,263.9 465.9,335.8"/>
<polygon points="90.0,66.9 88.8,70.3 85.2,70.3 88.1,72.5 87.1,75.9 90.0,73.9 92.9,75.9 91.9,72.5 94.8,70.3 91.2,70.3" fill="#ff6b6b"/>
<polygon points="90.0,66.9 88.8,70.3 85.3,70.3 88.1,72.5 87.1,75.9 90.0,73.9 92.9,75.9 91.9,72.5 94.8,70.3 91.2,70.3" fill="#ff6b6b"/>
<polygon points="90.0,66.9 88.8,70.3 85.3,70.3 88.1,72.5 87.1,75.9 90.0,73.9 93.0,75.9 91.9,72.5 94.8,70.3 91.2,70.3" fill="#ff6b6b"/>
<polygon points="90.0,66.9 88.9,70.3 85.3,70.3 88.1,72.5 87.1,75.9 90.0,73.9 93.0,75.9 91.9,72.5 94.8,70.3 91.2,70.3" fill="#ff6b6b"/>
<polygon points="90.1,66.9 88.9,70.3 85.3,70.3 88.2,72.5 87.1,75.9 90.1,73.9 93.0,75.9 92.0,72.5 94.8,70.3 91.2,70.3" fill="#ff6b6b"/>
<polygon points="90.1,66.9 89.0,70.3 85.4,70.3 88.2,72.5 87.2,75.9 90.1,73.9 93.1,75.9 92.0,72.5 94.9,70.3 91.3,70.3" fill="#ff6b6b"/>
<polygon points="90.3,66.9 89.1,70.3 85.5,70.3 88.4,72.5 87.3,75.9 90.3,73.9 93.2,75.9 92.2,72.5 95.0,70.3 91.4,70.3" fill="#ff6b6b"/>
<polygon points="90.5,66.9 89.3,70.3 85.8,70.3 88.6,72.5 87.6,75.9 90.5,73.9 93.5,75.9 92.4,72.5 95.3,70.3 91.7,70.3" fill="#ff6b6b"/>
<polygon points="91.0,66.9 89.9,70.3 86.3,70.3 89.1,72.5 88.1,75.9 91.0,73.9 94.0,75.9 92.9,72.5 95.8,70.3 92.2,70.3" fill="#ff6b6b"/>
<polygon points="92.1,66.9 90.9,70.3 87.3,70.3 90.2,72.5 89.1,75.9 92.1,73.9 95.0,75.9 94.0,72.5 96.8,70.3 93.2,70.3" fill="#ff6b6b"/>
<polygon points="94.1,66.9 93.0,70.3 89.4,70.3 92.2,72.5 91.2,75.9 94.1,73.9 97.1,75.9 96.0,72.5 98.9,70.3 95.3,70.3" fill="#ff6b6b"/>
<polygon points="98.3,66.9 97.1,70.3 93.5,70.3 96.4,72.5 95.4,75.9 98.3,73.9 101.2,75.9 100.2,72.5 103.0,70.3 99.5,70.3" fill="#ff6b6b"/>
<polygon points="106.4,67.4 105.2,70.8 101.6,70.8 104.5,73.0 103.4,76.4 106.4,74.4 109.3,76.4 108.3,73.0 111.1,70.8 107.6,70.8" fill="#ff6b6b"/>
<polygon points="120.2,70.9 119.0,74.3 115.4,74.4 118.3,76.6 117.2,80.0 120.2,77.9 123.1,80.0 122.1,76.6 124.9,74.4 121.3,74.3" fill="#ff6b6b"/>
<polygon points="140.0,79.6 138.9,83.0 135.3,83.1 138.1,85.2 137.1,88.7 140.0,86.6 143.0,88.7 141.9,85.2 144.8,83.1 141.2,83.0" fill="#ff6b6b"/>
<polygon points="164.2,92.7 163.0,96.1 159.5,96.2 162.3,98.4 161.3,101.8 164.2,99.7 167.2,101.8 166.1,98.4 169.0,96.2 165.4,96.1" fill="#ff6b6b"/>
<polygon points="190.2,108.6 189.1,112.0 185.5,112.1 188.3,114.2 187.3,117.7 190.2,115.6 193.2,117.7 192.1,114.2 195.0,112.1 191.4,112.0" fill="#ff6b6b"/>
<polygon points="240.7,144.5 239.5,147.8 235.9,147.9 238.8,150.1 237.7,153.5 240.7,151.5 243.6,153.5 242.6,150.1 245.4,147.9 241.8,147.8" fill="#ff6b6b"/>
<polygon points="287.6,182.2 286.4,185.6 282.9,185.7 285.7,187.9 284.7,191.3 287.6,189.2 290.5,191.3 289.5,187.9 292.4,185.7 288.8,185.6" fill="#ff6b6b"/>
<polygon points="377.3,258.9 376.1,262.3 372.6,262.4 375.4,264.5 374.4,268.0 377.3,265.9 380.3,268.0 379.2,264.5 382.1,262.4 378.5,262.3" fill="#ff6b6b"/>
<polygon points="465.9,330.8 464.7,334.2 461.1,334.2 464.0,336.4 462.9,339.8 465.9,337.8 468.8,339.8 467.8,336.4 470.6,334.2 467.0,334.2" fill="#ff6b6b"/>
<polyline fill="none" stroke="#ff922b" stroke-width="2" points="283.3,140.3 307.8,159.1 331.3,177.8 354.2,196.5 376.8,215.5 399.2,235.2 421.5,253.7 443.7,273.4 488.0,315.6 510.1,330.1"/>
<circle cx="283.3" cy="140.3" r="3" fill="#ff922b"/>
<circle cx="307.8" cy="159.1" r="3" fill="#ff922b"/>
<circle cx="331.3" cy="177.8" r="3" fill="#ff922b"/>
<circle cx="354.2" cy="196.5" r="3" fill="#ff922b"/>
<circle cx="376.8" cy="215.5" r="3" fill="#ff922b"/>
<circle cx="399.2" cy="235.2" r="3" fill="#ff922b"/>
<circle cx="421.5" cy="253.7" r="3" fill="#ff922b"/>
<circle cx="443.7" cy="273.4" r="3" fill="#ff922b"/>
<circle cx="488.0" cy="315.6" r="3" fill="#ff922b"/>
<circle cx="510.1" cy="330.1" r="3" fill="#ff922b"/>
<polyline fill="none" stroke="#888888" stroke-width="2" stroke-dasharray="8,5" points="512.6,135.2 545.7,154.7 588.6,180.0 620.7,199.7 652.7,219.0 694.9,243.7 726.9,265.3 758.8,281.5 801.0,307.7 832.9,325.7"/>
<circle cx="512.6" cy="135.2" r="3" fill="#888888"/>
<circle cx="545.7" cy="154.7" r="3" fill="#888888"/>
<circle cx="588.6" cy="180.0" r="3" fill="#888888"/>
<circle cx="620.7" cy="199.7" r="3" fill="#888888"/>
<circle cx="652.7" cy="219.0" r="3" fill="#888888"/>
<circle cx="694.9" cy="243.7" r="3" fill="#888888"/>
<circle cx="726.9" cy="265.3" r="3" fill="#888888"/>
<circle cx="758.8" cy="281.5" r="3" fill="#888888"/>
<circle cx="801.0" cy="307.7" r="3" fill="#888888"/>
<circle cx="832.9" cy="325.7" r="3" fill="#888888"/>
<line x1="886" y1="60" x2="902" y2="60" stroke="#ef4444" stroke-width="2" stroke-dasharray="8,5"/>
<circle cx="894.0" cy="60.0" r="3" fill="#ef4444"/>
<text class="label" x="908" y="64">Theoretical</text>
<line x1="886" y1="78" x2="902" y2="78" stroke="#1a6b3c" stroke-width="2"/>
<polygon points="894.0,74.0 898.0,78.0 894.0,82.0 890.0,78.0" fill="#1a6b3c"/>
<text class="label" x="908" y="82">Grafite</text>
<line x1="886" y1="96" x2="902" y2="96" stroke="#1a3a6b" stroke-width="2"/>
<polygon points="894.0,91.0 892.8,94.4 889.2,94.5 892.1,96.6 891.1,100.0 894.0,98.0 896.9,100.0 895.9,96.6 898.8,94.5 895.2,94.4" fill="#1a3a6b"/>
<text class="label" x="908" y="100">SNARF</text>
<line x1="886" y1="114" x2="902" y2="114" stroke="#111111" stroke-width="2"/>
<rect x="891.0" y="111.0" width="6" height="6" fill="#111111"/>
<text class="label" x="908" y="118">SuRF</text>
<line x1="886" y1="132" x2="902" y2="132" stroke="#111111" stroke-width="2"/>
<polygon points="894.0,128.0 898.0,135.0 890.0,135.0" fill="#111111"/>
<text class="label" x="908" y="136">SuRFHash(8)</text>
<line x1="886" y1="150" x2="902" y2="150" stroke="#111111" stroke-width="2"/>
<polygon points="894.0,146.0 898.0,150.0 894.0,154.0 890.0,150.0" fill="#111111"/>
<text class="label" x="908" y="154">SuRFReal(8)</text>
<line x1="886" y1="168" x2="902" y2="168" stroke="#2a7fff" stroke-width="2"/>
<rect x="891.0" y="165.0" width="6" height="6" fill="#2a7fff"/>
<text class="label" x="908" y="172">Adaptive (t=0)</text>
<line x1="886" y1="186" x2="902" y2="186" stroke="#9b59b6" stroke-width="2"/>
<polygon points="894.0,182.0 898.0,189.0 890.0,189.0" fill="#9b59b6"/>
<text class="label" x="908" y="190">Truncation</text>
<line x1="886" y1="204" x2="902" y2="204" stroke="#4dd88a" stroke-width="2"/>
<polygon points="894.0,200.0 898.0,204.0 894.0,208.0 890.0,204.0" fill="#4dd88a"/>
<text class="label" x="908" y="208">SODA</text>
<line x1="886" y1="222" x2="902" y2="222" stroke="#ff6b6b" stroke-width="2"/>
<polygon points="894.0,217.0 892.8,220.4 889.2,220.5 892.1,222.6 891.1,226.0 894.0,224.0 896.9,226.0 895.9,222.6 898.8,220.5 895.2,220.4" fill="#ff6b6b"/>
<text class="label" x="908" y="226">Hybrid</text>
<line x1="886" y1="240" x2="902" y2="240" stroke="#ff922b" stroke-width="2"/>
<circle cx="894.0" cy="240.0" r="3" fill="#ff922b"/>
<text class="label" x="908" y="244">CDF-ARE</text>
<line x1="886" y1="258" x2="902" y2="258" stroke="#888888" stroke-width="2" stroke-dasharray="8,5"/>
<circle cx="894.0" cy="258.0" r="3" fill="#888888"/>
<text class="label" x="908" y="262">BloomARE</text>
<text x="480" y="590" text-anchor="middle">Bits per Key (BPK)</text>
<text transform="translate(16,295) rotate(-90)" text-anchor="middle">False Positive Rate (FPR)</text>
</svg>
