<svg xmlns="http://www.w3.org/2000/svg" width="1020" height="600" viewBox="0 0 1020 600">
<style>text{font-family:Menlo,Monaco,monospace;font-size:12px;fill:#222} .axis{stroke:#333;stroke-width:1} .grid{stroke:#eee;stroke-width:0.5} .label{font-size:11px;fill:#444}</style>
<text x="510" y="28" text-anchor="middle" style="font-size:14px;font-weight:bold">FPR vs BPK — uniform (60-bit keys, n=262144, L=128)</text>
<line class="axis" x1="90.0" y1="550.0" x2="870.0" y2="550.0"/>
<line class="axis" x1="90.0" y1="40.0" x2="90.0" y2="550.0"/>
<line class="grid" x1="90.0" y1="521.7" x2="870.0" y2="521.7"/>
<text class="label" x="82.0" y="525.7" text-anchor="end">10^-8</text>
<line class="grid" x1="90.0" y1="465.0" x2="870.0" y2="465.0"/>
<text class="label" x="82.0" y="469.0" text-anchor="end">10^-7</text>
<line class="grid" x1="90.0" y1="408.3" x2="870.0" y2="408.3"/>
<text class="label" x="82.0" y="412.3" text-anchor="end">10^-6</text>
<line class="grid" x1="90.0" y1="351.7" x2="870.0" y2="351.7"/>
<text class="label" x="82.0" y="355.7" text-anchor="end">10^-5</text>
<line class="grid" x1="90.0" y1="295.0" x2="870.0" y2="295.0"/>
<text class="label" x="82.0" y="299.0" text-anchor="end">10^-4</text>
<line class="grid" x1="90.0" y1="238.3" x2="870.0" y2="238.3"/>
<text class="label" x="82.0" y="242.3" text-anchor="end">10^-3</text>
<line class="grid" x1="90.0" y1="181.7" x2="870.0" y2="181.7"/>
<text class="label" x="82.0" y="185.7" text-anchor="end">10^-2</text>
<line class="grid" x1="90.0" y1="125.0" x2="870.0" y2="125.0"/>
<text class="label" x="82.0" y="129.0" text-anchor="end">10^-1</text>
<line class="grid" x1="90.0" y1="68.3" x2="870.0" y2="68.3"/>
<text class="label" x="82.0" y="72.3" text-anchor="end">1</text>
<line class="grid" x1="90.0" y1="40.0" x2="90.0" y2="550.0"/>
<text class="label" x="90.0" y="566.0" text-anchor="middle">0</text>
<line class="grid" x1="206.1" y1="40.0" x2="206.1" y2="550.0"/>
<text class="label" x="206.1" y="566.0" text-anchor="middle">5</text>
<line class="grid" x1="322.1" y1="40.0" x2="322.1" y2="550.0"/>
<text class="label" x="322.1" y="566.0" text-anchor="middle">10</text>
<line class="grid" x1="438.2" y1="40.0" x2="438.2" y2="550.0"/>
<text class="label" x="438.2" y="566.0" text-anchor="middle">15</text>
<line class="grid" x1="554.3" y1="40.0" x2="554.3" y2="550.0"/>
<text class="label" x="554.3" y="566.0" text-anchor="middle">20</text>
<line class="grid" x1="670.4" y1="40.0" x2="670.4" y2="550.0"/>
<text class="label" x="670.4" y="566.0" text-anchor="middle">25</text>
<line class="grid" x1="786.4" y1="40.0" x2="786.4" y2="550.0"/>
<text class="label" x="786.4" y="566.0" text-anchor="middle">30</text>
<polyline fill="none" stroke="#ef4444" stroke-width="2" stroke-dasharray="8,5" points="252.5,68.3 275.7,85.4 298.9,102.5 322.1,119.5 345.4,136.6 368.6,153.6 391.8,170.7 415.0,187.7 438.2,204.8 461.4,221.9 484.6,238.9 507.9,256.0 531.1,273.0 554.3,290.1 600.7,324.2 647.1,358.3 740.0,426.6 832.9,494.8"/>
<circle cx="252.5" cy="68.3" r="3" fill="#ef4444"/>
<circle cx="275.7" cy="85.4" r="3" fill="#ef4444"/>
<circle cx="298.9" cy="102.5" r="3" fill="#ef4444"/>
<circle cx="322.1" cy="119.5" r="3" fill="#ef4444"/>
<circle cx="345.4" cy="136.6" r="3" fill="#ef4444"/>
<circle cx="368.6" cy="153.6" r="3" fill="#ef4444"/>
<circle cx="391.8" cy="170.7" r="3" fill="#ef4444"/>
<circle cx="415.0" cy="187.7" r="3" fill="#ef4444"/>
<circle cx="438.2" cy="204.8" r="3" fill="#ef4444"/>
<circle cx="461.4" cy="221.9" r="3" fill="#ef4444"/>
<circle cx="484.6" cy="238.9" r="3" fill="#ef4444"/>
<circle cx="507.9" cy="256.0" r="3" fill="#ef4444"/>
<circle cx="531.1" cy="273.0" r="3" fill="#ef4444"/>
<circle cx="554.3" cy="290.1" r="3" fill="#ef4444"/>
<circle cx="600.7" cy="324.2" r="3" fill="#ef4444"/>
<circle cx="647.1" cy="358.3" r="3" fill="#ef4444"/>
<circle cx="740.0" cy="426.6" r="3" fill="#ef4444"/>
<circle cx="832.9" cy="494.8" r="3" fill="#ef4444"/>
<polyline fill="none" stroke="#1a6b3c" stroke-width="2" points="188.8,68.3 240.3,68.3 289.2,72.0 336.5,91.3 383.2,121.1 429.8,154.2 483.5,187.6 529.9,222.1 576.3,258.4"/>
<polygon points="188.8,64.3 192.8,68.3 188.8,72.3 184.8,68.3" fill="#1a6b3c"/>
<polygon points="240.3,64.3 244.3,68.3 240.3,72.3 236.3,68.3" fill="#1a6b3c"/>
<polygon points="289.2,68.0 293.2,72.0 289.2,76.0 285.2,72.0" fill="#1a6b3c"/>
<polygon points="336.5,87.3 340.5,91.3 336.5,95.3 332.5,91.3" fill="#1a6b3c"/>
<polygon points="383.2,117.1 387.2,121.1 383.2,125.1 379.2,121.1" fill="#1a6b3c"/>
<polygon points="429.8,150.2 433.8,154.2 429.8,158.2 425.8,154.2" fill="#1a6b3c"/>
<polygon points="483.5,183.6 487.5,187.6 483.5,191.6 479.5,187.6" fill="#1a6b3c"/>
<polygon points="529.9,218.1 533.9,222.1 529.9,226.1 525.9,222.1" fill="#1a6b3c"/>
<polygon points="576.3,254.4 580.3,258.4 576.3,262.4 572.3,258.4" fill="#1a6b3c"/>
<polyline fill="none" stroke="#1a3a6b" stroke-width="2" points="168.3,90.6 214.5,120.2 261.1,153.3 307.8,186.5 354.0,220.8 400.2,256.0 446.8,292.5 493.5,326.4 539.7,362.8"/>
<polygon points="168.3,85.6 167.1,89.0 163.5,89.1 166.4,91.3 165.3,94.7 168.3,92.6 171.2,94.7 170.2,91.3 173.0,89.1 169.5,89.0" fill="#1a3a6b"/>
<polygon points="214.5,115.2 213.3,118.6 209.7,118.7 212.6,120.9 211.5,124.3 214.5,122.2 217.4,124.3 216.4,120.9 219.2,118.7 215.7,118.6" fill="#1a3a6b"/>
<polygon points="261.1,148.3 260.0,151.7 256.4,151.8 259.2,153.9 258.2,157.4 261.1,155.3 264.1,157.4 263.0,153.9 265.9,151.8 262.3,151.7" fill="#1a3a6b"/>
<polygon points="307.8,181.5 306.6,184.9 303.0,184.9 305.9,187.1 304.9,190.5 307.8,188.5 310.7,190.5 309.7,187.1 312.6,184.9 309.0,184.9" fill="#1a3a6b"/>
<polygon points="354.0,215.8 352.8,219.2 349.2,219.3 352.1,221.5 351.1,224.9 354.0,222.8 356.9,224.9 355.9,221.5 358.8,219.3 355.2,219.2" fill="#1a3a6b"/>
<polygon points="400.2,251.0 399.0,254.4 395.4,254.4 398.3,256.6 397.3,260.0 400.2,258.0 403.1,260.0 402.1,256.6 404.9,254.4 401.4,254.4" fill="#1a3a6b"/>
<polygon points="446.8,287.5 445.7,290.9 442.1,291.0 444.9,293.1 443.9,296.6 446.8,294.5 449.8,296.6 448.8,293.1 451.6,291.0 448.0,290.9" fill="#1a3a6b"/>
<polygon points="493.5,321.4 492.3,324.7 488.8,324.8 491.6,327.0 490.6,330.4 493.5,328.4 496.5,330.4 495.4,327.0 498.3,324.8 494.7,324.7" fill="#1a3a6b"/>
<polygon points="539.7,357.8 538.5,361.2 535.0,361.3 537.8,363.4 536.8,366.9 539.7,364.8 542.7,366.9 541.6,363.4 544.5,361.3 540.9,361.2" fill="#1a3a6b"/>
<polyline fill="none" stroke="#111111" stroke-width="2" points="342.5,108.6"/>
<rect x="339.5" y="105.6" width="6" height="6" fill="#111111"/>
<polyline fill="none" stroke="#111111" stroke-width="2" points="528.2,108.6"/>
<polygon points="528.2,104.6 532.2,111.6 524.2,111.6" fill="#111111"/>
<polyline fill="none" stroke="#111111" stroke-width="2" points="528.2,246.0"/>
<polygon points="528.2,242.0 532.2,246.0 528.2,250.0 524.2,246.0" fill="#111111"/>
<polyline fill="none" stroke="#2a7fff" stroke-width="2" points="90.0,68.3 90.0,68.3 90.0,68.3 90.0,68.3 90.1,68.3 90.1,68.3 90.3,68.3 90.5,68.3 91.1,68.3 92.2,68.3 94.4,68.3 98.7,68.3 107.2,68.3 121.7,68.3 142.5,68.3 168.0,68.3 195.3,68.3 248.2,68.3 297.5,71.9 391.7,121.0 484.6,188.1"/>
<rect x="87.0" y="65.3" width="6" height="6" fill="#2a7fff"/>
<rect x="87.0" y="65.3" width="6" height="6" fill="#2a7fff"/>
<rect x="87.0" y="65.3" width="6" height="6" fill="#2a7fff"/>
<rect x="87.0" y="65.3" width="6" height="6" fill="#2a7fff"/>
<rect x="87.1" y="65.3" width="6" height="6" fill="#2a7fff"/>
<rect x="87.1" y="65.3" width="6" height="6" fill="#2a7fff"/>
<rect x="87.3" y="65.3" width="6" height="6" fill="#2a7fff"/>
<rect x="87.5" y="65.3" width="6" height="6" fill="#2a7fff"/>
<rect x="88.1" y="65.3" width="6" height="6" fill="#2a7fff"/>
<rect x="89.2" y="65.3" width="6" height="6" fill="#2a7fff"/>
<rect x="91.4" y="65.3" width="6" height="6" fill="#2a7fff"/>
<rect x="95.7" y="65.3" width="6" height="6" fill="#2a7fff"/>
<rect x="104.2" y="65.3" width="6" height="6" fill="#2a7fff"/>
<rect x="118.7" y="65.3" width="6" height="6" fill="#2a7fff"/>
<rect x="139.5" y="65.3" width="6" height="6" fill="#2a7fff"/>
<rect x="165.0" y="65.3" width="6" height="6" fill="#2a7fff"/>
<rect x="192.3" y="65.3" width="6" height="6" fill="#2a7fff"/>
<rect x="245.2" y="65.3" width="6" height="6" fill="#2a7fff"/>
<rect x="294.5" y="68.9" width="6" height="6" fill="#2a7fff"/>
<rect x="388.7" y="118.0" width="6" height="6" fill="#2a7fff"/>
<rect x="481.6" y="185.1" width="6" height="6" fill="#2a7fff"/>
<polyline fill="none" stroke="#9b59b6" stroke-width="2" points="90.0,68.3 90.0,68.3 90.0,68.3 90.0,68.3 90.1,68.3 90.1,68.3 90.3,68.3 90.5,68.3 91.1,68.3 92.2,68.3 94.4,68.3 98.7,68.3 107.2,68.8 121.7,71.9 142.5,79.7 167.9,91.3 195.2,105.4 248.2,137.3 297.5,170.9 391.7,239.0 484.6,302.9"/>
<polygon points="90.0,64.3 94.0,71.3 86.0,71.3" fill="#9b59b6"/>
<polygon points="90.0,64.3 94.0,71.3 86.0,71.3" fill="#9b59b6"/>
<polygon points="90.0,64.3 94.0,71.3 86.0,71.3" fill="#9b59b6"/>
<polygon points="90.0,64.3 94.0,71.3 86.0,71.3" fill="#9b59b6"/>
<polygon points="90.1,64.3 94.1,71.3 86.1,71.3" fill="#9b59b6"/>
<polygon points="90.1,64.3 94.1,71.3 86.1,71.3" fill="#9b59b6"/>
<polygon points="90.3,64.3 94.3,71.3 86.3,71.3" fill="#9b59b6"/>
<polygon points="90.5,64.3 94.5,71.3 86.5,71.3" fill="#9b59b6"/>
<polygon points="91.1,64.3 95.1,71.3 87.1,71.3" fill="#9b59b6"/>
<polygon points="92.2,64.3 96.2,71.3 88.2,71.3" fill="#9b59b6"/>
<polygon points="94.4,64.3 98.4,71.3 90.4,71.3" fill="#9b59b6"/>
<polygon points="98.7,64.3 102.7,71.3 94.7,71.3" fill="#9b59b6"/>
<polygon points="107.2,64.8 111.2,71.8 103.2,71.8" fill="#9b59b6"/>
<polygon points="121.7,67.9 125.7,74.9 117.7,74.9" fill="#9b59b6"/>
<polygon points="142.5,75.7 146.5,82.7 138.5,82.7" fill="#9b59b6"/>
<polygon points="167.9,87.3 171.9,94.3 163.9,94.3" fill="#9b59b6"/>
<polygon points="195.2,101.4 199.2,108.4 191.2,108.4" fill="#9b59b6"/>
<polygon points="248.2,133.3 252.2,140.3 244.2,140.3" fill="#9b59b6"/>
<polygon points="297.5,166.9 301.5,173.9 293.5,173.9" fill="#9b59b6"/>
<polygon points="391.7,235.0 395.7,242.0 387.7,242.0" fill="#9b59b6"/>
<polygon points="484.6,298.9 488.6,305.9 480.6,305.9" fill="#9b59b6"/>
<polyline fill="none" stroke="#4dd88a" stroke-width="2" points="90.0,68.3 90.0,68.3 90.0,68.3 90.0,68.3 90.1,68.3 90.1,68.3 90.3,68.3 90.5,68.3 91.1,68.3 92.2,68.3 94.4,68.3 98.7,68.3 107.2,68.3 121.7,68.3 142.5,68.3 168.0,68.3 195.3,68.3 248.2,68.3 297.5,71.9 391.7,121.0 484.6,188.1"/>
<polygon points="90.0,64.3 94.0,68.3 90.0,72.3 86.0,68.3" fill="#4dd88a"/>
<polygon points="90.0,64.3 94.0,68.3 90.0,72.3 86.0,68.3" fill="#4dd88a"/>
<polygon points="90.0,64.3 94.0,68.3 90.0,72.3 86.0,68.3" fill="#4dd88a"/>
<polygon points="90.0,64.3 94.0,68.3 90.0,72.3 86.0,68.3" fill="#4dd88a"/>
<polygon points="90.1,64.3 94.1,68.3 90.1,72.3 86.1,68.3" fill="#4dd88a"/>
<polygon points="90.1,64.3 94.1,68.3 90.1,72.3 86.1,68.3" fill="#4dd88a"/>
<polygon points="90.3,64.3 94.3,68.3 90.3,72.3 86.3,68.3" fill="#4dd88a"/>
<polygon points="90.5,64.3 94.5,68.3 90.5,72.3 86.5,68.3" fill="#4dd88a"/>
<polygon points="91.1,64.3 95.1,68.3 91.1,72.3 87.1,68.3" fill="#4dd88a"/>
<polygon points="92.2,64.3 96.2,68.3 92.2,72.3 88.2,68.3" fill="#4dd88a"/>
<polygon points="94.4,64.3 98.4,68.3 94.4,72.3 90.4,68.3" fill="#4dd88a"/>
<polygon points="98.7,64.3 102.7,68.3 98.7,72.3 94.7,68.3" fill="#4dd88a"/>
<polygon points="107.2,64.3 111.2,68.3 107.2,72.3 103.2,68.3" fill="#4dd88a"/>
<polygon points="121.7,64.3 125.7,68.3 121.7,72.3 117.7,68.3" fill="#4dd88a"/>
<polygon points="142.5,64.3 146.5,68.3 142.5,72.3 138.5,68.3" fill="#4dd88a"/>
<polygon points="168.0,64.3 172.0,68.3 168.0,72.3 164.0,68.3" fill="#4dd88a"/>
<polygon points="195.3,64.3 199.3,68.3 195.3,72.3 191.3,68.3" fill="#4dd88a"/>
<polygon points="248.2,64.3 252.2,68.3 248.2,72.3 244.2,68.3" fill="#4dd88a"/>
<polygon points="297.5,67.9 301.5,71.9 297.5,75.9 293.5,71.9" fill="#4dd88a"/>
<polygon points="391.7,117.0 395.7,121.0 391.7,125.0 387.7,121.0" fill="#4dd88a"/>
<polygon points="484.6,184.1 488.6,188.1 484.6,192.1 480.6,188.1" fill="#4dd88a"/>
<polyline fill="none" stroke="#ff6b6b" stroke-width="2" points="90.0,68.3 90.0,68.3 90.0,68.3 90.0,68.3 90.1,68.3 90.1,68.3 90.3,68.3 90.5,68.3 91.1,68.3 92.2,68.3 94.4,68.3 98.7,68.3 107.2,68.8 121.7,71.9 142.5,79.7 167.9,91.3 195.2,105.4 248.2,137.3 297.5,170.9 391.7,239.0 484.6,302.9"/>
<polygon points="90.0,63.3 88.8,66.7 85.2,66.8 88.1,69.0 87.1,72.4 90.0,70.3 92.9,72.4 91.9,69.0 94.8,66.8 91.2,66.7" fill="#ff6b6b"/>
<polygon points="90.0,63.3 88.8,66.7 85.3,66.8 88.1,69.0 87.1,72.4 90.0,70.3 92.9,72.4 91.9,69.0 94.8,66.8 91.2,66.7" fill="#ff6b6b"/>
<polygon points="90.0,63.3 88.8,66.7 85.3,66.8 88.1,69.0 87.1,72.4 90.0,70.3 93.0,72.4 91.9,69.0 94.8,66.8 91.2,66.7" fill="#ff6b6b"/>
<polygon points="90.0,63.3 88.9,66.7 85.3,66.8 88.1,69.0 87.1,72.4 90.0,70.3 93.0,72.4 91.9,69.0 94.8,66.8 91.2,66.7" fill="#ff6b6b"/>
<polygon points="90.1,63.3 88.9,66.7 85.3,66.8 88.2,69.0 87.1,72.4 90.1,70.3 93.0,72.4 92.0,69.0 94.8,66.8 91.2,66.7" fill="#ff6b6b"/>
<polygon points="90.1,63.3 89.0,66.7 85.4,66.8 88.2,69.0 87.2,72.4 90.1,70.3 93.1,72.4 92.0,69.0 94.9,66.8 91.3,66.7" fill="#ff6b6b"/>
<polygon points="90.3,63.3 89.1,66.7 85.5,66.8 88.4,69.0 87.3,72.4 90.3,70.3 93.2,72.4 92.2,69.0 95.0,66.8 91.4,66.7" fill="#ff6b6b"/>
<polygon points="90.5,63.3 89.4,66.7 85.8,66.8 88.6,69.0 87.6,72.4 90.5,70.3 93.5,72.4 92.4,69.0 95.3,66.8 91.7,66.7" fill="#ff6b6b"/>
<polygon points="91.1,63.3 89.9,66.7 86.3,66.8 89.2,69.0 88.1,72.4 91.1,70.3 94.0,72.4 93.0,69.0 95.8,66.8 92.3,66.7" fill="#ff6b6b"/>
<polygon points="92.2,63.3 91.0,66.7 87.4,66.8 90.3,69.0 89.2,72.4 92.2,70.3 95.1,72.4 94.1,69.0 96.9,66.8 93.4,66.7" fill="#ff6b6b"/>
<polygon points="94.4,63.3 93.2,66.7 89.6,66.8 92.5,69.0 91.4,72.4 94.4,70.3 97.3,72.4 96.3,69.0 99.1,66.8 95.5,66.7" fill="#ff6b6b"/>
<polygon points="98.7,63.3 97.5,66.7 93.9,66.8 96.8,69.0 95.8,72.4 98.7,70.3 101.6,72.4 100.6,69.0 103.5,66.8 99.9,66.7" fill="#ff6b6b"/>
<polygon points="107.2,63.8 106.0,67.2 102.4,67.2 105.3,69.4 104.3,72.8 107.2,70.8 110.1,72.8 109.1,69.4 112.0,67.2 108.4,67.2" fill="#ff6b6b"/>
<polygon points="121.7,66.9 120.5,70.3 116.9,70.4 119.8,72.6 118.7,76.0 121.7,73.9 124.6,76.0 123.6,72.6 126.4,70.4 122.8,70.3" fill="#ff6b6b"/>
<polygon points="142.5,74.7 141.4,78.0 137.8,78.1 140.6,80.3 139.6,83.7 142.5,81.7 145.5,83.7 144.4,80.3 147.3,78.1 143.7,78.0" fill="#ff6b6b"/>
<polygon points="167.9,86.3 166.7,89.7 163.2,89.8 166.0,91.9 165.0,95.4 167.9,93.3 170.9,95.4 169.8,91.9 172.7,89.8 169.1,89.7" fill="#ff6b6b"/>
<polygon points="195.2,100.4 194.1,103.8 190.5,103.9 193.3,106.1 192.3,109.5 195.2,107.4 198.2,109.5 197.1,106.1 200.0,103.9 196.4,103.8" fill="#ff6b6b"/>
<polygon points="248.2,132.3 247.0,135.7 243.4,135.8 246.3,137.9 245.3,141.3 248.2,139.3 251.1,141.3 250.1,137.9 252.9,135.8 249.4,135.7" fill="#ff6b6b"/>
<polygon points="297.5,165.9 296.3,169.3 292.7,169.3 295.6,171.5 294.5,174.9 297.5,172.9 300.4,174.9 299.4,171.5 302.2,169.3 298.6,169.3" fill="#ff6b6b"/>
<polygon points="391.7,234.0 390.5,237.4 386.9,237.5 389.8,239.7 388.7,243.1 391.7,241.0 394.6,243.1 393.6,239.7 396.4,237.5 392.8,237.4" fill="#ff6b6b"/>
<polygon points="484.6,297.9 483.5,301.3 479.9,301.4 482.7,303.5 481.7,307.0 484.6,304.9 487.6,307.0 486.5,303.5 489.4,301.4 485.8,301.3" fill="#ff6b6b"/>
<polyline fill="none" stroke="#ff922b" stroke-width="2" points="293.0,129.2 318.7,145.9 343.4,162.5 367.4,179.1 391.1,196.0 414.6,213.5 438.0,230.0 461.3,247.5 507.8,285.0 531.1,297.9"/>
<circle cx="293.0" cy="129.2" r="3" fill="#ff922b"/>
<circle cx="318.7" cy="145.9" r="3" fill="#ff922b"/>
<circle cx="343.4" cy="162.5" r="3" fill="#ff922b"/>
<circle cx="367.4" cy="179.1" r="3" fill="#ff922b"/>
<circle cx="391.1" cy="196.0" r="3" fill="#ff922b"/>
<circle cx="414.6" cy="213.5" r="3" fill="#ff922b"/>
<circle cx="438.0" cy="230.0" r="3" fill="#ff922b"/>
<circle cx="461.3" cy="247.5" r="3" fill="#ff922b"/>
<circle cx="507.8" cy="285.0" r="3" fill="#ff922b"/>
<circle cx="531.1" cy="297.9" r="3" fill="#ff922b"/>
<polyline fill="none" stroke="#888888" stroke-width="2" stroke-dasharray="8,5" points="433.2,124.8 468.0,141.9 513.0,164.3 546.7,181.6 580.3,198.4 624.7,221.0 658.2,239.4 691.7,256.4 736.0,278.5 769.5,296.2"/>
<circle cx="433.2" cy="124.8" r="3" fill="#888888"/>
<circle cx="468.0" cy="141.9" r="3" fill="#888888"/>
<circle cx="513.0" cy="164.3" r="3" fill="#888888"/>
<circle cx="546.7" cy="181.6" r="3" fill="#888888"/>
<circle cx="580.3" cy="198.4" r="3" fill="#888888"/>
<circle cx="624.7" cy="221.0" r="3" fill="#888888"/>
<circle cx="658.2" cy="239.4" r="3" fill="#888888"/>
<circle cx="691.7" cy="256.4" r="3" fill="#888888"/>
<circle cx="736.0" cy="278.5" r="3" fill="#888888"/>
<circle cx="769.5" cy="296.2" r="3" fill="#888888"/>
<line x1="886" y1="60" x2="902" y2="60" stroke="#ef4444" stroke-width="2" stroke-dasharray="8,5"/>
<circle cx="894.0" cy="60.0" r="3" fill="#ef4444"/>
<text class="label" x="908" y="64">Theoretical</text>
<line x1="886" y1="78" x2="902" y2="78" stroke="#1a6b3c" stroke-width="2"/>
<polygon points="894.0,74.0 898.0,78.0 894.0,82.0 890.0,78.0" fill="#1a6b3c"/>
<text class="label" x="908" y="82">Grafite</text>
<line x1="886" y1="96" x2="902" y2="96" stroke="#1a3a6b" stroke-width="2"/>
<polygon points="894.0,91.0 892.8,94.4 889.2,94.5 892.1,96.6 891.1,100.0 894.0,98.0 896.9,100.0 895.9,96.6 898.8,94.5 895.2,94.4" fill="#1a3a6b"/>
<text class="label" x="908" y="100">SNARF</text>
<line x1="886" y1="114" x2="902" y2="114" stroke="#111111" stroke-width="2"/>
<rect x="891.0" y="111.0" width="6" height="6" fill="#111111"/>
<text class="label" x="908" y="118">SuRF</text>
<line x1="886" y1="132" x2="902" y2="132" stroke="#111111" stroke-width="2"/>
<polygon points="894.0,128.0 898.0,135.0 890.0,135.0" fill="#111111"/>
<text class="label" x="908" y="136">SuRFHash(8)</text>
<line x1="886" y1="150" x2="902" y2="150" stroke="#111111" stroke-width="2"/>
<polygon points="894.0,146.0 898.0,150.0 894.0,154.0 890.0,150.0" fill="#111111"/>
<text class="label" x="908" y="154">SuRFReal(8)</text>
<line x1="886" y1="168" x2="902" y2="168" stroke="#2a7fff" stroke-width="2"/>
<rect x="891.0" y="165.0" width="6" height="6" fill="#2a7fff"/>
<text class="label" x="908" y="172">Adaptive (t=0)</text>
<line x1="886" y1="186" x2="902" y2="186" stroke="#9b59b6" stroke-width="2"/>
<polygon points="894.0,182.0 898.0,189.0 890.0,189.0" fill="#9b59b6"/>
<text class="label" x="908" y="190">Truncation</text>
<line x1="886" y1="204" x2="902" y2="204" stroke="#4dd88a" stroke-width="2"/>
<polygon points="894.0,200.0 898.0,204.0 894.0,208.0 890.0,204.0" fill="#4dd88a"/>
<text class="label" x="908" y="208">SODA</text>
<line x1="886" y1="222" x2="902" y2="222" stroke="#ff6b6b" stroke-width="2"/>
<polygon points="894.0,217.0 892.8,220.4 889.2,220.5 892.1,222.6 891.1,226.0 894.0,224.0 896.9,226.0 895.9,222.6 898.8,220.5 895.2,220.4" fill="#ff6b6b"/>
<text class="label" x="908" y="226">Hybrid</text>
<line x1="886" y1="240" x2="902" y2="240" stroke="#ff922b" stroke-width="2"/>
<circle cx="894.0" cy="240.0" r="3" fill="#ff922b"/>
<text class="label" x="908" y="244">CDF-ARE</text>
<line x1="886" y1="258" x2="902" y2="258" stroke="#888888" stroke-width="2" stroke-dasharray="8,5"/>
<circle cx="894.0" cy="258.0" r="3" fill="#888888"/>
<text class="label" x="908" y="262">BloomARE</text>
<text x="480" y="590" text-anchor="middle">Bits per Key (BPK)</text>
<text transform="translate(16,295) rotate(-90)" text-anchor="middle">False Positive Rate (FPR)</text>
</svg>
