<svg xmlns="http://www.w3.org/2000/svg" width="1020" height="600" viewBox="0 0 1020 600">
<style>text{font-family:Menlo,Monaco,monospace;font-size:12px;fill:#222} .axis{stroke:#333;stroke-width:1} .grid{stroke:#eee;stroke-width:0.5} .label{font-size:11px;fill:#444}</style>
<text x="510" y="28" text-anchor="middle" style="font-size:14px;font-weight:bold">FPR vs BPK — uniform (60-bit keys, n=262144, L=16)</text>
<line class="axis" x1="90.0" y1="550.0" x2="870.0" y2="550.0"/>
<line class="axis" x1="90.0" y1="40.0" x2="90.0" y2="550.0"/>
<line class="grid" x1="90.0" y1="524.5" x2="870.0" y2="524.5"/>
<text class="label" x="82.0" y="528.5" text-anchor="end">10^-9</text>
<line class="grid" x1="90.0" y1="473.5" x2="870.0" y2="473.5"/>
<text class="label" x="82.0" y="477.5" text-anchor="end">10^-8</text>
<line class="grid" x1="90.0" y1="422.5" x2="870.0" y2="422.5"/>
<text class="label" x="82.0" y="426.5" text-anchor="end">10^-7</text>
<line class="grid" x1="90.0" y1="371.5" x2="870.0" y2="371.5"/>
<text class="label" x="82.0" y="375.5" text-anchor="end">10^-6</text>
<line class="grid" x1="90.0" y1="320.5" x2="870.0" y2="320.5"/>
<text class="label" x="82.0" y="324.5" text-anchor="end">10^-5</text>
<line class="grid" x1="90.0" y1="269.5" x2="870.0" y2="269.5"/>
<text class="label" x="82.0" y="273.5" text-anchor="end">10^-4</text>
<line class="grid" x1="90.0" y1="218.5" x2="870.0" y2="218.5"/>
<text class="label" x="82.0" y="222.5" text-anchor="end">10^-3</text>
<line class="grid" x1="90.0" y1="167.5" x2="870.0" y2="167.5"/>
<text class="label" x="82.0" y="171.5" text-anchor="end">10^-2</text>
<line class="grid" x1="90.0" y1="116.5" x2="870.0" y2="116.5"/>
<text class="label" x="82.0" y="120.5" text-anchor="end">10^-1</text>
<line class="grid" x1="90.0" y1="65.5" x2="870.0" y2="65.5"/>
<text class="label" x="82.0" y="69.5" text-anchor="end">1</text>
<line class="grid" x1="90.0" y1="40.0" x2="90.0" y2="550.0"/>
<text class="label" x="90.0" y="566.0" text-anchor="middle">0</text>
<line class="grid" x1="206.1" y1="40.0" x2="206.1" y2="550.0"/>
<text class="label" x="206.1" y="566.0" text-anchor="middle">5</text>
<line class="grid" x1="322.1" y1="40.0" x2="322.1" y2="550.0"/>
<text class="label" x="322.1" y="566.0" text-anchor="middle">10</text>
<line class="grid" x1="438.2" y1="40.0" x2="438.2" y2="550.0"/>
<text class="label" x="438.2" y="566.0" text-anchor="middle">15</text>
<line class="grid" x1="554.3" y1="40.0" x2="554.3" y2="550.0"/>
<text class="label" x="554.3" y="566.0" text-anchor="middle">20</text>
<line class="grid" x1="670.4" y1="40.0" x2="670.4" y2="550.0"/>
<text class="label" x="670.4" y="566.0" text-anchor="middle">25</text>
<line class="grid" x1="786.4" y1="40.0" x2="786.4" y2="550.0"/>
<text class="label" x="786.4" y="566.0" text-anchor="middle">30</text>
<polyline fill="none" stroke="#ef4444" stroke-width="2" stroke-dasharray="8,5" points="182.9,65.5 206.1,80.9 229.3,96.2 252.5,111.6 275.7,126.9 298.9,142.3 322.1,157.6 345.4,173.0 368.6,188.3 391.8,203.7 415.0,219.0 438.2,234.4 461.4,249.7 484.6,265.1 507.9,280.4 531.1,295.8 554.3,311.1 600.7,341.8 647.1,372.6 740.0,434.0 832.9,495.4"/>
<circle cx="182.9" cy="65.5" r="3" fill="#ef4444"/>
<circle cx="206.1" cy="80.9" r="3" fill="#ef4444"/>
<circle cx="229.3" cy="96.2" r="3" fill="#ef4444"/>
<circle cx="252.5" cy="111.6" r="3" fill="#ef4444"/>
<circle cx="275.7" cy="126.9" r="3" fill="#ef4444"/>
<circle cx="298.9" cy="142.3" r="3" fill="#ef4444"/>
<circle cx="322.1" cy="157.6" r="3" fill="#ef4444"/>
<circle cx="345.4" cy="173.0" r="3" fill="#ef4444"/>
<circle cx="368.6" cy="188.3" r="3" fill="#ef4444"/>
<circle cx="391.8" cy="203.7" r="3" fill="#ef4444"/>
<circle cx="415.0" cy="219.0" r="3" fill="#ef4444"/>
<circle cx="438.2" cy="234.4" r="3" fill="#ef4444"/>
<circle cx="461.4" cy="249.7" r="3" fill="#ef4444"/>
<circle cx="484.6" cy="265.1" r="3" fill="#ef4444"/>
<circle cx="507.9" cy="280.4" r="3" fill="#ef4444"/>
<circle cx="531.1" cy="295.8" r="3" fill="#ef4444"/>
<circle cx="554.3" cy="311.1" r="3" fill="#ef4444"/>
<circle cx="600.7" cy="341.8" r="3" fill="#ef4444"/>
<circle cx="647.1" cy="372.6" r="3" fill="#ef4444"/>
<circle cx="740.0" cy="434.0" r="3" fill="#ef4444"/>
<circle cx="832.9" cy="495.4" r="3" fill="#ef4444"/>
<polyline fill="none" stroke="#1a6b3c" stroke-width="2" points="188.8,65.9 240.3,75.7 289.2,98.9 336.5,127.6 383.2,157.7 429.8,188.4 476.2,219.0 522.6,249.5 569.1,279.5"/>
<polygon points="188.8,61.9 192.8,65.9 188.8,69.9 184.8,65.9" fill="#1a6b3c"/>
<polygon points="240.3,71.7 244.3,75.7 240.3,79.7 236.3,75.7" fill="#1a6b3c"/>
<polygon points="289.2,94.9 293.2,98.9 289.2,102.9 285.2,98.9" fill="#1a6b3c"/>
<polygon points="336.5,123.6 340.5,127.6 336.5,131.6 332.5,127.6" fill="#1a6b3c"/>
<polygon points="383.2,153.7 387.2,157.7 383.2,161.7 379.2,157.7" fill="#1a6b3c"/>
<polygon points="429.8,184.4 433.8,188.4 429.8,192.4 425.8,188.4" fill="#1a6b3c"/>
<polygon points="476.2,215.0 480.2,219.0 476.2,223.0 472.2,219.0" fill="#1a6b3c"/>
<polygon points="522.6,245.5 526.6,249.5 522.6,253.5 518.6,249.5" fill="#1a6b3c"/>
<polygon points="569.1,275.5 573.1,279.5 569.1,283.5 565.1,279.5" fill="#1a6b3c"/>
<polyline fill="none" stroke="#1a3a6b" stroke-width="2" points="168.3,85.6 214.5,112.2 261.1,142.0 307.8,171.8 354.0,202.8 400.2,234.4 446.8,267.3 493.5,297.7 539.7,330.5"/>
<polygon points="168.3,80.6 167.1,84.0 163.5,84.0 166.4,86.2 165.3,89.6 168.3,87.6 171.2,89.6 170.2,86.2 173.0,84.0 169.5,84.0" fill="#1a3a6b"/>
<polygon points="214.5,107.2 213.3,110.6 209.7,110.7 212.6,112.8 211.5,116.3 214.5,114.2 217.4,116.3 216.4,112.8 219.2,110.7 215.7,110.6" fill="#1a3a6b"/>
<polygon points="261.1,137.0 260.0,140.4 256.4,140.4 259.2,142.6 258.2,146.0 261.1,144.0 264.1,146.0 263.0,142.6 265.9,140.4 262.3,140.4" fill="#1a3a6b"/>
<polygon points="307.8,166.8 306.6,170.2 303.0,170.3 305.9,172.5 304.9,175.9 307.8,173.8 310.7,175.9 309.7,172.5 312.6,170.3 309.0,170.2" fill="#1a3a6b"/>
<polygon points="354.0,197.8 352.8,201.1 349.2,201.2 352.1,203.4 351.1,206.8 354.0,204.8 356.9,206.8 355.9,203.4 358.8,201.2 355.2,201.1" fill="#1a3a6b"/>
<polygon points="400.2,229.4 399.0,232.8 395.4,232.8 398.3,235.0 397.3,238.4 400.2,236.4 403.1,238.4 402.1,235.0 404.9,232.8 401.4,232.8" fill="#1a3a6b"/>
<polygon points="446.8,262.3 445.7,265.6 442.1,265.7 444.9,267.9 443.9,271.3 446.8,269.3 449.8,271.3 448.8,267.9 451.6,265.7 448.0,265.6" fill="#1a3a6b"/>
<polygon points="493.5,292.7 492.3,296.1 488.8,296.2 491.6,298.3 490.6,301.8 493.5,299.7 496.5,301.8 495.4,298.3 498.3,296.2 494.7,296.1" fill="#1a3a6b"/>
<polygon points="539.7,325.5 538.5,328.9 535.0,329.0 537.8,331.1 536.8,334.6 539.7,332.5 542.7,334.6 541.6,331.1 544.5,329.0 540.9,328.9" fill="#1a3a6b"/>
<polyline fill="none" stroke="#111111" stroke-width="2" points="342.5,101.8"/>
<rect x="339.5" y="98.8" width="6" height="6" fill="#111111"/>
<polyline fill="none" stroke="#111111" stroke-width="2" points="528.2,101.8"/>
<polygon points="528.2,97.8 532.2,104.8 524.2,104.8" fill="#111111"/>
<polyline fill="none" stroke="#111111" stroke-width="2" points="528.2,225.4"/>
<polygon points="528.2,221.4 532.2,225.4 528.2,229.4 524.2,225.4" fill="#111111"/>
<polyline fill="none" stroke="#2a7fff" stroke-width="2" points="90.0,65.5 90.0,65.5 90.0,65.5 90.0,65.5 90.1,65.5 90.1,65.5 90.3,65.5 90.5,65.5 91.1,65.5 92.2,65.5 94.4,65.5 98.7,65.5 107.2,65.5 121.7,65.5 142.5,65.5 168.0,65.5 195.3,65.9 248.2,75.7 297.5,98.9 391.7,158.1 484.6,220.1"/>
<rect x="87.0" y="62.5" width="6" height="6" fill="#2a7fff"/>
<rect x="87.0" y="62.5" width="6" height="6" fill="#2a7fff"/>
<rect x="87.0" y="62.5" width="6" height="6" fill="#2a7fff"/>
<rect x="87.0" y="62.5" width="6" height="6" fill="#2a7fff"/>
<rect x="87.1" y="62.5" width="6" height="6" fill="#2a7fff"/>
<rect x="87.1" y="62.5" width="6" height="6" fill="#2a7fff"/>
<rect x="87.3" y="62.5" width="6" height="6" fill="#2a7fff"/>
<rect x="87.5" y="62.5" width="6" height="6" fill="#2a7fff"/>
<rect x="88.1" y="62.5" width="6" height="6" fill="#2a7fff"/>
<rect x="89.2" y="62.5" width="6" height="6" fill="#2a7fff"/>
<rect x="91.4" y="62.5" width="6" height="6" fill="#2a7fff"/>
<rect x="95.7" y="62.5" width="6" height="6" fill="#2a7fff"/>
<rect x="104.2" y="62.5" width="6" height="6" fill="#2a7fff"/>
<rect x="118.7" y="62.5" width="6" height="6" fill="#2a7fff"/>
<rect x="139.5" y="62.5" width="6" height="6" fill="#2a7fff"/>
<rect x="165.0" y="62.5" width="6" height="6" fill="#2a7fff"/>
<rect x="192.3" y="62.9" width="6" height="6" fill="#2a7fff"/>
<rect x="245.2" y="72.7" width="6" height="6" fill="#2a7fff"/>
<rect x="294.5" y="95.9" width="6" height="6" fill="#2a7fff"/>
<rect x="388.7" y="155.1" width="6" height="6" fill="#2a7fff"/>
<rect x="481.6" y="217.1" width="6" height="6" fill="#2a7fff"/>
<polyline fill="none" stroke="#9b59b6" stroke-width="2" points="90.0,65.5 90.0,65.5 90.0,65.5 90.0,65.5 90.1,65.5 90.1,65.5 90.3,65.5 90.5,65.5 91.1,65.5 92.2,65.5 94.4,65.5 98.7,65.5 107.2,65.9 121.7,68.7 142.5,75.7 167.9,86.2 195.2,98.9 248.2,127.6 297.5,157.8 391.7,219.1 484.6,276.6"/>
<polygon points="90.0,61.5 94.0,68.5 86.0,68.5" fill="#9b59b6"/>
<polygon points="90.0,61.5 94.0,68.5 86.0,68.5" fill="#9b59b6"/>
<polygon points="90.0,61.5 94.0,68.5 86.0,68.5" fill="#9b59b6"/>
<polygon points="90.0,61.5 94.0,68.5 86.0,68.5" fill="#9b59b6"/>
<polygon points="90.1,61.5 94.1,68.5 86.1,68.5" fill="#9b59b6"/>
<polygon points="90.1,61.5 94.1,68.5 86.1,68.5" fill="#9b59b6"/>
<polygon points="90.3,61.5 94.3,68.5 86.3,68.5" fill="#9b59b6"/>
<polygon points="90.5,61.5 94.5,68.5 86.5,68.5" fill="#9b59b6"/>
<polygon points="91.1,61.5 95.1,68.5 87.1,68.5" fill="#9b59b6"/>
<polygon points="92.2,61.5 96.2,68.5 88.2,68.5" fill="#9b59b6"/>
<polygon points="94.4,61.5 98.4,68.5 90.4,68.5" fill="#9b59b6"/>
<polygon points="98.7,61.5 102.7,68.5 94.7,68.5" fill="#9b59b6"/>
<polygon points="107.2,61.9 111.2,68.9 103.2,68.9" fill="#9b59b6"/>
<polygon points="121.7,64.7 125.7,71.7 117.7,71.7" fill="#9b59b6"/>
<polygon points="142.5,71.7 146.5,78.7 138.5,78.7" fill="#9b59b6"/>
<polygon points="167.9,82.2 171.9,89.2 163.9,89.2" fill="#9b59b6"/>
<polygon points="195.2,94.9 199.2,101.9 191.2,101.9" fill="#9b59b6"/>
<polygon points="248.2,123.6 252.2,130.6 244.2,130.6" fill="#9b59b6"/>
<polygon points="297.5,153.8 301.5,160.8 293.5,160.8" fill="#9b59b6"/>
<polygon points="391.7,215.1 395.7,222.1 387.7,222.1" fill="#9b59b6"/>
<polygon points="484.6,272.6 488.6,279.6 480.6,279.6" fill="#9b59b6"/>
<polyline fill="none" stroke="#4dd88a" stroke-width="2" points="90.0,65.5 90.0,65.5 90.0,65.5 90.0,65.5 90.1,65.5 90.1,65.5 90.3,65.5 90.5,65.5 91.1,65.5 92.2,65.5 94.4,65.5 98.7,65.5 107.2,65.5 121.7,65.5 142.5,65.5 168.0,65.5 195.3,65.9 248.2,75.7 297.5,98.9 391.7,158.1 484.6,220.1"/>
<polygon points="90.0,61.5 94.0,65.5 90.0,69.5 86.0,65.5" fill="#4dd88a"/>
<polygon points="90.0,61.5 94.0,65.5 90.0,69.5 86.0,65.5" fill="#4dd88a"/>
<polygon points="90.0,61.5 94.0,65.5 90.0,69.5 86.0,65.5" fill="#4dd88a"/>
<polygon points="90.0,61.5 94.0,65.5 90.0,69.5 86.0,65.5" fill="#4dd88a"/>
<polygon points="90.1,61.5 94.1,65.5 90.1,69.5 86.1,65.5" fill="#4dd88a"/>
<polygon points="90.1,61.5 94.1,65.5 90.1,69.5 86.1,65.5" fill="#4dd88a"/>
<polygon points="90.3,61.5 94.3,65.5 90.3,69.5 86.3,65.5" fill="#4dd88a"/>
<polygon points="90.5,61.5 94.5,65.5 90.5,69.5 86.5,65.5" fill="#4dd88a"/>
<polygon points="91.1,61.5 95.1,65.5 91.1,69.5 87.1,65.5" fill="#4dd88a"/>
<polygon points="92.2,61.5 96.2,65.5 92.2,69.5 88.2,65.5" fill="#4dd88a"/>
<polygon points="94.4,61.5 98.4,65.5 94.4,69.5 90.4,65.5" fill="#4dd88a"/>
<polygon points="98.7,61.5 102.7,65.5 98.7,69.5 94.7,65.5" fill="#4dd88a"/>
<polygon points="107.2,61.5 111.2,65.5 107.2,69.5 103.2,65.5" fill="#4dd88a"/>
<polygon points="121.7,61.5 125.7,65.5 121.7,69.5 117.7,65.5" fill="#4dd88a"/>
<polygon points="142.5,61.5 146.5,65.5 142.5,69.5 138.5,65.5" fill="#4dd88a"/>
<polygon points="168.0,61.5 172.0,65.5 168.0,69.5 164.0,65.5" fill="#4dd88a"/>
<polygon points="195.3,61.9 199.3,65.9 195.3,69.9 191.3,65.9" fill="#4dd88a"/>
<polygon points="248.2,71.7 252.2,75.7 248.2,79.7 244.2,75.7" fill="#4dd88a"/>
<polygon points="297.5,94.9 301.5,98.9 297.5,102.9 293.5,98.9" fill="#4dd88a"/>
<polygon points="391.7,154.1 395.7,158.1 391.7,162.1 387.7,158.1" fill="#4dd88a"/>
<polygon points="484.6,216.1 488.6,220.1 484.6,224.1 480.6,220.1" fill="#4dd88a"/>
<polyline fill="none" stroke="#ff6b6b" stroke-width="2" points="90.0,65.5 90.0,65.5 90.0,65.5 90.0,65.5 90.1,65.5 90.1,65.5 90.3,65.5 90.5,65.5 91.1,65.5 92.2,65.5 94.4,65.5 98.7,65.5 107.2,65.9 121.7,68.7 142.5,75.7 167.9,86.2 195.2,98.9 248.2,127.6 297.5,157.8 391.7,219.1 484.6,276.6"/>
<polygon points="90.0,60.5 88.8,63.9 85.2,64.0 88.1,66.1 87.1,69.5 90.0,67.5 92.9,69.5 91.9,66.1 94.8,64.0 91.2,63.9" fill="#ff6b6b"/>
<polygon points="90.0,60.5 88.8,63.9 85.3,64.0 88.1,66.1 87.1,69.5 90.0,67.5 92.9,69.5 91.9,66.1 94.8,64.0 91.2,63.9" fill="#ff6b6b"/>
<polygon points="90.0,60.5 88.8,63.9 85.3,64.0 88.1,66.1 87.1,69.5 90.0,67.5 93.0,69.5 91.9,66.1 94.8,64.0 91.2,63.9" fill="#ff6b6b"/>
<polygon points="90.0,60.5 88.9,63.9 85.3,64.0 88.1,66.1 87.1,69.5 90.0,67.5 93.0,69.5 91.9,66.1 94.8,64.0 91.2,63.9" fill="#ff6b6b"/>
<polygon points="90.1,60.5 88.9,63.9 85.3,64.0 88.2,66.1 87.1,69.5 90.1,67.5 93.0,69.5 92.0,66.1 94.8,64.0 91.2,63.9" fill="#ff6b6b"/>
<polygon points="90.1,60.5 89.0,63.9 85.4,64.0 88.2,66.1 87.2,69.5 90.1,67.5 93.1,69.5 92.0,66.1 94.9,64.0 91.3,63.9" fill="#ff6b6b"/>
<polygon points="90.3,60.5 89.1,63.9 85.5,64.0 88.4,66.1 87.3,69.5 90.3,67.5 93.2,69.5 92.2,66.1 95.0,64.0 91.4,63.9" fill="#ff6b6b"/>
<polygon points="90.5,60.5 89.4,63.9 85.8,64.0 88.6,66.1 87.6,69.5 90.5,67.5 93.5,69.5 92.4,66.1 95.3,64.0 91.7,63.9" fill="#ff6b6b"/>
<polygon points="91.1,60.5 89.9,63.9 86.3,64.0 89.2,66.1 88.1,69.5 91.1,67.5 94.0,69.5 93.0,66.1 95.8,64.0 92.3,63.9" fill="#ff6b6b"/>
<polygon points="92.2,60.5 91.0,63.9 87.4,64.0 90.3,66.1 89.2,69.5 92.2,67.5 95.1,69.5 94.1,66.1 96.9,64.0 93.4,63.9" fill="#ff6b6b"/>
<polygon points="94.4,60.5 93.2,63.9 89.6,64.0 92.5,66.1 91.4,69.5 94.4,67.5 97.3,69.5 96.3,66.1 99.1,64.0 95.5,63.9" fill="#ff6b6b"/>
<polygon points="98.7,60.5 97.5,63.9 93.9,64.0 96.8,66.1 95.8,69.5 98.7,67.5 101.6,69.5 100.6,66.1 103.5,64.0 99.9,63.9" fill="#ff6b6b"/>
<polygon points="107.2,60.9 106.0,64.3 102.4,64.4 105.3,66.5 104.3,70.0 107.2,67.9 110.1,70.0 109.1,66.5 112.0,64.4 108.4,64.3" fill="#ff6b6b"/>
<polygon points="121.7,63.7 120.5,67.1 116.9,67.2 119.8,69.4 118.7,72.8 121.7,70.7 124.6,72.8 123.6,69.4 126.4,67.2 122.8,67.1" fill="#ff6b6b"/>
<polygon points="142.5,70.7 141.4,74.1 137.8,74.1 140.6,76.3 139.6,79.7 142.5,77.7 145.5,79.7 144.4,76.3 147.3,74.1 143.7,74.1" fill="#ff6b6b"/>
<polygon points="167.9,81.2 166.7,84.6 163.2,84.6 166.0,86.8 165.0,90.2 167.9,88.2 170.9,90.2 169.8,86.8 172.7,84.6 169.1,84.6" fill="#ff6b6b"/>
<polygon points="195.2,93.9 194.1,97.3 190.5,97.3 193.3,99.5 192.3,102.9 195.2,100.9 198.2,102.9 197.1,99.5 200.0,97.3 196.4,97.3" fill="#ff6b6b"/>
<polygon points="248.2,122.6 247.0,125.9 243.4,126.0 246.3,128.2 245.3,131.6 248.2,129.6 251.1,131.6 250.1,128.2 252.9,126.0 249.4,125.9" fill="#ff6b6b"/>
<polygon points="297.5,152.8 296.3,156.2 292.7,156.3 295.6,158.4 294.5,161.8 297.5,159.8 300.4,161.8 299.4,158.4 302.2,156.3 298.6,156.2" fill="#ff6b6b"/>
<polygon points="391.7,214.1 390.5,217.5 386.9,217.6 389.8,219.8 388.7,223.2 391.7,221.1 394.6,223.2 393.6,219.8 396.4,217.6 392.8,217.5" fill="#ff6b6b"/>
<polygon points="484.6,271.6 483.5,275.0 479.9,275.1 482.7,277.2 481.7,280.7 484.6,278.6 487.6,280.7 486.5,277.2 489.4,275.1 485.8,275.0" fill="#ff6b6b"/>
<polyline fill="none" stroke="#ff922b" stroke-width="2" points="293.0,120.2 318.7,135.3 343.4,150.2 367.4,165.2 391.1,180.4 414.6,196.1 438.0,211.0 461.3,226.7 507.8,260.5 531.1,272.1"/>
<circle cx="293.0" cy="120.2" r="3" fill="#ff922b"/>
<circle cx="318.7" cy="135.3" r="3" fill="#ff922b"/>
<circle cx="343.4" cy="150.2" r="3" fill="#ff922b"/>
<circle cx="367.4" cy="165.2" r="3" fill="#ff922b"/>
<circle cx="391.1" cy="180.4" r="3" fill="#ff922b"/>
<circle cx="414.6" cy="196.1" r="3" fill="#ff922b"/>
<circle cx="438.0" cy="211.0" r="3" fill="#ff922b"/>
<circle cx="461.3" cy="226.7" r="3" fill="#ff922b"/>
<circle cx="507.8" cy="260.5" r="3" fill="#ff922b"/>
<circle cx="531.1" cy="272.1" r="3" fill="#ff922b"/>
<polyline fill="none" stroke="#888888" stroke-width="2" stroke-dasharray="8,5" points="332.9,116.3 367.6,131.6 412.5,152.1 446.2,167.6 479.9,182.6 524.2,203.0 557.7,219.3 591.2,234.1 635.5,253.9 669.0,268.8"/>
<circle cx="332.9" cy="116.3" r="3" fill="#888888"/>
<circle cx="367.6" cy="131.6" r="3" fill="#888888"/>
<circle cx="412.5" cy="152.1" r="3" fill="#888888"/>
<circle cx="446.2" cy="167.6" r="3" fill="#888888"/>
<circle cx="479.9" cy="182.6" r="3" fill="#888888"/>
<circle cx="524.2" cy="203.0" r="3" fill="#888888"/>
<circle cx="557.7" cy="219.3" r="3" fill="#888888"/>
<circle cx="591.2" cy="234.1" r="3" fill="#888888"/>
<circle cx="635.5" cy="253.9" r="3" fill="#888888"/>
<circle cx="669.0" cy="268.8" r="3" fill="#888888"/>
<line x1="886" y1="60" x2="902" y2="60" stroke="#ef4444" stroke-width="2" stroke-dasharray="8,5"/>
<circle cx="894.0" cy="60.0" r="3" fill="#ef4444"/>
<text class="label" x="908" y="64">Theoretical</text>
<line x1="886" y1="78" x2="902" y2="78" stroke="#1a6b3c" stroke-width="2"/>
<polygon points="894.0,74.0 898.0,78.0 894.0,82.0 890.0,78.0" fill="#1a6b3c"/>
<text class="label" x="908" y="82">Grafite</text>
<line x1="886" y1="96" x2="902" y2="96" stroke="#1a3a6b" stroke-width="2"/>
<polygon points="894.0,91.0 892.8,94.4 889.2,94.5 892.1,96.6 891.1,100.0 894.0,98.0 896.9,100.0 895.9,96.6 898.8,94.5 895.2,94.4" fill="#1a3a6b"/>
<text class="label" x="908" y="100">SNARF</text>
<line x1="886" y1="114" x2="902" y2="114" stroke="#111111" stroke-width="2"/>
<rect x="891.0" y="111.0" width="6" height="6" fill="#111111"/>
<text class="label" x="908" y="118">SuRF</text>
<line x1="886" y1="132" x2="902" y2="132" stroke="#111111" stroke-width="2"/>
<polygon points="894.0,128.0 898.0,135.0 890.0,135.0" fill="#111111"/>
<text class="label" x="908" y="136">SuRFHash(8)</text>
<line x1="886" y1="150" x2="902" y2="150" stroke="#111111" stroke-width="2"/>
<polygon points="894.0,146.0 898.0,150.0 894.0,154.0 890.0,150.0" fill="#111111"/>
<text class="label" x="908" y="154">SuRFReal(8)</text>
<line x1="886" y1="168" x2="902" y2="168" stroke="#2a7fff" stroke-width="2"/>
<rect x="891.0" y="165.0" width="6" height="6" fill="#2a7fff"/>
<text class="label" x="908" y="172">Adaptive (t=0)</text>
<line x1="886" y1="186" x2="902" y2="186" stroke="#9b59b6" stroke-width="2"/>
<polygon points="894.0,182.0 898.0,189.0 890.0,189.0" fill="#9b59b6"/>
<text class="label" x="908" y="190">Truncation</text>
<line x1="886" y1="204" x2="902" y2="204" stroke="#4dd88a" stroke-width="2"/>
<polygon points="894.0,200.0 898.0,204.0 894.0,208.0 890.0,204.0" fill="#4dd88a"/>
<text class="label" x="908" y="208">SODA</text>
<line x1="886" y1="222" x2="902" y2="222" stroke="#ff6b6b" stroke-width="2"/>
<polygon points="894.0,217.0 892.8,220.4 889.2,220.5 892.1,222.6 891.1,226.0 894.0,224.0 896.9,226.0 895.9,222.6 898.8,220.5 895.2,220.4" fill="#ff6b6b"/>
<text class="label" x="908" y="226">Hybrid</text>
<line x1="886" y1="240" x2="902" y2="240" stroke="#ff922b" stroke-width="2"/>
<circle cx="894.0" cy="240.0" r="3" fill="#ff922b"/>
<text class="label" x="908" y="244">CDF-ARE</text>
<line x1="886" y1="258" x2="902" y2="258" stroke="#888888" stroke-width="2" stroke-dasharray="8,5"/>
<circle cx="894.0" cy="258.0" r="3" fill="#888888"/>
<text class="label" x="908" y="262">BloomARE</text>
<text x="480" y="590" text-anchor="middle">Bits per Key (BPK)</text>
<text transform="translate(16,295) rotate(-90)" text-anchor="middle">False Positive Rate (FPR)</text>
</svg>
