<svg xmlns="http://www.w3.org/2000/svg" width="1020" height="600" viewBox="0 0 1020 600">
<style>text{font-family:Menlo,Monaco,monospace;font-size:12px;fill:#222} .axis{stroke:#333;stroke-width:1} .grid{stroke:#eee;stroke-width:0.5} .label{font-size:11px;fill:#444}</style>
<text x="510" y="28" text-anchor="middle" style="font-size:14px;font-weight:bold">FPR vs BPK — sosd_osm (60-bit keys, n=262144, L=1)</text>
<line class="axis" x1="90.0" y1="550.0" x2="870.0" y2="550.0"/>
<line class="axis" x1="90.0" y1="40.0" x2="90.0" y2="550.0"/>
<line class="grid" x1="90.0" y1="526.8" x2="870.0" y2="526.8"/>
<text class="label" x="82.0" y="530.8" text-anchor="end">10^-10</text>
<line class="grid" x1="90.0" y1="480.5" x2="870.0" y2="480.5"/>
<text class="label" x="82.0" y="484.5" text-anchor="end">10^-9</text>
<line class="grid" x1="90.0" y1="434.1" x2="870.0" y2="434.1"/>
<text class="label" x="82.0" y="438.1" text-anchor="end">10^-8</text>
<line class="grid" x1="90.0" y1="387.7" x2="870.0" y2="387.7"/>
<text class="label" x="82.0" y="391.7" text-anchor="end">10^-7</text>
<line class="grid" x1="90.0" y1="341.4" x2="870.0" y2="341.4"/>
<text class="label" x="82.0" y="345.4" text-anchor="end">10^-6</text>
<line class="grid" x1="90.0" y1="295.0" x2="870.0" y2="295.0"/>
<text class="label" x="82.0" y="299.0" text-anchor="end">10^-5</text>
<line class="grid" x1="90.0" y1="248.6" x2="870.0" y2="248.6"/>
<text class="label" x="82.0" y="252.6" text-anchor="end">10^-4</text>
<line class="grid" x1="90.0" y1="202.3" x2="870.0" y2="202.3"/>
<text class="label" x="82.0" y="206.3" text-anchor="end">10^-3</text>
<line class="grid" x1="90.0" y1="155.9" x2="870.0" y2="155.9"/>
<text class="label" x="82.0" y="159.9" text-anchor="end">10^-2</text>
<line class="grid" x1="90.0" y1="109.5" x2="870.0" y2="109.5"/>
<text class="label" x="82.0" y="113.5" text-anchor="end">10^-1</text>
<line class="grid" x1="90.0" y1="63.2" x2="870.0" y2="63.2"/>
<text class="label" x="82.0" y="67.2" text-anchor="end">1</text>
<line class="grid" x1="90.0" y1="40.0" x2="90.0" y2="550.0"/>
<text class="label" x="90.0" y="566.0" text-anchor="middle">0</text>
<line class="grid" x1="206.1" y1="40.0" x2="206.1" y2="550.0"/>
<text class="label" x="206.1" y="566.0" text-anchor="middle">5</text>
<line class="grid" x1="322.1" y1="40.0" x2="322.1" y2="550.0"/>
<text class="label" x="322.1" y="566.0" text-anchor="middle">10</text>
<line class="grid" x1="438.2" y1="40.0" x2="438.2" y2="550.0"/>
<text class="label" x="438.2" y="566.0" text-anchor="middle">15</text>
<line class="grid" x1="554.3" y1="40.0" x2="554.3" y2="550.0"/>
<text class="label" x="554.3" y="566.0" text-anchor="middle">20</text>
<line class="grid" x1="670.4" y1="40.0" x2="670.4" y2="550.0"/>
<text class="label" x="670.4" y="566.0" text-anchor="middle">25</text>
<line class="grid" x1="786.4" y1="40.0" x2="786.4" y2="550.0"/>
<text class="label" x="786.4" y="566.0" text-anchor="middle">30</text>
<polyline fill="none" stroke="#ef4444" stroke-width="2" stroke-dasharray="8,5" points="182.9,119.0 206.1,133.0 229.3,146.9 252.5,160.9 275.7,174.8 298.9,188.8 322.1,202.8 345.4,216.7 368.6,230.7 391.8,244.6 415.0,258.6 438.2,272.5 461.4,286.5 484.6,300.4 507.9,314.4 531.1,328.4 554.3,342.3 600.7,370.2 647.1,398.1 740.0,454.0 832.9,509.8"/>
<circle cx="182.9" cy="119.0" r="3" fill="#ef4444"/>
<circle cx="206.1" cy="133.0" r="3" fill="#ef4444"/>
<circle cx="229.3" cy="146.9" r="3" fill="#ef4444"/>
<circle cx="252.5" cy="160.9" r="3" fill="#ef4444"/>
<circle cx="275.7" cy="174.8" r="3" fill="#ef4444"/>
<circle cx="298.9" cy="188.8" r="3" fill="#ef4444"/>
<circle cx="322.1" cy="202.8" r="3" fill="#ef4444"/>
<circle cx="345.4" cy="216.7" r="3" fill="#ef4444"/>
<circle cx="368.6" cy="230.7" r="3" fill="#ef4444"/>
<circle cx="391.8" cy="244.6" r="3" fill="#ef4444"/>
<circle cx="415.0" cy="258.6" r="3" fill="#ef4444"/>
<circle cx="438.2" cy="272.5" r="3" fill="#ef4444"/>
<circle cx="461.4" cy="286.5" r="3" fill="#ef4444"/>
<circle cx="484.6" cy="300.4" r="3" fill="#ef4444"/>
<circle cx="507.9" cy="314.4" r="3" fill="#ef4444"/>
<circle cx="531.1" cy="328.4" r="3" fill="#ef4444"/>
<circle cx="554.3" cy="342.3" r="3" fill="#ef4444"/>
<circle cx="600.7" cy="370.2" r="3" fill="#ef4444"/>
<circle cx="647.1" cy="398.1" r="3" fill="#ef4444"/>
<circle cx="740.0" cy="454.0" r="3" fill="#ef4444"/>
<circle cx="832.9" cy="509.8" r="3" fill="#ef4444"/>
<polyline fill="none" stroke="#1a6b3c" stroke-width="2" points="181.3,95.9 240.3,119.8 287.9,147.5 336.5,174.4 383.1,203.3 429.7,230.8 476.2,261.8 522.6,294.7 576.3,314.4"/>
<polygon points="181.3,91.9 185.3,95.9 181.3,99.9 177.3,95.9" fill="#1a6b3c"/>
<polygon points="240.3,115.8 244.3,119.8 240.3,123.8 236.3,119.8" fill="#1a6b3c"/>
<polygon points="287.9,143.5 291.9,147.5 287.9,151.5 283.9,147.5" fill="#1a6b3c"/>
<polygon points="336.5,170.4 340.5,174.4 336.5,178.4 332.5,174.4" fill="#1a6b3c"/>
<polygon points="383.1,199.3 387.1,203.3 383.1,207.3 379.1,203.3" fill="#1a6b3c"/>
<polygon points="429.7,226.8 433.7,230.8 429.7,234.8 425.7,230.8" fill="#1a6b3c"/>
<polygon points="476.2,257.8 480.2,261.8 476.2,265.8 472.2,261.8" fill="#1a6b3c"/>
<polygon points="522.6,290.7 526.6,294.7 522.6,298.7 518.6,294.7" fill="#1a6b3c"/>
<polygon points="576.3,310.4 580.3,314.4 576.3,318.4 572.3,314.4" fill="#1a6b3c"/>
<polyline fill="none" stroke="#1a3a6b" stroke-width="2" points="168.3,143.0 214.5,159.6 261.2,176.2 307.8,193.5 354.0,210.4 400.2,228.6 446.9,249.9 493.5,271.7 539.7,294.7"/>
<polygon points="168.3,138.0 167.1,141.4 163.5,141.5 166.4,143.6 165.3,147.1 168.3,145.0 171.2,147.1 170.2,143.6 173.0,141.5 169.4,141.4" fill="#1a3a6b"/>
<polygon points="214.5,154.6 213.3,158.0 209.7,158.1 212.6,160.2 211.5,163.7 214.5,161.6 217.4,163.7 216.4,160.2 219.2,158.1 215.7,158.0" fill="#1a3a6b"/>
<polygon points="261.2,171.2 260.0,174.6 256.4,174.7 259.3,176.8 258.2,180.3 261.2,178.2 264.1,180.3 263.1,176.8 265.9,174.7 262.3,174.6" fill="#1a3a6b"/>
<polygon points="307.8,188.5 306.6,191.8 303.0,191.9 305.9,194.1 304.9,197.5 307.8,195.5 310.7,197.5 309.7,194.1 312.6,191.9 309.0,191.8" fill="#1a3a6b"/>
<polygon points="354.0,205.4 352.8,208.8 349.2,208.9 352.1,211.1 351.0,214.5 354.0,212.4 356.9,214.5 355.9,211.1 358.7,208.9 355.2,208.8" fill="#1a3a6b"/>
<polygon points="400.2,223.6 399.0,227.0 395.4,227.0 398.3,229.2 397.3,232.6 400.2,230.6 403.1,232.6 402.1,229.2 405.0,227.0 401.4,227.0" fill="#1a3a6b"/>
<polygon points="446.9,244.9 445.7,248.2 442.1,248.3 445.0,250.5 443.9,253.9 446.9,251.9 449.8,253.9 448.8,250.5 451.6,248.3 448.0,248.2" fill="#1a3a6b"/>
<polygon points="493.5,266.7 492.3,270.1 488.8,270.2 491.6,272.3 490.6,275.8 493.5,273.7 496.5,275.8 495.4,272.3 498.3,270.2 494.7,270.1" fill="#1a3a6b"/>
<polygon points="539.7,289.7 538.5,293.0 534.9,293.1 537.8,295.3 536.8,298.7 539.7,296.7 542.6,298.7 541.6,295.3 544.5,293.1 540.9,293.0" fill="#1a3a6b"/>
<polyline fill="none" stroke="#111111" stroke-width="2" points="366.8,94.8"/>
<rect x="363.8" y="91.8" width="6" height="6" fill="#111111"/>
<polyline fill="none" stroke="#111111" stroke-width="2" points="552.5,94.8"/>
<polygon points="552.5,90.8 556.5,97.8 548.5,97.8" fill="#111111"/>
<polyline fill="none" stroke="#111111" stroke-width="2" points="552.5,206.3"/>
<polygon points="552.5,202.3 556.5,206.3 552.5,210.3 548.5,206.3" fill="#111111"/>
<polyline fill="none" stroke="#2a7fff" stroke-width="2" points="90.0,77.2 90.0,77.2 90.0,77.2 90.0,77.2 90.0,77.2 90.1,77.2 90.2,77.2 90.4,77.2 90.7,77.2 91.5,77.2 92.9,77.2 95.8,77.2 101.6,77.2 112.9,77.5 131.7,80.1 157.3,86.4 186.4,95.9 244.2,120.2 296.1,147.0 391.5,202.1 484.6,258.6"/>
<rect x="87.0" y="74.2" width="6" height="6" fill="#2a7fff"/>
<rect x="87.0" y="74.2" width="6" height="6" fill="#2a7fff"/>
<rect x="87.0" y="74.2" width="6" height="6" fill="#2a7fff"/>
<rect x="87.0" y="74.2" width="6" height="6" fill="#2a7fff"/>
<rect x="87.0" y="74.2" width="6" height="6" fill="#2a7fff"/>
<rect x="87.1" y="74.2" width="6" height="6" fill="#2a7fff"/>
<rect x="87.2" y="74.2" width="6" height="6" fill="#2a7fff"/>
<rect x="87.4" y="74.2" width="6" height="6" fill="#2a7fff"/>
<rect x="87.7" y="74.2" width="6" height="6" fill="#2a7fff"/>
<rect x="88.5" y="74.2" width="6" height="6" fill="#2a7fff"/>
<rect x="89.9" y="74.2" width="6" height="6" fill="#2a7fff"/>
<rect x="92.8" y="74.2" width="6" height="6" fill="#2a7fff"/>
<rect x="98.6" y="74.2" width="6" height="6" fill="#2a7fff"/>
<rect x="109.9" y="74.5" width="6" height="6" fill="#2a7fff"/>
<rect x="128.7" y="77.1" width="6" height="6" fill="#2a7fff"/>
<rect x="154.3" y="83.4" width="6" height="6" fill="#2a7fff"/>
<rect x="183.4" y="92.9" width="6" height="6" fill="#2a7fff"/>
<rect x="241.2" y="117.2" width="6" height="6" fill="#2a7fff"/>
<rect x="293.1" y="144.0" width="6" height="6" fill="#2a7fff"/>
<rect x="388.5" y="199.1" width="6" height="6" fill="#2a7fff"/>
<rect x="481.6" y="255.6" width="6" height="6" fill="#2a7fff"/>
<polyline fill="none" stroke="#9b59b6" stroke-width="2" points="90.0,63.2 90.0,65.6 90.0,71.5 90.0,79.3 90.0,86.4 90.0,94.3 90.1,100.7 90.1,106.3 90.1,110.2 90.2,113.3 90.5,115.2 90.8,117.2 91.5,119.7 92.7,122.3 94.7,125.9 98.0,129.7 102.9,135.1 123.4,145.5 167.7,158.1 324.6,196.2 471.0,247.8"/>
<polygon points="90.0,59.2 94.0,66.2 86.0,66.2" fill="#9b59b6"/>
<polygon points="90.0,61.6 94.0,68.6 86.0,68.6" fill="#9b59b6"/>
<polygon points="90.0,67.5 94.0,74.5 86.0,74.5" fill="#9b59b6"/>
<polygon points="90.0,75.3 94.0,82.3 86.0,82.3" fill="#9b59b6"/>
<polygon points="90.0,82.4 94.0,89.4 86.0,89.4" fill="#9b59b6"/>
<polygon points="90.0,90.3 94.0,97.3 86.0,97.3" fill="#9b59b6"/>
<polygon points="90.1,96.7 94.1,103.7 86.1,103.7" fill="#9b59b6"/>
<polygon points="90.1,102.3 94.1,109.3 86.1,109.3" fill="#9b59b6"/>
<polygon points="90.1,106.2 94.1,113.2 86.1,113.2" fill="#9b59b6"/>
<polygon points="90.2,109.3 94.2,116.3 86.2,116.3" fill="#9b59b6"/>
<polygon points="90.5,111.2 94.5,118.2 86.5,118.2" fill="#9b59b6"/>
<polygon points="90.8,113.2 94.8,120.2 86.8,120.2" fill="#9b59b6"/>
<polygon points="91.5,115.7 95.5,122.7 87.5,122.7" fill="#9b59b6"/>
<polygon points="92.7,118.3 96.7,125.3 88.7,125.3" fill="#9b59b6"/>
<polygon points="94.7,121.9 98.7,128.9 90.7,128.9" fill="#9b59b6"/>
<polygon points="98.0,125.7 102.0,132.7 94.0,132.7" fill="#9b59b6"/>
<polygon points="102.9,131.1 106.9,138.1 98.9,138.1" fill="#9b59b6"/>
<polygon points="123.4,141.5 127.4,148.5 119.4,148.5" fill="#9b59b6"/>
<polygon points="167.7,154.1 171.7,161.1 163.7,161.1" fill="#9b59b6"/>
<polygon points="324.6,192.2 328.6,199.2 320.6,199.2" fill="#9b59b6"/>
<polygon points="471.0,243.8 475.0,250.8 467.0,250.8" fill="#9b59b6"/>
<polyline fill="none" stroke="#4dd88a" stroke-width="2" points="90.0,77.2 90.0,77.2 90.0,77.2 90.0,77.2 90.0,77.2 90.1,77.2 90.2,77.2 90.4,77.2 90.7,77.2 91.5,77.2 92.9,77.2 95.8,77.2 101.6,77.2 112.9,77.5 131.7,80.1 157.3,86.4 186.4,95.9 244.2,120.2 296.1,147.0 391.5,202.1 484.6,258.6"/>
<polygon points="90.0,73.2 94.0,77.2 90.0,81.2 86.0,77.2" fill="#4dd88a"/>
<polygon points="90.0,73.2 94.0,77.2 90.0,81.2 86.0,77.2" fill="#4dd88a"/>
<polygon points="90.0,73.2 94.0,77.2 90.0,81.2 86.0,77.2" fill="#4dd88a"/>
<polygon points="90.0,73.2 94.0,77.2 90.0,81.2 86.0,77.2" fill="#4dd88a"/>
<polygon points="90.0,73.2 94.0,77.2 90.0,81.2 86.0,77.2" fill="#4dd88a"/>
<polygon points="90.1,73.2 94.1,77.2 90.1,81.2 86.1,77.2" fill="#4dd88a"/>
<polygon points="90.2,73.2 94.2,77.2 90.2,81.2 86.2,77.2" fill="#4dd88a"/>
<polygon points="90.4,73.2 94.4,77.2 90.4,81.2 86.4,77.2" fill="#4dd88a"/>
<polygon points="90.7,73.2 94.7,77.2 90.7,81.2 86.7,77.2" fill="#4dd88a"/>
<polygon points="91.5,73.2 95.5,77.2 91.5,81.2 87.5,77.2" fill="#4dd88a"/>
<polygon points="92.9,73.2 96.9,77.2 92.9,81.2 88.9,77.2" fill="#4dd88a"/>
<polygon points="95.8,73.2 99.8,77.2 95.8,81.2 91.8,77.2" fill="#4dd88a"/>
<polygon points="101.6,73.2 105.6,77.2 101.6,81.2 97.6,77.2" fill="#4dd88a"/>
<polygon points="112.9,73.5 116.9,77.5 112.9,81.5 108.9,77.5" fill="#4dd88a"/>
<polygon points="131.7,76.1 135.7,80.1 131.7,84.1 127.7,80.1" fill="#4dd88a"/>
<polygon points="157.3,82.4 161.3,86.4 157.3,90.4 153.3,86.4" fill="#4dd88a"/>
<polygon points="186.4,91.9 190.4,95.9 186.4,99.9 182.4,95.9" fill="#4dd88a"/>
<polygon points="244.2,116.2 248.2,120.2 244.2,124.2 240.2,120.2" fill="#4dd88a"/>
<polygon points="296.1,143.0 300.1,147.0 296.1,151.0 292.1,147.0" fill="#4dd88a"/>
<polygon points="391.5,198.1 395.5,202.1 391.5,206.1 387.5,202.1" fill="#4dd88a"/>
<polygon points="484.6,254.6 488.6,258.6 484.6,262.6 480.6,258.6" fill="#4dd88a"/>
<polyline fill="none" stroke="#ff6b6b" stroke-width="2" points="90.1,63.2 90.2,65.6 90.2,71.5 90.3,79.3 90.5,86.4 91.0,94.3 91.8,100.7 93.4,106.3 96.2,110.2 100.3,113.3 105.4,115.3 110.7,117.3 116.2,119.9 122.0,122.6 128.3,126.2 135.8,130.1 144.6,135.7 172.2,146.5 220.6,159.8 369.6,199.4 502.1,250.7"/>
<polygon points="90.1,58.2 89.0,61.6 85.4,61.6 88.2,63.8 87.2,67.2 90.1,65.2 93.1,67.2 92.0,63.8 94.9,61.6 91.3,61.6" fill="#ff6b6b"/>
<polygon points="90.2,60.6 89.0,64.0 85.4,64.1 88.3,66.2 87.2,69.6 90.2,67.6 93.1,69.6 92.1,66.2 94.9,64.1 91.3,64.0" fill="#ff6b6b"/>
<polygon points="90.2,66.5 89.0,69.9 85.5,70.0 88.3,72.1 87.3,75.6 90.2,73.5 93.2,75.6 92.1,72.1 95.0,70.0 91.4,69.9" fill="#ff6b6b"/>
<polygon points="90.3,74.3 89.1,77.7 85.6,77.7 88.4,79.9 87.4,83.3 90.3,81.3 93.3,83.3 92.2,79.9 95.1,77.7 91.5,77.7" fill="#ff6b6b"/>
<polygon points="90.5,81.4 89.4,84.8 85.8,84.9 88.6,87.0 87.6,90.5 90.5,88.4 93.5,90.5 92.4,87.0 95.3,84.9 91.7,84.8" fill="#ff6b6b"/>
<polygon points="91.0,89.3 89.8,92.7 86.2,92.8 89.0,95.0 88.0,98.4 91.0,96.3 93.9,98.4 92.9,95.0 95.7,92.8 92.1,92.7" fill="#ff6b6b"/>
<polygon points="91.8,95.7 90.6,99.1 87.0,99.2 89.9,101.3 88.8,104.8 91.8,102.7 94.7,104.8 93.7,101.3 96.5,99.2 93.0,99.1" fill="#ff6b6b"/>
<polygon points="93.4,101.3 92.2,104.6 88.6,104.7 91.5,106.9 90.5,110.3 93.4,108.3 96.3,110.3 95.3,106.9 98.2,104.7 94.6,104.6" fill="#ff6b6b"/>
<polygon points="96.2,105.2 95.0,108.6 91.4,108.6 94.3,110.8 93.3,114.2 96.2,112.2 99.1,114.2 98.1,110.8 101.0,108.6 97.4,108.6" fill="#ff6b6b"/>
<polygon points="100.3,108.3 99.1,111.7 95.5,111.8 98.4,113.9 97.3,117.4 100.3,115.3 103.2,117.4 102.2,113.9 105.0,111.8 101.5,111.7" fill="#ff6b6b"/>
<polygon points="105.4,110.3 104.2,113.7 100.6,113.8 103.5,115.9 102.4,119.3 105.4,117.3 108.3,119.3 107.3,115.9 110.1,113.8 106.5,113.7" fill="#ff6b6b"/>
<polygon points="110.7,112.3 109.5,115.6 105.9,115.7 108.8,117.9 107.7,121.3 110.7,119.3 113.6,121.3 112.6,117.9 115.4,115.7 111.9,115.6" fill="#ff6b6b"/>
<polygon points="116.2,114.9 115.0,118.3 111.4,118.3 114.3,120.5 113.2,123.9 116.2,121.9 119.1,123.9 118.1,120.5 120.9,118.3 117.3,118.3" fill="#ff6b6b"/>
<polygon points="122.0,117.6 120.8,121.0 117.2,121.0 120.1,123.2 119.0,126.6 122.0,124.6 124.9,126.6 123.9,123.2 126.7,121.0 123.1,121.0" fill="#ff6b6b"/>
<polygon points="128.3,121.2 127.1,124.6 123.5,124.7 126.4,126.9 125.4,130.3 128.3,128.2 131.2,130.3 130.2,126.9 133.1,124.7 129.5,124.6" fill="#ff6b6b"/>
<polygon points="135.8,125.1 134.6,128.5 131.1,128.6 133.9,130.7 132.9,134.2 135.8,132.1 138.8,134.2 137.7,130.7 140.6,128.6 137.0,128.5" fill="#ff6b6b"/>
<polygon points="144.6,130.7 143.5,134.1 139.9,134.2 142.7,136.3 141.7,139.8 144.6,137.7 147.6,139.8 146.5,136.3 149.4,134.2 145.8,134.1" fill="#ff6b6b"/>
<polygon points="172.2,141.5 171.0,144.9 167.4,145.0 170.3,147.1 169.3,150.6 172.2,148.5 175.1,150.6 174.1,147.1 176.9,145.0 173.4,144.9" fill="#ff6b6b"/>
<polygon points="220.6,154.8 219.4,158.2 215.8,158.3 218.7,160.4 217.6,163.9 220.6,161.8 223.5,163.9 222.5,160.4 225.3,158.3 221.7,158.2" fill="#ff6b6b"/>
<polygon points="369.6,194.4 368.4,197.8 364.8,197.9 367.7,200.0 366.7,203.5 369.6,201.4 372.5,203.5 371.5,200.0 374.4,197.9 370.8,197.8" fill="#ff6b6b"/>
<polygon points="502.1,245.7 500.9,249.1 497.3,249.1 500.2,251.3 499.2,254.7 502.1,252.7 505.0,254.7 504.0,251.3 506.9,249.1 503.3,249.1" fill="#ff6b6b"/>
<polyline fill="none" stroke="#ff922b" stroke-width="2" points="265.5,116.9 295.6,128.6 325.9,141.3 355.1,154.4 383.2,166.5 409.8,179.1 435.2,192.4 459.7,206.5 507.3,232.6 530.7,246.8"/>
<circle cx="265.5" cy="116.9" r="3" fill="#ff922b"/>
<circle cx="295.6" cy="128.6" r="3" fill="#ff922b"/>
<circle cx="325.9" cy="141.3" r="3" fill="#ff922b"/>
<circle cx="355.1" cy="154.4" r="3" fill="#ff922b"/>
<circle cx="383.2" cy="166.5" r="3" fill="#ff922b"/>
<circle cx="409.8" cy="179.1" r="3" fill="#ff922b"/>
<circle cx="435.2" cy="192.4" r="3" fill="#ff922b"/>
<circle cx="459.7" cy="206.5" r="3" fill="#ff922b"/>
<circle cx="507.3" cy="232.6" r="3" fill="#ff922b"/>
<circle cx="530.7" cy="246.8" r="3" fill="#ff922b"/>
<polyline fill="none" stroke="#888888" stroke-width="2" stroke-dasharray="8,5" points="201.3,109.1 234.7,122.9 279.0,142.2 312.5,156.0 346.0,169.8 390.3,188.1 423.8,202.1 457.3,216.2 501.5,235.8 535.0,247.3"/>
<circle cx="201.3" cy="109.1" r="3" fill="#888888"/>
<circle cx="234.7" cy="122.9" r="3" fill="#888888"/>
<circle cx="279.0" cy="142.2" r="3" fill="#888888"/>
<circle cx="312.5" cy="156.0" r="3" fill="#888888"/>
<circle cx="346.0" cy="169.8" r="3" fill="#888888"/>
<circle cx="390.3" cy="188.1" r="3" fill="#888888"/>
<circle cx="423.8" cy="202.1" r="3" fill="#888888"/>
<circle cx="457.3" cy="216.2" r="3" fill="#888888"/>
<circle cx="501.5" cy="235.8" r="3" fill="#888888"/>
<circle cx="535.0" cy="247.3" r="3" fill="#888888"/>
<line x1="886" y1="60" x2="902" y2="60" stroke="#ef4444" stroke-width="2" stroke-dasharray="8,5"/>
<circle cx="894.0" cy="60.0" r="3" fill="#ef4444"/>
<text class="label" x="908" y="64">Theoretical</text>
<line x1="886" y1="78" x2="902" y2="78" stroke="#1a6b3c" stroke-width="2"/>
<polygon points="894.0,74.0 898.0,78.0 894.0,82.0 890.0,78.0" fill="#1a6b3c"/>
<text class="label" x="908" y="82">Grafite</text>
<line x1="886" y1="96" x2="902" y2="96" stroke="#1a3a6b" stroke-width="2"/>
<polygon points="894.0,91.0 892.8,94.4 889.2,94.5 892.1,96.6 891.1,100.0 894.0,98.0 896.9,100.0 895.9,96.6 898.8,94.5 895.2,94.4" fill="#1a3a6b"/>
<text class="label" x="908" y="100">SNARF</text>
<line x1="886" y1="114" x2="902" y2="114" stroke="#111111" stroke-width="2"/>
<rect x="891.0" y="111.0" width="6" height="6" fill="#111111"/>
<text class="label" x="908" y="118">SuRF</text>
<line x1="886" y1="132" x2="902" y2="132" stroke="#111111" stroke-width="2"/>
<polygon points="894.0,128.0 898.0,135.0 890.0,135.0" fill="#111111"/>
<text class="label" x="908" y="136">SuRFHash(8)</text>
<line x1="886" y1="150" x2="902" y2="150" stroke="#111111" stroke-width="2"/>
<polygon points="894.0,146.0 898.0,150.0 894.0,154.0 890.0,150.0" fill="#111111"/>
<text class="label" x="908" y="154">SuRFReal(8)</text>
<line x1="886" y1="168" x2="902" y2="168" stroke="#2a7fff" stroke-width="2"/>
<rect x="891.0" y="165.0" width="6" height="6" fill="#2a7fff"/>
<text class="label" x="908" y="172">Adaptive (t=0)</text>
<line x1="886" y1="186" x2="902" y2="186" stroke="#9b59b6" stroke-width="2"/>
<polygon points="894.0,182.0 898.0,189.0 890.0,189.0" fill="#9b59b6"/>
<text class="label" x="908" y="190">Truncation</text>
<line x1="886" y1="204" x2="902" y2="204" stroke="#4dd88a" stroke-width="2"/>
<polygon points="894.0,200.0 898.0,204.0 894.0,208.0 890.0,204.0" fill="#4dd88a"/>
<text class="label" x="908" y="208">SODA</text>
<line x1="886" y1="222" x2="902" y2="222" stroke="#ff6b6b" stroke-width="2"/>
<polygon points="894.0,217.0 892.8,220.4 889.2,220.5 892.1,222.6 891.1,226.0 894.0,224.0 896.9,226.0 895.9,222.6 898.8,220.5 895.2,220.4" fill="#ff6b6b"/>
<text class="label" x="908" y="226">Hybrid</text>
<line x1="886" y1="240" x2="902" y2="240" stroke="#ff922b" stroke-width="2"/>
<circle cx="894.0" cy="240.0" r="3" fill="#ff922b"/>
<text class="label" x="908" y="244">CDF-ARE</text>
<line x1="886" y1="258" x2="902" y2="258" stroke="#888888" stroke-width="2" stroke-dasharray="8,5"/>
<circle cx="894.0" cy="258.0" r="3" fill="#888888"/>
<text class="label" x="908" y="262">BloomARE</text>
<text x="480" y="590" text-anchor="middle">Bits per Key (BPK)</text>
<text transform="translate(16,295) rotate(-90)" text-anchor="middle">False Positive Rate (FPR)</text>
</svg>
