<svg xmlns="http://www.w3.org/2000/svg" width="1020" height="600" viewBox="0 0 1020 600">
<style>text{font-family:Menlo,Monaco,monospace;font-size:12px;fill:#222} .axis{stroke:#333;stroke-width:1} .grid{stroke:#eee;stroke-width:0.5} .label{font-size:11px;fill:#444}</style>
<text x="510" y="28" text-anchor="middle" style="font-size:14px;font-weight:bold">FPR vs BPK — sosd_osm (60-bit keys, n=262144, L=1024)</text>
<line class="axis" x1="90.0" y1="550.0" x2="870.0" y2="550.0"/>
<line class="axis" x1="90.0" y1="40.0" x2="90.0" y2="550.0"/>
<line class="grid" x1="90.0" y1="518.1" x2="870.0" y2="518.1"/>
<text class="label" x="82.0" y="522.1" text-anchor="end">10^-7</text>
<line class="grid" x1="90.0" y1="454.4" x2="870.0" y2="454.4"/>
<text class="label" x="82.0" y="458.4" text-anchor="end">10^-6</text>
<line class="grid" x1="90.0" y1="390.6" x2="870.0" y2="390.6"/>
<text class="label" x="82.0" y="394.6" text-anchor="end">10^-5</text>
<line class="grid" x1="90.0" y1="326.9" x2="870.0" y2="326.9"/>
<text class="label" x="82.0" y="330.9" text-anchor="end">10^-4</text>
<line class="grid" x1="90.0" y1="263.1" x2="870.0" y2="263.1"/>
<text class="label" x="82.0" y="267.1" text-anchor="end">10^-3</text>
<line class="grid" x1="90.0" y1="199.4" x2="870.0" y2="199.4"/>
<text class="label" x="82.0" y="203.4" text-anchor="end">10^-2</text>
<line class="grid" x1="90.0" y1="135.6" x2="870.0" y2="135.6"/>
<text class="label" x="82.0" y="139.6" text-anchor="end">10^-1</text>
<line class="grid" x1="90.0" y1="71.9" x2="870.0" y2="71.9"/>
<text class="label" x="82.0" y="75.9" text-anchor="end">1</text>
<line class="grid" x1="90.0" y1="40.0" x2="90.0" y2="550.0"/>
<text class="label" x="90.0" y="566.0" text-anchor="middle">0</text>
<line class="grid" x1="200.6" y1="40.0" x2="200.6" y2="550.0"/>
<text class="label" x="200.6" y="566.0" text-anchor="middle">5</text>
<line class="grid" x1="311.1" y1="40.0" x2="311.1" y2="550.0"/>
<text class="label" x="311.1" y="566.0" text-anchor="middle">10</text>
<line class="grid" x1="421.7" y1="40.0" x2="421.7" y2="550.0"/>
<text class="label" x="421.7" y="566.0" text-anchor="middle">15</text>
<line class="grid" x1="532.2" y1="40.0" x2="532.2" y2="550.0"/>
<text class="label" x="532.2" y="566.0" text-anchor="middle">20</text>
<line class="grid" x1="642.8" y1="40.0" x2="642.8" y2="550.0"/>
<text class="label" x="642.8" y="566.0" text-anchor="middle">25</text>
<line class="grid" x1="753.3" y1="40.0" x2="753.3" y2="550.0"/>
<text class="label" x="753.3" y="566.0" text-anchor="middle">30</text>
<line class="grid" x1="863.9" y1="40.0" x2="863.9" y2="550.0"/>
<text class="label" x="863.9" y="566.0" text-anchor="middle">35</text>
<polyline fill="none" stroke="#ef4444" stroke-width="2" stroke-dasharray="8,5" points="311.1,71.9 333.2,91.1 355.3,110.3 377.4,129.4 399.6,148.6 421.7,167.8 443.8,187.0 465.9,206.2 488.0,225.4 510.1,244.6 532.2,263.8 576.4,302.2 620.7,340.5 709.1,417.3 797.5,494.1"/>
<circle cx="311.1" cy="71.9" r="3" fill="#ef4444"/>
<circle cx="333.2" cy="91.1" r="3" fill="#ef4444"/>
<circle cx="355.3" cy="110.3" r="3" fill="#ef4444"/>
<circle cx="377.4" cy="129.4" r="3" fill="#ef4444"/>
<circle cx="399.6" cy="148.6" r="3" fill="#ef4444"/>
<circle cx="421.7" cy="167.8" r="3" fill="#ef4444"/>
<circle cx="443.8" cy="187.0" r="3" fill="#ef4444"/>
<circle cx="465.9" cy="206.2" r="3" fill="#ef4444"/>
<circle cx="488.0" cy="225.4" r="3" fill="#ef4444"/>
<circle cx="510.1" cy="244.6" r="3" fill="#ef4444"/>
<circle cx="532.2" cy="263.8" r="3" fill="#ef4444"/>
<circle cx="576.4" cy="302.2" r="3" fill="#ef4444"/>
<circle cx="620.7" cy="340.5" r="3" fill="#ef4444"/>
<circle cx="709.1" cy="417.3" r="3" fill="#ef4444"/>
<circle cx="797.5" cy="494.1" r="3" fill="#ef4444"/>
<polyline fill="none" stroke="#1a6b3c" stroke-width="2" points="176.9,71.9 233.1,71.9 278.5,71.9 324.8,72.4 369.3,84.6 413.6,113.7 457.8,149.5 509.0,187.4 553.2,225.5"/>
<polygon points="176.9,67.9 180.9,71.9 176.9,75.9 172.9,71.9" fill="#1a6b3c"/>
<polygon points="233.1,67.9 237.1,71.9 233.1,75.9 229.1,71.9" fill="#1a6b3c"/>
<polygon points="278.5,67.9 282.5,71.9 278.5,75.9 274.5,71.9" fill="#1a6b3c"/>
<polygon points="324.8,68.4 328.8,72.4 324.8,76.4 320.8,72.4" fill="#1a6b3c"/>
<polygon points="369.3,80.6 373.3,84.6 369.3,88.6 365.3,84.6" fill="#1a6b3c"/>
<polygon points="413.6,109.7 417.6,113.7 413.6,117.7 409.6,113.7" fill="#1a6b3c"/>
<polygon points="457.8,145.5 461.8,149.5 457.8,153.5 453.8,149.5" fill="#1a6b3c"/>
<polygon points="509.0,183.4 513.0,187.4 509.0,191.4 505.0,187.4" fill="#1a6b3c"/>
<polygon points="553.2,221.5 557.2,225.5 553.2,229.5 549.2,225.5" fill="#1a6b3c"/>
<polyline fill="none" stroke="#1a3a6b" stroke-width="2" points="164.5,181.6 208.6,204.5 253.0,227.3 297.4,251.0 341.4,274.3 385.5,299.3 429.9,328.6 474.3,358.6 518.3,390.2"/>
<polygon points="164.5,176.6 163.4,180.0 159.8,180.1 162.6,182.3 161.6,185.7 164.5,183.6 167.5,185.7 166.4,182.3 169.3,180.1 165.7,180.0" fill="#1a3a6b"/>
<polygon points="208.6,199.5 207.4,202.8 203.8,202.9 206.7,205.1 205.6,208.5 208.6,206.5 211.5,208.5 210.5,205.1 213.3,202.9 209.7,202.8" fill="#1a3a6b"/>
<polygon points="253.0,222.3 251.8,225.7 248.3,225.7 251.1,227.9 250.1,231.3 253.0,229.3 256.0,231.3 254.9,227.9 257.8,225.7 254.2,225.7" fill="#1a3a6b"/>
<polygon points="297.4,246.0 296.3,249.4 292.7,249.5 295.5,251.6 294.5,255.1 297.4,253.0 300.4,255.1 299.3,251.6 302.2,249.5 298.6,249.4" fill="#1a3a6b"/>
<polygon points="341.4,269.3 340.3,272.7 336.7,272.8 339.5,274.9 338.5,278.4 341.4,276.3 344.4,278.4 343.3,274.9 346.2,272.8 342.6,272.7" fill="#1a3a6b"/>
<polygon points="385.5,294.3 384.3,297.7 380.7,297.7 383.6,299.9 382.5,303.3 385.5,301.3 388.4,303.3 387.4,299.9 390.2,297.7 386.6,297.7" fill="#1a3a6b"/>
<polygon points="429.9,323.6 428.7,326.9 425.1,327.0 428.0,329.2 427.0,332.6 429.9,330.6 432.8,332.6 431.8,329.2 434.7,327.0 431.1,326.9" fill="#1a3a6b"/>
<polygon points="474.3,353.6 473.2,357.0 469.6,357.1 472.4,359.2 471.4,362.6 474.3,360.6 477.3,362.6 476.2,359.2 479.1,357.1 475.5,357.0" fill="#1a3a6b"/>
<polygon points="518.3,385.2 517.1,388.5 513.6,388.6 516.4,390.8 515.4,394.2 518.3,392.2 521.3,394.2 520.2,390.8 523.1,388.6 519.5,388.5" fill="#1a3a6b"/>
<polyline fill="none" stroke="#111111" stroke-width="2" points="353.6,115.3"/>
<rect x="350.6" y="112.3" width="6" height="6" fill="#111111"/>
<polyline fill="none" stroke="#111111" stroke-width="2" points="530.5,115.3"/>
<polygon points="530.5,111.3 534.5,118.3 526.5,118.3" fill="#111111"/>
<polyline fill="none" stroke="#111111" stroke-width="2" points="530.5,268.6"/>
<polygon points="530.5,264.6 534.5,268.6 530.5,272.6 526.5,268.6" fill="#111111"/>
<polyline fill="none" stroke="#2a7fff" stroke-width="2" points="90.0,71.9 90.0,71.9 90.0,71.9 90.0,71.9 90.0,71.9 90.1,71.9 90.2,71.9 90.3,71.9 90.7,71.9 91.4,71.9 92.8,71.9 95.5,71.9 101.1,71.9 111.8,71.9 129.8,71.9 154.1,71.9 181.8,71.9 236.9,71.9 286.3,71.9 377.2,84.6 465.9,149.6"/>
<rect x="87.0" y="68.9" width="6" height="6" fill="#2a7fff"/>
<rect x="87.0" y="68.9" width="6" height="6" fill="#2a7fff"/>
<rect x="87.0" y="68.9" width="6" height="6" fill="#2a7fff"/>
<rect x="87.0" y="68.9" width="6" height="6" fill="#2a7fff"/>
<rect x="87.0" y="68.9" width="6" height="6" fill="#2a7fff"/>
<rect x="87.1" y="68.9" width="6" height="6" fill="#2a7fff"/>
<rect x="87.2" y="68.9" width="6" height="6" fill="#2a7fff"/>
<rect x="87.3" y="68.9" width="6" height="6" fill="#2a7fff"/>
<rect x="87.7" y="68.9" width="6" height="6" fill="#2a7fff"/>
<rect x="88.4" y="68.9" width="6" height="6" fill="#2a7fff"/>
<rect x="89.8" y="68.9" width="6" height="6" fill="#2a7fff"/>
<rect x="92.5" y="68.9" width="6" height="6" fill="#2a7fff"/>
<rect x="98.1" y="68.9" width="6" height="6" fill="#2a7fff"/>
<rect x="108.8" y="68.9" width="6" height="6" fill="#2a7fff"/>
<rect x="126.8" y="68.9" width="6" height="6" fill="#2a7fff"/>
<rect x="151.1" y="68.9" width="6" height="6" fill="#2a7fff"/>
<rect x="178.8" y="68.9" width="6" height="6" fill="#2a7fff"/>
<rect x="233.9" y="68.9" width="6" height="6" fill="#2a7fff"/>
<rect x="283.3" y="68.9" width="6" height="6" fill="#2a7fff"/>
<rect x="374.2" y="81.6" width="6" height="6" fill="#2a7fff"/>
<rect x="462.9" y="146.6" width="6" height="6" fill="#2a7fff"/>
<polyline fill="none" stroke="#9b59b6" stroke-width="2" points="90.0,71.9 90.0,75.2 90.0,83.3 90.0,94.0 90.0,103.8 90.0,114.7 90.0,123.5 90.1,131.1 90.1,136.5 90.2,140.8 90.4,143.5 90.8,146.1 91.4,149.5 92.6,153.2 94.5,158.1 97.7,163.3 102.3,170.8 121.8,185.1 164.0,202.4 313.4,254.8 452.9,325.7"/>
<polygon points="90.0,67.9 94.0,74.9 86.0,74.9" fill="#9b59b6"/>
<polygon points="90.0,71.2 94.0,78.2 86.0,78.2" fill="#9b59b6"/>
<polygon points="90.0,79.3 94.0,86.3 86.0,86.3" fill="#9b59b6"/>
<polygon points="90.0,90.0 94.0,97.0 86.0,97.0" fill="#9b59b6"/>
<polygon points="90.0,99.8 94.0,106.8 86.0,106.8" fill="#9b59b6"/>
<polygon points="90.0,110.7 94.0,117.7 86.0,117.7" fill="#9b59b6"/>
<polygon points="90.0,119.5 94.0,126.5 86.0,126.5" fill="#9b59b6"/>
<polygon points="90.1,127.1 94.1,134.1 86.1,134.1" fill="#9b59b6"/>
<polygon points="90.1,132.5 94.1,139.5 86.1,139.5" fill="#9b59b6"/>
<polygon points="90.2,136.8 94.2,143.8 86.2,143.8" fill="#9b59b6"/>
<polygon points="90.4,139.5 94.4,146.5 86.4,146.5" fill="#9b59b6"/>
<polygon points="90.8,142.1 94.8,149.1 86.8,149.1" fill="#9b59b6"/>
<polygon points="91.4,145.5 95.4,152.5 87.4,152.5" fill="#9b59b6"/>
<polygon points="92.6,149.2 96.6,156.2 88.6,156.2" fill="#9b59b6"/>
<polygon points="94.5,154.1 98.5,161.1 90.5,161.1" fill="#9b59b6"/>
<polygon points="97.7,159.3 101.7,166.3 93.7,166.3" fill="#9b59b6"/>
<polygon points="102.3,166.8 106.3,173.8 98.3,173.8" fill="#9b59b6"/>
<polygon points="121.8,181.1 125.8,188.1 117.8,188.1" fill="#9b59b6"/>
<polygon points="164.0,198.4 168.0,205.4 160.0,205.4" fill="#9b59b6"/>
<polygon points="313.4,250.8 317.4,257.8 309.4,257.8" fill="#9b59b6"/>
<polygon points="452.9,321.7 456.9,328.7 448.9,328.7" fill="#9b59b6"/>
<polyline fill="none" stroke="#4dd88a" stroke-width="2" points="90.0,71.9 90.0,71.9 90.0,71.9 90.0,71.9 90.0,71.9 90.1,71.9 90.2,71.9 90.3,71.9 90.7,71.9 91.4,71.9 92.8,71.9 95.5,71.9 101.1,71.9 111.8,71.9 129.8,71.9 154.1,71.9 181.8,71.9 236.9,71.9 286.3,71.9 377.2,84.6 465.9,149.6"/>
<polygon points="90.0,67.9 94.0,71.9 90.0,75.9 86.0,71.9" fill="#4dd88a"/>
<polygon points="90.0,67.9 94.0,71.9 90.0,75.9 86.0,71.9" fill="#4dd88a"/>
<polygon points="90.0,67.9 94.0,71.9 90.0,75.9 86.0,71.9" fill="#4dd88a"/>
<polygon points="90.0,67.9 94.0,71.9 90.0,75.9 86.0,71.9" fill="#4dd88a"/>
<polygon points="90.0,67.9 94.0,71.9 90.0,75.9 86.0,71.9" fill="#4dd88a"/>
<polygon points="90.1,67.9 94.1,71.9 90.1,75.9 86.1,71.9" fill="#4dd88a"/>
<polygon points="90.2,67.9 94.2,71.9 90.2,75.9 86.2,71.9" fill="#4dd88a"/>
<polygon points="90.3,67.9 94.3,71.9 90.3,75.9 86.3,71.9" fill="#4dd88a"/>
<polygon points="90.7,67.9 94.7,71.9 90.7,75.9 86.7,71.9" fill="#4dd88a"/>
<polygon points="91.4,67.9 95.4,71.9 91.4,75.9 87.4,71.9" fill="#4dd88a"/>
<polygon points="92.8,67.9 96.8,71.9 92.8,75.9 88.8,71.9" fill="#4dd88a"/>
<polygon points="95.5,67.9 99.5,71.9 95.5,75.9 91.5,71.9" fill="#4dd88a"/>
<polygon points="101.1,67.9 105.1,71.9 101.1,75.9 97.1,71.9" fill="#4dd88a"/>
<polygon points="111.8,67.9 115.8,71.9 111.8,75.9 107.8,71.9" fill="#4dd88a"/>
<polygon points="129.8,67.9 133.8,71.9 129.8,75.9 125.8,71.9" fill="#4dd88a"/>
<polygon points="154.1,67.9 158.1,71.9 154.1,75.9 150.1,71.9" fill="#4dd88a"/>
<polygon points="181.8,67.9 185.8,71.9 181.8,75.9 177.8,71.9" fill="#4dd88a"/>
<polygon points="236.9,67.9 240.9,71.9 236.9,75.9 232.9,71.9" fill="#4dd88a"/>
<polygon points="286.3,67.9 290.3,71.9 286.3,75.9 282.3,71.9" fill="#4dd88a"/>
<polygon points="377.2,80.6 381.2,84.6 377.2,88.6 373.2,84.6" fill="#4dd88a"/>
<polygon points="465.9,145.6 469.9,149.6 465.9,153.6 461.9,149.6" fill="#4dd88a"/>
<polyline fill="none" stroke="#ff6b6b" stroke-width="2" points="90.1,71.9 90.2,75.2 90.2,83.3 90.3,94.0 90.5,103.8 90.9,114.7 91.7,123.5 93.2,131.1 95.9,136.5 99.8,140.8 104.6,143.5 109.7,146.1 114.9,149.6 120.5,153.2 126.5,158.1 133.6,163.3 142.0,170.8 168.3,185.5 214.4,203.9 356.3,258.6 482.5,329.3"/>
<polygon points="90.1,66.9 88.9,70.3 85.4,70.3 88.2,72.5 87.2,75.9 90.1,73.9 93.1,75.9 92.0,72.5 94.9,70.3 91.3,70.3" fill="#ff6b6b"/>
<polygon points="90.2,70.2 89.0,73.6 85.4,73.7 88.2,75.8 87.2,79.2 90.2,77.2 93.1,79.2 92.1,75.8 94.9,73.7 91.3,73.6" fill="#ff6b6b"/>
<polygon points="90.2,78.3 89.0,81.7 85.4,81.8 88.3,84.0 87.3,87.4 90.2,85.3 93.1,87.4 92.1,84.0 95.0,81.8 91.4,81.7" fill="#ff6b6b"/>
<polygon points="90.3,89.0 89.1,92.4 85.5,92.5 88.4,94.6 87.4,98.1 90.3,96.0 93.2,98.1 92.2,94.6 95.1,92.5 91.5,92.4" fill="#ff6b6b"/>
<polygon points="90.5,98.8 89.3,102.2 85.8,102.3 88.6,104.5 87.6,107.9 90.5,105.8 93.4,107.9 92.4,104.5 95.3,102.3 91.7,102.2" fill="#ff6b6b"/>
<polygon points="90.9,109.7 89.7,113.1 86.2,113.2 89.0,115.3 88.0,118.8 90.9,116.7 93.8,118.8 92.8,115.3 95.7,113.2 92.1,113.1" fill="#ff6b6b"/>
<polygon points="91.7,118.5 90.5,121.9 86.9,122.0 89.8,124.1 88.8,127.5 91.7,125.5 94.6,127.5 93.6,124.1 96.5,122.0 92.9,121.9" fill="#ff6b6b"/>
<polygon points="93.2,126.1 92.1,129.5 88.5,129.6 91.3,131.7 90.3,135.2 93.2,133.1 96.2,135.2 95.1,131.7 98.0,129.6 94.4,129.5" fill="#ff6b6b"/>
<polygon points="95.9,131.5 94.7,134.9 91.2,135.0 94.0,137.1 93.0,140.5 95.9,138.5 98.8,140.5 97.8,137.1 100.7,135.0 97.1,134.9" fill="#ff6b6b"/>
<polygon points="99.8,135.8 98.6,139.2 95.0,139.3 97.9,141.4 96.9,144.9 99.8,142.8 102.7,144.9 101.7,141.4 104.5,139.3 101.0,139.2" fill="#ff6b6b"/>
<polygon points="104.6,138.5 103.4,141.8 99.9,141.9 102.7,144.1 101.7,147.5 104.6,145.5 107.6,147.5 106.5,144.1 109.4,141.9 105.8,141.8" fill="#ff6b6b"/>
<polygon points="109.7,141.1 108.5,144.5 104.9,144.6 107.8,146.7 106.8,150.1 109.7,148.1 112.6,150.1 111.6,146.7 114.5,144.6 110.9,144.5" fill="#ff6b6b"/>
<polygon points="114.9,144.6 113.7,147.9 110.2,148.0 113.0,150.2 112.0,153.6 114.9,151.6 117.8,153.6 116.8,150.2 119.7,148.0 116.1,147.9" fill="#ff6b6b"/>
<polygon points="120.5,148.2 119.3,151.6 115.7,151.6 118.6,153.8 117.5,157.2 120.5,155.2 123.4,157.2 122.4,153.8 125.2,151.6 121.6,151.6" fill="#ff6b6b"/>
<polygon points="126.5,153.1 125.3,156.5 121.7,156.6 124.6,158.7 123.5,162.2 126.5,160.1 129.4,162.2 128.4,158.7 131.2,156.6 127.7,156.5" fill="#ff6b6b"/>
<polygon points="133.6,158.3 132.5,161.7 128.9,161.8 131.7,163.9 130.7,167.4 133.6,165.3 136.6,167.4 135.5,163.9 138.4,161.8 134.8,161.7" fill="#ff6b6b"/>
<polygon points="142.0,165.8 140.9,169.2 137.3,169.3 140.1,171.4 139.1,174.9 142.0,172.8 145.0,174.9 144.0,171.4 146.8,169.3 143.2,169.2" fill="#ff6b6b"/>
<polygon points="168.3,180.5 167.1,183.9 163.5,183.9 166.4,186.1 165.3,189.5 168.3,187.5 171.2,189.5 170.2,186.1 173.0,183.9 169.5,183.9" fill="#ff6b6b"/>
<polygon points="214.4,198.9 213.2,202.3 209.6,202.4 212.5,204.5 211.4,207.9 214.4,205.9 217.3,207.9 216.3,204.5 219.1,202.4 215.5,202.3" fill="#ff6b6b"/>
<polygon points="356.3,253.6 355.1,257.0 351.6,257.1 354.4,259.2 353.4,262.7 356.3,260.6 359.2,262.7 358.2,259.2 361.1,257.1 357.5,257.0" fill="#ff6b6b"/>
<polygon points="482.5,324.3 481.3,327.7 477.8,327.8 480.6,329.9 479.6,333.4 482.5,331.3 485.5,333.4 484.4,329.9 487.3,327.8 483.7,327.7" fill="#ff6b6b"/>
<polyline fill="none" stroke="#ff922b" stroke-width="2" points="257.1,145.7 285.8,161.9 314.7,179.2 342.5,197.2 369.2,214.0 394.6,231.3 418.8,249.6 442.1,268.9 487.5,304.9 509.8,324.4"/>
<circle cx="257.1" cy="145.7" r="3" fill="#ff922b"/>
<circle cx="285.8" cy="161.9" r="3" fill="#ff922b"/>
<circle cx="314.7" cy="179.2" r="3" fill="#ff922b"/>
<circle cx="342.5" cy="197.2" r="3" fill="#ff922b"/>
<circle cx="369.2" cy="214.0" r="3" fill="#ff922b"/>
<circle cx="394.6" cy="231.3" r="3" fill="#ff922b"/>
<circle cx="418.8" cy="249.6" r="3" fill="#ff922b"/>
<circle cx="442.1" cy="268.9" r="3" fill="#ff922b"/>
<circle cx="487.5" cy="304.9" r="3" fill="#ff922b"/>
<circle cx="509.8" cy="324.4" r="3" fill="#ff922b"/>
<polyline fill="none" stroke="#888888" stroke-width="2" stroke-dasharray="8,5" points="512.6,135.3 545.7,154.6 588.6,180.2 620.7,199.8 652.7,218.1 694.9,244.3 726.9,263.2 758.8,283.8 801.0,304.7 832.9,325.4"/>
<circle cx="512.6" cy="135.3" r="3" fill="#888888"/>
<circle cx="545.7" cy="154.6" r="3" fill="#888888"/>
<circle cx="588.6" cy="180.2" r="3" fill="#888888"/>
<circle cx="620.7" cy="199.8" r="3" fill="#888888"/>
<circle cx="652.7" cy="218.1" r="3" fill="#888888"/>
<circle cx="694.9" cy="244.3" r="3" fill="#888888"/>
<circle cx="726.9" cy="263.2" r="3" fill="#888888"/>
<circle cx="758.8" cy="283.8" r="3" fill="#888888"/>
<circle cx="801.0" cy="304.7" r="3" fill="#888888"/>
<circle cx="832.9" cy="325.4" r="3" fill="#888888"/>
<line x1="886" y1="60" x2="902" y2="60" stroke="#ef4444" stroke-width="2" stroke-dasharray="8,5"/>
<circle cx="894.0" cy="60.0" r="3" fill="#ef4444"/>
<text class="label" x="908" y="64">Theoretical</text>
<line x1="886" y1="78" x2="902" y2="78" stroke="#1a6b3c" stroke-width="2"/>
<polygon points="894.0,74.0 898.0,78.0 894.0,82.0 890.0,78.0" fill="#1a6b3c"/>
<text class="label" x="908" y="82">Grafite</text>
<line x1="886" y1="96" x2="902" y2="96" stroke="#1a3a6b" stroke-width="2"/>
<polygon points="894.0,91.0 892.8,94.4 889.2,94.5 892.1,96.6 891.1,100.0 894.0,98.0 896.9,100.0 895.9,96.6 898.8,94.5 895.2,94.4" fill="#1a3a6b"/>
<text class="label" x="908" y="100">SNARF</text>
<line x1="886" y1="114" x2="902" y2="114" stroke="#111111" stroke-width="2"/>
<rect x="891.0" y="111.0" width="6" height="6" fill="#111111"/>
<text class="label" x="908" y="118">SuRF</text>
<line x1="886" y1="132" x2="902" y2="132" stroke="#111111" stroke-width="2"/>
<polygon points="894.0,128.0 898.0,135.0 890.0,135.0" fill="#111111"/>
<text class="label" x="908" y="136">SuRFHash(8)</text>
<line x1="886" y1="150" x2="902" y2="150" stroke="#111111" stroke-width="2"/>
<polygon points="894.0,146.0 898.0,150.0 894.0,154.0 890.0,150.0" fill="#111111"/>
<text class="label" x="908" y="154">SuRFReal(8)</text>
<line x1="886" y1="168" x2="902" y2="168" stroke="#2a7fff" stroke-width="2"/>
<rect x="891.0" y="165.0" width="6" height="6" fill="#2a7fff"/>
<text class="label" x="908" y="172">Adaptive (t=0)</text>
<line x1="886" y1="186" x2="902" y2="186" stroke="#9b59b6" stroke-width="2"/>
<polygon points="894.0,182.0 898.0,189.0 890.0,189.0" fill="#9b59b6"/>
<text class="label" x="908" y="190">Truncation</text>
<line x1="886" y1="204" x2="902" y2="204" stroke="#4dd88a" stroke-width="2"/>
<polygon points="894.0,200.0 898.0,204.0 894.0,208.0 890.0,204.0" fill="#4dd88a"/>
<text class="label" x="908" y="208">SODA</text>
<line x1="886" y1="222" x2="902" y2="222" stroke="#ff6b6b" stroke-width="2"/>
<polygon points="894.0,217.0 892.8,220.4 889.2,220.5 892.1,222.6 891.1,226.0 894.0,224.0 896.9,226.0 895.9,222.6 898.8,220.5 895.2,220.4" fill="#ff6b6b"/>
<text class="label" x="908" y="226">Hybrid</text>
<line x1="886" y1="240" x2="902" y2="240" stroke="#ff922b" stroke-width="2"/>
<circle cx="894.0" cy="240.0" r="3" fill="#ff922b"/>
<text class="label" x="908" y="244">CDF-ARE</text>
<line x1="886" y1="258" x2="902" y2="258" stroke="#888888" stroke-width="2" stroke-dasharray="8,5"/>
<circle cx="894.0" cy="258.0" r="3" fill="#888888"/>
<text class="label" x="908" y="262">BloomARE</text>
<text x="480" y="590" text-anchor="middle">Bits per Key (BPK)</text>
<text transform="translate(16,295) rotate(-90)" text-anchor="middle">False Positive Rate (FPR)</text>
</svg>
