<svg xmlns="http://www.w3.org/2000/svg" width="1020" height="600" viewBox="0 0 1020 600">
<style>text{font-family:Menlo,Monaco,monospace;font-size:12px;fill:#222} .axis{stroke:#333;stroke-width:1} .grid{stroke:#eee;stroke-width:0.5} .label{font-size:11px;fill:#444}</style>
<text x="510" y="28" text-anchor="middle" style="font-size:14px;font-weight:bold">FPR vs BPK — sosd_osm (60-bit keys, n=262144, L=128)</text>
<line class="axis" x1="90.0" y1="550.0" x2="870.0" y2="550.0"/>
<line class="axis" x1="90.0" y1="40.0" x2="90.0" y2="550.0"/>
<line class="grid" x1="90.0" y1="521.7" x2="870.0" y2="521.7"/>
<text class="label" x="82.0" y="525.7" text-anchor="end">10^-8</text>
<line class="grid" x1="90.0" y1="465.0" x2="870.0" y2="465.0"/>
<text class="label" x="82.0" y="469.0" text-anchor="end">10^-7</text>
<line class="grid" x1="90.0" y1="408.3" x2="870.0" y2="408.3"/>
<text class="label" x="82.0" y="412.3" text-anchor="end">10^-6</text>
<line class="grid" x1="90.0" y1="351.7" x2="870.0" y2="351.7"/>
<text class="label" x="82.0" y="355.7" text-anchor="end">10^-5</text>
<line class="grid" x1="90.0" y1="295.0" x2="870.0" y2="295.0"/>
<text class="label" x="82.0" y="299.0" text-anchor="end">10^-4</text>
<line class="grid" x1="90.0" y1="238.3" x2="870.0" y2="238.3"/>
<text class="label" x="82.0" y="242.3" text-anchor="end">10^-3</text>
<line class="grid" x1="90.0" y1="181.7" x2="870.0" y2="181.7"/>
<text class="label" x="82.0" y="185.7" text-anchor="end">10^-2</text>
<line class="grid" x1="90.0" y1="125.0" x2="870.0" y2="125.0"/>
<text class="label" x="82.0" y="129.0" text-anchor="end">10^-1</text>
<line class="grid" x1="90.0" y1="68.3" x2="870.0" y2="68.3"/>
<text class="label" x="82.0" y="72.3" text-anchor="end">1</text>
<line class="grid" x1="90.0" y1="40.0" x2="90.0" y2="550.0"/>
<text class="label" x="90.0" y="566.0" text-anchor="middle">0</text>
<line class="grid" x1="206.1" y1="40.0" x2="206.1" y2="550.0"/>
<text class="label" x="206.1" y="566.0" text-anchor="middle">5</text>
<line class="grid" x1="322.1" y1="40.0" x2="322.1" y2="550.0"/>
<text class="label" x="322.1" y="566.0" text-anchor="middle">10</text>
<line class="grid" x1="438.2" y1="40.0" x2="438.2" y2="550.0"/>
<text class="label" x="438.2" y="566.0" text-anchor="middle">15</text>
<line class="grid" x1="554.3" y1="40.0" x2="554.3" y2="550.0"/>
<text class="label" x="554.3" y="566.0" text-anchor="middle">20</text>
<line class="grid" x1="670.4" y1="40.0" x2="670.4" y2="550.0"/>
<text class="label" x="670.4" y="566.0" text-anchor="middle">25</text>
<line class="grid" x1="786.4" y1="40.0" x2="786.4" y2="550.0"/>
<text class="label" x="786.4" y="566.0" text-anchor="middle">30</text>
<polyline fill="none" stroke="#ef4444" stroke-width="2" stroke-dasharray="8,5" points="252.5,68.3 275.7,85.4 298.9,102.5 322.1,119.5 345.4,136.6 368.6,153.6 391.8,170.7 415.0,187.7 438.2,204.8 461.4,221.9 484.6,238.9 507.9,256.0 531.1,273.0 554.3,290.1 600.7,324.2 647.1,358.3 740.0,426.6 832.9,494.8"/>
<circle cx="252.5" cy="68.3" r="3" fill="#ef4444"/>
<circle cx="275.7" cy="85.4" r="3" fill="#ef4444"/>
<circle cx="298.9" cy="102.5" r="3" fill="#ef4444"/>
<circle cx="322.1" cy="119.5" r="3" fill="#ef4444"/>
<circle cx="345.4" cy="136.6" r="3" fill="#ef4444"/>
<circle cx="368.6" cy="153.6" r="3" fill="#ef4444"/>
<circle cx="391.8" cy="170.7" r="3" fill="#ef4444"/>
<circle cx="415.0" cy="187.7" r="3" fill="#ef4444"/>
<circle cx="438.2" cy="204.8" r="3" fill="#ef4444"/>
<circle cx="461.4" cy="221.9" r="3" fill="#ef4444"/>
<circle cx="484.6" cy="238.9" r="3" fill="#ef4444"/>
<circle cx="507.9" cy="256.0" r="3" fill="#ef4444"/>
<circle cx="531.1" cy="273.0" r="3" fill="#ef4444"/>
<circle cx="554.3" cy="290.1" r="3" fill="#ef4444"/>
<circle cx="600.7" cy="324.2" r="3" fill="#ef4444"/>
<circle cx="647.1" cy="358.3" r="3" fill="#ef4444"/>
<circle cx="740.0" cy="426.6" r="3" fill="#ef4444"/>
<circle cx="832.9" cy="494.8" r="3" fill="#ef4444"/>
<polyline fill="none" stroke="#1a6b3c" stroke-width="2" points="181.3,68.3 240.3,68.3 289.3,71.9 336.5,91.2 383.1,121.1 429.7,154.1 476.2,187.9 529.9,222.3 576.3,254.9"/>
<polygon points="181.3,64.3 185.3,68.3 181.3,72.3 177.3,68.3" fill="#1a6b3c"/>
<polygon points="240.3,64.3 244.3,68.3 240.3,72.3 236.3,68.3" fill="#1a6b3c"/>
<polygon points="289.3,67.9 293.3,71.9 289.3,75.9 285.3,71.9" fill="#1a6b3c"/>
<polygon points="336.5,87.2 340.5,91.2 336.5,95.2 332.5,91.2" fill="#1a6b3c"/>
<polygon points="383.1,117.1 387.1,121.1 383.1,125.1 379.1,121.1" fill="#1a6b3c"/>
<polygon points="429.7,150.1 433.7,154.1 429.7,158.1 425.7,154.1" fill="#1a6b3c"/>
<polygon points="476.2,183.9 480.2,187.9 476.2,191.9 472.2,187.9" fill="#1a6b3c"/>
<polygon points="529.9,218.3 533.9,222.3 529.9,226.3 525.9,222.3" fill="#1a6b3c"/>
<polygon points="576.3,250.9 580.3,254.9 576.3,258.9 572.3,254.9" fill="#1a6b3c"/>
<polyline fill="none" stroke="#1a3a6b" stroke-width="2" points="168.3,165.9 214.5,186.2 261.2,206.5 307.8,227.6 354.0,248.3 400.2,270.5 446.9,296.5 493.5,323.2 539.7,351.2"/>
<polygon points="168.3,160.9 167.1,164.3 163.5,164.4 166.4,166.5 165.3,170.0 168.3,167.9 171.2,170.0 170.2,166.5 173.0,164.4 169.4,164.3" fill="#1a3a6b"/>
<polygon points="214.5,181.2 213.3,184.6 209.7,184.6 212.6,186.8 211.5,190.2 214.5,188.2 217.4,190.2 216.4,186.8 219.2,184.6 215.7,184.6" fill="#1a3a6b"/>
<polygon points="261.2,201.5 260.0,204.9 256.4,204.9 259.3,207.1 258.2,210.5 261.2,208.5 264.1,210.5 263.1,207.1 265.9,204.9 262.3,204.9" fill="#1a3a6b"/>
<polygon points="307.8,222.6 306.6,225.9 303.0,226.0 305.9,228.2 304.9,231.6 307.8,229.6 310.7,231.6 309.7,228.2 312.6,226.0 309.0,225.9" fill="#1a3a6b"/>
<polygon points="354.0,243.3 352.8,246.7 349.2,246.7 352.1,248.9 351.0,252.3 354.0,250.3 356.9,252.3 355.9,248.9 358.7,246.7 355.2,246.7" fill="#1a3a6b"/>
<polygon points="400.2,265.5 399.0,268.9 395.4,268.9 398.3,271.1 397.3,274.5 400.2,272.5 403.1,274.5 402.1,271.1 405.0,268.9 401.4,268.9" fill="#1a3a6b"/>
<polygon points="446.9,291.5 445.7,294.9 442.1,295.0 445.0,297.1 443.9,300.5 446.9,298.5 449.8,300.5 448.8,297.1 451.6,295.0 448.0,294.9" fill="#1a3a6b"/>
<polygon points="493.5,318.2 492.3,321.6 488.8,321.7 491.6,323.8 490.6,327.2 493.5,325.2 496.5,327.2 495.4,323.8 498.3,321.7 494.7,321.6" fill="#1a3a6b"/>
<polygon points="539.7,346.2 538.5,349.6 534.9,349.7 537.8,351.9 536.8,355.3 539.7,353.2 542.6,355.3 541.6,351.9 544.5,349.7 540.9,349.6" fill="#1a3a6b"/>
<polyline fill="none" stroke="#111111" stroke-width="2" points="366.8,107.0"/>
<rect x="363.8" y="104.0" width="6" height="6" fill="#111111"/>
<polyline fill="none" stroke="#111111" stroke-width="2" points="552.5,107.0"/>
<polygon points="552.5,103.0 556.5,110.0 548.5,110.0" fill="#111111"/>
<polyline fill="none" stroke="#111111" stroke-width="2" points="552.5,243.2"/>
<polygon points="552.5,239.2 556.5,243.2 552.5,247.2 548.5,243.2" fill="#111111"/>
<polyline fill="none" stroke="#2a7fff" stroke-width="2" points="90.0,68.3 90.0,68.3 90.0,68.3 90.0,68.3 90.0,68.3 90.1,68.3 90.2,68.3 90.4,68.3 90.7,68.3 91.5,68.3 92.9,68.3 95.8,68.3 101.6,68.3 112.9,68.3 131.7,68.3 157.3,68.3 186.4,68.3 244.2,68.3 296.1,71.9 391.5,121.1 484.6,187.7"/>
<rect x="87.0" y="65.3" width="6" height="6" fill="#2a7fff"/>
<rect x="87.0" y="65.3" width="6" height="6" fill="#2a7fff"/>
<rect x="87.0" y="65.3" width="6" height="6" fill="#2a7fff"/>
<rect x="87.0" y="65.3" width="6" height="6" fill="#2a7fff"/>
<rect x="87.0" y="65.3" width="6" height="6" fill="#2a7fff"/>
<rect x="87.1" y="65.3" width="6" height="6" fill="#2a7fff"/>
<rect x="87.2" y="65.3" width="6" height="6" fill="#2a7fff"/>
<rect x="87.4" y="65.3" width="6" height="6" fill="#2a7fff"/>
<rect x="87.7" y="65.3" width="6" height="6" fill="#2a7fff"/>
<rect x="88.5" y="65.3" width="6" height="6" fill="#2a7fff"/>
<rect x="89.9" y="65.3" width="6" height="6" fill="#2a7fff"/>
<rect x="92.8" y="65.3" width="6" height="6" fill="#2a7fff"/>
<rect x="98.6" y="65.3" width="6" height="6" fill="#2a7fff"/>
<rect x="109.9" y="65.3" width="6" height="6" fill="#2a7fff"/>
<rect x="128.7" y="65.3" width="6" height="6" fill="#2a7fff"/>
<rect x="154.3" y="65.3" width="6" height="6" fill="#2a7fff"/>
<rect x="183.4" y="65.3" width="6" height="6" fill="#2a7fff"/>
<rect x="241.2" y="65.3" width="6" height="6" fill="#2a7fff"/>
<rect x="293.1" y="68.9" width="6" height="6" fill="#2a7fff"/>
<rect x="388.5" y="118.1" width="6" height="6" fill="#2a7fff"/>
<rect x="481.6" y="184.7" width="6" height="6" fill="#2a7fff"/>
<polyline fill="none" stroke="#9b59b6" stroke-width="2" points="90.0,68.3 90.0,71.3 90.0,78.5 90.0,88.0 90.0,96.7 90.0,106.4 90.1,114.2 90.1,121.0 90.1,125.8 90.2,129.6 90.5,132.0 90.8,134.3 91.5,137.4 92.7,140.6 94.7,145.0 98.0,149.6 102.9,156.3 123.4,169.0 167.7,184.4 324.6,231.0 471.0,294.0"/>
<polygon points="90.0,64.3 94.0,71.3 86.0,71.3" fill="#9b59b6"/>
<polygon points="90.0,67.3 94.0,74.3 86.0,74.3" fill="#9b59b6"/>
<polygon points="90.0,74.5 94.0,81.5 86.0,81.5" fill="#9b59b6"/>
<polygon points="90.0,84.0 94.0,91.0 86.0,91.0" fill="#9b59b6"/>
<polygon points="90.0,92.7 94.0,99.7 86.0,99.7" fill="#9b59b6"/>
<polygon points="90.0,102.4 94.0,109.4 86.0,109.4" fill="#9b59b6"/>
<polygon points="90.1,110.2 94.1,117.2 86.1,117.2" fill="#9b59b6"/>
<polygon points="90.1,117.0 94.1,124.0 86.1,124.0" fill="#9b59b6"/>
<polygon points="90.1,121.8 94.1,128.8 86.1,128.8" fill="#9b59b6"/>
<polygon points="90.2,125.6 94.2,132.6 86.2,132.6" fill="#9b59b6"/>
<polygon points="90.5,128.0 94.5,135.0 86.5,135.0" fill="#9b59b6"/>
<polygon points="90.8,130.3 94.8,137.3 86.8,137.3" fill="#9b59b6"/>
<polygon points="91.5,133.4 95.5,140.4 87.5,140.4" fill="#9b59b6"/>
<polygon points="92.7,136.6 96.7,143.6 88.7,143.6" fill="#9b59b6"/>
<polygon points="94.7,141.0 98.7,148.0 90.7,148.0" fill="#9b59b6"/>
<polygon points="98.0,145.6 102.0,152.6 94.0,152.6" fill="#9b59b6"/>
<polygon points="102.9,152.3 106.9,159.3 98.9,159.3" fill="#9b59b6"/>
<polygon points="123.4,165.0 127.4,172.0 119.4,172.0" fill="#9b59b6"/>
<polygon points="167.7,180.4 171.7,187.4 163.7,187.4" fill="#9b59b6"/>
<polygon points="324.6,227.0 328.6,234.0 320.6,234.0" fill="#9b59b6"/>
<polygon points="471.0,290.0 475.0,297.0 467.0,297.0" fill="#9b59b6"/>
<polyline fill="none" stroke="#4dd88a" stroke-width="2" points="90.0,68.3 90.0,68.3 90.0,68.3 90.0,68.3 90.0,68.3 90.1,68.3 90.2,68.3 90.4,68.3 90.7,68.3 91.5,68.3 92.9,68.3 95.8,68.3 101.6,68.3 112.9,68.3 131.7,68.3 157.3,68.3 186.4,68.3 244.2,68.3 296.1,71.9 391.5,121.1 484.6,187.7"/>
<polygon points="90.0,64.3 94.0,68.3 90.0,72.3 86.0,68.3" fill="#4dd88a"/>
<polygon points="90.0,64.3 94.0,68.3 90.0,72.3 86.0,68.3" fill="#4dd88a"/>
<polygon points="90.0,64.3 94.0,68.3 90.0,72.3 86.0,68.3" fill="#4dd88a"/>
<polygon points="90.0,64.3 94.0,68.3 90.0,72.3 86.0,68.3" fill="#4dd88a"/>
<polygon points="90.0,64.3 94.0,68.3 90.0,72.3 86.0,68.3" fill="#4dd88a"/>
<polygon points="90.1,64.3 94.1,68.3 90.1,72.3 86.1,68.3" fill="#4dd88a"/>
<polygon points="90.2,64.3 94.2,68.3 90.2,72.3 86.2,68.3" fill="#4dd88a"/>
<polygon points="90.4,64.3 94.4,68.3 90.4,72.3 86.4,68.3" fill="#4dd88a"/>
<polygon points="90.7,64.3 94.7,68.3 90.7,72.3 86.7,68.3" fill="#4dd88a"/>
<polygon points="91.5,64.3 95.5,68.3 91.5,72.3 87.5,68.3" fill="#4dd88a"/>
<polygon points="92.9,64.3 96.9,68.3 92.9,72.3 88.9,68.3" fill="#4dd88a"/>
<polygon points="95.8,64.3 99.8,68.3 95.8,72.3 91.8,68.3" fill="#4dd88a"/>
<polygon points="101.6,64.3 105.6,68.3 101.6,72.3 97.6,68.3" fill="#4dd88a"/>
<polygon points="112.9,64.3 116.9,68.3 112.9,72.3 108.9,68.3" fill="#4dd88a"/>
<polygon points="131.7,64.3 135.7,68.3 131.7,72.3 127.7,68.3" fill="#4dd88a"/>
<polygon points="157.3,64.3 161.3,68.3 157.3,72.3 153.3,68.3" fill="#4dd88a"/>
<polygon points="186.4,64.3 190.4,68.3 186.4,72.3 182.4,68.3" fill="#4dd88a"/>
<polygon points="244.2,64.3 248.2,68.3 244.2,72.3 240.2,68.3" fill="#4dd88a"/>
<polygon points="296.1,67.9 300.1,71.9 296.1,75.9 292.1,71.9" fill="#4dd88a"/>
<polygon points="391.5,117.1 395.5,121.1 391.5,125.1 387.5,121.1" fill="#4dd88a"/>
<polygon points="484.6,183.7 488.6,187.7 484.6,191.7 480.6,187.7" fill="#4dd88a"/>
<polyline fill="none" stroke="#ff6b6b" stroke-width="2" points="90.1,68.3 90.2,71.3 90.2,78.5 90.3,88.0 90.5,96.7 91.0,106.4 91.8,114.2 93.4,121.0 96.2,125.8 100.3,129.6 105.4,132.0 110.7,134.3 116.2,137.4 122.0,140.6 128.3,145.0 135.8,149.8 144.6,156.7 172.2,170.0 220.6,186.3 369.6,234.8 502.1,297.5"/>
<polygon points="90.1,63.3 89.0,66.7 85.4,66.8 88.2,69.0 87.2,72.4 90.1,70.3 93.1,72.4 92.0,69.0 94.9,66.8 91.3,66.7" fill="#ff6b6b"/>
<polygon points="90.2,66.3 89.0,69.7 85.4,69.7 88.3,71.9 87.2,75.3 90.2,73.3 93.1,75.3 92.1,71.9 94.9,69.7 91.3,69.7" fill="#ff6b6b"/>
<polygon points="90.2,73.5 89.0,76.9 85.5,77.0 88.3,79.1 87.3,82.6 90.2,80.5 93.2,82.6 92.1,79.1 95.0,77.0 91.4,76.9" fill="#ff6b6b"/>
<polygon points="90.3,83.0 89.1,86.4 85.6,86.5 88.4,88.6 87.4,92.1 90.3,90.0 93.3,92.1 92.2,88.6 95.1,86.5 91.5,86.4" fill="#ff6b6b"/>
<polygon points="90.5,91.7 89.4,95.1 85.8,95.2 88.6,97.4 87.6,100.8 90.5,98.7 93.5,100.8 92.4,97.4 95.3,95.2 91.7,95.1" fill="#ff6b6b"/>
<polygon points="91.0,101.4 89.8,104.8 86.2,104.9 89.0,107.0 88.0,110.5 91.0,108.4 93.9,110.5 92.9,107.0 95.7,104.9 92.1,104.8" fill="#ff6b6b"/>
<polygon points="91.8,109.2 90.6,112.6 87.0,112.7 89.9,114.8 88.8,118.3 91.8,116.2 94.7,118.3 93.7,114.8 96.5,112.7 93.0,112.6" fill="#ff6b6b"/>
<polygon points="93.4,116.0 92.2,119.4 88.6,119.4 91.5,121.6 90.5,125.0 93.4,123.0 96.3,125.0 95.3,121.6 98.2,119.4 94.6,119.4" fill="#ff6b6b"/>
<polygon points="96.2,120.8 95.0,124.2 91.4,124.2 94.3,126.4 93.3,129.8 96.2,127.8 99.1,129.8 98.1,126.4 101.0,124.2 97.4,124.2" fill="#ff6b6b"/>
<polygon points="100.3,124.6 99.1,128.0 95.5,128.1 98.4,130.2 97.3,133.7 100.3,131.6 103.2,133.7 102.2,130.2 105.0,128.1 101.5,128.0" fill="#ff6b6b"/>
<polygon points="105.4,127.0 104.2,130.3 100.6,130.4 103.5,132.6 102.4,136.0 105.4,134.0 108.3,136.0 107.3,132.6 110.1,130.4 106.5,130.3" fill="#ff6b6b"/>
<polygon points="110.7,129.3 109.5,132.7 105.9,132.8 108.8,134.9 107.7,138.4 110.7,136.3 113.6,138.4 112.6,134.9 115.4,132.8 111.9,132.7" fill="#ff6b6b"/>
<polygon points="116.2,132.4 115.0,135.8 111.4,135.8 114.3,138.0 113.2,141.4 116.2,139.4 119.1,141.4 118.1,138.0 120.9,135.8 117.3,135.8" fill="#ff6b6b"/>
<polygon points="122.0,135.6 120.8,139.0 117.2,139.1 120.1,141.2 119.0,144.7 122.0,142.6 124.9,144.7 123.9,141.2 126.7,139.1 123.1,139.0" fill="#ff6b6b"/>
<polygon points="128.3,140.0 127.1,143.4 123.5,143.5 126.4,145.6 125.4,149.1 128.3,147.0 131.2,149.1 130.2,145.6 133.1,143.5 129.5,143.4" fill="#ff6b6b"/>
<polygon points="135.8,144.8 134.6,148.2 131.1,148.2 133.9,150.4 132.9,153.8 135.8,151.8 138.8,153.8 137.7,150.4 140.6,148.2 137.0,148.2" fill="#ff6b6b"/>
<polygon points="144.6,151.7 143.5,155.0 139.9,155.1 142.7,157.3 141.7,160.7 144.6,158.7 147.6,160.7 146.5,157.3 149.4,155.1 145.8,155.0" fill="#ff6b6b"/>
<polygon points="172.2,165.0 171.0,168.4 167.4,168.5 170.3,170.6 169.3,174.1 172.2,172.0 175.1,174.1 174.1,170.6 176.9,168.5 173.4,168.4" fill="#ff6b6b"/>
<polygon points="220.6,181.3 219.4,184.7 215.8,184.8 218.7,187.0 217.6,190.4 220.6,188.3 223.5,190.4 222.5,187.0 225.3,184.8 221.7,184.7" fill="#ff6b6b"/>
<polygon points="369.6,229.8 368.4,233.2 364.8,233.2 367.7,235.4 366.7,238.8 369.6,236.8 372.5,238.8 371.5,235.4 374.4,233.2 370.8,233.2" fill="#ff6b6b"/>
<polygon points="502.1,292.5 500.9,295.9 497.3,296.0 500.2,298.1 499.2,301.6 502.1,299.5 505.0,301.6 504.0,298.1 506.9,296.0 503.3,295.9" fill="#ff6b6b"/>
<polyline fill="none" stroke="#ff922b" stroke-width="2" points="265.5,133.9 295.6,148.3 325.9,163.8 355.1,179.8 383.2,194.7 409.8,210.0 435.2,226.3 459.7,243.4 507.3,275.5 530.7,292.8"/>
<circle cx="265.5" cy="133.9" r="3" fill="#ff922b"/>
<circle cx="295.6" cy="148.3" r="3" fill="#ff922b"/>
<circle cx="325.9" cy="163.8" r="3" fill="#ff922b"/>
<circle cx="355.1" cy="179.8" r="3" fill="#ff922b"/>
<circle cx="383.2" cy="194.7" r="3" fill="#ff922b"/>
<circle cx="409.8" cy="210.0" r="3" fill="#ff922b"/>
<circle cx="435.2" cy="226.3" r="3" fill="#ff922b"/>
<circle cx="459.7" cy="243.4" r="3" fill="#ff922b"/>
<circle cx="507.3" cy="275.5" r="3" fill="#ff922b"/>
<circle cx="530.7" cy="292.8" r="3" fill="#ff922b"/>
<polyline fill="none" stroke="#888888" stroke-width="2" stroke-dasharray="8,5" points="433.2,124.6 468.0,141.7 513.0,164.7 546.7,182.1 580.3,198.6 624.7,219.9 658.2,238.0 691.7,255.4 736.0,278.3 769.5,291.7"/>
<circle cx="433.2" cy="124.6" r="3" fill="#888888"/>
<circle cx="468.0" cy="141.7" r="3" fill="#888888"/>
<circle cx="513.0" cy="164.7" r="3" fill="#888888"/>
<circle cx="546.7" cy="182.1" r="3" fill="#888888"/>
<circle cx="580.3" cy="198.6" r="3" fill="#888888"/>
<circle cx="624.7" cy="219.9" r="3" fill="#888888"/>
<circle cx="658.2" cy="238.0" r="3" fill="#888888"/>
<circle cx="691.7" cy="255.4" r="3" fill="#888888"/>
<circle cx="736.0" cy="278.3" r="3" fill="#888888"/>
<circle cx="769.5" cy="291.7" r="3" fill="#888888"/>
<line x1="886" y1="60" x2="902" y2="60" stroke="#ef4444" stroke-width="2" stroke-dasharray="8,5"/>
<circle cx="894.0" cy="60.0" r="3" fill="#ef4444"/>
<text class="label" x="908" y="64">Theoretical</text>
<line x1="886" y1="78" x2="902" y2="78" stroke="#1a6b3c" stroke-width="2"/>
<polygon points="894.0,74.0 898.0,78.0 894.0,82.0 890.0,78.0" fill="#1a6b3c"/>
<text class="label" x="908" y="82">Grafite</text>
<line x1="886" y1="96" x2="902" y2="96" stroke="#1a3a6b" stroke-width="2"/>
<polygon points="894.0,91.0 892.8,94.4 889.2,94.5 892.1,96.6 891.1,100.0 894.0,98.0 896.9,100.0 895.9,96.6 898.8,94.5 895.2,94.4" fill="#1a3a6b"/>
<text class="label" x="908" y="100">SNARF</text>
<line x1="886" y1="114" x2="902" y2="114" stroke="#111111" stroke-width="2"/>
<rect x="891.0" y="111.0" width="6" height="6" fill="#111111"/>
<text class="label" x="908" y="118">SuRF</text>
<line x1="886" y1="132" x2="902" y2="132" stroke="#111111" stroke-width="2"/>
<polygon points="894.0,128.0 898.0,135.0 890.0,135.0" fill="#111111"/>
<text class="label" x="908" y="136">SuRFHash(8)</text>
<line x1="886" y1="150" x2="902" y2="150" stroke="#111111" stroke-width="2"/>
<polygon points="894.0,146.0 898.0,150.0 894.0,154.0 890.0,150.0" fill="#111111"/>
<text class="label" x="908" y="154">SuRFReal(8)</text>
<line x1="886" y1="168" x2="902" y2="168" stroke="#2a7fff" stroke-width="2"/>
<rect x="891.0" y="165.0" width="6" height="6" fill="#2a7fff"/>
<text class="label" x="908" y="172">Adaptive (t=0)</text>
<line x1="886" y1="186" x2="902" y2="186" stroke="#9b59b6" stroke-width="2"/>
<polygon points="894.0,182.0 898.0,189.0 890.0,189.0" fill="#9b59b6"/>
<text class="label" x="908" y="190">Truncation</text>
<line x1="886" y1="204" x2="902" y2="204" stroke="#4dd88a" stroke-width="2"/>
<polygon points="894.0,200.0 898.0,204.0 894.0,208.0 890.0,204.0" fill="#4dd88a"/>
<text class="label" x="908" y="208">SODA</text>
<line x1="886" y1="222" x2="902" y2="222" stroke="#ff6b6b" stroke-width="2"/>
<polygon points="894.0,217.0 892.8,220.4 889.2,220.5 892.1,222.6 891.1,226.0 894.0,224.0 896.9,226.0 895.9,222.6 898.8,220.5 895.2,220.4" fill="#ff6b6b"/>
<text class="label" x="908" y="226">Hybrid</text>
<line x1="886" y1="240" x2="902" y2="240" stroke="#ff922b" stroke-width="2"/>
<circle cx="894.0" cy="240.0" r="3" fill="#ff922b"/>
<text class="label" x="908" y="244">CDF-ARE</text>
<line x1="886" y1="258" x2="902" y2="258" stroke="#888888" stroke-width="2" stroke-dasharray="8,5"/>
<circle cx="894.0" cy="258.0" r="3" fill="#888888"/>
<text class="label" x="908" y="262">BloomARE</text>
<text x="480" y="590" text-anchor="middle">Bits per Key (BPK)</text>
<text transform="translate(16,295) rotate(-90)" text-anchor="middle">False Positive Rate (FPR)</text>
</svg>
