<svg xmlns="http://www.w3.org/2000/svg" width="1020" height="600" viewBox="0 0 1020 600">
<style>text{font-family:Menlo,Monaco,monospace;font-size:12px;fill:#222} .axis{stroke:#333;stroke-width:1} .grid{stroke:#eee;stroke-width:0.5} .label{font-size:11px;fill:#444}</style>
<text x="510" y="28" text-anchor="middle" style="font-size:14px;font-weight:bold">FPR vs BPK — sosd_osm (60-bit keys, n=262144, L=16)</text>
<line class="axis" x1="90.0" y1="550.0" x2="870.0" y2="550.0"/>
<line class="axis" x1="90.0" y1="40.0" x2="90.0" y2="550.0"/>
<line class="grid" x1="90.0" y1="524.5" x2="870.0" y2="524.5"/>
<text class="label" x="82.0" y="528.5" text-anchor="end">10^-9</text>
<line class="grid" x1="90.0" y1="473.5" x2="870.0" y2="473.5"/>
<text class="label" x="82.0" y="477.5" text-anchor="end">10^-8</text>
<line class="grid" x1="90.0" y1="422.5" x2="870.0" y2="422.5"/>
<text class="label" x="82.0" y="426.5" text-anchor="end">10^-7</text>
<line class="grid" x1="90.0" y1="371.5" x2="870.0" y2="371.5"/>
<text class="label" x="82.0" y="375.5" text-anchor="end">10^-6</text>
<line class="grid" x1="90.0" y1="320.5" x2="870.0" y2="320.5"/>
<text class="label" x="82.0" y="324.5" text-anchor="end">10^-5</text>
<line class="grid" x1="90.0" y1="269.5" x2="870.0" y2="269.5"/>
<text class="label" x="82.0" y="273.5" text-anchor="end">10^-4</text>
<line class="grid" x1="90.0" y1="218.5" x2="870.0" y2="218.5"/>
<text class="label" x="82.0" y="222.5" text-anchor="end">10^-3</text>
<line class="grid" x1="90.0" y1="167.5" x2="870.0" y2="167.5"/>
<text class="label" x="82.0" y="171.5" text-anchor="end">10^-2</text>
<line class="grid" x1="90.0" y1="116.5" x2="870.0" y2="116.5"/>
<text class="label" x="82.0" y="120.5" text-anchor="end">10^-1</text>
<line class="grid" x1="90.0" y1="65.5" x2="870.0" y2="65.5"/>
<text class="label" x="82.0" y="69.5" text-anchor="end">1</text>
<line class="grid" x1="90.0" y1="40.0" x2="90.0" y2="550.0"/>
<text class="label" x="90.0" y="566.0" text-anchor="middle">0</text>
<line class="grid" x1="206.1" y1="40.0" x2="206.1" y2="550.0"/>
<text class="label" x="206.1" y="566.0" text-anchor="middle">5</text>
<line class="grid" x1="322.1" y1="40.0" x2="322.1" y2="550.0"/>
<text class="label" x="322.1" y="566.0" text-anchor="middle">10</text>
<line class="grid" x1="438.2" y1="40.0" x2="438.2" y2="550.0"/>
<text class="label" x="438.2" y="566.0" text-anchor="middle">15</text>
<line class="grid" x1="554.3" y1="40.0" x2="554.3" y2="550.0"/>
<text class="label" x="554.3" y="566.0" text-anchor="middle">20</text>
<line class="grid" x1="670.4" y1="40.0" x2="670.4" y2="550.0"/>
<text class="label" x="670.4" y="566.0" text-anchor="middle">25</text>
<line class="grid" x1="786.4" y1="40.0" x2="786.4" y2="550.0"/>
<text class="label" x="786.4" y="566.0" text-anchor="middle">30</text>
<polyline fill="none" stroke="#ef4444" stroke-width="2" stroke-dasharray="8,5" points="182.9,65.5 206.1,80.9 229.3,96.2 252.5,111.6 275.7,126.9 298.9,142.3 322.1,157.6 345.4,173.0 368.6,188.3 391.8,203.7 415.0,219.0 438.2,234.4 461.4,249.7 484.6,265.1 507.9,280.4 531.1,295.8 554.3,311.1 600.7,341.8 647.1,372.6 740.0,434.0 832.9,495.4"/>
<circle cx="182.9" cy="65.5" r="3" fill="#ef4444"/>
<circle cx="206.1" cy="80.9" r="3" fill="#ef4444"/>
<circle cx="229.3" cy="96.2" r="3" fill="#ef4444"/>
<circle cx="252.5" cy="111.6" r="3" fill="#ef4444"/>
<circle cx="275.7" cy="126.9" r="3" fill="#ef4444"/>
<circle cx="298.9" cy="142.3" r="3" fill="#ef4444"/>
<circle cx="322.1" cy="157.6" r="3" fill="#ef4444"/>
<circle cx="345.4" cy="173.0" r="3" fill="#ef4444"/>
<circle cx="368.6" cy="188.3" r="3" fill="#ef4444"/>
<circle cx="391.8" cy="203.7" r="3" fill="#ef4444"/>
<circle cx="415.0" cy="219.0" r="3" fill="#ef4444"/>
<circle cx="438.2" cy="234.4" r="3" fill="#ef4444"/>
<circle cx="461.4" cy="249.7" r="3" fill="#ef4444"/>
<circle cx="484.6" cy="265.1" r="3" fill="#ef4444"/>
<circle cx="507.9" cy="280.4" r="3" fill="#ef4444"/>
<circle cx="531.1" cy="295.8" r="3" fill="#ef4444"/>
<circle cx="554.3" cy="311.1" r="3" fill="#ef4444"/>
<circle cx="600.7" cy="341.8" r="3" fill="#ef4444"/>
<circle cx="647.1" cy="372.6" r="3" fill="#ef4444"/>
<circle cx="740.0" cy="434.0" r="3" fill="#ef4444"/>
<circle cx="832.9" cy="495.4" r="3" fill="#ef4444"/>
<polyline fill="none" stroke="#1a6b3c" stroke-width="2" points="181.3,65.9 236.7,75.6 289.2,98.9 336.1,127.5 383.1,158.1 429.8,188.6 476.2,219.4 522.6,250.0 576.3,279.5"/>
<polygon points="181.3,61.9 185.3,65.9 181.3,69.9 177.3,65.9" fill="#1a6b3c"/>
<polygon points="236.7,71.6 240.7,75.6 236.7,79.6 232.7,75.6" fill="#1a6b3c"/>
<polygon points="289.2,94.9 293.2,98.9 289.2,102.9 285.2,98.9" fill="#1a6b3c"/>
<polygon points="336.1,123.5 340.1,127.5 336.1,131.5 332.1,127.5" fill="#1a6b3c"/>
<polygon points="383.1,154.1 387.1,158.1 383.1,162.1 379.1,158.1" fill="#1a6b3c"/>
<polygon points="429.8,184.6 433.8,188.6 429.8,192.6 425.8,188.6" fill="#1a6b3c"/>
<polygon points="476.2,215.4 480.2,219.4 476.2,223.4 472.2,219.4" fill="#1a6b3c"/>
<polygon points="522.6,246.0 526.6,250.0 522.6,254.0 518.6,250.0" fill="#1a6b3c"/>
<polygon points="576.3,275.5 580.3,279.5 576.3,283.5 572.3,279.5" fill="#1a6b3c"/>
<polyline fill="none" stroke="#1a3a6b" stroke-width="2" points="168.3,153.3 214.5,171.6 261.2,189.8 307.8,208.8 354.0,227.5 400.2,247.4 446.9,270.8 493.5,294.9 539.7,320.1"/>
<polygon points="168.3,148.3 167.1,151.7 163.5,151.8 166.4,153.9 165.3,157.4 168.3,155.3 171.2,157.4 170.2,153.9 173.0,151.8 169.4,151.7" fill="#1a3a6b"/>
<polygon points="214.5,166.6 213.3,169.9 209.7,170.0 212.6,172.2 211.5,175.6 214.5,173.6 217.4,175.6 216.4,172.2 219.2,170.0 215.7,169.9" fill="#1a3a6b"/>
<polygon points="261.2,184.8 260.0,188.2 256.4,188.3 259.3,190.4 258.2,193.9 261.2,191.8 264.1,193.9 263.1,190.4 265.9,188.3 262.3,188.2" fill="#1a3a6b"/>
<polygon points="307.8,203.8 306.6,207.2 303.0,207.3 305.9,209.4 304.9,212.9 307.8,210.8 310.7,212.9 309.7,209.4 312.6,207.3 309.0,207.2" fill="#1a3a6b"/>
<polygon points="354.0,222.5 352.8,225.8 349.2,225.9 352.1,228.1 351.0,231.5 354.0,229.5 356.9,231.5 355.9,228.1 358.7,225.9 355.2,225.8" fill="#1a3a6b"/>
<polygon points="400.2,242.4 399.0,245.8 395.4,245.9 398.3,248.0 397.3,251.5 400.2,249.4 403.1,251.5 402.1,248.0 405.0,245.9 401.4,245.8" fill="#1a3a6b"/>
<polygon points="446.9,265.8 445.7,269.2 442.1,269.3 445.0,271.5 443.9,274.9 446.9,272.8 449.8,274.9 448.8,271.5 451.6,269.3 448.0,269.2" fill="#1a3a6b"/>
<polygon points="493.5,289.9 492.3,293.3 488.8,293.3 491.6,295.5 490.6,298.9 493.5,296.9 496.5,298.9 495.4,295.5 498.3,293.3 494.7,293.3" fill="#1a3a6b"/>
<polygon points="539.7,315.1 538.5,318.5 534.9,318.6 537.8,320.7 536.8,324.2 539.7,322.1 542.6,324.2 541.6,320.7 544.5,318.6 540.9,318.5" fill="#1a3a6b"/>
<polyline fill="none" stroke="#111111" stroke-width="2" points="366.8,100.3"/>
<rect x="363.8" y="97.3" width="6" height="6" fill="#111111"/>
<polyline fill="none" stroke="#111111" stroke-width="2" points="552.5,100.3"/>
<polygon points="552.5,96.3 556.5,103.3 548.5,103.3" fill="#111111"/>
<polyline fill="none" stroke="#111111" stroke-width="2" points="552.5,222.9"/>
<polygon points="552.5,218.9 556.5,222.9 552.5,226.9 548.5,222.9" fill="#111111"/>
<polyline fill="none" stroke="#2a7fff" stroke-width="2" points="90.0,65.5 90.0,65.5 90.0,65.5 90.0,65.5 90.0,65.5 90.1,65.5 90.2,65.5 90.4,65.5 90.7,65.5 91.5,65.5 92.9,65.5 95.8,65.5 101.6,65.5 112.9,65.5 131.7,65.5 157.3,65.5 186.4,65.9 244.2,75.6 296.1,98.9 391.5,157.8 484.6,219.4"/>
<rect x="87.0" y="62.5" width="6" height="6" fill="#2a7fff"/>
<rect x="87.0" y="62.5" width="6" height="6" fill="#2a7fff"/>
<rect x="87.0" y="62.5" width="6" height="6" fill="#2a7fff"/>
<rect x="87.0" y="62.5" width="6" height="6" fill="#2a7fff"/>
<rect x="87.0" y="62.5" width="6" height="6" fill="#2a7fff"/>
<rect x="87.1" y="62.5" width="6" height="6" fill="#2a7fff"/>
<rect x="87.2" y="62.5" width="6" height="6" fill="#2a7fff"/>
<rect x="87.4" y="62.5" width="6" height="6" fill="#2a7fff"/>
<rect x="87.7" y="62.5" width="6" height="6" fill="#2a7fff"/>
<rect x="88.5" y="62.5" width="6" height="6" fill="#2a7fff"/>
<rect x="89.9" y="62.5" width="6" height="6" fill="#2a7fff"/>
<rect x="92.8" y="62.5" width="6" height="6" fill="#2a7fff"/>
<rect x="98.6" y="62.5" width="6" height="6" fill="#2a7fff"/>
<rect x="109.9" y="62.5" width="6" height="6" fill="#2a7fff"/>
<rect x="128.7" y="62.5" width="6" height="6" fill="#2a7fff"/>
<rect x="154.3" y="62.5" width="6" height="6" fill="#2a7fff"/>
<rect x="183.4" y="62.9" width="6" height="6" fill="#2a7fff"/>
<rect x="241.2" y="72.6" width="6" height="6" fill="#2a7fff"/>
<rect x="293.1" y="95.9" width="6" height="6" fill="#2a7fff"/>
<rect x="388.5" y="154.8" width="6" height="6" fill="#2a7fff"/>
<rect x="481.6" y="216.4" width="6" height="6" fill="#2a7fff"/>
<polyline fill="none" stroke="#9b59b6" stroke-width="2" points="90.0,65.5 90.0,68.2 90.0,74.7 90.0,83.2 90.0,91.1 90.0,99.8 90.1,106.8 90.1,112.9 90.1,117.2 90.2,120.7 90.5,122.8 90.8,124.9 91.5,127.6 92.7,130.6 94.7,134.5 98.0,138.7 102.9,144.6 123.4,156.1 167.7,169.9 324.6,211.9 471.0,268.6"/>
<polygon points="90.0,61.5 94.0,68.5 86.0,68.5" fill="#9b59b6"/>
<polygon points="90.0,64.2 94.0,71.2 86.0,71.2" fill="#9b59b6"/>
<polygon points="90.0,70.7 94.0,77.7 86.0,77.7" fill="#9b59b6"/>
<polygon points="90.0,79.2 94.0,86.2 86.0,86.2" fill="#9b59b6"/>
<polygon points="90.0,87.1 94.0,94.1 86.0,94.1" fill="#9b59b6"/>
<polygon points="90.0,95.8 94.0,102.8 86.0,102.8" fill="#9b59b6"/>
<polygon points="90.1,102.8 94.1,109.8 86.1,109.8" fill="#9b59b6"/>
<polygon points="90.1,108.9 94.1,115.9 86.1,115.9" fill="#9b59b6"/>
<polygon points="90.1,113.2 94.1,120.2 86.1,120.2" fill="#9b59b6"/>
<polygon points="90.2,116.7 94.2,123.7 86.2,123.7" fill="#9b59b6"/>
<polygon points="90.5,118.8 94.5,125.8 86.5,125.8" fill="#9b59b6"/>
<polygon points="90.8,120.9 94.8,127.9 86.8,127.9" fill="#9b59b6"/>
<polygon points="91.5,123.6 95.5,130.6 87.5,130.6" fill="#9b59b6"/>
<polygon points="92.7,126.6 96.7,133.6 88.7,133.6" fill="#9b59b6"/>
<polygon points="94.7,130.5 98.7,137.5 90.7,137.5" fill="#9b59b6"/>
<polygon points="98.0,134.7 102.0,141.7 94.0,141.7" fill="#9b59b6"/>
<polygon points="102.9,140.6 106.9,147.6 98.9,147.6" fill="#9b59b6"/>
<polygon points="123.4,152.1 127.4,159.1 119.4,159.1" fill="#9b59b6"/>
<polygon points="167.7,165.9 171.7,172.9 163.7,172.9" fill="#9b59b6"/>
<polygon points="324.6,207.9 328.6,214.9 320.6,214.9" fill="#9b59b6"/>
<polygon points="471.0,264.6 475.0,271.6 467.0,271.6" fill="#9b59b6"/>
<polyline fill="none" stroke="#4dd88a" stroke-width="2" points="90.0,65.5 90.0,65.5 90.0,65.5 90.0,65.5 90.0,65.5 90.1,65.5 90.2,65.5 90.4,65.5 90.7,65.5 91.5,65.5 92.9,65.5 95.8,65.5 101.6,65.5 112.9,65.5 131.7,65.5 157.3,65.5 186.4,65.9 244.2,75.6 296.1,98.9 391.5,157.8 484.6,219.4"/>
<polygon points="90.0,61.5 94.0,65.5 90.0,69.5 86.0,65.5" fill="#4dd88a"/>
<polygon points="90.0,61.5 94.0,65.5 90.0,69.5 86.0,65.5" fill="#4dd88a"/>
<polygon points="90.0,61.5 94.0,65.5 90.0,69.5 86.0,65.5" fill="#4dd88a"/>
<polygon points="90.0,61.5 94.0,65.5 90.0,69.5 86.0,65.5" fill="#4dd88a"/>
<polygon points="90.0,61.5 94.0,65.5 90.0,69.5 86.0,65.5" fill="#4dd88a"/>
<polygon points="90.1,61.5 94.1,65.5 90.1,69.5 86.1,65.5" fill="#4dd88a"/>
<polygon points="90.2,61.5 94.2,65.5 90.2,69.5 86.2,65.5" fill="#4dd88a"/>
<polygon points="90.4,61.5 94.4,65.5 90.4,69.5 86.4,65.5" fill="#4dd88a"/>
<polygon points="90.7,61.5 94.7,65.5 90.7,69.5 86.7,65.5" fill="#4dd88a"/>
<polygon points="91.5,61.5 95.5,65.5 91.5,69.5 87.5,65.5" fill="#4dd88a"/>
<polygon points="92.9,61.5 96.9,65.5 92.9,69.5 88.9,65.5" fill="#4dd88a"/>
<polygon points="95.8,61.5 99.8,65.5 95.8,69.5 91.8,65.5" fill="#4dd88a"/>
<polygon points="101.6,61.5 105.6,65.5 101.6,69.5 97.6,65.5" fill="#4dd88a"/>
<polygon points="112.9,61.5 116.9,65.5 112.9,69.5 108.9,65.5" fill="#4dd88a"/>
<polygon points="131.7,61.5 135.7,65.5 131.7,69.5 127.7,65.5" fill="#4dd88a"/>
<polygon points="157.3,61.5 161.3,65.5 157.3,69.5 153.3,65.5" fill="#4dd88a"/>
<polygon points="186.4,61.9 190.4,65.9 186.4,69.9 182.4,65.9" fill="#4dd88a"/>
<polygon points="244.2,71.6 248.2,75.6 244.2,79.6 240.2,75.6" fill="#4dd88a"/>
<polygon points="296.1,94.9 300.1,98.9 296.1,102.9 292.1,98.9" fill="#4dd88a"/>
<polygon points="391.5,153.8 395.5,157.8 391.5,161.8 387.5,157.8" fill="#4dd88a"/>
<polygon points="484.6,215.4 488.6,219.4 484.6,223.4 480.6,219.4" fill="#4dd88a"/>
<polyline fill="none" stroke="#ff6b6b" stroke-width="2" points="90.1,65.5 90.2,68.2 90.2,74.7 90.3,83.2 90.5,91.1 91.0,99.8 91.8,106.8 93.4,112.9 96.2,117.2 100.3,120.7 105.4,122.8 110.7,124.9 116.2,127.7 122.0,130.7 128.3,134.8 135.8,139.1 144.6,145.3 172.2,157.2 220.6,171.8 369.6,215.3 502.1,271.8"/>
<polygon points="90.1,60.5 89.0,63.9 85.4,64.0 88.2,66.1 87.2,69.5 90.1,67.5 93.1,69.5 92.0,66.1 94.9,64.0 91.3,63.9" fill="#ff6b6b"/>
<polygon points="90.2,63.2 89.0,66.5 85.4,66.6 88.3,68.8 87.2,72.2 90.2,70.2 93.1,72.2 92.1,68.8 94.9,66.6 91.3,66.5" fill="#ff6b6b"/>
<polygon points="90.2,69.7 89.0,73.1 85.5,73.1 88.3,75.3 87.3,78.7 90.2,76.7 93.2,78.7 92.1,75.3 95.0,73.1 91.4,73.1" fill="#ff6b6b"/>
<polygon points="90.3,78.2 89.1,81.6 85.6,81.7 88.4,83.8 87.4,87.3 90.3,85.2 93.3,87.3 92.2,83.8 95.1,81.7 91.5,81.6" fill="#ff6b6b"/>
<polygon points="90.5,86.1 89.4,89.5 85.8,89.5 88.6,91.7 87.6,95.1 90.5,93.1 93.5,95.1 92.4,91.7 95.3,89.5 91.7,89.5" fill="#ff6b6b"/>
<polygon points="91.0,94.8 89.8,98.2 86.2,98.2 89.0,100.4 88.0,103.8 91.0,101.8 93.9,103.8 92.9,100.4 95.7,98.2 92.1,98.2" fill="#ff6b6b"/>
<polygon points="91.8,101.8 90.6,105.2 87.0,105.3 89.9,107.4 88.8,110.8 91.8,108.8 94.7,110.8 93.7,107.4 96.5,105.3 93.0,105.2" fill="#ff6b6b"/>
<polygon points="93.4,107.9 92.2,111.3 88.6,111.3 91.5,113.5 90.5,116.9 93.4,114.9 96.3,116.9 95.3,113.5 98.2,111.3 94.6,111.3" fill="#ff6b6b"/>
<polygon points="96.2,112.2 95.0,115.6 91.4,115.7 94.3,117.8 93.3,121.2 96.2,119.2 99.1,121.2 98.1,117.8 101.0,115.7 97.4,115.6" fill="#ff6b6b"/>
<polygon points="100.3,115.7 99.1,119.0 95.5,119.1 98.4,121.3 97.3,124.7 100.3,122.7 103.2,124.7 102.2,121.3 105.0,119.1 101.5,119.0" fill="#ff6b6b"/>
<polygon points="105.4,117.8 104.2,121.2 100.6,121.2 103.5,123.4 102.4,126.8 105.4,124.8 108.3,126.8 107.3,123.4 110.1,121.2 106.5,121.2" fill="#ff6b6b"/>
<polygon points="110.7,119.9 109.5,123.3 105.9,123.3 108.8,125.5 107.7,128.9 110.7,126.9 113.6,128.9 112.6,125.5 115.4,123.3 111.9,123.3" fill="#ff6b6b"/>
<polygon points="116.2,122.7 115.0,126.1 111.4,126.2 114.3,128.3 113.2,131.8 116.2,129.7 119.1,131.8 118.1,128.3 120.9,126.2 117.3,126.1" fill="#ff6b6b"/>
<polygon points="122.0,125.7 120.8,129.1 117.2,129.2 120.1,131.3 119.0,134.8 122.0,132.7 124.9,134.8 123.9,131.3 126.7,129.2 123.1,129.1" fill="#ff6b6b"/>
<polygon points="128.3,129.8 127.1,133.1 123.5,133.2 126.4,135.4 125.4,138.8 128.3,136.8 131.2,138.8 130.2,135.4 133.1,133.2 129.5,133.1" fill="#ff6b6b"/>
<polygon points="135.8,134.1 134.6,137.5 131.1,137.5 133.9,139.7 132.9,143.1 135.8,141.1 138.8,143.1 137.7,139.7 140.6,137.5 137.0,137.5" fill="#ff6b6b"/>
<polygon points="144.6,140.3 143.5,143.6 139.9,143.7 142.7,145.9 141.7,149.3 144.6,147.3 147.6,149.3 146.5,145.9 149.4,143.7 145.8,143.6" fill="#ff6b6b"/>
<polygon points="172.2,152.2 171.0,155.5 167.4,155.6 170.3,157.8 169.3,161.2 172.2,159.2 175.1,161.2 174.1,157.8 176.9,155.6 173.4,155.5" fill="#ff6b6b"/>
<polygon points="220.6,166.8 219.4,170.2 215.8,170.2 218.7,172.4 217.6,175.8 220.6,173.8 223.5,175.8 222.5,172.4 225.3,170.2 221.7,170.2" fill="#ff6b6b"/>
<polygon points="369.6,210.3 368.4,213.7 364.8,213.8 367.7,215.9 366.7,219.4 369.6,217.3 372.5,219.4 371.5,215.9 374.4,213.8 370.8,213.7" fill="#ff6b6b"/>
<polygon points="502.1,266.8 500.9,270.1 497.3,270.2 500.2,272.4 499.2,275.8 502.1,273.8 505.0,275.8 504.0,272.4 506.9,270.2 503.3,270.1" fill="#ff6b6b"/>
<polyline fill="none" stroke="#ff922b" stroke-width="2" points="265.5,124.5 295.6,137.5 325.9,151.4 355.1,165.8 383.2,179.2 409.8,193.0 435.2,207.7 459.7,223.1 507.3,251.9 530.7,267.5"/>
<circle cx="265.5" cy="124.5" r="3" fill="#ff922b"/>
<circle cx="295.6" cy="137.5" r="3" fill="#ff922b"/>
<circle cx="325.9" cy="151.4" r="3" fill="#ff922b"/>
<circle cx="355.1" cy="165.8" r="3" fill="#ff922b"/>
<circle cx="383.2" cy="179.2" r="3" fill="#ff922b"/>
<circle cx="409.8" cy="193.0" r="3" fill="#ff922b"/>
<circle cx="435.2" cy="207.7" r="3" fill="#ff922b"/>
<circle cx="459.7" cy="223.1" r="3" fill="#ff922b"/>
<circle cx="507.3" cy="251.9" r="3" fill="#ff922b"/>
<circle cx="530.7" cy="267.5" r="3" fill="#ff922b"/>
<polyline fill="none" stroke="#888888" stroke-width="2" stroke-dasharray="8,5" points="332.9,116.0 367.6,131.5 412.5,152.3 446.2,167.4 479.9,183.3 524.2,202.4 557.7,218.1 591.2,232.6 635.5,253.1 669.0,269.7"/>
<circle cx="332.9" cy="116.0" r="3" fill="#888888"/>
<circle cx="367.6" cy="131.5" r="3" fill="#888888"/>
<circle cx="412.5" cy="152.3" r="3" fill="#888888"/>
<circle cx="446.2" cy="167.4" r="3" fill="#888888"/>
<circle cx="479.9" cy="183.3" r="3" fill="#888888"/>
<circle cx="524.2" cy="202.4" r="3" fill="#888888"/>
<circle cx="557.7" cy="218.1" r="3" fill="#888888"/>
<circle cx="591.2" cy="232.6" r="3" fill="#888888"/>
<circle cx="635.5" cy="253.1" r="3" fill="#888888"/>
<circle cx="669.0" cy="269.7" r="3" fill="#888888"/>
<line x1="886" y1="60" x2="902" y2="60" stroke="#ef4444" stroke-width="2" stroke-dasharray="8,5"/>
<circle cx="894.0" cy="60.0" r="3" fill="#ef4444"/>
<text class="label" x="908" y="64">Theoretical</text>
<line x1="886" y1="78" x2="902" y2="78" stroke="#1a6b3c" stroke-width="2"/>
<polygon points="894.0,74.0 898.0,78.0 894.0,82.0 890.0,78.0" fill="#1a6b3c"/>
<text class="label" x="908" y="82">Grafite</text>
<line x1="886" y1="96" x2="902" y2="96" stroke="#1a3a6b" stroke-width="2"/>
<polygon points="894.0,91.0 892.8,94.4 889.2,94.5 892.1,96.6 891.1,100.0 894.0,98.0 896.9,100.0 895.9,96.6 898.8,94.5 895.2,94.4" fill="#1a3a6b"/>
<text class="label" x="908" y="100">SNARF</text>
<line x1="886" y1="114" x2="902" y2="114" stroke="#111111" stroke-width="2"/>
<rect x="891.0" y="111.0" width="6" height="6" fill="#111111"/>
<text class="label" x="908" y="118">SuRF</text>
<line x1="886" y1="132" x2="902" y2="132" stroke="#111111" stroke-width="2"/>
<polygon points="894.0,128.0 898.0,135.0 890.0,135.0" fill="#111111"/>
<text class="label" x="908" y="136">SuRFHash(8)</text>
<line x1="886" y1="150" x2="902" y2="150" stroke="#111111" stroke-width="2"/>
<polygon points="894.0,146.0 898.0,150.0 894.0,154.0 890.0,150.0" fill="#111111"/>
<text class="label" x="908" y="154">SuRFReal(8)</text>
<line x1="886" y1="168" x2="902" y2="168" stroke="#2a7fff" stroke-width="2"/>
<rect x="891.0" y="165.0" width="6" height="6" fill="#2a7fff"/>
<text class="label" x="908" y="172">Adaptive (t=0)</text>
<line x1="886" y1="186" x2="902" y2="186" stroke="#9b59b6" stroke-width="2"/>
<polygon points="894.0,182.0 898.0,189.0 890.0,189.0" fill="#9b59b6"/>
<text class="label" x="908" y="190">Truncation</text>
<line x1="886" y1="204" x2="902" y2="204" stroke="#4dd88a" stroke-width="2"/>
<polygon points="894.0,200.0 898.0,204.0 894.0,208.0 890.0,204.0" fill="#4dd88a"/>
<text class="label" x="908" y="208">SODA</text>
<line x1="886" y1="222" x2="902" y2="222" stroke="#ff6b6b" stroke-width="2"/>
<polygon points="894.0,217.0 892.8,220.4 889.2,220.5 892.1,222.6 891.1,226.0 894.0,224.0 896.9,226.0 895.9,222.6 898.8,220.5 895.2,220.4" fill="#ff6b6b"/>
<text class="label" x="908" y="226">Hybrid</text>
<line x1="886" y1="240" x2="902" y2="240" stroke="#ff922b" stroke-width="2"/>
<circle cx="894.0" cy="240.0" r="3" fill="#ff922b"/>
<text class="label" x="908" y="244">CDF-ARE</text>
<line x1="886" y1="258" x2="902" y2="258" stroke="#888888" stroke-width="2" stroke-dasharray="8,5"/>
<circle cx="894.0" cy="258.0" r="3" fill="#888888"/>
<text class="label" x="908" y="262">BloomARE</text>
<text x="480" y="590" text-anchor="middle">Bits per Key (BPK)</text>
<text transform="translate(16,295) rotate(-90)" text-anchor="middle">False Positive Rate (FPR)</text>
</svg>
