<svg xmlns="http://www.w3.org/2000/svg" width="1020" height="600" viewBox="0 0 1020 600">
<style>text{font-family:Menlo,Monaco,monospace;font-size:12px;fill:#222} .axis{stroke:#333;stroke-width:1} .grid{stroke:#eee;stroke-width:0.5} .label{font-size:11px;fill:#444}</style>
<text x="510" y="28" text-anchor="middle" style="font-size:14px;font-weight:bold">FPR vs BPK — sosd_fb (60-bit keys, n=262144, L=1)</text>
<line class="axis" x1="90.0" y1="550.0" x2="870.0" y2="550.0"/>
<line class="axis" x1="90.0" y1="40.0" x2="90.0" y2="550.0"/>
<line class="grid" x1="90.0" y1="521.7" x2="870.0" y2="521.7"/>
<text class="label" x="82.0" y="525.7" text-anchor="end">10^-8</text>
<line class="grid" x1="90.0" y1="465.0" x2="870.0" y2="465.0"/>
<text class="label" x="82.0" y="469.0" text-anchor="end">10^-7</text>
<line class="grid" x1="90.0" y1="408.3" x2="870.0" y2="408.3"/>
<text class="label" x="82.0" y="412.3" text-anchor="end">10^-6</text>
<line class="grid" x1="90.0" y1="351.7" x2="870.0" y2="351.7"/>
<text class="label" x="82.0" y="355.7" text-anchor="end">10^-5</text>
<line class="grid" x1="90.0" y1="295.0" x2="870.0" y2="295.0"/>
<text class="label" x="82.0" y="299.0" text-anchor="end">10^-4</text>
<line class="grid" x1="90.0" y1="238.3" x2="870.0" y2="238.3"/>
<text class="label" x="82.0" y="242.3" text-anchor="end">10^-3</text>
<line class="grid" x1="90.0" y1="181.7" x2="870.0" y2="181.7"/>
<text class="label" x="82.0" y="185.7" text-anchor="end">10^-2</text>
<line class="grid" x1="90.0" y1="125.0" x2="870.0" y2="125.0"/>
<text class="label" x="82.0" y="129.0" text-anchor="end">10^-1</text>
<line class="grid" x1="90.0" y1="68.3" x2="870.0" y2="68.3"/>
<text class="label" x="82.0" y="72.3" text-anchor="end">1</text>
<line class="grid" x1="90.0" y1="40.0" x2="90.0" y2="550.0"/>
<text class="label" x="90.0" y="566.0" text-anchor="middle">0</text>
<line class="grid" x1="206.1" y1="40.0" x2="206.1" y2="550.0"/>
<text class="label" x="206.1" y="566.0" text-anchor="middle">5</text>
<line class="grid" x1="322.1" y1="40.0" x2="322.1" y2="550.0"/>
<text class="label" x="322.1" y="566.0" text-anchor="middle">10</text>
<line class="grid" x1="438.2" y1="40.0" x2="438.2" y2="550.0"/>
<text class="label" x="438.2" y="566.0" text-anchor="middle">15</text>
<line class="grid" x1="554.3" y1="40.0" x2="554.3" y2="550.0"/>
<text class="label" x="554.3" y="566.0" text-anchor="middle">20</text>
<line class="grid" x1="670.4" y1="40.0" x2="670.4" y2="550.0"/>
<text class="label" x="670.4" y="566.0" text-anchor="middle">25</text>
<line class="grid" x1="786.4" y1="40.0" x2="786.4" y2="550.0"/>
<text class="label" x="786.4" y="566.0" text-anchor="middle">30</text>
<polyline fill="none" stroke="#ef4444" stroke-width="2" stroke-dasharray="8,5" points="182.9,136.6 206.1,153.6 229.3,170.7 252.5,187.7 275.7,204.8 298.9,221.9 322.1,238.9 345.4,256.0 368.6,273.0 391.8,290.1 415.0,307.2 438.2,324.2 461.4,341.3 484.6,358.3 507.9,375.4 531.1,392.4 554.3,409.5 600.7,443.6 647.1,477.7 740.0,546.0 832.9,614.2"/>
<circle cx="182.9" cy="136.6" r="3" fill="#ef4444"/>
<circle cx="206.1" cy="153.6" r="3" fill="#ef4444"/>
<circle cx="229.3" cy="170.7" r="3" fill="#ef4444"/>
<circle cx="252.5" cy="187.7" r="3" fill="#ef4444"/>
<circle cx="275.7" cy="204.8" r="3" fill="#ef4444"/>
<circle cx="298.9" cy="221.9" r="3" fill="#ef4444"/>
<circle cx="322.1" cy="238.9" r="3" fill="#ef4444"/>
<circle cx="345.4" cy="256.0" r="3" fill="#ef4444"/>
<circle cx="368.6" cy="273.0" r="3" fill="#ef4444"/>
<circle cx="391.8" cy="290.1" r="3" fill="#ef4444"/>
<circle cx="415.0" cy="307.2" r="3" fill="#ef4444"/>
<circle cx="438.2" cy="324.2" r="3" fill="#ef4444"/>
<circle cx="461.4" cy="341.3" r="3" fill="#ef4444"/>
<circle cx="484.6" cy="358.3" r="3" fill="#ef4444"/>
<circle cx="507.9" cy="375.4" r="3" fill="#ef4444"/>
<circle cx="531.1" cy="392.4" r="3" fill="#ef4444"/>
<circle cx="554.3" cy="409.5" r="3" fill="#ef4444"/>
<circle cx="600.7" cy="443.6" r="3" fill="#ef4444"/>
<circle cx="647.1" cy="477.7" r="3" fill="#ef4444"/>
<circle cx="740.0" cy="546.0" r="3" fill="#ef4444"/>
<circle cx="832.9" cy="614.2" r="3" fill="#ef4444"/>
<polyline fill="none" stroke="#1a6b3c" stroke-width="2" points="189.0,105.6 240.6,138.5 289.5,175.3 336.8,227.8"/>
<polygon points="189.0,101.6 193.0,105.6 189.0,109.6 185.0,105.6" fill="#1a6b3c"/>
<polygon points="240.6,134.5 244.6,138.5 240.6,142.5 236.6,138.5" fill="#1a6b3c"/>
<polygon points="289.5,171.3 293.5,175.3 289.5,179.3 285.5,175.3" fill="#1a6b3c"/>
<polygon points="336.8,223.8 340.8,227.8 336.8,231.8 332.8,227.8" fill="#1a6b3c"/>
<polyline fill="none" stroke="#1a3a6b" stroke-width="2" points="168.3,108.4 214.5,132.6 261.1,161.7 307.8,199.0 354.0,286.3 400.2,328.0 446.9,360.4 493.5,409.4 539.7,436.5"/>
<polygon points="168.3,103.4 167.1,106.8 163.5,106.9 166.4,109.1 165.3,112.5 168.3,110.4 171.2,112.5 170.2,109.1 173.0,106.9 169.5,106.8" fill="#1a3a6b"/>
<polygon points="214.5,127.6 213.3,131.0 209.7,131.0 212.6,133.2 211.5,136.6 214.5,134.6 217.4,136.6 216.4,133.2 219.2,131.0 215.7,131.0" fill="#1a3a6b"/>
<polygon points="261.1,156.7 260.0,160.1 256.4,160.2 259.2,162.3 258.2,165.8 261.1,163.7 264.1,165.8 263.0,162.3 265.9,160.2 262.3,160.1" fill="#1a3a6b"/>
<polygon points="307.8,194.0 306.6,197.3 303.0,197.4 305.9,199.6 304.9,203.0 307.8,201.0 310.7,203.0 309.7,199.6 312.6,197.4 309.0,197.3" fill="#1a3a6b"/>
<polygon points="354.0,281.3 352.8,284.7 349.2,284.7 352.1,286.9 351.1,290.3 354.0,288.3 356.9,290.3 355.9,286.9 358.8,284.7 355.2,284.7" fill="#1a3a6b"/>
<polygon points="400.2,323.0 399.0,326.4 395.4,326.5 398.3,328.6 397.3,332.1 400.2,330.0 403.1,332.1 402.1,328.6 404.9,326.5 401.4,326.4" fill="#1a3a6b"/>
<polygon points="446.9,355.4 445.7,358.8 442.1,358.9 444.9,361.0 443.9,364.4 446.9,362.4 449.8,364.4 448.8,361.0 451.6,358.9 448.0,358.8" fill="#1a3a6b"/>
<polygon points="493.5,404.4 492.3,407.8 488.8,407.9 491.6,410.0 490.6,413.5 493.5,411.4 496.5,413.5 495.4,410.0 498.3,407.9 494.7,407.8" fill="#1a3a6b"/>
<polygon points="539.7,431.5 538.5,434.9 535.0,434.9 537.8,437.1 536.8,440.5 539.7,438.5 542.7,440.5 541.6,437.1 544.5,434.9 540.9,434.9" fill="#1a3a6b"/>
<polyline fill="none" stroke="#111111" stroke-width="2" points="350.7,115.9"/>
<rect x="347.7" y="112.9" width="6" height="6" fill="#111111"/>
<polyline fill="none" stroke="#111111" stroke-width="2" points="536.4,115.9"/>
<polygon points="536.4,111.9 540.4,118.9 532.4,118.9" fill="#111111"/>
<polyline fill="none" stroke="#111111" stroke-width="2" points="536.4,314.0"/>
<polygon points="536.4,310.0 540.4,314.0 536.4,318.0 532.4,314.0" fill="#111111"/>
<polyline fill="none" stroke="#2a7fff" stroke-width="2" points="90.0,68.3 90.0,68.3 90.0,68.3 90.0,68.3 90.1,68.3 90.1,68.3 90.3,68.3 90.5,68.3 91.1,68.3 92.2,68.3 94.4,68.3 98.7,68.3 107.2,68.8 121.7,72.0 142.5,79.7 167.9,91.5 195.4,105.7 248.4,138.5 297.8,175.7 368.6,521.7 368.6,521.7"/>
<rect x="87.0" y="65.3" width="6" height="6" fill="#2a7fff"/>
<rect x="87.0" y="65.3" width="6" height="6" fill="#2a7fff"/>
<rect x="87.0" y="65.3" width="6" height="6" fill="#2a7fff"/>
<rect x="87.0" y="65.3" width="6" height="6" fill="#2a7fff"/>
<rect x="87.1" y="65.3" width="6" height="6" fill="#2a7fff"/>
<rect x="87.1" y="65.3" width="6" height="6" fill="#2a7fff"/>
<rect x="87.3" y="65.3" width="6" height="6" fill="#2a7fff"/>
<rect x="87.5" y="65.3" width="6" height="6" fill="#2a7fff"/>
<rect x="88.1" y="65.3" width="6" height="6" fill="#2a7fff"/>
<rect x="89.2" y="65.3" width="6" height="6" fill="#2a7fff"/>
<rect x="91.4" y="65.3" width="6" height="6" fill="#2a7fff"/>
<rect x="95.7" y="65.3" width="6" height="6" fill="#2a7fff"/>
<rect x="104.2" y="65.8" width="6" height="6" fill="#2a7fff"/>
<rect x="118.7" y="69.0" width="6" height="6" fill="#2a7fff"/>
<rect x="139.5" y="76.7" width="6" height="6" fill="#2a7fff"/>
<rect x="164.9" y="88.5" width="6" height="6" fill="#2a7fff"/>
<rect x="192.4" y="102.7" width="6" height="6" fill="#2a7fff"/>
<rect x="245.4" y="135.5" width="6" height="6" fill="#2a7fff"/>
<rect x="294.8" y="172.7" width="6" height="6" fill="#2a7fff"/>
<rect x="365.6" y="518.7" width="6" height="6" fill="#2a7fff"/>
<rect x="365.6" y="518.7" width="6" height="6" fill="#2a7fff"/>
<polyline fill="none" stroke="#9b59b6" stroke-width="2" points="90.0,68.3 90.0,68.3 90.0,68.3 90.0,68.3 90.1,68.3 90.1,68.3 90.2,68.3 90.4,68.4 90.9,68.8 91.7,70.0 93.2,72.1 95.9,75.5 100.3,80.6 107.1,87.2 117.6,95.3 131.3,104.8 149.9,115.5 199.7,140.7 263.9,171.0 391.8,521.7 484.6,521.7"/>
<polygon points="90.0,64.3 94.0,71.3 86.0,71.3" fill="#9b59b6"/>
<polygon points="90.0,64.3 94.0,71.3 86.0,71.3" fill="#9b59b6"/>
<polygon points="90.0,64.3 94.0,71.3 86.0,71.3" fill="#9b59b6"/>
<polygon points="90.0,64.3 94.0,71.3 86.0,71.3" fill="#9b59b6"/>
<polygon points="90.1,64.3 94.1,71.3 86.1,71.3" fill="#9b59b6"/>
<polygon points="90.1,64.3 94.1,71.3 86.1,71.3" fill="#9b59b6"/>
<polygon points="90.2,64.3 94.2,71.3 86.2,71.3" fill="#9b59b6"/>
<polygon points="90.4,64.4 94.4,71.4 86.4,71.4" fill="#9b59b6"/>
<polygon points="90.9,64.8 94.9,71.8 86.9,71.8" fill="#9b59b6"/>
<polygon points="91.7,66.0 95.7,73.0 87.7,73.0" fill="#9b59b6"/>
<polygon points="93.2,68.1 97.2,75.1 89.2,75.1" fill="#9b59b6"/>
<polygon points="95.9,71.5 99.9,78.5 91.9,78.5" fill="#9b59b6"/>
<polygon points="100.3,76.6 104.3,83.6 96.3,83.6" fill="#9b59b6"/>
<polygon points="107.1,83.2 111.1,90.2 103.1,90.2" fill="#9b59b6"/>
<polygon points="117.6,91.3 121.6,98.3 113.6,98.3" fill="#9b59b6"/>
<polygon points="131.3,100.8 135.3,107.8 127.3,107.8" fill="#9b59b6"/>
<polygon points="149.9,111.5 153.9,118.5 145.9,118.5" fill="#9b59b6"/>
<polygon points="199.7,136.7 203.7,143.7 195.7,143.7" fill="#9b59b6"/>
<polygon points="263.9,167.0 267.9,174.0 259.9,174.0" fill="#9b59b6"/>
<polygon points="391.8,517.7 395.8,524.7 387.8,524.7" fill="#9b59b6"/>
<polygon points="484.6,517.7 488.6,524.7 480.6,524.7" fill="#9b59b6"/>
<polyline fill="none" stroke="#4dd88a" stroke-width="2" points="90.0,68.3 90.0,68.3 90.0,68.3 90.0,68.3 90.1,68.3 90.1,68.3 90.3,68.3 90.5,68.3 91.1,68.3 92.2,68.3 94.4,68.3 98.7,68.3 107.2,68.8 121.7,72.0 142.5,79.7 167.9,91.5 195.4,105.7 248.4,138.5 297.8,175.7 391.8,521.7 484.6,521.7"/>
<polygon points="90.0,64.3 94.0,68.3 90.0,72.3 86.0,68.3" fill="#4dd88a"/>
<polygon points="90.0,64.3 94.0,68.3 90.0,72.3 86.0,68.3" fill="#4dd88a"/>
<polygon points="90.0,64.3 94.0,68.3 90.0,72.3 86.0,68.3" fill="#4dd88a"/>
<polygon points="90.0,64.3 94.0,68.3 90.0,72.3 86.0,68.3" fill="#4dd88a"/>
<polygon points="90.1,64.3 94.1,68.3 90.1,72.3 86.1,68.3" fill="#4dd88a"/>
<polygon points="90.1,64.3 94.1,68.3 90.1,72.3 86.1,68.3" fill="#4dd88a"/>
<polygon points="90.3,64.3 94.3,68.3 90.3,72.3 86.3,68.3" fill="#4dd88a"/>
<polygon points="90.5,64.3 94.5,68.3 90.5,72.3 86.5,68.3" fill="#4dd88a"/>
<polygon points="91.1,64.3 95.1,68.3 91.1,72.3 87.1,68.3" fill="#4dd88a"/>
<polygon points="92.2,64.3 96.2,68.3 92.2,72.3 88.2,68.3" fill="#4dd88a"/>
<polygon points="94.4,64.3 98.4,68.3 94.4,72.3 90.4,68.3" fill="#4dd88a"/>
<polygon points="98.7,64.3 102.7,68.3 98.7,72.3 94.7,68.3" fill="#4dd88a"/>
<polygon points="107.2,64.8 111.2,68.8 107.2,72.8 103.2,68.8" fill="#4dd88a"/>
<polygon points="121.7,68.0 125.7,72.0 121.7,76.0 117.7,72.0" fill="#4dd88a"/>
<polygon points="142.5,75.7 146.5,79.7 142.5,83.7 138.5,79.7" fill="#4dd88a"/>
<polygon points="167.9,87.5 171.9,91.5 167.9,95.5 163.9,91.5" fill="#4dd88a"/>
<polygon points="195.4,101.7 199.4,105.7 195.4,109.7 191.4,105.7" fill="#4dd88a"/>
<polygon points="248.4,134.5 252.4,138.5 248.4,142.5 244.4,138.5" fill="#4dd88a"/>
<polygon points="297.8,171.7 301.8,175.7 297.8,179.7 293.8,175.7" fill="#4dd88a"/>
<polygon points="391.8,517.7 395.8,521.7 391.8,525.7 387.8,521.7" fill="#4dd88a"/>
<polygon points="484.6,517.7 488.6,521.7 484.6,525.7 480.6,521.7" fill="#4dd88a"/>
<polyline fill="none" stroke="#ff6b6b" stroke-width="2" points="90.0,68.3 90.0,68.3 90.0,68.3 90.0,68.3 90.1,68.3 90.1,68.3 90.2,68.3 90.4,68.4 90.9,68.8 91.7,70.0 93.2,72.1 95.9,75.5 100.3,80.6 107.1,87.2 117.6,95.3 131.3,104.8 149.9,115.5 199.7,140.7 263.9,171.0 391.8,521.7 484.6,521.7"/>
<polygon points="90.0,63.3 88.8,66.7 85.2,66.8 88.1,69.0 87.1,72.4 90.0,70.3 92.9,72.4 91.9,69.0 94.8,66.8 91.2,66.7" fill="#ff6b6b"/>
<polygon points="90.0,63.3 88.8,66.7 85.3,66.8 88.1,69.0 87.1,72.4 90.0,70.3 92.9,72.4 91.9,69.0 94.8,66.8 91.2,66.7" fill="#ff6b6b"/>
<polygon points="90.0,63.3 88.8,66.7 85.3,66.8 88.1,69.0 87.1,72.4 90.0,70.3 93.0,72.4 91.9,69.0 94.8,66.8 91.2,66.7" fill="#ff6b6b"/>
<polygon points="90.0,63.3 88.9,66.7 85.3,66.8 88.1,69.0 87.1,72.4 90.0,70.3 93.0,72.4 91.9,69.0 94.8,66.8 91.2,66.7" fill="#ff6b6b"/>
<polygon points="90.1,63.3 88.9,66.7 85.3,66.8 88.2,69.0 87.1,72.4 90.1,70.3 93.0,72.4 92.0,69.0 94.8,66.8 91.2,66.7" fill="#ff6b6b"/>
<polygon points="90.1,63.3 88.9,66.7 85.4,66.8 88.2,69.0 87.2,72.4 90.1,70.3 93.0,72.4 92.0,69.0 94.9,66.8 91.3,66.7" fill="#ff6b6b"/>
<polygon points="90.2,63.3 89.0,66.7 85.5,66.8 88.3,69.0 87.3,72.4 90.2,70.3 93.2,72.4 92.1,69.0 95.0,66.8 91.4,66.7" fill="#ff6b6b"/>
<polygon points="90.4,63.4 89.3,66.8 85.7,66.9 88.5,69.0 87.5,72.4 90.4,70.4 93.4,72.4 92.3,69.0 95.2,66.9 91.6,66.8" fill="#ff6b6b"/>
<polygon points="90.9,63.8 89.7,67.1 86.1,67.2 89.0,69.4 87.9,72.8 90.9,70.8 93.8,72.8 92.8,69.4 95.6,67.2 92.0,67.1" fill="#ff6b6b"/>
<polygon points="91.7,65.0 90.5,68.3 86.9,68.4 89.8,70.6 88.7,74.0 91.7,72.0 94.6,74.0 93.6,70.6 96.4,68.4 92.8,68.3" fill="#ff6b6b"/>
<polygon points="93.2,67.1 92.0,70.4 88.4,70.5 91.3,72.7 90.3,76.1 93.2,74.1 96.1,76.1 95.1,72.7 97.9,70.5 94.4,70.4" fill="#ff6b6b"/>
<polygon points="95.9,70.5 94.7,73.9 91.2,74.0 94.0,76.2 93.0,79.6 95.9,77.5 98.9,79.6 97.8,76.2 100.7,74.0 97.1,73.9" fill="#ff6b6b"/>
<polygon points="100.3,75.6 99.1,79.0 95.5,79.0 98.4,81.2 97.4,84.6 100.3,82.6 103.2,84.6 102.2,81.2 105.1,79.0 101.5,79.0" fill="#ff6b6b"/>
<polygon points="107.1,82.2 105.9,85.6 102.4,85.7 105.2,87.8 104.2,91.3 107.1,89.2 110.1,91.3 109.0,87.8 111.9,85.7 108.3,85.6" fill="#ff6b6b"/>
<polygon points="117.6,90.3 116.4,93.7 112.8,93.8 115.7,95.9 114.6,99.3 117.6,97.3 120.5,99.3 119.5,95.9 122.3,93.8 118.7,93.7" fill="#ff6b6b"/>
<polygon points="131.3,99.8 130.1,103.2 126.6,103.3 129.4,105.4 128.4,108.8 131.3,106.8 134.3,108.8 133.2,105.4 136.1,103.3 132.5,103.2" fill="#ff6b6b"/>
<polygon points="149.9,110.5 148.8,113.9 145.2,114.0 148.0,116.1 147.0,119.6 149.9,117.5 152.9,119.6 151.8,116.1 154.7,114.0 151.1,113.9" fill="#ff6b6b"/>
<polygon points="199.7,135.7 198.6,139.0 195.0,139.1 197.8,141.3 196.8,144.7 199.7,142.7 202.7,144.7 201.6,141.3 204.5,139.1 200.9,139.0" fill="#ff6b6b"/>
<polygon points="263.9,166.0 262.8,169.4 259.2,169.5 262.0,171.6 261.0,175.1 263.9,173.0 266.9,175.1 265.9,171.6 268.7,169.5 265.1,169.4" fill="#ff6b6b"/>
<polygon points="391.8,516.7 390.6,520.0 387.0,520.1 389.9,522.3 388.8,525.7 391.8,523.7 394.7,525.7 393.7,522.3 396.5,520.1 393.0,520.0" fill="#ff6b6b"/>
<polygon points="484.6,516.7 483.5,520.0 479.9,520.1 482.7,522.3 481.7,525.7 484.6,523.7 487.6,525.7 486.5,522.3 489.4,520.1 485.8,520.0" fill="#ff6b6b"/>
<polyline fill="none" stroke="#ff922b" stroke-width="2" points="276.6,142.0 306.5,158.0 335.6,175.0 363.3,193.8 389.3,215.2 414.1,240.3 438.0,271.1 461.4,312.0 507.9,419.4 531.1,521.7"/>
<circle cx="276.6" cy="142.0" r="3" fill="#ff922b"/>
<circle cx="306.5" cy="158.0" r="3" fill="#ff922b"/>
<circle cx="335.6" cy="175.0" r="3" fill="#ff922b"/>
<circle cx="363.3" cy="193.8" r="3" fill="#ff922b"/>
<circle cx="389.3" cy="215.2" r="3" fill="#ff922b"/>
<circle cx="414.1" cy="240.3" r="3" fill="#ff922b"/>
<circle cx="438.0" cy="271.1" r="3" fill="#ff922b"/>
<circle cx="461.4" cy="312.0" r="3" fill="#ff922b"/>
<circle cx="507.9" cy="419.4" r="3" fill="#ff922b"/>
<circle cx="531.1" cy="521.7" r="3" fill="#ff922b"/>
<polyline fill="none" stroke="#888888" stroke-width="2" stroke-dasharray="8,5" points="201.3,124.4 234.7,141.5 279.0,164.7 312.5,181.7 346.0,198.5 390.3,221.2 423.8,238.5 457.3,256.0 501.5,277.3 535.0,295.1"/>
<circle cx="201.3" cy="124.4" r="3" fill="#888888"/>
<circle cx="234.7" cy="141.5" r="3" fill="#888888"/>
<circle cx="279.0" cy="164.7" r="3" fill="#888888"/>
<circle cx="312.5" cy="181.7" r="3" fill="#888888"/>
<circle cx="346.0" cy="198.5" r="3" fill="#888888"/>
<circle cx="390.3" cy="221.2" r="3" fill="#888888"/>
<circle cx="423.8" cy="238.5" r="3" fill="#888888"/>
<circle cx="457.3" cy="256.0" r="3" fill="#888888"/>
<circle cx="501.5" cy="277.3" r="3" fill="#888888"/>
<circle cx="535.0" cy="295.1" r="3" fill="#888888"/>
<line x1="886" y1="60" x2="902" y2="60" stroke="#ef4444" stroke-width="2" stroke-dasharray="8,5"/>
<circle cx="894.0" cy="60.0" r="3" fill="#ef4444"/>
<text class="label" x="908" y="64">Theoretical</text>
<line x1="886" y1="78" x2="902" y2="78" stroke="#1a6b3c" stroke-width="2"/>
<polygon points="894.0,74.0 898.0,78.0 894.0,82.0 890.0,78.0" fill="#1a6b3c"/>
<text class="label" x="908" y="82">Grafite</text>
<line x1="886" y1="96" x2="902" y2="96" stroke="#1a3a6b" stroke-width="2"/>
<polygon points="894.0,91.0 892.8,94.4 889.2,94.5 892.1,96.6 891.1,100.0 894.0,98.0 896.9,100.0 895.9,96.6 898.8,94.5 895.2,94.4" fill="#1a3a6b"/>
<text class="label" x="908" y="100">SNARF</text>
<line x1="886" y1="114" x2="902" y2="114" stroke="#111111" stroke-width="2"/>
<rect x="891.0" y="111.0" width="6" height="6" fill="#111111"/>
<text class="label" x="908" y="118">SuRF</text>
<line x1="886" y1="132" x2="902" y2="132" stroke="#111111" stroke-width="2"/>
<polygon points="894.0,128.0 898.0,135.0 890.0,135.0" fill="#111111"/>
<text class="label" x="908" y="136">SuRFHash(8)</text>
<line x1="886" y1="150" x2="902" y2="150" stroke="#111111" stroke-width="2"/>
<polygon points="894.0,146.0 898.0,150.0 894.0,154.0 890.0,150.0" fill="#111111"/>
<text class="label" x="908" y="154">SuRFReal(8)</text>
<line x1="886" y1="168" x2="902" y2="168" stroke="#2a7fff" stroke-width="2"/>
<rect x="891.0" y="165.0" width="6" height="6" fill="#2a7fff"/>
<text class="label" x="908" y="172">Adaptive (t=0)</text>
<line x1="886" y1="186" x2="902" y2="186" stroke="#9b59b6" stroke-width="2"/>
<polygon points="894.0,182.0 898.0,189.0 890.0,189.0" fill="#9b59b6"/>
<text class="label" x="908" y="190">Truncation</text>
<line x1="886" y1="204" x2="902" y2="204" stroke="#4dd88a" stroke-width="2"/>
<polygon points="894.0,200.0 898.0,204.0 894.0,208.0 890.0,204.0" fill="#4dd88a"/>
<text class="label" x="908" y="208">SODA</text>
<line x1="886" y1="222" x2="902" y2="222" stroke="#ff6b6b" stroke-width="2"/>
<polygon points="894.0,217.0 892.8,220.4 889.2,220.5 892.1,222.6 891.1,226.0 894.0,224.0 896.9,226.0 895.9,222.6 898.8,220.5 895.2,220.4" fill="#ff6b6b"/>
<text class="label" x="908" y="226">Hybrid</text>
<line x1="886" y1="240" x2="902" y2="240" stroke="#ff922b" stroke-width="2"/>
<circle cx="894.0" cy="240.0" r="3" fill="#ff922b"/>
<text class="label" x="908" y="244">CDF-ARE</text>
<line x1="886" y1="258" x2="902" y2="258" stroke="#888888" stroke-width="2" stroke-dasharray="8,5"/>
<circle cx="894.0" cy="258.0" r="3" fill="#888888"/>
<text class="label" x="908" y="262">BloomARE</text>
<text x="480" y="590" text-anchor="middle">Bits per Key (BPK)</text>
<text transform="translate(16,295) rotate(-90)" text-anchor="middle">False Positive Rate (FPR)</text>
</svg>
