<svg xmlns="http://www.w3.org/2000/svg" width="1020" height="600" viewBox="0 0 1020 600">
<style>text{font-family:Menlo,Monaco,monospace;font-size:12px;fill:#222} .axis{stroke:#333;stroke-width:1} .grid{stroke:#eee;stroke-width:0.5} .label{font-size:11px;fill:#444}</style>
<text x="510" y="28" text-anchor="middle" style="font-size:14px;font-weight:bold">FPR vs BPK — sosd_fb (60-bit keys, n=262144, L=128)</text>
<line class="axis" x1="90.0" y1="550.0" x2="870.0" y2="550.0"/>
<line class="axis" x1="90.0" y1="40.0" x2="90.0" y2="550.0"/>
<line class="grid" x1="90.0" y1="521.7" x2="870.0" y2="521.7"/>
<text class="label" x="82.0" y="525.7" text-anchor="end">10^-8</text>
<line class="grid" x1="90.0" y1="465.0" x2="870.0" y2="465.0"/>
<text class="label" x="82.0" y="469.0" text-anchor="end">10^-7</text>
<line class="grid" x1="90.0" y1="408.3" x2="870.0" y2="408.3"/>
<text class="label" x="82.0" y="412.3" text-anchor="end">10^-6</text>
<line class="grid" x1="90.0" y1="351.7" x2="870.0" y2="351.7"/>
<text class="label" x="82.0" y="355.7" text-anchor="end">10^-5</text>
<line class="grid" x1="90.0" y1="295.0" x2="870.0" y2="295.0"/>
<text class="label" x="82.0" y="299.0" text-anchor="end">10^-4</text>
<line class="grid" x1="90.0" y1="238.3" x2="870.0" y2="238.3"/>
<text class="label" x="82.0" y="242.3" text-anchor="end">10^-3</text>
<line class="grid" x1="90.0" y1="181.7" x2="870.0" y2="181.7"/>
<text class="label" x="82.0" y="185.7" text-anchor="end">10^-2</text>
<line class="grid" x1="90.0" y1="125.0" x2="870.0" y2="125.0"/>
<text class="label" x="82.0" y="129.0" text-anchor="end">10^-1</text>
<line class="grid" x1="90.0" y1="68.3" x2="870.0" y2="68.3"/>
<text class="label" x="82.0" y="72.3" text-anchor="end">1</text>
<line class="grid" x1="90.0" y1="40.0" x2="90.0" y2="550.0"/>
<text class="label" x="90.0" y="566.0" text-anchor="middle">0</text>
<line class="grid" x1="206.1" y1="40.0" x2="206.1" y2="550.0"/>
<text class="label" x="206.1" y="566.0" text-anchor="middle">5</text>
<line class="grid" x1="322.1" y1="40.0" x2="322.1" y2="550.0"/>
<text class="label" x="322.1" y="566.0" text-anchor="middle">10</text>
<line class="grid" x1="438.2" y1="40.0" x2="438.2" y2="550.0"/>
<text class="label" x="438.2" y="566.0" text-anchor="middle">15</text>
<line class="grid" x1="554.3" y1="40.0" x2="554.3" y2="550.0"/>
<text class="label" x="554.3" y="566.0" text-anchor="middle">20</text>
<line class="grid" x1="670.4" y1="40.0" x2="670.4" y2="550.0"/>
<text class="label" x="670.4" y="566.0" text-anchor="middle">25</text>
<line class="grid" x1="786.4" y1="40.0" x2="786.4" y2="550.0"/>
<text class="label" x="786.4" y="566.0" text-anchor="middle">30</text>
<polyline fill="none" stroke="#ef4444" stroke-width="2" stroke-dasharray="8,5" points="252.5,68.3 275.7,85.4 298.9,102.5 322.1,119.5 345.4,136.6 368.6,153.6 391.8,170.7 415.0,187.7 438.2,204.8 461.4,221.9 484.6,238.9 507.9,256.0 531.1,273.0 554.3,290.1 600.7,324.2 647.1,358.3 740.0,426.6 832.9,494.8"/>
<circle cx="252.5" cy="68.3" r="3" fill="#ef4444"/>
<circle cx="275.7" cy="85.4" r="3" fill="#ef4444"/>
<circle cx="298.9" cy="102.5" r="3" fill="#ef4444"/>
<circle cx="322.1" cy="119.5" r="3" fill="#ef4444"/>
<circle cx="345.4" cy="136.6" r="3" fill="#ef4444"/>
<circle cx="368.6" cy="153.6" r="3" fill="#ef4444"/>
<circle cx="391.8" cy="170.7" r="3" fill="#ef4444"/>
<circle cx="415.0" cy="187.7" r="3" fill="#ef4444"/>
<circle cx="438.2" cy="204.8" r="3" fill="#ef4444"/>
<circle cx="461.4" cy="221.9" r="3" fill="#ef4444"/>
<circle cx="484.6" cy="238.9" r="3" fill="#ef4444"/>
<circle cx="507.9" cy="256.0" r="3" fill="#ef4444"/>
<circle cx="531.1" cy="273.0" r="3" fill="#ef4444"/>
<circle cx="554.3" cy="290.1" r="3" fill="#ef4444"/>
<circle cx="600.7" cy="324.2" r="3" fill="#ef4444"/>
<circle cx="647.1" cy="358.3" r="3" fill="#ef4444"/>
<circle cx="740.0" cy="426.6" r="3" fill="#ef4444"/>
<circle cx="832.9" cy="494.8" r="3" fill="#ef4444"/>
<polyline fill="none" stroke="#1a6b3c" stroke-width="2" points="189.0,68.3 240.4,69.1 289.4,84.3 336.8,130.0"/>
<polygon points="189.0,64.3 193.0,68.3 189.0,72.3 185.0,68.3" fill="#1a6b3c"/>
<polygon points="240.4,65.1 244.4,69.1 240.4,73.1 236.4,69.1" fill="#1a6b3c"/>
<polygon points="289.4,80.3 293.4,84.3 289.4,88.3 285.4,84.3" fill="#1a6b3c"/>
<polygon points="336.8,126.0 340.8,130.0 336.8,134.0 332.8,130.0" fill="#1a6b3c"/>
<polyline fill="none" stroke="#1a3a6b" stroke-width="2" points="168.3,113.3 214.5,133.2 261.1,146.0 307.8,151.0 354.0,152.2 400.2,152.3 446.9,152.3 493.5,152.3 539.7,152.3"/>
<polygon points="168.3,108.3 167.1,111.7 163.5,111.8 166.4,113.9 165.3,117.4 168.3,115.3 171.2,117.4 170.2,113.9 173.0,111.8 169.5,111.7" fill="#1a3a6b"/>
<polygon points="214.5,128.2 213.3,131.6 209.7,131.7 212.6,133.9 211.5,137.3 214.5,135.2 217.4,137.3 216.4,133.9 219.2,131.7 215.7,131.6" fill="#1a3a6b"/>
<polygon points="261.1,141.0 260.0,144.4 256.4,144.4 259.2,146.6 258.2,150.0 261.1,148.0 264.1,150.0 263.0,146.6 265.9,144.4 262.3,144.4" fill="#1a3a6b"/>
<polygon points="307.8,146.0 306.6,149.3 303.0,149.4 305.9,151.6 304.9,155.0 307.8,153.0 310.7,155.0 309.7,151.6 312.6,149.4 309.0,149.3" fill="#1a3a6b"/>
<polygon points="354.0,147.2 352.8,150.6 349.2,150.7 352.1,152.8 351.1,156.3 354.0,154.2 356.9,156.3 355.9,152.8 358.8,150.7 355.2,150.6" fill="#1a3a6b"/>
<polygon points="400.2,147.3 399.0,150.7 395.4,150.7 398.3,152.9 397.3,156.3 400.2,154.3 403.1,156.3 402.1,152.9 404.9,150.7 401.4,150.7" fill="#1a3a6b"/>
<polygon points="446.9,147.3 445.7,150.7 442.1,150.7 444.9,152.9 443.9,156.3 446.9,154.3 449.8,156.3 448.8,152.9 451.6,150.7 448.0,150.7" fill="#1a3a6b"/>
<polygon points="493.5,147.3 492.3,150.7 488.8,150.7 491.6,152.9 490.6,156.3 493.5,154.3 496.5,156.3 495.4,152.9 498.3,150.7 494.7,150.7" fill="#1a3a6b"/>
<polygon points="539.7,147.3 538.5,150.7 535.0,150.7 537.8,152.9 536.8,156.3 539.7,154.3 542.7,156.3 541.6,152.9 544.5,150.7 540.9,150.7" fill="#1a3a6b"/>
<polyline fill="none" stroke="#111111" stroke-width="2" points="350.7,116.1"/>
<rect x="347.7" y="113.1" width="6" height="6" fill="#111111"/>
<polyline fill="none" stroke="#111111" stroke-width="2" points="536.4,116.1"/>
<polygon points="536.4,112.1 540.4,119.1 532.4,119.1" fill="#111111"/>
<polyline fill="none" stroke="#111111" stroke-width="2" points="536.4,310.9"/>
<polygon points="536.4,306.9 540.4,310.9 536.4,314.9 532.4,310.9" fill="#111111"/>
<polyline fill="none" stroke="#2a7fff" stroke-width="2" points="90.0,68.3 90.0,68.3 90.0,68.3 90.0,68.3 90.1,68.3 90.1,68.3 90.3,68.3 90.5,68.3 91.1,68.3 92.2,68.3 94.4,68.3 98.7,68.3 107.2,68.3 121.7,68.3 142.5,68.3 167.9,68.3 195.4,68.3 248.4,69.1 297.8,84.2 368.6,521.7 368.6,521.7"/>
<rect x="87.0" y="65.3" width="6" height="6" fill="#2a7fff"/>
<rect x="87.0" y="65.3" width="6" height="6" fill="#2a7fff"/>
<rect x="87.0" y="65.3" width="6" height="6" fill="#2a7fff"/>
<rect x="87.0" y="65.3" width="6" height="6" fill="#2a7fff"/>
<rect x="87.1" y="65.3" width="6" height="6" fill="#2a7fff"/>
<rect x="87.1" y="65.3" width="6" height="6" fill="#2a7fff"/>
<rect x="87.3" y="65.3" width="6" height="6" fill="#2a7fff"/>
<rect x="87.5" y="65.3" width="6" height="6" fill="#2a7fff"/>
<rect x="88.1" y="65.3" width="6" height="6" fill="#2a7fff"/>
<rect x="89.2" y="65.3" width="6" height="6" fill="#2a7fff"/>
<rect x="91.4" y="65.3" width="6" height="6" fill="#2a7fff"/>
<rect x="95.7" y="65.3" width="6" height="6" fill="#2a7fff"/>
<rect x="104.2" y="65.3" width="6" height="6" fill="#2a7fff"/>
<rect x="118.7" y="65.3" width="6" height="6" fill="#2a7fff"/>
<rect x="139.5" y="65.3" width="6" height="6" fill="#2a7fff"/>
<rect x="164.9" y="65.3" width="6" height="6" fill="#2a7fff"/>
<rect x="192.4" y="65.3" width="6" height="6" fill="#2a7fff"/>
<rect x="245.4" y="66.1" width="6" height="6" fill="#2a7fff"/>
<rect x="294.8" y="81.2" width="6" height="6" fill="#2a7fff"/>
<rect x="365.6" y="518.7" width="6" height="6" fill="#2a7fff"/>
<rect x="365.6" y="518.7" width="6" height="6" fill="#2a7fff"/>
<polyline fill="none" stroke="#9b59b6" stroke-width="2" points="90.0,68.3 90.0,68.3 90.0,68.3 90.0,68.3 90.1,68.3 90.1,68.3 90.2,68.3 90.4,68.4 90.9,68.8 91.7,70.2 93.2,72.7 95.9,76.9 100.3,83.0 107.1,91.4 117.6,101.7 131.3,114.0 149.9,126.7 199.7,158.1 263.9,193.8 391.8,521.7 484.6,521.7"/>
<polygon points="90.0,64.3 94.0,71.3 86.0,71.3" fill="#9b59b6"/>
<polygon points="90.0,64.3 94.0,71.3 86.0,71.3" fill="#9b59b6"/>
<polygon points="90.0,64.3 94.0,71.3 86.0,71.3" fill="#9b59b6"/>
<polygon points="90.0,64.3 94.0,71.3 86.0,71.3" fill="#9b59b6"/>
<polygon points="90.1,64.3 94.1,71.3 86.1,71.3" fill="#9b59b6"/>
<polygon points="90.1,64.3 94.1,71.3 86.1,71.3" fill="#9b59b6"/>
<polygon points="90.2,64.3 94.2,71.3 86.2,71.3" fill="#9b59b6"/>
<polygon points="90.4,64.4 94.4,71.4 86.4,71.4" fill="#9b59b6"/>
<polygon points="90.9,64.8 94.9,71.8 86.9,71.8" fill="#9b59b6"/>
<polygon points="91.7,66.2 95.7,73.2 87.7,73.2" fill="#9b59b6"/>
<polygon points="93.2,68.7 97.2,75.7 89.2,75.7" fill="#9b59b6"/>
<polygon points="95.9,72.9 99.9,79.9 91.9,79.9" fill="#9b59b6"/>
<polygon points="100.3,79.0 104.3,86.0 96.3,86.0" fill="#9b59b6"/>
<polygon points="107.1,87.4 111.1,94.4 103.1,94.4" fill="#9b59b6"/>
<polygon points="117.6,97.7 121.6,104.7 113.6,104.7" fill="#9b59b6"/>
<polygon points="131.3,110.0 135.3,117.0 127.3,117.0" fill="#9b59b6"/>
<polygon points="149.9,122.7 153.9,129.7 145.9,129.7" fill="#9b59b6"/>
<polygon points="199.7,154.1 203.7,161.1 195.7,161.1" fill="#9b59b6"/>
<polygon points="263.9,189.8 267.9,196.8 259.9,196.8" fill="#9b59b6"/>
<polygon points="391.8,517.7 395.8,524.7 387.8,524.7" fill="#9b59b6"/>
<polygon points="484.6,517.7 488.6,524.7 480.6,524.7" fill="#9b59b6"/>
<polyline fill="none" stroke="#4dd88a" stroke-width="2" points="90.0,68.3 90.0,68.3 90.0,68.3 90.0,68.3 90.1,68.3 90.1,68.3 90.3,68.3 90.5,68.3 91.1,68.3 92.2,68.3 94.4,68.3 98.7,68.3 107.2,68.3 121.7,68.3 142.5,68.3 167.9,68.3 195.4,68.3 248.4,69.1 297.8,84.2 391.8,521.7 484.6,521.7"/>
<polygon points="90.0,64.3 94.0,68.3 90.0,72.3 86.0,68.3" fill="#4dd88a"/>
<polygon points="90.0,64.3 94.0,68.3 90.0,72.3 86.0,68.3" fill="#4dd88a"/>
<polygon points="90.0,64.3 94.0,68.3 90.0,72.3 86.0,68.3" fill="#4dd88a"/>
<polygon points="90.0,64.3 94.0,68.3 90.0,72.3 86.0,68.3" fill="#4dd88a"/>
<polygon points="90.1,64.3 94.1,68.3 90.1,72.3 86.1,68.3" fill="#4dd88a"/>
<polygon points="90.1,64.3 94.1,68.3 90.1,72.3 86.1,68.3" fill="#4dd88a"/>
<polygon points="90.3,64.3 94.3,68.3 90.3,72.3 86.3,68.3" fill="#4dd88a"/>
<polygon points="90.5,64.3 94.5,68.3 90.5,72.3 86.5,68.3" fill="#4dd88a"/>
<polygon points="91.1,64.3 95.1,68.3 91.1,72.3 87.1,68.3" fill="#4dd88a"/>
<polygon points="92.2,64.3 96.2,68.3 92.2,72.3 88.2,68.3" fill="#4dd88a"/>
<polygon points="94.4,64.3 98.4,68.3 94.4,72.3 90.4,68.3" fill="#4dd88a"/>
<polygon points="98.7,64.3 102.7,68.3 98.7,72.3 94.7,68.3" fill="#4dd88a"/>
<polygon points="107.2,64.3 111.2,68.3 107.2,72.3 103.2,68.3" fill="#4dd88a"/>
<polygon points="121.7,64.3 125.7,68.3 121.7,72.3 117.7,68.3" fill="#4dd88a"/>
<polygon points="142.5,64.3 146.5,68.3 142.5,72.3 138.5,68.3" fill="#4dd88a"/>
<polygon points="167.9,64.3 171.9,68.3 167.9,72.3 163.9,68.3" fill="#4dd88a"/>
<polygon points="195.4,64.3 199.4,68.3 195.4,72.3 191.4,68.3" fill="#4dd88a"/>
<polygon points="248.4,65.1 252.4,69.1 248.4,73.1 244.4,69.1" fill="#4dd88a"/>
<polygon points="297.8,80.2 301.8,84.2 297.8,88.2 293.8,84.2" fill="#4dd88a"/>
<polygon points="391.8,517.7 395.8,521.7 391.8,525.7 387.8,521.7" fill="#4dd88a"/>
<polygon points="484.6,517.7 488.6,521.7 484.6,525.7 480.6,521.7" fill="#4dd88a"/>
<polyline fill="none" stroke="#ff6b6b" stroke-width="2" points="90.0,68.3 90.0,68.3 90.0,68.3 90.0,68.3 90.1,68.3 90.1,68.3 90.2,68.3 90.4,68.4 90.9,68.8 91.7,70.2 93.2,72.7 95.9,76.9 100.3,83.0 107.1,91.4 117.6,101.7 131.3,114.0 149.9,126.7 199.7,158.1 263.9,193.8 391.8,521.7 484.6,521.7"/>
<polygon points="90.0,63.3 88.8,66.7 85.2,66.8 88.1,69.0 87.1,72.4 90.0,70.3 92.9,72.4 91.9,69.0 94.8,66.8 91.2,66.7" fill="#ff6b6b"/>
<polygon points="90.0,63.3 88.8,66.7 85.3,66.8 88.1,69.0 87.1,72.4 90.0,70.3 92.9,72.4 91.9,69.0 94.8,66.8 91.2,66.7" fill="#ff6b6b"/>
<polygon points="90.0,63.3 88.8,66.7 85.3,66.8 88.1,69.0 87.1,72.4 90.0,70.3 93.0,72.4 91.9,69.0 94.8,66.8 91.2,66.7" fill="#ff6b6b"/>
<polygon points="90.0,63.3 88.9,66.7 85.3,66.8 88.1,69.0 87.1,72.4 90.0,70.3 93.0,72.4 91.9,69.0 94.8,66.8 91.2,66.7" fill="#ff6b6b"/>
<polygon points="90.1,63.3 88.9,66.7 85.3,66.8 88.2,69.0 87.1,72.4 90.1,70.3 93.0,72.4 92.0,69.0 94.8,66.8 91.2,66.7" fill="#ff6b6b"/>
<polygon points="90.1,63.3 88.9,66.7 85.4,66.8 88.2,69.0 87.2,72.4 90.1,70.3 93.0,72.4 92.0,69.0 94.9,66.8 91.3,66.7" fill="#ff6b6b"/>
<polygon points="90.2,63.3 89.0,66.7 85.5,66.8 88.3,69.0 87.3,72.4 90.2,70.3 93.2,72.4 92.1,69.0 95.0,66.8 91.4,66.7" fill="#ff6b6b"/>
<polygon points="90.4,63.4 89.3,66.8 85.7,66.9 88.5,69.0 87.5,72.5 90.4,70.4 93.4,72.5 92.3,69.0 95.2,66.9 91.6,66.8" fill="#ff6b6b"/>
<polygon points="90.9,63.8 89.7,67.2 86.1,67.3 89.0,69.5 87.9,72.9 90.9,70.8 93.8,72.9 92.8,69.5 95.6,67.3 92.0,67.2" fill="#ff6b6b"/>
<polygon points="91.7,65.2 90.5,68.6 86.9,68.7 89.8,70.9 88.7,74.3 91.7,72.2 94.6,74.3 93.6,70.9 96.4,68.7 92.8,68.6" fill="#ff6b6b"/>
<polygon points="93.2,67.7 92.0,71.1 88.4,71.2 91.3,73.3 90.3,76.8 93.2,74.7 96.1,76.8 95.1,73.3 97.9,71.2 94.4,71.1" fill="#ff6b6b"/>
<polygon points="95.9,71.9 94.7,75.3 91.2,75.3 94.0,77.5 93.0,80.9 95.9,78.9 98.9,80.9 97.8,77.5 100.7,75.3 97.1,75.3" fill="#ff6b6b"/>
<polygon points="100.3,78.0 99.1,81.4 95.5,81.5 98.4,83.7 97.4,87.1 100.3,85.0 103.2,87.1 102.2,83.7 105.1,81.5 101.5,81.4" fill="#ff6b6b"/>
<polygon points="107.1,86.4 105.9,89.7 102.4,89.8 105.2,92.0 104.2,95.4 107.1,93.4 110.1,95.4 109.0,92.0 111.9,89.8 108.3,89.7" fill="#ff6b6b"/>
<polygon points="117.6,96.7 116.4,100.1 112.8,100.2 115.7,102.4 114.6,105.8 117.6,103.7 120.5,105.8 119.5,102.4 122.3,100.2 118.7,100.1" fill="#ff6b6b"/>
<polygon points="131.3,109.0 130.1,112.4 126.6,112.4 129.4,114.6 128.4,118.0 131.3,116.0 134.3,118.0 133.2,114.6 136.1,112.4 132.5,112.4" fill="#ff6b6b"/>
<polygon points="149.9,121.7 148.8,125.1 145.2,125.1 148.0,127.3 147.0,130.7 149.9,128.7 152.9,130.7 151.8,127.3 154.7,125.1 151.1,125.1" fill="#ff6b6b"/>
<polygon points="199.7,153.1 198.6,156.5 195.0,156.5 197.8,158.7 196.8,162.1 199.7,160.1 202.7,162.1 201.6,158.7 204.5,156.5 200.9,156.5" fill="#ff6b6b"/>
<polygon points="263.9,188.8 262.8,192.2 259.2,192.3 262.0,194.5 261.0,197.9 263.9,195.8 266.9,197.9 265.9,194.5 268.7,192.3 265.1,192.2" fill="#ff6b6b"/>
<polygon points="391.8,516.7 390.6,520.0 387.0,520.1 389.9,522.3 388.8,525.7 391.8,523.7 394.7,525.7 393.7,522.3 396.5,520.1 393.0,520.0" fill="#ff6b6b"/>
<polygon points="484.6,516.7 483.5,520.0 479.9,520.1 482.7,522.3 481.7,525.7 484.6,523.7 487.6,525.7 486.5,522.3 489.4,520.1 485.8,520.0" fill="#ff6b6b"/>
<polyline fill="none" stroke="#ff922b" stroke-width="2" points="438.0,276.5 461.4,314.5 484.7,356.5 507.9,432.6 531.1,521.7 554.3,521.7 577.5,521.7 600.7,521.7 647.2,521.7 670.4,521.7"/>
<circle cx="438.0" cy="276.5" r="3" fill="#ff922b"/>
<circle cx="461.4" cy="314.5" r="3" fill="#ff922b"/>
<circle cx="484.7" cy="356.5" r="3" fill="#ff922b"/>
<circle cx="507.9" cy="432.6" r="3" fill="#ff922b"/>
<circle cx="531.1" cy="521.7" r="3" fill="#ff922b"/>
<circle cx="554.3" cy="521.7" r="3" fill="#ff922b"/>
<circle cx="577.5" cy="521.7" r="3" fill="#ff922b"/>
<circle cx="600.7" cy="521.7" r="3" fill="#ff922b"/>
<circle cx="647.2" cy="521.7" r="3" fill="#ff922b"/>
<circle cx="670.4" cy="521.7" r="3" fill="#ff922b"/>
<polyline fill="none" stroke="#888888" stroke-width="2" stroke-dasharray="8,5" points="433.2,124.7 468.0,141.7 513.0,164.3 546.7,181.3 580.3,199.2 624.7,221.5 658.2,237.7 691.7,253.9 736.0,277.4 769.5,300.0"/>
<circle cx="433.2" cy="124.7" r="3" fill="#888888"/>
<circle cx="468.0" cy="141.7" r="3" fill="#888888"/>
<circle cx="513.0" cy="164.3" r="3" fill="#888888"/>
<circle cx="546.7" cy="181.3" r="3" fill="#888888"/>
<circle cx="580.3" cy="199.2" r="3" fill="#888888"/>
<circle cx="624.7" cy="221.5" r="3" fill="#888888"/>
<circle cx="658.2" cy="237.7" r="3" fill="#888888"/>
<circle cx="691.7" cy="253.9" r="3" fill="#888888"/>
<circle cx="736.0" cy="277.4" r="3" fill="#888888"/>
<circle cx="769.5" cy="300.0" r="3" fill="#888888"/>
<line x1="886" y1="60" x2="902" y2="60" stroke="#ef4444" stroke-width="2" stroke-dasharray="8,5"/>
<circle cx="894.0" cy="60.0" r="3" fill="#ef4444"/>
<text class="label" x="908" y="64">Theoretical</text>
<line x1="886" y1="78" x2="902" y2="78" stroke="#1a6b3c" stroke-width="2"/>
<polygon points="894.0,74.0 898.0,78.0 894.0,82.0 890.0,78.0" fill="#1a6b3c"/>
<text class="label" x="908" y="82">Grafite</text>
<line x1="886" y1="96" x2="902" y2="96" stroke="#1a3a6b" stroke-width="2"/>
<polygon points="894.0,91.0 892.8,94.4 889.2,94.5 892.1,96.6 891.1,100.0 894.0,98.0 896.9,100.0 895.9,96.6 898.8,94.5 895.2,94.4" fill="#1a3a6b"/>
<text class="label" x="908" y="100">SNARF</text>
<line x1="886" y1="114" x2="902" y2="114" stroke="#111111" stroke-width="2"/>
<rect x="891.0" y="111.0" width="6" height="6" fill="#111111"/>
<text class="label" x="908" y="118">SuRF</text>
<line x1="886" y1="132" x2="902" y2="132" stroke="#111111" stroke-width="2"/>
<polygon points="894.0,128.0 898.0,135.0 890.0,135.0" fill="#111111"/>
<text class="label" x="908" y="136">SuRFHash(8)</text>
<line x1="886" y1="150" x2="902" y2="150" stroke="#111111" stroke-width="2"/>
<polygon points="894.0,146.0 898.0,150.0 894.0,154.0 890.0,150.0" fill="#111111"/>
<text class="label" x="908" y="154">SuRFReal(8)</text>
<line x1="886" y1="168" x2="902" y2="168" stroke="#2a7fff" stroke-width="2"/>
<rect x="891.0" y="165.0" width="6" height="6" fill="#2a7fff"/>
<text class="label" x="908" y="172">Adaptive (t=0)</text>
<line x1="886" y1="186" x2="902" y2="186" stroke="#9b59b6" stroke-width="2"/>
<polygon points="894.0,182.0 898.0,189.0 890.0,189.0" fill="#9b59b6"/>
<text class="label" x="908" y="190">Truncation</text>
<line x1="886" y1="204" x2="902" y2="204" stroke="#4dd88a" stroke-width="2"/>
<polygon points="894.0,200.0 898.0,204.0 894.0,208.0 890.0,204.0" fill="#4dd88a"/>
<text class="label" x="908" y="208">SODA</text>
<line x1="886" y1="222" x2="902" y2="222" stroke="#ff6b6b" stroke-width="2"/>
<polygon points="894.0,217.0 892.8,220.4 889.2,220.5 892.1,222.6 891.1,226.0 894.0,224.0 896.9,226.0 895.9,222.6 898.8,220.5 895.2,220.4" fill="#ff6b6b"/>
<text class="label" x="908" y="226">Hybrid</text>
<line x1="886" y1="240" x2="902" y2="240" stroke="#ff922b" stroke-width="2"/>
<circle cx="894.0" cy="240.0" r="3" fill="#ff922b"/>
<text class="label" x="908" y="244">CDF-ARE</text>
<line x1="886" y1="258" x2="902" y2="258" stroke="#888888" stroke-width="2" stroke-dasharray="8,5"/>
<circle cx="894.0" cy="258.0" r="3" fill="#888888"/>
<text class="label" x="908" y="262">BloomARE</text>
<text x="480" y="590" text-anchor="middle">Bits per Key (BPK)</text>
<text transform="translate(16,295) rotate(-90)" text-anchor="middle">False Positive Rate (FPR)</text>
</svg>
