<svg xmlns="http://www.w3.org/2000/svg" width="1020" height="600" viewBox="0 0 1020 600">
<style>text{font-family:Menlo,Monaco,monospace;font-size:12px;fill:#222} .axis{stroke:#333;stroke-width:1} .grid{stroke:#eee;stroke-width:0.5} .label{font-size:11px;fill:#444}</style>
<text x="510" y="28" text-anchor="middle" style="font-size:14px;font-weight:bold">FPR vs BPK — clustered (60-bit keys, n=1048576, L=1)</text>
<line class="axis" x1="90.0" y1="550.0" x2="870.0" y2="550.0"/>
<line class="axis" x1="90.0" y1="40.0" x2="90.0" y2="550.0"/>
<line class="grid" x1="90.0" y1="521.7" x2="870.0" y2="521.7"/>
<text class="label" x="82.0" y="525.7" text-anchor="end">10^-8</text>
<line class="grid" x1="90.0" y1="465.0" x2="870.0" y2="465.0"/>
<text class="label" x="82.0" y="469.0" text-anchor="end">10^-7</text>
<line class="grid" x1="90.0" y1="408.3" x2="870.0" y2="408.3"/>
<text class="label" x="82.0" y="412.3" text-anchor="end">10^-6</text>
<line class="grid" x1="90.0" y1="351.7" x2="870.0" y2="351.7"/>
<text class="label" x="82.0" y="355.7" text-anchor="end">10^-5</text>
<line class="grid" x1="90.0" y1="295.0" x2="870.0" y2="295.0"/>
<text class="label" x="82.0" y="299.0" text-anchor="end">10^-4</text>
<line class="grid" x1="90.0" y1="238.3" x2="870.0" y2="238.3"/>
<text class="label" x="82.0" y="242.3" text-anchor="end">10^-3</text>
<line class="grid" x1="90.0" y1="181.7" x2="870.0" y2="181.7"/>
<text class="label" x="82.0" y="185.7" text-anchor="end">10^-2</text>
<line class="grid" x1="90.0" y1="125.0" x2="870.0" y2="125.0"/>
<text class="label" x="82.0" y="129.0" text-anchor="end">10^-1</text>
<line class="grid" x1="90.0" y1="68.3" x2="870.0" y2="68.3"/>
<text class="label" x="82.0" y="72.3" text-anchor="end">1</text>
<line class="grid" x1="90.0" y1="40.0" x2="90.0" y2="550.0"/>
<text class="label" x="90.0" y="566.0" text-anchor="middle">0</text>
<line class="grid" x1="206.1" y1="40.0" x2="206.1" y2="550.0"/>
<text class="label" x="206.1" y="566.0" text-anchor="middle">5</text>
<line class="grid" x1="322.1" y1="40.0" x2="322.1" y2="550.0"/>
<text class="label" x="322.1" y="566.0" text-anchor="middle">10</text>
<line class="grid" x1="438.2" y1="40.0" x2="438.2" y2="550.0"/>
<text class="label" x="438.2" y="566.0" text-anchor="middle">15</text>
<line class="grid" x1="554.3" y1="40.0" x2="554.3" y2="550.0"/>
<text class="label" x="554.3" y="566.0" text-anchor="middle">20</text>
<line class="grid" x1="670.4" y1="40.0" x2="670.4" y2="550.0"/>
<text class="label" x="670.4" y="566.0" text-anchor="middle">25</text>
<line class="grid" x1="786.4" y1="40.0" x2="786.4" y2="550.0"/>
<text class="label" x="786.4" y="566.0" text-anchor="middle">30</text>
<polyline fill="none" stroke="#ef4444" stroke-width="2" stroke-dasharray="8,5" points="182.9,136.6 206.1,153.6 229.3,170.7 252.5,187.7 275.7,204.8 298.9,221.9 322.1,238.9 345.4,256.0 368.6,273.0 391.8,290.1 415.0,307.2 438.2,324.2 461.4,341.3 484.6,358.3 507.9,375.4 531.1,392.4 554.3,409.5 600.7,443.6 647.1,477.7 740.0,546.0 832.9,614.2"/>
<circle cx="182.9" cy="136.6" r="3" fill="#ef4444"/>
<circle cx="206.1" cy="153.6" r="3" fill="#ef4444"/>
<circle cx="229.3" cy="170.7" r="3" fill="#ef4444"/>
<circle cx="252.5" cy="187.7" r="3" fill="#ef4444"/>
<circle cx="275.7" cy="204.8" r="3" fill="#ef4444"/>
<circle cx="298.9" cy="221.9" r="3" fill="#ef4444"/>
<circle cx="322.1" cy="238.9" r="3" fill="#ef4444"/>
<circle cx="345.4" cy="256.0" r="3" fill="#ef4444"/>
<circle cx="368.6" cy="273.0" r="3" fill="#ef4444"/>
<circle cx="391.8" cy="290.1" r="3" fill="#ef4444"/>
<circle cx="415.0" cy="307.2" r="3" fill="#ef4444"/>
<circle cx="438.2" cy="324.2" r="3" fill="#ef4444"/>
<circle cx="461.4" cy="341.3" r="3" fill="#ef4444"/>
<circle cx="484.6" cy="358.3" r="3" fill="#ef4444"/>
<circle cx="507.9" cy="375.4" r="3" fill="#ef4444"/>
<circle cx="531.1" cy="392.4" r="3" fill="#ef4444"/>
<circle cx="554.3" cy="409.5" r="3" fill="#ef4444"/>
<circle cx="600.7" cy="443.6" r="3" fill="#ef4444"/>
<circle cx="647.1" cy="477.7" r="3" fill="#ef4444"/>
<circle cx="740.0" cy="546.0" r="3" fill="#ef4444"/>
<circle cx="832.9" cy="614.2" r="3" fill="#ef4444"/>
<polyline fill="none" stroke="#1a6b3c" stroke-width="2" points="188.8,105.7 240.6,138.6 289.4,178.6 335.9,181.6 383.1,243.3 429.6,297.4 475.8,224.6 529.7,362.7 576.1,521.7"/>
<polygon points="188.8,101.7 192.8,105.7 188.8,109.7 184.8,105.7" fill="#1a6b3c"/>
<polygon points="240.6,134.6 244.6,138.6 240.6,142.6 236.6,138.6" fill="#1a6b3c"/>
<polygon points="289.4,174.6 293.4,178.6 289.4,182.6 285.4,178.6" fill="#1a6b3c"/>
<polygon points="335.9,177.6 339.9,181.6 335.9,185.6 331.9,181.6" fill="#1a6b3c"/>
<polygon points="383.1,239.3 387.1,243.3 383.1,247.3 379.1,243.3" fill="#1a6b3c"/>
<polygon points="429.6,293.4 433.6,297.4 429.6,301.4 425.6,297.4" fill="#1a6b3c"/>
<polygon points="475.8,220.6 479.8,224.6 475.8,228.6 471.8,224.6" fill="#1a6b3c"/>
<polygon points="529.7,358.7 533.7,362.7 529.7,366.7 525.7,362.7" fill="#1a6b3c"/>
<polygon points="576.1,517.7 580.1,521.7 576.1,525.7 572.1,521.7" fill="#1a6b3c"/>
<polyline fill="none" stroke="#1a3a6b" stroke-width="2" points="168.2,85.2 214.4,99.7 261.1,106.9 307.7,109.0 353.9,109.5 400.1,109.5 446.8,109.6 493.5,109.6 539.6,109.6"/>
<polygon points="168.2,80.2 167.0,83.6 163.5,83.7 166.3,85.9 165.3,89.3 168.2,87.2 171.2,89.3 170.1,85.9 173.0,83.7 169.4,83.6" fill="#1a3a6b"/>
<polygon points="214.4,94.7 213.2,98.1 209.7,98.2 212.5,100.4 211.5,103.8 214.4,101.7 217.4,103.8 216.3,100.4 219.2,98.2 215.6,98.1" fill="#1a3a6b"/>
<polygon points="261.1,101.9 259.9,105.3 256.3,105.3 259.2,107.5 258.1,110.9 261.1,108.9 264.0,110.9 263.0,107.5 265.8,105.3 262.3,105.3" fill="#1a3a6b"/>
<polygon points="307.7,104.0 306.6,107.4 303.0,107.5 305.8,109.7 304.8,113.1 307.7,111.0 310.7,113.1 309.6,109.7 312.5,107.5 308.9,107.4" fill="#1a3a6b"/>
<polygon points="353.9,104.5 352.8,107.9 349.2,107.9 352.0,110.1 351.0,113.5 353.9,111.5 356.9,113.5 355.8,110.1 358.7,107.9 355.1,107.9" fill="#1a3a6b"/>
<polygon points="400.1,104.5 399.0,107.9 395.4,108.0 398.2,110.2 397.2,113.6 400.1,111.5 403.1,113.6 402.0,110.2 404.9,108.0 401.3,107.9" fill="#1a3a6b"/>
<polygon points="446.8,104.6 445.6,107.9 442.0,108.0 444.9,110.2 443.9,113.6 446.8,111.6 449.7,113.6 448.7,110.2 451.6,108.0 448.0,107.9" fill="#1a3a6b"/>
<polygon points="493.5,104.6 492.3,107.9 488.7,108.0 491.6,110.2 490.5,113.6 493.5,111.6 496.4,113.6 495.4,110.2 498.2,108.0 494.6,107.9" fill="#1a3a6b"/>
<polygon points="539.6,104.6 538.5,107.9 534.9,108.0 537.7,110.2 536.7,113.6 539.6,111.6 542.6,113.6 541.6,110.2 544.4,108.0 540.8,107.9" fill="#1a3a6b"/>
<polyline fill="none" stroke="#111111" stroke-width="2" points="382.2,110.0"/>
<rect x="379.2" y="107.0" width="6" height="6" fill="#111111"/>
<polyline fill="none" stroke="#111111" stroke-width="2" points="567.9,110.0"/>
<polygon points="567.9,106.0 571.9,113.0 563.9,113.0" fill="#111111"/>
<polyline fill="none" stroke="#111111" stroke-width="2" points="567.9,296.4"/>
<polygon points="567.9,292.4 571.9,296.4 567.9,300.4 563.9,296.4" fill="#111111"/>
<polyline fill="none" stroke="#2a7fff" stroke-width="2" points="90.0,68.3 90.0,68.3 90.0,68.3 90.0,68.3 90.0,68.3 90.0,68.3 90.1,68.3 90.1,68.3 90.3,68.3 90.5,68.3 91.1,68.3 92.2,68.3 94.4,68.3 98.7,68.3 107.2,68.8 121.7,71.9 142.6,79.6 195.8,105.9 248.8,139.0 345.1,219.0 438.2,282.5"/>
<rect x="87.0" y="65.3" width="6" height="6" fill="#2a7fff"/>
<rect x="87.0" y="65.3" width="6" height="6" fill="#2a7fff"/>
<rect x="87.0" y="65.3" width="6" height="6" fill="#2a7fff"/>
<rect x="87.0" y="65.3" width="6" height="6" fill="#2a7fff"/>
<rect x="87.0" y="65.3" width="6" height="6" fill="#2a7fff"/>
<rect x="87.0" y="65.3" width="6" height="6" fill="#2a7fff"/>
<rect x="87.1" y="65.3" width="6" height="6" fill="#2a7fff"/>
<rect x="87.1" y="65.3" width="6" height="6" fill="#2a7fff"/>
<rect x="87.3" y="65.3" width="6" height="6" fill="#2a7fff"/>
<rect x="87.5" y="65.3" width="6" height="6" fill="#2a7fff"/>
<rect x="88.1" y="65.3" width="6" height="6" fill="#2a7fff"/>
<rect x="89.2" y="65.3" width="6" height="6" fill="#2a7fff"/>
<rect x="91.4" y="65.3" width="6" height="6" fill="#2a7fff"/>
<rect x="95.7" y="65.3" width="6" height="6" fill="#2a7fff"/>
<rect x="104.2" y="65.8" width="6" height="6" fill="#2a7fff"/>
<rect x="118.7" y="68.9" width="6" height="6" fill="#2a7fff"/>
<rect x="139.6" y="76.6" width="6" height="6" fill="#2a7fff"/>
<rect x="192.8" y="102.9" width="6" height="6" fill="#2a7fff"/>
<rect x="245.8" y="136.0" width="6" height="6" fill="#2a7fff"/>
<rect x="342.1" y="216.0" width="6" height="6" fill="#2a7fff"/>
<rect x="435.2" y="279.5" width="6" height="6" fill="#2a7fff"/>
<polyline fill="none" stroke="#9b59b6" stroke-width="2" points="90.0,68.3 90.0,68.3 90.0,68.3 90.0,68.3 90.0,68.3 90.0,68.3 90.1,68.3 90.1,68.3 90.3,68.3 90.5,68.3 91.1,68.3 92.2,68.4 94.1,68.7 97.0,69.5 100.8,70.5 104.8,71.3 108.7,71.8 116.3,72.2 123.5,72.3 137.6,72.3 151.5,72.4"/>
<polygon points="90.0,64.3 94.0,71.3 86.0,71.3" fill="#9b59b6"/>
<polygon points="90.0,64.3 94.0,71.3 86.0,71.3" fill="#9b59b6"/>
<polygon points="90.0,64.3 94.0,71.3 86.0,71.3" fill="#9b59b6"/>
<polygon points="90.0,64.3 94.0,71.3 86.0,71.3" fill="#9b59b6"/>
<polygon points="90.0,64.3 94.0,71.3 86.0,71.3" fill="#9b59b6"/>
<polygon points="90.0,64.3 94.0,71.3 86.0,71.3" fill="#9b59b6"/>
<polygon points="90.1,64.3 94.1,71.3 86.1,71.3" fill="#9b59b6"/>
<polygon points="90.1,64.3 94.1,71.3 86.1,71.3" fill="#9b59b6"/>
<polygon points="90.3,64.3 94.3,71.3 86.3,71.3" fill="#9b59b6"/>
<polygon points="90.5,64.3 94.5,71.3 86.5,71.3" fill="#9b59b6"/>
<polygon points="91.1,64.3 95.1,71.3 87.1,71.3" fill="#9b59b6"/>
<polygon points="92.2,64.4 96.2,71.4 88.2,71.4" fill="#9b59b6"/>
<polygon points="94.1,64.7 98.1,71.7 90.1,71.7" fill="#9b59b6"/>
<polygon points="97.0,65.5 101.0,72.5 93.0,72.5" fill="#9b59b6"/>
<polygon points="100.8,66.5 104.8,73.5 96.8,73.5" fill="#9b59b6"/>
<polygon points="104.8,67.3 108.8,74.3 100.8,74.3" fill="#9b59b6"/>
<polygon points="108.7,67.8 112.7,74.8 104.7,74.8" fill="#9b59b6"/>
<polygon points="116.3,68.2 120.3,75.2 112.3,75.2" fill="#9b59b6"/>
<polygon points="123.5,68.3 127.5,75.3 119.5,75.3" fill="#9b59b6"/>
<polygon points="137.6,68.3 141.6,75.3 133.6,75.3" fill="#9b59b6"/>
<polygon points="151.5,68.4 155.5,75.4 147.5,75.4" fill="#9b59b6"/>
<polyline fill="none" stroke="#4dd88a" stroke-width="2" points="90.0,68.3 90.0,68.3 90.0,68.3 90.0,68.3 90.0,68.3 90.0,68.3 90.1,68.3 90.1,68.3 90.3,68.3 90.5,68.3 91.1,68.3 92.2,68.3 94.4,68.3 98.7,68.3 107.2,68.8 121.7,71.9 142.6,79.6 195.8,105.9 248.8,139.0 345.1,219.0 438.2,282.5"/>
<polygon points="90.0,64.3 94.0,68.3 90.0,72.3 86.0,68.3" fill="#4dd88a"/>
<polygon points="90.0,64.3 94.0,68.3 90.0,72.3 86.0,68.3" fill="#4dd88a"/>
<polygon points="90.0,64.3 94.0,68.3 90.0,72.3 86.0,68.3" fill="#4dd88a"/>
<polygon points="90.0,64.3 94.0,68.3 90.0,72.3 86.0,68.3" fill="#4dd88a"/>
<polygon points="90.0,64.3 94.0,68.3 90.0,72.3 86.0,68.3" fill="#4dd88a"/>
<polygon points="90.0,64.3 94.0,68.3 90.0,72.3 86.0,68.3" fill="#4dd88a"/>
<polygon points="90.1,64.3 94.1,68.3 90.1,72.3 86.1,68.3" fill="#4dd88a"/>
<polygon points="90.1,64.3 94.1,68.3 90.1,72.3 86.1,68.3" fill="#4dd88a"/>
<polygon points="90.3,64.3 94.3,68.3 90.3,72.3 86.3,68.3" fill="#4dd88a"/>
<polygon points="90.5,64.3 94.5,68.3 90.5,72.3 86.5,68.3" fill="#4dd88a"/>
<polygon points="91.1,64.3 95.1,68.3 91.1,72.3 87.1,68.3" fill="#4dd88a"/>
<polygon points="92.2,64.3 96.2,68.3 92.2,72.3 88.2,68.3" fill="#4dd88a"/>
<polygon points="94.4,64.3 98.4,68.3 94.4,72.3 90.4,68.3" fill="#4dd88a"/>
<polygon points="98.7,64.3 102.7,68.3 98.7,72.3 94.7,68.3" fill="#4dd88a"/>
<polygon points="107.2,64.8 111.2,68.8 107.2,72.8 103.2,68.8" fill="#4dd88a"/>
<polygon points="121.7,67.9 125.7,71.9 121.7,75.9 117.7,71.9" fill="#4dd88a"/>
<polygon points="142.6,75.6 146.6,79.6 142.6,83.6 138.6,79.6" fill="#4dd88a"/>
<polygon points="195.8,101.9 199.8,105.9 195.8,109.9 191.8,105.9" fill="#4dd88a"/>
<polygon points="248.8,135.0 252.8,139.0 248.8,143.0 244.8,139.0" fill="#4dd88a"/>
<polygon points="345.1,215.0 349.1,219.0 345.1,223.0 341.1,219.0" fill="#4dd88a"/>
<polygon points="438.2,278.5 442.2,282.5 438.2,286.5 434.2,282.5" fill="#4dd88a"/>
<polyline fill="none" stroke="#ff6b6b" stroke-width="2" points="90.0,68.3 90.0,68.3 90.0,68.3 90.1,68.3 90.1,68.3 90.2,68.3 90.4,68.3 90.8,68.3 91.6,68.3 93.3,68.3 96.3,68.3 101.9,68.4 111.3,71.9 125.5,82.3 145.2,91.0 168.9,102.6 194.8,116.6 247.5,149.9 297.3,193.2 386.6,300.0 468.3,385.3"/>
<polygon points="90.0,63.3 88.8,66.7 85.3,66.8 88.1,69.0 87.1,72.4 90.0,70.3 93.0,72.4 91.9,69.0 94.8,66.8 91.2,66.7" fill="#ff6b6b"/>
<polygon points="90.0,63.3 88.9,66.7 85.3,66.8 88.1,69.0 87.1,72.4 90.0,70.3 93.0,72.4 91.9,69.0 94.8,66.8 91.2,66.7" fill="#ff6b6b"/>
<polygon points="90.0,63.3 88.9,66.7 85.3,66.8 88.1,69.0 87.1,72.4 90.0,70.3 93.0,72.4 91.9,69.0 94.8,66.8 91.2,66.7" fill="#ff6b6b"/>
<polygon points="90.1,63.3 88.9,66.7 85.3,66.8 88.2,69.0 87.1,72.4 90.1,70.3 93.0,72.4 92.0,69.0 94.8,66.8 91.2,66.7" fill="#ff6b6b"/>
<polygon points="90.1,63.3 88.9,66.7 85.4,66.8 88.2,69.0 87.2,72.4 90.1,70.3 93.1,72.4 92.0,69.0 94.9,66.8 91.3,66.7" fill="#ff6b6b"/>
<polygon points="90.2,63.3 89.0,66.7 85.5,66.8 88.3,69.0 87.3,72.4 90.2,70.3 93.2,72.4 92.1,69.0 95.0,66.8 91.4,66.7" fill="#ff6b6b"/>
<polygon points="90.4,63.3 89.2,66.7 85.7,66.8 88.5,69.0 87.5,72.4 90.4,70.3 93.4,72.4 92.3,69.0 95.2,66.8 91.6,66.7" fill="#ff6b6b"/>
<polygon points="90.8,63.3 89.7,66.7 86.1,66.8 88.9,69.0 87.9,72.4 90.8,70.3 93.8,72.4 92.7,69.0 95.6,66.8 92.0,66.7" fill="#ff6b6b"/>
<polygon points="91.6,63.3 90.5,66.7 86.9,66.8 89.7,69.0 88.7,72.4 91.6,70.3 94.6,72.4 93.5,69.0 96.4,66.8 92.8,66.7" fill="#ff6b6b"/>
<polygon points="93.3,63.3 92.1,66.7 88.5,66.8 91.4,69.0 90.3,72.4 93.3,70.3 96.2,72.4 95.2,69.0 98.0,66.8 94.4,66.7" fill="#ff6b6b"/>
<polygon points="96.3,63.3 95.2,66.7 91.6,66.8 94.4,69.0 93.4,72.4 96.3,70.3 99.3,72.4 98.3,69.0 101.1,66.8 97.5,66.7" fill="#ff6b6b"/>
<polygon points="101.9,63.4 100.8,66.7 97.2,66.8 100.0,69.0 99.0,72.4 101.9,70.4 104.9,72.4 103.8,69.0 106.7,66.8 103.1,66.7" fill="#ff6b6b"/>
<polygon points="111.3,66.9 110.1,70.3 106.5,70.4 109.4,72.5 108.3,76.0 111.3,73.9 114.2,76.0 113.2,72.5 116.0,70.4 112.4,70.3" fill="#ff6b6b"/>
<polygon points="125.5,77.3 124.3,80.6 120.7,80.7 123.6,82.9 122.5,86.3 125.5,84.3 128.4,86.3 127.4,82.9 130.2,80.7 126.7,80.6" fill="#ff6b6b"/>
<polygon points="145.2,86.0 144.0,89.4 140.5,89.5 143.3,91.7 142.3,95.1 145.2,93.0 148.2,95.1 147.1,91.7 150.0,89.5 146.4,89.4" fill="#ff6b6b"/>
<polygon points="168.9,97.6 167.7,101.0 164.1,101.1 167.0,103.2 166.0,106.7 168.9,104.6 171.8,106.7 170.8,103.2 173.7,101.1 170.1,101.0" fill="#ff6b6b"/>
<polygon points="194.8,111.6 193.7,115.0 190.1,115.0 192.9,117.2 191.9,120.6 194.8,118.6 197.8,120.6 196.8,117.2 199.6,115.0 196.0,115.0" fill="#ff6b6b"/>
<polygon points="247.5,144.9 246.3,148.3 242.8,148.4 245.6,150.6 244.6,154.0 247.5,151.9 250.5,154.0 249.4,150.6 252.3,148.4 248.7,148.3" fill="#ff6b6b"/>
<polygon points="297.3,188.2 296.1,191.6 292.5,191.7 295.4,193.8 294.3,197.3 297.3,195.2 300.2,197.3 299.2,193.8 302.0,191.7 298.4,191.6" fill="#ff6b6b"/>
<polygon points="386.6,295.0 385.4,298.3 381.8,298.4 384.7,300.6 383.6,304.0 386.6,302.0 389.5,304.0 388.5,300.6 391.3,298.4 387.7,298.3" fill="#ff6b6b"/>
<polygon points="468.3,380.3 467.1,383.6 463.5,383.7 466.4,385.9 465.3,389.3 468.3,387.3 471.2,389.3 470.2,385.9 473.0,383.7 469.4,383.6" fill="#ff6b6b"/>
<polyline fill="none" stroke="#ff922b" stroke-width="2" points="291.5,122.1 318.0,139.2 343.3,157.6 367.7,176.9 391.3,195.9 414.7,215.1 438.1,231.3 461.3,244.0 507.8,252.6 531.0,253.0"/>
<circle cx="291.5" cy="122.1" r="3" fill="#ff922b"/>
<circle cx="318.0" cy="139.2" r="3" fill="#ff922b"/>
<circle cx="343.3" cy="157.6" r="3" fill="#ff922b"/>
<circle cx="367.7" cy="176.9" r="3" fill="#ff922b"/>
<circle cx="391.3" cy="195.9" r="3" fill="#ff922b"/>
<circle cx="414.7" cy="215.1" r="3" fill="#ff922b"/>
<circle cx="438.1" cy="231.3" r="3" fill="#ff922b"/>
<circle cx="461.3" cy="244.0" r="3" fill="#ff922b"/>
<circle cx="507.8" cy="252.6" r="3" fill="#ff922b"/>
<circle cx="531.0" cy="253.0" r="3" fill="#ff922b"/>
<polyline fill="none" stroke="#888888" stroke-width="2" stroke-dasharray="8,5" points="201.3,124.4 234.7,141.7 279.0,164.3 312.5,181.8 346.0,198.5 390.3,220.0 423.8,238.9 457.3,256.5 501.5,273.8 535.0,300.0"/>
<circle cx="201.3" cy="124.4" r="3" fill="#888888"/>
<circle cx="234.7" cy="141.7" r="3" fill="#888888"/>
<circle cx="279.0" cy="164.3" r="3" fill="#888888"/>
<circle cx="312.5" cy="181.8" r="3" fill="#888888"/>
<circle cx="346.0" cy="198.5" r="3" fill="#888888"/>
<circle cx="390.3" cy="220.0" r="3" fill="#888888"/>
<circle cx="423.8" cy="238.9" r="3" fill="#888888"/>
<circle cx="457.3" cy="256.5" r="3" fill="#888888"/>
<circle cx="501.5" cy="273.8" r="3" fill="#888888"/>
<circle cx="535.0" cy="300.0" r="3" fill="#888888"/>
<line x1="886" y1="60" x2="902" y2="60" stroke="#ef4444" stroke-width="2" stroke-dasharray="8,5"/>
<circle cx="894.0" cy="60.0" r="3" fill="#ef4444"/>
<text class="label" x="908" y="64">Theoretical</text>
<line x1="886" y1="78" x2="902" y2="78" stroke="#1a6b3c" stroke-width="2"/>
<polygon points="894.0,74.0 898.0,78.0 894.0,82.0 890.0,78.0" fill="#1a6b3c"/>
<text class="label" x="908" y="82">Grafite</text>
<line x1="886" y1="96" x2="902" y2="96" stroke="#1a3a6b" stroke-width="2"/>
<polygon points="894.0,91.0 892.8,94.4 889.2,94.5 892.1,96.6 891.1,100.0 894.0,98.0 896.9,100.0 895.9,96.6 898.8,94.5 895.2,94.4" fill="#1a3a6b"/>
<text class="label" x="908" y="100">SNARF</text>
<line x1="886" y1="114" x2="902" y2="114" stroke="#111111" stroke-width="2"/>
<rect x="891.0" y="111.0" width="6" height="6" fill="#111111"/>
<text class="label" x="908" y="118">SuRF</text>
<line x1="886" y1="132" x2="902" y2="132" stroke="#111111" stroke-width="2"/>
<polygon points="894.0,128.0 898.0,135.0 890.0,135.0" fill="#111111"/>
<text class="label" x="908" y="136">SuRFHash(8)</text>
<line x1="886" y1="150" x2="902" y2="150" stroke="#111111" stroke-width="2"/>
<polygon points="894.0,146.0 898.0,150.0 894.0,154.0 890.0,150.0" fill="#111111"/>
<text class="label" x="908" y="154">SuRFReal(8)</text>
<line x1="886" y1="168" x2="902" y2="168" stroke="#2a7fff" stroke-width="2"/>
<rect x="891.0" y="165.0" width="6" height="6" fill="#2a7fff"/>
<text class="label" x="908" y="172">Adaptive (t=0)</text>
<line x1="886" y1="186" x2="902" y2="186" stroke="#9b59b6" stroke-width="2"/>
<polygon points="894.0,182.0 898.0,189.0 890.0,189.0" fill="#9b59b6"/>
<text class="label" x="908" y="190">Truncation</text>
<line x1="886" y1="204" x2="902" y2="204" stroke="#4dd88a" stroke-width="2"/>
<polygon points="894.0,200.0 898.0,204.0 894.0,208.0 890.0,204.0" fill="#4dd88a"/>
<text class="label" x="908" y="208">SODA</text>
<line x1="886" y1="222" x2="902" y2="222" stroke="#ff6b6b" stroke-width="2"/>
<polygon points="894.0,217.0 892.8,220.4 889.2,220.5 892.1,222.6 891.1,226.0 894.0,224.0 896.9,226.0 895.9,222.6 898.8,220.5 895.2,220.4" fill="#ff6b6b"/>
<text class="label" x="908" y="226">Hybrid</text>
<line x1="886" y1="240" x2="902" y2="240" stroke="#ff922b" stroke-width="2"/>
<circle cx="894.0" cy="240.0" r="3" fill="#ff922b"/>
<text class="label" x="908" y="244">CDF-ARE</text>
<line x1="886" y1="258" x2="902" y2="258" stroke="#888888" stroke-width="2" stroke-dasharray="8,5"/>
<circle cx="894.0" cy="258.0" r="3" fill="#888888"/>
<text class="label" x="908" y="262">BloomARE</text>
<text x="480" y="590" text-anchor="middle">Bits per Key (BPK)</text>
<text transform="translate(16,295) rotate(-90)" text-anchor="middle">False Positive Rate (FPR)</text>
</svg>
