<svg xmlns="http://www.w3.org/2000/svg" width="1020" height="600" viewBox="0 0 1020 600">
<style>text{font-family:Menlo,Monaco,monospace;font-size:12px;fill:#222} .axis{stroke:#333;stroke-width:1} .grid{stroke:#eee;stroke-width:0.5} .label{font-size:11px;fill:#444}</style>
<text x="510" y="28" text-anchor="middle" style="font-size:14px;font-weight:bold">FPR vs BPK — clustered (60-bit keys, n=1048576, L=1024)</text>
<line class="axis" x1="90.0" y1="550.0" x2="870.0" y2="550.0"/>
<line class="axis" x1="90.0" y1="40.0" x2="90.0" y2="550.0"/>
<line class="grid" x1="90.0" y1="518.1" x2="870.0" y2="518.1"/>
<text class="label" x="82.0" y="522.1" text-anchor="end">10^-7</text>
<line class="grid" x1="90.0" y1="454.4" x2="870.0" y2="454.4"/>
<text class="label" x="82.0" y="458.4" text-anchor="end">10^-6</text>
<line class="grid" x1="90.0" y1="390.6" x2="870.0" y2="390.6"/>
<text class="label" x="82.0" y="394.6" text-anchor="end">10^-5</text>
<line class="grid" x1="90.0" y1="326.9" x2="870.0" y2="326.9"/>
<text class="label" x="82.0" y="330.9" text-anchor="end">10^-4</text>
<line class="grid" x1="90.0" y1="263.1" x2="870.0" y2="263.1"/>
<text class="label" x="82.0" y="267.1" text-anchor="end">10^-3</text>
<line class="grid" x1="90.0" y1="199.4" x2="870.0" y2="199.4"/>
<text class="label" x="82.0" y="203.4" text-anchor="end">10^-2</text>
<line class="grid" x1="90.0" y1="135.6" x2="870.0" y2="135.6"/>
<text class="label" x="82.0" y="139.6" text-anchor="end">10^-1</text>
<line class="grid" x1="90.0" y1="71.9" x2="870.0" y2="71.9"/>
<text class="label" x="82.0" y="75.9" text-anchor="end">1</text>
<line class="grid" x1="90.0" y1="40.0" x2="90.0" y2="550.0"/>
<text class="label" x="90.0" y="566.0" text-anchor="middle">0</text>
<line class="grid" x1="200.6" y1="40.0" x2="200.6" y2="550.0"/>
<text class="label" x="200.6" y="566.0" text-anchor="middle">5</text>
<line class="grid" x1="311.1" y1="40.0" x2="311.1" y2="550.0"/>
<text class="label" x="311.1" y="566.0" text-anchor="middle">10</text>
<line class="grid" x1="421.7" y1="40.0" x2="421.7" y2="550.0"/>
<text class="label" x="421.7" y="566.0" text-anchor="middle">15</text>
<line class="grid" x1="532.2" y1="40.0" x2="532.2" y2="550.0"/>
<text class="label" x="532.2" y="566.0" text-anchor="middle">20</text>
<line class="grid" x1="642.8" y1="40.0" x2="642.8" y2="550.0"/>
<text class="label" x="642.8" y="566.0" text-anchor="middle">25</text>
<line class="grid" x1="753.3" y1="40.0" x2="753.3" y2="550.0"/>
<text class="label" x="753.3" y="566.0" text-anchor="middle">30</text>
<line class="grid" x1="863.9" y1="40.0" x2="863.9" y2="550.0"/>
<text class="label" x="863.9" y="566.0" text-anchor="middle">35</text>
<polyline fill="none" stroke="#ef4444" stroke-width="2" stroke-dasharray="8,5" points="311.1,71.9 333.2,91.1 355.3,110.3 377.4,129.4 399.6,148.6 421.7,167.8 443.8,187.0 465.9,206.2 488.0,225.4 510.1,244.6 532.2,263.8 576.4,302.2 620.7,340.5 709.1,417.3 797.5,494.1"/>
<circle cx="311.1" cy="71.9" r="3" fill="#ef4444"/>
<circle cx="333.2" cy="91.1" r="3" fill="#ef4444"/>
<circle cx="355.3" cy="110.3" r="3" fill="#ef4444"/>
<circle cx="377.4" cy="129.4" r="3" fill="#ef4444"/>
<circle cx="399.6" cy="148.6" r="3" fill="#ef4444"/>
<circle cx="421.7" cy="167.8" r="3" fill="#ef4444"/>
<circle cx="443.8" cy="187.0" r="3" fill="#ef4444"/>
<circle cx="465.9" cy="206.2" r="3" fill="#ef4444"/>
<circle cx="488.0" cy="225.4" r="3" fill="#ef4444"/>
<circle cx="510.1" cy="244.6" r="3" fill="#ef4444"/>
<circle cx="532.2" cy="263.8" r="3" fill="#ef4444"/>
<circle cx="576.4" cy="302.2" r="3" fill="#ef4444"/>
<circle cx="620.7" cy="340.5" r="3" fill="#ef4444"/>
<circle cx="709.1" cy="417.3" r="3" fill="#ef4444"/>
<circle cx="797.5" cy="494.1" r="3" fill="#ef4444"/>
<polyline fill="none" stroke="#1a6b3c" stroke-width="2" points="184.1,71.9 233.4,71.9 279.8,71.9 324.8,78.2 369.1,99.3 413.4,120.7 457.7,187.4 508.8,226.1 553.0,263.9"/>
<polygon points="184.1,67.9 188.1,71.9 184.1,75.9 180.1,71.9" fill="#1a6b3c"/>
<polygon points="233.4,67.9 237.4,71.9 233.4,75.9 229.4,71.9" fill="#1a6b3c"/>
<polygon points="279.8,67.9 283.8,71.9 279.8,75.9 275.8,71.9" fill="#1a6b3c"/>
<polygon points="324.8,74.2 328.8,78.2 324.8,82.2 320.8,78.2" fill="#1a6b3c"/>
<polygon points="369.1,95.3 373.1,99.3 369.1,103.3 365.1,99.3" fill="#1a6b3c"/>
<polygon points="413.4,116.7 417.4,120.7 413.4,124.7 409.4,120.7" fill="#1a6b3c"/>
<polygon points="457.7,183.4 461.7,187.4 457.7,191.4 453.7,187.4" fill="#1a6b3c"/>
<polygon points="508.8,222.1 512.8,226.1 508.8,230.1 504.8,226.1" fill="#1a6b3c"/>
<polygon points="553.0,259.9 557.0,263.9 553.0,267.9 549.0,263.9" fill="#1a6b3c"/>
<polyline fill="none" stroke="#1a3a6b" stroke-width="2" points="164.5,88.1 208.5,99.0 253.0,103.7 297.4,105.1 341.4,105.4 385.4,105.5 429.8,105.5 474.3,105.5 518.3,105.5"/>
<polygon points="164.5,83.1 163.3,86.5 159.7,86.6 162.6,88.7 161.6,92.1 164.5,90.1 167.4,92.1 166.4,88.7 169.3,86.6 165.7,86.5" fill="#1a3a6b"/>
<polygon points="208.5,94.0 207.3,97.4 203.8,97.5 206.6,99.6 205.6,103.1 208.5,101.0 211.4,103.1 210.4,99.6 213.3,97.5 209.7,97.4" fill="#1a3a6b"/>
<polygon points="253.0,98.7 251.8,102.1 248.2,102.1 251.1,104.3 250.0,107.7 253.0,105.7 255.9,107.7 254.9,104.3 257.7,102.1 254.1,102.1" fill="#1a3a6b"/>
<polygon points="297.4,100.1 296.2,103.4 292.6,103.5 295.5,105.7 294.5,109.1 297.4,107.1 300.3,109.1 299.3,105.7 302.1,103.5 298.6,103.4" fill="#1a3a6b"/>
<polygon points="341.4,100.4 340.2,103.8 336.6,103.9 339.5,106.0 338.5,109.5 341.4,107.4 344.3,109.5 343.3,106.0 346.1,103.9 342.6,103.8" fill="#1a3a6b"/>
<polygon points="385.4,100.5 384.2,103.9 380.6,104.0 383.5,106.1 382.5,109.6 385.4,107.5 388.3,109.6 387.3,106.1 390.1,104.0 386.6,103.9" fill="#1a3a6b"/>
<polygon points="429.8,100.5 428.7,103.9 425.1,104.0 427.9,106.1 426.9,109.6 429.8,107.5 432.8,109.6 431.7,106.1 434.6,104.0 431.0,103.9" fill="#1a3a6b"/>
<polygon points="474.3,100.5 473.1,103.9 469.5,104.0 472.4,106.1 471.3,109.6 474.3,107.5 477.2,109.6 476.2,106.1 479.0,104.0 475.5,103.9" fill="#1a3a6b"/>
<polygon points="518.3,100.5 517.1,103.9 513.5,104.0 516.4,106.1 515.3,109.6 518.3,107.5 521.2,109.6 520.2,106.1 523.0,104.0 519.5,103.9" fill="#1a3a6b"/>
<polyline fill="none" stroke="#111111" stroke-width="2" points="368.3,126.3"/>
<rect x="365.3" y="123.3" width="6" height="6" fill="#111111"/>
<polyline fill="none" stroke="#111111" stroke-width="2" points="545.2,126.3"/>
<polygon points="545.2,122.3 549.2,129.3 541.2,129.3" fill="#111111"/>
<polyline fill="none" stroke="#111111" stroke-width="2" points="545.2,302.2"/>
<polygon points="545.2,298.2 549.2,302.2 545.2,306.2 541.2,302.2" fill="#111111"/>
<polyline fill="none" stroke="#2a7fff" stroke-width="2" points="90.0,71.9 90.0,71.9 90.0,71.9 90.0,71.9 90.0,71.9 90.0,71.9 90.1,71.9 90.1,71.9 90.3,71.9 90.5,71.9 91.0,71.9 92.1,71.9 94.1,71.9 98.3,71.9 106.4,71.9 120.2,71.9 140.1,71.9 190.7,71.9 241.3,71.9 333.0,78.1 421.6,137.9"/>
<rect x="87.0" y="68.9" width="6" height="6" fill="#2a7fff"/>
<rect x="87.0" y="68.9" width="6" height="6" fill="#2a7fff"/>
<rect x="87.0" y="68.9" width="6" height="6" fill="#2a7fff"/>
<rect x="87.0" y="68.9" width="6" height="6" fill="#2a7fff"/>
<rect x="87.0" y="68.9" width="6" height="6" fill="#2a7fff"/>
<rect x="87.0" y="68.9" width="6" height="6" fill="#2a7fff"/>
<rect x="87.1" y="68.9" width="6" height="6" fill="#2a7fff"/>
<rect x="87.1" y="68.9" width="6" height="6" fill="#2a7fff"/>
<rect x="87.3" y="68.9" width="6" height="6" fill="#2a7fff"/>
<rect x="87.5" y="68.9" width="6" height="6" fill="#2a7fff"/>
<rect x="88.0" y="68.9" width="6" height="6" fill="#2a7fff"/>
<rect x="89.1" y="68.9" width="6" height="6" fill="#2a7fff"/>
<rect x="91.1" y="68.9" width="6" height="6" fill="#2a7fff"/>
<rect x="95.3" y="68.9" width="6" height="6" fill="#2a7fff"/>
<rect x="103.4" y="68.9" width="6" height="6" fill="#2a7fff"/>
<rect x="117.2" y="68.9" width="6" height="6" fill="#2a7fff"/>
<rect x="137.1" y="68.9" width="6" height="6" fill="#2a7fff"/>
<rect x="187.7" y="68.9" width="6" height="6" fill="#2a7fff"/>
<rect x="238.3" y="68.9" width="6" height="6" fill="#2a7fff"/>
<rect x="330.0" y="75.1" width="6" height="6" fill="#2a7fff"/>
<rect x="418.6" y="134.9" width="6" height="6" fill="#2a7fff"/>
<polyline fill="none" stroke="#9b59b6" stroke-width="2" points="90.0,71.9 90.0,71.9 90.0,71.9 90.0,71.9 90.0,71.9 90.0,71.9 90.1,71.9 90.1,71.9 90.3,71.9 90.5,71.9 91.0,71.9 92.1,72.0 93.9,72.9 96.6,75.4 100.3,78.6 104.1,81.4 107.9,83.3 115.1,85.1 121.9,85.6 135.3,85.7 148.6,85.7"/>
<polygon points="90.0,67.9 94.0,74.9 86.0,74.9" fill="#9b59b6"/>
<polygon points="90.0,67.9 94.0,74.9 86.0,74.9" fill="#9b59b6"/>
<polygon points="90.0,67.9 94.0,74.9 86.0,74.9" fill="#9b59b6"/>
<polygon points="90.0,67.9 94.0,74.9 86.0,74.9" fill="#9b59b6"/>
<polygon points="90.0,67.9 94.0,74.9 86.0,74.9" fill="#9b59b6"/>
<polygon points="90.0,67.9 94.0,74.9 86.0,74.9" fill="#9b59b6"/>
<polygon points="90.1,67.9 94.1,74.9 86.1,74.9" fill="#9b59b6"/>
<polygon points="90.1,67.9 94.1,74.9 86.1,74.9" fill="#9b59b6"/>
<polygon points="90.3,67.9 94.3,74.9 86.3,74.9" fill="#9b59b6"/>
<polygon points="90.5,67.9 94.5,74.9 86.5,74.9" fill="#9b59b6"/>
<polygon points="91.0,67.9 95.0,74.9 87.0,74.9" fill="#9b59b6"/>
<polygon points="92.1,68.0 96.1,75.0 88.1,75.0" fill="#9b59b6"/>
<polygon points="93.9,68.9 97.9,75.9 89.9,75.9" fill="#9b59b6"/>
<polygon points="96.6,71.4 100.6,78.4 92.6,78.4" fill="#9b59b6"/>
<polygon points="100.3,74.6 104.3,81.6 96.3,81.6" fill="#9b59b6"/>
<polygon points="104.1,77.4 108.1,84.4 100.1,84.4" fill="#9b59b6"/>
<polygon points="107.9,79.3 111.9,86.3 103.9,86.3" fill="#9b59b6"/>
<polygon points="115.1,81.1 119.1,88.1 111.1,88.1" fill="#9b59b6"/>
<polygon points="121.9,81.6 125.9,88.6 117.9,88.6" fill="#9b59b6"/>
<polygon points="135.3,81.7 139.3,88.7 131.3,88.7" fill="#9b59b6"/>
<polygon points="148.6,81.7 152.6,88.7 144.6,88.7" fill="#9b59b6"/>
<polyline fill="none" stroke="#4dd88a" stroke-width="2" points="90.0,71.9 90.0,71.9 90.0,71.9 90.0,71.9 90.0,71.9 90.0,71.9 90.1,71.9 90.1,71.9 90.3,71.9 90.5,71.9 91.0,71.9 92.1,71.9 94.1,71.9 98.3,71.9 106.4,71.9 120.2,71.9 140.1,71.9 190.7,71.9 241.3,71.9 333.0,78.1 421.6,137.9"/>
<polygon points="90.0,67.9 94.0,71.9 90.0,75.9 86.0,71.9" fill="#4dd88a"/>
<polygon points="90.0,67.9 94.0,71.9 90.0,75.9 86.0,71.9" fill="#4dd88a"/>
<polygon points="90.0,67.9 94.0,71.9 90.0,75.9 86.0,71.9" fill="#4dd88a"/>
<polygon points="90.0,67.9 94.0,71.9 90.0,75.9 86.0,71.9" fill="#4dd88a"/>
<polygon points="90.0,67.9 94.0,71.9 90.0,75.9 86.0,71.9" fill="#4dd88a"/>
<polygon points="90.0,67.9 94.0,71.9 90.0,75.9 86.0,71.9" fill="#4dd88a"/>
<polygon points="90.1,67.9 94.1,71.9 90.1,75.9 86.1,71.9" fill="#4dd88a"/>
<polygon points="90.1,67.9 94.1,71.9 90.1,75.9 86.1,71.9" fill="#4dd88a"/>
<polygon points="90.3,67.9 94.3,71.9 90.3,75.9 86.3,71.9" fill="#4dd88a"/>
<polygon points="90.5,67.9 94.5,71.9 90.5,75.9 86.5,71.9" fill="#4dd88a"/>
<polygon points="91.0,67.9 95.0,71.9 91.0,75.9 87.0,71.9" fill="#4dd88a"/>
<polygon points="92.1,67.9 96.1,71.9 92.1,75.9 88.1,71.9" fill="#4dd88a"/>
<polygon points="94.1,67.9 98.1,71.9 94.1,75.9 90.1,71.9" fill="#4dd88a"/>
<polygon points="98.3,67.9 102.3,71.9 98.3,75.9 94.3,71.9" fill="#4dd88a"/>
<polygon points="106.4,67.9 110.4,71.9 106.4,75.9 102.4,71.9" fill="#4dd88a"/>
<polygon points="120.2,67.9 124.2,71.9 120.2,75.9 116.2,71.9" fill="#4dd88a"/>
<polygon points="140.1,67.9 144.1,71.9 140.1,75.9 136.1,71.9" fill="#4dd88a"/>
<polygon points="190.7,67.9 194.7,71.9 190.7,75.9 186.7,71.9" fill="#4dd88a"/>
<polygon points="241.3,67.9 245.3,71.9 241.3,75.9 237.3,71.9" fill="#4dd88a"/>
<polygon points="333.0,74.1 337.0,78.1 333.0,82.1 329.0,78.1" fill="#4dd88a"/>
<polygon points="421.6,133.9 425.6,137.9 421.6,141.9 417.6,137.9" fill="#4dd88a"/>
<polyline fill="none" stroke="#ff6b6b" stroke-width="2" points="90.0,71.9 90.0,71.9 90.0,71.9 90.1,71.9 90.1,71.9 90.2,71.9 90.4,71.9 90.8,71.9 91.6,71.9 93.1,71.9 96.0,71.9 101.4,72.0 110.3,72.9 123.8,75.4 142.6,78.6 165.2,81.4 189.9,83.3 240.0,85.1 287.4,91.9 372.5,198.2 450.3,401.9"/>
<polygon points="90.0,66.9 88.8,70.3 85.3,70.3 88.1,72.5 87.1,75.9 90.0,73.9 93.0,75.9 91.9,72.5 94.8,70.3 91.2,70.3" fill="#ff6b6b"/>
<polygon points="90.0,66.9 88.9,70.3 85.3,70.3 88.1,72.5 87.1,75.9 90.0,73.9 93.0,75.9 91.9,72.5 94.8,70.3 91.2,70.3" fill="#ff6b6b"/>
<polygon points="90.0,66.9 88.9,70.3 85.3,70.3 88.1,72.5 87.1,75.9 90.0,73.9 93.0,75.9 91.9,72.5 94.8,70.3 91.2,70.3" fill="#ff6b6b"/>
<polygon points="90.1,66.9 88.9,70.3 85.3,70.3 88.2,72.5 87.1,75.9 90.1,73.9 93.0,75.9 92.0,72.5 94.8,70.3 91.2,70.3" fill="#ff6b6b"/>
<polygon points="90.1,66.9 88.9,70.3 85.4,70.3 88.2,72.5 87.2,75.9 90.1,73.9 93.0,75.9 92.0,72.5 94.9,70.3 91.3,70.3" fill="#ff6b6b"/>
<polygon points="90.2,66.9 89.0,70.3 85.5,70.3 88.3,72.5 87.3,75.9 90.2,73.9 93.1,75.9 92.1,72.5 95.0,70.3 91.4,70.3" fill="#ff6b6b"/>
<polygon points="90.4,66.9 89.2,70.3 85.6,70.3 88.5,72.5 87.5,75.9 90.4,73.9 93.3,75.9 92.3,72.5 95.2,70.3 91.6,70.3" fill="#ff6b6b"/>
<polygon points="90.8,66.9 89.6,70.3 86.0,70.3 88.9,72.5 87.9,75.9 90.8,73.9 93.7,75.9 92.7,72.5 95.5,70.3 92.0,70.3" fill="#ff6b6b"/>
<polygon points="91.6,66.9 90.4,70.3 86.8,70.3 89.7,72.5 88.6,75.9 91.6,73.9 94.5,75.9 93.5,72.5 96.3,70.3 92.7,70.3" fill="#ff6b6b"/>
<polygon points="93.1,66.9 91.9,70.3 88.4,70.3 91.2,72.5 90.2,75.9 93.1,73.9 96.0,75.9 95.0,72.5 97.9,70.3 94.3,70.3" fill="#ff6b6b"/>
<polygon points="96.0,66.9 94.9,70.3 91.3,70.3 94.1,72.5 93.1,75.9 96.0,73.9 99.0,75.9 97.9,72.5 100.8,70.3 97.2,70.3" fill="#ff6b6b"/>
<polygon points="101.4,67.0 100.2,70.4 96.6,70.4 99.5,72.6 98.4,76.0 101.4,74.0 104.3,76.0 103.3,72.6 106.1,70.4 102.5,70.4" fill="#ff6b6b"/>
<polygon points="110.3,67.9 109.1,71.3 105.5,71.3 108.4,73.5 107.3,76.9 110.3,74.9 113.2,76.9 112.2,73.5 115.0,71.3 111.4,71.3" fill="#ff6b6b"/>
<polygon points="123.8,70.4 122.6,73.7 119.0,73.8 121.9,76.0 120.9,79.4 123.8,77.4 126.7,79.4 125.7,76.0 128.5,73.8 125.0,73.7" fill="#ff6b6b"/>
<polygon points="142.6,73.6 141.4,77.0 137.8,77.1 140.7,79.3 139.7,82.7 142.6,80.6 145.5,82.7 144.5,79.3 147.4,77.1 143.8,77.0" fill="#ff6b6b"/>
<polygon points="165.2,76.4 164.0,79.8 160.4,79.9 163.2,82.1 162.2,85.5 165.2,83.4 168.1,85.5 167.1,82.1 169.9,79.9 166.3,79.8" fill="#ff6b6b"/>
<polygon points="189.9,78.3 188.7,81.7 185.1,81.8 188.0,83.9 186.9,87.4 189.9,85.3 192.8,87.4 191.8,83.9 194.6,81.8 191.0,81.7" fill="#ff6b6b"/>
<polygon points="240.0,80.1 238.9,83.5 235.3,83.6 238.1,85.7 237.1,89.2 240.0,87.1 243.0,89.2 241.9,85.7 244.8,83.6 241.2,83.5" fill="#ff6b6b"/>
<polygon points="287.4,86.9 286.2,90.3 282.6,90.4 285.5,92.5 284.5,95.9 287.4,93.9 290.3,95.9 289.3,92.5 292.2,90.4 288.6,90.3" fill="#ff6b6b"/>
<polygon points="372.5,193.2 371.3,196.6 367.7,196.6 370.6,198.8 369.5,202.2 372.5,200.2 375.4,202.2 374.4,198.8 377.2,196.6 373.6,196.6" fill="#ff6b6b"/>
<polygon points="450.3,396.9 449.1,400.3 445.5,400.3 448.4,402.5 447.3,405.9 450.3,403.9 453.2,405.9 452.2,402.5 455.0,400.3 451.5,400.3" fill="#ff6b6b"/>
<polyline fill="none" stroke="#ff922b" stroke-width="2" points="377.0,203.8 399.3,220.9 421.5,233.5 443.7,244.2 465.8,249.8 510.0,253.3 532.1,254.0 554.2,254.0 576.3,254.1 598.4,254.9"/>
<circle cx="377.0" cy="203.8" r="3" fill="#ff922b"/>
<circle cx="399.3" cy="220.9" r="3" fill="#ff922b"/>
<circle cx="421.5" cy="233.5" r="3" fill="#ff922b"/>
<circle cx="443.7" cy="244.2" r="3" fill="#ff922b"/>
<circle cx="465.8" cy="249.8" r="3" fill="#ff922b"/>
<circle cx="510.0" cy="253.3" r="3" fill="#ff922b"/>
<circle cx="532.1" cy="254.0" r="3" fill="#ff922b"/>
<circle cx="554.2" cy="254.0" r="3" fill="#ff922b"/>
<circle cx="576.3" cy="254.1" r="3" fill="#ff922b"/>
<circle cx="598.4" cy="254.9" r="3" fill="#ff922b"/>
<polyline fill="none" stroke="#888888" stroke-width="2" stroke-dasharray="8,5" points="512.6,134.9 545.7,154.3 588.6,180.1 620.7,199.1 652.7,218.8 694.9,244.4 726.9,259.6 758.8,286.3 801.0,313.8 832.9,329.8"/>
<circle cx="512.6" cy="134.9" r="3" fill="#888888"/>
<circle cx="545.7" cy="154.3" r="3" fill="#888888"/>
<circle cx="588.6" cy="180.1" r="3" fill="#888888"/>
<circle cx="620.7" cy="199.1" r="3" fill="#888888"/>
<circle cx="652.7" cy="218.8" r="3" fill="#888888"/>
<circle cx="694.9" cy="244.4" r="3" fill="#888888"/>
<circle cx="726.9" cy="259.6" r="3" fill="#888888"/>
<circle cx="758.8" cy="286.3" r="3" fill="#888888"/>
<circle cx="801.0" cy="313.8" r="3" fill="#888888"/>
<circle cx="832.9" cy="329.8" r="3" fill="#888888"/>
<line x1="886" y1="60" x2="902" y2="60" stroke="#ef4444" stroke-width="2" stroke-dasharray="8,5"/>
<circle cx="894.0" cy="60.0" r="3" fill="#ef4444"/>
<text class="label" x="908" y="64">Theoretical</text>
<line x1="886" y1="78" x2="902" y2="78" stroke="#1a6b3c" stroke-width="2"/>
<polygon points="894.0,74.0 898.0,78.0 894.0,82.0 890.0,78.0" fill="#1a6b3c"/>
<text class="label" x="908" y="82">Grafite</text>
<line x1="886" y1="96" x2="902" y2="96" stroke="#1a3a6b" stroke-width="2"/>
<polygon points="894.0,91.0 892.8,94.4 889.2,94.5 892.1,96.6 891.1,100.0 894.0,98.0 896.9,100.0 895.9,96.6 898.8,94.5 895.2,94.4" fill="#1a3a6b"/>
<text class="label" x="908" y="100">SNARF</text>
<line x1="886" y1="114" x2="902" y2="114" stroke="#111111" stroke-width="2"/>
<rect x="891.0" y="111.0" width="6" height="6" fill="#111111"/>
<text class="label" x="908" y="118">SuRF</text>
<line x1="886" y1="132" x2="902" y2="132" stroke="#111111" stroke-width="2"/>
<polygon points="894.0,128.0 898.0,135.0 890.0,135.0" fill="#111111"/>
<text class="label" x="908" y="136">SuRFHash(8)</text>
<line x1="886" y1="150" x2="902" y2="150" stroke="#111111" stroke-width="2"/>
<polygon points="894.0,146.0 898.0,150.0 894.0,154.0 890.0,150.0" fill="#111111"/>
<text class="label" x="908" y="154">SuRFReal(8)</text>
<line x1="886" y1="168" x2="902" y2="168" stroke="#2a7fff" stroke-width="2"/>
<rect x="891.0" y="165.0" width="6" height="6" fill="#2a7fff"/>
<text class="label" x="908" y="172">Adaptive (t=0)</text>
<line x1="886" y1="186" x2="902" y2="186" stroke="#9b59b6" stroke-width="2"/>
<polygon points="894.0,182.0 898.0,189.0 890.0,189.0" fill="#9b59b6"/>
<text class="label" x="908" y="190">Truncation</text>
<line x1="886" y1="204" x2="902" y2="204" stroke="#4dd88a" stroke-width="2"/>
<polygon points="894.0,200.0 898.0,204.0 894.0,208.0 890.0,204.0" fill="#4dd88a"/>
<text class="label" x="908" y="208">SODA</text>
<line x1="886" y1="222" x2="902" y2="222" stroke="#ff6b6b" stroke-width="2"/>
<polygon points="894.0,217.0 892.8,220.4 889.2,220.5 892.1,222.6 891.1,226.0 894.0,224.0 896.9,226.0 895.9,222.6 898.8,220.5 895.2,220.4" fill="#ff6b6b"/>
<text class="label" x="908" y="226">Hybrid</text>
<line x1="886" y1="240" x2="902" y2="240" stroke="#ff922b" stroke-width="2"/>
<circle cx="894.0" cy="240.0" r="3" fill="#ff922b"/>
<text class="label" x="908" y="244">CDF-ARE</text>
<line x1="886" y1="258" x2="902" y2="258" stroke="#888888" stroke-width="2" stroke-dasharray="8,5"/>
<circle cx="894.0" cy="258.0" r="3" fill="#888888"/>
<text class="label" x="908" y="262">BloomARE</text>
<text x="480" y="590" text-anchor="middle">Bits per Key (BPK)</text>
<text transform="translate(16,295) rotate(-90)" text-anchor="middle">False Positive Rate (FPR)</text>
</svg>
