<svg xmlns="http://www.w3.org/2000/svg" width="1020" height="600" viewBox="0 0 1020 600">
<style>text{font-family:Menlo,Monaco,monospace;font-size:12px;fill:#222} .axis{stroke:#333;stroke-width:1} .grid{stroke:#eee;stroke-width:0.5} .label{font-size:11px;fill:#444}</style>
<text x="510" y="28" text-anchor="middle" style="font-size:14px;font-weight:bold">FPR vs BPK — zipfian (60-bit keys, n=262144, L=1)</text>
<line class="axis" x1="90.0" y1="550.0" x2="870.0" y2="550.0"/>
<line class="axis" x1="90.0" y1="40.0" x2="90.0" y2="550.0"/>
<line class="grid" x1="90.0" y1="521.7" x2="870.0" y2="521.7"/>
<text class="label" x="82.0" y="525.7" text-anchor="end">10^-8</text>
<line class="grid" x1="90.0" y1="465.0" x2="870.0" y2="465.0"/>
<text class="label" x="82.0" y="469.0" text-anchor="end">10^-7</text>
<line class="grid" x1="90.0" y1="408.3" x2="870.0" y2="408.3"/>
<text class="label" x="82.0" y="412.3" text-anchor="end">10^-6</text>
<line class="grid" x1="90.0" y1="351.7" x2="870.0" y2="351.7"/>
<text class="label" x="82.0" y="355.7" text-anchor="end">10^-5</text>
<line class="grid" x1="90.0" y1="295.0" x2="870.0" y2="295.0"/>
<text class="label" x="82.0" y="299.0" text-anchor="end">10^-4</text>
<line class="grid" x1="90.0" y1="238.3" x2="870.0" y2="238.3"/>
<text class="label" x="82.0" y="242.3" text-anchor="end">10^-3</text>
<line class="grid" x1="90.0" y1="181.7" x2="870.0" y2="181.7"/>
<text class="label" x="82.0" y="185.7" text-anchor="end">10^-2</text>
<line class="grid" x1="90.0" y1="125.0" x2="870.0" y2="125.0"/>
<text class="label" x="82.0" y="129.0" text-anchor="end">10^-1</text>
<line class="grid" x1="90.0" y1="68.3" x2="870.0" y2="68.3"/>
<text class="label" x="82.0" y="72.3" text-anchor="end">1</text>
<line class="grid" x1="90.0" y1="40.0" x2="90.0" y2="550.0"/>
<text class="label" x="90.0" y="566.0" text-anchor="middle">0</text>
<line class="grid" x1="206.1" y1="40.0" x2="206.1" y2="550.0"/>
<text class="label" x="206.1" y="566.0" text-anchor="middle">5</text>
<line class="grid" x1="322.1" y1="40.0" x2="322.1" y2="550.0"/>
<text class="label" x="322.1" y="566.0" text-anchor="middle">10</text>
<line class="grid" x1="438.2" y1="40.0" x2="438.2" y2="550.0"/>
<text class="label" x="438.2" y="566.0" text-anchor="middle">15</text>
<line class="grid" x1="554.3" y1="40.0" x2="554.3" y2="550.0"/>
<text class="label" x="554.3" y="566.0" text-anchor="middle">20</text>
<line class="grid" x1="670.4" y1="40.0" x2="670.4" y2="550.0"/>
<text class="label" x="670.4" y="566.0" text-anchor="middle">25</text>
<line class="grid" x1="786.4" y1="40.0" x2="786.4" y2="550.0"/>
<text class="label" x="786.4" y="566.0" text-anchor="middle">30</text>
<polyline fill="none" stroke="#ef4444" stroke-width="2" stroke-dasharray="8,5" points="182.9,136.6 206.1,153.6 229.3,170.7 252.5,187.7 275.7,204.8 298.9,221.9 322.1,238.9 345.4,256.0 368.6,273.0 391.8,290.1 415.0,307.2 438.2,324.2 461.4,341.3 484.6,358.3 507.9,375.4 531.1,392.4 554.3,409.5 600.7,443.6 647.1,477.7 740.0,546.0 832.9,614.2"/>
<circle cx="182.9" cy="136.6" r="3" fill="#ef4444"/>
<circle cx="206.1" cy="153.6" r="3" fill="#ef4444"/>
<circle cx="229.3" cy="170.7" r="3" fill="#ef4444"/>
<circle cx="252.5" cy="187.7" r="3" fill="#ef4444"/>
<circle cx="275.7" cy="204.8" r="3" fill="#ef4444"/>
<circle cx="298.9" cy="221.9" r="3" fill="#ef4444"/>
<circle cx="322.1" cy="238.9" r="3" fill="#ef4444"/>
<circle cx="345.4" cy="256.0" r="3" fill="#ef4444"/>
<circle cx="368.6" cy="273.0" r="3" fill="#ef4444"/>
<circle cx="391.8" cy="290.1" r="3" fill="#ef4444"/>
<circle cx="415.0" cy="307.2" r="3" fill="#ef4444"/>
<circle cx="438.2" cy="324.2" r="3" fill="#ef4444"/>
<circle cx="461.4" cy="341.3" r="3" fill="#ef4444"/>
<circle cx="484.6" cy="358.3" r="3" fill="#ef4444"/>
<circle cx="507.9" cy="375.4" r="3" fill="#ef4444"/>
<circle cx="531.1" cy="392.4" r="3" fill="#ef4444"/>
<circle cx="554.3" cy="409.5" r="3" fill="#ef4444"/>
<circle cx="600.7" cy="443.6" r="3" fill="#ef4444"/>
<circle cx="647.1" cy="477.7" r="3" fill="#ef4444"/>
<circle cx="740.0" cy="546.0" r="3" fill="#ef4444"/>
<circle cx="832.9" cy="614.2" r="3" fill="#ef4444"/>
<polyline fill="none" stroke="#1a6b3c" stroke-width="2" points="189.3,106.8 241.0,141.7 289.3,173.1 343.5,231.1 383.1,217.4 436.8,302.5 483.2,347.9 529.2,385.0 576.2,402.0"/>
<polygon points="189.3,102.8 193.3,106.8 189.3,110.8 185.3,106.8" fill="#1a6b3c"/>
<polygon points="241.0,137.7 245.0,141.7 241.0,145.7 237.0,141.7" fill="#1a6b3c"/>
<polygon points="289.3,169.1 293.3,173.1 289.3,177.1 285.3,173.1" fill="#1a6b3c"/>
<polygon points="343.5,227.1 347.5,231.1 343.5,235.1 339.5,231.1" fill="#1a6b3c"/>
<polygon points="383.1,213.4 387.1,217.4 383.1,221.4 379.1,217.4" fill="#1a6b3c"/>
<polygon points="436.8,298.5 440.8,302.5 436.8,306.5 432.8,302.5" fill="#1a6b3c"/>
<polygon points="483.2,343.9 487.2,347.9 483.2,351.9 479.2,347.9" fill="#1a6b3c"/>
<polygon points="529.2,381.0 533.2,385.0 529.2,389.0 525.2,385.0" fill="#1a6b3c"/>
<polygon points="576.2,398.0 580.2,402.0 576.2,406.0 572.2,402.0" fill="#1a6b3c"/>
<polyline fill="none" stroke="#1a3a6b" stroke-width="2" points="168.4,83.8 214.7,90.7 261.3,93.3 307.8,93.7 354.1,93.7 400.4,93.7 447.0,93.7 493.5,93.7 539.8,93.7"/>
<polygon points="168.4,78.8 167.2,82.2 163.6,82.3 166.5,84.5 165.5,87.9 168.4,85.8 171.3,87.9 170.3,84.5 173.2,82.3 169.6,82.2" fill="#1a3a6b"/>
<polygon points="214.7,85.7 213.5,89.1 210.0,89.2 212.8,91.3 211.8,94.8 214.7,92.7 217.7,94.8 216.6,91.3 219.5,89.2 215.9,89.1" fill="#1a3a6b"/>
<polygon points="261.3,88.3 260.1,91.7 256.5,91.7 259.4,93.9 258.3,97.3 261.3,95.3 264.2,97.3 263.2,93.9 266.0,91.7 262.4,91.7" fill="#1a3a6b"/>
<polygon points="307.8,88.7 306.6,92.1 303.0,92.2 305.9,94.4 304.9,97.8 307.8,95.7 310.7,97.8 309.7,94.4 312.6,92.2 309.0,92.1" fill="#1a3a6b"/>
<polygon points="354.1,88.7 352.9,92.1 349.4,92.2 352.2,94.4 351.2,97.8 354.1,95.7 357.1,97.8 356.0,94.4 358.9,92.2 355.3,92.1" fill="#1a3a6b"/>
<polygon points="400.4,88.7 399.3,92.1 395.7,92.2 398.5,94.4 397.5,97.8 400.4,95.7 403.4,97.8 402.3,94.4 405.2,92.2 401.6,92.1" fill="#1a3a6b"/>
<polygon points="447.0,88.7 445.8,92.1 442.2,92.2 445.1,94.4 444.0,97.8 447.0,95.7 449.9,97.8 448.9,94.4 451.7,92.2 448.1,92.1" fill="#1a3a6b"/>
<polygon points="493.5,88.7 492.3,92.1 488.8,92.2 491.6,94.4 490.6,97.8 493.5,95.7 496.5,97.8 495.4,94.4 498.3,92.2 494.7,92.1" fill="#1a3a6b"/>
<polygon points="539.8,88.7 538.7,92.1 535.1,92.2 537.9,94.4 536.9,97.8 539.8,95.7 542.8,97.8 541.7,94.4 544.6,92.2 541.0,92.1" fill="#1a3a6b"/>
<polyline fill="none" stroke="#111111" stroke-width="2" points="371.5,159.8"/>
<rect x="368.5" y="156.8" width="6" height="6" fill="#111111"/>
<polyline fill="none" stroke="#111111" stroke-width="2" points="557.2,159.8"/>
<polygon points="557.2,155.8 561.2,162.8 553.2,162.8" fill="#111111"/>
<polyline fill="none" stroke="#111111" stroke-width="2" points="557.2,521.7"/>
<polygon points="557.2,517.7 561.2,521.7 557.2,525.7 553.2,521.7" fill="#111111"/>
<polyline fill="none" stroke="#2a7fff" stroke-width="2" points="90.0,68.3 90.0,68.3 90.0,68.3 90.0,68.3 90.1,68.3 90.1,68.3 90.3,68.3 90.5,68.3 91.1,68.3 92.2,68.3 94.4,68.3 98.7,68.4 107.2,68.8 121.7,71.9 142.7,79.7 168.4,91.7 195.9,106.7 248.0,135.7 297.1,163.8 391.8,275.2 484.6,354.1"/>
<rect x="87.0" y="65.3" width="6" height="6" fill="#2a7fff"/>
<rect x="87.0" y="65.3" width="6" height="6" fill="#2a7fff"/>
<rect x="87.0" y="65.3" width="6" height="6" fill="#2a7fff"/>
<rect x="87.0" y="65.3" width="6" height="6" fill="#2a7fff"/>
<rect x="87.1" y="65.3" width="6" height="6" fill="#2a7fff"/>
<rect x="87.1" y="65.3" width="6" height="6" fill="#2a7fff"/>
<rect x="87.3" y="65.3" width="6" height="6" fill="#2a7fff"/>
<rect x="87.5" y="65.3" width="6" height="6" fill="#2a7fff"/>
<rect x="88.1" y="65.3" width="6" height="6" fill="#2a7fff"/>
<rect x="89.2" y="65.3" width="6" height="6" fill="#2a7fff"/>
<rect x="91.4" y="65.3" width="6" height="6" fill="#2a7fff"/>
<rect x="95.7" y="65.4" width="6" height="6" fill="#2a7fff"/>
<rect x="104.2" y="65.8" width="6" height="6" fill="#2a7fff"/>
<rect x="118.7" y="68.9" width="6" height="6" fill="#2a7fff"/>
<rect x="139.7" y="76.7" width="6" height="6" fill="#2a7fff"/>
<rect x="165.4" y="88.7" width="6" height="6" fill="#2a7fff"/>
<rect x="192.9" y="103.7" width="6" height="6" fill="#2a7fff"/>
<rect x="245.0" y="132.7" width="6" height="6" fill="#2a7fff"/>
<rect x="294.1" y="160.8" width="6" height="6" fill="#2a7fff"/>
<rect x="388.8" y="272.2" width="6" height="6" fill="#2a7fff"/>
<rect x="481.6" y="351.1" width="6" height="6" fill="#2a7fff"/>
<polyline fill="none" stroke="#9b59b6" stroke-width="2" points="90.0,68.3 90.0,68.5 90.0,69.6 90.0,70.7 90.0,71.9 90.0,72.8 90.1,73.3 90.1,73.6 90.1,73.8 90.1,73.9 90.1,73.9 90.1,73.9 90.1,73.9 90.1,73.9 90.1,73.9 90.1,73.9 90.1,73.9 90.2,73.9 90.2,73.9 90.2,73.9 90.3,73.9"/>
<polygon points="90.0,64.3 94.0,71.3 86.0,71.3" fill="#9b59b6"/>
<polygon points="90.0,64.5 94.0,71.5 86.0,71.5" fill="#9b59b6"/>
<polygon points="90.0,65.6 94.0,72.6 86.0,72.6" fill="#9b59b6"/>
<polygon points="90.0,66.7 94.0,73.7 86.0,73.7" fill="#9b59b6"/>
<polygon points="90.0,67.9 94.0,74.9 86.0,74.9" fill="#9b59b6"/>
<polygon points="90.0,68.8 94.0,75.8 86.0,75.8" fill="#9b59b6"/>
<polygon points="90.1,69.3 94.1,76.3 86.1,76.3" fill="#9b59b6"/>
<polygon points="90.1,69.6 94.1,76.6 86.1,76.6" fill="#9b59b6"/>
<polygon points="90.1,69.8 94.1,76.8 86.1,76.8" fill="#9b59b6"/>
<polygon points="90.1,69.9 94.1,76.9 86.1,76.9" fill="#9b59b6"/>
<polygon points="90.1,69.9 94.1,76.9 86.1,76.9" fill="#9b59b6"/>
<polygon points="90.1,69.9 94.1,76.9 86.1,76.9" fill="#9b59b6"/>
<polygon points="90.1,69.9 94.1,76.9 86.1,76.9" fill="#9b59b6"/>
<polygon points="90.1,69.9 94.1,76.9 86.1,76.9" fill="#9b59b6"/>
<polygon points="90.1,69.9 94.1,76.9 86.1,76.9" fill="#9b59b6"/>
<polygon points="90.1,69.9 94.1,76.9 86.1,76.9" fill="#9b59b6"/>
<polygon points="90.1,69.9 94.1,76.9 86.1,76.9" fill="#9b59b6"/>
<polygon points="90.2,69.9 94.2,76.9 86.2,76.9" fill="#9b59b6"/>
<polygon points="90.2,69.9 94.2,76.9 86.2,76.9" fill="#9b59b6"/>
<polygon points="90.2,69.9 94.2,76.9 86.2,76.9" fill="#9b59b6"/>
<polygon points="90.3,69.9 94.3,76.9 86.3,76.9" fill="#9b59b6"/>
<polyline fill="none" stroke="#4dd88a" stroke-width="2" points="90.0,68.3 90.0,68.3 90.0,68.3 90.0,68.3 90.1,68.3 90.1,68.3 90.3,68.3 90.5,68.3 91.1,68.3 92.2,68.3 94.4,68.3 98.7,68.3 107.2,68.8 121.7,71.9 142.7,79.7 168.4,91.7 195.9,106.7 248.0,135.7 297.1,163.8 391.8,275.2 484.6,354.1"/>
<polygon points="90.0,64.3 94.0,68.3 90.0,72.3 86.0,68.3" fill="#4dd88a"/>
<polygon points="90.0,64.3 94.0,68.3 90.0,72.3 86.0,68.3" fill="#4dd88a"/>
<polygon points="90.0,64.3 94.0,68.3 90.0,72.3 86.0,68.3" fill="#4dd88a"/>
<polygon points="90.0,64.3 94.0,68.3 90.0,72.3 86.0,68.3" fill="#4dd88a"/>
<polygon points="90.1,64.3 94.1,68.3 90.1,72.3 86.1,68.3" fill="#4dd88a"/>
<polygon points="90.1,64.3 94.1,68.3 90.1,72.3 86.1,68.3" fill="#4dd88a"/>
<polygon points="90.3,64.3 94.3,68.3 90.3,72.3 86.3,68.3" fill="#4dd88a"/>
<polygon points="90.5,64.3 94.5,68.3 90.5,72.3 86.5,68.3" fill="#4dd88a"/>
<polygon points="91.1,64.3 95.1,68.3 91.1,72.3 87.1,68.3" fill="#4dd88a"/>
<polygon points="92.2,64.3 96.2,68.3 92.2,72.3 88.2,68.3" fill="#4dd88a"/>
<polygon points="94.4,64.3 98.4,68.3 94.4,72.3 90.4,68.3" fill="#4dd88a"/>
<polygon points="98.7,64.3 102.7,68.3 98.7,72.3 94.7,68.3" fill="#4dd88a"/>
<polygon points="107.2,64.8 111.2,68.8 107.2,72.8 103.2,68.8" fill="#4dd88a"/>
<polygon points="121.7,67.9 125.7,71.9 121.7,75.9 117.7,71.9" fill="#4dd88a"/>
<polygon points="142.7,75.7 146.7,79.7 142.7,83.7 138.7,79.7" fill="#4dd88a"/>
<polygon points="168.4,87.7 172.4,91.7 168.4,95.7 164.4,91.7" fill="#4dd88a"/>
<polygon points="195.9,102.7 199.9,106.7 195.9,110.7 191.9,106.7" fill="#4dd88a"/>
<polygon points="248.0,131.7 252.0,135.7 248.0,139.7 244.0,135.7" fill="#4dd88a"/>
<polygon points="297.1,159.8 301.1,163.8 297.1,167.8 293.1,163.8" fill="#4dd88a"/>
<polygon points="391.8,271.2 395.8,275.2 391.8,279.2 387.8,275.2" fill="#4dd88a"/>
<polygon points="484.6,350.1 488.6,354.1 484.6,358.1 480.6,354.1" fill="#4dd88a"/>
<polyline fill="none" stroke="#ff6b6b" stroke-width="2" points="90.2,69.1 90.2,69.2 90.3,70.1 90.5,71.1 90.8,72.1 91.5,72.9 92.9,73.4 95.6,73.7 101.0,73.9 110.9,75.8 125.8,82.0 146.2,92.7 167.3,106.9 188.5,123.7 209.4,143.5 229.6,170.2 249.3,347.9 249.3,402.0 249.3,521.7 249.3,521.7 249.4,521.7"/>
<polygon points="90.2,64.1 89.0,67.5 85.4,67.5 88.3,69.7 87.2,73.1 90.2,71.1 93.1,73.1 92.1,69.7 94.9,67.5 91.3,67.5" fill="#ff6b6b"/>
<polygon points="90.2,64.2 89.0,67.6 85.5,67.7 88.3,69.9 87.3,73.3 90.2,71.2 93.1,73.3 92.1,69.9 95.0,67.7 91.4,67.6" fill="#ff6b6b"/>
<polygon points="90.3,65.1 89.1,68.5 85.5,68.5 88.4,70.7 87.4,74.1 90.3,72.1 93.2,74.1 92.2,70.7 95.1,68.5 91.5,68.5" fill="#ff6b6b"/>
<polygon points="90.5,66.1 89.3,69.4 85.7,69.5 88.6,71.7 87.5,75.1 90.5,73.1 93.4,75.1 92.4,71.7 95.2,69.5 91.7,69.4" fill="#ff6b6b"/>
<polygon points="90.8,67.1 89.6,70.5 86.1,70.6 88.9,72.8 87.9,76.2 90.8,74.1 93.8,76.2 92.7,72.8 95.6,70.6 92.0,70.5" fill="#ff6b6b"/>
<polygon points="91.5,67.9 90.3,71.3 86.8,71.4 89.6,73.5 88.6,77.0 91.5,74.9 94.5,77.0 93.4,73.5 96.3,71.4 92.7,71.3" fill="#ff6b6b"/>
<polygon points="92.9,68.4 91.7,71.8 88.1,71.9 91.0,74.0 89.9,77.5 92.9,75.4 95.8,77.5 94.8,74.0 97.6,71.9 94.1,71.8" fill="#ff6b6b"/>
<polygon points="95.6,68.7 94.4,72.0 90.9,72.1 93.7,74.3 92.7,77.7 95.6,75.7 98.6,77.7 97.5,74.3 100.4,72.1 96.8,72.0" fill="#ff6b6b"/>
<polygon points="101.0,68.9 99.8,72.3 96.3,72.4 99.1,74.6 98.1,78.0 101.0,75.9 104.0,78.0 102.9,74.6 105.8,72.4 102.2,72.3" fill="#ff6b6b"/>
<polygon points="110.9,70.8 109.7,74.2 106.1,74.3 109.0,76.4 107.9,79.8 110.9,77.8 113.8,79.8 112.8,76.4 115.6,74.3 112.0,74.2" fill="#ff6b6b"/>
<polygon points="125.8,77.0 124.6,80.4 121.0,80.4 123.9,82.6 122.8,86.0 125.8,84.0 128.7,86.0 127.7,82.6 130.5,80.4 126.9,80.4" fill="#ff6b6b"/>
<polygon points="146.2,87.7 145.0,91.1 141.4,91.1 144.3,93.3 143.2,96.7 146.2,94.7 149.1,96.7 148.1,93.3 150.9,91.1 147.4,91.1" fill="#ff6b6b"/>
<polygon points="167.3,101.9 166.2,105.2 162.6,105.3 165.4,107.5 164.4,110.9 167.3,108.9 170.3,110.9 169.2,107.5 172.1,105.3 168.5,105.2" fill="#ff6b6b"/>
<polygon points="188.5,118.7 187.4,122.1 183.8,122.2 186.6,124.3 185.6,127.8 188.5,125.7 191.5,127.8 190.4,124.3 193.3,122.2 189.7,122.1" fill="#ff6b6b"/>
<polygon points="209.4,138.5 208.2,141.9 204.7,142.0 207.5,144.2 206.5,147.6 209.4,145.5 212.3,147.6 211.3,144.2 214.2,142.0 210.6,141.9" fill="#ff6b6b"/>
<polygon points="229.6,165.2 228.4,168.6 224.9,168.7 227.7,170.8 226.7,174.3 229.6,172.2 232.6,174.3 231.5,170.8 234.4,168.7 230.8,168.6" fill="#ff6b6b"/>
<polygon points="249.3,342.9 248.1,346.3 244.5,346.4 247.4,348.6 246.3,352.0 249.3,349.9 252.2,352.0 251.2,348.6 254.0,346.4 250.4,346.3" fill="#ff6b6b"/>
<polygon points="249.3,397.0 248.1,400.4 244.5,400.5 247.4,402.6 246.3,406.1 249.3,404.0 252.2,406.1 251.2,402.6 254.0,400.5 250.5,400.4" fill="#ff6b6b"/>
<polygon points="249.3,516.7 248.1,520.0 244.5,520.1 247.4,522.3 246.4,525.7 249.3,523.7 252.2,525.7 251.2,522.3 254.0,520.1 250.5,520.0" fill="#ff6b6b"/>
<polygon points="249.3,516.7 248.2,520.0 244.6,520.1 247.4,522.3 246.4,525.7 249.3,523.7 252.3,525.7 251.2,522.3 254.1,520.1 250.5,520.0" fill="#ff6b6b"/>
<polygon points="249.4,516.7 248.2,520.0 244.6,520.1 247.5,522.3 246.4,525.7 249.4,523.7 252.3,525.7 251.3,522.3 254.1,520.1 250.5,520.0" fill="#ff6b6b"/>
<polyline fill="none" stroke="#ff922b" stroke-width="2" points="288.5,129.6 314.7,149.4 339.4,174.0 363.4,215.0 386.1,215.3 408.9,215.3 431.6,215.4 454.3,215.4 499.6,215.4 522.2,215.4"/>
<circle cx="288.5" cy="129.6" r="3" fill="#ff922b"/>
<circle cx="314.7" cy="149.4" r="3" fill="#ff922b"/>
<circle cx="339.4" cy="174.0" r="3" fill="#ff922b"/>
<circle cx="363.4" cy="215.0" r="3" fill="#ff922b"/>
<circle cx="386.1" cy="215.3" r="3" fill="#ff922b"/>
<circle cx="408.9" cy="215.3" r="3" fill="#ff922b"/>
<circle cx="431.6" cy="215.4" r="3" fill="#ff922b"/>
<circle cx="454.3" cy="215.4" r="3" fill="#ff922b"/>
<circle cx="499.6" cy="215.4" r="3" fill="#ff922b"/>
<circle cx="522.2" cy="215.4" r="3" fill="#ff922b"/>
<polyline fill="none" stroke="#888888" stroke-width="2" stroke-dasharray="8,5" points="201.3,124.2 234.7,141.7 279.0,164.5 312.5,181.4 346.0,198.3 390.3,222.1 423.8,238.0 457.3,256.3 501.5,278.1 535.0,294.5"/>
<circle cx="201.3" cy="124.2" r="3" fill="#888888"/>
<circle cx="234.7" cy="141.7" r="3" fill="#888888"/>
<circle cx="279.0" cy="164.5" r="3" fill="#888888"/>
<circle cx="312.5" cy="181.4" r="3" fill="#888888"/>
<circle cx="346.0" cy="198.3" r="3" fill="#888888"/>
<circle cx="390.3" cy="222.1" r="3" fill="#888888"/>
<circle cx="423.8" cy="238.0" r="3" fill="#888888"/>
<circle cx="457.3" cy="256.3" r="3" fill="#888888"/>
<circle cx="501.5" cy="278.1" r="3" fill="#888888"/>
<circle cx="535.0" cy="294.5" r="3" fill="#888888"/>
<line x1="886" y1="60" x2="902" y2="60" stroke="#ef4444" stroke-width="2" stroke-dasharray="8,5"/>
<circle cx="894.0" cy="60.0" r="3" fill="#ef4444"/>
<text class="label" x="908" y="64">Theoretical</text>
<line x1="886" y1="78" x2="902" y2="78" stroke="#1a6b3c" stroke-width="2"/>
<polygon points="894.0,74.0 898.0,78.0 894.0,82.0 890.0,78.0" fill="#1a6b3c"/>
<text class="label" x="908" y="82">Grafite</text>
<line x1="886" y1="96" x2="902" y2="96" stroke="#1a3a6b" stroke-width="2"/>
<polygon points="894.0,91.0 892.8,94.4 889.2,94.5 892.1,96.6 891.1,100.0 894.0,98.0 896.9,100.0 895.9,96.6 898.8,94.5 895.2,94.4" fill="#1a3a6b"/>
<text class="label" x="908" y="100">SNARF</text>
<line x1="886" y1="114" x2="902" y2="114" stroke="#111111" stroke-width="2"/>
<rect x="891.0" y="111.0" width="6" height="6" fill="#111111"/>
<text class="label" x="908" y="118">SuRF</text>
<line x1="886" y1="132" x2="902" y2="132" stroke="#111111" stroke-width="2"/>
<polygon points="894.0,128.0 898.0,135.0 890.0,135.0" fill="#111111"/>
<text class="label" x="908" y="136">SuRFHash(8)</text>
<line x1="886" y1="150" x2="902" y2="150" stroke="#111111" stroke-width="2"/>
<polygon points="894.0,146.0 898.0,150.0 894.0,154.0 890.0,150.0" fill="#111111"/>
<text class="label" x="908" y="154">SuRFReal(8)</text>
<line x1="886" y1="168" x2="902" y2="168" stroke="#2a7fff" stroke-width="2"/>
<rect x="891.0" y="165.0" width="6" height="6" fill="#2a7fff"/>
<text class="label" x="908" y="172">Adaptive (t=0)</text>
<line x1="886" y1="186" x2="902" y2="186" stroke="#9b59b6" stroke-width="2"/>
<polygon points="894.0,182.0 898.0,189.0 890.0,189.0" fill="#9b59b6"/>
<text class="label" x="908" y="190">Truncation</text>
<line x1="886" y1="204" x2="902" y2="204" stroke="#4dd88a" stroke-width="2"/>
<polygon points="894.0,200.0 898.0,204.0 894.0,208.0 890.0,204.0" fill="#4dd88a"/>
<text class="label" x="908" y="208">SODA</text>
<line x1="886" y1="222" x2="902" y2="222" stroke="#ff6b6b" stroke-width="2"/>
<polygon points="894.0,217.0 892.8,220.4 889.2,220.5 892.1,222.6 891.1,226.0 894.0,224.0 896.9,226.0 895.9,222.6 898.8,220.5 895.2,220.4" fill="#ff6b6b"/>
<text class="label" x="908" y="226">Hybrid</text>
<line x1="886" y1="240" x2="902" y2="240" stroke="#ff922b" stroke-width="2"/>
<circle cx="894.0" cy="240.0" r="3" fill="#ff922b"/>
<text class="label" x="908" y="244">CDF-ARE</text>
<line x1="886" y1="258" x2="902" y2="258" stroke="#888888" stroke-width="2" stroke-dasharray="8,5"/>
<circle cx="894.0" cy="258.0" r="3" fill="#888888"/>
<text class="label" x="908" y="262">BloomARE</text>
<text x="480" y="590" text-anchor="middle">Bits per Key (BPK)</text>
<text transform="translate(16,295) rotate(-90)" text-anchor="middle">False Positive Rate (FPR)</text>
</svg>
