<svg xmlns="http://www.w3.org/2000/svg" width="1020" height="600" viewBox="0 0 1020 600">
<style>text{font-family:Menlo,Monaco,monospace;font-size:12px;fill:#222} .axis{stroke:#333;stroke-width:1} .grid{stroke:#eee;stroke-width:0.5} .label{font-size:11px;fill:#444}</style>
<text x="510" y="28" text-anchor="middle" style="font-size:14px;font-weight:bold">FPR vs BPK — zipfian (60-bit keys, n=262144, L=1024)</text>
<line class="axis" x1="90.0" y1="550.0" x2="870.0" y2="550.0"/>
<line class="axis" x1="90.0" y1="40.0" x2="90.0" y2="550.0"/>
<line class="grid" x1="90.0" y1="521.7" x2="870.0" y2="521.7"/>
<text class="label" x="82.0" y="525.7" text-anchor="end">10^-8</text>
<line class="grid" x1="90.0" y1="465.0" x2="870.0" y2="465.0"/>
<text class="label" x="82.0" y="469.0" text-anchor="end">10^-7</text>
<line class="grid" x1="90.0" y1="408.3" x2="870.0" y2="408.3"/>
<text class="label" x="82.0" y="412.3" text-anchor="end">10^-6</text>
<line class="grid" x1="90.0" y1="351.7" x2="870.0" y2="351.7"/>
<text class="label" x="82.0" y="355.7" text-anchor="end">10^-5</text>
<line class="grid" x1="90.0" y1="295.0" x2="870.0" y2="295.0"/>
<text class="label" x="82.0" y="299.0" text-anchor="end">10^-4</text>
<line class="grid" x1="90.0" y1="238.3" x2="870.0" y2="238.3"/>
<text class="label" x="82.0" y="242.3" text-anchor="end">10^-3</text>
<line class="grid" x1="90.0" y1="181.7" x2="870.0" y2="181.7"/>
<text class="label" x="82.0" y="185.7" text-anchor="end">10^-2</text>
<line class="grid" x1="90.0" y1="125.0" x2="870.0" y2="125.0"/>
<text class="label" x="82.0" y="129.0" text-anchor="end">10^-1</text>
<line class="grid" x1="90.0" y1="68.3" x2="870.0" y2="68.3"/>
<text class="label" x="82.0" y="72.3" text-anchor="end">1</text>
<line class="grid" x1="90.0" y1="40.0" x2="90.0" y2="550.0"/>
<text class="label" x="90.0" y="566.0" text-anchor="middle">0</text>
<line class="grid" x1="200.6" y1="40.0" x2="200.6" y2="550.0"/>
<text class="label" x="200.6" y="566.0" text-anchor="middle">5</text>
<line class="grid" x1="311.1" y1="40.0" x2="311.1" y2="550.0"/>
<text class="label" x="311.1" y="566.0" text-anchor="middle">10</text>
<line class="grid" x1="421.7" y1="40.0" x2="421.7" y2="550.0"/>
<text class="label" x="421.7" y="566.0" text-anchor="middle">15</text>
<line class="grid" x1="532.2" y1="40.0" x2="532.2" y2="550.0"/>
<text class="label" x="532.2" y="566.0" text-anchor="middle">20</text>
<line class="grid" x1="642.8" y1="40.0" x2="642.8" y2="550.0"/>
<text class="label" x="642.8" y="566.0" text-anchor="middle">25</text>
<line class="grid" x1="753.3" y1="40.0" x2="753.3" y2="550.0"/>
<text class="label" x="753.3" y="566.0" text-anchor="middle">30</text>
<line class="grid" x1="863.9" y1="40.0" x2="863.9" y2="550.0"/>
<text class="label" x="863.9" y="566.0" text-anchor="middle">35</text>
<polyline fill="none" stroke="#ef4444" stroke-width="2" stroke-dasharray="8,5" points="311.1,68.3 333.2,85.4 355.3,102.5 377.4,119.5 399.6,136.6 421.7,153.6 443.8,170.7 465.9,187.7 488.0,204.8 510.1,221.9 532.2,238.9 576.4,273.0 620.7,307.2 709.1,375.4 797.5,443.6"/>
<circle cx="311.1" cy="68.3" r="3" fill="#ef4444"/>
<circle cx="333.2" cy="85.4" r="3" fill="#ef4444"/>
<circle cx="355.3" cy="102.5" r="3" fill="#ef4444"/>
<circle cx="377.4" cy="119.5" r="3" fill="#ef4444"/>
<circle cx="399.6" cy="136.6" r="3" fill="#ef4444"/>
<circle cx="421.7" cy="153.6" r="3" fill="#ef4444"/>
<circle cx="443.8" cy="170.7" r="3" fill="#ef4444"/>
<circle cx="465.9" cy="187.7" r="3" fill="#ef4444"/>
<circle cx="488.0" cy="204.8" r="3" fill="#ef4444"/>
<circle cx="510.1" cy="221.9" r="3" fill="#ef4444"/>
<circle cx="532.2" cy="238.9" r="3" fill="#ef4444"/>
<circle cx="576.4" cy="273.0" r="3" fill="#ef4444"/>
<circle cx="620.7" cy="307.2" r="3" fill="#ef4444"/>
<circle cx="709.1" cy="375.4" r="3" fill="#ef4444"/>
<circle cx="797.5" cy="443.6" r="3" fill="#ef4444"/>
<polyline fill="none" stroke="#1a6b3c" stroke-width="2" points="184.6,68.3 233.8,68.3 279.7,69.4 325.0,83.4 369.3,110.8 419.8,143.4 464.3,177.2 508.5,210.9 553.0,245.4"/>
<polygon points="184.6,64.3 188.6,68.3 184.6,72.3 180.6,68.3" fill="#1a6b3c"/>
<polygon points="233.8,64.3 237.8,68.3 233.8,72.3 229.8,68.3" fill="#1a6b3c"/>
<polygon points="279.7,65.4 283.7,69.4 279.7,73.4 275.7,69.4" fill="#1a6b3c"/>
<polygon points="325.0,79.4 329.0,83.4 325.0,87.4 321.0,83.4" fill="#1a6b3c"/>
<polygon points="369.3,106.8 373.3,110.8 369.3,114.8 365.3,110.8" fill="#1a6b3c"/>
<polygon points="419.8,139.4 423.8,143.4 419.8,147.4 415.8,143.4" fill="#1a6b3c"/>
<polygon points="464.3,173.2 468.3,177.2 464.3,181.2 460.3,177.2" fill="#1a6b3c"/>
<polygon points="508.5,206.9 512.5,210.9 508.5,214.9 504.5,210.9" fill="#1a6b3c"/>
<polygon points="553.0,241.4 557.0,245.4 553.0,249.4 549.0,245.4" fill="#1a6b3c"/>
<polyline fill="none" stroke="#1a3a6b" stroke-width="2" points="164.7,145.6 208.8,166.1 253.1,178.8 297.4,183.7 341.6,185.1 385.7,185.3 430.0,185.4 474.3,185.4 518.4,185.4"/>
<polygon points="164.7,140.6 163.5,144.0 159.9,144.1 162.8,146.2 161.7,149.7 164.7,147.6 167.6,149.7 166.6,146.2 169.4,144.1 165.8,144.0" fill="#1a3a6b"/>
<polygon points="208.8,161.1 207.6,164.5 204.0,164.6 206.9,166.8 205.9,170.2 208.8,168.1 211.7,170.2 210.7,166.8 213.5,164.6 210.0,164.5" fill="#1a3a6b"/>
<polygon points="253.1,173.8 251.9,177.2 248.4,177.3 251.2,179.4 250.2,182.9 253.1,180.8 256.1,182.9 255.0,179.4 257.9,177.3 254.3,177.2" fill="#1a3a6b"/>
<polygon points="297.4,178.7 296.3,182.1 292.7,182.2 295.5,184.4 294.5,187.8 297.4,185.7 300.4,187.8 299.3,184.4 302.2,182.2 298.6,182.1" fill="#1a3a6b"/>
<polygon points="341.6,180.1 340.4,183.5 336.8,183.5 339.7,185.7 338.6,189.1 341.6,187.1 344.5,189.1 343.5,185.7 346.3,183.5 342.7,183.5" fill="#1a3a6b"/>
<polygon points="385.7,180.3 384.5,183.7 380.9,183.8 383.8,186.0 382.7,189.4 385.7,187.3 388.6,189.4 387.6,186.0 390.4,183.8 386.9,183.7" fill="#1a3a6b"/>
<polygon points="430.0,180.4 428.8,183.8 425.2,183.9 428.1,186.0 427.1,189.5 430.0,187.4 432.9,189.5 431.9,186.0 434.8,183.9 431.2,183.8" fill="#1a3a6b"/>
<polygon points="474.3,180.4 473.2,183.8 469.6,183.9 472.4,186.0 471.4,189.5 474.3,187.4 477.3,189.5 476.2,186.0 479.1,183.9 475.5,183.8" fill="#1a3a6b"/>
<polygon points="518.4,180.4 517.3,183.8 513.7,183.9 516.5,186.0 515.5,189.5 518.4,187.4 521.4,189.5 520.3,186.0 523.2,183.9 519.6,183.8" fill="#1a3a6b"/>
<polyline fill="none" stroke="#111111" stroke-width="2" points="358.1,306.2"/>
<rect x="355.1" y="303.2" width="6" height="6" fill="#111111"/>
<polyline fill="none" stroke="#111111" stroke-width="2" points="535.0,306.2"/>
<polygon points="535.0,302.2 539.0,309.2 531.0,309.2" fill="#111111"/>
<polyline fill="none" stroke="#111111" stroke-width="2" points="535.0,521.7"/>
<polygon points="535.0,517.7 539.0,521.7 535.0,525.7 531.0,521.7" fill="#111111"/>
<polyline fill="none" stroke="#2a7fff" stroke-width="2" points="90.0,68.4 90.0,68.4 90.0,68.4 90.0,68.4 90.1,68.4 90.1,68.4 90.3,68.4 90.5,68.4 91.0,68.4 92.1,68.4 94.1,68.4 98.3,68.4 106.4,68.4 120.2,68.4 140.2,68.4 164.7,68.4 190.9,68.4 240.5,68.4 287.2,69.7 377.4,110.2 465.9,177.7"/>
<rect x="87.0" y="65.4" width="6" height="6" fill="#2a7fff"/>
<rect x="87.0" y="65.4" width="6" height="6" fill="#2a7fff"/>
<rect x="87.0" y="65.4" width="6" height="6" fill="#2a7fff"/>
<rect x="87.0" y="65.4" width="6" height="6" fill="#2a7fff"/>
<rect x="87.1" y="65.4" width="6" height="6" fill="#2a7fff"/>
<rect x="87.1" y="65.4" width="6" height="6" fill="#2a7fff"/>
<rect x="87.3" y="65.4" width="6" height="6" fill="#2a7fff"/>
<rect x="87.5" y="65.4" width="6" height="6" fill="#2a7fff"/>
<rect x="88.0" y="65.4" width="6" height="6" fill="#2a7fff"/>
<rect x="89.1" y="65.4" width="6" height="6" fill="#2a7fff"/>
<rect x="91.1" y="65.4" width="6" height="6" fill="#2a7fff"/>
<rect x="95.3" y="65.4" width="6" height="6" fill="#2a7fff"/>
<rect x="103.4" y="65.4" width="6" height="6" fill="#2a7fff"/>
<rect x="117.2" y="65.4" width="6" height="6" fill="#2a7fff"/>
<rect x="137.2" y="65.4" width="6" height="6" fill="#2a7fff"/>
<rect x="161.7" y="65.4" width="6" height="6" fill="#2a7fff"/>
<rect x="187.9" y="65.4" width="6" height="6" fill="#2a7fff"/>
<rect x="237.5" y="65.4" width="6" height="6" fill="#2a7fff"/>
<rect x="284.2" y="66.7" width="6" height="6" fill="#2a7fff"/>
<rect x="374.4" y="107.2" width="6" height="6" fill="#2a7fff"/>
<rect x="462.9" y="174.7" width="6" height="6" fill="#2a7fff"/>
<polyline fill="none" stroke="#9b59b6" stroke-width="2" points="90.0,68.4 90.0,69.2 90.0,75.5 90.0,83.5 90.0,95.7 90.0,110.6 90.1,126.6 90.1,143.4 90.1,160.1 90.1,176.6 90.1,192.8 90.1,209.5 90.1,225.7 90.1,239.2 90.1,255.6 90.1,268.1 90.1,275.3 90.2,279.9 90.2,279.9 90.2,279.9 90.2,279.9"/>
<polygon points="90.0,64.4 94.0,71.4 86.0,71.4" fill="#9b59b6"/>
<polygon points="90.0,65.2 94.0,72.2 86.0,72.2" fill="#9b59b6"/>
<polygon points="90.0,71.5 94.0,78.5 86.0,78.5" fill="#9b59b6"/>
<polygon points="90.0,79.5 94.0,86.5 86.0,86.5" fill="#9b59b6"/>
<polygon points="90.0,91.7 94.0,98.7 86.0,98.7" fill="#9b59b6"/>
<polygon points="90.0,106.6 94.0,113.6 86.0,113.6" fill="#9b59b6"/>
<polygon points="90.1,122.6 94.1,129.6 86.1,129.6" fill="#9b59b6"/>
<polygon points="90.1,139.4 94.1,146.4 86.1,146.4" fill="#9b59b6"/>
<polygon points="90.1,156.1 94.1,163.1 86.1,163.1" fill="#9b59b6"/>
<polygon points="90.1,172.6 94.1,179.6 86.1,179.6" fill="#9b59b6"/>
<polygon points="90.1,188.8 94.1,195.8 86.1,195.8" fill="#9b59b6"/>
<polygon points="90.1,205.5 94.1,212.5 86.1,212.5" fill="#9b59b6"/>
<polygon points="90.1,221.7 94.1,228.7 86.1,228.7" fill="#9b59b6"/>
<polygon points="90.1,235.2 94.1,242.2 86.1,242.2" fill="#9b59b6"/>
<polygon points="90.1,251.6 94.1,258.6 86.1,258.6" fill="#9b59b6"/>
<polygon points="90.1,264.1 94.1,271.1 86.1,271.1" fill="#9b59b6"/>
<polygon points="90.1,271.3 94.1,278.3 86.1,278.3" fill="#9b59b6"/>
<polygon points="90.2,275.9 94.2,282.9 86.2,282.9" fill="#9b59b6"/>
<polygon points="90.2,275.9 94.2,282.9 86.2,282.9" fill="#9b59b6"/>
<polygon points="90.2,275.9 94.2,282.9 86.2,282.9" fill="#9b59b6"/>
<polygon points="90.2,275.9 94.2,282.9 86.2,282.9" fill="#9b59b6"/>
<polyline fill="none" stroke="#4dd88a" stroke-width="2" points="90.0,68.3 90.0,68.3 90.0,68.3 90.0,68.3 90.1,68.3 90.1,68.3 90.3,68.3 90.5,68.3 91.0,68.3 92.1,68.3 94.1,68.3 98.3,68.3 106.4,68.3 120.2,68.3 140.2,68.3 164.7,68.3 190.9,68.3 240.5,68.3 287.2,69.6 377.4,110.2 465.9,177.6"/>
<polygon points="90.0,64.3 94.0,68.3 90.0,72.3 86.0,68.3" fill="#4dd88a"/>
<polygon points="90.0,64.3 94.0,68.3 90.0,72.3 86.0,68.3" fill="#4dd88a"/>
<polygon points="90.0,64.3 94.0,68.3 90.0,72.3 86.0,68.3" fill="#4dd88a"/>
<polygon points="90.0,64.3 94.0,68.3 90.0,72.3 86.0,68.3" fill="#4dd88a"/>
<polygon points="90.1,64.3 94.1,68.3 90.1,72.3 86.1,68.3" fill="#4dd88a"/>
<polygon points="90.1,64.3 94.1,68.3 90.1,72.3 86.1,68.3" fill="#4dd88a"/>
<polygon points="90.3,64.3 94.3,68.3 90.3,72.3 86.3,68.3" fill="#4dd88a"/>
<polygon points="90.5,64.3 94.5,68.3 90.5,72.3 86.5,68.3" fill="#4dd88a"/>
<polygon points="91.0,64.3 95.0,68.3 91.0,72.3 87.0,68.3" fill="#4dd88a"/>
<polygon points="92.1,64.3 96.1,68.3 92.1,72.3 88.1,68.3" fill="#4dd88a"/>
<polygon points="94.1,64.3 98.1,68.3 94.1,72.3 90.1,68.3" fill="#4dd88a"/>
<polygon points="98.3,64.3 102.3,68.3 98.3,72.3 94.3,68.3" fill="#4dd88a"/>
<polygon points="106.4,64.3 110.4,68.3 106.4,72.3 102.4,68.3" fill="#4dd88a"/>
<polygon points="120.2,64.3 124.2,68.3 120.2,72.3 116.2,68.3" fill="#4dd88a"/>
<polygon points="140.2,64.3 144.2,68.3 140.2,72.3 136.2,68.3" fill="#4dd88a"/>
<polygon points="164.7,64.3 168.7,68.3 164.7,72.3 160.7,68.3" fill="#4dd88a"/>
<polygon points="190.9,64.3 194.9,68.3 190.9,72.3 186.9,68.3" fill="#4dd88a"/>
<polygon points="240.5,64.3 244.5,68.3 240.5,72.3 236.5,68.3" fill="#4dd88a"/>
<polygon points="287.2,65.6 291.2,69.6 287.2,73.6 283.2,69.6" fill="#4dd88a"/>
<polygon points="377.4,106.2 381.4,110.2 377.4,114.2 373.4,110.2" fill="#4dd88a"/>
<polygon points="465.9,173.6 469.9,177.6 465.9,181.6 461.9,177.6" fill="#4dd88a"/>
<polyline fill="none" stroke="#ff6b6b" stroke-width="2" points="90.2,72.3 90.2,73.2 90.3,78.4 90.5,86.2 90.8,98.3 91.4,113.0 92.7,129.4 95.3,146.1 100.5,162.8 109.9,179.3 124.1,195.9 143.5,214.1 163.7,231.8 183.9,247.4 203.7,268.1 223.0,291.7 241.7,308.7 241.7,362.8 241.7,521.7 241.8,521.7 241.8,521.7"/>
<polygon points="90.2,67.3 89.0,70.7 85.4,70.7 88.3,72.9 87.2,76.3 90.2,74.3 93.1,76.3 92.1,72.9 94.9,70.7 91.3,70.7" fill="#ff6b6b"/>
<polygon points="90.2,68.2 89.0,71.6 85.4,71.7 88.3,73.8 87.3,77.2 90.2,75.2 93.1,77.2 92.1,73.8 95.0,71.7 91.4,71.6" fill="#ff6b6b"/>
<polygon points="90.3,73.4 89.1,76.8 85.5,76.8 88.4,79.0 87.3,82.4 90.3,80.4 93.2,82.4 92.2,79.0 95.0,76.8 91.5,76.8" fill="#ff6b6b"/>
<polygon points="90.5,81.2 89.3,84.6 85.7,84.7 88.6,86.8 87.5,90.3 90.5,88.2 93.4,90.3 92.4,86.8 95.2,84.7 91.6,84.6" fill="#ff6b6b"/>
<polygon points="90.8,93.3 89.6,96.7 86.0,96.8 88.9,98.9 87.8,102.4 90.8,100.3 93.7,102.4 92.7,98.9 95.5,96.8 92.0,96.7" fill="#ff6b6b"/>
<polygon points="91.4,108.0 90.3,111.4 86.7,111.5 89.5,113.6 88.5,117.1 91.4,115.0 94.4,117.1 93.3,113.6 96.2,111.5 92.6,111.4" fill="#ff6b6b"/>
<polygon points="92.7,124.4 91.6,127.8 88.0,127.9 90.8,130.1 89.8,133.5 92.7,131.4 95.7,133.5 94.6,130.1 97.5,127.9 93.9,127.8" fill="#ff6b6b"/>
<polygon points="95.3,141.1 94.2,144.5 90.6,144.5 93.4,146.7 92.4,150.1 95.3,148.1 98.3,150.1 97.2,146.7 100.1,144.5 96.5,144.5" fill="#ff6b6b"/>
<polygon points="100.5,157.8 99.3,161.1 95.7,161.2 98.6,163.4 97.6,166.8 100.5,164.8 103.4,166.8 102.4,163.4 105.3,161.2 101.7,161.1" fill="#ff6b6b"/>
<polygon points="109.9,174.3 108.7,177.7 105.1,177.8 108.0,180.0 106.9,183.4 109.9,181.3 112.8,183.4 111.8,180.0 114.6,177.8 111.0,177.7" fill="#ff6b6b"/>
<polygon points="124.1,190.9 122.9,194.3 119.3,194.4 122.2,196.5 121.1,200.0 124.1,197.9 127.0,200.0 126.0,196.5 128.8,194.4 125.2,194.3" fill="#ff6b6b"/>
<polygon points="143.5,209.1 142.3,212.5 138.8,212.6 141.6,214.7 140.6,218.2 143.5,216.1 146.5,218.2 145.4,214.7 148.3,212.6 144.7,212.5" fill="#ff6b6b"/>
<polygon points="163.7,226.8 162.5,230.2 158.9,230.3 161.8,232.4 160.7,235.9 163.7,233.8 166.6,235.9 165.6,232.4 168.4,230.3 164.8,230.2" fill="#ff6b6b"/>
<polygon points="183.9,242.4 182.7,245.7 179.1,245.8 182.0,248.0 180.9,251.4 183.9,249.4 186.8,251.4 185.8,248.0 188.6,245.8 185.0,245.7" fill="#ff6b6b"/>
<polygon points="203.7,263.1 202.6,266.4 199.0,266.5 201.8,268.7 200.8,272.1 203.7,270.1 206.7,272.1 205.6,268.7 208.5,266.5 204.9,266.4" fill="#ff6b6b"/>
<polygon points="223.0,286.7 221.8,290.1 218.2,290.1 221.1,292.3 220.0,295.7 223.0,293.7 225.9,295.7 224.9,292.3 227.7,290.1 224.2,290.1" fill="#ff6b6b"/>
<polygon points="241.7,303.7 240.5,307.1 236.9,307.2 239.8,309.4 238.8,312.8 241.7,310.7 244.6,312.8 243.6,309.4 246.4,307.2 242.9,307.1" fill="#ff6b6b"/>
<polygon points="241.7,357.8 240.5,361.2 237.0,361.3 239.8,363.4 238.8,366.9 241.7,364.8 244.6,366.9 243.6,363.4 246.5,361.3 242.9,361.2" fill="#ff6b6b"/>
<polygon points="241.7,516.7 240.5,520.0 237.0,520.1 239.8,522.3 238.8,525.7 241.7,523.7 244.7,525.7 243.6,522.3 246.5,520.1 242.9,520.0" fill="#ff6b6b"/>
<polygon points="241.8,516.7 240.6,520.0 237.0,520.1 239.9,522.3 238.8,525.7 241.8,523.7 244.7,525.7 243.7,522.3 246.5,520.1 242.9,520.0" fill="#ff6b6b"/>
<polygon points="241.8,516.7 240.6,520.0 237.0,520.1 239.9,522.3 238.8,525.7 241.8,523.7 244.7,525.7 243.7,522.3 246.5,520.1 243.0,520.0" fill="#ff6b6b"/>
<polyline fill="none" stroke="#ff922b" stroke-width="2" points="372.1,272.7 393.7,276.0 415.3,277.5 436.9,279.9 458.5,279.9 480.1,279.9 501.7,279.9 523.3,279.9 566.5,279.9 588.0,279.9"/>
<circle cx="372.1" cy="272.7" r="3" fill="#ff922b"/>
<circle cx="393.7" cy="276.0" r="3" fill="#ff922b"/>
<circle cx="415.3" cy="277.5" r="3" fill="#ff922b"/>
<circle cx="436.9" cy="279.9" r="3" fill="#ff922b"/>
<circle cx="458.5" cy="279.9" r="3" fill="#ff922b"/>
<circle cx="480.1" cy="279.9" r="3" fill="#ff922b"/>
<circle cx="501.7" cy="279.9" r="3" fill="#ff922b"/>
<circle cx="523.3" cy="279.9" r="3" fill="#ff922b"/>
<circle cx="566.5" cy="279.9" r="3" fill="#ff922b"/>
<circle cx="588.0" cy="279.9" r="3" fill="#ff922b"/>
<polyline fill="none" stroke="#888888" stroke-width="2" stroke-dasharray="8,5" points="512.6,124.9 545.7,142.2 588.6,164.2 620.7,180.8 652.7,198.6 694.9,220.5 726.9,237.6 758.8,255.0 801.0,287.9 832.9,297.9"/>
<circle cx="512.6" cy="124.9" r="3" fill="#888888"/>
<circle cx="545.7" cy="142.2" r="3" fill="#888888"/>
<circle cx="588.6" cy="164.2" r="3" fill="#888888"/>
<circle cx="620.7" cy="180.8" r="3" fill="#888888"/>
<circle cx="652.7" cy="198.6" r="3" fill="#888888"/>
<circle cx="694.9" cy="220.5" r="3" fill="#888888"/>
<circle cx="726.9" cy="237.6" r="3" fill="#888888"/>
<circle cx="758.8" cy="255.0" r="3" fill="#888888"/>
<circle cx="801.0" cy="287.9" r="3" fill="#888888"/>
<circle cx="832.9" cy="297.9" r="3" fill="#888888"/>
<line x1="886" y1="60" x2="902" y2="60" stroke="#ef4444" stroke-width="2" stroke-dasharray="8,5"/>
<circle cx="894.0" cy="60.0" r="3" fill="#ef4444"/>
<text class="label" x="908" y="64">Theoretical</text>
<line x1="886" y1="78" x2="902" y2="78" stroke="#1a6b3c" stroke-width="2"/>
<polygon points="894.0,74.0 898.0,78.0 894.0,82.0 890.0,78.0" fill="#1a6b3c"/>
<text class="label" x="908" y="82">Grafite</text>
<line x1="886" y1="96" x2="902" y2="96" stroke="#1a3a6b" stroke-width="2"/>
<polygon points="894.0,91.0 892.8,94.4 889.2,94.5 892.1,96.6 891.1,100.0 894.0,98.0 896.9,100.0 895.9,96.6 898.8,94.5 895.2,94.4" fill="#1a3a6b"/>
<text class="label" x="908" y="100">SNARF</text>
<line x1="886" y1="114" x2="902" y2="114" stroke="#111111" stroke-width="2"/>
<rect x="891.0" y="111.0" width="6" height="6" fill="#111111"/>
<text class="label" x="908" y="118">SuRF</text>
<line x1="886" y1="132" x2="902" y2="132" stroke="#111111" stroke-width="2"/>
<polygon points="894.0,128.0 898.0,135.0 890.0,135.0" fill="#111111"/>
<text class="label" x="908" y="136">SuRFHash(8)</text>
<line x1="886" y1="150" x2="902" y2="150" stroke="#111111" stroke-width="2"/>
<polygon points="894.0,146.0 898.0,150.0 894.0,154.0 890.0,150.0" fill="#111111"/>
<text class="label" x="908" y="154">SuRFReal(8)</text>
<line x1="886" y1="168" x2="902" y2="168" stroke="#2a7fff" stroke-width="2"/>
<rect x="891.0" y="165.0" width="6" height="6" fill="#2a7fff"/>
<text class="label" x="908" y="172">Adaptive (t=0)</text>
<line x1="886" y1="186" x2="902" y2="186" stroke="#9b59b6" stroke-width="2"/>
<polygon points="894.0,182.0 898.0,189.0 890.0,189.0" fill="#9b59b6"/>
<text class="label" x="908" y="190">Truncation</text>
<line x1="886" y1="204" x2="902" y2="204" stroke="#4dd88a" stroke-width="2"/>
<polygon points="894.0,200.0 898.0,204.0 894.0,208.0 890.0,204.0" fill="#4dd88a"/>
<text class="label" x="908" y="208">SODA</text>
<line x1="886" y1="222" x2="902" y2="222" stroke="#ff6b6b" stroke-width="2"/>
<polygon points="894.0,217.0 892.8,220.4 889.2,220.5 892.1,222.6 891.1,226.0 894.0,224.0 896.9,226.0 895.9,222.6 898.8,220.5 895.2,220.4" fill="#ff6b6b"/>
<text class="label" x="908" y="226">Hybrid</text>
<line x1="886" y1="240" x2="902" y2="240" stroke="#ff922b" stroke-width="2"/>
<circle cx="894.0" cy="240.0" r="3" fill="#ff922b"/>
<text class="label" x="908" y="244">CDF-ARE</text>
<line x1="886" y1="258" x2="902" y2="258" stroke="#888888" stroke-width="2" stroke-dasharray="8,5"/>
<circle cx="894.0" cy="258.0" r="3" fill="#888888"/>
<text class="label" x="908" y="262">BloomARE</text>
<text x="480" y="590" text-anchor="middle">Bits per Key (BPK)</text>
<text transform="translate(16,295) rotate(-90)" text-anchor="middle">False Positive Rate (FPR)</text>
</svg>
