<svg xmlns="http://www.w3.org/2000/svg" width="1020" height="600" viewBox="0 0 1020 600">
<style>text{font-family:Menlo,Monaco,monospace;font-size:12px;fill:#222} .axis{stroke:#333;stroke-width:1} .grid{stroke:#eee;stroke-width:0.5} .label{font-size:11px;fill:#444}</style>
<text x="510" y="28" text-anchor="middle" style="font-size:14px;font-weight:bold">FPR vs BPK — zipfian (60-bit keys, n=262144, L=128)</text>
<line class="axis" x1="90.0" y1="550.0" x2="870.0" y2="550.0"/>
<line class="axis" x1="90.0" y1="40.0" x2="90.0" y2="550.0"/>
<line class="grid" x1="90.0" y1="521.7" x2="870.0" y2="521.7"/>
<text class="label" x="82.0" y="525.7" text-anchor="end">10^-8</text>
<line class="grid" x1="90.0" y1="465.0" x2="870.0" y2="465.0"/>
<text class="label" x="82.0" y="469.0" text-anchor="end">10^-7</text>
<line class="grid" x1="90.0" y1="408.3" x2="870.0" y2="408.3"/>
<text class="label" x="82.0" y="412.3" text-anchor="end">10^-6</text>
<line class="grid" x1="90.0" y1="351.7" x2="870.0" y2="351.7"/>
<text class="label" x="82.0" y="355.7" text-anchor="end">10^-5</text>
<line class="grid" x1="90.0" y1="295.0" x2="870.0" y2="295.0"/>
<text class="label" x="82.0" y="299.0" text-anchor="end">10^-4</text>
<line class="grid" x1="90.0" y1="238.3" x2="870.0" y2="238.3"/>
<text class="label" x="82.0" y="242.3" text-anchor="end">10^-3</text>
<line class="grid" x1="90.0" y1="181.7" x2="870.0" y2="181.7"/>
<text class="label" x="82.0" y="185.7" text-anchor="end">10^-2</text>
<line class="grid" x1="90.0" y1="125.0" x2="870.0" y2="125.0"/>
<text class="label" x="82.0" y="129.0" text-anchor="end">10^-1</text>
<line class="grid" x1="90.0" y1="68.3" x2="870.0" y2="68.3"/>
<text class="label" x="82.0" y="72.3" text-anchor="end">1</text>
<line class="grid" x1="90.0" y1="40.0" x2="90.0" y2="550.0"/>
<text class="label" x="90.0" y="566.0" text-anchor="middle">0</text>
<line class="grid" x1="206.1" y1="40.0" x2="206.1" y2="550.0"/>
<text class="label" x="206.1" y="566.0" text-anchor="middle">5</text>
<line class="grid" x1="322.1" y1="40.0" x2="322.1" y2="550.0"/>
<text class="label" x="322.1" y="566.0" text-anchor="middle">10</text>
<line class="grid" x1="438.2" y1="40.0" x2="438.2" y2="550.0"/>
<text class="label" x="438.2" y="566.0" text-anchor="middle">15</text>
<line class="grid" x1="554.3" y1="40.0" x2="554.3" y2="550.0"/>
<text class="label" x="554.3" y="566.0" text-anchor="middle">20</text>
<line class="grid" x1="670.4" y1="40.0" x2="670.4" y2="550.0"/>
<text class="label" x="670.4" y="566.0" text-anchor="middle">25</text>
<line class="grid" x1="786.4" y1="40.0" x2="786.4" y2="550.0"/>
<text class="label" x="786.4" y="566.0" text-anchor="middle">30</text>
<polyline fill="none" stroke="#ef4444" stroke-width="2" stroke-dasharray="8,5" points="252.5,68.3 275.7,85.4 298.9,102.5 322.1,119.5 345.4,136.6 368.6,153.6 391.8,170.7 415.0,187.7 438.2,204.8 461.4,221.9 484.6,238.9 507.9,256.0 531.1,273.0 554.3,290.1 600.7,324.2 647.1,358.3 740.0,426.6 832.9,494.8"/>
<circle cx="252.5" cy="68.3" r="3" fill="#ef4444"/>
<circle cx="275.7" cy="85.4" r="3" fill="#ef4444"/>
<circle cx="298.9" cy="102.5" r="3" fill="#ef4444"/>
<circle cx="322.1" cy="119.5" r="3" fill="#ef4444"/>
<circle cx="345.4" cy="136.6" r="3" fill="#ef4444"/>
<circle cx="368.6" cy="153.6" r="3" fill="#ef4444"/>
<circle cx="391.8" cy="170.7" r="3" fill="#ef4444"/>
<circle cx="415.0" cy="187.7" r="3" fill="#ef4444"/>
<circle cx="438.2" cy="204.8" r="3" fill="#ef4444"/>
<circle cx="461.4" cy="221.9" r="3" fill="#ef4444"/>
<circle cx="484.6" cy="238.9" r="3" fill="#ef4444"/>
<circle cx="507.9" cy="256.0" r="3" fill="#ef4444"/>
<circle cx="531.1" cy="273.0" r="3" fill="#ef4444"/>
<circle cx="554.3" cy="290.1" r="3" fill="#ef4444"/>
<circle cx="600.7" cy="324.2" r="3" fill="#ef4444"/>
<circle cx="647.1" cy="358.3" r="3" fill="#ef4444"/>
<circle cx="740.0" cy="426.6" r="3" fill="#ef4444"/>
<circle cx="832.9" cy="494.8" r="3" fill="#ef4444"/>
<polyline fill="none" stroke="#1a6b3c" stroke-width="2" points="189.2,68.3 240.1,69.2 289.4,80.7 343.7,106.7 390.5,141.5 436.9,176.5 483.4,210.3 528.3,246.3 575.4,276.8"/>
<polygon points="189.2,64.3 193.2,68.3 189.2,72.3 185.2,68.3" fill="#1a6b3c"/>
<polygon points="240.1,65.2 244.1,69.2 240.1,73.2 236.1,69.2" fill="#1a6b3c"/>
<polygon points="289.4,76.7 293.4,80.7 289.4,84.7 285.4,80.7" fill="#1a6b3c"/>
<polygon points="343.7,102.7 347.7,106.7 343.7,110.7 339.7,106.7" fill="#1a6b3c"/>
<polygon points="390.5,137.5 394.5,141.5 390.5,145.5 386.5,141.5" fill="#1a6b3c"/>
<polygon points="436.9,172.5 440.9,176.5 436.9,180.5 432.9,176.5" fill="#1a6b3c"/>
<polygon points="483.4,206.3 487.4,210.3 483.4,214.3 479.4,210.3" fill="#1a6b3c"/>
<polygon points="528.3,242.3 532.3,246.3 528.3,250.3 524.3,246.3" fill="#1a6b3c"/>
<polygon points="575.4,272.8 579.4,276.8 575.4,280.8 571.4,276.8" fill="#1a6b3c"/>
<polyline fill="none" stroke="#1a3a6b" stroke-width="2" points="168.4,109.5 214.7,118.0 261.3,121.4 307.8,122.2 354.1,122.3 400.4,122.3 447.0,122.3 493.5,122.3 539.8,122.3"/>
<polygon points="168.4,104.5 167.2,107.9 163.6,108.0 166.5,110.1 165.5,113.6 168.4,111.5 171.3,113.6 170.3,110.1 173.2,108.0 169.6,107.9" fill="#1a3a6b"/>
<polygon points="214.7,113.0 213.5,116.4 210.0,116.5 212.8,118.6 211.8,122.1 214.7,120.0 217.7,122.1 216.6,118.6 219.5,116.5 215.9,116.4" fill="#1a3a6b"/>
<polygon points="261.3,116.4 260.1,119.8 256.5,119.9 259.4,122.0 258.3,125.5 261.3,123.4 264.2,125.5 263.2,122.0 266.0,119.9 262.4,119.8" fill="#1a3a6b"/>
<polygon points="307.8,117.2 306.6,120.6 303.0,120.7 305.9,122.8 304.9,126.2 307.8,124.2 310.7,126.2 309.7,122.8 312.6,120.7 309.0,120.6" fill="#1a3a6b"/>
<polygon points="354.1,117.3 352.9,120.7 349.4,120.7 352.2,122.9 351.2,126.3 354.1,124.3 357.1,126.3 356.0,122.9 358.9,120.7 355.3,120.7" fill="#1a3a6b"/>
<polygon points="400.4,117.3 399.3,120.7 395.7,120.8 398.5,122.9 397.5,126.3 400.4,124.3 403.4,126.3 402.3,122.9 405.2,120.8 401.6,120.7" fill="#1a3a6b"/>
<polygon points="447.0,117.3 445.8,120.7 442.2,120.8 445.1,122.9 444.0,126.4 447.0,124.3 449.9,126.4 448.9,122.9 451.7,120.8 448.1,120.7" fill="#1a3a6b"/>
<polygon points="493.5,117.3 492.3,120.7 488.8,120.8 491.6,122.9 490.6,126.4 493.5,124.3 496.5,126.4 495.4,122.9 498.3,120.8 494.7,120.7" fill="#1a3a6b"/>
<polygon points="539.8,117.3 538.7,120.7 535.1,120.8 537.9,122.9 536.9,126.4 539.8,124.3 542.8,126.4 541.7,122.9 544.6,120.8 541.0,120.7" fill="#1a3a6b"/>
<polyline fill="none" stroke="#111111" stroke-width="2" points="371.5,145.0"/>
<rect x="368.5" y="142.0" width="6" height="6" fill="#111111"/>
<polyline fill="none" stroke="#111111" stroke-width="2" points="557.2,145.0"/>
<polygon points="557.2,141.0 561.2,148.0 553.2,148.0" fill="#111111"/>
<polyline fill="none" stroke="#111111" stroke-width="2" points="557.2,521.7"/>
<polygon points="557.2,517.7 561.2,521.7 557.2,525.7 553.2,521.7" fill="#111111"/>
<polyline fill="none" stroke="#2a7fff" stroke-width="2" points="90.0,68.4 90.0,68.4 90.0,68.4 90.0,68.4 90.1,68.4 90.1,68.4 90.3,68.4 90.5,68.4 91.1,68.4 92.2,68.4 94.4,68.4 98.7,68.4 107.2,68.4 121.7,68.4 142.7,68.4 168.4,68.4 195.9,68.4 248.0,69.1 297.1,79.9 391.8,143.9 484.6,213.3"/>
<rect x="87.0" y="65.4" width="6" height="6" fill="#2a7fff"/>
<rect x="87.0" y="65.4" width="6" height="6" fill="#2a7fff"/>
<rect x="87.0" y="65.4" width="6" height="6" fill="#2a7fff"/>
<rect x="87.0" y="65.4" width="6" height="6" fill="#2a7fff"/>
<rect x="87.1" y="65.4" width="6" height="6" fill="#2a7fff"/>
<rect x="87.1" y="65.4" width="6" height="6" fill="#2a7fff"/>
<rect x="87.3" y="65.4" width="6" height="6" fill="#2a7fff"/>
<rect x="87.5" y="65.4" width="6" height="6" fill="#2a7fff"/>
<rect x="88.1" y="65.4" width="6" height="6" fill="#2a7fff"/>
<rect x="89.2" y="65.4" width="6" height="6" fill="#2a7fff"/>
<rect x="91.4" y="65.4" width="6" height="6" fill="#2a7fff"/>
<rect x="95.7" y="65.4" width="6" height="6" fill="#2a7fff"/>
<rect x="104.2" y="65.4" width="6" height="6" fill="#2a7fff"/>
<rect x="118.7" y="65.4" width="6" height="6" fill="#2a7fff"/>
<rect x="139.7" y="65.4" width="6" height="6" fill="#2a7fff"/>
<rect x="165.4" y="65.4" width="6" height="6" fill="#2a7fff"/>
<rect x="192.9" y="65.4" width="6" height="6" fill="#2a7fff"/>
<rect x="245.0" y="66.1" width="6" height="6" fill="#2a7fff"/>
<rect x="294.1" y="76.9" width="6" height="6" fill="#2a7fff"/>
<rect x="388.8" y="140.9" width="6" height="6" fill="#2a7fff"/>
<rect x="481.6" y="210.3" width="6" height="6" fill="#2a7fff"/>
<polyline fill="none" stroke="#9b59b6" stroke-width="2" points="90.0,68.4 90.0,69.0 90.0,73.6 90.0,79.0 90.0,86.2 90.0,92.8 90.1,97.6 90.1,100.7 90.1,102.4 90.1,103.3 90.1,103.8 90.1,104.0 90.1,104.1 90.1,104.2 90.1,104.2 90.1,104.3 90.1,104.3 90.2,104.3 90.2,104.3 90.2,104.3 90.3,104.3"/>
<polygon points="90.0,64.4 94.0,71.4 86.0,71.4" fill="#9b59b6"/>
<polygon points="90.0,65.0 94.0,72.0 86.0,72.0" fill="#9b59b6"/>
<polygon points="90.0,69.6 94.0,76.6 86.0,76.6" fill="#9b59b6"/>
<polygon points="90.0,75.0 94.0,82.0 86.0,82.0" fill="#9b59b6"/>
<polygon points="90.0,82.2 94.0,89.2 86.0,89.2" fill="#9b59b6"/>
<polygon points="90.0,88.8 94.0,95.8 86.0,95.8" fill="#9b59b6"/>
<polygon points="90.1,93.6 94.1,100.6 86.1,100.6" fill="#9b59b6"/>
<polygon points="90.1,96.7 94.1,103.7 86.1,103.7" fill="#9b59b6"/>
<polygon points="90.1,98.4 94.1,105.4 86.1,105.4" fill="#9b59b6"/>
<polygon points="90.1,99.3 94.1,106.3 86.1,106.3" fill="#9b59b6"/>
<polygon points="90.1,99.8 94.1,106.8 86.1,106.8" fill="#9b59b6"/>
<polygon points="90.1,100.0 94.1,107.0 86.1,107.0" fill="#9b59b6"/>
<polygon points="90.1,100.1 94.1,107.1 86.1,107.1" fill="#9b59b6"/>
<polygon points="90.1,100.2 94.1,107.2 86.1,107.2" fill="#9b59b6"/>
<polygon points="90.1,100.2 94.1,107.2 86.1,107.2" fill="#9b59b6"/>
<polygon points="90.1,100.3 94.1,107.3 86.1,107.3" fill="#9b59b6"/>
<polygon points="90.1,100.3 94.1,107.3 86.1,107.3" fill="#9b59b6"/>
<polygon points="90.2,100.3 94.2,107.3 86.2,107.3" fill="#9b59b6"/>
<polygon points="90.2,100.3 94.2,107.3 86.2,107.3" fill="#9b59b6"/>
<polygon points="90.2,100.3 94.2,107.3 86.2,107.3" fill="#9b59b6"/>
<polygon points="90.3,100.3 94.3,107.3 86.3,107.3" fill="#9b59b6"/>
<polyline fill="none" stroke="#4dd88a" stroke-width="2" points="90.0,68.3 90.0,68.3 90.0,68.3 90.0,68.3 90.1,68.3 90.1,68.3 90.3,68.3 90.5,68.3 91.1,68.3 92.2,68.3 94.4,68.3 98.7,68.3 107.2,68.3 121.7,68.3 142.7,68.3 168.4,68.3 195.9,68.3 248.0,69.1 297.1,79.8 391.8,143.9 484.6,213.2"/>
<polygon points="90.0,64.3 94.0,68.3 90.0,72.3 86.0,68.3" fill="#4dd88a"/>
<polygon points="90.0,64.3 94.0,68.3 90.0,72.3 86.0,68.3" fill="#4dd88a"/>
<polygon points="90.0,64.3 94.0,68.3 90.0,72.3 86.0,68.3" fill="#4dd88a"/>
<polygon points="90.0,64.3 94.0,68.3 90.0,72.3 86.0,68.3" fill="#4dd88a"/>
<polygon points="90.1,64.3 94.1,68.3 90.1,72.3 86.1,68.3" fill="#4dd88a"/>
<polygon points="90.1,64.3 94.1,68.3 90.1,72.3 86.1,68.3" fill="#4dd88a"/>
<polygon points="90.3,64.3 94.3,68.3 90.3,72.3 86.3,68.3" fill="#4dd88a"/>
<polygon points="90.5,64.3 94.5,68.3 90.5,72.3 86.5,68.3" fill="#4dd88a"/>
<polygon points="91.1,64.3 95.1,68.3 91.1,72.3 87.1,68.3" fill="#4dd88a"/>
<polygon points="92.2,64.3 96.2,68.3 92.2,72.3 88.2,68.3" fill="#4dd88a"/>
<polygon points="94.4,64.3 98.4,68.3 94.4,72.3 90.4,68.3" fill="#4dd88a"/>
<polygon points="98.7,64.3 102.7,68.3 98.7,72.3 94.7,68.3" fill="#4dd88a"/>
<polygon points="107.2,64.3 111.2,68.3 107.2,72.3 103.2,68.3" fill="#4dd88a"/>
<polygon points="121.7,64.3 125.7,68.3 121.7,72.3 117.7,68.3" fill="#4dd88a"/>
<polygon points="142.7,64.3 146.7,68.3 142.7,72.3 138.7,68.3" fill="#4dd88a"/>
<polygon points="168.4,64.3 172.4,68.3 168.4,72.3 164.4,68.3" fill="#4dd88a"/>
<polygon points="195.9,64.3 199.9,68.3 195.9,72.3 191.9,68.3" fill="#4dd88a"/>
<polygon points="248.0,65.1 252.0,69.1 248.0,73.1 244.0,69.1" fill="#4dd88a"/>
<polygon points="297.1,75.8 301.1,79.8 297.1,83.8 293.1,79.8" fill="#4dd88a"/>
<polygon points="391.8,139.9 395.8,143.9 391.8,147.9 387.8,143.9" fill="#4dd88a"/>
<polygon points="484.6,209.2 488.6,213.2 484.6,217.2 480.6,213.2" fill="#4dd88a"/>
<polyline fill="none" stroke="#ff6b6b" stroke-width="2" points="90.2,71.3 90.2,72.0 90.3,75.7 90.5,80.8 90.8,87.5 91.5,93.7 92.9,98.3 95.6,101.0 101.0,102.6 110.9,103.4 125.8,103.8 146.2,104.1 167.3,104.2 188.5,104.2 209.4,104.3 229.6,106.1 249.3,315.2 249.3,369.3 249.3,521.7 249.3,521.7 249.4,521.7"/>
<polygon points="90.2,66.3 89.0,69.7 85.4,69.8 88.3,71.9 87.2,75.3 90.2,73.3 93.1,75.3 92.1,71.9 94.9,69.8 91.3,69.7" fill="#ff6b6b"/>
<polygon points="90.2,67.0 89.0,70.4 85.5,70.4 88.3,72.6 87.3,76.0 90.2,74.0 93.1,76.0 92.1,72.6 95.0,70.4 91.4,70.4" fill="#ff6b6b"/>
<polygon points="90.3,70.7 89.1,74.0 85.5,74.1 88.4,76.3 87.4,79.7 90.3,77.7 93.2,79.7 92.2,76.3 95.1,74.1 91.5,74.0" fill="#ff6b6b"/>
<polygon points="90.5,75.8 89.3,79.2 85.7,79.2 88.6,81.4 87.5,84.8 90.5,82.8 93.4,84.8 92.4,81.4 95.2,79.2 91.7,79.2" fill="#ff6b6b"/>
<polygon points="90.8,82.5 89.6,85.9 86.1,85.9 88.9,88.1 87.9,91.5 90.8,89.5 93.8,91.5 92.7,88.1 95.6,85.9 92.0,85.9" fill="#ff6b6b"/>
<polygon points="91.5,88.7 90.3,92.1 86.8,92.1 89.6,94.3 88.6,97.7 91.5,95.7 94.5,97.7 93.4,94.3 96.3,92.1 92.7,92.1" fill="#ff6b6b"/>
<polygon points="92.9,93.3 91.7,96.7 88.1,96.7 91.0,98.9 89.9,102.3 92.9,100.3 95.8,102.3 94.8,98.9 97.6,96.7 94.1,96.7" fill="#ff6b6b"/>
<polygon points="95.6,96.0 94.4,99.4 90.9,99.5 93.7,101.7 92.7,105.1 95.6,103.0 98.6,105.1 97.5,101.7 100.4,99.5 96.8,99.4" fill="#ff6b6b"/>
<polygon points="101.0,97.6 99.8,101.0 96.3,101.0 99.1,103.2 98.1,106.6 101.0,104.6 104.0,106.6 102.9,103.2 105.8,101.0 102.2,101.0" fill="#ff6b6b"/>
<polygon points="110.9,98.4 109.7,101.8 106.1,101.9 109.0,104.0 107.9,107.5 110.9,105.4 113.8,107.5 112.8,104.0 115.6,101.9 112.0,101.8" fill="#ff6b6b"/>
<polygon points="125.8,98.8 124.6,102.2 121.0,102.3 123.9,104.5 122.8,107.9 125.8,105.8 128.7,107.9 127.7,104.5 130.5,102.3 126.9,102.2" fill="#ff6b6b"/>
<polygon points="146.2,99.1 145.0,102.5 141.4,102.5 144.3,104.7 143.2,108.1 146.2,106.1 149.1,108.1 148.1,104.7 150.9,102.5 147.4,102.5" fill="#ff6b6b"/>
<polygon points="167.3,99.2 166.2,102.6 162.6,102.6 165.4,104.8 164.4,108.2 167.3,106.2 170.3,108.2 169.2,104.8 172.1,102.6 168.5,102.6" fill="#ff6b6b"/>
<polygon points="188.5,99.2 187.4,102.6 183.8,102.7 186.6,104.8 185.6,108.3 188.5,106.2 191.5,108.3 190.4,104.8 193.3,102.7 189.7,102.6" fill="#ff6b6b"/>
<polygon points="209.4,99.3 208.2,102.6 204.7,102.7 207.5,104.9 206.5,108.3 209.4,106.3 212.3,108.3 211.3,104.9 214.2,102.7 210.6,102.6" fill="#ff6b6b"/>
<polygon points="229.6,101.1 228.4,104.5 224.9,104.5 227.7,106.7 226.7,110.1 229.6,108.1 232.6,110.1 231.5,106.7 234.4,104.5 230.8,104.5" fill="#ff6b6b"/>
<polygon points="249.3,310.2 248.1,313.6 244.5,313.7 247.4,315.9 246.3,319.3 249.3,317.2 252.2,319.3 251.2,315.9 254.0,313.7 250.4,313.6" fill="#ff6b6b"/>
<polygon points="249.3,364.3 248.1,367.7 244.5,367.8 247.4,369.9 246.3,373.4 249.3,371.3 252.2,373.4 251.2,369.9 254.0,367.8 250.5,367.7" fill="#ff6b6b"/>
<polygon points="249.3,516.7 248.1,520.0 244.5,520.1 247.4,522.3 246.4,525.7 249.3,523.7 252.2,525.7 251.2,522.3 254.0,520.1 250.5,520.0" fill="#ff6b6b"/>
<polygon points="249.3,516.7 248.2,520.0 244.6,520.1 247.4,522.3 246.4,525.7 249.3,523.7 252.3,525.7 251.2,522.3 254.1,520.1 250.5,520.0" fill="#ff6b6b"/>
<polygon points="249.4,516.7 248.2,520.0 244.6,520.1 247.5,522.3 246.4,525.7 249.4,523.7 252.3,525.7 251.3,522.3 254.1,520.1 250.5,520.0" fill="#ff6b6b"/>
<polyline fill="none" stroke="#ff922b" stroke-width="2" points="314.7,177.6 339.4,200.6 363.4,242.1 386.1,243.2 408.9,244.0 431.6,244.3 454.3,244.7 476.9,244.7 522.2,244.7 544.9,244.7"/>
<circle cx="314.7" cy="177.6" r="3" fill="#ff922b"/>
<circle cx="339.4" cy="200.6" r="3" fill="#ff922b"/>
<circle cx="363.4" cy="242.1" r="3" fill="#ff922b"/>
<circle cx="386.1" cy="243.2" r="3" fill="#ff922b"/>
<circle cx="408.9" cy="244.0" r="3" fill="#ff922b"/>
<circle cx="431.6" cy="244.3" r="3" fill="#ff922b"/>
<circle cx="454.3" cy="244.7" r="3" fill="#ff922b"/>
<circle cx="476.9" cy="244.7" r="3" fill="#ff922b"/>
<circle cx="522.2" cy="244.7" r="3" fill="#ff922b"/>
<circle cx="544.9" cy="244.7" r="3" fill="#ff922b"/>
<polyline fill="none" stroke="#888888" stroke-width="2" stroke-dasharray="8,5" points="433.2,125.0 468.0,141.9 513.0,164.2 546.7,180.8 580.3,199.0 624.7,221.3 658.2,240.7 691.7,254.1 736.0,274.6 769.5,295.6"/>
<circle cx="433.2" cy="125.0" r="3" fill="#888888"/>
<circle cx="468.0" cy="141.9" r="3" fill="#888888"/>
<circle cx="513.0" cy="164.2" r="3" fill="#888888"/>
<circle cx="546.7" cy="180.8" r="3" fill="#888888"/>
<circle cx="580.3" cy="199.0" r="3" fill="#888888"/>
<circle cx="624.7" cy="221.3" r="3" fill="#888888"/>
<circle cx="658.2" cy="240.7" r="3" fill="#888888"/>
<circle cx="691.7" cy="254.1" r="3" fill="#888888"/>
<circle cx="736.0" cy="274.6" r="3" fill="#888888"/>
<circle cx="769.5" cy="295.6" r="3" fill="#888888"/>
<line x1="886" y1="60" x2="902" y2="60" stroke="#ef4444" stroke-width="2" stroke-dasharray="8,5"/>
<circle cx="894.0" cy="60.0" r="3" fill="#ef4444"/>
<text class="label" x="908" y="64">Theoretical</text>
<line x1="886" y1="78" x2="902" y2="78" stroke="#1a6b3c" stroke-width="2"/>
<polygon points="894.0,74.0 898.0,78.0 894.0,82.0 890.0,78.0" fill="#1a6b3c"/>
<text class="label" x="908" y="82">Grafite</text>
<line x1="886" y1="96" x2="902" y2="96" stroke="#1a3a6b" stroke-width="2"/>
<polygon points="894.0,91.0 892.8,94.4 889.2,94.5 892.1,96.6 891.1,100.0 894.0,98.0 896.9,100.0 895.9,96.6 898.8,94.5 895.2,94.4" fill="#1a3a6b"/>
<text class="label" x="908" y="100">SNARF</text>
<line x1="886" y1="114" x2="902" y2="114" stroke="#111111" stroke-width="2"/>
<rect x="891.0" y="111.0" width="6" height="6" fill="#111111"/>
<text class="label" x="908" y="118">SuRF</text>
<line x1="886" y1="132" x2="902" y2="132" stroke="#111111" stroke-width="2"/>
<polygon points="894.0,128.0 898.0,135.0 890.0,135.0" fill="#111111"/>
<text class="label" x="908" y="136">SuRFHash(8)</text>
<line x1="886" y1="150" x2="902" y2="150" stroke="#111111" stroke-width="2"/>
<polygon points="894.0,146.0 898.0,150.0 894.0,154.0 890.0,150.0" fill="#111111"/>
<text class="label" x="908" y="154">SuRFReal(8)</text>
<line x1="886" y1="168" x2="902" y2="168" stroke="#2a7fff" stroke-width="2"/>
<rect x="891.0" y="165.0" width="6" height="6" fill="#2a7fff"/>
<text class="label" x="908" y="172">Adaptive (t=0)</text>
<line x1="886" y1="186" x2="902" y2="186" stroke="#9b59b6" stroke-width="2"/>
<polygon points="894.0,182.0 898.0,189.0 890.0,189.0" fill="#9b59b6"/>
<text class="label" x="908" y="190">Truncation</text>
<line x1="886" y1="204" x2="902" y2="204" stroke="#4dd88a" stroke-width="2"/>
<polygon points="894.0,200.0 898.0,204.0 894.0,208.0 890.0,204.0" fill="#4dd88a"/>
<text class="label" x="908" y="208">SODA</text>
<line x1="886" y1="222" x2="902" y2="222" stroke="#ff6b6b" stroke-width="2"/>
<polygon points="894.0,217.0 892.8,220.4 889.2,220.5 892.1,222.6 891.1,226.0 894.0,224.0 896.9,226.0 895.9,222.6 898.8,220.5 895.2,220.4" fill="#ff6b6b"/>
<text class="label" x="908" y="226">Hybrid</text>
<line x1="886" y1="240" x2="902" y2="240" stroke="#ff922b" stroke-width="2"/>
<circle cx="894.0" cy="240.0" r="3" fill="#ff922b"/>
<text class="label" x="908" y="244">CDF-ARE</text>
<line x1="886" y1="258" x2="902" y2="258" stroke="#888888" stroke-width="2" stroke-dasharray="8,5"/>
<circle cx="894.0" cy="258.0" r="3" fill="#888888"/>
<text class="label" x="908" y="262">BloomARE</text>
<text x="480" y="590" text-anchor="middle">Bits per Key (BPK)</text>
<text transform="translate(16,295) rotate(-90)" text-anchor="middle">False Positive Rate (FPR)</text>
</svg>
