<svg xmlns="http://www.w3.org/2000/svg" width="1020" height="600" viewBox="0 0 1020 600">
<style>text{font-family:Menlo,Monaco,monospace;font-size:12px;fill:#222} .axis{stroke:#333;stroke-width:1} .grid{stroke:#eee;stroke-width:0.5} .label{font-size:11px;fill:#444}</style>
<text x="510" y="28" text-anchor="middle" style="font-size:14px;font-weight:bold">FPR vs BPK — zipfian (60-bit keys, n=262144, L=16)</text>
<line class="axis" x1="90.0" y1="550.0" x2="870.0" y2="550.0"/>
<line class="axis" x1="90.0" y1="40.0" x2="90.0" y2="550.0"/>
<line class="grid" x1="90.0" y1="521.7" x2="870.0" y2="521.7"/>
<text class="label" x="82.0" y="525.7" text-anchor="end">10^-8</text>
<line class="grid" x1="90.0" y1="465.0" x2="870.0" y2="465.0"/>
<text class="label" x="82.0" y="469.0" text-anchor="end">10^-7</text>
<line class="grid" x1="90.0" y1="408.3" x2="870.0" y2="408.3"/>
<text class="label" x="82.0" y="412.3" text-anchor="end">10^-6</text>
<line class="grid" x1="90.0" y1="351.7" x2="870.0" y2="351.7"/>
<text class="label" x="82.0" y="355.7" text-anchor="end">10^-5</text>
<line class="grid" x1="90.0" y1="295.0" x2="870.0" y2="295.0"/>
<text class="label" x="82.0" y="299.0" text-anchor="end">10^-4</text>
<line class="grid" x1="90.0" y1="238.3" x2="870.0" y2="238.3"/>
<text class="label" x="82.0" y="242.3" text-anchor="end">10^-3</text>
<line class="grid" x1="90.0" y1="181.7" x2="870.0" y2="181.7"/>
<text class="label" x="82.0" y="185.7" text-anchor="end">10^-2</text>
<line class="grid" x1="90.0" y1="125.0" x2="870.0" y2="125.0"/>
<text class="label" x="82.0" y="129.0" text-anchor="end">10^-1</text>
<line class="grid" x1="90.0" y1="68.3" x2="870.0" y2="68.3"/>
<text class="label" x="82.0" y="72.3" text-anchor="end">1</text>
<line class="grid" x1="90.0" y1="40.0" x2="90.0" y2="550.0"/>
<text class="label" x="90.0" y="566.0" text-anchor="middle">0</text>
<line class="grid" x1="206.1" y1="40.0" x2="206.1" y2="550.0"/>
<text class="label" x="206.1" y="566.0" text-anchor="middle">5</text>
<line class="grid" x1="322.1" y1="40.0" x2="322.1" y2="550.0"/>
<text class="label" x="322.1" y="566.0" text-anchor="middle">10</text>
<line class="grid" x1="438.2" y1="40.0" x2="438.2" y2="550.0"/>
<text class="label" x="438.2" y="566.0" text-anchor="middle">15</text>
<line class="grid" x1="554.3" y1="40.0" x2="554.3" y2="550.0"/>
<text class="label" x="554.3" y="566.0" text-anchor="middle">20</text>
<line class="grid" x1="670.4" y1="40.0" x2="670.4" y2="550.0"/>
<text class="label" x="670.4" y="566.0" text-anchor="middle">25</text>
<line class="grid" x1="786.4" y1="40.0" x2="786.4" y2="550.0"/>
<text class="label" x="786.4" y="566.0" text-anchor="middle">30</text>
<polyline fill="none" stroke="#ef4444" stroke-width="2" stroke-dasharray="8,5" points="182.9,68.3 206.1,85.4 229.3,102.5 252.5,119.5 275.7,136.6 298.9,153.6 322.1,170.7 345.4,187.7 368.6,204.8 391.8,221.9 415.0,238.9 438.2,256.0 461.4,273.0 484.6,290.1 507.9,307.2 531.1,324.2 554.3,341.3 600.7,375.4 647.1,409.5 740.0,477.7 832.9,546.0"/>
<circle cx="182.9" cy="68.3" r="3" fill="#ef4444"/>
<circle cx="206.1" cy="85.4" r="3" fill="#ef4444"/>
<circle cx="229.3" cy="102.5" r="3" fill="#ef4444"/>
<circle cx="252.5" cy="119.5" r="3" fill="#ef4444"/>
<circle cx="275.7" cy="136.6" r="3" fill="#ef4444"/>
<circle cx="298.9" cy="153.6" r="3" fill="#ef4444"/>
<circle cx="322.1" cy="170.7" r="3" fill="#ef4444"/>
<circle cx="345.4" cy="187.7" r="3" fill="#ef4444"/>
<circle cx="368.6" cy="204.8" r="3" fill="#ef4444"/>
<circle cx="391.8" cy="221.9" r="3" fill="#ef4444"/>
<circle cx="415.0" cy="238.9" r="3" fill="#ef4444"/>
<circle cx="438.2" cy="256.0" r="3" fill="#ef4444"/>
<circle cx="461.4" cy="273.0" r="3" fill="#ef4444"/>
<circle cx="484.6" cy="290.1" r="3" fill="#ef4444"/>
<circle cx="507.9" cy="307.2" r="3" fill="#ef4444"/>
<circle cx="531.1" cy="324.2" r="3" fill="#ef4444"/>
<circle cx="554.3" cy="341.3" r="3" fill="#ef4444"/>
<circle cx="600.7" cy="375.4" r="3" fill="#ef4444"/>
<circle cx="647.1" cy="409.5" r="3" fill="#ef4444"/>
<circle cx="740.0" cy="477.7" r="3" fill="#ef4444"/>
<circle cx="832.9" cy="546.0" r="3" fill="#ef4444"/>
<polyline fill="none" stroke="#1a6b3c" stroke-width="2" points="189.3,68.9 240.5,81.8 289.3,109.5 343.2,145.1 390.3,198.1 435.5,232.0 483.1,250.7 529.1,309.5 575.6,356.7"/>
<polygon points="189.3,64.9 193.3,68.9 189.3,72.9 185.3,68.9" fill="#1a6b3c"/>
<polygon points="240.5,77.8 244.5,81.8 240.5,85.8 236.5,81.8" fill="#1a6b3c"/>
<polygon points="289.3,105.5 293.3,109.5 289.3,113.5 285.3,109.5" fill="#1a6b3c"/>
<polygon points="343.2,141.1 347.2,145.1 343.2,149.1 339.2,145.1" fill="#1a6b3c"/>
<polygon points="390.3,194.1 394.3,198.1 390.3,202.1 386.3,198.1" fill="#1a6b3c"/>
<polygon points="435.5,228.0 439.5,232.0 435.5,236.0 431.5,232.0" fill="#1a6b3c"/>
<polygon points="483.1,246.7 487.1,250.7 483.1,254.7 479.1,250.7" fill="#1a6b3c"/>
<polygon points="529.1,305.5 533.1,309.5 529.1,313.5 525.1,309.5" fill="#1a6b3c"/>
<polygon points="575.6,352.7 579.6,356.7 575.6,360.7 571.6,356.7" fill="#1a6b3c"/>
<polyline fill="none" stroke="#1a3a6b" stroke-width="2" points="168.4,85.8 214.7,92.4 261.3,94.9 307.8,95.4 354.1,95.4 400.4,95.4 447.0,95.4 493.5,95.4 539.8,95.4"/>
<polygon points="168.4,80.8 167.2,84.1 163.6,84.2 166.5,86.4 165.5,89.8 168.4,87.8 171.3,89.8 170.3,86.4 173.2,84.2 169.6,84.1" fill="#1a3a6b"/>
<polygon points="214.7,87.4 213.5,90.7 210.0,90.8 212.8,93.0 211.8,96.4 214.7,94.4 217.7,96.4 216.6,93.0 219.5,90.8 215.9,90.7" fill="#1a3a6b"/>
<polygon points="261.3,89.9 260.1,93.3 256.5,93.4 259.4,95.5 258.3,98.9 261.3,96.9 264.2,98.9 263.2,95.5 266.0,93.4 262.4,93.3" fill="#1a3a6b"/>
<polygon points="307.8,90.4 306.6,93.8 303.0,93.8 305.9,96.0 304.9,99.4 307.8,97.4 310.7,99.4 309.7,96.0 312.6,93.8 309.0,93.8" fill="#1a3a6b"/>
<polygon points="354.1,90.4 352.9,93.8 349.4,93.8 352.2,96.0 351.2,99.4 354.1,97.4 357.1,99.4 356.0,96.0 358.9,93.8 355.3,93.8" fill="#1a3a6b"/>
<polygon points="400.4,90.4 399.3,93.8 395.7,93.8 398.5,96.0 397.5,99.4 400.4,97.4 403.4,99.4 402.3,96.0 405.2,93.8 401.6,93.8" fill="#1a3a6b"/>
<polygon points="447.0,90.4 445.8,93.8 442.2,93.8 445.1,96.0 444.0,99.4 447.0,97.4 449.9,99.4 448.9,96.0 451.7,93.8 448.1,93.8" fill="#1a3a6b"/>
<polygon points="493.5,90.4 492.3,93.8 488.8,93.8 491.6,96.0 490.6,99.4 493.5,97.4 496.5,99.4 495.4,96.0 498.3,93.8 494.7,93.8" fill="#1a3a6b"/>
<polygon points="539.8,90.4 538.7,93.8 535.1,93.8 537.9,96.0 536.9,99.4 539.8,97.4 542.8,99.4 541.7,96.0 544.6,93.8 541.0,93.8" fill="#1a3a6b"/>
<polyline fill="none" stroke="#111111" stroke-width="2" points="371.5,154.6"/>
<rect x="368.5" y="151.6" width="6" height="6" fill="#111111"/>
<polyline fill="none" stroke="#111111" stroke-width="2" points="557.2,154.6"/>
<polygon points="557.2,150.6 561.2,157.6 553.2,157.6" fill="#111111"/>
<polyline fill="none" stroke="#111111" stroke-width="2" points="557.2,521.7"/>
<polygon points="557.2,517.7 561.2,521.7 557.2,525.7 553.2,521.7" fill="#111111"/>
<polyline fill="none" stroke="#2a7fff" stroke-width="2" points="90.0,68.3 90.0,68.3 90.0,68.3 90.0,68.3 90.1,68.3 90.1,68.3 90.3,68.3 90.5,68.3 91.1,68.3 92.2,68.3 94.4,68.3 98.7,68.3 107.2,68.3 121.7,68.3 142.7,68.3 168.4,68.4 195.9,68.9 248.0,80.1 297.1,101.5 391.8,206.8 484.6,274.5"/>
<rect x="87.0" y="65.3" width="6" height="6" fill="#2a7fff"/>
<rect x="87.0" y="65.3" width="6" height="6" fill="#2a7fff"/>
<rect x="87.0" y="65.3" width="6" height="6" fill="#2a7fff"/>
<rect x="87.0" y="65.3" width="6" height="6" fill="#2a7fff"/>
<rect x="87.1" y="65.3" width="6" height="6" fill="#2a7fff"/>
<rect x="87.1" y="65.3" width="6" height="6" fill="#2a7fff"/>
<rect x="87.3" y="65.3" width="6" height="6" fill="#2a7fff"/>
<rect x="87.5" y="65.3" width="6" height="6" fill="#2a7fff"/>
<rect x="88.1" y="65.3" width="6" height="6" fill="#2a7fff"/>
<rect x="89.2" y="65.3" width="6" height="6" fill="#2a7fff"/>
<rect x="91.4" y="65.3" width="6" height="6" fill="#2a7fff"/>
<rect x="95.7" y="65.3" width="6" height="6" fill="#2a7fff"/>
<rect x="104.2" y="65.3" width="6" height="6" fill="#2a7fff"/>
<rect x="118.7" y="65.3" width="6" height="6" fill="#2a7fff"/>
<rect x="139.7" y="65.3" width="6" height="6" fill="#2a7fff"/>
<rect x="165.4" y="65.4" width="6" height="6" fill="#2a7fff"/>
<rect x="192.9" y="65.9" width="6" height="6" fill="#2a7fff"/>
<rect x="245.0" y="77.1" width="6" height="6" fill="#2a7fff"/>
<rect x="294.1" y="98.5" width="6" height="6" fill="#2a7fff"/>
<rect x="388.8" y="203.8" width="6" height="6" fill="#2a7fff"/>
<rect x="481.6" y="271.5" width="6" height="6" fill="#2a7fff"/>
<polyline fill="none" stroke="#9b59b6" stroke-width="2" points="90.0,68.3 90.0,68.5 90.0,70.0 90.0,71.4 90.0,73.0 90.0,74.2 90.1,74.8 90.1,75.2 90.1,75.4 90.1,75.5 90.1,75.6 90.1,75.6 90.1,75.6 90.1,75.6 90.1,75.6 90.1,75.6 90.1,75.6 90.2,75.6 90.2,75.6 90.2,75.6 90.3,75.6"/>
<polygon points="90.0,64.3 94.0,71.3 86.0,71.3" fill="#9b59b6"/>
<polygon points="90.0,64.5 94.0,71.5 86.0,71.5" fill="#9b59b6"/>
<polygon points="90.0,66.0 94.0,73.0 86.0,73.0" fill="#9b59b6"/>
<polygon points="90.0,67.4 94.0,74.4 86.0,74.4" fill="#9b59b6"/>
<polygon points="90.0,69.0 94.0,76.0 86.0,76.0" fill="#9b59b6"/>
<polygon points="90.0,70.2 94.0,77.2 86.0,77.2" fill="#9b59b6"/>
<polygon points="90.1,70.8 94.1,77.8 86.1,77.8" fill="#9b59b6"/>
<polygon points="90.1,71.2 94.1,78.2 86.1,78.2" fill="#9b59b6"/>
<polygon points="90.1,71.4 94.1,78.4 86.1,78.4" fill="#9b59b6"/>
<polygon points="90.1,71.5 94.1,78.5 86.1,78.5" fill="#9b59b6"/>
<polygon points="90.1,71.6 94.1,78.6 86.1,78.6" fill="#9b59b6"/>
<polygon points="90.1,71.6 94.1,78.6 86.1,78.6" fill="#9b59b6"/>
<polygon points="90.1,71.6 94.1,78.6 86.1,78.6" fill="#9b59b6"/>
<polygon points="90.1,71.6 94.1,78.6 86.1,78.6" fill="#9b59b6"/>
<polygon points="90.1,71.6 94.1,78.6 86.1,78.6" fill="#9b59b6"/>
<polygon points="90.1,71.6 94.1,78.6 86.1,78.6" fill="#9b59b6"/>
<polygon points="90.1,71.6 94.1,78.6 86.1,78.6" fill="#9b59b6"/>
<polygon points="90.2,71.6 94.2,78.6 86.2,78.6" fill="#9b59b6"/>
<polygon points="90.2,71.6 94.2,78.6 86.2,78.6" fill="#9b59b6"/>
<polygon points="90.2,71.6 94.2,78.6 86.2,78.6" fill="#9b59b6"/>
<polygon points="90.3,71.6 94.3,78.6 86.3,78.6" fill="#9b59b6"/>
<polyline fill="none" stroke="#4dd88a" stroke-width="2" points="90.0,68.3 90.0,68.3 90.0,68.3 90.0,68.3 90.1,68.3 90.1,68.3 90.3,68.3 90.5,68.3 91.1,68.3 92.2,68.3 94.4,68.3 98.7,68.3 107.2,68.3 121.7,68.3 142.7,68.3 168.4,68.3 195.9,68.9 248.0,80.1 297.1,101.5 391.8,206.8 484.6,274.5"/>
<polygon points="90.0,64.3 94.0,68.3 90.0,72.3 86.0,68.3" fill="#4dd88a"/>
<polygon points="90.0,64.3 94.0,68.3 90.0,72.3 86.0,68.3" fill="#4dd88a"/>
<polygon points="90.0,64.3 94.0,68.3 90.0,72.3 86.0,68.3" fill="#4dd88a"/>
<polygon points="90.0,64.3 94.0,68.3 90.0,72.3 86.0,68.3" fill="#4dd88a"/>
<polygon points="90.1,64.3 94.1,68.3 90.1,72.3 86.1,68.3" fill="#4dd88a"/>
<polygon points="90.1,64.3 94.1,68.3 90.1,72.3 86.1,68.3" fill="#4dd88a"/>
<polygon points="90.3,64.3 94.3,68.3 90.3,72.3 86.3,68.3" fill="#4dd88a"/>
<polygon points="90.5,64.3 94.5,68.3 90.5,72.3 86.5,68.3" fill="#4dd88a"/>
<polygon points="91.1,64.3 95.1,68.3 91.1,72.3 87.1,68.3" fill="#4dd88a"/>
<polygon points="92.2,64.3 96.2,68.3 92.2,72.3 88.2,68.3" fill="#4dd88a"/>
<polygon points="94.4,64.3 98.4,68.3 94.4,72.3 90.4,68.3" fill="#4dd88a"/>
<polygon points="98.7,64.3 102.7,68.3 98.7,72.3 94.7,68.3" fill="#4dd88a"/>
<polygon points="107.2,64.3 111.2,68.3 107.2,72.3 103.2,68.3" fill="#4dd88a"/>
<polygon points="121.7,64.3 125.7,68.3 121.7,72.3 117.7,68.3" fill="#4dd88a"/>
<polygon points="142.7,64.3 146.7,68.3 142.7,72.3 138.7,68.3" fill="#4dd88a"/>
<polygon points="168.4,64.3 172.4,68.3 168.4,72.3 164.4,68.3" fill="#4dd88a"/>
<polygon points="195.9,64.9 199.9,68.9 195.9,72.9 191.9,68.9" fill="#4dd88a"/>
<polygon points="248.0,76.1 252.0,80.1 248.0,84.1 244.0,80.1" fill="#4dd88a"/>
<polygon points="297.1,97.5 301.1,101.5 297.1,105.5 293.1,101.5" fill="#4dd88a"/>
<polygon points="391.8,202.8 395.8,206.8 391.8,210.8 387.8,206.8" fill="#4dd88a"/>
<polygon points="484.6,270.5 488.6,274.5 484.6,278.5 480.6,274.5" fill="#4dd88a"/>
<polyline fill="none" stroke="#ff6b6b" stroke-width="2" points="90.2,69.3 90.2,69.5 90.3,70.6 90.5,71.8 90.8,73.2 91.5,74.3 92.9,74.9 95.6,75.3 101.0,75.5 110.9,75.5 125.8,75.6 146.2,75.6 167.3,75.8 188.5,78.4 209.4,87.4 229.6,107.2 249.3,342.2 249.3,396.3 249.3,521.7 249.3,521.7 249.4,521.7"/>
<polygon points="90.2,64.3 89.0,67.7 85.4,67.7 88.3,69.9 87.2,73.3 90.2,71.3 93.1,73.3 92.1,69.9 94.9,67.7 91.3,67.7" fill="#ff6b6b"/>
<polygon points="90.2,64.5 89.0,67.9 85.5,67.9 88.3,70.1 87.3,73.5 90.2,71.5 93.1,73.5 92.1,70.1 95.0,67.9 91.4,67.9" fill="#ff6b6b"/>
<polygon points="90.3,65.6 89.1,68.9 85.5,69.0 88.4,71.2 87.4,74.6 90.3,72.6 93.2,74.6 92.2,71.2 95.1,69.0 91.5,68.9" fill="#ff6b6b"/>
<polygon points="90.5,66.8 89.3,70.2 85.7,70.3 88.6,72.5 87.5,75.9 90.5,73.8 93.4,75.9 92.4,72.5 95.2,70.3 91.7,70.2" fill="#ff6b6b"/>
<polygon points="90.8,68.2 89.6,71.6 86.1,71.7 88.9,73.9 87.9,77.3 90.8,75.2 93.8,77.3 92.7,73.9 95.6,71.7 92.0,71.6" fill="#ff6b6b"/>
<polygon points="91.5,69.3 90.3,72.7 86.8,72.7 89.6,74.9 88.6,78.3 91.5,76.3 94.5,78.3 93.4,74.9 96.3,72.7 92.7,72.7" fill="#ff6b6b"/>
<polygon points="92.9,69.9 91.7,73.3 88.1,73.4 91.0,75.6 89.9,79.0 92.9,76.9 95.8,79.0 94.8,75.6 97.6,73.4 94.1,73.3" fill="#ff6b6b"/>
<polygon points="95.6,70.3 94.4,73.7 90.9,73.7 93.7,75.9 92.7,79.3 95.6,77.3 98.6,79.3 97.5,75.9 100.4,73.7 96.8,73.7" fill="#ff6b6b"/>
<polygon points="101.0,70.5 99.8,73.8 96.3,73.9 99.1,76.1 98.1,79.5 101.0,77.5 104.0,79.5 102.9,76.1 105.8,73.9 102.2,73.8" fill="#ff6b6b"/>
<polygon points="110.9,70.5 109.7,73.9 106.1,74.0 109.0,76.2 107.9,79.6 110.9,77.5 113.8,79.6 112.8,76.2 115.6,74.0 112.0,73.9" fill="#ff6b6b"/>
<polygon points="125.8,70.6 124.6,74.0 121.0,74.0 123.9,76.2 122.8,79.6 125.8,77.6 128.7,79.6 127.7,76.2 130.5,74.0 126.9,74.0" fill="#ff6b6b"/>
<polygon points="146.2,70.6 145.0,74.0 141.4,74.1 144.3,76.2 143.2,79.7 146.2,77.6 149.1,79.7 148.1,76.2 150.9,74.1 147.4,74.0" fill="#ff6b6b"/>
<polygon points="167.3,70.8 166.2,74.2 162.6,74.3 165.4,76.4 164.4,79.9 167.3,77.8 170.3,79.9 169.2,76.4 172.1,74.3 168.5,74.2" fill="#ff6b6b"/>
<polygon points="188.5,73.4 187.4,76.8 183.8,76.8 186.6,79.0 185.6,82.4 188.5,80.4 191.5,82.4 190.4,79.0 193.3,76.8 189.7,76.8" fill="#ff6b6b"/>
<polygon points="209.4,82.4 208.2,85.7 204.7,85.8 207.5,88.0 206.5,91.4 209.4,89.4 212.3,91.4 211.3,88.0 214.2,85.8 210.6,85.7" fill="#ff6b6b"/>
<polygon points="229.6,102.2 228.4,105.6 224.9,105.7 227.7,107.9 226.7,111.3 229.6,109.2 232.6,111.3 231.5,107.9 234.4,105.7 230.8,105.6" fill="#ff6b6b"/>
<polygon points="249.3,337.2 248.1,340.6 244.5,340.7 247.4,342.8 246.3,346.3 249.3,344.2 252.2,346.3 251.2,342.8 254.0,340.7 250.4,340.6" fill="#ff6b6b"/>
<polygon points="249.3,391.3 248.1,394.7 244.5,394.8 247.4,396.9 246.3,400.4 249.3,398.3 252.2,400.4 251.2,396.9 254.0,394.8 250.5,394.7" fill="#ff6b6b"/>
<polygon points="249.3,516.7 248.1,520.0 244.5,520.1 247.4,522.3 246.4,525.7 249.3,523.7 252.2,525.7 251.2,522.3 254.0,520.1 250.5,520.0" fill="#ff6b6b"/>
<polygon points="249.3,516.7 248.2,520.0 244.6,520.1 247.4,522.3 246.4,525.7 249.3,523.7 252.3,525.7 251.2,522.3 254.1,520.1 250.5,520.0" fill="#ff6b6b"/>
<polygon points="249.4,516.7 248.2,520.0 244.6,520.1 247.5,522.3 246.4,525.7 249.4,523.7 252.3,525.7 251.3,522.3 254.1,520.1 250.5,520.0" fill="#ff6b6b"/>
<polyline fill="none" stroke="#ff922b" stroke-width="2" points="288.5,131.3 314.7,150.9 339.4,175.5 363.4,216.1 386.1,216.5 408.9,216.6 431.6,216.6 454.3,216.6 499.6,216.6 522.2,216.6"/>
<circle cx="288.5" cy="131.3" r="3" fill="#ff922b"/>
<circle cx="314.7" cy="150.9" r="3" fill="#ff922b"/>
<circle cx="339.4" cy="175.5" r="3" fill="#ff922b"/>
<circle cx="363.4" cy="216.1" r="3" fill="#ff922b"/>
<circle cx="386.1" cy="216.5" r="3" fill="#ff922b"/>
<circle cx="408.9" cy="216.6" r="3" fill="#ff922b"/>
<circle cx="431.6" cy="216.6" r="3" fill="#ff922b"/>
<circle cx="454.3" cy="216.6" r="3" fill="#ff922b"/>
<circle cx="499.6" cy="216.6" r="3" fill="#ff922b"/>
<circle cx="522.2" cy="216.6" r="3" fill="#ff922b"/>
<polyline fill="none" stroke="#888888" stroke-width="2" stroke-dasharray="8,5" points="332.9,124.9 367.6,142.3 412.5,164.8 446.2,181.7 479.9,197.8 524.2,221.5 557.7,238.7 591.2,256.4 635.5,276.1 669.0,303.2"/>
<circle cx="332.9" cy="124.9" r="3" fill="#888888"/>
<circle cx="367.6" cy="142.3" r="3" fill="#888888"/>
<circle cx="412.5" cy="164.8" r="3" fill="#888888"/>
<circle cx="446.2" cy="181.7" r="3" fill="#888888"/>
<circle cx="479.9" cy="197.8" r="3" fill="#888888"/>
<circle cx="524.2" cy="221.5" r="3" fill="#888888"/>
<circle cx="557.7" cy="238.7" r="3" fill="#888888"/>
<circle cx="591.2" cy="256.4" r="3" fill="#888888"/>
<circle cx="635.5" cy="276.1" r="3" fill="#888888"/>
<circle cx="669.0" cy="303.2" r="3" fill="#888888"/>
<line x1="886" y1="60" x2="902" y2="60" stroke="#ef4444" stroke-width="2" stroke-dasharray="8,5"/>
<circle cx="894.0" cy="60.0" r="3" fill="#ef4444"/>
<text class="label" x="908" y="64">Theoretical</text>
<line x1="886" y1="78" x2="902" y2="78" stroke="#1a6b3c" stroke-width="2"/>
<polygon points="894.0,74.0 898.0,78.0 894.0,82.0 890.0,78.0" fill="#1a6b3c"/>
<text class="label" x="908" y="82">Grafite</text>
<line x1="886" y1="96" x2="902" y2="96" stroke="#1a3a6b" stroke-width="2"/>
<polygon points="894.0,91.0 892.8,94.4 889.2,94.5 892.1,96.6 891.1,100.0 894.0,98.0 896.9,100.0 895.9,96.6 898.8,94.5 895.2,94.4" fill="#1a3a6b"/>
<text class="label" x="908" y="100">SNARF</text>
<line x1="886" y1="114" x2="902" y2="114" stroke="#111111" stroke-width="2"/>
<rect x="891.0" y="111.0" width="6" height="6" fill="#111111"/>
<text class="label" x="908" y="118">SuRF</text>
<line x1="886" y1="132" x2="902" y2="132" stroke="#111111" stroke-width="2"/>
<polygon points="894.0,128.0 898.0,135.0 890.0,135.0" fill="#111111"/>
<text class="label" x="908" y="136">SuRFHash(8)</text>
<line x1="886" y1="150" x2="902" y2="150" stroke="#111111" stroke-width="2"/>
<polygon points="894.0,146.0 898.0,150.0 894.0,154.0 890.0,150.0" fill="#111111"/>
<text class="label" x="908" y="154">SuRFReal(8)</text>
<line x1="886" y1="168" x2="902" y2="168" stroke="#2a7fff" stroke-width="2"/>
<rect x="891.0" y="165.0" width="6" height="6" fill="#2a7fff"/>
<text class="label" x="908" y="172">Adaptive (t=0)</text>
<line x1="886" y1="186" x2="902" y2="186" stroke="#9b59b6" stroke-width="2"/>
<polygon points="894.0,182.0 898.0,189.0 890.0,189.0" fill="#9b59b6"/>
<text class="label" x="908" y="190">Truncation</text>
<line x1="886" y1="204" x2="902" y2="204" stroke="#4dd88a" stroke-width="2"/>
<polygon points="894.0,200.0 898.0,204.0 894.0,208.0 890.0,204.0" fill="#4dd88a"/>
<text class="label" x="908" y="208">SODA</text>
<line x1="886" y1="222" x2="902" y2="222" stroke="#ff6b6b" stroke-width="2"/>
<polygon points="894.0,217.0 892.8,220.4 889.2,220.5 892.1,222.6 891.1,226.0 894.0,224.0 896.9,226.0 895.9,222.6 898.8,220.5 895.2,220.4" fill="#ff6b6b"/>
<text class="label" x="908" y="226">Hybrid</text>
<line x1="886" y1="240" x2="902" y2="240" stroke="#ff922b" stroke-width="2"/>
<circle cx="894.0" cy="240.0" r="3" fill="#ff922b"/>
<text class="label" x="908" y="244">CDF-ARE</text>
<line x1="886" y1="258" x2="902" y2="258" stroke="#888888" stroke-width="2" stroke-dasharray="8,5"/>
<circle cx="894.0" cy="258.0" r="3" fill="#888888"/>
<text class="label" x="908" y="262">BloomARE</text>
<text x="480" y="590" text-anchor="middle">Bits per Key (BPK)</text>
<text transform="translate(16,295) rotate(-90)" text-anchor="middle">False Positive Rate (FPR)</text>
</svg>
