<svg xmlns="http://www.w3.org/2000/svg" width="1020" height="600" viewBox="0 0 1020 600">
<style>text{font-family:Menlo,Monaco,monospace;font-size:12px;fill:#222} .axis{stroke:#333;stroke-width:1} .grid{stroke:#eee;stroke-width:0.5} .label{font-size:11px;fill:#444}</style>
<text x="510" y="28" text-anchor="middle" style="font-size:14px;font-weight:bold">FPR vs BPK — uniform (60-bit keys, n=1048576, L=1)</text>
<line class="axis" x1="90.0" y1="550.0" x2="870.0" y2="550.0"/>
<line class="axis" x1="90.0" y1="40.0" x2="90.0" y2="550.0"/>
<line class="grid" x1="90.0" y1="526.8" x2="870.0" y2="526.8"/>
<text class="label" x="82.0" y="530.8" text-anchor="end">10^-10</text>
<line class="grid" x1="90.0" y1="480.5" x2="870.0" y2="480.5"/>
<text class="label" x="82.0" y="484.5" text-anchor="end">10^-9</text>
<line class="grid" x1="90.0" y1="434.1" x2="870.0" y2="434.1"/>
<text class="label" x="82.0" y="438.1" text-anchor="end">10^-8</text>
<line class="grid" x1="90.0" y1="387.7" x2="870.0" y2="387.7"/>
<text class="label" x="82.0" y="391.7" text-anchor="end">10^-7</text>
<line class="grid" x1="90.0" y1="341.4" x2="870.0" y2="341.4"/>
<text class="label" x="82.0" y="345.4" text-anchor="end">10^-6</text>
<line class="grid" x1="90.0" y1="295.0" x2="870.0" y2="295.0"/>
<text class="label" x="82.0" y="299.0" text-anchor="end">10^-5</text>
<line class="grid" x1="90.0" y1="248.6" x2="870.0" y2="248.6"/>
<text class="label" x="82.0" y="252.6" text-anchor="end">10^-4</text>
<line class="grid" x1="90.0" y1="202.3" x2="870.0" y2="202.3"/>
<text class="label" x="82.0" y="206.3" text-anchor="end">10^-3</text>
<line class="grid" x1="90.0" y1="155.9" x2="870.0" y2="155.9"/>
<text class="label" x="82.0" y="159.9" text-anchor="end">10^-2</text>
<line class="grid" x1="90.0" y1="109.5" x2="870.0" y2="109.5"/>
<text class="label" x="82.0" y="113.5" text-anchor="end">10^-1</text>
<line class="grid" x1="90.0" y1="63.2" x2="870.0" y2="63.2"/>
<text class="label" x="82.0" y="67.2" text-anchor="end">1</text>
<line class="grid" x1="90.0" y1="40.0" x2="90.0" y2="550.0"/>
<text class="label" x="90.0" y="566.0" text-anchor="middle">0</text>
<line class="grid" x1="206.1" y1="40.0" x2="206.1" y2="550.0"/>
<text class="label" x="206.1" y="566.0" text-anchor="middle">5</text>
<line class="grid" x1="322.1" y1="40.0" x2="322.1" y2="550.0"/>
<text class="label" x="322.1" y="566.0" text-anchor="middle">10</text>
<line class="grid" x1="438.2" y1="40.0" x2="438.2" y2="550.0"/>
<text class="label" x="438.2" y="566.0" text-anchor="middle">15</text>
<line class="grid" x1="554.3" y1="40.0" x2="554.3" y2="550.0"/>
<text class="label" x="554.3" y="566.0" text-anchor="middle">20</text>
<line class="grid" x1="670.4" y1="40.0" x2="670.4" y2="550.0"/>
<text class="label" x="670.4" y="566.0" text-anchor="middle">25</text>
<line class="grid" x1="786.4" y1="40.0" x2="786.4" y2="550.0"/>
<text class="label" x="786.4" y="566.0" text-anchor="middle">30</text>
<polyline fill="none" stroke="#ef4444" stroke-width="2" stroke-dasharray="8,5" points="182.9,119.0 206.1,133.0 229.3,146.9 252.5,160.9 275.7,174.8 298.9,188.8 322.1,202.8 345.4,216.7 368.6,230.7 391.8,244.6 415.0,258.6 438.2,272.5 461.4,286.5 484.6,300.4 507.9,314.4 531.1,328.4 554.3,342.3 600.7,370.2 647.1,398.1 740.0,454.0 832.9,509.8"/>
<circle cx="182.9" cy="119.0" r="3" fill="#ef4444"/>
<circle cx="206.1" cy="133.0" r="3" fill="#ef4444"/>
<circle cx="229.3" cy="146.9" r="3" fill="#ef4444"/>
<circle cx="252.5" cy="160.9" r="3" fill="#ef4444"/>
<circle cx="275.7" cy="174.8" r="3" fill="#ef4444"/>
<circle cx="298.9" cy="188.8" r="3" fill="#ef4444"/>
<circle cx="322.1" cy="202.8" r="3" fill="#ef4444"/>
<circle cx="345.4" cy="216.7" r="3" fill="#ef4444"/>
<circle cx="368.6" cy="230.7" r="3" fill="#ef4444"/>
<circle cx="391.8" cy="244.6" r="3" fill="#ef4444"/>
<circle cx="415.0" cy="258.6" r="3" fill="#ef4444"/>
<circle cx="438.2" cy="272.5" r="3" fill="#ef4444"/>
<circle cx="461.4" cy="286.5" r="3" fill="#ef4444"/>
<circle cx="484.6" cy="300.4" r="3" fill="#ef4444"/>
<circle cx="507.9" cy="314.4" r="3" fill="#ef4444"/>
<circle cx="531.1" cy="328.4" r="3" fill="#ef4444"/>
<circle cx="554.3" cy="342.3" r="3" fill="#ef4444"/>
<circle cx="600.7" cy="370.2" r="3" fill="#ef4444"/>
<circle cx="647.1" cy="398.1" r="3" fill="#ef4444"/>
<circle cx="740.0" cy="454.0" r="3" fill="#ef4444"/>
<circle cx="832.9" cy="509.8" r="3" fill="#ef4444"/>
<polyline fill="none" stroke="#1a6b3c" stroke-width="2" points="188.6,93.5 240.1,119.7 289.0,147.0 336.3,175.0 383.0,202.7 429.5,229.5 476.0,259.9 522.4,297.3 576.1,336.5"/>
<polygon points="188.6,89.5 192.6,93.5 188.6,97.5 184.6,93.5" fill="#1a6b3c"/>
<polygon points="240.1,115.7 244.1,119.7 240.1,123.7 236.1,119.7" fill="#1a6b3c"/>
<polygon points="289.0,143.0 293.0,147.0 289.0,151.0 285.0,147.0" fill="#1a6b3c"/>
<polygon points="336.3,171.0 340.3,175.0 336.3,179.0 332.3,175.0" fill="#1a6b3c"/>
<polygon points="383.0,198.7 387.0,202.7 383.0,206.7 379.0,202.7" fill="#1a6b3c"/>
<polygon points="429.5,225.5 433.5,229.5 429.5,233.5 425.5,229.5" fill="#1a6b3c"/>
<polygon points="476.0,255.9 480.0,259.9 476.0,263.9 472.0,259.9" fill="#1a6b3c"/>
<polygon points="522.4,293.3 526.4,297.3 522.4,301.3 518.4,297.3" fill="#1a6b3c"/>
<polygon points="576.1,332.5 580.1,336.5 576.1,340.5 572.1,336.5" fill="#1a6b3c"/>
<polyline fill="none" stroke="#1a3a6b" stroke-width="2" points="168.2,81.8 214.4,106.2 261.1,133.1 307.7,161.0 353.9,189.1 400.1,217.2 446.8,245.0 493.5,275.2 539.7,314.4"/>
<polygon points="168.2,76.8 167.0,80.2 163.5,80.3 166.3,82.5 165.3,85.9 168.2,83.8 171.2,85.9 170.1,82.5 173.0,80.3 169.4,80.2" fill="#1a3a6b"/>
<polygon points="214.4,101.2 213.2,104.6 209.7,104.6 212.5,106.8 211.5,110.2 214.4,108.2 217.4,110.2 216.3,106.8 219.2,104.6 215.6,104.6" fill="#1a3a6b"/>
<polygon points="261.1,128.1 259.9,131.5 256.3,131.6 259.2,133.7 258.2,137.2 261.1,135.1 264.0,137.2 263.0,133.7 265.8,131.6 262.3,131.5" fill="#1a3a6b"/>
<polygon points="307.7,156.0 306.6,159.3 303.0,159.4 305.8,161.6 304.8,165.0 307.7,163.0 310.7,165.0 309.6,161.6 312.5,159.4 308.9,159.3" fill="#1a3a6b"/>
<polygon points="353.9,184.1 352.8,187.5 349.2,187.6 352.0,189.8 351.0,193.2 353.9,191.1 356.9,193.2 355.8,189.8 358.7,187.6 355.1,187.5" fill="#1a3a6b"/>
<polygon points="400.1,212.2 399.0,215.6 395.4,215.7 398.2,217.9 397.2,221.3 400.1,219.2 403.1,221.3 402.0,217.9 404.9,215.7 401.3,215.6" fill="#1a3a6b"/>
<polygon points="446.8,240.0 445.6,243.4 442.0,243.5 444.9,245.7 443.9,249.1 446.8,247.0 449.7,249.1 448.7,245.7 451.6,243.5 448.0,243.4" fill="#1a3a6b"/>
<polygon points="493.5,270.2 492.3,273.6 488.7,273.7 491.6,275.8 490.5,279.3 493.5,277.2 496.4,279.3 495.4,275.8 498.2,273.7 494.6,273.6" fill="#1a3a6b"/>
<polygon points="539.7,309.4 538.5,312.8 534.9,312.9 537.7,315.0 536.7,318.5 539.7,316.4 542.6,318.5 541.6,315.0 544.4,312.9 540.8,312.8" fill="#1a3a6b"/>
<polyline fill="none" stroke="#111111" stroke-width="2" points="290.9,83.2"/>
<rect x="287.9" y="80.2" width="6" height="6" fill="#111111"/>
<polyline fill="none" stroke="#111111" stroke-width="2" points="476.6,83.2"/>
<polygon points="476.6,79.2 480.6,86.2 472.6,86.2" fill="#111111"/>
<polyline fill="none" stroke="#111111" stroke-width="2" points="476.6,195.3"/>
<polygon points="476.6,191.3 480.6,195.3 476.6,199.3 472.6,195.3" fill="#111111"/>
<polyline fill="none" stroke="#2a7fff" stroke-width="2" points="90.0,63.2 90.0,63.2 90.0,63.2 90.0,63.2 90.0,63.2 90.0,63.2 90.1,63.2 90.1,63.2 90.3,63.2 90.5,63.2 91.1,63.2 92.2,63.2 94.4,63.2 98.7,63.2 107.2,63.5 121.7,66.1 142.6,72.4 195.4,93.5 248.2,119.6 344.9,174.3 438.2,228.9"/>
<rect x="87.0" y="60.2" width="6" height="6" fill="#2a7fff"/>
<rect x="87.0" y="60.2" width="6" height="6" fill="#2a7fff"/>
<rect x="87.0" y="60.2" width="6" height="6" fill="#2a7fff"/>
<rect x="87.0" y="60.2" width="6" height="6" fill="#2a7fff"/>
<rect x="87.0" y="60.2" width="6" height="6" fill="#2a7fff"/>
<rect x="87.0" y="60.2" width="6" height="6" fill="#2a7fff"/>
<rect x="87.1" y="60.2" width="6" height="6" fill="#2a7fff"/>
<rect x="87.1" y="60.2" width="6" height="6" fill="#2a7fff"/>
<rect x="87.3" y="60.2" width="6" height="6" fill="#2a7fff"/>
<rect x="87.5" y="60.2" width="6" height="6" fill="#2a7fff"/>
<rect x="88.1" y="60.2" width="6" height="6" fill="#2a7fff"/>
<rect x="89.2" y="60.2" width="6" height="6" fill="#2a7fff"/>
<rect x="91.4" y="60.2" width="6" height="6" fill="#2a7fff"/>
<rect x="95.7" y="60.2" width="6" height="6" fill="#2a7fff"/>
<rect x="104.2" y="60.5" width="6" height="6" fill="#2a7fff"/>
<rect x="118.7" y="63.1" width="6" height="6" fill="#2a7fff"/>
<rect x="139.6" y="69.4" width="6" height="6" fill="#2a7fff"/>
<rect x="192.4" y="90.5" width="6" height="6" fill="#2a7fff"/>
<rect x="245.2" y="116.6" width="6" height="6" fill="#2a7fff"/>
<rect x="341.9" y="171.3" width="6" height="6" fill="#2a7fff"/>
<rect x="435.2" y="225.9" width="6" height="6" fill="#2a7fff"/>
<polyline fill="none" stroke="#9b59b6" stroke-width="2" points="90.0,63.2 90.0,63.2 90.0,63.2 90.0,63.2 90.0,63.2 90.0,63.2 90.1,63.2 90.1,63.2 90.3,63.2 90.5,63.2 91.1,63.2 92.2,63.2 94.4,63.2 98.7,63.2 107.2,63.6 121.7,66.1 142.6,72.4 195.4,93.6 248.2,119.6 344.9,175.1 438.2,228.9"/>
<polygon points="90.0,59.2 94.0,66.2 86.0,66.2" fill="#9b59b6"/>
<polygon points="90.0,59.2 94.0,66.2 86.0,66.2" fill="#9b59b6"/>
<polygon points="90.0,59.2 94.0,66.2 86.0,66.2" fill="#9b59b6"/>
<polygon points="90.0,59.2 94.0,66.2 86.0,66.2" fill="#9b59b6"/>
<polygon points="90.0,59.2 94.0,66.2 86.0,66.2" fill="#9b59b6"/>
<polygon points="90.0,59.2 94.0,66.2 86.0,66.2" fill="#9b59b6"/>
<polygon points="90.1,59.2 94.1,66.2 86.1,66.2" fill="#9b59b6"/>
<polygon points="90.1,59.2 94.1,66.2 86.1,66.2" fill="#9b59b6"/>
<polygon points="90.3,59.2 94.3,66.2 86.3,66.2" fill="#9b59b6"/>
<polygon points="90.5,59.2 94.5,66.2 86.5,66.2" fill="#9b59b6"/>
<polygon points="91.1,59.2 95.1,66.2 87.1,66.2" fill="#9b59b6"/>
<polygon points="92.2,59.2 96.2,66.2 88.2,66.2" fill="#9b59b6"/>
<polygon points="94.4,59.2 98.4,66.2 90.4,66.2" fill="#9b59b6"/>
<polygon points="98.7,59.2 102.7,66.2 94.7,66.2" fill="#9b59b6"/>
<polygon points="107.2,59.6 111.2,66.6 103.2,66.6" fill="#9b59b6"/>
<polygon points="121.7,62.1 125.7,69.1 117.7,69.1" fill="#9b59b6"/>
<polygon points="142.6,68.4 146.6,75.4 138.6,75.4" fill="#9b59b6"/>
<polygon points="195.4,89.6 199.4,96.6 191.4,96.6" fill="#9b59b6"/>
<polygon points="248.2,115.6 252.2,122.6 244.2,122.6" fill="#9b59b6"/>
<polygon points="344.9,171.1 348.9,178.1 340.9,178.1" fill="#9b59b6"/>
<polygon points="438.2,224.9 442.2,231.9 434.2,231.9" fill="#9b59b6"/>
<polyline fill="none" stroke="#4dd88a" stroke-width="2" points="90.0,63.2 90.0,63.2 90.0,63.2 90.0,63.2 90.0,63.2 90.0,63.2 90.1,63.2 90.1,63.2 90.3,63.2 90.5,63.2 91.1,63.2 92.2,63.2 94.4,63.2 98.7,63.2 107.2,63.5 121.7,66.1 142.6,72.4 195.4,93.5 248.2,119.6 344.9,174.3 438.2,228.9"/>
<polygon points="90.0,59.2 94.0,63.2 90.0,67.2 86.0,63.2" fill="#4dd88a"/>
<polygon points="90.0,59.2 94.0,63.2 90.0,67.2 86.0,63.2" fill="#4dd88a"/>
<polygon points="90.0,59.2 94.0,63.2 90.0,67.2 86.0,63.2" fill="#4dd88a"/>
<polygon points="90.0,59.2 94.0,63.2 90.0,67.2 86.0,63.2" fill="#4dd88a"/>
<polygon points="90.0,59.2 94.0,63.2 90.0,67.2 86.0,63.2" fill="#4dd88a"/>
<polygon points="90.0,59.2 94.0,63.2 90.0,67.2 86.0,63.2" fill="#4dd88a"/>
<polygon points="90.1,59.2 94.1,63.2 90.1,67.2 86.1,63.2" fill="#4dd88a"/>
<polygon points="90.1,59.2 94.1,63.2 90.1,67.2 86.1,63.2" fill="#4dd88a"/>
<polygon points="90.3,59.2 94.3,63.2 90.3,67.2 86.3,63.2" fill="#4dd88a"/>
<polygon points="90.5,59.2 94.5,63.2 90.5,67.2 86.5,63.2" fill="#4dd88a"/>
<polygon points="91.1,59.2 95.1,63.2 91.1,67.2 87.1,63.2" fill="#4dd88a"/>
<polygon points="92.2,59.2 96.2,63.2 92.2,67.2 88.2,63.2" fill="#4dd88a"/>
<polygon points="94.4,59.2 98.4,63.2 94.4,67.2 90.4,63.2" fill="#4dd88a"/>
<polygon points="98.7,59.2 102.7,63.2 98.7,67.2 94.7,63.2" fill="#4dd88a"/>
<polygon points="107.2,59.5 111.2,63.5 107.2,67.5 103.2,63.5" fill="#4dd88a"/>
<polygon points="121.7,62.1 125.7,66.1 121.7,70.1 117.7,66.1" fill="#4dd88a"/>
<polygon points="142.6,68.4 146.6,72.4 142.6,76.4 138.6,72.4" fill="#4dd88a"/>
<polygon points="195.4,89.5 199.4,93.5 195.4,97.5 191.4,93.5" fill="#4dd88a"/>
<polygon points="248.2,115.6 252.2,119.6 248.2,123.6 244.2,119.6" fill="#4dd88a"/>
<polygon points="344.9,170.3 348.9,174.3 344.9,178.3 340.9,174.3" fill="#4dd88a"/>
<polygon points="438.2,224.9 442.2,228.9 438.2,232.9 434.2,228.9" fill="#4dd88a"/>
<polyline fill="none" stroke="#ff6b6b" stroke-width="2" points="90.0,63.2 90.0,63.2 90.0,63.2 90.0,63.2 90.0,63.2 90.0,63.2 90.1,63.2 90.1,63.2 90.3,63.2 90.5,63.2 91.1,63.2 92.2,63.2 94.4,63.2 98.7,63.2 107.2,63.6 121.7,66.1 142.6,72.4 195.4,93.6 248.2,119.6 344.9,175.1 438.2,228.9"/>
<polygon points="90.0,58.2 88.8,61.6 85.2,61.6 88.1,63.8 87.1,67.2 90.0,65.2 92.9,67.2 91.9,63.8 94.8,61.6 91.2,61.6" fill="#ff6b6b"/>
<polygon points="90.0,58.2 88.8,61.6 85.2,61.6 88.1,63.8 87.1,67.2 90.0,65.2 92.9,67.2 91.9,63.8 94.8,61.6 91.2,61.6" fill="#ff6b6b"/>
<polygon points="90.0,58.2 88.8,61.6 85.2,61.6 88.1,63.8 87.1,67.2 90.0,65.2 92.9,67.2 91.9,63.8 94.8,61.6 91.2,61.6" fill="#ff6b6b"/>
<polygon points="90.0,58.2 88.8,61.6 85.3,61.6 88.1,63.8 87.1,67.2 90.0,65.2 92.9,67.2 91.9,63.8 94.8,61.6 91.2,61.6" fill="#ff6b6b"/>
<polygon points="90.0,58.2 88.8,61.6 85.3,61.6 88.1,63.8 87.1,67.2 90.0,65.2 93.0,67.2 91.9,63.8 94.8,61.6 91.2,61.6" fill="#ff6b6b"/>
<polygon points="90.0,58.2 88.9,61.6 85.3,61.6 88.1,63.8 87.1,67.2 90.0,65.2 93.0,67.2 91.9,63.8 94.8,61.6 91.2,61.6" fill="#ff6b6b"/>
<polygon points="90.1,58.2 88.9,61.6 85.3,61.6 88.2,63.8 87.1,67.2 90.1,65.2 93.0,67.2 92.0,63.8 94.8,61.6 91.2,61.6" fill="#ff6b6b"/>
<polygon points="90.1,58.2 89.0,61.6 85.4,61.6 88.2,63.8 87.2,67.2 90.1,65.2 93.1,67.2 92.0,63.8 94.9,61.6 91.3,61.6" fill="#ff6b6b"/>
<polygon points="90.3,58.2 89.1,61.6 85.5,61.6 88.4,63.8 87.3,67.2 90.3,65.2 93.2,67.2 92.2,63.8 95.0,61.6 91.4,61.6" fill="#ff6b6b"/>
<polygon points="90.5,58.2 89.4,61.6 85.8,61.6 88.6,63.8 87.6,67.2 90.5,65.2 93.5,67.2 92.4,63.8 95.3,61.6 91.7,61.6" fill="#ff6b6b"/>
<polygon points="91.1,58.2 89.9,61.6 86.3,61.6 89.2,63.8 88.1,67.2 91.1,65.2 94.0,67.2 93.0,63.8 95.8,61.6 92.3,61.6" fill="#ff6b6b"/>
<polygon points="92.2,58.2 91.0,61.6 87.4,61.6 90.3,63.8 89.2,67.2 92.2,65.2 95.1,67.2 94.1,63.8 96.9,61.6 93.4,61.6" fill="#ff6b6b"/>
<polygon points="94.4,58.2 93.2,61.6 89.6,61.6 92.5,63.8 91.4,67.2 94.4,65.2 97.3,67.2 96.3,63.8 99.1,61.6 95.5,61.6" fill="#ff6b6b"/>
<polygon points="98.7,58.2 97.5,61.6 93.9,61.6 96.8,63.8 95.8,67.2 98.7,65.2 101.6,67.2 100.6,63.8 103.5,61.6 99.9,61.6" fill="#ff6b6b"/>
<polygon points="107.2,58.6 106.0,61.9 102.4,62.0 105.3,64.2 104.3,67.6 107.2,65.6 110.1,67.6 109.1,64.2 112.0,62.0 108.4,61.9" fill="#ff6b6b"/>
<polygon points="121.7,61.1 120.5,64.5 116.9,64.6 119.8,66.7 118.7,70.2 121.7,68.1 124.6,70.2 123.6,66.7 126.4,64.6 122.9,64.5" fill="#ff6b6b"/>
<polygon points="142.6,67.4 141.4,70.8 137.8,70.9 140.7,73.0 139.6,76.5 142.6,74.4 145.5,76.5 144.5,73.0 147.3,70.9 143.8,70.8" fill="#ff6b6b"/>
<polygon points="195.4,88.6 194.2,92.0 190.6,92.1 193.5,94.2 192.5,97.6 195.4,95.6 198.3,97.6 197.3,94.2 200.1,92.1 196.6,92.0" fill="#ff6b6b"/>
<polygon points="248.2,114.6 247.0,118.0 243.5,118.1 246.3,120.3 245.3,123.7 248.2,121.6 251.2,123.7 250.1,120.3 253.0,118.1 249.4,118.0" fill="#ff6b6b"/>
<polygon points="344.9,170.1 343.7,173.5 340.1,173.6 343.0,175.7 342.0,179.2 344.9,177.1 347.8,179.2 346.8,175.7 349.7,173.6 346.1,173.5" fill="#ff6b6b"/>
<polygon points="438.2,223.9 437.0,227.2 433.4,227.3 436.3,229.5 435.2,232.9 438.2,230.9 441.1,232.9 440.1,229.5 442.9,227.3 439.3,227.2" fill="#ff6b6b"/>
<polyline fill="none" stroke="#ff922b" stroke-width="2" points="294.7,119.6 319.7,133.2 343.9,147.1 367.8,161.2 391.3,174.9 414.8,189.1 438.1,203.5 461.4,217.1 507.8,241.9 531.1,257.0"/>
<circle cx="294.7" cy="119.6" r="3" fill="#ff922b"/>
<circle cx="319.7" cy="133.2" r="3" fill="#ff922b"/>
<circle cx="343.9" cy="147.1" r="3" fill="#ff922b"/>
<circle cx="367.8" cy="161.2" r="3" fill="#ff922b"/>
<circle cx="391.3" cy="174.9" r="3" fill="#ff922b"/>
<circle cx="414.8" cy="189.1" r="3" fill="#ff922b"/>
<circle cx="438.1" cy="203.5" r="3" fill="#ff922b"/>
<circle cx="461.4" cy="217.1" r="3" fill="#ff922b"/>
<circle cx="507.8" cy="241.9" r="3" fill="#ff922b"/>
<circle cx="531.1" cy="257.0" r="3" fill="#ff922b"/>
<polyline fill="none" stroke="#888888" stroke-width="2" stroke-dasharray="8,5" points="201.3,109.1 234.7,123.0 279.0,141.8 312.5,155.6 346.0,170.2 390.3,187.4 423.8,202.1 457.3,216.2 501.5,231.6 535.0,250.7"/>
<circle cx="201.3" cy="109.1" r="3" fill="#888888"/>
<circle cx="234.7" cy="123.0" r="3" fill="#888888"/>
<circle cx="279.0" cy="141.8" r="3" fill="#888888"/>
<circle cx="312.5" cy="155.6" r="3" fill="#888888"/>
<circle cx="346.0" cy="170.2" r="3" fill="#888888"/>
<circle cx="390.3" cy="187.4" r="3" fill="#888888"/>
<circle cx="423.8" cy="202.1" r="3" fill="#888888"/>
<circle cx="457.3" cy="216.2" r="3" fill="#888888"/>
<circle cx="501.5" cy="231.6" r="3" fill="#888888"/>
<circle cx="535.0" cy="250.7" r="3" fill="#888888"/>
<line x1="886" y1="60" x2="902" y2="60" stroke="#ef4444" stroke-width="2" stroke-dasharray="8,5"/>
<circle cx="894.0" cy="60.0" r="3" fill="#ef4444"/>
<text class="label" x="908" y="64">Theoretical</text>
<line x1="886" y1="78" x2="902" y2="78" stroke="#1a6b3c" stroke-width="2"/>
<polygon points="894.0,74.0 898.0,78.0 894.0,82.0 890.0,78.0" fill="#1a6b3c"/>
<text class="label" x="908" y="82">Grafite</text>
<line x1="886" y1="96" x2="902" y2="96" stroke="#1a3a6b" stroke-width="2"/>
<polygon points="894.0,91.0 892.8,94.4 889.2,94.5 892.1,96.6 891.1,100.0 894.0,98.0 896.9,100.0 895.9,96.6 898.8,94.5 895.2,94.4" fill="#1a3a6b"/>
<text class="label" x="908" y="100">SNARF</text>
<line x1="886" y1="114" x2="902" y2="114" stroke="#111111" stroke-width="2"/>
<rect x="891.0" y="111.0" width="6" height="6" fill="#111111"/>
<text class="label" x="908" y="118">SuRF</text>
<line x1="886" y1="132" x2="902" y2="132" stroke="#111111" stroke-width="2"/>
<polygon points="894.0,128.0 898.0,135.0 890.0,135.0" fill="#111111"/>
<text class="label" x="908" y="136">SuRFHash(8)</text>
<line x1="886" y1="150" x2="902" y2="150" stroke="#111111" stroke-width="2"/>
<polygon points="894.0,146.0 898.0,150.0 894.0,154.0 890.0,150.0" fill="#111111"/>
<text class="label" x="908" y="154">SuRFReal(8)</text>
<line x1="886" y1="168" x2="902" y2="168" stroke="#2a7fff" stroke-width="2"/>
<rect x="891.0" y="165.0" width="6" height="6" fill="#2a7fff"/>
<text class="label" x="908" y="172">Adaptive (t=0)</text>
<line x1="886" y1="186" x2="902" y2="186" stroke="#9b59b6" stroke-width="2"/>
<polygon points="894.0,182.0 898.0,189.0 890.0,189.0" fill="#9b59b6"/>
<text class="label" x="908" y="190">Truncation</text>
<line x1="886" y1="204" x2="902" y2="204" stroke="#4dd88a" stroke-width="2"/>
<polygon points="894.0,200.0 898.0,204.0 894.0,208.0 890.0,204.0" fill="#4dd88a"/>
<text class="label" x="908" y="208">SODA</text>
<line x1="886" y1="222" x2="902" y2="222" stroke="#ff6b6b" stroke-width="2"/>
<polygon points="894.0,217.0 892.8,220.4 889.2,220.5 892.1,222.6 891.1,226.0 894.0,224.0 896.9,226.0 895.9,222.6 898.8,220.5 895.2,220.4" fill="#ff6b6b"/>
<text class="label" x="908" y="226">Hybrid</text>
<line x1="886" y1="240" x2="902" y2="240" stroke="#ff922b" stroke-width="2"/>
<circle cx="894.0" cy="240.0" r="3" fill="#ff922b"/>
<text class="label" x="908" y="244">CDF-ARE</text>
<line x1="886" y1="258" x2="902" y2="258" stroke="#888888" stroke-width="2" stroke-dasharray="8,5"/>
<circle cx="894.0" cy="258.0" r="3" fill="#888888"/>
<text class="label" x="908" y="262">BloomARE</text>
<text x="480" y="590" text-anchor="middle">Bits per Key (BPK)</text>
<text transform="translate(16,295) rotate(-90)" text-anchor="middle">False Positive Rate (FPR)</text>
</svg>
