<svg xmlns="http://www.w3.org/2000/svg" width="1020" height="600" viewBox="0 0 1020 600">
<style>text{font-family:Menlo,Monaco,monospace;font-size:12px;fill:#222} .axis{stroke:#333;stroke-width:1} .grid{stroke:#eee;stroke-width:0.5} .label{font-size:11px;fill:#444}</style>
<text x="510" y="28" text-anchor="middle" style="font-size:14px;font-weight:bold">FPR vs BPK — uniform (60-bit keys, n=1048576, L=1024)</text>
<line class="axis" x1="90.0" y1="550.0" x2="870.0" y2="550.0"/>
<line class="axis" x1="90.0" y1="40.0" x2="90.0" y2="550.0"/>
<line class="grid" x1="90.0" y1="518.1" x2="870.0" y2="518.1"/>
<text class="label" x="82.0" y="522.1" text-anchor="end">10^-7</text>
<line class="grid" x1="90.0" y1="454.4" x2="870.0" y2="454.4"/>
<text class="label" x="82.0" y="458.4" text-anchor="end">10^-6</text>
<line class="grid" x1="90.0" y1="390.6" x2="870.0" y2="390.6"/>
<text class="label" x="82.0" y="394.6" text-anchor="end">10^-5</text>
<line class="grid" x1="90.0" y1="326.9" x2="870.0" y2="326.9"/>
<text class="label" x="82.0" y="330.9" text-anchor="end">10^-4</text>
<line class="grid" x1="90.0" y1="263.1" x2="870.0" y2="263.1"/>
<text class="label" x="82.0" y="267.1" text-anchor="end">10^-3</text>
<line class="grid" x1="90.0" y1="199.4" x2="870.0" y2="199.4"/>
<text class="label" x="82.0" y="203.4" text-anchor="end">10^-2</text>
<line class="grid" x1="90.0" y1="135.6" x2="870.0" y2="135.6"/>
<text class="label" x="82.0" y="139.6" text-anchor="end">10^-1</text>
<line class="grid" x1="90.0" y1="71.9" x2="870.0" y2="71.9"/>
<text class="label" x="82.0" y="75.9" text-anchor="end">1</text>
<line class="grid" x1="90.0" y1="40.0" x2="90.0" y2="550.0"/>
<text class="label" x="90.0" y="566.0" text-anchor="middle">0</text>
<line class="grid" x1="200.6" y1="40.0" x2="200.6" y2="550.0"/>
<text class="label" x="200.6" y="566.0" text-anchor="middle">5</text>
<line class="grid" x1="311.1" y1="40.0" x2="311.1" y2="550.0"/>
<text class="label" x="311.1" y="566.0" text-anchor="middle">10</text>
<line class="grid" x1="421.7" y1="40.0" x2="421.7" y2="550.0"/>
<text class="label" x="421.7" y="566.0" text-anchor="middle">15</text>
<line class="grid" x1="532.2" y1="40.0" x2="532.2" y2="550.0"/>
<text class="label" x="532.2" y="566.0" text-anchor="middle">20</text>
<line class="grid" x1="642.8" y1="40.0" x2="642.8" y2="550.0"/>
<text class="label" x="642.8" y="566.0" text-anchor="middle">25</text>
<line class="grid" x1="753.3" y1="40.0" x2="753.3" y2="550.0"/>
<text class="label" x="753.3" y="566.0" text-anchor="middle">30</text>
<line class="grid" x1="863.9" y1="40.0" x2="863.9" y2="550.0"/>
<text class="label" x="863.9" y="566.0" text-anchor="middle">35</text>
<polyline fill="none" stroke="#ef4444" stroke-width="2" stroke-dasharray="8,5" points="311.1,71.9 333.2,91.1 355.3,110.3 377.4,129.4 399.6,148.6 421.7,167.8 443.8,187.0 465.9,206.2 488.0,225.4 510.1,244.6 532.2,263.8 576.4,302.2 620.7,340.5 709.1,417.3 797.5,494.1"/>
<circle cx="311.1" cy="71.9" r="3" fill="#ef4444"/>
<circle cx="333.2" cy="91.1" r="3" fill="#ef4444"/>
<circle cx="355.3" cy="110.3" r="3" fill="#ef4444"/>
<circle cx="377.4" cy="129.4" r="3" fill="#ef4444"/>
<circle cx="399.6" cy="148.6" r="3" fill="#ef4444"/>
<circle cx="421.7" cy="167.8" r="3" fill="#ef4444"/>
<circle cx="443.8" cy="187.0" r="3" fill="#ef4444"/>
<circle cx="465.9" cy="206.2" r="3" fill="#ef4444"/>
<circle cx="488.0" cy="225.4" r="3" fill="#ef4444"/>
<circle cx="510.1" cy="244.6" r="3" fill="#ef4444"/>
<circle cx="532.2" cy="263.8" r="3" fill="#ef4444"/>
<circle cx="576.4" cy="302.2" r="3" fill="#ef4444"/>
<circle cx="620.7" cy="340.5" r="3" fill="#ef4444"/>
<circle cx="709.1" cy="417.3" r="3" fill="#ef4444"/>
<circle cx="797.5" cy="494.1" r="3" fill="#ef4444"/>
<polyline fill="none" stroke="#1a6b3c" stroke-width="2" points="183.9,71.9 232.9,71.9 279.5,71.9 324.6,72.4 369.1,84.6 413.4,113.7 457.6,149.5 501.9,187.2 546.1,225.4"/>
<polygon points="183.9,67.9 187.9,71.9 183.9,75.9 179.9,71.9" fill="#1a6b3c"/>
<polygon points="232.9,67.9 236.9,71.9 232.9,75.9 228.9,71.9" fill="#1a6b3c"/>
<polygon points="279.5,67.9 283.5,71.9 279.5,75.9 275.5,71.9" fill="#1a6b3c"/>
<polygon points="324.6,68.4 328.6,72.4 324.6,76.4 320.6,72.4" fill="#1a6b3c"/>
<polygon points="369.1,80.6 373.1,84.6 369.1,88.6 365.1,84.6" fill="#1a6b3c"/>
<polygon points="413.4,109.7 417.4,113.7 413.4,117.7 409.4,113.7" fill="#1a6b3c"/>
<polygon points="457.6,145.5 461.6,149.5 457.6,153.5 453.6,149.5" fill="#1a6b3c"/>
<polygon points="501.9,183.2 505.9,187.2 501.9,191.2 497.9,187.2" fill="#1a6b3c"/>
<polygon points="546.1,221.4 550.1,225.4 546.1,229.4 542.1,225.4" fill="#1a6b3c"/>
<polyline fill="none" stroke="#1a3a6b" stroke-width="2" points="164.5,97.5 208.5,131.0 253.0,168.0 297.4,206.3 341.4,245.1 385.4,283.7 429.8,321.9 474.3,363.4 518.3,417.3"/>
<polygon points="164.5,92.5 163.3,95.9 159.7,96.0 162.6,98.2 161.6,101.6 164.5,99.5 167.4,101.6 166.4,98.2 169.3,96.0 165.7,95.9" fill="#1a3a6b"/>
<polygon points="208.5,126.0 207.3,129.4 203.7,129.4 206.6,131.6 205.6,135.0 208.5,133.0 211.4,135.0 210.4,131.6 213.3,129.4 209.7,129.4" fill="#1a3a6b"/>
<polygon points="253.0,163.0 251.8,166.4 248.2,166.5 251.1,168.6 250.0,172.1 253.0,170.0 255.9,172.1 254.9,168.6 257.7,166.5 254.1,166.4" fill="#1a3a6b"/>
<polygon points="297.4,201.3 296.2,204.7 292.6,204.8 295.5,206.9 294.5,210.4 297.4,208.3 300.3,210.4 299.3,206.9 302.1,204.8 298.6,204.7" fill="#1a3a6b"/>
<polygon points="341.4,240.1 340.2,243.4 336.6,243.5 339.5,245.7 338.5,249.1 341.4,247.1 344.3,249.1 343.3,245.7 346.1,243.5 342.6,243.4" fill="#1a3a6b"/>
<polygon points="385.4,278.7 384.2,282.1 380.6,282.2 383.5,284.3 382.5,287.7 385.4,285.7 388.3,287.7 387.3,284.3 390.1,282.2 386.6,282.1" fill="#1a3a6b"/>
<polygon points="429.8,316.9 428.7,320.3 425.1,320.4 427.9,322.6 426.9,326.0 429.8,323.9 432.8,326.0 431.7,322.6 434.6,320.4 431.0,320.3" fill="#1a3a6b"/>
<polygon points="474.3,358.4 473.1,361.8 469.5,361.9 472.4,364.0 471.3,367.5 474.3,365.4 477.2,367.5 476.2,364.0 479.0,361.9 475.5,361.8" fill="#1a3a6b"/>
<polygon points="518.3,412.3 517.1,415.7 513.5,415.8 516.4,417.9 515.3,421.4 518.3,419.3 521.2,421.4 520.2,417.9 523.0,415.8 519.5,415.7" fill="#1a3a6b"/>
<polyline fill="none" stroke="#111111" stroke-width="2" points="281.3,99.4"/>
<rect x="278.3" y="96.4" width="6" height="6" fill="#111111"/>
<polyline fill="none" stroke="#111111" stroke-width="2" points="458.2,99.4"/>
<polygon points="458.2,95.4 462.2,102.4 454.2,102.4" fill="#111111"/>
<polyline fill="none" stroke="#111111" stroke-width="2" points="458.2,253.5"/>
<polygon points="458.2,249.5 462.2,253.5 458.2,257.5 454.2,253.5" fill="#111111"/>
<polyline fill="none" stroke="#2a7fff" stroke-width="2" points="90.0,71.9 90.0,71.9 90.0,71.9 90.0,71.9 90.0,71.9 90.0,71.9 90.1,71.9 90.1,71.9 90.3,71.9 90.5,71.9 91.0,71.9 92.1,71.9 94.1,71.9 98.3,71.9 106.4,71.9 120.2,71.9 140.1,71.9 190.4,71.9 240.7,71.9 332.8,72.4 421.6,113.7"/>
<rect x="87.0" y="68.9" width="6" height="6" fill="#2a7fff"/>
<rect x="87.0" y="68.9" width="6" height="6" fill="#2a7fff"/>
<rect x="87.0" y="68.9" width="6" height="6" fill="#2a7fff"/>
<rect x="87.0" y="68.9" width="6" height="6" fill="#2a7fff"/>
<rect x="87.0" y="68.9" width="6" height="6" fill="#2a7fff"/>
<rect x="87.0" y="68.9" width="6" height="6" fill="#2a7fff"/>
<rect x="87.1" y="68.9" width="6" height="6" fill="#2a7fff"/>
<rect x="87.1" y="68.9" width="6" height="6" fill="#2a7fff"/>
<rect x="87.3" y="68.9" width="6" height="6" fill="#2a7fff"/>
<rect x="87.5" y="68.9" width="6" height="6" fill="#2a7fff"/>
<rect x="88.0" y="68.9" width="6" height="6" fill="#2a7fff"/>
<rect x="89.1" y="68.9" width="6" height="6" fill="#2a7fff"/>
<rect x="91.1" y="68.9" width="6" height="6" fill="#2a7fff"/>
<rect x="95.3" y="68.9" width="6" height="6" fill="#2a7fff"/>
<rect x="103.4" y="68.9" width="6" height="6" fill="#2a7fff"/>
<rect x="117.2" y="68.9" width="6" height="6" fill="#2a7fff"/>
<rect x="137.1" y="68.9" width="6" height="6" fill="#2a7fff"/>
<rect x="187.4" y="68.9" width="6" height="6" fill="#2a7fff"/>
<rect x="237.7" y="68.9" width="6" height="6" fill="#2a7fff"/>
<rect x="329.8" y="69.4" width="6" height="6" fill="#2a7fff"/>
<rect x="418.6" y="110.7" width="6" height="6" fill="#2a7fff"/>
<polyline fill="none" stroke="#9b59b6" stroke-width="2" points="90.0,71.9 90.0,71.9 90.0,71.9 90.0,71.9 90.0,71.9 90.0,71.9 90.1,71.9 90.1,71.9 90.3,71.9 90.5,71.9 91.0,71.9 92.1,71.9 94.1,71.9 98.3,71.9 106.4,72.4 120.2,75.9 140.1,84.6 190.4,113.7 240.7,149.5 332.8,225.8 421.6,299.7"/>
<polygon points="90.0,67.9 94.0,74.9 86.0,74.9" fill="#9b59b6"/>
<polygon points="90.0,67.9 94.0,74.9 86.0,74.9" fill="#9b59b6"/>
<polygon points="90.0,67.9 94.0,74.9 86.0,74.9" fill="#9b59b6"/>
<polygon points="90.0,67.9 94.0,74.9 86.0,74.9" fill="#9b59b6"/>
<polygon points="90.0,67.9 94.0,74.9 86.0,74.9" fill="#9b59b6"/>
<polygon points="90.0,67.9 94.0,74.9 86.0,74.9" fill="#9b59b6"/>
<polygon points="90.1,67.9 94.1,74.9 86.1,74.9" fill="#9b59b6"/>
<polygon points="90.1,67.9 94.1,74.9 86.1,74.9" fill="#9b59b6"/>
<polygon points="90.3,67.9 94.3,74.9 86.3,74.9" fill="#9b59b6"/>
<polygon points="90.5,67.9 94.5,74.9 86.5,74.9" fill="#9b59b6"/>
<polygon points="91.0,67.9 95.0,74.9 87.0,74.9" fill="#9b59b6"/>
<polygon points="92.1,67.9 96.1,74.9 88.1,74.9" fill="#9b59b6"/>
<polygon points="94.1,67.9 98.1,74.9 90.1,74.9" fill="#9b59b6"/>
<polygon points="98.3,67.9 102.3,74.9 94.3,74.9" fill="#9b59b6"/>
<polygon points="106.4,68.4 110.4,75.4 102.4,75.4" fill="#9b59b6"/>
<polygon points="120.2,71.9 124.2,78.9 116.2,78.9" fill="#9b59b6"/>
<polygon points="140.1,80.6 144.1,87.6 136.1,87.6" fill="#9b59b6"/>
<polygon points="190.4,109.7 194.4,116.7 186.4,116.7" fill="#9b59b6"/>
<polygon points="240.7,145.5 244.7,152.5 236.7,152.5" fill="#9b59b6"/>
<polygon points="332.8,221.8 336.8,228.8 328.8,228.8" fill="#9b59b6"/>
<polygon points="421.6,295.7 425.6,302.7 417.6,302.7" fill="#9b59b6"/>
<polyline fill="none" stroke="#4dd88a" stroke-width="2" points="90.0,71.9 90.0,71.9 90.0,71.9 90.0,71.9 90.0,71.9 90.0,71.9 90.1,71.9 90.1,71.9 90.3,71.9 90.5,71.9 91.0,71.9 92.1,71.9 94.1,71.9 98.3,71.9 106.4,71.9 120.2,71.9 140.1,71.9 190.4,71.9 240.7,71.9 332.8,72.4 421.6,113.7"/>
<polygon points="90.0,67.9 94.0,71.9 90.0,75.9 86.0,71.9" fill="#4dd88a"/>
<polygon points="90.0,67.9 94.0,71.9 90.0,75.9 86.0,71.9" fill="#4dd88a"/>
<polygon points="90.0,67.9 94.0,71.9 90.0,75.9 86.0,71.9" fill="#4dd88a"/>
<polygon points="90.0,67.9 94.0,71.9 90.0,75.9 86.0,71.9" fill="#4dd88a"/>
<polygon points="90.0,67.9 94.0,71.9 90.0,75.9 86.0,71.9" fill="#4dd88a"/>
<polygon points="90.0,67.9 94.0,71.9 90.0,75.9 86.0,71.9" fill="#4dd88a"/>
<polygon points="90.1,67.9 94.1,71.9 90.1,75.9 86.1,71.9" fill="#4dd88a"/>
<polygon points="90.1,67.9 94.1,71.9 90.1,75.9 86.1,71.9" fill="#4dd88a"/>
<polygon points="90.3,67.9 94.3,71.9 90.3,75.9 86.3,71.9" fill="#4dd88a"/>
<polygon points="90.5,67.9 94.5,71.9 90.5,75.9 86.5,71.9" fill="#4dd88a"/>
<polygon points="91.0,67.9 95.0,71.9 91.0,75.9 87.0,71.9" fill="#4dd88a"/>
<polygon points="92.1,67.9 96.1,71.9 92.1,75.9 88.1,71.9" fill="#4dd88a"/>
<polygon points="94.1,67.9 98.1,71.9 94.1,75.9 90.1,71.9" fill="#4dd88a"/>
<polygon points="98.3,67.9 102.3,71.9 98.3,75.9 94.3,71.9" fill="#4dd88a"/>
<polygon points="106.4,67.9 110.4,71.9 106.4,75.9 102.4,71.9" fill="#4dd88a"/>
<polygon points="120.2,67.9 124.2,71.9 120.2,75.9 116.2,71.9" fill="#4dd88a"/>
<polygon points="140.1,67.9 144.1,71.9 140.1,75.9 136.1,71.9" fill="#4dd88a"/>
<polygon points="190.4,67.9 194.4,71.9 190.4,75.9 186.4,71.9" fill="#4dd88a"/>
<polygon points="240.7,67.9 244.7,71.9 240.7,75.9 236.7,71.9" fill="#4dd88a"/>
<polygon points="332.8,68.4 336.8,72.4 332.8,76.4 328.8,72.4" fill="#4dd88a"/>
<polygon points="421.6,109.7 425.6,113.7 421.6,117.7 417.6,113.7" fill="#4dd88a"/>
<polyline fill="none" stroke="#ff6b6b" stroke-width="2" points="90.0,71.9 90.0,71.9 90.0,71.9 90.0,71.9 90.0,71.9 90.0,71.9 90.1,71.9 90.1,71.9 90.3,71.9 90.5,71.9 91.0,71.9 92.1,71.9 94.1,71.9 98.3,71.9 106.4,72.4 120.2,75.9 140.1,84.6 190.4,113.7 240.7,149.5 332.8,225.8 421.6,299.7"/>
<polygon points="90.0,66.9 88.8,70.3 85.2,70.3 88.1,72.5 87.1,75.9 90.0,73.9 92.9,75.9 91.9,72.5 94.8,70.3 91.2,70.3" fill="#ff6b6b"/>
<polygon points="90.0,66.9 88.8,70.3 85.2,70.3 88.1,72.5 87.1,75.9 90.0,73.9 92.9,75.9 91.9,72.5 94.8,70.3 91.2,70.3" fill="#ff6b6b"/>
<polygon points="90.0,66.9 88.8,70.3 85.2,70.3 88.1,72.5 87.1,75.9 90.0,73.9 92.9,75.9 91.9,72.5 94.8,70.3 91.2,70.3" fill="#ff6b6b"/>
<polygon points="90.0,66.9 88.8,70.3 85.3,70.3 88.1,72.5 87.1,75.9 90.0,73.9 92.9,75.9 91.9,72.5 94.8,70.3 91.2,70.3" fill="#ff6b6b"/>
<polygon points="90.0,66.9 88.8,70.3 85.3,70.3 88.1,72.5 87.1,75.9 90.0,73.9 93.0,75.9 91.9,72.5 94.8,70.3 91.2,70.3" fill="#ff6b6b"/>
<polygon points="90.0,66.9 88.9,70.3 85.3,70.3 88.1,72.5 87.1,75.9 90.0,73.9 93.0,75.9 91.9,72.5 94.8,70.3 91.2,70.3" fill="#ff6b6b"/>
<polygon points="90.1,66.9 88.9,70.3 85.3,70.3 88.2,72.5 87.1,75.9 90.1,73.9 93.0,75.9 92.0,72.5 94.8,70.3 91.2,70.3" fill="#ff6b6b"/>
<polygon points="90.1,66.9 89.0,70.3 85.4,70.3 88.2,72.5 87.2,75.9 90.1,73.9 93.1,75.9 92.0,72.5 94.9,70.3 91.3,70.3" fill="#ff6b6b"/>
<polygon points="90.3,66.9 89.1,70.3 85.5,70.3 88.4,72.5 87.3,75.9 90.3,73.9 93.2,75.9 92.2,72.5 95.0,70.3 91.4,70.3" fill="#ff6b6b"/>
<polygon points="90.5,66.9 89.3,70.3 85.8,70.3 88.6,72.5 87.6,75.9 90.5,73.9 93.5,75.9 92.4,72.5 95.3,70.3 91.7,70.3" fill="#ff6b6b"/>
<polygon points="91.0,66.9 89.9,70.3 86.3,70.3 89.1,72.5 88.1,75.9 91.0,73.9 94.0,75.9 92.9,72.5 95.8,70.3 92.2,70.3" fill="#ff6b6b"/>
<polygon points="92.1,66.9 90.9,70.3 87.3,70.3 90.2,72.5 89.1,75.9 92.1,73.9 95.0,75.9 94.0,72.5 96.8,70.3 93.2,70.3" fill="#ff6b6b"/>
<polygon points="94.1,66.9 93.0,70.3 89.4,70.3 92.2,72.5 91.2,75.9 94.1,73.9 97.1,75.9 96.0,72.5 98.9,70.3 95.3,70.3" fill="#ff6b6b"/>
<polygon points="98.3,66.9 97.1,70.3 93.5,70.3 96.4,72.5 95.4,75.9 98.3,73.9 101.2,75.9 100.2,72.5 103.0,70.3 99.5,70.3" fill="#ff6b6b"/>
<polygon points="106.4,67.4 105.2,70.8 101.6,70.8 104.5,73.0 103.4,76.4 106.4,74.4 109.3,76.4 108.3,73.0 111.1,70.8 107.6,70.8" fill="#ff6b6b"/>
<polygon points="120.2,70.9 119.0,74.3 115.4,74.4 118.3,76.5 117.2,80.0 120.2,77.9 123.1,80.0 122.1,76.5 124.9,74.4 121.4,74.3" fill="#ff6b6b"/>
<polygon points="140.1,79.6 138.9,83.0 135.3,83.0 138.2,85.2 137.1,88.6 140.1,86.6 143.0,88.6 142.0,85.2 144.8,83.0 141.3,83.0" fill="#ff6b6b"/>
<polygon points="190.4,108.7 189.2,112.1 185.6,112.2 188.5,114.3 187.4,117.7 190.4,115.7 193.3,117.7 192.3,114.3 195.1,112.2 191.6,112.1" fill="#ff6b6b"/>
<polygon points="240.7,144.5 239.5,147.9 235.9,148.0 238.8,150.1 237.8,153.6 240.7,151.5 243.6,153.6 242.6,150.1 245.5,148.0 241.9,147.9" fill="#ff6b6b"/>
<polygon points="332.8,220.8 331.6,224.2 328.0,224.2 330.9,226.4 329.8,229.8 332.8,227.8 335.7,229.8 334.7,226.4 337.5,224.2 334.0,224.2" fill="#ff6b6b"/>
<polygon points="421.6,294.7 420.4,298.1 416.9,298.1 419.7,300.3 418.7,303.7 421.6,301.7 424.6,303.7 423.5,300.3 426.4,298.1 422.8,298.1" fill="#ff6b6b"/>
<polyline fill="none" stroke="#ff922b" stroke-width="2" points="285.0,149.5 308.7,168.2 331.9,187.3 354.6,206.6 377.0,225.6 399.3,245.1 421.5,264.8 443.7,283.5 488.0,317.6 510.1,338.3"/>
<circle cx="285.0" cy="149.5" r="3" fill="#ff922b"/>
<circle cx="308.7" cy="168.2" r="3" fill="#ff922b"/>
<circle cx="331.9" cy="187.3" r="3" fill="#ff922b"/>
<circle cx="354.6" cy="206.6" r="3" fill="#ff922b"/>
<circle cx="377.0" cy="225.6" r="3" fill="#ff922b"/>
<circle cx="399.3" cy="245.1" r="3" fill="#ff922b"/>
<circle cx="421.5" cy="264.8" r="3" fill="#ff922b"/>
<circle cx="443.7" cy="283.5" r="3" fill="#ff922b"/>
<circle cx="488.0" cy="317.6" r="3" fill="#ff922b"/>
<circle cx="510.1" cy="338.3" r="3" fill="#ff922b"/>
<polyline fill="none" stroke="#888888" stroke-width="2" stroke-dasharray="8,5" points="512.6,135.4 545.7,154.4 588.6,180.2 620.7,199.3 652.7,218.6 694.9,243.9 726.9,262.1 758.8,281.0 801.0,307.0 832.9,325.4"/>
<circle cx="512.6" cy="135.4" r="3" fill="#888888"/>
<circle cx="545.7" cy="154.4" r="3" fill="#888888"/>
<circle cx="588.6" cy="180.2" r="3" fill="#888888"/>
<circle cx="620.7" cy="199.3" r="3" fill="#888888"/>
<circle cx="652.7" cy="218.6" r="3" fill="#888888"/>
<circle cx="694.9" cy="243.9" r="3" fill="#888888"/>
<circle cx="726.9" cy="262.1" r="3" fill="#888888"/>
<circle cx="758.8" cy="281.0" r="3" fill="#888888"/>
<circle cx="801.0" cy="307.0" r="3" fill="#888888"/>
<circle cx="832.9" cy="325.4" r="3" fill="#888888"/>
<line x1="886" y1="60" x2="902" y2="60" stroke="#ef4444" stroke-width="2" stroke-dasharray="8,5"/>
<circle cx="894.0" cy="60.0" r="3" fill="#ef4444"/>
<text class="label" x="908" y="64">Theoretical</text>
<line x1="886" y1="78" x2="902" y2="78" stroke="#1a6b3c" stroke-width="2"/>
<polygon points="894.0,74.0 898.0,78.0 894.0,82.0 890.0,78.0" fill="#1a6b3c"/>
<text class="label" x="908" y="82">Grafite</text>
<line x1="886" y1="96" x2="902" y2="96" stroke="#1a3a6b" stroke-width="2"/>
<polygon points="894.0,91.0 892.8,94.4 889.2,94.5 892.1,96.6 891.1,100.0 894.0,98.0 896.9,100.0 895.9,96.6 898.8,94.5 895.2,94.4" fill="#1a3a6b"/>
<text class="label" x="908" y="100">SNARF</text>
<line x1="886" y1="114" x2="902" y2="114" stroke="#111111" stroke-width="2"/>
<rect x="891.0" y="111.0" width="6" height="6" fill="#111111"/>
<text class="label" x="908" y="118">SuRF</text>
<line x1="886" y1="132" x2="902" y2="132" stroke="#111111" stroke-width="2"/>
<polygon points="894.0,128.0 898.0,135.0 890.0,135.0" fill="#111111"/>
<text class="label" x="908" y="136">SuRFHash(8)</text>
<line x1="886" y1="150" x2="902" y2="150" stroke="#111111" stroke-width="2"/>
<polygon points="894.0,146.0 898.0,150.0 894.0,154.0 890.0,150.0" fill="#111111"/>
<text class="label" x="908" y="154">SuRFReal(8)</text>
<line x1="886" y1="168" x2="902" y2="168" stroke="#2a7fff" stroke-width="2"/>
<rect x="891.0" y="165.0" width="6" height="6" fill="#2a7fff"/>
<text class="label" x="908" y="172">Adaptive (t=0)</text>
<line x1="886" y1="186" x2="902" y2="186" stroke="#9b59b6" stroke-width="2"/>
<polygon points="894.0,182.0 898.0,189.0 890.0,189.0" fill="#9b59b6"/>
<text class="label" x="908" y="190">Truncation</text>
<line x1="886" y1="204" x2="902" y2="204" stroke="#4dd88a" stroke-width="2"/>
<polygon points="894.0,200.0 898.0,204.0 894.0,208.0 890.0,204.0" fill="#4dd88a"/>
<text class="label" x="908" y="208">SODA</text>
<line x1="886" y1="222" x2="902" y2="222" stroke="#ff6b6b" stroke-width="2"/>
<polygon points="894.0,217.0 892.8,220.4 889.2,220.5 892.1,222.6 891.1,226.0 894.0,224.0 896.9,226.0 895.9,222.6 898.8,220.5 895.2,220.4" fill="#ff6b6b"/>
<text class="label" x="908" y="226">Hybrid</text>
<line x1="886" y1="240" x2="902" y2="240" stroke="#ff922b" stroke-width="2"/>
<circle cx="894.0" cy="240.0" r="3" fill="#ff922b"/>
<text class="label" x="908" y="244">CDF-ARE</text>
<line x1="886" y1="258" x2="902" y2="258" stroke="#888888" stroke-width="2" stroke-dasharray="8,5"/>
<circle cx="894.0" cy="258.0" r="3" fill="#888888"/>
<text class="label" x="908" y="262">BloomARE</text>
<text x="480" y="590" text-anchor="middle">Bits per Key (BPK)</text>
<text transform="translate(16,295) rotate(-90)" text-anchor="middle">False Positive Rate (FPR)</text>
</svg>
