<svg xmlns="http://www.w3.org/2000/svg" width="1020" height="600" viewBox="0 0 1020 600">
<style>text{font-family:Menlo,Monaco,monospace;font-size:12px;fill:#222} .axis{stroke:#333;stroke-width:1} .grid{stroke:#eee;stroke-width:0.5} .label{font-size:11px;fill:#444}</style>
<text x="510" y="28" text-anchor="middle" style="font-size:14px;font-weight:bold">FPR vs BPK — uniform (60-bit keys, n=1048576, L=128)</text>
<line class="axis" x1="90.0" y1="550.0" x2="870.0" y2="550.0"/>
<line class="axis" x1="90.0" y1="40.0" x2="90.0" y2="550.0"/>
<line class="grid" x1="90.0" y1="521.7" x2="870.0" y2="521.7"/>
<text class="label" x="82.0" y="525.7" text-anchor="end">10^-8</text>
<line class="grid" x1="90.0" y1="465.0" x2="870.0" y2="465.0"/>
<text class="label" x="82.0" y="469.0" text-anchor="end">10^-7</text>
<line class="grid" x1="90.0" y1="408.3" x2="870.0" y2="408.3"/>
<text class="label" x="82.0" y="412.3" text-anchor="end">10^-6</text>
<line class="grid" x1="90.0" y1="351.7" x2="870.0" y2="351.7"/>
<text class="label" x="82.0" y="355.7" text-anchor="end">10^-5</text>
<line class="grid" x1="90.0" y1="295.0" x2="870.0" y2="295.0"/>
<text class="label" x="82.0" y="299.0" text-anchor="end">10^-4</text>
<line class="grid" x1="90.0" y1="238.3" x2="870.0" y2="238.3"/>
<text class="label" x="82.0" y="242.3" text-anchor="end">10^-3</text>
<line class="grid" x1="90.0" y1="181.7" x2="870.0" y2="181.7"/>
<text class="label" x="82.0" y="185.7" text-anchor="end">10^-2</text>
<line class="grid" x1="90.0" y1="125.0" x2="870.0" y2="125.0"/>
<text class="label" x="82.0" y="129.0" text-anchor="end">10^-1</text>
<line class="grid" x1="90.0" y1="68.3" x2="870.0" y2="68.3"/>
<text class="label" x="82.0" y="72.3" text-anchor="end">1</text>
<line class="grid" x1="90.0" y1="40.0" x2="90.0" y2="550.0"/>
<text class="label" x="90.0" y="566.0" text-anchor="middle">0</text>
<line class="grid" x1="206.1" y1="40.0" x2="206.1" y2="550.0"/>
<text class="label" x="206.1" y="566.0" text-anchor="middle">5</text>
<line class="grid" x1="322.1" y1="40.0" x2="322.1" y2="550.0"/>
<text class="label" x="322.1" y="566.0" text-anchor="middle">10</text>
<line class="grid" x1="438.2" y1="40.0" x2="438.2" y2="550.0"/>
<text class="label" x="438.2" y="566.0" text-anchor="middle">15</text>
<line class="grid" x1="554.3" y1="40.0" x2="554.3" y2="550.0"/>
<text class="label" x="554.3" y="566.0" text-anchor="middle">20</text>
<line class="grid" x1="670.4" y1="40.0" x2="670.4" y2="550.0"/>
<text class="label" x="670.4" y="566.0" text-anchor="middle">25</text>
<line class="grid" x1="786.4" y1="40.0" x2="786.4" y2="550.0"/>
<text class="label" x="786.4" y="566.0" text-anchor="middle">30</text>
<polyline fill="none" stroke="#ef4444" stroke-width="2" stroke-dasharray="8,5" points="252.5,68.3 275.7,85.4 298.9,102.5 322.1,119.5 345.4,136.6 368.6,153.6 391.8,170.7 415.0,187.7 438.2,204.8 461.4,221.9 484.6,238.9 507.9,256.0 531.1,273.0 554.3,290.1 600.7,324.2 647.1,358.3 740.0,426.6 832.9,494.8"/>
<circle cx="252.5" cy="68.3" r="3" fill="#ef4444"/>
<circle cx="275.7" cy="85.4" r="3" fill="#ef4444"/>
<circle cx="298.9" cy="102.5" r="3" fill="#ef4444"/>
<circle cx="322.1" cy="119.5" r="3" fill="#ef4444"/>
<circle cx="345.4" cy="136.6" r="3" fill="#ef4444"/>
<circle cx="368.6" cy="153.6" r="3" fill="#ef4444"/>
<circle cx="391.8" cy="170.7" r="3" fill="#ef4444"/>
<circle cx="415.0" cy="187.7" r="3" fill="#ef4444"/>
<circle cx="438.2" cy="204.8" r="3" fill="#ef4444"/>
<circle cx="461.4" cy="221.9" r="3" fill="#ef4444"/>
<circle cx="484.6" cy="238.9" r="3" fill="#ef4444"/>
<circle cx="507.9" cy="256.0" r="3" fill="#ef4444"/>
<circle cx="531.1" cy="273.0" r="3" fill="#ef4444"/>
<circle cx="554.3" cy="290.1" r="3" fill="#ef4444"/>
<circle cx="600.7" cy="324.2" r="3" fill="#ef4444"/>
<circle cx="647.1" cy="358.3" r="3" fill="#ef4444"/>
<circle cx="740.0" cy="426.6" r="3" fill="#ef4444"/>
<circle cx="832.9" cy="494.8" r="3" fill="#ef4444"/>
<polyline fill="none" stroke="#1a6b3c" stroke-width="2" points="188.6,68.3 240.1,68.3 289.0,71.9 336.3,91.3 383.0,121.0 429.5,154.0 476.0,187.6 522.4,220.2 568.9,257.4"/>
<polygon points="188.6,64.3 192.6,68.3 188.6,72.3 184.6,68.3" fill="#1a6b3c"/>
<polygon points="240.1,64.3 244.1,68.3 240.1,72.3 236.1,68.3" fill="#1a6b3c"/>
<polygon points="289.0,67.9 293.0,71.9 289.0,75.9 285.0,71.9" fill="#1a6b3c"/>
<polygon points="336.3,87.3 340.3,91.3 336.3,95.3 332.3,91.3" fill="#1a6b3c"/>
<polygon points="383.0,117.0 387.0,121.0 383.0,125.0 379.0,121.0" fill="#1a6b3c"/>
<polygon points="429.5,150.0 433.5,154.0 429.5,158.0 425.5,154.0" fill="#1a6b3c"/>
<polygon points="476.0,183.6 480.0,187.6 476.0,191.6 472.0,187.6" fill="#1a6b3c"/>
<polygon points="522.4,216.2 526.4,220.2 522.4,224.2 518.4,220.2" fill="#1a6b3c"/>
<polygon points="568.9,253.4 572.9,257.4 568.9,261.4 564.9,257.4" fill="#1a6b3c"/>
<polyline fill="none" stroke="#1a3a6b" stroke-width="2" points="168.2,91.1 214.4,120.9 261.1,153.8 307.7,187.8 353.9,222.3 400.1,256.6 446.8,290.6 493.5,327.5 539.7,375.4"/>
<polygon points="168.2,86.1 167.0,89.5 163.5,89.6 166.3,91.8 165.3,95.2 168.2,93.1 171.2,95.2 170.1,91.8 173.0,89.6 169.4,89.5" fill="#1a3a6b"/>
<polygon points="214.4,115.9 213.2,119.3 209.7,119.3 212.5,121.5 211.5,124.9 214.4,122.9 217.4,124.9 216.3,121.5 219.2,119.3 215.6,119.3" fill="#1a3a6b"/>
<polygon points="261.1,148.8 259.9,152.2 256.3,152.3 259.2,154.4 258.2,157.8 261.1,155.8 264.0,157.8 263.0,154.4 265.8,152.3 262.3,152.2" fill="#1a3a6b"/>
<polygon points="307.7,182.8 306.6,186.2 303.0,186.3 305.8,188.4 304.8,191.9 307.7,189.8 310.7,191.9 309.6,188.4 312.5,186.3 308.9,186.2" fill="#1a3a6b"/>
<polygon points="353.9,217.3 352.8,220.7 349.2,220.7 352.0,222.9 351.0,226.3 353.9,224.3 356.9,226.3 355.8,222.9 358.7,220.7 355.1,220.7" fill="#1a3a6b"/>
<polygon points="400.1,251.6 399.0,255.0 395.4,255.1 398.2,257.2 397.2,260.7 400.1,258.6 403.1,260.7 402.0,257.2 404.9,255.1 401.3,255.0" fill="#1a3a6b"/>
<polygon points="446.8,285.6 445.6,289.0 442.0,289.1 444.9,291.2 443.9,294.7 446.8,292.6 449.7,294.7 448.7,291.2 451.6,289.1 448.0,289.0" fill="#1a3a6b"/>
<polygon points="493.5,322.5 492.3,325.9 488.7,325.9 491.6,328.1 490.5,331.5 493.5,329.5 496.4,331.5 495.4,328.1 498.2,325.9 494.6,325.9" fill="#1a3a6b"/>
<polygon points="539.7,370.4 538.5,373.8 534.9,373.8 537.7,376.0 536.7,379.4 539.7,377.4 542.6,379.4 541.6,376.0 544.4,373.8 540.8,373.8" fill="#1a3a6b"/>
<polyline fill="none" stroke="#111111" stroke-width="2" points="290.9,92.8"/>
<rect x="287.9" y="89.8" width="6" height="6" fill="#111111"/>
<polyline fill="none" stroke="#111111" stroke-width="2" points="476.6,92.8"/>
<polygon points="476.6,88.8 480.6,95.8 472.6,95.8" fill="#111111"/>
<polyline fill="none" stroke="#111111" stroke-width="2" points="476.6,229.8"/>
<polygon points="476.6,225.8 480.6,229.8 476.6,233.8 472.6,229.8" fill="#111111"/>
<polyline fill="none" stroke="#2a7fff" stroke-width="2" points="90.0,68.3 90.0,68.3 90.0,68.3 90.0,68.3 90.0,68.3 90.0,68.3 90.1,68.3 90.1,68.3 90.3,68.3 90.5,68.3 91.1,68.3 92.2,68.3 94.4,68.3 98.7,68.3 107.2,68.3 121.7,68.3 142.6,68.3 195.4,68.3 248.2,68.3 344.9,91.3 438.2,153.9"/>
<rect x="87.0" y="65.3" width="6" height="6" fill="#2a7fff"/>
<rect x="87.0" y="65.3" width="6" height="6" fill="#2a7fff"/>
<rect x="87.0" y="65.3" width="6" height="6" fill="#2a7fff"/>
<rect x="87.0" y="65.3" width="6" height="6" fill="#2a7fff"/>
<rect x="87.0" y="65.3" width="6" height="6" fill="#2a7fff"/>
<rect x="87.0" y="65.3" width="6" height="6" fill="#2a7fff"/>
<rect x="87.1" y="65.3" width="6" height="6" fill="#2a7fff"/>
<rect x="87.1" y="65.3" width="6" height="6" fill="#2a7fff"/>
<rect x="87.3" y="65.3" width="6" height="6" fill="#2a7fff"/>
<rect x="87.5" y="65.3" width="6" height="6" fill="#2a7fff"/>
<rect x="88.1" y="65.3" width="6" height="6" fill="#2a7fff"/>
<rect x="89.2" y="65.3" width="6" height="6" fill="#2a7fff"/>
<rect x="91.4" y="65.3" width="6" height="6" fill="#2a7fff"/>
<rect x="95.7" y="65.3" width="6" height="6" fill="#2a7fff"/>
<rect x="104.2" y="65.3" width="6" height="6" fill="#2a7fff"/>
<rect x="118.7" y="65.3" width="6" height="6" fill="#2a7fff"/>
<rect x="139.6" y="65.3" width="6" height="6" fill="#2a7fff"/>
<rect x="192.4" y="65.3" width="6" height="6" fill="#2a7fff"/>
<rect x="245.2" y="65.3" width="6" height="6" fill="#2a7fff"/>
<rect x="341.9" y="88.3" width="6" height="6" fill="#2a7fff"/>
<rect x="435.2" y="150.9" width="6" height="6" fill="#2a7fff"/>
<polyline fill="none" stroke="#9b59b6" stroke-width="2" points="90.0,68.3 90.0,68.3 90.0,68.3 90.0,68.3 90.0,68.3 90.0,68.3 90.1,68.3 90.1,68.3 90.3,68.3 90.5,68.3 91.1,68.3 92.2,68.3 94.4,68.3 98.7,68.3 107.2,68.8 121.7,71.9 142.6,79.6 195.4,105.5 248.2,137.3 344.9,205.1 438.2,270.8"/>
<polygon points="90.0,64.3 94.0,71.3 86.0,71.3" fill="#9b59b6"/>
<polygon points="90.0,64.3 94.0,71.3 86.0,71.3" fill="#9b59b6"/>
<polygon points="90.0,64.3 94.0,71.3 86.0,71.3" fill="#9b59b6"/>
<polygon points="90.0,64.3 94.0,71.3 86.0,71.3" fill="#9b59b6"/>
<polygon points="90.0,64.3 94.0,71.3 86.0,71.3" fill="#9b59b6"/>
<polygon points="90.0,64.3 94.0,71.3 86.0,71.3" fill="#9b59b6"/>
<polygon points="90.1,64.3 94.1,71.3 86.1,71.3" fill="#9b59b6"/>
<polygon points="90.1,64.3 94.1,71.3 86.1,71.3" fill="#9b59b6"/>
<polygon points="90.3,64.3 94.3,71.3 86.3,71.3" fill="#9b59b6"/>
<polygon points="90.5,64.3 94.5,71.3 86.5,71.3" fill="#9b59b6"/>
<polygon points="91.1,64.3 95.1,71.3 87.1,71.3" fill="#9b59b6"/>
<polygon points="92.2,64.3 96.2,71.3 88.2,71.3" fill="#9b59b6"/>
<polygon points="94.4,64.3 98.4,71.3 90.4,71.3" fill="#9b59b6"/>
<polygon points="98.7,64.3 102.7,71.3 94.7,71.3" fill="#9b59b6"/>
<polygon points="107.2,64.8 111.2,71.8 103.2,71.8" fill="#9b59b6"/>
<polygon points="121.7,67.9 125.7,74.9 117.7,74.9" fill="#9b59b6"/>
<polygon points="142.6,75.6 146.6,82.6 138.6,82.6" fill="#9b59b6"/>
<polygon points="195.4,101.5 199.4,108.5 191.4,108.5" fill="#9b59b6"/>
<polygon points="248.2,133.3 252.2,140.3 244.2,140.3" fill="#9b59b6"/>
<polygon points="344.9,201.1 348.9,208.1 340.9,208.1" fill="#9b59b6"/>
<polygon points="438.2,266.8 442.2,273.8 434.2,273.8" fill="#9b59b6"/>
<polyline fill="none" stroke="#4dd88a" stroke-width="2" points="90.0,68.3 90.0,68.3 90.0,68.3 90.0,68.3 90.0,68.3 90.0,68.3 90.1,68.3 90.1,68.3 90.3,68.3 90.5,68.3 91.1,68.3 92.2,68.3 94.4,68.3 98.7,68.3 107.2,68.3 121.7,68.3 142.6,68.3 195.4,68.3 248.2,68.3 344.9,91.3 438.2,153.9"/>
<polygon points="90.0,64.3 94.0,68.3 90.0,72.3 86.0,68.3" fill="#4dd88a"/>
<polygon points="90.0,64.3 94.0,68.3 90.0,72.3 86.0,68.3" fill="#4dd88a"/>
<polygon points="90.0,64.3 94.0,68.3 90.0,72.3 86.0,68.3" fill="#4dd88a"/>
<polygon points="90.0,64.3 94.0,68.3 90.0,72.3 86.0,68.3" fill="#4dd88a"/>
<polygon points="90.0,64.3 94.0,68.3 90.0,72.3 86.0,68.3" fill="#4dd88a"/>
<polygon points="90.0,64.3 94.0,68.3 90.0,72.3 86.0,68.3" fill="#4dd88a"/>
<polygon points="90.1,64.3 94.1,68.3 90.1,72.3 86.1,68.3" fill="#4dd88a"/>
<polygon points="90.1,64.3 94.1,68.3 90.1,72.3 86.1,68.3" fill="#4dd88a"/>
<polygon points="90.3,64.3 94.3,68.3 90.3,72.3 86.3,68.3" fill="#4dd88a"/>
<polygon points="90.5,64.3 94.5,68.3 90.5,72.3 86.5,68.3" fill="#4dd88a"/>
<polygon points="91.1,64.3 95.1,68.3 91.1,72.3 87.1,68.3" fill="#4dd88a"/>
<polygon points="92.2,64.3 96.2,68.3 92.2,72.3 88.2,68.3" fill="#4dd88a"/>
<polygon points="94.4,64.3 98.4,68.3 94.4,72.3 90.4,68.3" fill="#4dd88a"/>
<polygon points="98.7,64.3 102.7,68.3 98.7,72.3 94.7,68.3" fill="#4dd88a"/>
<polygon points="107.2,64.3 111.2,68.3 107.2,72.3 103.2,68.3" fill="#4dd88a"/>
<polygon points="121.7,64.3 125.7,68.3 121.7,72.3 117.7,68.3" fill="#4dd88a"/>
<polygon points="142.6,64.3 146.6,68.3 142.6,72.3 138.6,68.3" fill="#4dd88a"/>
<polygon points="195.4,64.3 199.4,68.3 195.4,72.3 191.4,68.3" fill="#4dd88a"/>
<polygon points="248.2,64.3 252.2,68.3 248.2,72.3 244.2,68.3" fill="#4dd88a"/>
<polygon points="344.9,87.3 348.9,91.3 344.9,95.3 340.9,91.3" fill="#4dd88a"/>
<polygon points="438.2,149.9 442.2,153.9 438.2,157.9 434.2,153.9" fill="#4dd88a"/>
<polyline fill="none" stroke="#ff6b6b" stroke-width="2" points="90.0,68.3 90.0,68.3 90.0,68.3 90.0,68.3 90.0,68.3 90.0,68.3 90.1,68.3 90.1,68.3 90.3,68.3 90.5,68.3 91.1,68.3 92.2,68.3 94.4,68.3 98.7,68.3 107.2,68.8 121.7,71.9 142.6,79.6 195.4,105.5 248.2,137.3 344.9,205.1 438.2,270.8"/>
<polygon points="90.0,63.3 88.8,66.7 85.2,66.8 88.1,69.0 87.1,72.4 90.0,70.3 92.9,72.4 91.9,69.0 94.8,66.8 91.2,66.7" fill="#ff6b6b"/>
<polygon points="90.0,63.3 88.8,66.7 85.2,66.8 88.1,69.0 87.1,72.4 90.0,70.3 92.9,72.4 91.9,69.0 94.8,66.8 91.2,66.7" fill="#ff6b6b"/>
<polygon points="90.0,63.3 88.8,66.7 85.2,66.8 88.1,69.0 87.1,72.4 90.0,70.3 92.9,72.4 91.9,69.0 94.8,66.8 91.2,66.7" fill="#ff6b6b"/>
<polygon points="90.0,63.3 88.8,66.7 85.3,66.8 88.1,69.0 87.1,72.4 90.0,70.3 92.9,72.4 91.9,69.0 94.8,66.8 91.2,66.7" fill="#ff6b6b"/>
<polygon points="90.0,63.3 88.8,66.7 85.3,66.8 88.1,69.0 87.1,72.4 90.0,70.3 93.0,72.4 91.9,69.0 94.8,66.8 91.2,66.7" fill="#ff6b6b"/>
<polygon points="90.0,63.3 88.9,66.7 85.3,66.8 88.1,69.0 87.1,72.4 90.0,70.3 93.0,72.4 91.9,69.0 94.8,66.8 91.2,66.7" fill="#ff6b6b"/>
<polygon points="90.1,63.3 88.9,66.7 85.3,66.8 88.2,69.0 87.1,72.4 90.1,70.3 93.0,72.4 92.0,69.0 94.8,66.8 91.2,66.7" fill="#ff6b6b"/>
<polygon points="90.1,63.3 89.0,66.7 85.4,66.8 88.2,69.0 87.2,72.4 90.1,70.3 93.1,72.4 92.0,69.0 94.9,66.8 91.3,66.7" fill="#ff6b6b"/>
<polygon points="90.3,63.3 89.1,66.7 85.5,66.8 88.4,69.0 87.3,72.4 90.3,70.3 93.2,72.4 92.2,69.0 95.0,66.8 91.4,66.7" fill="#ff6b6b"/>
<polygon points="90.5,63.3 89.4,66.7 85.8,66.8 88.6,69.0 87.6,72.4 90.5,70.3 93.5,72.4 92.4,69.0 95.3,66.8 91.7,66.7" fill="#ff6b6b"/>
<polygon points="91.1,63.3 89.9,66.7 86.3,66.8 89.2,69.0 88.1,72.4 91.1,70.3 94.0,72.4 93.0,69.0 95.8,66.8 92.3,66.7" fill="#ff6b6b"/>
<polygon points="92.2,63.3 91.0,66.7 87.4,66.8 90.3,69.0 89.2,72.4 92.2,70.3 95.1,72.4 94.1,69.0 96.9,66.8 93.4,66.7" fill="#ff6b6b"/>
<polygon points="94.4,63.3 93.2,66.7 89.6,66.8 92.5,69.0 91.4,72.4 94.4,70.3 97.3,72.4 96.3,69.0 99.1,66.8 95.5,66.7" fill="#ff6b6b"/>
<polygon points="98.7,63.3 97.5,66.7 93.9,66.8 96.8,69.0 95.8,72.4 98.7,70.3 101.6,72.4 100.6,69.0 103.5,66.8 99.9,66.7" fill="#ff6b6b"/>
<polygon points="107.2,63.8 106.0,67.2 102.4,67.2 105.3,69.4 104.3,72.8 107.2,70.8 110.1,72.8 109.1,69.4 112.0,67.2 108.4,67.2" fill="#ff6b6b"/>
<polygon points="121.7,66.9 120.5,70.3 116.9,70.4 119.8,72.6 118.7,76.0 121.7,73.9 124.6,76.0 123.6,72.6 126.4,70.4 122.9,70.3" fill="#ff6b6b"/>
<polygon points="142.6,74.6 141.4,78.0 137.8,78.1 140.7,80.2 139.6,83.7 142.6,81.6 145.5,83.7 144.5,80.2 147.3,78.1 143.8,78.0" fill="#ff6b6b"/>
<polygon points="195.4,100.5 194.2,103.9 190.6,104.0 193.5,106.1 192.5,109.6 195.4,107.5 198.3,109.6 197.3,106.1 200.1,104.0 196.6,103.9" fill="#ff6b6b"/>
<polygon points="248.2,132.3 247.0,135.7 243.5,135.8 246.3,138.0 245.3,141.4 248.2,139.3 251.2,141.4 250.1,138.0 253.0,135.8 249.4,135.7" fill="#ff6b6b"/>
<polygon points="344.9,200.1 343.7,203.5 340.1,203.6 343.0,205.8 342.0,209.2 344.9,207.1 347.8,209.2 346.8,205.8 349.7,203.6 346.1,203.5" fill="#ff6b6b"/>
<polygon points="438.2,265.8 437.0,269.2 433.4,269.3 436.3,271.4 435.2,274.9 438.2,272.8 441.1,274.9 440.1,271.4 442.9,269.3 439.3,269.2" fill="#ff6b6b"/>
<polyline fill="none" stroke="#ff922b" stroke-width="2" points="294.7,137.3 319.7,153.9 343.9,171.0 367.8,188.1 391.3,204.9 414.8,222.3 438.1,239.8 461.4,256.4 507.8,286.7 531.1,305.2"/>
<circle cx="294.7" cy="137.3" r="3" fill="#ff922b"/>
<circle cx="319.7" cy="153.9" r="3" fill="#ff922b"/>
<circle cx="343.9" cy="171.0" r="3" fill="#ff922b"/>
<circle cx="367.8" cy="188.1" r="3" fill="#ff922b"/>
<circle cx="391.3" cy="204.9" r="3" fill="#ff922b"/>
<circle cx="414.8" cy="222.3" r="3" fill="#ff922b"/>
<circle cx="438.1" cy="239.8" r="3" fill="#ff922b"/>
<circle cx="461.4" cy="256.4" r="3" fill="#ff922b"/>
<circle cx="507.8" cy="286.7" r="3" fill="#ff922b"/>
<circle cx="531.1" cy="305.2" r="3" fill="#ff922b"/>
<polyline fill="none" stroke="#888888" stroke-width="2" stroke-dasharray="8,5" points="433.2,124.6 468.0,141.9 513.0,164.7 546.7,182.2 580.3,198.9 624.7,221.7 658.2,237.9 691.7,254.4 736.0,275.5 769.5,293.1"/>
<circle cx="433.2" cy="124.6" r="3" fill="#888888"/>
<circle cx="468.0" cy="141.9" r="3" fill="#888888"/>
<circle cx="513.0" cy="164.7" r="3" fill="#888888"/>
<circle cx="546.7" cy="182.2" r="3" fill="#888888"/>
<circle cx="580.3" cy="198.9" r="3" fill="#888888"/>
<circle cx="624.7" cy="221.7" r="3" fill="#888888"/>
<circle cx="658.2" cy="237.9" r="3" fill="#888888"/>
<circle cx="691.7" cy="254.4" r="3" fill="#888888"/>
<circle cx="736.0" cy="275.5" r="3" fill="#888888"/>
<circle cx="769.5" cy="293.1" r="3" fill="#888888"/>
<line x1="886" y1="60" x2="902" y2="60" stroke="#ef4444" stroke-width="2" stroke-dasharray="8,5"/>
<circle cx="894.0" cy="60.0" r="3" fill="#ef4444"/>
<text class="label" x="908" y="64">Theoretical</text>
<line x1="886" y1="78" x2="902" y2="78" stroke="#1a6b3c" stroke-width="2"/>
<polygon points="894.0,74.0 898.0,78.0 894.0,82.0 890.0,78.0" fill="#1a6b3c"/>
<text class="label" x="908" y="82">Grafite</text>
<line x1="886" y1="96" x2="902" y2="96" stroke="#1a3a6b" stroke-width="2"/>
<polygon points="894.0,91.0 892.8,94.4 889.2,94.5 892.1,96.6 891.1,100.0 894.0,98.0 896.9,100.0 895.9,96.6 898.8,94.5 895.2,94.4" fill="#1a3a6b"/>
<text class="label" x="908" y="100">SNARF</text>
<line x1="886" y1="114" x2="902" y2="114" stroke="#111111" stroke-width="2"/>
<rect x="891.0" y="111.0" width="6" height="6" fill="#111111"/>
<text class="label" x="908" y="118">SuRF</text>
<line x1="886" y1="132" x2="902" y2="132" stroke="#111111" stroke-width="2"/>
<polygon points="894.0,128.0 898.0,135.0 890.0,135.0" fill="#111111"/>
<text class="label" x="908" y="136">SuRFHash(8)</text>
<line x1="886" y1="150" x2="902" y2="150" stroke="#111111" stroke-width="2"/>
<polygon points="894.0,146.0 898.0,150.0 894.0,154.0 890.0,150.0" fill="#111111"/>
<text class="label" x="908" y="154">SuRFReal(8)</text>
<line x1="886" y1="168" x2="902" y2="168" stroke="#2a7fff" stroke-width="2"/>
<rect x="891.0" y="165.0" width="6" height="6" fill="#2a7fff"/>
<text class="label" x="908" y="172">Adaptive (t=0)</text>
<line x1="886" y1="186" x2="902" y2="186" stroke="#9b59b6" stroke-width="2"/>
<polygon points="894.0,182.0 898.0,189.0 890.0,189.0" fill="#9b59b6"/>
<text class="label" x="908" y="190">Truncation</text>
<line x1="886" y1="204" x2="902" y2="204" stroke="#4dd88a" stroke-width="2"/>
<polygon points="894.0,200.0 898.0,204.0 894.0,208.0 890.0,204.0" fill="#4dd88a"/>
<text class="label" x="908" y="208">SODA</text>
<line x1="886" y1="222" x2="902" y2="222" stroke="#ff6b6b" stroke-width="2"/>
<polygon points="894.0,217.0 892.8,220.4 889.2,220.5 892.1,222.6 891.1,226.0 894.0,224.0 896.9,226.0 895.9,222.6 898.8,220.5 895.2,220.4" fill="#ff6b6b"/>
<text class="label" x="908" y="226">Hybrid</text>
<line x1="886" y1="240" x2="902" y2="240" stroke="#ff922b" stroke-width="2"/>
<circle cx="894.0" cy="240.0" r="3" fill="#ff922b"/>
<text class="label" x="908" y="244">CDF-ARE</text>
<line x1="886" y1="258" x2="902" y2="258" stroke="#888888" stroke-width="2" stroke-dasharray="8,5"/>
<circle cx="894.0" cy="258.0" r="3" fill="#888888"/>
<text class="label" x="908" y="262">BloomARE</text>
<text x="480" y="590" text-anchor="middle">Bits per Key (BPK)</text>
<text transform="translate(16,295) rotate(-90)" text-anchor="middle">False Positive Rate (FPR)</text>
</svg>
