<svg xmlns="http://www.w3.org/2000/svg" width="1020" height="600" viewBox="0 0 1020 600">
<style>text{font-family:Menlo,Monaco,monospace;font-size:12px;fill:#222} .axis{stroke:#333;stroke-width:1} .grid{stroke:#eee;stroke-width:0.5} .label{font-size:11px;fill:#444}</style>
<text x="510" y="28" text-anchor="middle" style="font-size:14px;font-weight:bold">FPR vs BPK — uniform (60-bit keys, n=1048576, L=16)</text>
<line class="axis" x1="90.0" y1="550.0" x2="870.0" y2="550.0"/>
<line class="axis" x1="90.0" y1="40.0" x2="90.0" y2="550.0"/>
<line class="grid" x1="90.0" y1="524.5" x2="870.0" y2="524.5"/>
<text class="label" x="82.0" y="528.5" text-anchor="end">10^-9</text>
<line class="grid" x1="90.0" y1="473.5" x2="870.0" y2="473.5"/>
<text class="label" x="82.0" y="477.5" text-anchor="end">10^-8</text>
<line class="grid" x1="90.0" y1="422.5" x2="870.0" y2="422.5"/>
<text class="label" x="82.0" y="426.5" text-anchor="end">10^-7</text>
<line class="grid" x1="90.0" y1="371.5" x2="870.0" y2="371.5"/>
<text class="label" x="82.0" y="375.5" text-anchor="end">10^-6</text>
<line class="grid" x1="90.0" y1="320.5" x2="870.0" y2="320.5"/>
<text class="label" x="82.0" y="324.5" text-anchor="end">10^-5</text>
<line class="grid" x1="90.0" y1="269.5" x2="870.0" y2="269.5"/>
<text class="label" x="82.0" y="273.5" text-anchor="end">10^-4</text>
<line class="grid" x1="90.0" y1="218.5" x2="870.0" y2="218.5"/>
<text class="label" x="82.0" y="222.5" text-anchor="end">10^-3</text>
<line class="grid" x1="90.0" y1="167.5" x2="870.0" y2="167.5"/>
<text class="label" x="82.0" y="171.5" text-anchor="end">10^-2</text>
<line class="grid" x1="90.0" y1="116.5" x2="870.0" y2="116.5"/>
<text class="label" x="82.0" y="120.5" text-anchor="end">10^-1</text>
<line class="grid" x1="90.0" y1="65.5" x2="870.0" y2="65.5"/>
<text class="label" x="82.0" y="69.5" text-anchor="end">1</text>
<line class="grid" x1="90.0" y1="40.0" x2="90.0" y2="550.0"/>
<text class="label" x="90.0" y="566.0" text-anchor="middle">0</text>
<line class="grid" x1="206.1" y1="40.0" x2="206.1" y2="550.0"/>
<text class="label" x="206.1" y="566.0" text-anchor="middle">5</text>
<line class="grid" x1="322.1" y1="40.0" x2="322.1" y2="550.0"/>
<text class="label" x="322.1" y="566.0" text-anchor="middle">10</text>
<line class="grid" x1="438.2" y1="40.0" x2="438.2" y2="550.0"/>
<text class="label" x="438.2" y="566.0" text-anchor="middle">15</text>
<line class="grid" x1="554.3" y1="40.0" x2="554.3" y2="550.0"/>
<text class="label" x="554.3" y="566.0" text-anchor="middle">20</text>
<line class="grid" x1="670.4" y1="40.0" x2="670.4" y2="550.0"/>
<text class="label" x="670.4" y="566.0" text-anchor="middle">25</text>
<line class="grid" x1="786.4" y1="40.0" x2="786.4" y2="550.0"/>
<text class="label" x="786.4" y="566.0" text-anchor="middle">30</text>
<polyline fill="none" stroke="#ef4444" stroke-width="2" stroke-dasharray="8,5" points="182.9,65.5 206.1,80.9 229.3,96.2 252.5,111.6 275.7,126.9 298.9,142.3 322.1,157.6 345.4,173.0 368.6,188.3 391.8,203.7 415.0,219.0 438.2,234.4 461.4,249.7 484.6,265.1 507.9,280.4 531.1,295.8 554.3,311.1 600.7,341.8 647.1,372.6 740.0,434.0 832.9,495.4"/>
<circle cx="182.9" cy="65.5" r="3" fill="#ef4444"/>
<circle cx="206.1" cy="80.9" r="3" fill="#ef4444"/>
<circle cx="229.3" cy="96.2" r="3" fill="#ef4444"/>
<circle cx="252.5" cy="111.6" r="3" fill="#ef4444"/>
<circle cx="275.7" cy="126.9" r="3" fill="#ef4444"/>
<circle cx="298.9" cy="142.3" r="3" fill="#ef4444"/>
<circle cx="322.1" cy="157.6" r="3" fill="#ef4444"/>
<circle cx="345.4" cy="173.0" r="3" fill="#ef4444"/>
<circle cx="368.6" cy="188.3" r="3" fill="#ef4444"/>
<circle cx="391.8" cy="203.7" r="3" fill="#ef4444"/>
<circle cx="415.0" cy="219.0" r="3" fill="#ef4444"/>
<circle cx="438.2" cy="234.4" r="3" fill="#ef4444"/>
<circle cx="461.4" cy="249.7" r="3" fill="#ef4444"/>
<circle cx="484.6" cy="265.1" r="3" fill="#ef4444"/>
<circle cx="507.9" cy="280.4" r="3" fill="#ef4444"/>
<circle cx="531.1" cy="295.8" r="3" fill="#ef4444"/>
<circle cx="554.3" cy="311.1" r="3" fill="#ef4444"/>
<circle cx="600.7" cy="341.8" r="3" fill="#ef4444"/>
<circle cx="647.1" cy="372.6" r="3" fill="#ef4444"/>
<circle cx="740.0" cy="434.0" r="3" fill="#ef4444"/>
<circle cx="832.9" cy="495.4" r="3" fill="#ef4444"/>
<polyline fill="none" stroke="#1a6b3c" stroke-width="2" points="188.6,65.9 240.1,75.7 289.0,98.9 336.3,127.5 383.0,157.9 429.5,188.0 476.0,219.8 522.4,248.5 568.9,280.0"/>
<polygon points="188.6,61.9 192.6,65.9 188.6,69.9 184.6,65.9" fill="#1a6b3c"/>
<polygon points="240.1,71.7 244.1,75.7 240.1,79.7 236.1,75.7" fill="#1a6b3c"/>
<polygon points="289.0,94.9 293.0,98.9 289.0,102.9 285.0,98.9" fill="#1a6b3c"/>
<polygon points="336.3,123.5 340.3,127.5 336.3,131.5 332.3,127.5" fill="#1a6b3c"/>
<polygon points="383.0,153.9 387.0,157.9 383.0,161.9 379.0,157.9" fill="#1a6b3c"/>
<polygon points="429.5,184.0 433.5,188.0 429.5,192.0 425.5,188.0" fill="#1a6b3c"/>
<polygon points="476.0,215.8 480.0,219.8 476.0,223.8 472.0,219.8" fill="#1a6b3c"/>
<polygon points="522.4,244.5 526.4,248.5 522.4,252.5 518.4,248.5" fill="#1a6b3c"/>
<polygon points="568.9,276.0 572.9,280.0 568.9,284.0 564.9,280.0" fill="#1a6b3c"/>
<polyline fill="none" stroke="#1a3a6b" stroke-width="2" points="168.2,86.0 214.4,112.8 261.1,142.4 307.7,173.0 353.9,204.1 400.1,235.0 446.8,265.5 493.5,298.7 539.7,341.8"/>
<polygon points="168.2,81.0 167.0,84.4 163.5,84.5 166.3,86.6 165.3,90.1 168.2,88.0 171.2,90.1 170.1,86.6 173.0,84.5 169.4,84.4" fill="#1a3a6b"/>
<polygon points="214.4,107.8 213.2,111.2 209.7,111.3 212.5,113.4 211.5,116.8 214.4,114.8 217.4,116.8 216.3,113.4 219.2,111.3 215.6,111.2" fill="#1a3a6b"/>
<polygon points="261.1,137.4 259.9,140.8 256.3,140.9 259.2,143.0 258.2,146.5 261.1,144.4 264.0,146.5 263.0,143.0 265.8,140.9 262.3,140.8" fill="#1a3a6b"/>
<polygon points="307.7,168.0 306.6,171.4 303.0,171.5 305.8,173.7 304.8,177.1 307.7,175.0 310.7,177.1 309.6,173.7 312.5,171.5 308.9,171.4" fill="#1a3a6b"/>
<polygon points="353.9,199.1 352.8,202.4 349.2,202.5 352.0,204.7 351.0,208.1 353.9,206.1 356.9,208.1 355.8,204.7 358.7,202.5 355.1,202.4" fill="#1a3a6b"/>
<polygon points="400.1,230.0 399.0,233.3 395.4,233.4 398.2,235.6 397.2,239.0 400.1,237.0 403.1,239.0 402.0,235.6 404.9,233.4 401.3,233.3" fill="#1a3a6b"/>
<polygon points="446.8,260.5 445.6,263.9 442.0,264.0 444.9,266.2 443.9,269.6 446.8,267.5 449.7,269.6 448.7,266.2 451.6,264.0 448.0,263.9" fill="#1a3a6b"/>
<polygon points="493.5,293.7 492.3,297.1 488.7,297.2 491.6,299.4 490.5,302.8 493.5,300.7 496.4,302.8 495.4,299.4 498.2,297.2 494.6,297.1" fill="#1a3a6b"/>
<polygon points="539.7,336.8 538.5,340.2 534.9,340.3 537.7,342.5 536.7,345.9 539.7,343.8 542.6,345.9 541.6,342.5 544.4,340.3 540.8,340.2" fill="#1a3a6b"/>
<polyline fill="none" stroke="#111111" stroke-width="2" points="290.9,87.5"/>
<rect x="287.9" y="84.5" width="6" height="6" fill="#111111"/>
<polyline fill="none" stroke="#111111" stroke-width="2" points="476.6,87.5"/>
<polygon points="476.6,83.5 480.6,90.5 472.6,90.5" fill="#111111"/>
<polyline fill="none" stroke="#111111" stroke-width="2" points="476.6,210.8"/>
<polygon points="476.6,206.8 480.6,210.8 476.6,214.8 472.6,210.8" fill="#111111"/>
<polyline fill="none" stroke="#2a7fff" stroke-width="2" points="90.0,65.5 90.0,65.5 90.0,65.5 90.0,65.5 90.0,65.5 90.0,65.5 90.1,65.5 90.1,65.5 90.3,65.5 90.5,65.5 91.1,65.5 92.2,65.5 94.4,65.5 98.7,65.5 107.2,65.5 121.7,65.5 142.6,65.5 195.4,65.9 248.2,75.6 344.9,127.6 438.2,188.1"/>
<rect x="87.0" y="62.5" width="6" height="6" fill="#2a7fff"/>
<rect x="87.0" y="62.5" width="6" height="6" fill="#2a7fff"/>
<rect x="87.0" y="62.5" width="6" height="6" fill="#2a7fff"/>
<rect x="87.0" y="62.5" width="6" height="6" fill="#2a7fff"/>
<rect x="87.0" y="62.5" width="6" height="6" fill="#2a7fff"/>
<rect x="87.0" y="62.5" width="6" height="6" fill="#2a7fff"/>
<rect x="87.1" y="62.5" width="6" height="6" fill="#2a7fff"/>
<rect x="87.1" y="62.5" width="6" height="6" fill="#2a7fff"/>
<rect x="87.3" y="62.5" width="6" height="6" fill="#2a7fff"/>
<rect x="87.5" y="62.5" width="6" height="6" fill="#2a7fff"/>
<rect x="88.1" y="62.5" width="6" height="6" fill="#2a7fff"/>
<rect x="89.2" y="62.5" width="6" height="6" fill="#2a7fff"/>
<rect x="91.4" y="62.5" width="6" height="6" fill="#2a7fff"/>
<rect x="95.7" y="62.5" width="6" height="6" fill="#2a7fff"/>
<rect x="104.2" y="62.5" width="6" height="6" fill="#2a7fff"/>
<rect x="118.7" y="62.5" width="6" height="6" fill="#2a7fff"/>
<rect x="139.6" y="62.5" width="6" height="6" fill="#2a7fff"/>
<rect x="192.4" y="62.9" width="6" height="6" fill="#2a7fff"/>
<rect x="245.2" y="72.6" width="6" height="6" fill="#2a7fff"/>
<rect x="341.9" y="124.6" width="6" height="6" fill="#2a7fff"/>
<rect x="435.2" y="185.1" width="6" height="6" fill="#2a7fff"/>
<polyline fill="none" stroke="#9b59b6" stroke-width="2" points="90.0,65.5 90.0,65.5 90.0,65.5 90.0,65.5 90.0,65.5 90.0,65.5 90.1,65.5 90.1,65.5 90.3,65.5 90.5,65.5 91.1,65.5 92.2,65.5 94.4,65.5 98.7,65.5 107.2,65.9 121.7,68.7 142.6,75.7 195.4,99.0 248.2,127.6 344.9,188.6 438.2,247.7"/>
<polygon points="90.0,61.5 94.0,68.5 86.0,68.5" fill="#9b59b6"/>
<polygon points="90.0,61.5 94.0,68.5 86.0,68.5" fill="#9b59b6"/>
<polygon points="90.0,61.5 94.0,68.5 86.0,68.5" fill="#9b59b6"/>
<polygon points="90.0,61.5 94.0,68.5 86.0,68.5" fill="#9b59b6"/>
<polygon points="90.0,61.5 94.0,68.5 86.0,68.5" fill="#9b59b6"/>
<polygon points="90.0,61.5 94.0,68.5 86.0,68.5" fill="#9b59b6"/>
<polygon points="90.1,61.5 94.1,68.5 86.1,68.5" fill="#9b59b6"/>
<polygon points="90.1,61.5 94.1,68.5 86.1,68.5" fill="#9b59b6"/>
<polygon points="90.3,61.5 94.3,68.5 86.3,68.5" fill="#9b59b6"/>
<polygon points="90.5,61.5 94.5,68.5 86.5,68.5" fill="#9b59b6"/>
<polygon points="91.1,61.5 95.1,68.5 87.1,68.5" fill="#9b59b6"/>
<polygon points="92.2,61.5 96.2,68.5 88.2,68.5" fill="#9b59b6"/>
<polygon points="94.4,61.5 98.4,68.5 90.4,68.5" fill="#9b59b6"/>
<polygon points="98.7,61.5 102.7,68.5 94.7,68.5" fill="#9b59b6"/>
<polygon points="107.2,61.9 111.2,68.9 103.2,68.9" fill="#9b59b6"/>
<polygon points="121.7,64.7 125.7,71.7 117.7,71.7" fill="#9b59b6"/>
<polygon points="142.6,71.7 146.6,78.7 138.6,78.7" fill="#9b59b6"/>
<polygon points="195.4,95.0 199.4,102.0 191.4,102.0" fill="#9b59b6"/>
<polygon points="248.2,123.6 252.2,130.6 244.2,130.6" fill="#9b59b6"/>
<polygon points="344.9,184.6 348.9,191.6 340.9,191.6" fill="#9b59b6"/>
<polygon points="438.2,243.7 442.2,250.7 434.2,250.7" fill="#9b59b6"/>
<polyline fill="none" stroke="#4dd88a" stroke-width="2" points="90.0,65.5 90.0,65.5 90.0,65.5 90.0,65.5 90.0,65.5 90.0,65.5 90.1,65.5 90.1,65.5 90.3,65.5 90.5,65.5 91.1,65.5 92.2,65.5 94.4,65.5 98.7,65.5 107.2,65.5 121.7,65.5 142.6,65.5 195.4,65.9 248.2,75.6 344.9,127.6 438.2,188.1"/>
<polygon points="90.0,61.5 94.0,65.5 90.0,69.5 86.0,65.5" fill="#4dd88a"/>
<polygon points="90.0,61.5 94.0,65.5 90.0,69.5 86.0,65.5" fill="#4dd88a"/>
<polygon points="90.0,61.5 94.0,65.5 90.0,69.5 86.0,65.5" fill="#4dd88a"/>
<polygon points="90.0,61.5 94.0,65.5 90.0,69.5 86.0,65.5" fill="#4dd88a"/>
<polygon points="90.0,61.5 94.0,65.5 90.0,69.5 86.0,65.5" fill="#4dd88a"/>
<polygon points="90.0,61.5 94.0,65.5 90.0,69.5 86.0,65.5" fill="#4dd88a"/>
<polygon points="90.1,61.5 94.1,65.5 90.1,69.5 86.1,65.5" fill="#4dd88a"/>
<polygon points="90.1,61.5 94.1,65.5 90.1,69.5 86.1,65.5" fill="#4dd88a"/>
<polygon points="90.3,61.5 94.3,65.5 90.3,69.5 86.3,65.5" fill="#4dd88a"/>
<polygon points="90.5,61.5 94.5,65.5 90.5,69.5 86.5,65.5" fill="#4dd88a"/>
<polygon points="91.1,61.5 95.1,65.5 91.1,69.5 87.1,65.5" fill="#4dd88a"/>
<polygon points="92.2,61.5 96.2,65.5 92.2,69.5 88.2,65.5" fill="#4dd88a"/>
<polygon points="94.4,61.5 98.4,65.5 94.4,69.5 90.4,65.5" fill="#4dd88a"/>
<polygon points="98.7,61.5 102.7,65.5 98.7,69.5 94.7,65.5" fill="#4dd88a"/>
<polygon points="107.2,61.5 111.2,65.5 107.2,69.5 103.2,65.5" fill="#4dd88a"/>
<polygon points="121.7,61.5 125.7,65.5 121.7,69.5 117.7,65.5" fill="#4dd88a"/>
<polygon points="142.6,61.5 146.6,65.5 142.6,69.5 138.6,65.5" fill="#4dd88a"/>
<polygon points="195.4,61.9 199.4,65.9 195.4,69.9 191.4,65.9" fill="#4dd88a"/>
<polygon points="248.2,71.6 252.2,75.6 248.2,79.6 244.2,75.6" fill="#4dd88a"/>
<polygon points="344.9,123.6 348.9,127.6 344.9,131.6 340.9,127.6" fill="#4dd88a"/>
<polygon points="438.2,184.1 442.2,188.1 438.2,192.1 434.2,188.1" fill="#4dd88a"/>
<polyline fill="none" stroke="#ff6b6b" stroke-width="2" points="90.0,65.5 90.0,65.5 90.0,65.5 90.0,65.5 90.0,65.5 90.0,65.5 90.1,65.5 90.1,65.5 90.3,65.5 90.5,65.5 91.1,65.5 92.2,65.5 94.4,65.5 98.7,65.5 107.2,65.9 121.7,68.7 142.6,75.7 195.4,99.0 248.2,127.6 344.9,188.6 438.2,247.7"/>
<polygon points="90.0,60.5 88.8,63.9 85.2,64.0 88.1,66.1 87.1,69.5 90.0,67.5 92.9,69.5 91.9,66.1 94.8,64.0 91.2,63.9" fill="#ff6b6b"/>
<polygon points="90.0,60.5 88.8,63.9 85.2,64.0 88.1,66.1 87.1,69.5 90.0,67.5 92.9,69.5 91.9,66.1 94.8,64.0 91.2,63.9" fill="#ff6b6b"/>
<polygon points="90.0,60.5 88.8,63.9 85.2,64.0 88.1,66.1 87.1,69.5 90.0,67.5 92.9,69.5 91.9,66.1 94.8,64.0 91.2,63.9" fill="#ff6b6b"/>
<polygon points="90.0,60.5 88.8,63.9 85.3,64.0 88.1,66.1 87.1,69.5 90.0,67.5 92.9,69.5 91.9,66.1 94.8,64.0 91.2,63.9" fill="#ff6b6b"/>
<polygon points="90.0,60.5 88.8,63.9 85.3,64.0 88.1,66.1 87.1,69.5 90.0,67.5 93.0,69.5 91.9,66.1 94.8,64.0 91.2,63.9" fill="#ff6b6b"/>
<polygon points="90.0,60.5 88.9,63.9 85.3,64.0 88.1,66.1 87.1,69.5 90.0,67.5 93.0,69.5 91.9,66.1 94.8,64.0 91.2,63.9" fill="#ff6b6b"/>
<polygon points="90.1,60.5 88.9,63.9 85.3,64.0 88.2,66.1 87.1,69.5 90.1,67.5 93.0,69.5 92.0,66.1 94.8,64.0 91.2,63.9" fill="#ff6b6b"/>
<polygon points="90.1,60.5 89.0,63.9 85.4,64.0 88.2,66.1 87.2,69.5 90.1,67.5 93.1,69.5 92.0,66.1 94.9,64.0 91.3,63.9" fill="#ff6b6b"/>
<polygon points="90.3,60.5 89.1,63.9 85.5,64.0 88.4,66.1 87.3,69.5 90.3,67.5 93.2,69.5 92.2,66.1 95.0,64.0 91.4,63.9" fill="#ff6b6b"/>
<polygon points="90.5,60.5 89.4,63.9 85.8,64.0 88.6,66.1 87.6,69.5 90.5,67.5 93.5,69.5 92.4,66.1 95.3,64.0 91.7,63.9" fill="#ff6b6b"/>
<polygon points="91.1,60.5 89.9,63.9 86.3,64.0 89.2,66.1 88.1,69.5 91.1,67.5 94.0,69.5 93.0,66.1 95.8,64.0 92.3,63.9" fill="#ff6b6b"/>
<polygon points="92.2,60.5 91.0,63.9 87.4,64.0 90.3,66.1 89.2,69.5 92.2,67.5 95.1,69.5 94.1,66.1 96.9,64.0 93.4,63.9" fill="#ff6b6b"/>
<polygon points="94.4,60.5 93.2,63.9 89.6,64.0 92.5,66.1 91.4,69.5 94.4,67.5 97.3,69.5 96.3,66.1 99.1,64.0 95.5,63.9" fill="#ff6b6b"/>
<polygon points="98.7,60.5 97.5,63.9 93.9,64.0 96.8,66.1 95.8,69.6 98.7,67.5 101.6,69.6 100.6,66.1 103.5,64.0 99.9,63.9" fill="#ff6b6b"/>
<polygon points="107.2,60.9 106.0,64.3 102.4,64.4 105.3,66.5 104.3,70.0 107.2,67.9 110.1,70.0 109.1,66.5 112.0,64.4 108.4,64.3" fill="#ff6b6b"/>
<polygon points="121.7,63.7 120.5,67.1 116.9,67.2 119.8,69.4 118.7,72.8 121.7,70.7 124.6,72.8 123.6,69.4 126.4,67.2 122.9,67.1" fill="#ff6b6b"/>
<polygon points="142.6,70.7 141.4,74.0 137.8,74.1 140.7,76.3 139.6,79.7 142.6,77.7 145.5,79.7 144.5,76.3 147.3,74.1 143.8,74.0" fill="#ff6b6b"/>
<polygon points="195.4,94.0 194.2,97.3 190.6,97.4 193.5,99.6 192.5,103.0 195.4,101.0 198.3,103.0 197.3,99.6 200.1,97.4 196.6,97.3" fill="#ff6b6b"/>
<polygon points="248.2,122.6 247.0,126.0 243.5,126.1 246.3,128.2 245.3,131.7 248.2,129.6 251.2,131.7 250.1,128.2 253.0,126.1 249.4,126.0" fill="#ff6b6b"/>
<polygon points="344.9,183.6 343.7,187.0 340.1,187.1 343.0,189.3 342.0,192.7 344.9,190.6 347.8,192.7 346.8,189.3 349.7,187.1 346.1,187.0" fill="#ff6b6b"/>
<polygon points="438.2,242.7 437.0,246.1 433.4,246.2 436.3,248.4 435.2,251.8 438.2,249.7 441.1,251.8 440.1,248.4 442.9,246.2 439.3,246.1" fill="#ff6b6b"/>
<polyline fill="none" stroke="#ff922b" stroke-width="2" points="294.7,127.6 319.7,142.5 343.9,157.9 367.8,173.3 391.3,188.4 414.8,204.1 438.1,219.8 461.4,234.8 507.8,262.1 531.1,278.7"/>
<circle cx="294.7" cy="127.6" r="3" fill="#ff922b"/>
<circle cx="319.7" cy="142.5" r="3" fill="#ff922b"/>
<circle cx="343.9" cy="157.9" r="3" fill="#ff922b"/>
<circle cx="367.8" cy="173.3" r="3" fill="#ff922b"/>
<circle cx="391.3" cy="188.4" r="3" fill="#ff922b"/>
<circle cx="414.8" cy="204.1" r="3" fill="#ff922b"/>
<circle cx="438.1" cy="219.8" r="3" fill="#ff922b"/>
<circle cx="461.4" cy="234.8" r="3" fill="#ff922b"/>
<circle cx="507.8" cy="262.1" r="3" fill="#ff922b"/>
<circle cx="531.1" cy="278.7" r="3" fill="#ff922b"/>
<polyline fill="none" stroke="#888888" stroke-width="2" stroke-dasharray="8,5" points="332.9,116.2 367.6,131.6 412.5,152.2 446.2,167.5 479.9,183.1 524.2,203.2 557.7,217.4 591.2,234.3 635.5,254.2 669.0,268.8"/>
<circle cx="332.9" cy="116.2" r="3" fill="#888888"/>
<circle cx="367.6" cy="131.6" r="3" fill="#888888"/>
<circle cx="412.5" cy="152.2" r="3" fill="#888888"/>
<circle cx="446.2" cy="167.5" r="3" fill="#888888"/>
<circle cx="479.9" cy="183.1" r="3" fill="#888888"/>
<circle cx="524.2" cy="203.2" r="3" fill="#888888"/>
<circle cx="557.7" cy="217.4" r="3" fill="#888888"/>
<circle cx="591.2" cy="234.3" r="3" fill="#888888"/>
<circle cx="635.5" cy="254.2" r="3" fill="#888888"/>
<circle cx="669.0" cy="268.8" r="3" fill="#888888"/>
<line x1="886" y1="60" x2="902" y2="60" stroke="#ef4444" stroke-width="2" stroke-dasharray="8,5"/>
<circle cx="894.0" cy="60.0" r="3" fill="#ef4444"/>
<text class="label" x="908" y="64">Theoretical</text>
<line x1="886" y1="78" x2="902" y2="78" stroke="#1a6b3c" stroke-width="2"/>
<polygon points="894.0,74.0 898.0,78.0 894.0,82.0 890.0,78.0" fill="#1a6b3c"/>
<text class="label" x="908" y="82">Grafite</text>
<line x1="886" y1="96" x2="902" y2="96" stroke="#1a3a6b" stroke-width="2"/>
<polygon points="894.0,91.0 892.8,94.4 889.2,94.5 892.1,96.6 891.1,100.0 894.0,98.0 896.9,100.0 895.9,96.6 898.8,94.5 895.2,94.4" fill="#1a3a6b"/>
<text class="label" x="908" y="100">SNARF</text>
<line x1="886" y1="114" x2="902" y2="114" stroke="#111111" stroke-width="2"/>
<rect x="891.0" y="111.0" width="6" height="6" fill="#111111"/>
<text class="label" x="908" y="118">SuRF</text>
<line x1="886" y1="132" x2="902" y2="132" stroke="#111111" stroke-width="2"/>
<polygon points="894.0,128.0 898.0,135.0 890.0,135.0" fill="#111111"/>
<text class="label" x="908" y="136">SuRFHash(8)</text>
<line x1="886" y1="150" x2="902" y2="150" stroke="#111111" stroke-width="2"/>
<polygon points="894.0,146.0 898.0,150.0 894.0,154.0 890.0,150.0" fill="#111111"/>
<text class="label" x="908" y="154">SuRFReal(8)</text>
<line x1="886" y1="168" x2="902" y2="168" stroke="#2a7fff" stroke-width="2"/>
<rect x="891.0" y="165.0" width="6" height="6" fill="#2a7fff"/>
<text class="label" x="908" y="172">Adaptive (t=0)</text>
<line x1="886" y1="186" x2="902" y2="186" stroke="#9b59b6" stroke-width="2"/>
<polygon points="894.0,182.0 898.0,189.0 890.0,189.0" fill="#9b59b6"/>
<text class="label" x="908" y="190">Truncation</text>
<line x1="886" y1="204" x2="902" y2="204" stroke="#4dd88a" stroke-width="2"/>
<polygon points="894.0,200.0 898.0,204.0 894.0,208.0 890.0,204.0" fill="#4dd88a"/>
<text class="label" x="908" y="208">SODA</text>
<line x1="886" y1="222" x2="902" y2="222" stroke="#ff6b6b" stroke-width="2"/>
<polygon points="894.0,217.0 892.8,220.4 889.2,220.5 892.1,222.6 891.1,226.0 894.0,224.0 896.9,226.0 895.9,222.6 898.8,220.5 895.2,220.4" fill="#ff6b6b"/>
<text class="label" x="908" y="226">Hybrid</text>
<line x1="886" y1="240" x2="902" y2="240" stroke="#ff922b" stroke-width="2"/>
<circle cx="894.0" cy="240.0" r="3" fill="#ff922b"/>
<text class="label" x="908" y="244">CDF-ARE</text>
<line x1="886" y1="258" x2="902" y2="258" stroke="#888888" stroke-width="2" stroke-dasharray="8,5"/>
<circle cx="894.0" cy="258.0" r="3" fill="#888888"/>
<text class="label" x="908" y="262">BloomARE</text>
<text x="480" y="590" text-anchor="middle">Bits per Key (BPK)</text>
<text transform="translate(16,295) rotate(-90)" text-anchor="middle">False Positive Rate (FPR)</text>
</svg>
