<svg xmlns="http://www.w3.org/2000/svg" width="1020" height="600" viewBox="0 0 1020 600">
<style>text{font-family:Menlo,Monaco,monospace;font-size:12px;fill:#222} .axis{stroke:#333;stroke-width:1} .grid{stroke:#eee;stroke-width:0.5} .label{font-size:11px;fill:#444}</style>
<text x="510" y="28" text-anchor="middle" style="font-size:14px;font-weight:bold">FPR vs BPK — sosd_fb (60-bit keys, n=65536, L=1)</text>
<line class="axis" x1="90.0" y1="550.0" x2="870.0" y2="550.0"/>
<line class="axis" x1="90.0" y1="40.0" x2="90.0" y2="550.0"/>
<line class="grid" x1="90.0" y1="521.7" x2="870.0" y2="521.7"/>
<text class="label" x="82.0" y="525.7" text-anchor="end">10^-8</text>
<line class="grid" x1="90.0" y1="465.0" x2="870.0" y2="465.0"/>
<text class="label" x="82.0" y="469.0" text-anchor="end">10^-7</text>
<line class="grid" x1="90.0" y1="408.3" x2="870.0" y2="408.3"/>
<text class="label" x="82.0" y="412.3" text-anchor="end">10^-6</text>
<line class="grid" x1="90.0" y1="351.7" x2="870.0" y2="351.7"/>
<text class="label" x="82.0" y="355.7" text-anchor="end">10^-5</text>
<line class="grid" x1="90.0" y1="295.0" x2="870.0" y2="295.0"/>
<text class="label" x="82.0" y="299.0" text-anchor="end">10^-4</text>
<line class="grid" x1="90.0" y1="238.3" x2="870.0" y2="238.3"/>
<text class="label" x="82.0" y="242.3" text-anchor="end">10^-3</text>
<line class="grid" x1="90.0" y1="181.7" x2="870.0" y2="181.7"/>
<text class="label" x="82.0" y="185.7" text-anchor="end">10^-2</text>
<line class="grid" x1="90.0" y1="125.0" x2="870.0" y2="125.0"/>
<text class="label" x="82.0" y="129.0" text-anchor="end">10^-1</text>
<line class="grid" x1="90.0" y1="68.3" x2="870.0" y2="68.3"/>
<text class="label" x="82.0" y="72.3" text-anchor="end">1</text>
<line class="grid" x1="90.0" y1="40.0" x2="90.0" y2="550.0"/>
<text class="label" x="90.0" y="566.0" text-anchor="middle">0</text>
<line class="grid" x1="206.1" y1="40.0" x2="206.1" y2="550.0"/>
<text class="label" x="206.1" y="566.0" text-anchor="middle">5</text>
<line class="grid" x1="322.1" y1="40.0" x2="322.1" y2="550.0"/>
<text class="label" x="322.1" y="566.0" text-anchor="middle">10</text>
<line class="grid" x1="438.2" y1="40.0" x2="438.2" y2="550.0"/>
<text class="label" x="438.2" y="566.0" text-anchor="middle">15</text>
<line class="grid" x1="554.3" y1="40.0" x2="554.3" y2="550.0"/>
<text class="label" x="554.3" y="566.0" text-anchor="middle">20</text>
<line class="grid" x1="670.4" y1="40.0" x2="670.4" y2="550.0"/>
<text class="label" x="670.4" y="566.0" text-anchor="middle">25</text>
<line class="grid" x1="786.4" y1="40.0" x2="786.4" y2="550.0"/>
<text class="label" x="786.4" y="566.0" text-anchor="middle">30</text>
<polyline fill="none" stroke="#ef4444" stroke-width="2" stroke-dasharray="8,5" points="182.9,136.6 206.1,153.6 229.3,170.7 252.5,187.7 275.7,204.8 298.9,221.9 322.1,238.9 345.4,256.0 368.6,273.0 391.8,290.1 415.0,307.2 438.2,324.2 461.4,341.3 484.6,358.3 507.9,375.4 531.1,392.4 554.3,409.5 600.7,443.6 647.1,477.7 740.0,546.0 832.9,614.2"/>
<circle cx="182.9" cy="136.6" r="3" fill="#ef4444"/>
<circle cx="206.1" cy="153.6" r="3" fill="#ef4444"/>
<circle cx="229.3" cy="170.7" r="3" fill="#ef4444"/>
<circle cx="252.5" cy="187.7" r="3" fill="#ef4444"/>
<circle cx="275.7" cy="204.8" r="3" fill="#ef4444"/>
<circle cx="298.9" cy="221.9" r="3" fill="#ef4444"/>
<circle cx="322.1" cy="238.9" r="3" fill="#ef4444"/>
<circle cx="345.4" cy="256.0" r="3" fill="#ef4444"/>
<circle cx="368.6" cy="273.0" r="3" fill="#ef4444"/>
<circle cx="391.8" cy="290.1" r="3" fill="#ef4444"/>
<circle cx="415.0" cy="307.2" r="3" fill="#ef4444"/>
<circle cx="438.2" cy="324.2" r="3" fill="#ef4444"/>
<circle cx="461.4" cy="341.3" r="3" fill="#ef4444"/>
<circle cx="484.6" cy="358.3" r="3" fill="#ef4444"/>
<circle cx="507.9" cy="375.4" r="3" fill="#ef4444"/>
<circle cx="531.1" cy="392.4" r="3" fill="#ef4444"/>
<circle cx="554.3" cy="409.5" r="3" fill="#ef4444"/>
<circle cx="600.7" cy="443.6" r="3" fill="#ef4444"/>
<circle cx="647.1" cy="477.7" r="3" fill="#ef4444"/>
<circle cx="740.0" cy="546.0" r="3" fill="#ef4444"/>
<circle cx="832.9" cy="614.2" r="3" fill="#ef4444"/>
<polyline fill="none" stroke="#1a6b3c" stroke-width="2" points="189.8,105.6 241.7,138.3 290.3,175.2 337.6,225.8"/>
<polygon points="189.8,101.6 193.8,105.6 189.8,109.6 185.8,105.6" fill="#1a6b3c"/>
<polygon points="241.7,134.3 245.7,138.3 241.7,142.3 237.7,138.3" fill="#1a6b3c"/>
<polygon points="290.3,171.2 294.3,175.2 290.3,179.2 286.3,175.2" fill="#1a6b3c"/>
<polygon points="337.6,221.8 341.6,225.8 337.6,229.8 333.6,225.8" fill="#1a6b3c"/>
<polyline fill="none" stroke="#1a3a6b" stroke-width="2" points="168.5,105.9 214.6,130.1 261.3,159.3 308.0,195.9 354.2,262.8 400.4,298.2 447.1,331.6 493.7,369.8 539.9,409.4"/>
<polygon points="168.5,100.9 167.3,104.3 163.7,104.4 166.6,106.5 165.5,110.0 168.5,107.9 171.4,110.0 170.4,106.5 173.2,104.4 169.7,104.3" fill="#1a3a6b"/>
<polygon points="214.6,125.1 213.5,128.4 209.9,128.5 212.7,130.7 211.7,134.1 214.6,132.1 217.6,134.1 216.5,130.7 219.4,128.5 215.8,128.4" fill="#1a3a6b"/>
<polygon points="261.3,154.3 260.2,157.7 256.6,157.8 259.4,159.9 258.4,163.3 261.3,161.3 264.3,163.3 263.2,159.9 266.1,157.8 262.5,157.7" fill="#1a3a6b"/>
<polygon points="308.0,190.9 306.8,194.3 303.2,194.3 306.1,196.5 305.0,199.9 308.0,197.9 310.9,199.9 309.9,196.5 312.7,194.3 309.2,194.3" fill="#1a3a6b"/>
<polygon points="354.2,257.8 353.0,261.2 349.4,261.2 352.3,263.4 351.3,266.8 354.2,264.8 357.1,266.8 356.1,263.4 358.9,261.2 355.4,261.2" fill="#1a3a6b"/>
<polygon points="400.4,293.2 399.2,296.6 395.6,296.7 398.5,298.9 397.4,302.3 400.4,300.2 403.3,302.3 402.3,298.9 405.1,296.7 401.5,296.6" fill="#1a3a6b"/>
<polygon points="447.1,326.6 445.9,329.9 442.3,330.0 445.2,332.2 444.1,335.6 447.1,333.6 450.0,335.6 449.0,332.2 451.8,330.0 448.2,329.9" fill="#1a3a6b"/>
<polygon points="493.7,364.8 492.5,368.2 488.9,368.3 491.8,370.4 490.8,373.9 493.7,371.8 496.6,373.9 495.6,370.4 498.4,368.3 494.9,368.2" fill="#1a3a6b"/>
<polygon points="539.9,404.4 538.7,407.8 535.2,407.9 538.0,410.0 537.0,413.5 539.9,411.4 542.8,413.5 541.8,410.0 544.7,407.9 541.1,407.8" fill="#1a3a6b"/>
<polyline fill="none" stroke="#111111" stroke-width="2" points="351.9,115.4"/>
<rect x="348.9" y="112.4" width="6" height="6" fill="#111111"/>
<polyline fill="none" stroke="#111111" stroke-width="2" points="537.7,115.4"/>
<polygon points="537.7,111.4 541.7,118.4 533.7,118.4" fill="#111111"/>
<polyline fill="none" stroke="#111111" stroke-width="2" points="537.7,317.3"/>
<polygon points="537.7,313.3 541.7,317.3 537.7,321.3 533.7,317.3" fill="#111111"/>
<polyline fill="none" stroke="#2a7fff" stroke-width="2" points="90.0,68.3 90.0,68.3 90.1,68.3 90.1,68.3 90.3,68.3 90.5,68.3 91.1,68.3 92.2,68.3 94.4,68.3 98.7,68.3 107.2,68.8 121.7,71.8 142.6,79.6 168.1,91.3 195.6,105.6 222.6,121.5 248.5,138.4 297.7,175.7 345.2,225.9 368.6,521.7 368.6,521.7"/>
<rect x="87.0" y="65.3" width="6" height="6" fill="#2a7fff"/>
<rect x="87.0" y="65.3" width="6" height="6" fill="#2a7fff"/>
<rect x="87.1" y="65.3" width="6" height="6" fill="#2a7fff"/>
<rect x="87.1" y="65.3" width="6" height="6" fill="#2a7fff"/>
<rect x="87.3" y="65.3" width="6" height="6" fill="#2a7fff"/>
<rect x="87.5" y="65.3" width="6" height="6" fill="#2a7fff"/>
<rect x="88.1" y="65.3" width="6" height="6" fill="#2a7fff"/>
<rect x="89.2" y="65.3" width="6" height="6" fill="#2a7fff"/>
<rect x="91.4" y="65.3" width="6" height="6" fill="#2a7fff"/>
<rect x="95.7" y="65.3" width="6" height="6" fill="#2a7fff"/>
<rect x="104.2" y="65.8" width="6" height="6" fill="#2a7fff"/>
<rect x="118.7" y="68.8" width="6" height="6" fill="#2a7fff"/>
<rect x="139.6" y="76.6" width="6" height="6" fill="#2a7fff"/>
<rect x="165.1" y="88.3" width="6" height="6" fill="#2a7fff"/>
<rect x="192.6" y="102.6" width="6" height="6" fill="#2a7fff"/>
<rect x="219.6" y="118.5" width="6" height="6" fill="#2a7fff"/>
<rect x="245.5" y="135.4" width="6" height="6" fill="#2a7fff"/>
<rect x="294.7" y="172.7" width="6" height="6" fill="#2a7fff"/>
<rect x="342.2" y="222.9" width="6" height="6" fill="#2a7fff"/>
<rect x="365.6" y="518.7" width="6" height="6" fill="#2a7fff"/>
<rect x="365.6" y="518.7" width="6" height="6" fill="#2a7fff"/>
<polyline fill="none" stroke="#9b59b6" stroke-width="2" points="90.0,68.3 90.0,68.3 90.1,68.3 90.1,68.3 90.2,68.3 90.4,68.3 90.9,68.7 91.7,69.8 93.2,71.8 95.9,75.1 100.4,80.1 107.2,86.7 117.9,94.7 131.6,104.3 150.2,115.2 173.4,127.2 199.7,140.4 263.6,170.9 335.0,215.5 438.2,521.7 531.1,521.7"/>
<polygon points="90.0,64.3 94.0,71.3 86.0,71.3" fill="#9b59b6"/>
<polygon points="90.0,64.3 94.0,71.3 86.0,71.3" fill="#9b59b6"/>
<polygon points="90.1,64.3 94.1,71.3 86.1,71.3" fill="#9b59b6"/>
<polygon points="90.1,64.3 94.1,71.3 86.1,71.3" fill="#9b59b6"/>
<polygon points="90.2,64.3 94.2,71.3 86.2,71.3" fill="#9b59b6"/>
<polygon points="90.4,64.3 94.4,71.3 86.4,71.3" fill="#9b59b6"/>
<polygon points="90.9,64.7 94.9,71.7 86.9,71.7" fill="#9b59b6"/>
<polygon points="91.7,65.8 95.7,72.8 87.7,72.8" fill="#9b59b6"/>
<polygon points="93.2,67.8 97.2,74.8 89.2,74.8" fill="#9b59b6"/>
<polygon points="95.9,71.1 99.9,78.1 91.9,78.1" fill="#9b59b6"/>
<polygon points="100.4,76.1 104.4,83.1 96.4,83.1" fill="#9b59b6"/>
<polygon points="107.2,82.7 111.2,89.7 103.2,89.7" fill="#9b59b6"/>
<polygon points="117.9,90.7 121.9,97.7 113.9,97.7" fill="#9b59b6"/>
<polygon points="131.6,100.3 135.6,107.3 127.6,107.3" fill="#9b59b6"/>
<polygon points="150.2,111.2 154.2,118.2 146.2,118.2" fill="#9b59b6"/>
<polygon points="173.4,123.2 177.4,130.2 169.4,130.2" fill="#9b59b6"/>
<polygon points="199.7,136.4 203.7,143.4 195.7,143.4" fill="#9b59b6"/>
<polygon points="263.6,166.9 267.6,173.9 259.6,173.9" fill="#9b59b6"/>
<polygon points="335.0,211.5 339.0,218.5 331.0,218.5" fill="#9b59b6"/>
<polygon points="438.2,517.7 442.2,524.7 434.2,524.7" fill="#9b59b6"/>
<polygon points="531.1,517.7 535.1,524.7 527.1,524.7" fill="#9b59b6"/>
<polyline fill="none" stroke="#4dd88a" stroke-width="2" points="90.0,68.3 90.0,68.3 90.1,68.3 90.1,68.3 90.3,68.3 90.5,68.3 91.1,68.3 92.2,68.3 94.4,68.3 98.7,68.3 107.2,68.8 121.7,71.8 142.6,79.6 168.1,91.3 195.6,105.6 222.6,121.5 248.5,138.4 297.7,175.7 345.2,225.9 438.2,521.7 531.1,521.7"/>
<polygon points="90.0,64.3 94.0,68.3 90.0,72.3 86.0,68.3" fill="#4dd88a"/>
<polygon points="90.0,64.3 94.0,68.3 90.0,72.3 86.0,68.3" fill="#4dd88a"/>
<polygon points="90.1,64.3 94.1,68.3 90.1,72.3 86.1,68.3" fill="#4dd88a"/>
<polygon points="90.1,64.3 94.1,68.3 90.1,72.3 86.1,68.3" fill="#4dd88a"/>
<polygon points="90.3,64.3 94.3,68.3 90.3,72.3 86.3,68.3" fill="#4dd88a"/>
<polygon points="90.5,64.3 94.5,68.3 90.5,72.3 86.5,68.3" fill="#4dd88a"/>
<polygon points="91.1,64.3 95.1,68.3 91.1,72.3 87.1,68.3" fill="#4dd88a"/>
<polygon points="92.2,64.3 96.2,68.3 92.2,72.3 88.2,68.3" fill="#4dd88a"/>
<polygon points="94.4,64.3 98.4,68.3 94.4,72.3 90.4,68.3" fill="#4dd88a"/>
<polygon points="98.7,64.3 102.7,68.3 98.7,72.3 94.7,68.3" fill="#4dd88a"/>
<polygon points="107.2,64.8 111.2,68.8 107.2,72.8 103.2,68.8" fill="#4dd88a"/>
<polygon points="121.7,67.8 125.7,71.8 121.7,75.8 117.7,71.8" fill="#4dd88a"/>
<polygon points="142.6,75.6 146.6,79.6 142.6,83.6 138.6,79.6" fill="#4dd88a"/>
<polygon points="168.1,87.3 172.1,91.3 168.1,95.3 164.1,91.3" fill="#4dd88a"/>
<polygon points="195.6,101.6 199.6,105.6 195.6,109.6 191.6,105.6" fill="#4dd88a"/>
<polygon points="222.6,117.5 226.6,121.5 222.6,125.5 218.6,121.5" fill="#4dd88a"/>
<polygon points="248.5,134.4 252.5,138.4 248.5,142.4 244.5,138.4" fill="#4dd88a"/>
<polygon points="297.7,171.7 301.7,175.7 297.7,179.7 293.7,175.7" fill="#4dd88a"/>
<polygon points="345.2,221.9 349.2,225.9 345.2,229.9 341.2,225.9" fill="#4dd88a"/>
<polygon points="438.2,517.7 442.2,521.7 438.2,525.7 434.2,521.7" fill="#4dd88a"/>
<polygon points="531.1,517.7 535.1,521.7 531.1,525.7 527.1,521.7" fill="#4dd88a"/>
<polyline fill="none" stroke="#ff6b6b" stroke-width="2" points="90.2,68.3 90.3,68.3 90.4,68.3 90.7,68.3 91.1,68.3 92.0,68.3 93.3,68.7 95.0,69.8 97.5,71.9 101.3,75.3 106.6,80.3 114.3,87.0 125.3,95.1 138.7,104.8 156.8,115.7 179.6,127.9 204.9,141.1 266.3,171.7 334.8,216.4 434.0,521.7 523.5,521.7"/>
<polygon points="90.2,63.3 89.0,66.7 85.4,66.8 88.3,69.0 87.3,72.4 90.2,70.3 93.1,72.4 92.1,69.0 95.0,66.8 91.4,66.7" fill="#ff6b6b"/>
<polygon points="90.3,63.3 89.1,66.7 85.5,66.8 88.4,69.0 87.3,72.4 90.3,70.3 93.2,72.4 92.2,69.0 95.0,66.8 91.4,66.7" fill="#ff6b6b"/>
<polygon points="90.4,63.3 89.2,66.7 85.6,66.8 88.5,69.0 87.5,72.4 90.4,70.3 93.3,72.4 92.3,69.0 95.1,66.8 91.6,66.7" fill="#ff6b6b"/>
<polygon points="90.7,63.3 89.5,66.7 85.9,66.8 88.7,69.0 87.7,72.4 90.7,70.3 93.6,72.4 92.6,69.0 95.4,66.8 91.8,66.7" fill="#ff6b6b"/>
<polygon points="91.1,63.3 90.0,66.7 86.4,66.8 89.2,69.0 88.2,72.4 91.1,70.3 94.1,72.4 93.0,69.0 95.9,66.8 92.3,66.7" fill="#ff6b6b"/>
<polygon points="92.0,63.3 90.8,66.7 87.2,66.8 90.1,69.0 89.0,72.4 92.0,70.3 94.9,72.4 93.9,69.0 96.7,66.8 93.2,66.7" fill="#ff6b6b"/>
<polygon points="93.3,63.7 92.1,67.1 88.5,67.2 91.4,69.3 90.3,72.8 93.3,70.7 96.2,72.8 95.2,69.3 98.0,67.2 94.5,67.1" fill="#ff6b6b"/>
<polygon points="95.0,64.8 93.9,68.2 90.3,68.3 93.1,70.5 92.1,73.9 95.0,71.8 98.0,73.9 96.9,70.5 99.8,68.3 96.2,68.2" fill="#ff6b6b"/>
<polygon points="97.5,66.9 96.4,70.3 92.8,70.3 95.6,72.5 94.6,75.9 97.5,73.9 100.5,75.9 99.4,72.5 102.3,70.3 98.7,70.3" fill="#ff6b6b"/>
<polygon points="101.3,70.3 100.1,73.7 96.5,73.8 99.4,75.9 98.3,79.4 101.3,77.3 104.2,79.4 103.2,75.9 106.0,73.8 102.4,73.7" fill="#ff6b6b"/>
<polygon points="106.6,75.3 105.4,78.7 101.8,78.8 104.7,80.9 103.6,84.4 106.6,82.3 109.5,84.4 108.5,80.9 111.3,78.8 107.8,78.7" fill="#ff6b6b"/>
<polygon points="114.3,82.0 113.1,85.4 109.5,85.4 112.4,87.6 111.3,91.0 114.3,89.0 117.2,91.0 116.2,87.6 119.0,85.4 115.5,85.4" fill="#ff6b6b"/>
<polygon points="125.3,90.1 124.1,93.4 120.6,93.5 123.4,95.7 122.4,99.1 125.3,97.1 128.3,99.1 127.2,95.7 130.1,93.5 126.5,93.4" fill="#ff6b6b"/>
<polygon points="138.7,99.8 137.6,103.2 134.0,103.3 136.8,105.4 135.8,108.9 138.7,106.8 141.7,108.9 140.6,105.4 143.5,103.3 139.9,103.2" fill="#ff6b6b"/>
<polygon points="156.8,110.7 155.6,114.1 152.0,114.2 154.9,116.4 153.9,119.8 156.8,117.7 159.7,119.8 158.7,116.4 161.5,114.2 158.0,114.1" fill="#ff6b6b"/>
<polygon points="179.6,122.9 178.4,126.3 174.8,126.3 177.7,128.5 176.7,131.9 179.6,129.9 182.5,131.9 181.5,128.5 184.4,126.3 180.8,126.3" fill="#ff6b6b"/>
<polygon points="204.9,136.1 203.8,139.5 200.2,139.5 203.0,141.7 202.0,145.1 204.9,143.1 207.9,145.1 206.8,141.7 209.7,139.5 206.1,139.5" fill="#ff6b6b"/>
<polygon points="266.3,166.7 265.2,170.1 261.6,170.2 264.4,172.4 263.4,175.8 266.3,173.7 269.3,175.8 268.2,172.4 271.1,170.2 267.5,170.1" fill="#ff6b6b"/>
<polygon points="334.8,211.4 333.6,214.7 330.0,214.8 332.9,217.0 331.9,220.4 334.8,218.4 337.7,220.4 336.7,217.0 339.6,214.8 336.0,214.7" fill="#ff6b6b"/>
<polygon points="434.0,516.7 432.8,520.0 429.3,520.1 432.1,522.3 431.1,525.7 434.0,523.7 437.0,525.7 435.9,522.3 438.8,520.1 435.2,520.0" fill="#ff6b6b"/>
<polygon points="523.5,516.7 522.3,520.0 518.7,520.1 521.6,522.3 520.5,525.7 523.5,523.7 526.4,525.7 525.4,522.3 528.2,520.1 524.6,520.0" fill="#ff6b6b"/>
<polyline fill="none" stroke="#ff922b" stroke-width="2" points="273.1,137.9 303.5,153.5 333.1,170.3 361.7,188.9 388.6,209.7 413.9,234.2 437.9,264.1 461.4,301.2 507.9,436.5 531.1,521.7"/>
<circle cx="273.1" cy="137.9" r="3" fill="#ff922b"/>
<circle cx="303.5" cy="153.5" r="3" fill="#ff922b"/>
<circle cx="333.1" cy="170.3" r="3" fill="#ff922b"/>
<circle cx="361.7" cy="188.9" r="3" fill="#ff922b"/>
<circle cx="388.6" cy="209.7" r="3" fill="#ff922b"/>
<circle cx="413.9" cy="234.2" r="3" fill="#ff922b"/>
<circle cx="437.9" cy="264.1" r="3" fill="#ff922b"/>
<circle cx="461.4" cy="301.2" r="3" fill="#ff922b"/>
<circle cx="507.9" cy="436.5" r="3" fill="#ff922b"/>
<circle cx="531.1" cy="521.7" r="3" fill="#ff922b"/>
<polyline fill="none" stroke="#888888" stroke-width="2" stroke-dasharray="8,5" points="201.3,124.3 234.7,141.4 279.0,164.5 312.5,181.6 346.0,198.3 390.3,220.5 423.8,237.9 457.3,255.3 501.5,279.9 535.0,295.2"/>
<circle cx="201.3" cy="124.3" r="3" fill="#888888"/>
<circle cx="234.7" cy="141.4" r="3" fill="#888888"/>
<circle cx="279.0" cy="164.5" r="3" fill="#888888"/>
<circle cx="312.5" cy="181.6" r="3" fill="#888888"/>
<circle cx="346.0" cy="198.3" r="3" fill="#888888"/>
<circle cx="390.3" cy="220.5" r="3" fill="#888888"/>
<circle cx="423.8" cy="237.9" r="3" fill="#888888"/>
<circle cx="457.3" cy="255.3" r="3" fill="#888888"/>
<circle cx="501.5" cy="279.9" r="3" fill="#888888"/>
<circle cx="535.0" cy="295.2" r="3" fill="#888888"/>
<line x1="886" y1="60" x2="902" y2="60" stroke="#ef4444" stroke-width="2" stroke-dasharray="8,5"/>
<circle cx="894.0" cy="60.0" r="3" fill="#ef4444"/>
<text class="label" x="908" y="64">Theoretical</text>
<line x1="886" y1="78" x2="902" y2="78" stroke="#1a6b3c" stroke-width="2"/>
<polygon points="894.0,74.0 898.0,78.0 894.0,82.0 890.0,78.0" fill="#1a6b3c"/>
<text class="label" x="908" y="82">Grafite</text>
<line x1="886" y1="96" x2="902" y2="96" stroke="#1a3a6b" stroke-width="2"/>
<polygon points="894.0,91.0 892.8,94.4 889.2,94.5 892.1,96.6 891.1,100.0 894.0,98.0 896.9,100.0 895.9,96.6 898.8,94.5 895.2,94.4" fill="#1a3a6b"/>
<text class="label" x="908" y="100">SNARF</text>
<line x1="886" y1="114" x2="902" y2="114" stroke="#111111" stroke-width="2"/>
<rect x="891.0" y="111.0" width="6" height="6" fill="#111111"/>
<text class="label" x="908" y="118">SuRF</text>
<line x1="886" y1="132" x2="902" y2="132" stroke="#111111" stroke-width="2"/>
<polygon points="894.0,128.0 898.0,135.0 890.0,135.0" fill="#111111"/>
<text class="label" x="908" y="136">SuRFHash(8)</text>
<line x1="886" y1="150" x2="902" y2="150" stroke="#111111" stroke-width="2"/>
<polygon points="894.0,146.0 898.0,150.0 894.0,154.0 890.0,150.0" fill="#111111"/>
<text class="label" x="908" y="154">SuRFReal(8)</text>
<line x1="886" y1="168" x2="902" y2="168" stroke="#2a7fff" stroke-width="2"/>
<rect x="891.0" y="165.0" width="6" height="6" fill="#2a7fff"/>
<text class="label" x="908" y="172">Adaptive (t=0)</text>
<line x1="886" y1="186" x2="902" y2="186" stroke="#9b59b6" stroke-width="2"/>
<polygon points="894.0,182.0 898.0,189.0 890.0,189.0" fill="#9b59b6"/>
<text class="label" x="908" y="190">Truncation</text>
<line x1="886" y1="204" x2="902" y2="204" stroke="#4dd88a" stroke-width="2"/>
<polygon points="894.0,200.0 898.0,204.0 894.0,208.0 890.0,204.0" fill="#4dd88a"/>
<text class="label" x="908" y="208">SODA</text>
<line x1="886" y1="222" x2="902" y2="222" stroke="#ff6b6b" stroke-width="2"/>
<polygon points="894.0,217.0 892.8,220.4 889.2,220.5 892.1,222.6 891.1,226.0 894.0,224.0 896.9,226.0 895.9,222.6 898.8,220.5 895.2,220.4" fill="#ff6b6b"/>
<text class="label" x="908" y="226">Hybrid</text>
<line x1="886" y1="240" x2="902" y2="240" stroke="#ff922b" stroke-width="2"/>
<circle cx="894.0" cy="240.0" r="3" fill="#ff922b"/>
<text class="label" x="908" y="244">CDF-ARE</text>
<line x1="886" y1="258" x2="902" y2="258" stroke="#888888" stroke-width="2" stroke-dasharray="8,5"/>
<circle cx="894.0" cy="258.0" r="3" fill="#888888"/>
<text class="label" x="908" y="262">BloomARE</text>
<text x="480" y="590" text-anchor="middle">Bits per Key (BPK)</text>
<text transform="translate(16,295) rotate(-90)" text-anchor="middle">False Positive Rate (FPR)</text>
</svg>
