<svg xmlns="http://www.w3.org/2000/svg" width="1020" height="600" viewBox="0 0 1020 600">
<style>text{font-family:Menlo,Monaco,monospace;font-size:12px;fill:#222} .axis{stroke:#333;stroke-width:1} .grid{stroke:#eee;stroke-width:0.5} .label{font-size:11px;fill:#444}</style>
<text x="510" y="28" text-anchor="middle" style="font-size:14px;font-weight:bold">FPR vs BPK — sosd_fb (60-bit keys, n=65536, L=1024)</text>
<line class="axis" x1="90.0" y1="550.0" x2="870.0" y2="550.0"/>
<line class="axis" x1="90.0" y1="40.0" x2="90.0" y2="550.0"/>
<line class="grid" x1="90.0" y1="521.7" x2="870.0" y2="521.7"/>
<text class="label" x="82.0" y="525.7" text-anchor="end">10^-8</text>
<line class="grid" x1="90.0" y1="465.0" x2="870.0" y2="465.0"/>
<text class="label" x="82.0" y="469.0" text-anchor="end">10^-7</text>
<line class="grid" x1="90.0" y1="408.3" x2="870.0" y2="408.3"/>
<text class="label" x="82.0" y="412.3" text-anchor="end">10^-6</text>
<line class="grid" x1="90.0" y1="351.7" x2="870.0" y2="351.7"/>
<text class="label" x="82.0" y="355.7" text-anchor="end">10^-5</text>
<line class="grid" x1="90.0" y1="295.0" x2="870.0" y2="295.0"/>
<text class="label" x="82.0" y="299.0" text-anchor="end">10^-4</text>
<line class="grid" x1="90.0" y1="238.3" x2="870.0" y2="238.3"/>
<text class="label" x="82.0" y="242.3" text-anchor="end">10^-3</text>
<line class="grid" x1="90.0" y1="181.7" x2="870.0" y2="181.7"/>
<text class="label" x="82.0" y="185.7" text-anchor="end">10^-2</text>
<line class="grid" x1="90.0" y1="125.0" x2="870.0" y2="125.0"/>
<text class="label" x="82.0" y="129.0" text-anchor="end">10^-1</text>
<line class="grid" x1="90.0" y1="68.3" x2="870.0" y2="68.3"/>
<text class="label" x="82.0" y="72.3" text-anchor="end">1</text>
<line class="grid" x1="90.0" y1="40.0" x2="90.0" y2="550.0"/>
<text class="label" x="90.0" y="566.0" text-anchor="middle">0</text>
<line class="grid" x1="200.6" y1="40.0" x2="200.6" y2="550.0"/>
<text class="label" x="200.6" y="566.0" text-anchor="middle">5</text>
<line class="grid" x1="311.1" y1="40.0" x2="311.1" y2="550.0"/>
<text class="label" x="311.1" y="566.0" text-anchor="middle">10</text>
<line class="grid" x1="421.7" y1="40.0" x2="421.7" y2="550.0"/>
<text class="label" x="421.7" y="566.0" text-anchor="middle">15</text>
<line class="grid" x1="532.2" y1="40.0" x2="532.2" y2="550.0"/>
<text class="label" x="532.2" y="566.0" text-anchor="middle">20</text>
<line class="grid" x1="642.8" y1="40.0" x2="642.8" y2="550.0"/>
<text class="label" x="642.8" y="566.0" text-anchor="middle">25</text>
<line class="grid" x1="753.3" y1="40.0" x2="753.3" y2="550.0"/>
<text class="label" x="753.3" y="566.0" text-anchor="middle">30</text>
<line class="grid" x1="863.9" y1="40.0" x2="863.9" y2="550.0"/>
<text class="label" x="863.9" y="566.0" text-anchor="middle">35</text>
<polyline fill="none" stroke="#ef4444" stroke-width="2" stroke-dasharray="8,5" points="311.1,68.3 333.2,85.4 355.3,102.5 377.4,119.5 399.6,136.6 421.7,153.6 443.8,170.7 465.9,187.7 488.0,204.8 510.1,221.9 532.2,238.9 576.4,273.0 620.7,307.2 709.1,375.4 797.5,443.6"/>
<circle cx="311.1" cy="68.3" r="3" fill="#ef4444"/>
<circle cx="333.2" cy="85.4" r="3" fill="#ef4444"/>
<circle cx="355.3" cy="102.5" r="3" fill="#ef4444"/>
<circle cx="377.4" cy="119.5" r="3" fill="#ef4444"/>
<circle cx="399.6" cy="136.6" r="3" fill="#ef4444"/>
<circle cx="421.7" cy="153.6" r="3" fill="#ef4444"/>
<circle cx="443.8" cy="170.7" r="3" fill="#ef4444"/>
<circle cx="465.9" cy="187.7" r="3" fill="#ef4444"/>
<circle cx="488.0" cy="204.8" r="3" fill="#ef4444"/>
<circle cx="510.1" cy="221.9" r="3" fill="#ef4444"/>
<circle cx="532.2" cy="238.9" r="3" fill="#ef4444"/>
<circle cx="576.4" cy="273.0" r="3" fill="#ef4444"/>
<circle cx="620.7" cy="307.2" r="3" fill="#ef4444"/>
<circle cx="709.1" cy="375.4" r="3" fill="#ef4444"/>
<circle cx="797.5" cy="443.6" r="3" fill="#ef4444"/>
<polyline fill="none" stroke="#1a6b3c" stroke-width="2" points="185.0,68.3 234.2,68.3 280.7,69.5 325.9,100.9"/>
<polygon points="185.0,64.3 189.0,68.3 185.0,72.3 181.0,68.3" fill="#1a6b3c"/>
<polygon points="234.2,64.3 238.2,68.3 234.2,72.3 230.2,68.3" fill="#1a6b3c"/>
<polygon points="280.7,65.5 284.7,69.5 280.7,73.5 276.7,69.5" fill="#1a6b3c"/>
<polygon points="325.9,96.9 329.9,100.9 325.9,104.9 321.9,100.9" fill="#1a6b3c"/>
<polyline fill="none" stroke="#1a3a6b" stroke-width="2" points="164.7,103.8 208.7,109.5 253.2,111.3 297.6,111.7 341.6,111.8 385.6,111.9 430.1,111.9 474.5,111.9 518.5,111.9"/>
<polygon points="164.7,98.8 163.6,102.1 160.0,102.2 162.8,104.4 161.8,107.8 164.7,105.8 167.7,107.8 166.7,104.4 169.5,102.2 165.9,102.1" fill="#1a3a6b"/>
<polygon points="208.7,104.5 207.5,107.9 204.0,107.9 206.8,110.1 205.8,113.5 208.7,111.5 211.7,113.5 210.6,110.1 213.5,107.9 209.9,107.9" fill="#1a3a6b"/>
<polygon points="253.2,106.3 252.0,109.6 248.4,109.7 251.3,111.9 250.3,115.3 253.2,113.3 256.1,115.3 255.1,111.9 258.0,109.7 254.4,109.6" fill="#1a3a6b"/>
<polygon points="297.6,106.7 296.4,110.1 292.9,110.2 295.7,112.4 294.7,115.8 297.6,113.7 300.6,115.8 299.5,112.4 302.4,110.2 298.8,110.1" fill="#1a3a6b"/>
<polygon points="341.6,106.8 340.5,110.2 336.9,110.3 339.7,112.5 338.7,115.9 341.6,113.8 344.6,115.9 343.5,112.5 346.4,110.3 342.8,110.2" fill="#1a3a6b"/>
<polygon points="385.6,106.9 384.4,110.2 380.8,110.3 383.7,112.5 382.7,115.9 385.6,113.9 388.5,115.9 387.5,112.5 390.4,110.3 386.8,110.2" fill="#1a3a6b"/>
<polygon points="430.1,106.9 428.9,110.2 425.3,110.3 428.2,112.5 427.2,115.9 430.1,113.9 433.0,115.9 432.0,112.5 434.8,110.3 431.3,110.2" fill="#1a3a6b"/>
<polygon points="474.5,106.9 473.3,110.2 469.7,110.3 472.6,112.5 471.6,115.9 474.5,113.9 477.4,115.9 476.4,112.5 479.3,110.3 475.7,110.2" fill="#1a3a6b"/>
<polygon points="518.5,106.9 517.3,110.2 513.8,110.3 516.6,112.5 515.6,115.9 518.5,113.9 521.5,115.9 520.4,112.5 523.3,110.3 519.7,110.2" fill="#1a3a6b"/>
<polyline fill="none" stroke="#111111" stroke-width="2" points="339.5,125.2"/>
<rect x="336.5" y="122.2" width="6" height="6" fill="#111111"/>
<polyline fill="none" stroke="#111111" stroke-width="2" points="516.4,125.2"/>
<polygon points="516.4,121.2 520.4,128.2 512.4,128.2" fill="#111111"/>
<polyline fill="none" stroke="#111111" stroke-width="2" points="516.4,299.3"/>
<polygon points="516.4,295.3 520.4,299.3 516.4,303.3 512.4,299.3" fill="#111111"/>
<polyline fill="none" stroke="#2a7fff" stroke-width="2" points="90.0,68.3 90.0,68.3 90.1,68.3 90.1,68.3 90.3,68.3 90.5,68.3 91.0,68.3 92.1,68.3 94.1,68.3 98.3,68.3 106.4,68.3 120.2,68.3 140.1,68.3 164.4,68.3 190.6,68.3 216.3,68.3 240.9,68.3 287.8,69.6 333.0,102.1 355.3,521.7 355.3,521.7"/>
<rect x="87.0" y="65.3" width="6" height="6" fill="#2a7fff"/>
<rect x="87.0" y="65.3" width="6" height="6" fill="#2a7fff"/>
<rect x="87.1" y="65.3" width="6" height="6" fill="#2a7fff"/>
<rect x="87.1" y="65.3" width="6" height="6" fill="#2a7fff"/>
<rect x="87.3" y="65.3" width="6" height="6" fill="#2a7fff"/>
<rect x="87.5" y="65.3" width="6" height="6" fill="#2a7fff"/>
<rect x="88.0" y="65.3" width="6" height="6" fill="#2a7fff"/>
<rect x="89.1" y="65.3" width="6" height="6" fill="#2a7fff"/>
<rect x="91.1" y="65.3" width="6" height="6" fill="#2a7fff"/>
<rect x="95.3" y="65.3" width="6" height="6" fill="#2a7fff"/>
<rect x="103.4" y="65.3" width="6" height="6" fill="#2a7fff"/>
<rect x="117.2" y="65.3" width="6" height="6" fill="#2a7fff"/>
<rect x="137.1" y="65.3" width="6" height="6" fill="#2a7fff"/>
<rect x="161.4" y="65.3" width="6" height="6" fill="#2a7fff"/>
<rect x="187.6" y="65.3" width="6" height="6" fill="#2a7fff"/>
<rect x="213.3" y="65.3" width="6" height="6" fill="#2a7fff"/>
<rect x="237.9" y="65.3" width="6" height="6" fill="#2a7fff"/>
<rect x="284.8" y="66.6" width="6" height="6" fill="#2a7fff"/>
<rect x="330.0" y="99.1" width="6" height="6" fill="#2a7fff"/>
<rect x="352.3" y="518.7" width="6" height="6" fill="#2a7fff"/>
<rect x="352.3" y="518.7" width="6" height="6" fill="#2a7fff"/>
<polyline fill="none" stroke="#9b59b6" stroke-width="2" points="90.0,68.3 90.0,68.3 90.1,68.3 90.1,68.3 90.2,68.3 90.4,68.3 90.8,69.0 91.6,71.0 93.0,74.8 95.7,81.2 99.9,90.3 106.4,100.2 116.6,113.4 129.6,128.4 147.3,144.4 169.5,161.0 194.5,178.3 255.4,214.5 323.4,262.3 421.7,521.7 510.1,521.7"/>
<polygon points="90.0,64.3 94.0,71.3 86.0,71.3" fill="#9b59b6"/>
<polygon points="90.0,64.3 94.0,71.3 86.0,71.3" fill="#9b59b6"/>
<polygon points="90.1,64.3 94.1,71.3 86.1,71.3" fill="#9b59b6"/>
<polygon points="90.1,64.3 94.1,71.3 86.1,71.3" fill="#9b59b6"/>
<polygon points="90.2,64.3 94.2,71.3 86.2,71.3" fill="#9b59b6"/>
<polygon points="90.4,64.3 94.4,71.3 86.4,71.3" fill="#9b59b6"/>
<polygon points="90.8,65.0 94.8,72.0 86.8,72.0" fill="#9b59b6"/>
<polygon points="91.6,67.0 95.6,74.0 87.6,74.0" fill="#9b59b6"/>
<polygon points="93.0,70.8 97.0,77.8 89.0,77.8" fill="#9b59b6"/>
<polygon points="95.7,77.2 99.7,84.2 91.7,84.2" fill="#9b59b6"/>
<polygon points="99.9,86.3 103.9,93.3 95.9,93.3" fill="#9b59b6"/>
<polygon points="106.4,96.2 110.4,103.2 102.4,103.2" fill="#9b59b6"/>
<polygon points="116.6,109.4 120.6,116.4 112.6,116.4" fill="#9b59b6"/>
<polygon points="129.6,124.4 133.6,131.4 125.6,131.4" fill="#9b59b6"/>
<polygon points="147.3,140.4 151.3,147.4 143.3,147.4" fill="#9b59b6"/>
<polygon points="169.5,157.0 173.5,164.0 165.5,164.0" fill="#9b59b6"/>
<polygon points="194.5,174.3 198.5,181.3 190.5,181.3" fill="#9b59b6"/>
<polygon points="255.4,210.5 259.4,217.5 251.4,217.5" fill="#9b59b6"/>
<polygon points="323.4,258.3 327.4,265.3 319.4,265.3" fill="#9b59b6"/>
<polygon points="421.7,517.7 425.7,524.7 417.7,524.7" fill="#9b59b6"/>
<polygon points="510.1,517.7 514.1,524.7 506.1,524.7" fill="#9b59b6"/>
<polyline fill="none" stroke="#4dd88a" stroke-width="2" points="90.0,68.3 90.0,68.3 90.1,68.3 90.1,68.3 90.3,68.3 90.5,68.3 91.0,68.3 92.1,68.3 94.1,68.3 98.3,68.3 106.4,68.3 120.2,68.3 140.1,68.3 164.4,68.3 190.6,68.3 216.3,68.3 240.9,68.3 287.8,69.6 333.0,102.1 421.7,521.7 510.1,521.7"/>
<polygon points="90.0,64.3 94.0,68.3 90.0,72.3 86.0,68.3" fill="#4dd88a"/>
<polygon points="90.0,64.3 94.0,68.3 90.0,72.3 86.0,68.3" fill="#4dd88a"/>
<polygon points="90.1,64.3 94.1,68.3 90.1,72.3 86.1,68.3" fill="#4dd88a"/>
<polygon points="90.1,64.3 94.1,68.3 90.1,72.3 86.1,68.3" fill="#4dd88a"/>
<polygon points="90.3,64.3 94.3,68.3 90.3,72.3 86.3,68.3" fill="#4dd88a"/>
<polygon points="90.5,64.3 94.5,68.3 90.5,72.3 86.5,68.3" fill="#4dd88a"/>
<polygon points="91.0,64.3 95.0,68.3 91.0,72.3 87.0,68.3" fill="#4dd88a"/>
<polygon points="92.1,64.3 96.1,68.3 92.1,72.3 88.1,68.3" fill="#4dd88a"/>
<polygon points="94.1,64.3 98.1,68.3 94.1,72.3 90.1,68.3" fill="#4dd88a"/>
<polygon points="98.3,64.3 102.3,68.3 98.3,72.3 94.3,68.3" fill="#4dd88a"/>
<polygon points="106.4,64.3 110.4,68.3 106.4,72.3 102.4,68.3" fill="#4dd88a"/>
<polygon points="120.2,64.3 124.2,68.3 120.2,72.3 116.2,68.3" fill="#4dd88a"/>
<polygon points="140.1,64.3 144.1,68.3 140.1,72.3 136.1,68.3" fill="#4dd88a"/>
<polygon points="164.4,64.3 168.4,68.3 164.4,72.3 160.4,68.3" fill="#4dd88a"/>
<polygon points="190.6,64.3 194.6,68.3 190.6,72.3 186.6,68.3" fill="#4dd88a"/>
<polygon points="216.3,64.3 220.3,68.3 216.3,72.3 212.3,68.3" fill="#4dd88a"/>
<polygon points="240.9,64.3 244.9,68.3 240.9,72.3 236.9,68.3" fill="#4dd88a"/>
<polygon points="287.8,65.6 291.8,69.6 287.8,73.6 283.8,69.6" fill="#4dd88a"/>
<polygon points="333.0,98.1 337.0,102.1 333.0,106.1 329.0,102.1" fill="#4dd88a"/>
<polygon points="421.7,517.7 425.7,521.7 421.7,525.7 417.7,521.7" fill="#4dd88a"/>
<polygon points="510.1,517.7 514.1,521.7 510.1,525.7 506.1,521.7" fill="#4dd88a"/>
<polyline fill="none" stroke="#ff6b6b" stroke-width="2" points="90.2,68.3 90.3,68.3 90.4,68.3 90.6,68.3 91.1,68.3 91.9,68.3 93.1,69.0 94.8,71.0 97.2,74.8 100.7,81.2 105.8,90.3 113.1,100.3 123.6,113.4 136.4,128.5 153.6,144.5 175.3,161.1 199.5,178.4 258.0,214.6 323.2,262.4 417.7,521.7 502.9,521.7"/>
<polygon points="90.2,63.3 89.0,66.7 85.4,66.8 88.3,69.0 87.3,72.4 90.2,70.3 93.1,72.4 92.1,69.0 94.9,66.8 91.4,66.7" fill="#ff6b6b"/>
<polygon points="90.3,63.3 89.1,66.7 85.5,66.8 88.4,69.0 87.3,72.4 90.3,70.3 93.2,72.4 92.2,69.0 95.0,66.8 91.4,66.7" fill="#ff6b6b"/>
<polygon points="90.4,63.3 89.2,66.7 85.6,66.8 88.5,69.0 87.4,72.4 90.4,70.3 93.3,72.4 92.3,69.0 95.1,66.8 91.6,66.7" fill="#ff6b6b"/>
<polygon points="90.6,63.3 89.4,66.7 85.9,66.8 88.7,69.0 87.7,72.4 90.6,70.3 93.6,72.4 92.5,69.0 95.4,66.8 91.8,66.7" fill="#ff6b6b"/>
<polygon points="91.1,63.3 89.9,66.7 86.3,66.8 89.2,69.0 88.2,72.4 91.1,70.3 94.0,72.4 93.0,69.0 95.8,66.8 92.3,66.7" fill="#ff6b6b"/>
<polygon points="91.9,63.3 90.7,66.7 87.1,66.8 90.0,69.0 89.0,72.4 91.9,70.3 94.8,72.4 93.8,69.0 96.6,66.8 93.1,66.7" fill="#ff6b6b"/>
<polygon points="93.1,64.0 91.9,67.4 88.4,67.5 91.2,69.6 90.2,73.0 93.1,71.0 96.1,73.0 95.0,69.6 97.9,67.5 94.3,67.4" fill="#ff6b6b"/>
<polygon points="94.8,66.0 93.6,69.4 90.0,69.5 92.9,71.6 91.9,75.1 94.8,73.0 97.7,75.1 96.7,71.6 99.5,69.5 96.0,69.4" fill="#ff6b6b"/>
<polygon points="97.2,69.8 96.0,73.2 92.4,73.2 95.3,75.4 94.2,78.8 97.2,76.8 100.1,78.8 99.1,75.4 101.9,73.2 98.3,73.2" fill="#ff6b6b"/>
<polygon points="100.7,76.2 99.5,79.6 96.0,79.7 98.8,81.8 97.8,85.3 100.7,83.2 103.7,85.3 102.6,81.8 105.5,79.7 101.9,79.6" fill="#ff6b6b"/>
<polygon points="105.8,85.3 104.6,88.7 101.0,88.8 103.9,91.0 102.9,94.4 105.8,92.3 108.7,94.4 107.7,91.0 110.5,88.8 107.0,88.7" fill="#ff6b6b"/>
<polygon points="113.1,95.3 111.9,98.6 108.4,98.7 111.2,100.9 110.2,104.3 113.1,102.3 116.1,104.3 115.0,100.9 117.9,98.7 114.3,98.6" fill="#ff6b6b"/>
<polygon points="123.6,108.4 122.5,111.8 118.9,111.9 121.7,114.0 120.7,117.5 123.6,115.4 126.6,117.5 125.5,114.0 128.4,111.9 124.8,111.8" fill="#ff6b6b"/>
<polygon points="136.4,123.5 135.3,126.8 131.7,126.9 134.5,129.1 133.5,132.5 136.4,130.5 139.4,132.5 138.3,129.1 141.2,126.9 137.6,126.8" fill="#ff6b6b"/>
<polygon points="153.6,139.5 152.4,142.8 148.9,142.9 151.7,145.1 150.7,148.5 153.6,146.5 156.6,148.5 155.5,145.1 158.4,142.9 154.8,142.8" fill="#ff6b6b"/>
<polygon points="175.3,156.1 174.2,159.5 170.6,159.5 173.4,161.7 172.4,165.1 175.3,163.1 178.3,165.1 177.2,161.7 180.1,159.5 176.5,159.5" fill="#ff6b6b"/>
<polygon points="199.5,173.4 198.3,176.8 194.7,176.8 197.6,179.0 196.5,182.4 199.5,180.4 202.4,182.4 201.4,179.0 204.2,176.8 200.6,176.8" fill="#ff6b6b"/>
<polygon points="258.0,209.6 256.8,213.0 253.2,213.1 256.1,215.3 255.0,218.7 258.0,216.6 260.9,218.7 259.9,215.3 262.7,213.1 259.1,213.0" fill="#ff6b6b"/>
<polygon points="323.2,257.4 322.0,260.8 318.4,260.9 321.3,263.1 320.2,266.5 323.2,264.4 326.1,266.5 325.1,263.1 327.9,260.9 324.3,260.8" fill="#ff6b6b"/>
<polygon points="417.7,516.7 416.5,520.0 412.9,520.1 415.8,522.3 414.7,525.7 417.7,523.7 420.6,525.7 419.6,522.3 422.4,520.1 418.8,520.0" fill="#ff6b6b"/>
<polygon points="502.9,516.7 501.7,520.0 498.1,520.1 501.0,522.3 499.9,525.7 502.9,523.7 505.8,525.7 504.8,522.3 507.6,520.1 504.0,520.0" fill="#ff6b6b"/>
<polyline fill="none" stroke="#ff922b" stroke-width="2" points="488.0,393.6 510.1,521.7 532.3,521.7 554.4,521.7 576.5,521.7 598.6,521.7 620.7,521.7 642.8,521.7 687.0,521.7 709.1,521.7"/>
<circle cx="488.0" cy="393.6" r="3" fill="#ff922b"/>
<circle cx="510.1" cy="521.7" r="3" fill="#ff922b"/>
<circle cx="532.3" cy="521.7" r="3" fill="#ff922b"/>
<circle cx="554.4" cy="521.7" r="3" fill="#ff922b"/>
<circle cx="576.5" cy="521.7" r="3" fill="#ff922b"/>
<circle cx="598.6" cy="521.7" r="3" fill="#ff922b"/>
<circle cx="620.7" cy="521.7" r="3" fill="#ff922b"/>
<circle cx="642.8" cy="521.7" r="3" fill="#ff922b"/>
<circle cx="687.0" cy="521.7" r="3" fill="#ff922b"/>
<circle cx="709.1" cy="521.7" r="3" fill="#ff922b"/>
<polyline fill="none" stroke="#888888" stroke-width="2" stroke-dasharray="8,5" points="512.6,125.8 545.7,141.6 588.6,165.6 620.7,181.6 652.7,194.0 694.9,212.9 726.9,243.6 758.8,280.2 801.0,261.6 832.9,521.7"/>
<circle cx="512.6" cy="125.8" r="3" fill="#888888"/>
<circle cx="545.7" cy="141.6" r="3" fill="#888888"/>
<circle cx="588.6" cy="165.6" r="3" fill="#888888"/>
<circle cx="620.7" cy="181.6" r="3" fill="#888888"/>
<circle cx="652.7" cy="194.0" r="3" fill="#888888"/>
<circle cx="694.9" cy="212.9" r="3" fill="#888888"/>
<circle cx="726.9" cy="243.6" r="3" fill="#888888"/>
<circle cx="758.8" cy="280.2" r="3" fill="#888888"/>
<circle cx="801.0" cy="261.6" r="3" fill="#888888"/>
<circle cx="832.9" cy="521.7" r="3" fill="#888888"/>
<line x1="886" y1="60" x2="902" y2="60" stroke="#ef4444" stroke-width="2" stroke-dasharray="8,5"/>
<circle cx="894.0" cy="60.0" r="3" fill="#ef4444"/>
<text class="label" x="908" y="64">Theoretical</text>
<line x1="886" y1="78" x2="902" y2="78" stroke="#1a6b3c" stroke-width="2"/>
<polygon points="894.0,74.0 898.0,78.0 894.0,82.0 890.0,78.0" fill="#1a6b3c"/>
<text class="label" x="908" y="82">Grafite</text>
<line x1="886" y1="96" x2="902" y2="96" stroke="#1a3a6b" stroke-width="2"/>
<polygon points="894.0,91.0 892.8,94.4 889.2,94.5 892.1,96.6 891.1,100.0 894.0,98.0 896.9,100.0 895.9,96.6 898.8,94.5 895.2,94.4" fill="#1a3a6b"/>
<text class="label" x="908" y="100">SNARF</text>
<line x1="886" y1="114" x2="902" y2="114" stroke="#111111" stroke-width="2"/>
<rect x="891.0" y="111.0" width="6" height="6" fill="#111111"/>
<text class="label" x="908" y="118">SuRF</text>
<line x1="886" y1="132" x2="902" y2="132" stroke="#111111" stroke-width="2"/>
<polygon points="894.0,128.0 898.0,135.0 890.0,135.0" fill="#111111"/>
<text class="label" x="908" y="136">SuRFHash(8)</text>
<line x1="886" y1="150" x2="902" y2="150" stroke="#111111" stroke-width="2"/>
<polygon points="894.0,146.0 898.0,150.0 894.0,154.0 890.0,150.0" fill="#111111"/>
<text class="label" x="908" y="154">SuRFReal(8)</text>
<line x1="886" y1="168" x2="902" y2="168" stroke="#2a7fff" stroke-width="2"/>
<rect x="891.0" y="165.0" width="6" height="6" fill="#2a7fff"/>
<text class="label" x="908" y="172">Adaptive (t=0)</text>
<line x1="886" y1="186" x2="902" y2="186" stroke="#9b59b6" stroke-width="2"/>
<polygon points="894.0,182.0 898.0,189.0 890.0,189.0" fill="#9b59b6"/>
<text class="label" x="908" y="190">Truncation</text>
<line x1="886" y1="204" x2="902" y2="204" stroke="#4dd88a" stroke-width="2"/>
<polygon points="894.0,200.0 898.0,204.0 894.0,208.0 890.0,204.0" fill="#4dd88a"/>
<text class="label" x="908" y="208">SODA</text>
<line x1="886" y1="222" x2="902" y2="222" stroke="#ff6b6b" stroke-width="2"/>
<polygon points="894.0,217.0 892.8,220.4 889.2,220.5 892.1,222.6 891.1,226.0 894.0,224.0 896.9,226.0 895.9,222.6 898.8,220.5 895.2,220.4" fill="#ff6b6b"/>
<text class="label" x="908" y="226">Hybrid</text>
<line x1="886" y1="240" x2="902" y2="240" stroke="#ff922b" stroke-width="2"/>
<circle cx="894.0" cy="240.0" r="3" fill="#ff922b"/>
<text class="label" x="908" y="244">CDF-ARE</text>
<line x1="886" y1="258" x2="902" y2="258" stroke="#888888" stroke-width="2" stroke-dasharray="8,5"/>
<circle cx="894.0" cy="258.0" r="3" fill="#888888"/>
<text class="label" x="908" y="262">BloomARE</text>
<text x="480" y="590" text-anchor="middle">Bits per Key (BPK)</text>
<text transform="translate(16,295) rotate(-90)" text-anchor="middle">False Positive Rate (FPR)</text>
</svg>
