<svg xmlns="http://www.w3.org/2000/svg" width="1020" height="600" viewBox="0 0 1020 600">
<style>text{font-family:Menlo,Monaco,monospace;font-size:12px;fill:#222} .axis{stroke:#333;stroke-width:1} .grid{stroke:#eee;stroke-width:0.5} .label{font-size:11px;fill:#444}</style>
<text x="510" y="28" text-anchor="middle" style="font-size:14px;font-weight:bold">FPR vs BPK — sosd_fb (60-bit keys, n=65536, L=128)</text>
<line class="axis" x1="90.0" y1="550.0" x2="870.0" y2="550.0"/>
<line class="axis" x1="90.0" y1="40.0" x2="90.0" y2="550.0"/>
<line class="grid" x1="90.0" y1="521.7" x2="870.0" y2="521.7"/>
<text class="label" x="82.0" y="525.7" text-anchor="end">10^-8</text>
<line class="grid" x1="90.0" y1="465.0" x2="870.0" y2="465.0"/>
<text class="label" x="82.0" y="469.0" text-anchor="end">10^-7</text>
<line class="grid" x1="90.0" y1="408.3" x2="870.0" y2="408.3"/>
<text class="label" x="82.0" y="412.3" text-anchor="end">10^-6</text>
<line class="grid" x1="90.0" y1="351.7" x2="870.0" y2="351.7"/>
<text class="label" x="82.0" y="355.7" text-anchor="end">10^-5</text>
<line class="grid" x1="90.0" y1="295.0" x2="870.0" y2="295.0"/>
<text class="label" x="82.0" y="299.0" text-anchor="end">10^-4</text>
<line class="grid" x1="90.0" y1="238.3" x2="870.0" y2="238.3"/>
<text class="label" x="82.0" y="242.3" text-anchor="end">10^-3</text>
<line class="grid" x1="90.0" y1="181.7" x2="870.0" y2="181.7"/>
<text class="label" x="82.0" y="185.7" text-anchor="end">10^-2</text>
<line class="grid" x1="90.0" y1="125.0" x2="870.0" y2="125.0"/>
<text class="label" x="82.0" y="129.0" text-anchor="end">10^-1</text>
<line class="grid" x1="90.0" y1="68.3" x2="870.0" y2="68.3"/>
<text class="label" x="82.0" y="72.3" text-anchor="end">1</text>
<line class="grid" x1="90.0" y1="40.0" x2="90.0" y2="550.0"/>
<text class="label" x="90.0" y="566.0" text-anchor="middle">0</text>
<line class="grid" x1="206.1" y1="40.0" x2="206.1" y2="550.0"/>
<text class="label" x="206.1" y="566.0" text-anchor="middle">5</text>
<line class="grid" x1="322.1" y1="40.0" x2="322.1" y2="550.0"/>
<text class="label" x="322.1" y="566.0" text-anchor="middle">10</text>
<line class="grid" x1="438.2" y1="40.0" x2="438.2" y2="550.0"/>
<text class="label" x="438.2" y="566.0" text-anchor="middle">15</text>
<line class="grid" x1="554.3" y1="40.0" x2="554.3" y2="550.0"/>
<text class="label" x="554.3" y="566.0" text-anchor="middle">20</text>
<line class="grid" x1="670.4" y1="40.0" x2="670.4" y2="550.0"/>
<text class="label" x="670.4" y="566.0" text-anchor="middle">25</text>
<line class="grid" x1="786.4" y1="40.0" x2="786.4" y2="550.0"/>
<text class="label" x="786.4" y="566.0" text-anchor="middle">30</text>
<polyline fill="none" stroke="#ef4444" stroke-width="2" stroke-dasharray="8,5" points="252.5,68.3 275.7,85.4 298.9,102.5 322.1,119.5 345.4,136.6 368.6,153.6 391.8,170.7 415.0,187.7 438.2,204.8 461.4,221.9 484.6,238.9 507.9,256.0 531.1,273.0 554.3,290.1 600.7,324.2 647.1,358.3 740.0,426.6 832.9,494.8"/>
<circle cx="252.5" cy="68.3" r="3" fill="#ef4444"/>
<circle cx="275.7" cy="85.4" r="3" fill="#ef4444"/>
<circle cx="298.9" cy="102.5" r="3" fill="#ef4444"/>
<circle cx="322.1" cy="119.5" r="3" fill="#ef4444"/>
<circle cx="345.4" cy="136.6" r="3" fill="#ef4444"/>
<circle cx="368.6" cy="153.6" r="3" fill="#ef4444"/>
<circle cx="391.8" cy="170.7" r="3" fill="#ef4444"/>
<circle cx="415.0" cy="187.7" r="3" fill="#ef4444"/>
<circle cx="438.2" cy="204.8" r="3" fill="#ef4444"/>
<circle cx="461.4" cy="221.9" r="3" fill="#ef4444"/>
<circle cx="484.6" cy="238.9" r="3" fill="#ef4444"/>
<circle cx="507.9" cy="256.0" r="3" fill="#ef4444"/>
<circle cx="531.1" cy="273.0" r="3" fill="#ef4444"/>
<circle cx="554.3" cy="290.1" r="3" fill="#ef4444"/>
<circle cx="600.7" cy="324.2" r="3" fill="#ef4444"/>
<circle cx="647.1" cy="358.3" r="3" fill="#ef4444"/>
<circle cx="740.0" cy="426.6" r="3" fill="#ef4444"/>
<circle cx="832.9" cy="494.8" r="3" fill="#ef4444"/>
<polyline fill="none" stroke="#1a6b3c" stroke-width="2" points="189.9,68.3 241.5,69.1 290.3,83.6 337.6,128.7"/>
<polygon points="189.9,64.3 193.9,68.3 189.9,72.3 185.9,68.3" fill="#1a6b3c"/>
<polygon points="241.5,65.1 245.5,69.1 241.5,73.1 237.5,69.1" fill="#1a6b3c"/>
<polygon points="290.3,79.6 294.3,83.6 290.3,87.6 286.3,83.6" fill="#1a6b3c"/>
<polygon points="337.6,124.7 341.6,128.7 337.6,132.7 333.6,128.7" fill="#1a6b3c"/>
<polyline fill="none" stroke="#1a3a6b" stroke-width="2" points="168.5,107.9 214.6,123.5 261.3,131.9 308.0,134.8 354.2,135.6 400.4,135.6 447.1,135.6 493.7,135.6 539.9,135.6"/>
<polygon points="168.5,102.9 167.3,106.2 163.7,106.3 166.6,108.5 165.5,111.9 168.5,109.9 171.4,111.9 170.4,108.5 173.2,106.3 169.7,106.2" fill="#1a3a6b"/>
<polygon points="214.6,118.5 213.5,121.9 209.9,122.0 212.7,124.2 211.7,127.6 214.6,125.5 217.6,127.6 216.5,124.2 219.4,122.0 215.8,121.9" fill="#1a3a6b"/>
<polygon points="261.3,126.9 260.2,130.3 256.6,130.4 259.4,132.5 258.4,136.0 261.3,133.9 264.3,136.0 263.2,132.5 266.1,130.4 262.5,130.3" fill="#1a3a6b"/>
<polygon points="308.0,129.8 306.8,133.2 303.2,133.3 306.1,135.4 305.0,138.9 308.0,136.8 310.9,138.9 309.9,135.4 312.7,133.3 309.2,133.2" fill="#1a3a6b"/>
<polygon points="354.2,130.6 353.0,134.0 349.4,134.0 352.3,136.2 351.3,139.6 354.2,137.6 357.1,139.6 356.1,136.2 358.9,134.0 355.4,134.0" fill="#1a3a6b"/>
<polygon points="400.4,130.6 399.2,134.0 395.6,134.1 398.5,136.2 397.4,139.7 400.4,137.6 403.3,139.7 402.3,136.2 405.1,134.1 401.5,134.0" fill="#1a3a6b"/>
<polygon points="447.1,130.6 445.9,134.0 442.3,134.1 445.2,136.2 444.1,139.7 447.1,137.6 450.0,139.7 449.0,136.2 451.8,134.1 448.2,134.0" fill="#1a3a6b"/>
<polygon points="493.7,130.6 492.5,134.0 488.9,134.1 491.8,136.2 490.8,139.7 493.7,137.6 496.6,139.7 495.6,136.2 498.4,134.1 494.9,134.0" fill="#1a3a6b"/>
<polygon points="539.9,130.6 538.7,134.0 535.2,134.1 538.0,136.2 537.0,139.7 539.9,137.6 542.8,139.7 541.8,136.2 544.7,134.1 541.1,134.0" fill="#1a3a6b"/>
<polyline fill="none" stroke="#111111" stroke-width="2" points="351.9,115.3"/>
<rect x="348.9" y="112.3" width="6" height="6" fill="#111111"/>
<polyline fill="none" stroke="#111111" stroke-width="2" points="537.7,115.3"/>
<polygon points="537.7,111.3 541.7,118.3 533.7,118.3" fill="#111111"/>
<polyline fill="none" stroke="#111111" stroke-width="2" points="537.7,312.7"/>
<polygon points="537.7,308.7 541.7,312.7 537.7,316.7 533.7,312.7" fill="#111111"/>
<polyline fill="none" stroke="#2a7fff" stroke-width="2" points="90.0,68.3 90.0,68.3 90.1,68.3 90.1,68.3 90.3,68.3 90.5,68.3 91.1,68.3 92.2,68.3 94.4,68.3 98.7,68.3 107.2,68.3 121.7,68.3 142.6,68.3 168.1,68.3 195.6,68.3 222.6,68.3 248.5,69.0 297.7,84.1 345.2,128.8 368.6,521.7 368.6,521.7"/>
<rect x="87.0" y="65.3" width="6" height="6" fill="#2a7fff"/>
<rect x="87.0" y="65.3" width="6" height="6" fill="#2a7fff"/>
<rect x="87.1" y="65.3" width="6" height="6" fill="#2a7fff"/>
<rect x="87.1" y="65.3" width="6" height="6" fill="#2a7fff"/>
<rect x="87.3" y="65.3" width="6" height="6" fill="#2a7fff"/>
<rect x="87.5" y="65.3" width="6" height="6" fill="#2a7fff"/>
<rect x="88.1" y="65.3" width="6" height="6" fill="#2a7fff"/>
<rect x="89.2" y="65.3" width="6" height="6" fill="#2a7fff"/>
<rect x="91.4" y="65.3" width="6" height="6" fill="#2a7fff"/>
<rect x="95.7" y="65.3" width="6" height="6" fill="#2a7fff"/>
<rect x="104.2" y="65.3" width="6" height="6" fill="#2a7fff"/>
<rect x="118.7" y="65.3" width="6" height="6" fill="#2a7fff"/>
<rect x="139.6" y="65.3" width="6" height="6" fill="#2a7fff"/>
<rect x="165.1" y="65.3" width="6" height="6" fill="#2a7fff"/>
<rect x="192.6" y="65.3" width="6" height="6" fill="#2a7fff"/>
<rect x="219.6" y="65.3" width="6" height="6" fill="#2a7fff"/>
<rect x="245.5" y="66.0" width="6" height="6" fill="#2a7fff"/>
<rect x="294.7" y="81.1" width="6" height="6" fill="#2a7fff"/>
<rect x="342.2" y="125.8" width="6" height="6" fill="#2a7fff"/>
<rect x="365.6" y="518.7" width="6" height="6" fill="#2a7fff"/>
<rect x="365.6" y="518.7" width="6" height="6" fill="#2a7fff"/>
<polyline fill="none" stroke="#9b59b6" stroke-width="2" points="90.0,68.3 90.0,68.3 90.1,68.3 90.1,68.3 90.2,68.3 90.4,68.3 90.9,68.7 91.7,70.0 93.2,72.4 95.9,76.4 100.4,82.4 107.2,90.7 117.9,100.9 131.6,113.2 150.2,125.8 173.4,140.9 199.7,157.1 263.6,192.6 335.0,239.7 438.2,521.7 531.1,521.7"/>
<polygon points="90.0,64.3 94.0,71.3 86.0,71.3" fill="#9b59b6"/>
<polygon points="90.0,64.3 94.0,71.3 86.0,71.3" fill="#9b59b6"/>
<polygon points="90.1,64.3 94.1,71.3 86.1,71.3" fill="#9b59b6"/>
<polygon points="90.1,64.3 94.1,71.3 86.1,71.3" fill="#9b59b6"/>
<polygon points="90.2,64.3 94.2,71.3 86.2,71.3" fill="#9b59b6"/>
<polygon points="90.4,64.3 94.4,71.3 86.4,71.3" fill="#9b59b6"/>
<polygon points="90.9,64.7 94.9,71.7 86.9,71.7" fill="#9b59b6"/>
<polygon points="91.7,66.0 95.7,73.0 87.7,73.0" fill="#9b59b6"/>
<polygon points="93.2,68.4 97.2,75.4 89.2,75.4" fill="#9b59b6"/>
<polygon points="95.9,72.4 99.9,79.4 91.9,79.4" fill="#9b59b6"/>
<polygon points="100.4,78.4 104.4,85.4 96.4,85.4" fill="#9b59b6"/>
<polygon points="107.2,86.7 111.2,93.7 103.2,93.7" fill="#9b59b6"/>
<polygon points="117.9,96.9 121.9,103.9 113.9,103.9" fill="#9b59b6"/>
<polygon points="131.6,109.2 135.6,116.2 127.6,116.2" fill="#9b59b6"/>
<polygon points="150.2,121.8 154.2,128.8 146.2,128.8" fill="#9b59b6"/>
<polygon points="173.4,136.9 177.4,143.9 169.4,143.9" fill="#9b59b6"/>
<polygon points="199.7,153.1 203.7,160.1 195.7,160.1" fill="#9b59b6"/>
<polygon points="263.6,188.6 267.6,195.6 259.6,195.6" fill="#9b59b6"/>
<polygon points="335.0,235.7 339.0,242.7 331.0,242.7" fill="#9b59b6"/>
<polygon points="438.2,517.7 442.2,524.7 434.2,524.7" fill="#9b59b6"/>
<polygon points="531.1,517.7 535.1,524.7 527.1,524.7" fill="#9b59b6"/>
<polyline fill="none" stroke="#4dd88a" stroke-width="2" points="90.0,68.3 90.0,68.3 90.1,68.3 90.1,68.3 90.3,68.3 90.5,68.3 91.1,68.3 92.2,68.3 94.4,68.3 98.7,68.3 107.2,68.3 121.7,68.3 142.6,68.3 168.1,68.3 195.6,68.3 222.6,68.3 248.5,69.0 297.7,84.1 345.2,128.8 438.2,521.7 531.1,521.7"/>
<polygon points="90.0,64.3 94.0,68.3 90.0,72.3 86.0,68.3" fill="#4dd88a"/>
<polygon points="90.0,64.3 94.0,68.3 90.0,72.3 86.0,68.3" fill="#4dd88a"/>
<polygon points="90.1,64.3 94.1,68.3 90.1,72.3 86.1,68.3" fill="#4dd88a"/>
<polygon points="90.1,64.3 94.1,68.3 90.1,72.3 86.1,68.3" fill="#4dd88a"/>
<polygon points="90.3,64.3 94.3,68.3 90.3,72.3 86.3,68.3" fill="#4dd88a"/>
<polygon points="90.5,64.3 94.5,68.3 90.5,72.3 86.5,68.3" fill="#4dd88a"/>
<polygon points="91.1,64.3 95.1,68.3 91.1,72.3 87.1,68.3" fill="#4dd88a"/>
<polygon points="92.2,64.3 96.2,68.3 92.2,72.3 88.2,68.3" fill="#4dd88a"/>
<polygon points="94.4,64.3 98.4,68.3 94.4,72.3 90.4,68.3" fill="#4dd88a"/>
<polygon points="98.7,64.3 102.7,68.3 98.7,72.3 94.7,68.3" fill="#4dd88a"/>
<polygon points="107.2,64.3 111.2,68.3 107.2,72.3 103.2,68.3" fill="#4dd88a"/>
<polygon points="121.7,64.3 125.7,68.3 121.7,72.3 117.7,68.3" fill="#4dd88a"/>
<polygon points="142.6,64.3 146.6,68.3 142.6,72.3 138.6,68.3" fill="#4dd88a"/>
<polygon points="168.1,64.3 172.1,68.3 168.1,72.3 164.1,68.3" fill="#4dd88a"/>
<polygon points="195.6,64.3 199.6,68.3 195.6,72.3 191.6,68.3" fill="#4dd88a"/>
<polygon points="222.6,64.3 226.6,68.3 222.6,72.3 218.6,68.3" fill="#4dd88a"/>
<polygon points="248.5,65.0 252.5,69.0 248.5,73.0 244.5,69.0" fill="#4dd88a"/>
<polygon points="297.7,80.1 301.7,84.1 297.7,88.1 293.7,84.1" fill="#4dd88a"/>
<polygon points="345.2,124.8 349.2,128.8 345.2,132.8 341.2,128.8" fill="#4dd88a"/>
<polygon points="438.2,517.7 442.2,521.7 438.2,525.7 434.2,521.7" fill="#4dd88a"/>
<polygon points="531.1,517.7 535.1,521.7 531.1,525.7 527.1,521.7" fill="#4dd88a"/>
<polyline fill="none" stroke="#ff6b6b" stroke-width="2" points="90.2,68.3 90.3,68.3 90.4,68.3 90.7,68.3 91.1,68.3 92.0,68.3 93.3,68.8 95.0,70.0 97.5,72.4 101.3,76.4 106.6,82.5 114.3,90.8 125.3,101.1 138.7,113.5 156.8,126.2 179.6,141.3 204.9,157.5 266.3,193.0 334.8,239.9 434.0,521.7 523.5,521.7"/>
<polygon points="90.2,63.3 89.0,66.7 85.4,66.8 88.3,69.0 87.3,72.4 90.2,70.3 93.1,72.4 92.1,69.0 95.0,66.8 91.4,66.7" fill="#ff6b6b"/>
<polygon points="90.3,63.3 89.1,66.7 85.5,66.8 88.4,69.0 87.3,72.4 90.3,70.3 93.2,72.4 92.2,69.0 95.0,66.8 91.4,66.7" fill="#ff6b6b"/>
<polygon points="90.4,63.3 89.2,66.7 85.6,66.8 88.5,69.0 87.5,72.4 90.4,70.3 93.3,72.4 92.3,69.0 95.1,66.8 91.6,66.7" fill="#ff6b6b"/>
<polygon points="90.7,63.3 89.5,66.7 85.9,66.8 88.7,69.0 87.7,72.4 90.7,70.3 93.6,72.4 92.6,69.0 95.4,66.8 91.8,66.7" fill="#ff6b6b"/>
<polygon points="91.1,63.3 90.0,66.7 86.4,66.8 89.2,69.0 88.2,72.4 91.1,70.3 94.1,72.4 93.0,69.0 95.9,66.8 92.3,66.7" fill="#ff6b6b"/>
<polygon points="92.0,63.3 90.8,66.7 87.2,66.8 90.1,69.0 89.0,72.4 92.0,70.3 94.9,72.4 93.9,69.0 96.7,66.8 93.2,66.7" fill="#ff6b6b"/>
<polygon points="93.3,63.8 92.1,67.1 88.5,67.2 91.4,69.4 90.3,72.8 93.3,70.8 96.2,72.8 95.2,69.4 98.0,67.2 94.5,67.1" fill="#ff6b6b"/>
<polygon points="95.0,65.0 93.9,68.4 90.3,68.5 93.1,70.6 92.1,74.1 95.0,72.0 98.0,74.1 96.9,70.6 99.8,68.5 96.2,68.4" fill="#ff6b6b"/>
<polygon points="97.5,67.4 96.4,70.8 92.8,70.8 95.6,73.0 94.6,76.4 97.5,74.4 100.5,76.4 99.4,73.0 102.3,70.8 98.7,70.8" fill="#ff6b6b"/>
<polygon points="101.3,71.4 100.1,74.8 96.5,74.9 99.4,77.0 98.3,80.5 101.3,78.4 104.2,80.5 103.2,77.0 106.0,74.9 102.4,74.8" fill="#ff6b6b"/>
<polygon points="106.6,77.5 105.4,80.8 101.8,80.9 104.7,83.1 103.6,86.5 106.6,84.5 109.5,86.5 108.5,83.1 111.3,80.9 107.8,80.8" fill="#ff6b6b"/>
<polygon points="114.3,85.8 113.1,89.2 109.5,89.3 112.4,91.4 111.3,94.9 114.3,92.8 117.2,94.9 116.2,91.4 119.0,89.3 115.5,89.2" fill="#ff6b6b"/>
<polygon points="125.3,96.1 124.1,99.5 120.6,99.6 123.4,101.7 122.4,105.2 125.3,103.1 128.3,105.2 127.2,101.7 130.1,99.6 126.5,99.5" fill="#ff6b6b"/>
<polygon points="138.7,108.5 137.6,111.9 134.0,111.9 136.8,114.1 135.8,117.5 138.7,115.5 141.7,117.5 140.6,114.1 143.5,111.9 139.9,111.9" fill="#ff6b6b"/>
<polygon points="156.8,121.2 155.6,124.5 152.0,124.6 154.9,126.8 153.9,130.2 156.8,128.2 159.7,130.2 158.7,126.8 161.5,124.6 158.0,124.5" fill="#ff6b6b"/>
<polygon points="179.6,136.3 178.4,139.7 174.8,139.8 177.7,141.9 176.7,145.3 179.6,143.3 182.5,145.3 181.5,141.9 184.4,139.8 180.8,139.7" fill="#ff6b6b"/>
<polygon points="204.9,152.5 203.8,155.9 200.2,156.0 203.0,158.1 202.0,161.6 204.9,159.5 207.9,161.6 206.8,158.1 209.7,156.0 206.1,155.9" fill="#ff6b6b"/>
<polygon points="266.3,188.0 265.2,191.4 261.6,191.5 264.4,193.6 263.4,197.1 266.3,195.0 269.3,197.1 268.2,193.6 271.1,191.5 267.5,191.4" fill="#ff6b6b"/>
<polygon points="334.8,234.9 333.6,238.3 330.0,238.4 332.9,240.6 331.9,244.0 334.8,241.9 337.7,244.0 336.7,240.6 339.6,238.4 336.0,238.3" fill="#ff6b6b"/>
<polygon points="434.0,516.7 432.8,520.0 429.3,520.1 432.1,522.3 431.1,525.7 434.0,523.7 437.0,525.7 435.9,522.3 438.8,520.1 435.2,520.0" fill="#ff6b6b"/>
<polygon points="523.5,516.7 522.3,520.0 518.7,520.1 521.6,522.3 520.5,525.7 523.5,523.7 526.4,525.7 525.4,522.3 528.2,520.1 524.6,520.0" fill="#ff6b6b"/>
<polyline fill="none" stroke="#ff922b" stroke-width="2" points="437.9,268.4 461.4,304.4 484.7,353.3 507.9,415.4 531.1,521.7 554.3,521.7 577.5,521.7 600.8,521.7 647.2,521.7 670.4,521.7"/>
<circle cx="437.9" cy="268.4" r="3" fill="#ff922b"/>
<circle cx="461.4" cy="304.4" r="3" fill="#ff922b"/>
<circle cx="484.7" cy="353.3" r="3" fill="#ff922b"/>
<circle cx="507.9" cy="415.4" r="3" fill="#ff922b"/>
<circle cx="531.1" cy="521.7" r="3" fill="#ff922b"/>
<circle cx="554.3" cy="521.7" r="3" fill="#ff922b"/>
<circle cx="577.5" cy="521.7" r="3" fill="#ff922b"/>
<circle cx="600.8" cy="521.7" r="3" fill="#ff922b"/>
<circle cx="647.2" cy="521.7" r="3" fill="#ff922b"/>
<circle cx="670.4" cy="521.7" r="3" fill="#ff922b"/>
<polyline fill="none" stroke="#888888" stroke-width="2" stroke-dasharray="8,5" points="433.2,124.3 468.0,141.8 513.0,165.7 546.7,181.5 580.3,198.7 624.7,223.0 658.2,238.6 691.7,252.8 736.0,281.9 769.5,290.8"/>
<circle cx="433.2" cy="124.3" r="3" fill="#888888"/>
<circle cx="468.0" cy="141.8" r="3" fill="#888888"/>
<circle cx="513.0" cy="165.7" r="3" fill="#888888"/>
<circle cx="546.7" cy="181.5" r="3" fill="#888888"/>
<circle cx="580.3" cy="198.7" r="3" fill="#888888"/>
<circle cx="624.7" cy="223.0" r="3" fill="#888888"/>
<circle cx="658.2" cy="238.6" r="3" fill="#888888"/>
<circle cx="691.7" cy="252.8" r="3" fill="#888888"/>
<circle cx="736.0" cy="281.9" r="3" fill="#888888"/>
<circle cx="769.5" cy="290.8" r="3" fill="#888888"/>
<line x1="886" y1="60" x2="902" y2="60" stroke="#ef4444" stroke-width="2" stroke-dasharray="8,5"/>
<circle cx="894.0" cy="60.0" r="3" fill="#ef4444"/>
<text class="label" x="908" y="64">Theoretical</text>
<line x1="886" y1="78" x2="902" y2="78" stroke="#1a6b3c" stroke-width="2"/>
<polygon points="894.0,74.0 898.0,78.0 894.0,82.0 890.0,78.0" fill="#1a6b3c"/>
<text class="label" x="908" y="82">Grafite</text>
<line x1="886" y1="96" x2="902" y2="96" stroke="#1a3a6b" stroke-width="2"/>
<polygon points="894.0,91.0 892.8,94.4 889.2,94.5 892.1,96.6 891.1,100.0 894.0,98.0 896.9,100.0 895.9,96.6 898.8,94.5 895.2,94.4" fill="#1a3a6b"/>
<text class="label" x="908" y="100">SNARF</text>
<line x1="886" y1="114" x2="902" y2="114" stroke="#111111" stroke-width="2"/>
<rect x="891.0" y="111.0" width="6" height="6" fill="#111111"/>
<text class="label" x="908" y="118">SuRF</text>
<line x1="886" y1="132" x2="902" y2="132" stroke="#111111" stroke-width="2"/>
<polygon points="894.0,128.0 898.0,135.0 890.0,135.0" fill="#111111"/>
<text class="label" x="908" y="136">SuRFHash(8)</text>
<line x1="886" y1="150" x2="902" y2="150" stroke="#111111" stroke-width="2"/>
<polygon points="894.0,146.0 898.0,150.0 894.0,154.0 890.0,150.0" fill="#111111"/>
<text class="label" x="908" y="154">SuRFReal(8)</text>
<line x1="886" y1="168" x2="902" y2="168" stroke="#2a7fff" stroke-width="2"/>
<rect x="891.0" y="165.0" width="6" height="6" fill="#2a7fff"/>
<text class="label" x="908" y="172">Adaptive (t=0)</text>
<line x1="886" y1="186" x2="902" y2="186" stroke="#9b59b6" stroke-width="2"/>
<polygon points="894.0,182.0 898.0,189.0 890.0,189.0" fill="#9b59b6"/>
<text class="label" x="908" y="190">Truncation</text>
<line x1="886" y1="204" x2="902" y2="204" stroke="#4dd88a" stroke-width="2"/>
<polygon points="894.0,200.0 898.0,204.0 894.0,208.0 890.0,204.0" fill="#4dd88a"/>
<text class="label" x="908" y="208">SODA</text>
<line x1="886" y1="222" x2="902" y2="222" stroke="#ff6b6b" stroke-width="2"/>
<polygon points="894.0,217.0 892.8,220.4 889.2,220.5 892.1,222.6 891.1,226.0 894.0,224.0 896.9,226.0 895.9,222.6 898.8,220.5 895.2,220.4" fill="#ff6b6b"/>
<text class="label" x="908" y="226">Hybrid</text>
<line x1="886" y1="240" x2="902" y2="240" stroke="#ff922b" stroke-width="2"/>
<circle cx="894.0" cy="240.0" r="3" fill="#ff922b"/>
<text class="label" x="908" y="244">CDF-ARE</text>
<line x1="886" y1="258" x2="902" y2="258" stroke="#888888" stroke-width="2" stroke-dasharray="8,5"/>
<circle cx="894.0" cy="258.0" r="3" fill="#888888"/>
<text class="label" x="908" y="262">BloomARE</text>
<text x="480" y="590" text-anchor="middle">Bits per Key (BPK)</text>
<text transform="translate(16,295) rotate(-90)" text-anchor="middle">False Positive Rate (FPR)</text>
</svg>
