<svg xmlns="http://www.w3.org/2000/svg" width="1020" height="600" viewBox="0 0 1020 600">
<style>text{font-family:Menlo,Monaco,monospace;font-size:12px;fill:#222} .axis{stroke:#333;stroke-width:1} .grid{stroke:#eee;stroke-width:0.5} .label{font-size:11px;fill:#444}</style>
<text x="510" y="28" text-anchor="middle" style="font-size:14px;font-weight:bold">FPR vs BPK — sosd_fb (60-bit keys, n=65536, L=16)</text>
<line class="axis" x1="90.0" y1="550.0" x2="870.0" y2="550.0"/>
<line class="axis" x1="90.0" y1="40.0" x2="90.0" y2="550.0"/>
<line class="grid" x1="90.0" y1="521.7" x2="870.0" y2="521.7"/>
<text class="label" x="82.0" y="525.7" text-anchor="end">10^-8</text>
<line class="grid" x1="90.0" y1="465.0" x2="870.0" y2="465.0"/>
<text class="label" x="82.0" y="469.0" text-anchor="end">10^-7</text>
<line class="grid" x1="90.0" y1="408.3" x2="870.0" y2="408.3"/>
<text class="label" x="82.0" y="412.3" text-anchor="end">10^-6</text>
<line class="grid" x1="90.0" y1="351.7" x2="870.0" y2="351.7"/>
<text class="label" x="82.0" y="355.7" text-anchor="end">10^-5</text>
<line class="grid" x1="90.0" y1="295.0" x2="870.0" y2="295.0"/>
<text class="label" x="82.0" y="299.0" text-anchor="end">10^-4</text>
<line class="grid" x1="90.0" y1="238.3" x2="870.0" y2="238.3"/>
<text class="label" x="82.0" y="242.3" text-anchor="end">10^-3</text>
<line class="grid" x1="90.0" y1="181.7" x2="870.0" y2="181.7"/>
<text class="label" x="82.0" y="185.7" text-anchor="end">10^-2</text>
<line class="grid" x1="90.0" y1="125.0" x2="870.0" y2="125.0"/>
<text class="label" x="82.0" y="129.0" text-anchor="end">10^-1</text>
<line class="grid" x1="90.0" y1="68.3" x2="870.0" y2="68.3"/>
<text class="label" x="82.0" y="72.3" text-anchor="end">1</text>
<line class="grid" x1="90.0" y1="40.0" x2="90.0" y2="550.0"/>
<text class="label" x="90.0" y="566.0" text-anchor="middle">0</text>
<line class="grid" x1="206.1" y1="40.0" x2="206.1" y2="550.0"/>
<text class="label" x="206.1" y="566.0" text-anchor="middle">5</text>
<line class="grid" x1="322.1" y1="40.0" x2="322.1" y2="550.0"/>
<text class="label" x="322.1" y="566.0" text-anchor="middle">10</text>
<line class="grid" x1="438.2" y1="40.0" x2="438.2" y2="550.0"/>
<text class="label" x="438.2" y="566.0" text-anchor="middle">15</text>
<line class="grid" x1="554.3" y1="40.0" x2="554.3" y2="550.0"/>
<text class="label" x="554.3" y="566.0" text-anchor="middle">20</text>
<line class="grid" x1="670.4" y1="40.0" x2="670.4" y2="550.0"/>
<text class="label" x="670.4" y="566.0" text-anchor="middle">25</text>
<line class="grid" x1="786.4" y1="40.0" x2="786.4" y2="550.0"/>
<text class="label" x="786.4" y="566.0" text-anchor="middle">30</text>
<polyline fill="none" stroke="#ef4444" stroke-width="2" stroke-dasharray="8,5" points="182.9,68.3 206.1,85.4 229.3,102.5 252.5,119.5 275.7,136.6 298.9,153.6 322.1,170.7 345.4,187.7 368.6,204.8 391.8,221.9 415.0,238.9 438.2,256.0 461.4,273.0 484.6,290.1 507.9,307.2 531.1,324.2 554.3,341.3 600.7,375.4 647.1,409.5 740.0,477.7 832.9,546.0"/>
<circle cx="182.9" cy="68.3" r="3" fill="#ef4444"/>
<circle cx="206.1" cy="85.4" r="3" fill="#ef4444"/>
<circle cx="229.3" cy="102.5" r="3" fill="#ef4444"/>
<circle cx="252.5" cy="119.5" r="3" fill="#ef4444"/>
<circle cx="275.7" cy="136.6" r="3" fill="#ef4444"/>
<circle cx="298.9" cy="153.6" r="3" fill="#ef4444"/>
<circle cx="322.1" cy="170.7" r="3" fill="#ef4444"/>
<circle cx="345.4" cy="187.7" r="3" fill="#ef4444"/>
<circle cx="368.6" cy="204.8" r="3" fill="#ef4444"/>
<circle cx="391.8" cy="221.9" r="3" fill="#ef4444"/>
<circle cx="415.0" cy="238.9" r="3" fill="#ef4444"/>
<circle cx="438.2" cy="256.0" r="3" fill="#ef4444"/>
<circle cx="461.4" cy="273.0" r="3" fill="#ef4444"/>
<circle cx="484.6" cy="290.1" r="3" fill="#ef4444"/>
<circle cx="507.9" cy="307.2" r="3" fill="#ef4444"/>
<circle cx="531.1" cy="324.2" r="3" fill="#ef4444"/>
<circle cx="554.3" cy="341.3" r="3" fill="#ef4444"/>
<circle cx="600.7" cy="375.4" r="3" fill="#ef4444"/>
<circle cx="647.1" cy="409.5" r="3" fill="#ef4444"/>
<circle cx="740.0" cy="477.7" r="3" fill="#ef4444"/>
<circle cx="832.9" cy="546.0" r="3" fill="#ef4444"/>
<polyline fill="none" stroke="#1a6b3c" stroke-width="2" points="189.9,69.6 241.5,85.1 290.2,116.8 337.6,167.4"/>
<polygon points="189.9,65.6 193.9,69.6 189.9,73.6 185.9,69.6" fill="#1a6b3c"/>
<polygon points="241.5,81.1 245.5,85.1 241.5,89.1 237.5,85.1" fill="#1a6b3c"/>
<polygon points="290.2,112.8 294.2,116.8 290.2,120.8 286.2,116.8" fill="#1a6b3c"/>
<polygon points="337.6,163.4 341.6,167.4 337.6,171.4 333.6,167.4" fill="#1a6b3c"/>
<polyline fill="none" stroke="#1a3a6b" stroke-width="2" points="168.5,106.8 214.6,129.7 261.3,150.4 308.0,163.2 354.2,167.8 400.4,168.0 447.1,168.1 493.7,168.1 539.9,168.1"/>
<polygon points="168.5,101.8 167.3,105.2 163.7,105.3 166.6,107.5 165.5,110.9 168.5,108.8 171.4,110.9 170.4,107.5 173.2,105.3 169.7,105.2" fill="#1a3a6b"/>
<polygon points="214.6,124.7 213.5,128.1 209.9,128.2 212.7,130.3 211.7,133.8 214.6,131.7 217.6,133.8 216.5,130.3 219.4,128.2 215.8,128.1" fill="#1a3a6b"/>
<polygon points="261.3,145.4 260.2,148.8 256.6,148.9 259.4,151.1 258.4,154.5 261.3,152.4 264.3,154.5 263.2,151.1 266.1,148.9 262.5,148.8" fill="#1a3a6b"/>
<polygon points="308.0,158.2 306.8,161.6 303.2,161.6 306.1,163.8 305.0,167.2 308.0,165.2 310.9,167.2 309.9,163.8 312.7,161.6 309.2,161.6" fill="#1a3a6b"/>
<polygon points="354.2,162.8 353.0,166.2 349.4,166.2 352.3,168.4 351.3,171.8 354.2,169.8 357.1,171.8 356.1,168.4 358.9,166.2 355.4,166.2" fill="#1a3a6b"/>
<polygon points="400.4,163.0 399.2,166.4 395.6,166.5 398.5,168.6 397.4,172.1 400.4,170.0 403.3,172.1 402.3,168.6 405.1,166.5 401.5,166.4" fill="#1a3a6b"/>
<polygon points="447.1,163.1 445.9,166.5 442.3,166.5 445.2,168.7 444.1,172.1 447.1,170.1 450.0,172.1 449.0,168.7 451.8,166.5 448.2,166.5" fill="#1a3a6b"/>
<polygon points="493.7,163.1 492.5,166.5 488.9,166.5 491.8,168.7 490.8,172.1 493.7,170.1 496.6,172.1 495.6,168.7 498.4,166.5 494.9,166.5" fill="#1a3a6b"/>
<polygon points="539.9,163.1 538.7,166.5 535.2,166.5 538.0,168.7 537.0,172.1 539.9,170.1 542.8,172.1 541.8,168.7 544.7,166.5 541.1,166.5" fill="#1a3a6b"/>
<polyline fill="none" stroke="#111111" stroke-width="2" points="351.9,114.9"/>
<rect x="348.9" y="111.9" width="6" height="6" fill="#111111"/>
<polyline fill="none" stroke="#111111" stroke-width="2" points="537.7,114.9"/>
<polygon points="537.7,110.9 541.7,117.9 533.7,117.9" fill="#111111"/>
<polyline fill="none" stroke="#111111" stroke-width="2" points="537.7,316.1"/>
<polygon points="537.7,312.1 541.7,316.1 537.7,320.1 533.7,316.1" fill="#111111"/>
<polyline fill="none" stroke="#2a7fff" stroke-width="2" points="90.0,68.3 90.0,68.3 90.1,68.3 90.1,68.3 90.3,68.3 90.5,68.3 91.1,68.3 92.2,68.3 94.4,68.3 98.7,68.3 107.2,68.3 121.7,68.3 142.6,68.3 168.1,68.4 195.6,69.6 222.6,75.0 248.5,85.1 297.7,116.9 345.2,166.4 368.6,521.7 368.6,521.7"/>
<rect x="87.0" y="65.3" width="6" height="6" fill="#2a7fff"/>
<rect x="87.0" y="65.3" width="6" height="6" fill="#2a7fff"/>
<rect x="87.1" y="65.3" width="6" height="6" fill="#2a7fff"/>
<rect x="87.1" y="65.3" width="6" height="6" fill="#2a7fff"/>
<rect x="87.3" y="65.3" width="6" height="6" fill="#2a7fff"/>
<rect x="87.5" y="65.3" width="6" height="6" fill="#2a7fff"/>
<rect x="88.1" y="65.3" width="6" height="6" fill="#2a7fff"/>
<rect x="89.2" y="65.3" width="6" height="6" fill="#2a7fff"/>
<rect x="91.4" y="65.3" width="6" height="6" fill="#2a7fff"/>
<rect x="95.7" y="65.3" width="6" height="6" fill="#2a7fff"/>
<rect x="104.2" y="65.3" width="6" height="6" fill="#2a7fff"/>
<rect x="118.7" y="65.3" width="6" height="6" fill="#2a7fff"/>
<rect x="139.6" y="65.3" width="6" height="6" fill="#2a7fff"/>
<rect x="165.1" y="65.4" width="6" height="6" fill="#2a7fff"/>
<rect x="192.6" y="66.6" width="6" height="6" fill="#2a7fff"/>
<rect x="219.6" y="72.0" width="6" height="6" fill="#2a7fff"/>
<rect x="245.5" y="82.1" width="6" height="6" fill="#2a7fff"/>
<rect x="294.7" y="113.9" width="6" height="6" fill="#2a7fff"/>
<rect x="342.2" y="163.4" width="6" height="6" fill="#2a7fff"/>
<rect x="365.6" y="518.7" width="6" height="6" fill="#2a7fff"/>
<rect x="365.6" y="518.7" width="6" height="6" fill="#2a7fff"/>
<polyline fill="none" stroke="#9b59b6" stroke-width="2" points="90.0,68.3 90.0,68.3 90.1,68.3 90.1,68.3 90.2,68.3 90.4,68.3 90.9,68.7 91.7,69.8 93.2,71.9 95.9,75.4 100.4,80.5 107.2,87.4 117.9,95.9 131.6,106.2 150.2,118.0 173.4,131.3 199.7,145.8 263.6,178.8 335.0,225.7 438.2,521.7 531.1,521.7"/>
<polygon points="90.0,64.3 94.0,71.3 86.0,71.3" fill="#9b59b6"/>
<polygon points="90.0,64.3 94.0,71.3 86.0,71.3" fill="#9b59b6"/>
<polygon points="90.1,64.3 94.1,71.3 86.1,71.3" fill="#9b59b6"/>
<polygon points="90.1,64.3 94.1,71.3 86.1,71.3" fill="#9b59b6"/>
<polygon points="90.2,64.3 94.2,71.3 86.2,71.3" fill="#9b59b6"/>
<polygon points="90.4,64.3 94.4,71.3 86.4,71.3" fill="#9b59b6"/>
<polygon points="90.9,64.7 94.9,71.7 86.9,71.7" fill="#9b59b6"/>
<polygon points="91.7,65.8 95.7,72.8 87.7,72.8" fill="#9b59b6"/>
<polygon points="93.2,67.9 97.2,74.9 89.2,74.9" fill="#9b59b6"/>
<polygon points="95.9,71.4 99.9,78.4 91.9,78.4" fill="#9b59b6"/>
<polygon points="100.4,76.5 104.4,83.5 96.4,83.5" fill="#9b59b6"/>
<polygon points="107.2,83.4 111.2,90.4 103.2,90.4" fill="#9b59b6"/>
<polygon points="117.9,91.9 121.9,98.9 113.9,98.9" fill="#9b59b6"/>
<polygon points="131.6,102.2 135.6,109.2 127.6,109.2" fill="#9b59b6"/>
<polygon points="150.2,114.0 154.2,121.0 146.2,121.0" fill="#9b59b6"/>
<polygon points="173.4,127.3 177.4,134.3 169.4,134.3" fill="#9b59b6"/>
<polygon points="199.7,141.8 203.7,148.8 195.7,148.8" fill="#9b59b6"/>
<polygon points="263.6,174.8 267.6,181.8 259.6,181.8" fill="#9b59b6"/>
<polygon points="335.0,221.7 339.0,228.7 331.0,228.7" fill="#9b59b6"/>
<polygon points="438.2,517.7 442.2,524.7 434.2,524.7" fill="#9b59b6"/>
<polygon points="531.1,517.7 535.1,524.7 527.1,524.7" fill="#9b59b6"/>
<polyline fill="none" stroke="#4dd88a" stroke-width="2" points="90.0,68.3 90.0,68.3 90.1,68.3 90.1,68.3 90.3,68.3 90.5,68.3 91.1,68.3 92.2,68.3 94.4,68.3 98.7,68.3 107.2,68.3 121.7,68.3 142.6,68.3 168.1,68.4 195.6,69.6 222.6,75.0 248.5,85.1 297.7,116.9 345.2,166.4 438.2,521.7 531.1,521.7"/>
<polygon points="90.0,64.3 94.0,68.3 90.0,72.3 86.0,68.3" fill="#4dd88a"/>
<polygon points="90.0,64.3 94.0,68.3 90.0,72.3 86.0,68.3" fill="#4dd88a"/>
<polygon points="90.1,64.3 94.1,68.3 90.1,72.3 86.1,68.3" fill="#4dd88a"/>
<polygon points="90.1,64.3 94.1,68.3 90.1,72.3 86.1,68.3" fill="#4dd88a"/>
<polygon points="90.3,64.3 94.3,68.3 90.3,72.3 86.3,68.3" fill="#4dd88a"/>
<polygon points="90.5,64.3 94.5,68.3 90.5,72.3 86.5,68.3" fill="#4dd88a"/>
<polygon points="91.1,64.3 95.1,68.3 91.1,72.3 87.1,68.3" fill="#4dd88a"/>
<polygon points="92.2,64.3 96.2,68.3 92.2,72.3 88.2,68.3" fill="#4dd88a"/>
<polygon points="94.4,64.3 98.4,68.3 94.4,72.3 90.4,68.3" fill="#4dd88a"/>
<polygon points="98.7,64.3 102.7,68.3 98.7,72.3 94.7,68.3" fill="#4dd88a"/>
<polygon points="107.2,64.3 111.2,68.3 107.2,72.3 103.2,68.3" fill="#4dd88a"/>
<polygon points="121.7,64.3 125.7,68.3 121.7,72.3 117.7,68.3" fill="#4dd88a"/>
<polygon points="142.6,64.3 146.6,68.3 142.6,72.3 138.6,68.3" fill="#4dd88a"/>
<polygon points="168.1,64.4 172.1,68.4 168.1,72.4 164.1,68.4" fill="#4dd88a"/>
<polygon points="195.6,65.6 199.6,69.6 195.6,73.6 191.6,69.6" fill="#4dd88a"/>
<polygon points="222.6,71.0 226.6,75.0 222.6,79.0 218.6,75.0" fill="#4dd88a"/>
<polygon points="248.5,81.1 252.5,85.1 248.5,89.1 244.5,85.1" fill="#4dd88a"/>
<polygon points="297.7,112.9 301.7,116.9 297.7,120.9 293.7,116.9" fill="#4dd88a"/>
<polygon points="345.2,162.4 349.2,166.4 345.2,170.4 341.2,166.4" fill="#4dd88a"/>
<polygon points="438.2,517.7 442.2,521.7 438.2,525.7 434.2,521.7" fill="#4dd88a"/>
<polygon points="531.1,517.7 535.1,521.7 531.1,525.7 527.1,521.7" fill="#4dd88a"/>
<polyline fill="none" stroke="#ff6b6b" stroke-width="2" points="90.2,68.3 90.3,68.3 90.4,68.3 90.7,68.3 91.1,68.3 92.0,68.3 93.3,68.7 95.0,69.8 97.5,71.9 101.3,75.4 106.6,80.7 114.3,87.7 125.3,96.2 138.7,106.6 156.8,118.5 179.6,131.8 204.9,146.4 266.3,179.4 334.8,226.3 434.0,521.7 523.5,521.7"/>
<polygon points="90.2,63.3 89.0,66.7 85.4,66.8 88.3,69.0 87.3,72.4 90.2,70.3 93.1,72.4 92.1,69.0 95.0,66.8 91.4,66.7" fill="#ff6b6b"/>
<polygon points="90.3,63.3 89.1,66.7 85.5,66.8 88.4,69.0 87.3,72.4 90.3,70.3 93.2,72.4 92.2,69.0 95.0,66.8 91.4,66.7" fill="#ff6b6b"/>
<polygon points="90.4,63.3 89.2,66.7 85.6,66.8 88.5,69.0 87.5,72.4 90.4,70.3 93.3,72.4 92.3,69.0 95.1,66.8 91.6,66.7" fill="#ff6b6b"/>
<polygon points="90.7,63.3 89.5,66.7 85.9,66.8 88.7,69.0 87.7,72.4 90.7,70.3 93.6,72.4 92.6,69.0 95.4,66.8 91.8,66.7" fill="#ff6b6b"/>
<polygon points="91.1,63.3 90.0,66.7 86.4,66.8 89.2,69.0 88.2,72.4 91.1,70.3 94.1,72.4 93.0,69.0 95.9,66.8 92.3,66.7" fill="#ff6b6b"/>
<polygon points="92.0,63.3 90.8,66.7 87.2,66.8 90.1,69.0 89.0,72.4 92.0,70.3 94.9,72.4 93.9,69.0 96.7,66.8 93.2,66.7" fill="#ff6b6b"/>
<polygon points="93.3,63.7 92.1,67.1 88.5,67.2 91.4,69.3 90.3,72.7 93.3,70.7 96.2,72.7 95.2,69.3 98.0,67.2 94.5,67.1" fill="#ff6b6b"/>
<polygon points="95.0,64.8 93.9,68.2 90.3,68.3 93.1,70.4 92.1,73.9 95.0,71.8 98.0,73.9 96.9,70.4 99.8,68.3 96.2,68.2" fill="#ff6b6b"/>
<polygon points="97.5,66.9 96.4,70.3 92.8,70.3 95.6,72.5 94.6,75.9 97.5,73.9 100.5,75.9 99.4,72.5 102.3,70.3 98.7,70.3" fill="#ff6b6b"/>
<polygon points="101.3,70.4 100.1,73.8 96.5,73.9 99.4,76.1 98.3,79.5 101.3,77.4 104.2,79.5 103.2,76.1 106.0,73.9 102.4,73.8" fill="#ff6b6b"/>
<polygon points="106.6,75.7 105.4,79.0 101.8,79.1 104.7,81.3 103.6,84.7 106.6,82.7 109.5,84.7 108.5,81.3 111.3,79.1 107.8,79.0" fill="#ff6b6b"/>
<polygon points="114.3,82.7 113.1,86.1 109.5,86.1 112.4,88.3 111.3,91.7 114.3,89.7 117.2,91.7 116.2,88.3 119.0,86.1 115.5,86.1" fill="#ff6b6b"/>
<polygon points="125.3,91.2 124.1,94.6 120.6,94.7 123.4,96.8 122.4,100.3 125.3,98.2 128.3,100.3 127.2,96.8 130.1,94.7 126.5,94.6" fill="#ff6b6b"/>
<polygon points="138.7,101.6 137.6,105.0 134.0,105.1 136.8,107.2 135.8,110.7 138.7,108.6 141.7,110.7 140.6,107.2 143.5,105.1 139.9,105.0" fill="#ff6b6b"/>
<polygon points="156.8,113.5 155.6,116.8 152.0,116.9 154.9,119.1 153.9,122.5 156.8,120.5 159.7,122.5 158.7,119.1 161.5,116.9 158.0,116.8" fill="#ff6b6b"/>
<polygon points="179.6,126.8 178.4,130.2 174.8,130.3 177.7,132.5 176.7,135.9 179.6,133.8 182.5,135.9 181.5,132.5 184.4,130.3 180.8,130.2" fill="#ff6b6b"/>
<polygon points="204.9,141.4 203.8,144.8 200.2,144.9 203.0,147.0 202.0,150.5 204.9,148.4 207.9,150.5 206.8,147.0 209.7,144.9 206.1,144.8" fill="#ff6b6b"/>
<polygon points="266.3,174.4 265.2,177.8 261.6,177.9 264.4,180.0 263.4,183.5 266.3,181.4 269.3,183.5 268.2,180.0 271.1,177.9 267.5,177.8" fill="#ff6b6b"/>
<polygon points="334.8,221.3 333.6,224.7 330.0,224.7 332.9,226.9 331.9,230.3 334.8,228.3 337.7,230.3 336.7,226.9 339.6,224.7 336.0,224.7" fill="#ff6b6b"/>
<polygon points="434.0,516.7 432.8,520.0 429.3,520.1 432.1,522.3 431.1,525.7 434.0,523.7 437.0,525.7 435.9,522.3 438.8,520.1 435.2,520.0" fill="#ff6b6b"/>
<polygon points="523.5,516.7 522.3,520.0 518.7,520.1 521.6,522.3 520.5,525.7 523.5,523.7 526.4,525.7 525.4,522.3 528.2,520.1 524.6,520.0" fill="#ff6b6b"/>
<polyline fill="none" stroke="#ff922b" stroke-width="2" points="361.7,191.6 388.6,212.6 413.9,237.0 437.9,265.6 461.4,302.9 484.7,351.2 507.9,435.7 531.1,521.7 577.5,521.7 600.8,521.7"/>
<circle cx="361.7" cy="191.6" r="3" fill="#ff922b"/>
<circle cx="388.6" cy="212.6" r="3" fill="#ff922b"/>
<circle cx="413.9" cy="237.0" r="3" fill="#ff922b"/>
<circle cx="437.9" cy="265.6" r="3" fill="#ff922b"/>
<circle cx="461.4" cy="302.9" r="3" fill="#ff922b"/>
<circle cx="484.7" cy="351.2" r="3" fill="#ff922b"/>
<circle cx="507.9" cy="435.7" r="3" fill="#ff922b"/>
<circle cx="531.1" cy="521.7" r="3" fill="#ff922b"/>
<circle cx="577.5" cy="521.7" r="3" fill="#ff922b"/>
<circle cx="600.8" cy="521.7" r="3" fill="#ff922b"/>
<polyline fill="none" stroke="#888888" stroke-width="2" stroke-dasharray="8,5" points="332.9,124.9 367.6,141.6 412.5,164.3 446.2,181.5 479.9,198.5 524.2,221.9 557.7,238.3 591.2,255.6 635.5,277.2 669.0,293.5"/>
<circle cx="332.9" cy="124.9" r="3" fill="#888888"/>
<circle cx="367.6" cy="141.6" r="3" fill="#888888"/>
<circle cx="412.5" cy="164.3" r="3" fill="#888888"/>
<circle cx="446.2" cy="181.5" r="3" fill="#888888"/>
<circle cx="479.9" cy="198.5" r="3" fill="#888888"/>
<circle cx="524.2" cy="221.9" r="3" fill="#888888"/>
<circle cx="557.7" cy="238.3" r="3" fill="#888888"/>
<circle cx="591.2" cy="255.6" r="3" fill="#888888"/>
<circle cx="635.5" cy="277.2" r="3" fill="#888888"/>
<circle cx="669.0" cy="293.5" r="3" fill="#888888"/>
<line x1="886" y1="60" x2="902" y2="60" stroke="#ef4444" stroke-width="2" stroke-dasharray="8,5"/>
<circle cx="894.0" cy="60.0" r="3" fill="#ef4444"/>
<text class="label" x="908" y="64">Theoretical</text>
<line x1="886" y1="78" x2="902" y2="78" stroke="#1a6b3c" stroke-width="2"/>
<polygon points="894.0,74.0 898.0,78.0 894.0,82.0 890.0,78.0" fill="#1a6b3c"/>
<text class="label" x="908" y="82">Grafite</text>
<line x1="886" y1="96" x2="902" y2="96" stroke="#1a3a6b" stroke-width="2"/>
<polygon points="894.0,91.0 892.8,94.4 889.2,94.5 892.1,96.6 891.1,100.0 894.0,98.0 896.9,100.0 895.9,96.6 898.8,94.5 895.2,94.4" fill="#1a3a6b"/>
<text class="label" x="908" y="100">SNARF</text>
<line x1="886" y1="114" x2="902" y2="114" stroke="#111111" stroke-width="2"/>
<rect x="891.0" y="111.0" width="6" height="6" fill="#111111"/>
<text class="label" x="908" y="118">SuRF</text>
<line x1="886" y1="132" x2="902" y2="132" stroke="#111111" stroke-width="2"/>
<polygon points="894.0,128.0 898.0,135.0 890.0,135.0" fill="#111111"/>
<text class="label" x="908" y="136">SuRFHash(8)</text>
<line x1="886" y1="150" x2="902" y2="150" stroke="#111111" stroke-width="2"/>
<polygon points="894.0,146.0 898.0,150.0 894.0,154.0 890.0,150.0" fill="#111111"/>
<text class="label" x="908" y="154">SuRFReal(8)</text>
<line x1="886" y1="168" x2="902" y2="168" stroke="#2a7fff" stroke-width="2"/>
<rect x="891.0" y="165.0" width="6" height="6" fill="#2a7fff"/>
<text class="label" x="908" y="172">Adaptive (t=0)</text>
<line x1="886" y1="186" x2="902" y2="186" stroke="#9b59b6" stroke-width="2"/>
<polygon points="894.0,182.0 898.0,189.0 890.0,189.0" fill="#9b59b6"/>
<text class="label" x="908" y="190">Truncation</text>
<line x1="886" y1="204" x2="902" y2="204" stroke="#4dd88a" stroke-width="2"/>
<polygon points="894.0,200.0 898.0,204.0 894.0,208.0 890.0,204.0" fill="#4dd88a"/>
<text class="label" x="908" y="208">SODA</text>
<line x1="886" y1="222" x2="902" y2="222" stroke="#ff6b6b" stroke-width="2"/>
<polygon points="894.0,217.0 892.8,220.4 889.2,220.5 892.1,222.6 891.1,226.0 894.0,224.0 896.9,226.0 895.9,222.6 898.8,220.5 895.2,220.4" fill="#ff6b6b"/>
<text class="label" x="908" y="226">Hybrid</text>
<line x1="886" y1="240" x2="902" y2="240" stroke="#ff922b" stroke-width="2"/>
<circle cx="894.0" cy="240.0" r="3" fill="#ff922b"/>
<text class="label" x="908" y="244">CDF-ARE</text>
<line x1="886" y1="258" x2="902" y2="258" stroke="#888888" stroke-width="2" stroke-dasharray="8,5"/>
<circle cx="894.0" cy="258.0" r="3" fill="#888888"/>
<text class="label" x="908" y="262">BloomARE</text>
<text x="480" y="590" text-anchor="middle">Bits per Key (BPK)</text>
<text transform="translate(16,295) rotate(-90)" text-anchor="middle">False Positive Rate (FPR)</text>
</svg>
