<svg xmlns="http://www.w3.org/2000/svg" width="1020" height="600" viewBox="0 0 1020 600">
<style>text{font-family:Menlo,Monaco,monospace;font-size:12px;fill:#222} .axis{stroke:#333;stroke-width:1} .grid{stroke:#eee;stroke-width:0.5} .label{font-size:11px;fill:#444}</style>
<text x="510" y="28" text-anchor="middle" style="font-size:14px;font-weight:bold">FPR vs BPK — sosd_osm (60-bit keys, n=65536, L=1)</text>
<line class="axis" x1="90.0" y1="550.0" x2="870.0" y2="550.0"/>
<line class="axis" x1="90.0" y1="40.0" x2="90.0" y2="550.0"/>
<line class="grid" x1="90.0" y1="526.8" x2="870.0" y2="526.8"/>
<text class="label" x="82.0" y="530.8" text-anchor="end">10^-10</text>
<line class="grid" x1="90.0" y1="480.5" x2="870.0" y2="480.5"/>
<text class="label" x="82.0" y="484.5" text-anchor="end">10^-9</text>
<line class="grid" x1="90.0" y1="434.1" x2="870.0" y2="434.1"/>
<text class="label" x="82.0" y="438.1" text-anchor="end">10^-8</text>
<line class="grid" x1="90.0" y1="387.7" x2="870.0" y2="387.7"/>
<text class="label" x="82.0" y="391.7" text-anchor="end">10^-7</text>
<line class="grid" x1="90.0" y1="341.4" x2="870.0" y2="341.4"/>
<text class="label" x="82.0" y="345.4" text-anchor="end">10^-6</text>
<line class="grid" x1="90.0" y1="295.0" x2="870.0" y2="295.0"/>
<text class="label" x="82.0" y="299.0" text-anchor="end">10^-5</text>
<line class="grid" x1="90.0" y1="248.6" x2="870.0" y2="248.6"/>
<text class="label" x="82.0" y="252.6" text-anchor="end">10^-4</text>
<line class="grid" x1="90.0" y1="202.3" x2="870.0" y2="202.3"/>
<text class="label" x="82.0" y="206.3" text-anchor="end">10^-3</text>
<line class="grid" x1="90.0" y1="155.9" x2="870.0" y2="155.9"/>
<text class="label" x="82.0" y="159.9" text-anchor="end">10^-2</text>
<line class="grid" x1="90.0" y1="109.5" x2="870.0" y2="109.5"/>
<text class="label" x="82.0" y="113.5" text-anchor="end">10^-1</text>
<line class="grid" x1="90.0" y1="63.2" x2="870.0" y2="63.2"/>
<text class="label" x="82.0" y="67.2" text-anchor="end">1</text>
<line class="grid" x1="90.0" y1="40.0" x2="90.0" y2="550.0"/>
<text class="label" x="90.0" y="566.0" text-anchor="middle">0</text>
<line class="grid" x1="206.1" y1="40.0" x2="206.1" y2="550.0"/>
<text class="label" x="206.1" y="566.0" text-anchor="middle">5</text>
<line class="grid" x1="322.1" y1="40.0" x2="322.1" y2="550.0"/>
<text class="label" x="322.1" y="566.0" text-anchor="middle">10</text>
<line class="grid" x1="438.2" y1="40.0" x2="438.2" y2="550.0"/>
<text class="label" x="438.2" y="566.0" text-anchor="middle">15</text>
<line class="grid" x1="554.3" y1="40.0" x2="554.3" y2="550.0"/>
<text class="label" x="554.3" y="566.0" text-anchor="middle">20</text>
<line class="grid" x1="670.4" y1="40.0" x2="670.4" y2="550.0"/>
<text class="label" x="670.4" y="566.0" text-anchor="middle">25</text>
<line class="grid" x1="786.4" y1="40.0" x2="786.4" y2="550.0"/>
<text class="label" x="786.4" y="566.0" text-anchor="middle">30</text>
<polyline fill="none" stroke="#ef4444" stroke-width="2" stroke-dasharray="8,5" points="182.9,119.0 206.1,133.0 229.3,146.9 252.5,160.9 275.7,174.8 298.9,188.8 322.1,202.8 345.4,216.7 368.6,230.7 391.8,244.6 415.0,258.6 438.2,272.5 461.4,286.5 484.6,300.4 507.9,314.4 531.1,328.4 554.3,342.3 600.7,370.2 647.1,398.1 740.0,454.0 832.9,509.8"/>
<circle cx="182.9" cy="119.0" r="3" fill="#ef4444"/>
<circle cx="206.1" cy="133.0" r="3" fill="#ef4444"/>
<circle cx="229.3" cy="146.9" r="3" fill="#ef4444"/>
<circle cx="252.5" cy="160.9" r="3" fill="#ef4444"/>
<circle cx="275.7" cy="174.8" r="3" fill="#ef4444"/>
<circle cx="298.9" cy="188.8" r="3" fill="#ef4444"/>
<circle cx="322.1" cy="202.8" r="3" fill="#ef4444"/>
<circle cx="345.4" cy="216.7" r="3" fill="#ef4444"/>
<circle cx="368.6" cy="230.7" r="3" fill="#ef4444"/>
<circle cx="391.8" cy="244.6" r="3" fill="#ef4444"/>
<circle cx="415.0" cy="258.6" r="3" fill="#ef4444"/>
<circle cx="438.2" cy="272.5" r="3" fill="#ef4444"/>
<circle cx="461.4" cy="286.5" r="3" fill="#ef4444"/>
<circle cx="484.6" cy="300.4" r="3" fill="#ef4444"/>
<circle cx="507.9" cy="314.4" r="3" fill="#ef4444"/>
<circle cx="531.1" cy="328.4" r="3" fill="#ef4444"/>
<circle cx="554.3" cy="342.3" r="3" fill="#ef4444"/>
<circle cx="600.7" cy="370.2" r="3" fill="#ef4444"/>
<circle cx="647.1" cy="398.1" r="3" fill="#ef4444"/>
<circle cx="740.0" cy="454.0" r="3" fill="#ef4444"/>
<circle cx="832.9" cy="509.8" r="3" fill="#ef4444"/>
<polyline fill="none" stroke="#1a6b3c" stroke-width="2" points="189.7,93.5 241.0,119.6 289.1,147.4 336.9,174.5 384.1,202.5 430.6,229.6 484.3,260.8 530.7,284.9 577.1,336.5"/>
<polygon points="189.7,89.5 193.7,93.5 189.7,97.5 185.7,93.5" fill="#1a6b3c"/>
<polygon points="241.0,115.6 245.0,119.6 241.0,123.6 237.0,119.6" fill="#1a6b3c"/>
<polygon points="289.1,143.4 293.1,147.4 289.1,151.4 285.1,147.4" fill="#1a6b3c"/>
<polygon points="336.9,170.5 340.9,174.5 336.9,178.5 332.9,174.5" fill="#1a6b3c"/>
<polygon points="384.1,198.5 388.1,202.5 384.1,206.5 380.1,202.5" fill="#1a6b3c"/>
<polygon points="430.6,225.6 434.6,229.6 430.6,233.6 426.6,229.6" fill="#1a6b3c"/>
<polygon points="484.3,256.8 488.3,260.8 484.3,264.8 480.3,260.8" fill="#1a6b3c"/>
<polygon points="530.7,280.9 534.7,284.9 530.7,288.9 526.7,284.9" fill="#1a6b3c"/>
<polygon points="577.1,332.5 581.1,336.5 577.1,340.5 573.1,336.5" fill="#1a6b3c"/>
<polyline fill="none" stroke="#1a3a6b" stroke-width="2" points="168.5,152.5 214.7,167.0 261.4,182.0 308.0,196.1 354.2,211.5 400.4,227.7 447.1,249.6 493.7,286.5 539.9,322.6"/>
<polygon points="168.5,147.5 167.3,150.9 163.7,150.9 166.6,153.1 165.5,156.5 168.5,154.5 171.4,156.5 170.4,153.1 173.2,150.9 169.6,150.9" fill="#1a3a6b"/>
<polygon points="214.7,162.0 213.5,165.4 210.0,165.5 212.8,167.6 211.8,171.1 214.7,169.0 217.7,171.1 216.6,167.6 219.5,165.5 215.9,165.4" fill="#1a3a6b"/>
<polygon points="261.4,177.0 260.2,180.4 256.6,180.4 259.4,182.6 258.4,186.0 261.4,184.0 264.3,186.0 263.3,182.6 266.1,180.4 262.5,180.4" fill="#1a3a6b"/>
<polygon points="308.0,191.1 306.8,194.5 303.2,194.6 306.1,196.7 305.0,200.2 308.0,198.1 310.9,200.2 309.9,196.7 312.7,194.6 309.2,194.5" fill="#1a3a6b"/>
<polygon points="354.2,206.5 353.0,209.9 349.4,209.9 352.3,212.1 351.2,215.5 354.2,213.5 357.1,215.5 356.1,212.1 358.9,209.9 355.4,209.9" fill="#1a3a6b"/>
<polygon points="400.4,222.7 399.3,226.1 395.7,226.2 398.5,228.4 397.5,231.8 400.4,229.7 403.4,231.8 402.3,228.4 405.2,226.2 401.6,226.1" fill="#1a3a6b"/>
<polygon points="447.1,244.6 445.9,248.0 442.3,248.0 445.2,250.2 444.1,253.6 447.1,251.6 450.0,253.6 449.0,250.2 451.8,248.0 448.2,248.0" fill="#1a3a6b"/>
<polygon points="493.7,281.5 492.5,284.9 488.9,284.9 491.8,287.1 490.8,290.5 493.7,288.5 496.6,290.5 495.6,287.1 498.4,284.9 494.9,284.9" fill="#1a3a6b"/>
<polygon points="539.9,317.6 538.7,321.0 535.1,321.0 538.0,323.2 537.0,326.6 539.9,324.6 542.8,326.6 541.8,323.2 544.6,321.0 541.1,321.0" fill="#1a3a6b"/>
<polyline fill="none" stroke="#111111" stroke-width="2" points="379.4,94.0"/>
<rect x="376.4" y="91.0" width="6" height="6" fill="#111111"/>
<polyline fill="none" stroke="#111111" stroke-width="2" points="557.5,94.0"/>
<polygon points="557.5,90.0 561.5,97.0 553.5,97.0" fill="#111111"/>
<polyline fill="none" stroke="#111111" stroke-width="2" points="557.5,206.8"/>
<polygon points="557.5,202.8 561.5,206.8 557.5,210.8 553.5,206.8" fill="#111111"/>
<polyline fill="none" stroke="#2a7fff" stroke-width="2" points="90.0,77.2 90.0,77.2 90.0,77.2 90.1,77.2 90.2,77.2 90.4,77.2 90.7,77.2 91.5,77.2 92.9,77.2 95.8,77.2 101.6,77.2 112.9,77.5 131.7,80.1 157.2,86.4 186.3,96.0 216.0,107.5 244.3,120.3 296.0,147.2 344.5,175.4 438.1,231.2 531.1,308.6"/>
<rect x="87.0" y="74.2" width="6" height="6" fill="#2a7fff"/>
<rect x="87.0" y="74.2" width="6" height="6" fill="#2a7fff"/>
<rect x="87.0" y="74.2" width="6" height="6" fill="#2a7fff"/>
<rect x="87.1" y="74.2" width="6" height="6" fill="#2a7fff"/>
<rect x="87.2" y="74.2" width="6" height="6" fill="#2a7fff"/>
<rect x="87.4" y="74.2" width="6" height="6" fill="#2a7fff"/>
<rect x="87.7" y="74.2" width="6" height="6" fill="#2a7fff"/>
<rect x="88.5" y="74.2" width="6" height="6" fill="#2a7fff"/>
<rect x="89.9" y="74.2" width="6" height="6" fill="#2a7fff"/>
<rect x="92.8" y="74.2" width="6" height="6" fill="#2a7fff"/>
<rect x="98.6" y="74.2" width="6" height="6" fill="#2a7fff"/>
<rect x="109.9" y="74.5" width="6" height="6" fill="#2a7fff"/>
<rect x="128.7" y="77.1" width="6" height="6" fill="#2a7fff"/>
<rect x="154.2" y="83.4" width="6" height="6" fill="#2a7fff"/>
<rect x="183.3" y="93.0" width="6" height="6" fill="#2a7fff"/>
<rect x="213.0" y="104.5" width="6" height="6" fill="#2a7fff"/>
<rect x="241.3" y="117.3" width="6" height="6" fill="#2a7fff"/>
<rect x="293.0" y="144.2" width="6" height="6" fill="#2a7fff"/>
<rect x="341.5" y="172.4" width="6" height="6" fill="#2a7fff"/>
<rect x="435.1" y="228.2" width="6" height="6" fill="#2a7fff"/>
<rect x="528.1" y="305.6" width="6" height="6" fill="#2a7fff"/>
<polyline fill="none" stroke="#9b59b6" stroke-width="2" points="90.0,63.2 90.0,65.7 90.0,72.0 90.1,80.6 90.1,88.7 90.1,98.4 90.2,107.1 90.2,115.6 90.3,122.7 90.5,129.2 90.8,133.4 91.4,137.0 92.5,139.9 94.4,142.8 97.8,146.1 103.2,149.9 110.8,155.4 141.3,166.6 200.1,181.1 376.1,221.6 521.3,276.2"/>
<polygon points="90.0,59.2 94.0,66.2 86.0,66.2" fill="#9b59b6"/>
<polygon points="90.0,61.7 94.0,68.7 86.0,68.7" fill="#9b59b6"/>
<polygon points="90.0,68.0 94.0,75.0 86.0,75.0" fill="#9b59b6"/>
<polygon points="90.1,76.6 94.1,83.6 86.1,83.6" fill="#9b59b6"/>
<polygon points="90.1,84.7 94.1,91.7 86.1,91.7" fill="#9b59b6"/>
<polygon points="90.1,94.4 94.1,101.4 86.1,101.4" fill="#9b59b6"/>
<polygon points="90.2,103.1 94.2,110.1 86.2,110.1" fill="#9b59b6"/>
<polygon points="90.2,111.6 94.2,118.6 86.2,118.6" fill="#9b59b6"/>
<polygon points="90.3,118.7 94.3,125.7 86.3,125.7" fill="#9b59b6"/>
<polygon points="90.5,125.2 94.5,132.2 86.5,132.2" fill="#9b59b6"/>
<polygon points="90.8,129.4 94.8,136.4 86.8,136.4" fill="#9b59b6"/>
<polygon points="91.4,133.0 95.4,140.0 87.4,140.0" fill="#9b59b6"/>
<polygon points="92.5,135.9 96.5,142.9 88.5,142.9" fill="#9b59b6"/>
<polygon points="94.4,138.8 98.4,145.8 90.4,145.8" fill="#9b59b6"/>
<polygon points="97.8,142.1 101.8,149.1 93.8,149.1" fill="#9b59b6"/>
<polygon points="103.2,145.9 107.2,152.9 99.2,152.9" fill="#9b59b6"/>
<polygon points="110.8,151.4 114.8,158.4 106.8,158.4" fill="#9b59b6"/>
<polygon points="141.3,162.6 145.3,169.6 137.3,169.6" fill="#9b59b6"/>
<polygon points="200.1,177.1 204.1,184.1 196.1,184.1" fill="#9b59b6"/>
<polygon points="376.1,217.6 380.1,224.6 372.1,224.6" fill="#9b59b6"/>
<polygon points="521.3,272.2 525.3,279.2 517.3,279.2" fill="#9b59b6"/>
<polyline fill="none" stroke="#4dd88a" stroke-width="2" points="90.0,77.2 90.0,77.2 90.0,77.2 90.1,77.2 90.2,77.2 90.4,77.2 90.7,77.2 91.5,77.2 92.9,77.2 95.8,77.2 101.6,77.2 112.9,77.5 131.7,80.1 157.2,86.4 186.3,96.0 216.0,107.5 244.3,120.3 296.0,147.2 344.5,175.4 438.1,231.2 531.1,308.6"/>
<polygon points="90.0,73.2 94.0,77.2 90.0,81.2 86.0,77.2" fill="#4dd88a"/>
<polygon points="90.0,73.2 94.0,77.2 90.0,81.2 86.0,77.2" fill="#4dd88a"/>
<polygon points="90.0,73.2 94.0,77.2 90.0,81.2 86.0,77.2" fill="#4dd88a"/>
<polygon points="90.1,73.2 94.1,77.2 90.1,81.2 86.1,77.2" fill="#4dd88a"/>
<polygon points="90.2,73.2 94.2,77.2 90.2,81.2 86.2,77.2" fill="#4dd88a"/>
<polygon points="90.4,73.2 94.4,77.2 90.4,81.2 86.4,77.2" fill="#4dd88a"/>
<polygon points="90.7,73.2 94.7,77.2 90.7,81.2 86.7,77.2" fill="#4dd88a"/>
<polygon points="91.5,73.2 95.5,77.2 91.5,81.2 87.5,77.2" fill="#4dd88a"/>
<polygon points="92.9,73.2 96.9,77.2 92.9,81.2 88.9,77.2" fill="#4dd88a"/>
<polygon points="95.8,73.2 99.8,77.2 95.8,81.2 91.8,77.2" fill="#4dd88a"/>
<polygon points="101.6,73.2 105.6,77.2 101.6,81.2 97.6,77.2" fill="#4dd88a"/>
<polygon points="112.9,73.5 116.9,77.5 112.9,81.5 108.9,77.5" fill="#4dd88a"/>
<polygon points="131.7,76.1 135.7,80.1 131.7,84.1 127.7,80.1" fill="#4dd88a"/>
<polygon points="157.2,82.4 161.2,86.4 157.2,90.4 153.2,86.4" fill="#4dd88a"/>
<polygon points="186.3,92.0 190.3,96.0 186.3,100.0 182.3,96.0" fill="#4dd88a"/>
<polygon points="216.0,103.5 220.0,107.5 216.0,111.5 212.0,107.5" fill="#4dd88a"/>
<polygon points="244.3,116.3 248.3,120.3 244.3,124.3 240.3,120.3" fill="#4dd88a"/>
<polygon points="296.0,143.2 300.0,147.2 296.0,151.2 292.0,147.2" fill="#4dd88a"/>
<polygon points="344.5,171.4 348.5,175.4 344.5,179.4 340.5,175.4" fill="#4dd88a"/>
<polygon points="438.1,227.2 442.1,231.2 438.1,235.2 434.1,231.2" fill="#4dd88a"/>
<polygon points="531.1,304.6 535.1,308.6 531.1,312.6 527.1,308.6" fill="#4dd88a"/>
<polyline fill="none" stroke="#ff6b6b" stroke-width="2" points="90.2,63.2 90.2,65.7 90.3,72.0 90.5,80.6 90.8,88.7 91.3,98.4 92.1,107.1 93.3,115.6 94.6,122.7 95.9,129.2 97.4,133.4 99.0,137.0 101.1,139.9 104.0,142.9 108.3,146.2 114.6,150.1 123.0,155.6 155.0,166.9 214.0,181.6 386.5,222.2 528.8,277.2"/>
<polygon points="90.2,58.2 89.0,61.6 85.4,61.6 88.3,63.8 87.2,67.2 90.2,65.2 93.1,67.2 92.1,63.8 94.9,61.6 91.4,61.6" fill="#ff6b6b"/>
<polygon points="90.2,60.7 89.1,64.1 85.5,64.2 88.3,66.3 87.3,69.8 90.2,67.7 93.2,69.8 92.1,66.3 95.0,64.2 91.4,64.1" fill="#ff6b6b"/>
<polygon points="90.3,67.0 89.1,70.4 85.6,70.5 88.4,72.6 87.4,76.1 90.3,74.0 93.2,76.1 92.2,72.6 95.1,70.5 91.5,70.4" fill="#ff6b6b"/>
<polygon points="90.5,75.6 89.3,79.0 85.7,79.0 88.6,81.2 87.5,84.6 90.5,82.6 93.4,84.6 92.4,81.2 95.2,79.0 91.6,79.0" fill="#ff6b6b"/>
<polygon points="90.8,83.7 89.6,87.1 86.0,87.2 88.9,89.3 87.8,92.8 90.8,90.7 93.7,92.8 92.7,89.3 95.5,87.2 91.9,87.1" fill="#ff6b6b"/>
<polygon points="91.3,93.4 90.1,96.8 86.5,96.9 89.4,99.0 88.3,102.5 91.3,100.4 94.2,102.5 93.2,99.0 96.0,96.9 92.5,96.8" fill="#ff6b6b"/>
<polygon points="92.1,102.1 91.0,105.5 87.4,105.6 90.2,107.7 89.2,111.1 92.1,109.1 95.1,111.1 94.0,107.7 96.9,105.6 93.3,105.5" fill="#ff6b6b"/>
<polygon points="93.3,110.6 92.1,114.0 88.5,114.1 91.4,116.3 90.3,119.7 93.3,117.6 96.2,119.7 95.2,116.3 98.0,114.1 94.5,114.0" fill="#ff6b6b"/>
<polygon points="94.6,117.7 93.4,121.1 89.8,121.1 92.7,123.3 91.6,126.7 94.6,124.7 97.5,126.7 96.5,123.3 99.3,121.1 95.7,121.1" fill="#ff6b6b"/>
<polygon points="95.9,124.2 94.7,127.5 91.2,127.6 94.0,129.8 93.0,133.2 95.9,131.2 98.9,133.2 97.8,129.8 100.7,127.6 97.1,127.5" fill="#ff6b6b"/>
<polygon points="97.4,128.4 96.2,131.8 92.6,131.8 95.5,134.0 94.4,137.4 97.4,135.4 100.3,137.4 99.3,134.0 102.1,131.8 98.5,131.8" fill="#ff6b6b"/>
<polygon points="99.0,132.0 97.8,135.4 94.2,135.4 97.1,137.6 96.1,141.0 99.0,139.0 101.9,141.0 100.9,137.6 103.8,135.4 100.2,135.4" fill="#ff6b6b"/>
<polygon points="101.1,134.9 99.9,138.3 96.3,138.3 99.2,140.5 98.2,143.9 101.1,141.9 104.0,143.9 103.0,140.5 105.8,138.3 102.3,138.3" fill="#ff6b6b"/>
<polygon points="104.0,137.9 102.8,141.3 99.2,141.3 102.1,143.5 101.0,146.9 104.0,144.9 106.9,146.9 105.9,143.5 108.7,141.3 105.2,141.3" fill="#ff6b6b"/>
<polygon points="108.3,141.2 107.1,144.5 103.5,144.6 106.4,146.8 105.3,150.2 108.3,148.2 111.2,150.2 110.2,146.8 113.0,144.6 109.4,144.5" fill="#ff6b6b"/>
<polygon points="114.6,145.1 113.4,148.4 109.8,148.5 112.7,150.7 111.6,154.1 114.6,152.1 117.5,154.1 116.5,150.7 119.3,148.5 115.8,148.4" fill="#ff6b6b"/>
<polygon points="123.0,150.6 121.8,154.0 118.3,154.1 121.1,156.2 120.1,159.6 123.0,157.6 126.0,159.6 124.9,156.2 127.8,154.1 124.2,154.0" fill="#ff6b6b"/>
<polygon points="155.0,161.9 153.8,165.2 150.2,165.3 153.1,167.5 152.0,170.9 155.0,168.9 157.9,170.9 156.9,167.5 159.7,165.3 156.1,165.2" fill="#ff6b6b"/>
<polygon points="214.0,176.6 212.8,180.0 209.2,180.1 212.1,182.2 211.1,185.7 214.0,183.6 216.9,185.7 215.9,182.2 218.8,180.1 215.2,180.0" fill="#ff6b6b"/>
<polygon points="386.5,217.2 385.3,220.5 381.7,220.6 384.6,222.8 383.5,226.2 386.5,224.2 389.4,226.2 388.4,222.8 391.2,220.6 387.7,220.5" fill="#ff6b6b"/>
<polygon points="528.8,272.2 527.6,275.6 524.0,275.7 526.9,277.9 525.8,281.3 528.8,279.2 531.7,281.3 530.7,277.9 533.5,275.7 529.9,275.6" fill="#ff6b6b"/>
<polyline fill="none" stroke="#ff922b" stroke-width="2" points="259.7,178.2 290.1,189.4 320.9,202.0 351.2,214.3 380.1,227.4 407.8,241.3 434.0,255.5 458.9,268.0 506.9,300.4 530.5,314.4"/>
<circle cx="259.7" cy="178.2" r="3" fill="#ff922b"/>
<circle cx="290.1" cy="189.4" r="3" fill="#ff922b"/>
<circle cx="320.9" cy="202.0" r="3" fill="#ff922b"/>
<circle cx="351.2" cy="214.3" r="3" fill="#ff922b"/>
<circle cx="380.1" cy="227.4" r="3" fill="#ff922b"/>
<circle cx="407.8" cy="241.3" r="3" fill="#ff922b"/>
<circle cx="434.0" cy="255.5" r="3" fill="#ff922b"/>
<circle cx="458.9" cy="268.0" r="3" fill="#ff922b"/>
<circle cx="506.9" cy="300.4" r="3" fill="#ff922b"/>
<circle cx="530.5" cy="314.4" r="3" fill="#ff922b"/>
<polyline fill="none" stroke="#888888" stroke-width="2" stroke-dasharray="8,5" points="201.3,109.2 234.7,123.3 279.0,141.8 312.5,156.1 346.0,169.3 390.3,188.4 423.8,201.9 457.3,215.7 501.5,235.8 535.0,249.3"/>
<circle cx="201.3" cy="109.2" r="3" fill="#888888"/>
<circle cx="234.7" cy="123.3" r="3" fill="#888888"/>
<circle cx="279.0" cy="141.8" r="3" fill="#888888"/>
<circle cx="312.5" cy="156.1" r="3" fill="#888888"/>
<circle cx="346.0" cy="169.3" r="3" fill="#888888"/>
<circle cx="390.3" cy="188.4" r="3" fill="#888888"/>
<circle cx="423.8" cy="201.9" r="3" fill="#888888"/>
<circle cx="457.3" cy="215.7" r="3" fill="#888888"/>
<circle cx="501.5" cy="235.8" r="3" fill="#888888"/>
<circle cx="535.0" cy="249.3" r="3" fill="#888888"/>
<line x1="886" y1="60" x2="902" y2="60" stroke="#ef4444" stroke-width="2" stroke-dasharray="8,5"/>
<circle cx="894.0" cy="60.0" r="3" fill="#ef4444"/>
<text class="label" x="908" y="64">Theoretical</text>
<line x1="886" y1="78" x2="902" y2="78" stroke="#1a6b3c" stroke-width="2"/>
<polygon points="894.0,74.0 898.0,78.0 894.0,82.0 890.0,78.0" fill="#1a6b3c"/>
<text class="label" x="908" y="82">Grafite</text>
<line x1="886" y1="96" x2="902" y2="96" stroke="#1a3a6b" stroke-width="2"/>
<polygon points="894.0,91.0 892.8,94.4 889.2,94.5 892.1,96.6 891.1,100.0 894.0,98.0 896.9,100.0 895.9,96.6 898.8,94.5 895.2,94.4" fill="#1a3a6b"/>
<text class="label" x="908" y="100">SNARF</text>
<line x1="886" y1="114" x2="902" y2="114" stroke="#111111" stroke-width="2"/>
<rect x="891.0" y="111.0" width="6" height="6" fill="#111111"/>
<text class="label" x="908" y="118">SuRF</text>
<line x1="886" y1="132" x2="902" y2="132" stroke="#111111" stroke-width="2"/>
<polygon points="894.0,128.0 898.0,135.0 890.0,135.0" fill="#111111"/>
<text class="label" x="908" y="136">SuRFHash(8)</text>
<line x1="886" y1="150" x2="902" y2="150" stroke="#111111" stroke-width="2"/>
<polygon points="894.0,146.0 898.0,150.0 894.0,154.0 890.0,150.0" fill="#111111"/>
<text class="label" x="908" y="154">SuRFReal(8)</text>
<line x1="886" y1="168" x2="902" y2="168" stroke="#2a7fff" stroke-width="2"/>
<rect x="891.0" y="165.0" width="6" height="6" fill="#2a7fff"/>
<text class="label" x="908" y="172">Adaptive (t=0)</text>
<line x1="886" y1="186" x2="902" y2="186" stroke="#9b59b6" stroke-width="2"/>
<polygon points="894.0,182.0 898.0,189.0 890.0,189.0" fill="#9b59b6"/>
<text class="label" x="908" y="190">Truncation</text>
<line x1="886" y1="204" x2="902" y2="204" stroke="#4dd88a" stroke-width="2"/>
<polygon points="894.0,200.0 898.0,204.0 894.0,208.0 890.0,204.0" fill="#4dd88a"/>
<text class="label" x="908" y="208">SODA</text>
<line x1="886" y1="222" x2="902" y2="222" stroke="#ff6b6b" stroke-width="2"/>
<polygon points="894.0,217.0 892.8,220.4 889.2,220.5 892.1,222.6 891.1,226.0 894.0,224.0 896.9,226.0 895.9,222.6 898.8,220.5 895.2,220.4" fill="#ff6b6b"/>
<text class="label" x="908" y="226">Hybrid</text>
<line x1="886" y1="240" x2="902" y2="240" stroke="#ff922b" stroke-width="2"/>
<circle cx="894.0" cy="240.0" r="3" fill="#ff922b"/>
<text class="label" x="908" y="244">CDF-ARE</text>
<line x1="886" y1="258" x2="902" y2="258" stroke="#888888" stroke-width="2" stroke-dasharray="8,5"/>
<circle cx="894.0" cy="258.0" r="3" fill="#888888"/>
<text class="label" x="908" y="262">BloomARE</text>
<text x="480" y="590" text-anchor="middle">Bits per Key (BPK)</text>
<text transform="translate(16,295) rotate(-90)" text-anchor="middle">False Positive Rate (FPR)</text>
</svg>
