<svg xmlns="http://www.w3.org/2000/svg" width="1020" height="600" viewBox="0 0 1020 600">
<style>text{font-family:Menlo,Monaco,monospace;font-size:12px;fill:#222} .axis{stroke:#333;stroke-width:1} .grid{stroke:#eee;stroke-width:0.5} .label{font-size:11px;fill:#444}</style>
<text x="510" y="28" text-anchor="middle" style="font-size:14px;font-weight:bold">FPR vs BPK — sosd_osm (60-bit keys, n=65536, L=1024)</text>
<line class="axis" x1="90.0" y1="550.0" x2="870.0" y2="550.0"/>
<line class="axis" x1="90.0" y1="40.0" x2="90.0" y2="550.0"/>
<line class="grid" x1="90.0" y1="518.1" x2="870.0" y2="518.1"/>
<text class="label" x="82.0" y="522.1" text-anchor="end">10^-7</text>
<line class="grid" x1="90.0" y1="454.4" x2="870.0" y2="454.4"/>
<text class="label" x="82.0" y="458.4" text-anchor="end">10^-6</text>
<line class="grid" x1="90.0" y1="390.6" x2="870.0" y2="390.6"/>
<text class="label" x="82.0" y="394.6" text-anchor="end">10^-5</text>
<line class="grid" x1="90.0" y1="326.9" x2="870.0" y2="326.9"/>
<text class="label" x="82.0" y="330.9" text-anchor="end">10^-4</text>
<line class="grid" x1="90.0" y1="263.1" x2="870.0" y2="263.1"/>
<text class="label" x="82.0" y="267.1" text-anchor="end">10^-3</text>
<line class="grid" x1="90.0" y1="199.4" x2="870.0" y2="199.4"/>
<text class="label" x="82.0" y="203.4" text-anchor="end">10^-2</text>
<line class="grid" x1="90.0" y1="135.6" x2="870.0" y2="135.6"/>
<text class="label" x="82.0" y="139.6" text-anchor="end">10^-1</text>
<line class="grid" x1="90.0" y1="71.9" x2="870.0" y2="71.9"/>
<text class="label" x="82.0" y="75.9" text-anchor="end">1</text>
<line class="grid" x1="90.0" y1="40.0" x2="90.0" y2="550.0"/>
<text class="label" x="90.0" y="566.0" text-anchor="middle">0</text>
<line class="grid" x1="200.6" y1="40.0" x2="200.6" y2="550.0"/>
<text class="label" x="200.6" y="566.0" text-anchor="middle">5</text>
<line class="grid" x1="311.1" y1="40.0" x2="311.1" y2="550.0"/>
<text class="label" x="311.1" y="566.0" text-anchor="middle">10</text>
<line class="grid" x1="421.7" y1="40.0" x2="421.7" y2="550.0"/>
<text class="label" x="421.7" y="566.0" text-anchor="middle">15</text>
<line class="grid" x1="532.2" y1="40.0" x2="532.2" y2="550.0"/>
<text class="label" x="532.2" y="566.0" text-anchor="middle">20</text>
<line class="grid" x1="642.8" y1="40.0" x2="642.8" y2="550.0"/>
<text class="label" x="642.8" y="566.0" text-anchor="middle">25</text>
<line class="grid" x1="753.3" y1="40.0" x2="753.3" y2="550.0"/>
<text class="label" x="753.3" y="566.0" text-anchor="middle">30</text>
<line class="grid" x1="863.9" y1="40.0" x2="863.9" y2="550.0"/>
<text class="label" x="863.9" y="566.0" text-anchor="middle">35</text>
<polyline fill="none" stroke="#ef4444" stroke-width="2" stroke-dasharray="8,5" points="311.1,71.9 333.2,91.1 355.3,110.3 377.4,129.4 399.6,148.6 421.7,167.8 443.8,187.0 465.9,206.2 488.0,225.4 510.1,244.6 532.2,263.8 576.4,302.2 620.7,340.5 709.1,417.3 797.5,494.1"/>
<circle cx="311.1" cy="71.9" r="3" fill="#ef4444"/>
<circle cx="333.2" cy="91.1" r="3" fill="#ef4444"/>
<circle cx="355.3" cy="110.3" r="3" fill="#ef4444"/>
<circle cx="377.4" cy="129.4" r="3" fill="#ef4444"/>
<circle cx="399.6" cy="148.6" r="3" fill="#ef4444"/>
<circle cx="421.7" cy="167.8" r="3" fill="#ef4444"/>
<circle cx="443.8" cy="187.0" r="3" fill="#ef4444"/>
<circle cx="465.9" cy="206.2" r="3" fill="#ef4444"/>
<circle cx="488.0" cy="225.4" r="3" fill="#ef4444"/>
<circle cx="510.1" cy="244.6" r="3" fill="#ef4444"/>
<circle cx="532.2" cy="263.8" r="3" fill="#ef4444"/>
<circle cx="576.4" cy="302.2" r="3" fill="#ef4444"/>
<circle cx="620.7" cy="340.5" r="3" fill="#ef4444"/>
<circle cx="709.1" cy="417.3" r="3" fill="#ef4444"/>
<circle cx="797.5" cy="494.1" r="3" fill="#ef4444"/>
<polyline fill="none" stroke="#1a6b3c" stroke-width="2" points="185.0,71.9 230.6,71.9 279.2,71.9 325.2,72.4 370.0,84.6 414.4,113.6 465.5,149.5 509.8,187.3 547.1,225.3"/>
<polygon points="185.0,67.9 189.0,71.9 185.0,75.9 181.0,71.9" fill="#1a6b3c"/>
<polygon points="230.6,67.9 234.6,71.9 230.6,75.9 226.6,71.9" fill="#1a6b3c"/>
<polygon points="279.2,67.9 283.2,71.9 279.2,75.9 275.2,71.9" fill="#1a6b3c"/>
<polygon points="325.2,68.4 329.2,72.4 325.2,76.4 321.2,72.4" fill="#1a6b3c"/>
<polygon points="370.0,80.6 374.0,84.6 370.0,88.6 366.0,84.6" fill="#1a6b3c"/>
<polygon points="414.4,109.6 418.4,113.6 414.4,117.6 410.4,113.6" fill="#1a6b3c"/>
<polygon points="465.5,145.5 469.5,149.5 465.5,153.5 461.5,149.5" fill="#1a6b3c"/>
<polygon points="509.8,183.3 513.8,187.3 509.8,191.3 505.8,187.3" fill="#1a6b3c"/>
<polygon points="547.1,221.3 551.1,225.3 547.1,229.3 543.1,225.3" fill="#1a6b3c"/>
<polyline fill="none" stroke="#1a3a6b" stroke-width="2" points="164.7,194.7 208.8,214.6 253.2,235.2 297.6,254.7 341.6,275.8 385.7,298.1 430.1,328.2 474.5,378.9 518.5,417.3"/>
<polygon points="164.7,189.7 163.6,193.0 160.0,193.1 162.8,195.3 161.8,198.7 164.7,196.7 167.7,198.7 166.6,195.3 169.5,193.1 165.9,193.0" fill="#1a3a6b"/>
<polygon points="208.8,209.6 207.6,213.0 204.0,213.1 206.9,215.3 205.8,218.7 208.8,216.6 211.7,218.7 210.7,215.3 213.5,213.1 210.0,213.0" fill="#1a3a6b"/>
<polygon points="253.2,230.2 252.0,233.6 248.4,233.7 251.3,235.9 250.3,239.3 253.2,237.2 256.1,239.3 255.1,235.9 258.0,233.7 254.4,233.6" fill="#1a3a6b"/>
<polygon points="297.6,249.7 296.4,253.0 292.9,253.1 295.7,255.3 294.7,258.7 297.6,256.7 300.6,258.7 299.5,255.3 302.4,253.1 298.8,253.0" fill="#1a3a6b"/>
<polygon points="341.6,270.8 340.4,274.2 336.9,274.2 339.7,276.4 338.7,279.8 341.6,277.8 344.6,279.8 343.5,276.4 346.4,274.2 342.8,274.2" fill="#1a3a6b"/>
<polygon points="385.7,293.1 384.5,296.5 380.9,296.6 383.8,298.8 382.7,302.2 385.7,300.1 388.6,302.2 387.6,298.8 390.4,296.6 386.8,296.5" fill="#1a3a6b"/>
<polygon points="430.1,323.2 428.9,326.6 425.3,326.6 428.2,328.8 427.2,332.2 430.1,330.2 433.0,332.2 432.0,328.8 434.8,326.6 431.3,326.6" fill="#1a3a6b"/>
<polygon points="474.5,373.9 473.3,377.3 469.7,377.4 472.6,379.5 471.6,383.0 474.5,380.9 477.4,383.0 476.4,379.5 479.3,377.4 475.7,377.3" fill="#1a3a6b"/>
<polygon points="518.5,412.3 517.3,415.7 513.8,415.8 516.6,417.9 515.6,421.4 518.5,419.3 521.4,421.4 520.4,417.9 523.3,415.8 519.7,415.7" fill="#1a3a6b"/>
<polyline fill="none" stroke="#111111" stroke-width="2" points="365.6,114.3"/>
<rect x="362.6" y="111.3" width="6" height="6" fill="#111111"/>
<polyline fill="none" stroke="#111111" stroke-width="2" points="535.3,114.3"/>
<polygon points="535.3,110.3 539.3,117.3 531.3,117.3" fill="#111111"/>
<polyline fill="none" stroke="#111111" stroke-width="2" points="535.3,269.4"/>
<polygon points="535.3,265.4 539.3,269.4 535.3,273.4 531.3,269.4" fill="#111111"/>
<polyline fill="none" stroke="#2a7fff" stroke-width="2" points="90.0,71.9 90.0,71.9 90.0,71.9 90.1,71.9 90.2,71.9 90.3,71.9 90.7,71.9 91.4,71.9 92.8,71.9 95.5,71.9 101.1,71.9 111.8,71.9 129.7,71.9 154.0,71.9 181.7,71.9 210.0,71.9 236.9,71.9 286.2,71.9 332.4,72.4 421.6,113.7 510.1,187.0"/>
<rect x="87.0" y="68.9" width="6" height="6" fill="#2a7fff"/>
<rect x="87.0" y="68.9" width="6" height="6" fill="#2a7fff"/>
<rect x="87.0" y="68.9" width="6" height="6" fill="#2a7fff"/>
<rect x="87.1" y="68.9" width="6" height="6" fill="#2a7fff"/>
<rect x="87.2" y="68.9" width="6" height="6" fill="#2a7fff"/>
<rect x="87.3" y="68.9" width="6" height="6" fill="#2a7fff"/>
<rect x="87.7" y="68.9" width="6" height="6" fill="#2a7fff"/>
<rect x="88.4" y="68.9" width="6" height="6" fill="#2a7fff"/>
<rect x="89.8" y="68.9" width="6" height="6" fill="#2a7fff"/>
<rect x="92.5" y="68.9" width="6" height="6" fill="#2a7fff"/>
<rect x="98.1" y="68.9" width="6" height="6" fill="#2a7fff"/>
<rect x="108.8" y="68.9" width="6" height="6" fill="#2a7fff"/>
<rect x="126.7" y="68.9" width="6" height="6" fill="#2a7fff"/>
<rect x="151.0" y="68.9" width="6" height="6" fill="#2a7fff"/>
<rect x="178.7" y="68.9" width="6" height="6" fill="#2a7fff"/>
<rect x="207.0" y="68.9" width="6" height="6" fill="#2a7fff"/>
<rect x="233.9" y="68.9" width="6" height="6" fill="#2a7fff"/>
<rect x="283.2" y="68.9" width="6" height="6" fill="#2a7fff"/>
<rect x="329.4" y="69.4" width="6" height="6" fill="#2a7fff"/>
<rect x="418.6" y="110.7" width="6" height="6" fill="#2a7fff"/>
<rect x="507.1" y="184.0" width="6" height="6" fill="#2a7fff"/>
<polyline fill="none" stroke="#9b59b6" stroke-width="2" points="90.0,71.9 90.0,75.4 90.0,84.0 90.0,95.8 90.1,107.0 90.1,120.3 90.1,132.3 90.2,144.0 90.3,153.7 90.5,162.6 90.8,168.4 91.4,173.3 92.4,177.3 94.2,181.4 97.4,185.8 102.6,191.1 109.8,198.7 138.9,214.0 194.9,234.1 362.5,289.7 500.8,364.8"/>
<polygon points="90.0,67.9 94.0,74.9 86.0,74.9" fill="#9b59b6"/>
<polygon points="90.0,71.4 94.0,78.4 86.0,78.4" fill="#9b59b6"/>
<polygon points="90.0,80.0 94.0,87.0 86.0,87.0" fill="#9b59b6"/>
<polygon points="90.0,91.8 94.0,98.8 86.0,98.8" fill="#9b59b6"/>
<polygon points="90.1,103.0 94.1,110.0 86.1,110.0" fill="#9b59b6"/>
<polygon points="90.1,116.3 94.1,123.3 86.1,123.3" fill="#9b59b6"/>
<polygon points="90.1,128.3 94.1,135.3 86.1,135.3" fill="#9b59b6"/>
<polygon points="90.2,140.0 94.2,147.0 86.2,147.0" fill="#9b59b6"/>
<polygon points="90.3,149.7 94.3,156.7 86.3,156.7" fill="#9b59b6"/>
<polygon points="90.5,158.6 94.5,165.6 86.5,165.6" fill="#9b59b6"/>
<polygon points="90.8,164.4 94.8,171.4 86.8,171.4" fill="#9b59b6"/>
<polygon points="91.4,169.3 95.4,176.3 87.4,176.3" fill="#9b59b6"/>
<polygon points="92.4,173.3 96.4,180.3 88.4,180.3" fill="#9b59b6"/>
<polygon points="94.2,177.4 98.2,184.4 90.2,184.4" fill="#9b59b6"/>
<polygon points="97.4,181.8 101.4,188.8 93.4,188.8" fill="#9b59b6"/>
<polygon points="102.6,187.1 106.6,194.1 98.6,194.1" fill="#9b59b6"/>
<polygon points="109.8,194.7 113.8,201.7 105.8,201.7" fill="#9b59b6"/>
<polygon points="138.9,210.0 142.9,217.0 134.9,217.0" fill="#9b59b6"/>
<polygon points="194.9,230.1 198.9,237.1 190.9,237.1" fill="#9b59b6"/>
<polygon points="362.5,285.7 366.5,292.7 358.5,292.7" fill="#9b59b6"/>
<polygon points="500.8,360.8 504.8,367.8 496.8,367.8" fill="#9b59b6"/>
<polyline fill="none" stroke="#4dd88a" stroke-width="2" points="90.0,71.9 90.0,71.9 90.0,71.9 90.1,71.9 90.2,71.9 90.3,71.9 90.7,71.9 91.4,71.9 92.8,71.9 95.5,71.9 101.1,71.9 111.8,71.9 129.7,71.9 154.0,71.9 181.7,71.9 210.0,71.9 236.9,71.9 286.2,71.9 332.4,72.4 421.6,113.7 510.1,187.0"/>
<polygon points="90.0,67.9 94.0,71.9 90.0,75.9 86.0,71.9" fill="#4dd88a"/>
<polygon points="90.0,67.9 94.0,71.9 90.0,75.9 86.0,71.9" fill="#4dd88a"/>
<polygon points="90.0,67.9 94.0,71.9 90.0,75.9 86.0,71.9" fill="#4dd88a"/>
<polygon points="90.1,67.9 94.1,71.9 90.1,75.9 86.1,71.9" fill="#4dd88a"/>
<polygon points="90.2,67.9 94.2,71.9 90.2,75.9 86.2,71.9" fill="#4dd88a"/>
<polygon points="90.3,67.9 94.3,71.9 90.3,75.9 86.3,71.9" fill="#4dd88a"/>
<polygon points="90.7,67.9 94.7,71.9 90.7,75.9 86.7,71.9" fill="#4dd88a"/>
<polygon points="91.4,67.9 95.4,71.9 91.4,75.9 87.4,71.9" fill="#4dd88a"/>
<polygon points="92.8,67.9 96.8,71.9 92.8,75.9 88.8,71.9" fill="#4dd88a"/>
<polygon points="95.5,67.9 99.5,71.9 95.5,75.9 91.5,71.9" fill="#4dd88a"/>
<polygon points="101.1,67.9 105.1,71.9 101.1,75.9 97.1,71.9" fill="#4dd88a"/>
<polygon points="111.8,67.9 115.8,71.9 111.8,75.9 107.8,71.9" fill="#4dd88a"/>
<polygon points="129.7,67.9 133.7,71.9 129.7,75.9 125.7,71.9" fill="#4dd88a"/>
<polygon points="154.0,67.9 158.0,71.9 154.0,75.9 150.0,71.9" fill="#4dd88a"/>
<polygon points="181.7,67.9 185.7,71.9 181.7,75.9 177.7,71.9" fill="#4dd88a"/>
<polygon points="210.0,67.9 214.0,71.9 210.0,75.9 206.0,71.9" fill="#4dd88a"/>
<polygon points="236.9,67.9 240.9,71.9 236.9,75.9 232.9,71.9" fill="#4dd88a"/>
<polygon points="286.2,67.9 290.2,71.9 286.2,75.9 282.2,71.9" fill="#4dd88a"/>
<polygon points="332.4,68.4 336.4,72.4 332.4,76.4 328.4,72.4" fill="#4dd88a"/>
<polygon points="421.6,109.7 425.6,113.7 421.6,117.7 417.6,113.7" fill="#4dd88a"/>
<polygon points="510.1,183.0 514.1,187.0 510.1,191.0 506.1,187.0" fill="#4dd88a"/>
<polyline fill="none" stroke="#ff6b6b" stroke-width="2" points="90.2,71.9 90.2,75.4 90.3,84.0 90.4,95.8 90.7,107.0 91.2,120.3 92.0,132.3 93.1,144.0 94.3,153.7 95.6,162.6 97.0,168.4 98.6,173.3 100.6,177.3 103.3,181.4 107.4,185.8 113.4,191.2 121.4,198.8 151.9,214.3 208.1,234.7 372.4,290.5 507.9,366.2"/>
<polygon points="90.2,66.9 89.0,70.3 85.4,70.3 88.3,72.5 87.2,75.9 90.2,73.9 93.1,75.9 92.1,72.5 94.9,70.3 91.3,70.3" fill="#ff6b6b"/>
<polygon points="90.2,70.4 89.0,73.8 85.5,73.8 88.3,76.0 87.3,79.4 90.2,77.4 93.2,79.4 92.1,76.0 95.0,73.8 91.4,73.8" fill="#ff6b6b"/>
<polygon points="90.3,79.0 89.1,82.4 85.5,82.5 88.4,84.7 87.4,88.1 90.3,86.0 93.2,88.1 92.2,84.7 95.0,82.5 91.5,82.4" fill="#ff6b6b"/>
<polygon points="90.4,90.8 89.3,94.2 85.7,94.3 88.5,96.4 87.5,99.8 90.4,97.8 93.4,99.8 92.3,96.4 95.2,94.3 91.6,94.2" fill="#ff6b6b"/>
<polygon points="90.7,102.0 89.5,105.4 86.0,105.5 88.8,107.6 87.8,111.0 90.7,109.0 93.7,111.0 92.6,107.6 95.5,105.5 91.9,105.4" fill="#ff6b6b"/>
<polygon points="91.2,115.3 90.1,118.7 86.5,118.8 89.3,120.9 88.3,124.4 91.2,122.3 94.2,124.4 93.1,120.9 96.0,118.8 92.4,118.7" fill="#ff6b6b"/>
<polygon points="92.0,127.3 90.9,130.6 87.3,130.7 90.1,132.9 89.1,136.3 92.0,134.3 95.0,136.3 93.9,132.9 96.8,130.7 93.2,130.6" fill="#ff6b6b"/>
<polygon points="93.1,139.0 91.9,142.4 88.4,142.5 91.2,144.6 90.2,148.1 93.1,146.0 96.1,148.1 95.0,144.6 97.9,142.5 94.3,142.4" fill="#ff6b6b"/>
<polygon points="94.3,148.7 93.2,152.1 89.6,152.2 92.4,154.3 91.4,157.7 94.3,155.7 97.3,157.7 96.2,154.3 99.1,152.2 95.5,152.1" fill="#ff6b6b"/>
<polygon points="95.6,157.6 94.5,161.0 90.9,161.1 93.7,163.2 92.7,166.6 95.6,164.6 98.6,166.6 97.5,163.2 100.4,161.1 96.8,161.0" fill="#ff6b6b"/>
<polygon points="97.0,163.4 95.8,166.8 92.3,166.9 95.1,169.0 94.1,172.5 97.0,170.4 100.0,172.5 98.9,169.0 101.8,166.9 98.2,166.8" fill="#ff6b6b"/>
<polygon points="98.6,168.3 97.4,171.7 93.8,171.8 96.7,174.0 95.6,177.4 98.6,175.3 101.5,177.4 100.5,174.0 103.3,171.8 99.7,171.7" fill="#ff6b6b"/>
<polygon points="100.6,172.3 99.4,175.7 95.8,175.8 98.7,177.9 97.6,181.4 100.6,179.3 103.5,181.4 102.5,177.9 105.3,175.8 101.7,175.7" fill="#ff6b6b"/>
<polygon points="103.3,176.4 102.1,179.7 98.6,179.8 101.4,182.0 100.4,185.4 103.3,183.4 106.3,185.4 105.2,182.0 108.1,179.8 104.5,179.7" fill="#ff6b6b"/>
<polygon points="107.4,180.8 106.2,184.2 102.6,184.3 105.5,186.5 104.5,189.9 107.4,187.8 110.3,189.9 109.3,186.5 112.2,184.3 108.6,184.2" fill="#ff6b6b"/>
<polygon points="113.4,186.2 112.2,189.6 108.7,189.6 111.5,191.8 110.5,195.2 113.4,193.2 116.4,195.2 115.3,191.8 118.2,189.6 114.6,189.6" fill="#ff6b6b"/>
<polygon points="121.4,193.8 120.3,197.2 116.7,197.3 119.5,199.5 118.5,202.9 121.4,200.8 124.4,202.9 123.3,199.5 126.2,197.3 122.6,197.2" fill="#ff6b6b"/>
<polygon points="151.9,209.3 150.7,212.7 147.1,212.8 150.0,215.0 148.9,218.4 151.9,216.3 154.8,218.4 153.8,215.0 156.6,212.8 153.0,212.7" fill="#ff6b6b"/>
<polygon points="208.1,229.7 206.9,233.1 203.4,233.1 206.2,235.3 205.2,238.7 208.1,236.7 211.0,238.7 210.0,235.3 212.9,233.1 209.3,233.1" fill="#ff6b6b"/>
<polygon points="372.4,285.5 371.2,288.8 367.6,288.9 370.5,291.1 369.5,294.5 372.4,292.5 375.3,294.5 374.3,291.1 377.2,288.9 373.6,288.8" fill="#ff6b6b"/>
<polygon points="507.9,361.2 506.7,364.6 503.1,364.7 506.0,366.8 505.0,370.2 507.9,368.2 510.8,370.2 509.8,366.8 512.7,364.7 509.1,364.6" fill="#ff6b6b"/>
<polyline fill="none" stroke="#ff922b" stroke-width="2" points="251.7,230.0 280.6,245.5 309.9,262.8 338.8,279.6 366.3,297.6 392.7,316.8 417.6,336.3 441.3,353.6 487.1,398.1 509.5,417.3"/>
<circle cx="251.7" cy="230.0" r="3" fill="#ff922b"/>
<circle cx="280.6" cy="245.5" r="3" fill="#ff922b"/>
<circle cx="309.9" cy="262.8" r="3" fill="#ff922b"/>
<circle cx="338.8" cy="279.6" r="3" fill="#ff922b"/>
<circle cx="366.3" cy="297.6" r="3" fill="#ff922b"/>
<circle cx="392.7" cy="316.8" r="3" fill="#ff922b"/>
<circle cx="417.6" cy="336.3" r="3" fill="#ff922b"/>
<circle cx="441.3" cy="353.6" r="3" fill="#ff922b"/>
<circle cx="487.1" cy="398.1" r="3" fill="#ff922b"/>
<circle cx="509.5" cy="417.3" r="3" fill="#ff922b"/>
<polyline fill="none" stroke="#888888" stroke-width="2" stroke-dasharray="8,5" points="512.6,135.2 545.7,154.8 588.6,180.0 620.7,199.4 652.7,218.0 694.9,244.1 726.9,263.0 758.8,282.8 801.0,306.4 832.9,328.9"/>
<circle cx="512.6" cy="135.2" r="3" fill="#888888"/>
<circle cx="545.7" cy="154.8" r="3" fill="#888888"/>
<circle cx="588.6" cy="180.0" r="3" fill="#888888"/>
<circle cx="620.7" cy="199.4" r="3" fill="#888888"/>
<circle cx="652.7" cy="218.0" r="3" fill="#888888"/>
<circle cx="694.9" cy="244.1" r="3" fill="#888888"/>
<circle cx="726.9" cy="263.0" r="3" fill="#888888"/>
<circle cx="758.8" cy="282.8" r="3" fill="#888888"/>
<circle cx="801.0" cy="306.4" r="3" fill="#888888"/>
<circle cx="832.9" cy="328.9" r="3" fill="#888888"/>
<line x1="886" y1="60" x2="902" y2="60" stroke="#ef4444" stroke-width="2" stroke-dasharray="8,5"/>
<circle cx="894.0" cy="60.0" r="3" fill="#ef4444"/>
<text class="label" x="908" y="64">Theoretical</text>
<line x1="886" y1="78" x2="902" y2="78" stroke="#1a6b3c" stroke-width="2"/>
<polygon points="894.0,74.0 898.0,78.0 894.0,82.0 890.0,78.0" fill="#1a6b3c"/>
<text class="label" x="908" y="82">Grafite</text>
<line x1="886" y1="96" x2="902" y2="96" stroke="#1a3a6b" stroke-width="2"/>
<polygon points="894.0,91.0 892.8,94.4 889.2,94.5 892.1,96.6 891.1,100.0 894.0,98.0 896.9,100.0 895.9,96.6 898.8,94.5 895.2,94.4" fill="#1a3a6b"/>
<text class="label" x="908" y="100">SNARF</text>
<line x1="886" y1="114" x2="902" y2="114" stroke="#111111" stroke-width="2"/>
<rect x="891.0" y="111.0" width="6" height="6" fill="#111111"/>
<text class="label" x="908" y="118">SuRF</text>
<line x1="886" y1="132" x2="902" y2="132" stroke="#111111" stroke-width="2"/>
<polygon points="894.0,128.0 898.0,135.0 890.0,135.0" fill="#111111"/>
<text class="label" x="908" y="136">SuRFHash(8)</text>
<line x1="886" y1="150" x2="902" y2="150" stroke="#111111" stroke-width="2"/>
<polygon points="894.0,146.0 898.0,150.0 894.0,154.0 890.0,150.0" fill="#111111"/>
<text class="label" x="908" y="154">SuRFReal(8)</text>
<line x1="886" y1="168" x2="902" y2="168" stroke="#2a7fff" stroke-width="2"/>
<rect x="891.0" y="165.0" width="6" height="6" fill="#2a7fff"/>
<text class="label" x="908" y="172">Adaptive (t=0)</text>
<line x1="886" y1="186" x2="902" y2="186" stroke="#9b59b6" stroke-width="2"/>
<polygon points="894.0,182.0 898.0,189.0 890.0,189.0" fill="#9b59b6"/>
<text class="label" x="908" y="190">Truncation</text>
<line x1="886" y1="204" x2="902" y2="204" stroke="#4dd88a" stroke-width="2"/>
<polygon points="894.0,200.0 898.0,204.0 894.0,208.0 890.0,204.0" fill="#4dd88a"/>
<text class="label" x="908" y="208">SODA</text>
<line x1="886" y1="222" x2="902" y2="222" stroke="#ff6b6b" stroke-width="2"/>
<polygon points="894.0,217.0 892.8,220.4 889.2,220.5 892.1,222.6 891.1,226.0 894.0,224.0 896.9,226.0 895.9,222.6 898.8,220.5 895.2,220.4" fill="#ff6b6b"/>
<text class="label" x="908" y="226">Hybrid</text>
<line x1="886" y1="240" x2="902" y2="240" stroke="#ff922b" stroke-width="2"/>
<circle cx="894.0" cy="240.0" r="3" fill="#ff922b"/>
<text class="label" x="908" y="244">CDF-ARE</text>
<line x1="886" y1="258" x2="902" y2="258" stroke="#888888" stroke-width="2" stroke-dasharray="8,5"/>
<circle cx="894.0" cy="258.0" r="3" fill="#888888"/>
<text class="label" x="908" y="262">BloomARE</text>
<text x="480" y="590" text-anchor="middle">Bits per Key (BPK)</text>
<text transform="translate(16,295) rotate(-90)" text-anchor="middle">False Positive Rate (FPR)</text>
</svg>
