<svg xmlns="http://www.w3.org/2000/svg" width="1020" height="600" viewBox="0 0 1020 600">
<style>text{font-family:Menlo,Monaco,monospace;font-size:12px;fill:#222} .axis{stroke:#333;stroke-width:1} .grid{stroke:#eee;stroke-width:0.5} .label{font-size:11px;fill:#444}</style>
<text x="510" y="28" text-anchor="middle" style="font-size:14px;font-weight:bold">FPR vs BPK — sosd_osm (60-bit keys, n=65536, L=128)</text>
<line class="axis" x1="90.0" y1="550.0" x2="870.0" y2="550.0"/>
<line class="axis" x1="90.0" y1="40.0" x2="90.0" y2="550.0"/>
<line class="grid" x1="90.0" y1="521.7" x2="870.0" y2="521.7"/>
<text class="label" x="82.0" y="525.7" text-anchor="end">10^-8</text>
<line class="grid" x1="90.0" y1="465.0" x2="870.0" y2="465.0"/>
<text class="label" x="82.0" y="469.0" text-anchor="end">10^-7</text>
<line class="grid" x1="90.0" y1="408.3" x2="870.0" y2="408.3"/>
<text class="label" x="82.0" y="412.3" text-anchor="end">10^-6</text>
<line class="grid" x1="90.0" y1="351.7" x2="870.0" y2="351.7"/>
<text class="label" x="82.0" y="355.7" text-anchor="end">10^-5</text>
<line class="grid" x1="90.0" y1="295.0" x2="870.0" y2="295.0"/>
<text class="label" x="82.0" y="299.0" text-anchor="end">10^-4</text>
<line class="grid" x1="90.0" y1="238.3" x2="870.0" y2="238.3"/>
<text class="label" x="82.0" y="242.3" text-anchor="end">10^-3</text>
<line class="grid" x1="90.0" y1="181.7" x2="870.0" y2="181.7"/>
<text class="label" x="82.0" y="185.7" text-anchor="end">10^-2</text>
<line class="grid" x1="90.0" y1="125.0" x2="870.0" y2="125.0"/>
<text class="label" x="82.0" y="129.0" text-anchor="end">10^-1</text>
<line class="grid" x1="90.0" y1="68.3" x2="870.0" y2="68.3"/>
<text class="label" x="82.0" y="72.3" text-anchor="end">1</text>
<line class="grid" x1="90.0" y1="40.0" x2="90.0" y2="550.0"/>
<text class="label" x="90.0" y="566.0" text-anchor="middle">0</text>
<line class="grid" x1="206.1" y1="40.0" x2="206.1" y2="550.0"/>
<text class="label" x="206.1" y="566.0" text-anchor="middle">5</text>
<line class="grid" x1="322.1" y1="40.0" x2="322.1" y2="550.0"/>
<text class="label" x="322.1" y="566.0" text-anchor="middle">10</text>
<line class="grid" x1="438.2" y1="40.0" x2="438.2" y2="550.0"/>
<text class="label" x="438.2" y="566.0" text-anchor="middle">15</text>
<line class="grid" x1="554.3" y1="40.0" x2="554.3" y2="550.0"/>
<text class="label" x="554.3" y="566.0" text-anchor="middle">20</text>
<line class="grid" x1="670.4" y1="40.0" x2="670.4" y2="550.0"/>
<text class="label" x="670.4" y="566.0" text-anchor="middle">25</text>
<line class="grid" x1="786.4" y1="40.0" x2="786.4" y2="550.0"/>
<text class="label" x="786.4" y="566.0" text-anchor="middle">30</text>
<polyline fill="none" stroke="#ef4444" stroke-width="2" stroke-dasharray="8,5" points="252.5,68.3 275.7,85.4 298.9,102.5 322.1,119.5 345.4,136.6 368.6,153.6 391.8,170.7 415.0,187.7 438.2,204.8 461.4,221.9 484.6,238.9 507.9,256.0 531.1,273.0 554.3,290.1 600.7,324.2 647.1,358.3 740.0,426.6 832.9,494.8"/>
<circle cx="252.5" cy="68.3" r="3" fill="#ef4444"/>
<circle cx="275.7" cy="85.4" r="3" fill="#ef4444"/>
<circle cx="298.9" cy="102.5" r="3" fill="#ef4444"/>
<circle cx="322.1" cy="119.5" r="3" fill="#ef4444"/>
<circle cx="345.4" cy="136.6" r="3" fill="#ef4444"/>
<circle cx="368.6" cy="153.6" r="3" fill="#ef4444"/>
<circle cx="391.8" cy="170.7" r="3" fill="#ef4444"/>
<circle cx="415.0" cy="187.7" r="3" fill="#ef4444"/>
<circle cx="438.2" cy="204.8" r="3" fill="#ef4444"/>
<circle cx="461.4" cy="221.9" r="3" fill="#ef4444"/>
<circle cx="484.6" cy="238.9" r="3" fill="#ef4444"/>
<circle cx="507.9" cy="256.0" r="3" fill="#ef4444"/>
<circle cx="531.1" cy="273.0" r="3" fill="#ef4444"/>
<circle cx="554.3" cy="290.1" r="3" fill="#ef4444"/>
<circle cx="600.7" cy="324.2" r="3" fill="#ef4444"/>
<circle cx="647.1" cy="358.3" r="3" fill="#ef4444"/>
<circle cx="740.0" cy="426.6" r="3" fill="#ef4444"/>
<circle cx="832.9" cy="494.8" r="3" fill="#ef4444"/>
<polyline fill="none" stroke="#1a6b3c" stroke-width="2" points="189.8,68.3 237.7,68.3 288.8,72.0 337.3,91.3 383.9,121.0 430.6,154.3 477.0,187.3 523.5,221.7 577.1,257.6"/>
<polygon points="189.8,64.3 193.8,68.3 189.8,72.3 185.8,68.3" fill="#1a6b3c"/>
<polygon points="237.7,64.3 241.7,68.3 237.7,72.3 233.7,68.3" fill="#1a6b3c"/>
<polygon points="288.8,68.0 292.8,72.0 288.8,76.0 284.8,72.0" fill="#1a6b3c"/>
<polygon points="337.3,87.3 341.3,91.3 337.3,95.3 333.3,91.3" fill="#1a6b3c"/>
<polygon points="383.9,117.0 387.9,121.0 383.9,125.0 379.9,121.0" fill="#1a6b3c"/>
<polygon points="430.6,150.3 434.6,154.3 430.6,158.3 426.6,154.3" fill="#1a6b3c"/>
<polygon points="477.0,183.3 481.0,187.3 477.0,191.3 473.0,187.3" fill="#1a6b3c"/>
<polygon points="523.5,217.7 527.5,221.7 523.5,225.7 519.5,221.7" fill="#1a6b3c"/>
<polygon points="577.1,253.6 581.1,257.6 577.1,261.6 573.1,257.6" fill="#1a6b3c"/>
<polyline fill="none" stroke="#1a3a6b" stroke-width="2" points="168.5,177.5 214.7,195.2 261.4,213.5 308.0,230.8 354.2,249.6 400.4,269.5 447.1,296.2 493.7,341.3 539.9,385.4"/>
<polygon points="168.5,172.5 167.3,175.9 163.7,175.9 166.6,178.1 165.5,181.5 168.5,179.5 171.4,181.5 170.4,178.1 173.2,175.9 169.6,175.9" fill="#1a3a6b"/>
<polygon points="214.7,190.2 213.5,193.6 210.0,193.7 212.8,195.9 211.8,199.3 214.7,197.2 217.7,199.3 216.6,195.9 219.5,193.7 215.9,193.6" fill="#1a3a6b"/>
<polygon points="261.4,208.5 260.2,211.9 256.6,212.0 259.4,214.2 258.4,217.6 261.4,215.5 264.3,217.6 263.3,214.2 266.1,212.0 262.5,211.9" fill="#1a3a6b"/>
<polygon points="308.0,225.8 306.8,229.2 303.2,229.3 306.1,231.4 305.0,234.8 308.0,232.8 310.9,234.8 309.9,231.4 312.7,229.3 309.2,229.2" fill="#1a3a6b"/>
<polygon points="354.2,244.6 353.0,248.0 349.4,248.0 352.3,250.2 351.2,253.6 354.2,251.6 357.1,253.6 356.1,250.2 358.9,248.0 355.4,248.0" fill="#1a3a6b"/>
<polygon points="400.4,264.5 399.3,267.8 395.7,267.9 398.5,270.1 397.5,273.5 400.4,271.5 403.4,273.5 402.3,270.1 405.2,267.9 401.6,267.8" fill="#1a3a6b"/>
<polygon points="447.1,291.2 445.9,294.5 442.3,294.6 445.2,296.8 444.1,300.2 447.1,298.2 450.0,300.2 449.0,296.8 451.8,294.6 448.2,294.5" fill="#1a3a6b"/>
<polygon points="493.7,336.3 492.5,339.6 488.9,339.7 491.8,341.9 490.8,345.3 493.7,343.3 496.6,345.3 495.6,341.9 498.4,339.7 494.9,339.6" fill="#1a3a6b"/>
<polygon points="539.9,380.4 538.7,383.7 535.1,383.8 538.0,386.0 537.0,389.4 539.9,387.4 542.8,389.4 541.8,386.0 544.6,383.8 541.1,383.7" fill="#1a3a6b"/>
<polyline fill="none" stroke="#111111" stroke-width="2" points="379.4,106.0"/>
<rect x="376.4" y="103.0" width="6" height="6" fill="#111111"/>
<polyline fill="none" stroke="#111111" stroke-width="2" points="557.5,106.0"/>
<polygon points="557.5,102.0 561.5,109.0 553.5,109.0" fill="#111111"/>
<polyline fill="none" stroke="#111111" stroke-width="2" points="557.5,243.9"/>
<polygon points="557.5,239.9 561.5,243.9 557.5,247.9 553.5,243.9" fill="#111111"/>
<polyline fill="none" stroke="#2a7fff" stroke-width="2" points="90.0,68.3 90.0,68.3 90.0,68.3 90.1,68.3 90.2,68.3 90.4,68.3 90.7,68.3 91.5,68.3 92.9,68.3 95.8,68.3 101.6,68.3 112.9,68.3 131.7,68.3 157.2,68.3 186.3,68.3 216.0,68.3 244.3,68.3 296.0,71.9 344.5,91.4 438.1,153.8 531.1,222.7"/>
<rect x="87.0" y="65.3" width="6" height="6" fill="#2a7fff"/>
<rect x="87.0" y="65.3" width="6" height="6" fill="#2a7fff"/>
<rect x="87.0" y="65.3" width="6" height="6" fill="#2a7fff"/>
<rect x="87.1" y="65.3" width="6" height="6" fill="#2a7fff"/>
<rect x="87.2" y="65.3" width="6" height="6" fill="#2a7fff"/>
<rect x="87.4" y="65.3" width="6" height="6" fill="#2a7fff"/>
<rect x="87.7" y="65.3" width="6" height="6" fill="#2a7fff"/>
<rect x="88.5" y="65.3" width="6" height="6" fill="#2a7fff"/>
<rect x="89.9" y="65.3" width="6" height="6" fill="#2a7fff"/>
<rect x="92.8" y="65.3" width="6" height="6" fill="#2a7fff"/>
<rect x="98.6" y="65.3" width="6" height="6" fill="#2a7fff"/>
<rect x="109.9" y="65.3" width="6" height="6" fill="#2a7fff"/>
<rect x="128.7" y="65.3" width="6" height="6" fill="#2a7fff"/>
<rect x="154.2" y="65.3" width="6" height="6" fill="#2a7fff"/>
<rect x="183.3" y="65.3" width="6" height="6" fill="#2a7fff"/>
<rect x="213.0" y="65.3" width="6" height="6" fill="#2a7fff"/>
<rect x="241.3" y="65.3" width="6" height="6" fill="#2a7fff"/>
<rect x="293.0" y="68.9" width="6" height="6" fill="#2a7fff"/>
<rect x="341.5" y="88.4" width="6" height="6" fill="#2a7fff"/>
<rect x="435.1" y="150.8" width="6" height="6" fill="#2a7fff"/>
<rect x="528.1" y="219.7" width="6" height="6" fill="#2a7fff"/>
<polyline fill="none" stroke="#9b59b6" stroke-width="2" points="90.0,68.3 90.0,71.4 90.0,79.1 90.1,89.6 90.1,99.6 90.1,111.4 90.2,122.0 90.2,132.5 90.3,141.1 90.5,149.0 90.8,154.1 91.4,158.5 92.5,162.1 94.4,165.7 97.8,169.6 103.2,174.3 110.8,181.1 141.3,194.7 200.1,212.5 376.1,262.0 521.3,328.7"/>
<polygon points="90.0,64.3 94.0,71.3 86.0,71.3" fill="#9b59b6"/>
<polygon points="90.0,67.4 94.0,74.4 86.0,74.4" fill="#9b59b6"/>
<polygon points="90.0,75.1 94.0,82.1 86.0,82.1" fill="#9b59b6"/>
<polygon points="90.1,85.6 94.1,92.6 86.1,92.6" fill="#9b59b6"/>
<polygon points="90.1,95.6 94.1,102.6 86.1,102.6" fill="#9b59b6"/>
<polygon points="90.1,107.4 94.1,114.4 86.1,114.4" fill="#9b59b6"/>
<polygon points="90.2,118.0 94.2,125.0 86.2,125.0" fill="#9b59b6"/>
<polygon points="90.2,128.5 94.2,135.5 86.2,135.5" fill="#9b59b6"/>
<polygon points="90.3,137.1 94.3,144.1 86.3,144.1" fill="#9b59b6"/>
<polygon points="90.5,145.0 94.5,152.0 86.5,152.0" fill="#9b59b6"/>
<polygon points="90.8,150.1 94.8,157.1 86.8,157.1" fill="#9b59b6"/>
<polygon points="91.4,154.5 95.4,161.5 87.4,161.5" fill="#9b59b6"/>
<polygon points="92.5,158.1 96.5,165.1 88.5,165.1" fill="#9b59b6"/>
<polygon points="94.4,161.7 98.4,168.7 90.4,168.7" fill="#9b59b6"/>
<polygon points="97.8,165.6 101.8,172.6 93.8,172.6" fill="#9b59b6"/>
<polygon points="103.2,170.3 107.2,177.3 99.2,177.3" fill="#9b59b6"/>
<polygon points="110.8,177.1 114.8,184.1 106.8,184.1" fill="#9b59b6"/>
<polygon points="141.3,190.7 145.3,197.7 137.3,197.7" fill="#9b59b6"/>
<polygon points="200.1,208.5 204.1,215.5 196.1,215.5" fill="#9b59b6"/>
<polygon points="376.1,258.0 380.1,265.0 372.1,265.0" fill="#9b59b6"/>
<polygon points="521.3,324.7 525.3,331.7 517.3,331.7" fill="#9b59b6"/>
<polyline fill="none" stroke="#4dd88a" stroke-width="2" points="90.0,68.3 90.0,68.3 90.0,68.3 90.1,68.3 90.2,68.3 90.4,68.3 90.7,68.3 91.5,68.3 92.9,68.3 95.8,68.3 101.6,68.3 112.9,68.3 131.7,68.3 157.2,68.3 186.3,68.3 216.0,68.3 244.3,68.3 296.0,71.9 344.5,91.4 438.1,153.8 531.1,222.7"/>
<polygon points="90.0,64.3 94.0,68.3 90.0,72.3 86.0,68.3" fill="#4dd88a"/>
<polygon points="90.0,64.3 94.0,68.3 90.0,72.3 86.0,68.3" fill="#4dd88a"/>
<polygon points="90.0,64.3 94.0,68.3 90.0,72.3 86.0,68.3" fill="#4dd88a"/>
<polygon points="90.1,64.3 94.1,68.3 90.1,72.3 86.1,68.3" fill="#4dd88a"/>
<polygon points="90.2,64.3 94.2,68.3 90.2,72.3 86.2,68.3" fill="#4dd88a"/>
<polygon points="90.4,64.3 94.4,68.3 90.4,72.3 86.4,68.3" fill="#4dd88a"/>
<polygon points="90.7,64.3 94.7,68.3 90.7,72.3 86.7,68.3" fill="#4dd88a"/>
<polygon points="91.5,64.3 95.5,68.3 91.5,72.3 87.5,68.3" fill="#4dd88a"/>
<polygon points="92.9,64.3 96.9,68.3 92.9,72.3 88.9,68.3" fill="#4dd88a"/>
<polygon points="95.8,64.3 99.8,68.3 95.8,72.3 91.8,68.3" fill="#4dd88a"/>
<polygon points="101.6,64.3 105.6,68.3 101.6,72.3 97.6,68.3" fill="#4dd88a"/>
<polygon points="112.9,64.3 116.9,68.3 112.9,72.3 108.9,68.3" fill="#4dd88a"/>
<polygon points="131.7,64.3 135.7,68.3 131.7,72.3 127.7,68.3" fill="#4dd88a"/>
<polygon points="157.2,64.3 161.2,68.3 157.2,72.3 153.2,68.3" fill="#4dd88a"/>
<polygon points="186.3,64.3 190.3,68.3 186.3,72.3 182.3,68.3" fill="#4dd88a"/>
<polygon points="216.0,64.3 220.0,68.3 216.0,72.3 212.0,68.3" fill="#4dd88a"/>
<polygon points="244.3,64.3 248.3,68.3 244.3,72.3 240.3,68.3" fill="#4dd88a"/>
<polygon points="296.0,67.9 300.0,71.9 296.0,75.9 292.0,71.9" fill="#4dd88a"/>
<polygon points="344.5,87.4 348.5,91.4 344.5,95.4 340.5,91.4" fill="#4dd88a"/>
<polygon points="438.1,149.8 442.1,153.8 438.1,157.8 434.1,153.8" fill="#4dd88a"/>
<polygon points="531.1,218.7 535.1,222.7 531.1,226.7 527.1,222.7" fill="#4dd88a"/>
<polyline fill="none" stroke="#ff6b6b" stroke-width="2" points="90.2,68.3 90.2,71.4 90.3,79.1 90.5,89.6 90.8,99.6 91.3,111.4 92.1,122.0 93.3,132.5 94.6,141.1 95.9,149.0 97.4,154.1 99.0,158.5 101.1,162.1 104.0,165.7 108.3,169.7 114.6,174.5 123.0,181.3 155.0,195.0 214.0,213.1 386.5,262.6 528.8,330.0"/>
<polygon points="90.2,63.3 89.0,66.7 85.4,66.8 88.3,69.0 87.2,72.4 90.2,70.3 93.1,72.4 92.1,69.0 94.9,66.8 91.4,66.7" fill="#ff6b6b"/>
<polygon points="90.2,66.4 89.1,69.8 85.5,69.9 88.3,72.1 87.3,75.5 90.2,73.4 93.2,75.5 92.1,72.1 95.0,69.9 91.4,69.8" fill="#ff6b6b"/>
<polygon points="90.3,74.1 89.1,77.5 85.6,77.6 88.4,79.8 87.4,83.2 90.3,81.1 93.2,83.2 92.2,79.8 95.1,77.6 91.5,77.5" fill="#ff6b6b"/>
<polygon points="90.5,84.6 89.3,88.0 85.7,88.1 88.6,90.2 87.5,93.6 90.5,91.6 93.4,93.6 92.4,90.2 95.2,88.1 91.6,88.0" fill="#ff6b6b"/>
<polygon points="90.8,94.6 89.6,97.9 86.0,98.0 88.9,100.2 87.8,103.6 90.8,101.6 93.7,103.6 92.7,100.2 95.5,98.0 91.9,97.9" fill="#ff6b6b"/>
<polygon points="91.3,106.4 90.1,109.8 86.5,109.8 89.4,112.0 88.3,115.4 91.3,113.4 94.2,115.4 93.2,112.0 96.0,109.8 92.5,109.8" fill="#ff6b6b"/>
<polygon points="92.1,117.0 91.0,120.4 87.4,120.5 90.2,122.6 89.2,126.1 92.1,124.0 95.1,126.1 94.0,122.6 96.9,120.5 93.3,120.4" fill="#ff6b6b"/>
<polygon points="93.3,127.5 92.1,130.8 88.5,130.9 91.4,133.1 90.3,136.5 93.3,134.5 96.2,136.5 95.2,133.1 98.0,130.9 94.5,130.8" fill="#ff6b6b"/>
<polygon points="94.6,136.1 93.4,139.5 89.8,139.5 92.7,141.7 91.6,145.1 94.6,143.1 97.5,145.1 96.5,141.7 99.3,139.5 95.7,139.5" fill="#ff6b6b"/>
<polygon points="95.9,144.0 94.7,147.4 91.2,147.4 94.0,149.6 93.0,153.0 95.9,151.0 98.9,153.0 97.8,149.6 100.7,147.4 97.1,147.4" fill="#ff6b6b"/>
<polygon points="97.4,149.1 96.2,152.5 92.6,152.6 95.5,154.8 94.4,158.2 97.4,156.1 100.3,158.2 99.3,154.8 102.1,152.6 98.5,152.5" fill="#ff6b6b"/>
<polygon points="99.0,153.5 97.8,156.9 94.2,157.0 97.1,159.2 96.1,162.6 99.0,160.5 101.9,162.6 100.9,159.2 103.8,157.0 100.2,156.9" fill="#ff6b6b"/>
<polygon points="101.1,157.1 99.9,160.4 96.3,160.5 99.2,162.7 98.2,166.1 101.1,164.1 104.0,166.1 103.0,162.7 105.8,160.5 102.3,160.4" fill="#ff6b6b"/>
<polygon points="104.0,160.7 102.8,164.1 99.2,164.1 102.1,166.3 101.0,169.7 104.0,167.7 106.9,169.7 105.9,166.3 108.7,164.1 105.2,164.1" fill="#ff6b6b"/>
<polygon points="108.3,164.7 107.1,168.1 103.5,168.2 106.4,170.3 105.3,173.8 108.3,171.7 111.2,173.8 110.2,170.3 113.0,168.2 109.4,168.1" fill="#ff6b6b"/>
<polygon points="114.6,169.5 113.4,172.9 109.8,172.9 112.7,175.1 111.6,178.5 114.6,176.5 117.5,178.5 116.5,175.1 119.3,172.9 115.8,172.9" fill="#ff6b6b"/>
<polygon points="123.0,176.3 121.8,179.7 118.3,179.7 121.1,181.9 120.1,185.3 123.0,183.3 126.0,185.3 124.9,181.9 127.8,179.7 124.2,179.7" fill="#ff6b6b"/>
<polygon points="155.0,190.0 153.8,193.4 150.2,193.5 153.1,195.7 152.0,199.1 155.0,197.0 157.9,199.1 156.9,195.7 159.7,193.5 156.1,193.4" fill="#ff6b6b"/>
<polygon points="214.0,208.1 212.8,211.5 209.2,211.6 212.1,213.7 211.1,217.1 214.0,215.1 216.9,217.1 215.9,213.7 218.8,211.6 215.2,211.5" fill="#ff6b6b"/>
<polygon points="386.5,257.6 385.3,261.0 381.7,261.1 384.6,263.2 383.5,266.7 386.5,264.6 389.4,266.7 388.4,263.2 391.2,261.1 387.7,261.0" fill="#ff6b6b"/>
<polygon points="528.8,325.0 527.6,328.3 524.0,328.4 526.9,330.6 525.8,334.0 528.8,332.0 531.7,334.0 530.7,330.6 533.5,328.4 529.9,328.3" fill="#ff6b6b"/>
<polyline fill="none" stroke="#ff922b" stroke-width="2" points="259.7,208.9 290.1,222.6 320.9,238.0 351.2,253.0 380.1,269.0 407.8,286.1 434.0,303.4 458.9,318.7 506.9,358.3 530.5,375.4"/>
<circle cx="259.7" cy="208.9" r="3" fill="#ff922b"/>
<circle cx="290.1" cy="222.6" r="3" fill="#ff922b"/>
<circle cx="320.9" cy="238.0" r="3" fill="#ff922b"/>
<circle cx="351.2" cy="253.0" r="3" fill="#ff922b"/>
<circle cx="380.1" cy="269.0" r="3" fill="#ff922b"/>
<circle cx="407.8" cy="286.1" r="3" fill="#ff922b"/>
<circle cx="434.0" cy="303.4" r="3" fill="#ff922b"/>
<circle cx="458.9" cy="318.7" r="3" fill="#ff922b"/>
<circle cx="506.9" cy="358.3" r="3" fill="#ff922b"/>
<circle cx="530.5" cy="375.4" r="3" fill="#ff922b"/>
<polyline fill="none" stroke="#888888" stroke-width="2" stroke-dasharray="8,5" points="433.2,125.0 468.0,141.8 513.0,164.4 546.7,181.6 580.3,197.9 624.7,221.3 658.2,238.4 691.7,253.9 736.0,277.4 769.5,293.1"/>
<circle cx="433.2" cy="125.0" r="3" fill="#888888"/>
<circle cx="468.0" cy="141.8" r="3" fill="#888888"/>
<circle cx="513.0" cy="164.4" r="3" fill="#888888"/>
<circle cx="546.7" cy="181.6" r="3" fill="#888888"/>
<circle cx="580.3" cy="197.9" r="3" fill="#888888"/>
<circle cx="624.7" cy="221.3" r="3" fill="#888888"/>
<circle cx="658.2" cy="238.4" r="3" fill="#888888"/>
<circle cx="691.7" cy="253.9" r="3" fill="#888888"/>
<circle cx="736.0" cy="277.4" r="3" fill="#888888"/>
<circle cx="769.5" cy="293.1" r="3" fill="#888888"/>
<line x1="886" y1="60" x2="902" y2="60" stroke="#ef4444" stroke-width="2" stroke-dasharray="8,5"/>
<circle cx="894.0" cy="60.0" r="3" fill="#ef4444"/>
<text class="label" x="908" y="64">Theoretical</text>
<line x1="886" y1="78" x2="902" y2="78" stroke="#1a6b3c" stroke-width="2"/>
<polygon points="894.0,74.0 898.0,78.0 894.0,82.0 890.0,78.0" fill="#1a6b3c"/>
<text class="label" x="908" y="82">Grafite</text>
<line x1="886" y1="96" x2="902" y2="96" stroke="#1a3a6b" stroke-width="2"/>
<polygon points="894.0,91.0 892.8,94.4 889.2,94.5 892.1,96.6 891.1,100.0 894.0,98.0 896.9,100.0 895.9,96.6 898.8,94.5 895.2,94.4" fill="#1a3a6b"/>
<text class="label" x="908" y="100">SNARF</text>
<line x1="886" y1="114" x2="902" y2="114" stroke="#111111" stroke-width="2"/>
<rect x="891.0" y="111.0" width="6" height="6" fill="#111111"/>
<text class="label" x="908" y="118">SuRF</text>
<line x1="886" y1="132" x2="902" y2="132" stroke="#111111" stroke-width="2"/>
<polygon points="894.0,128.0 898.0,135.0 890.0,135.0" fill="#111111"/>
<text class="label" x="908" y="136">SuRFHash(8)</text>
<line x1="886" y1="150" x2="902" y2="150" stroke="#111111" stroke-width="2"/>
<polygon points="894.0,146.0 898.0,150.0 894.0,154.0 890.0,150.0" fill="#111111"/>
<text class="label" x="908" y="154">SuRFReal(8)</text>
<line x1="886" y1="168" x2="902" y2="168" stroke="#2a7fff" stroke-width="2"/>
<rect x="891.0" y="165.0" width="6" height="6" fill="#2a7fff"/>
<text class="label" x="908" y="172">Adaptive (t=0)</text>
<line x1="886" y1="186" x2="902" y2="186" stroke="#9b59b6" stroke-width="2"/>
<polygon points="894.0,182.0 898.0,189.0 890.0,189.0" fill="#9b59b6"/>
<text class="label" x="908" y="190">Truncation</text>
<line x1="886" y1="204" x2="902" y2="204" stroke="#4dd88a" stroke-width="2"/>
<polygon points="894.0,200.0 898.0,204.0 894.0,208.0 890.0,204.0" fill="#4dd88a"/>
<text class="label" x="908" y="208">SODA</text>
<line x1="886" y1="222" x2="902" y2="222" stroke="#ff6b6b" stroke-width="2"/>
<polygon points="894.0,217.0 892.8,220.4 889.2,220.5 892.1,222.6 891.1,226.0 894.0,224.0 896.9,226.0 895.9,222.6 898.8,220.5 895.2,220.4" fill="#ff6b6b"/>
<text class="label" x="908" y="226">Hybrid</text>
<line x1="886" y1="240" x2="902" y2="240" stroke="#ff922b" stroke-width="2"/>
<circle cx="894.0" cy="240.0" r="3" fill="#ff922b"/>
<text class="label" x="908" y="244">CDF-ARE</text>
<line x1="886" y1="258" x2="902" y2="258" stroke="#888888" stroke-width="2" stroke-dasharray="8,5"/>
<circle cx="894.0" cy="258.0" r="3" fill="#888888"/>
<text class="label" x="908" y="262">BloomARE</text>
<text x="480" y="590" text-anchor="middle">Bits per Key (BPK)</text>
<text transform="translate(16,295) rotate(-90)" text-anchor="middle">False Positive Rate (FPR)</text>
</svg>
