<svg xmlns="http://www.w3.org/2000/svg" width="1020" height="600" viewBox="0 0 1020 600">
<style>text{font-family:Menlo,Monaco,monospace;font-size:12px;fill:#222} .axis{stroke:#333;stroke-width:1} .grid{stroke:#eee;stroke-width:0.5} .label{font-size:11px;fill:#444}</style>
<text x="510" y="28" text-anchor="middle" style="font-size:14px;font-weight:bold">FPR vs BPK — sosd_osm (60-bit keys, n=65536, L=16)</text>
<line class="axis" x1="90.0" y1="550.0" x2="870.0" y2="550.0"/>
<line class="axis" x1="90.0" y1="40.0" x2="90.0" y2="550.0"/>
<line class="grid" x1="90.0" y1="524.5" x2="870.0" y2="524.5"/>
<text class="label" x="82.0" y="528.5" text-anchor="end">10^-9</text>
<line class="grid" x1="90.0" y1="473.5" x2="870.0" y2="473.5"/>
<text class="label" x="82.0" y="477.5" text-anchor="end">10^-8</text>
<line class="grid" x1="90.0" y1="422.5" x2="870.0" y2="422.5"/>
<text class="label" x="82.0" y="426.5" text-anchor="end">10^-7</text>
<line class="grid" x1="90.0" y1="371.5" x2="870.0" y2="371.5"/>
<text class="label" x="82.0" y="375.5" text-anchor="end">10^-6</text>
<line class="grid" x1="90.0" y1="320.5" x2="870.0" y2="320.5"/>
<text class="label" x="82.0" y="324.5" text-anchor="end">10^-5</text>
<line class="grid" x1="90.0" y1="269.5" x2="870.0" y2="269.5"/>
<text class="label" x="82.0" y="273.5" text-anchor="end">10^-4</text>
<line class="grid" x1="90.0" y1="218.5" x2="870.0" y2="218.5"/>
<text class="label" x="82.0" y="222.5" text-anchor="end">10^-3</text>
<line class="grid" x1="90.0" y1="167.5" x2="870.0" y2="167.5"/>
<text class="label" x="82.0" y="171.5" text-anchor="end">10^-2</text>
<line class="grid" x1="90.0" y1="116.5" x2="870.0" y2="116.5"/>
<text class="label" x="82.0" y="120.5" text-anchor="end">10^-1</text>
<line class="grid" x1="90.0" y1="65.5" x2="870.0" y2="65.5"/>
<text class="label" x="82.0" y="69.5" text-anchor="end">1</text>
<line class="grid" x1="90.0" y1="40.0" x2="90.0" y2="550.0"/>
<text class="label" x="90.0" y="566.0" text-anchor="middle">0</text>
<line class="grid" x1="206.1" y1="40.0" x2="206.1" y2="550.0"/>
<text class="label" x="206.1" y="566.0" text-anchor="middle">5</text>
<line class="grid" x1="322.1" y1="40.0" x2="322.1" y2="550.0"/>
<text class="label" x="322.1" y="566.0" text-anchor="middle">10</text>
<line class="grid" x1="438.2" y1="40.0" x2="438.2" y2="550.0"/>
<text class="label" x="438.2" y="566.0" text-anchor="middle">15</text>
<line class="grid" x1="554.3" y1="40.0" x2="554.3" y2="550.0"/>
<text class="label" x="554.3" y="566.0" text-anchor="middle">20</text>
<line class="grid" x1="670.4" y1="40.0" x2="670.4" y2="550.0"/>
<text class="label" x="670.4" y="566.0" text-anchor="middle">25</text>
<line class="grid" x1="786.4" y1="40.0" x2="786.4" y2="550.0"/>
<text class="label" x="786.4" y="566.0" text-anchor="middle">30</text>
<polyline fill="none" stroke="#ef4444" stroke-width="2" stroke-dasharray="8,5" points="182.9,65.5 206.1,80.9 229.3,96.2 252.5,111.6 275.7,126.9 298.9,142.3 322.1,157.6 345.4,173.0 368.6,188.3 391.8,203.7 415.0,219.0 438.2,234.4 461.4,249.7 484.6,265.1 507.9,280.4 531.1,295.8 554.3,311.1 600.7,341.8 647.1,372.6 740.0,434.0 832.9,495.4"/>
<circle cx="182.9" cy="65.5" r="3" fill="#ef4444"/>
<circle cx="206.1" cy="80.9" r="3" fill="#ef4444"/>
<circle cx="229.3" cy="96.2" r="3" fill="#ef4444"/>
<circle cx="252.5" cy="111.6" r="3" fill="#ef4444"/>
<circle cx="275.7" cy="126.9" r="3" fill="#ef4444"/>
<circle cx="298.9" cy="142.3" r="3" fill="#ef4444"/>
<circle cx="322.1" cy="157.6" r="3" fill="#ef4444"/>
<circle cx="345.4" cy="173.0" r="3" fill="#ef4444"/>
<circle cx="368.6" cy="188.3" r="3" fill="#ef4444"/>
<circle cx="391.8" cy="203.7" r="3" fill="#ef4444"/>
<circle cx="415.0" cy="219.0" r="3" fill="#ef4444"/>
<circle cx="438.2" cy="234.4" r="3" fill="#ef4444"/>
<circle cx="461.4" cy="249.7" r="3" fill="#ef4444"/>
<circle cx="484.6" cy="265.1" r="3" fill="#ef4444"/>
<circle cx="507.9" cy="280.4" r="3" fill="#ef4444"/>
<circle cx="531.1" cy="295.8" r="3" fill="#ef4444"/>
<circle cx="554.3" cy="311.1" r="3" fill="#ef4444"/>
<circle cx="600.7" cy="341.8" r="3" fill="#ef4444"/>
<circle cx="647.1" cy="372.6" r="3" fill="#ef4444"/>
<circle cx="740.0" cy="434.0" r="3" fill="#ef4444"/>
<circle cx="832.9" cy="495.4" r="3" fill="#ef4444"/>
<polyline fill="none" stroke="#1a6b3c" stroke-width="2" points="189.7,65.9 237.4,75.7 290.0,99.0 337.4,127.7 383.9,157.8 430.6,188.8 484.3,216.6 530.7,249.0 577.1,281.4"/>
<polygon points="189.7,61.9 193.7,65.9 189.7,69.9 185.7,65.9" fill="#1a6b3c"/>
<polygon points="237.4,71.7 241.4,75.7 237.4,79.7 233.4,75.7" fill="#1a6b3c"/>
<polygon points="290.0,95.0 294.0,99.0 290.0,103.0 286.0,99.0" fill="#1a6b3c"/>
<polygon points="337.4,123.7 341.4,127.7 337.4,131.7 333.4,127.7" fill="#1a6b3c"/>
<polygon points="383.9,153.8 387.9,157.8 383.9,161.8 379.9,157.8" fill="#1a6b3c"/>
<polygon points="430.6,184.8 434.6,188.8 430.6,192.8 426.6,188.8" fill="#1a6b3c"/>
<polygon points="484.3,212.6 488.3,216.6 484.3,220.6 480.3,216.6" fill="#1a6b3c"/>
<polygon points="530.7,245.0 534.7,249.0 530.7,253.0 526.7,249.0" fill="#1a6b3c"/>
<polygon points="577.1,277.4 581.1,281.4 577.1,285.4 573.1,281.4" fill="#1a6b3c"/>
<polyline fill="none" stroke="#1a3a6b" stroke-width="2" points="168.5,163.7 214.7,179.7 261.4,196.2 308.0,211.7 354.2,228.6 400.4,246.5 447.1,270.6 493.7,311.1 539.9,350.8"/>
<polygon points="168.5,158.7 167.3,162.1 163.7,162.2 166.6,164.3 165.5,167.8 168.5,165.7 171.4,167.8 170.4,164.3 173.2,162.2 169.6,162.1" fill="#1a3a6b"/>
<polygon points="214.7,174.7 213.5,178.1 210.0,178.2 212.8,180.3 211.8,183.8 214.7,181.7 217.7,183.8 216.6,180.3 219.5,178.2 215.9,178.1" fill="#1a3a6b"/>
<polygon points="261.4,191.2 260.2,194.6 256.6,194.6 259.4,196.8 258.4,200.2 261.4,198.2 264.3,200.2 263.3,196.8 266.1,194.6 262.5,194.6" fill="#1a3a6b"/>
<polygon points="308.0,206.7 306.8,210.1 303.2,210.2 306.1,212.3 305.0,215.8 308.0,213.7 310.9,215.8 309.9,212.3 312.7,210.2 309.2,210.1" fill="#1a3a6b"/>
<polygon points="354.2,223.6 353.0,227.0 349.4,227.1 352.3,229.2 351.2,232.7 354.2,230.6 357.1,232.7 356.1,229.2 358.9,227.1 355.4,227.0" fill="#1a3a6b"/>
<polygon points="400.4,241.5 399.3,244.9 395.7,245.0 398.5,247.1 397.5,250.6 400.4,248.5 403.4,250.6 402.3,247.1 405.2,245.0 401.6,244.9" fill="#1a3a6b"/>
<polygon points="447.1,265.6 445.9,268.9 442.3,269.0 445.2,271.2 444.1,274.6 447.1,272.6 450.0,274.6 449.0,271.2 451.8,269.0 448.2,268.9" fill="#1a3a6b"/>
<polygon points="493.7,306.1 492.5,309.5 488.9,309.6 491.8,311.8 490.8,315.2 493.7,313.1 496.6,315.2 495.6,311.8 498.4,309.6 494.9,309.5" fill="#1a3a6b"/>
<polygon points="539.9,345.8 538.7,349.2 535.1,349.3 538.0,351.4 537.0,354.9 539.9,352.8 542.8,354.9 541.8,351.4 544.6,349.3 541.1,349.2" fill="#1a3a6b"/>
<polyline fill="none" stroke="#111111" stroke-width="2" points="379.4,99.4"/>
<rect x="376.4" y="96.4" width="6" height="6" fill="#111111"/>
<polyline fill="none" stroke="#111111" stroke-width="2" points="557.5,99.4"/>
<polygon points="557.5,95.4 561.5,102.4 553.5,102.4" fill="#111111"/>
<polyline fill="none" stroke="#111111" stroke-width="2" points="557.5,223.5"/>
<polygon points="557.5,219.5 561.5,223.5 557.5,227.5 553.5,223.5" fill="#111111"/>
<polyline fill="none" stroke="#2a7fff" stroke-width="2" points="90.0,65.5 90.0,65.5 90.0,65.5 90.1,65.5 90.2,65.5 90.4,65.5 90.7,65.5 91.5,65.5 92.9,65.5 95.8,65.5 101.6,65.5 112.9,65.5 131.7,65.5 157.2,65.5 186.3,65.9 216.0,68.7 244.3,75.7 296.0,99.0 344.5,127.7 438.1,188.6 531.1,251.5"/>
<rect x="87.0" y="62.5" width="6" height="6" fill="#2a7fff"/>
<rect x="87.0" y="62.5" width="6" height="6" fill="#2a7fff"/>
<rect x="87.0" y="62.5" width="6" height="6" fill="#2a7fff"/>
<rect x="87.1" y="62.5" width="6" height="6" fill="#2a7fff"/>
<rect x="87.2" y="62.5" width="6" height="6" fill="#2a7fff"/>
<rect x="87.4" y="62.5" width="6" height="6" fill="#2a7fff"/>
<rect x="87.7" y="62.5" width="6" height="6" fill="#2a7fff"/>
<rect x="88.5" y="62.5" width="6" height="6" fill="#2a7fff"/>
<rect x="89.9" y="62.5" width="6" height="6" fill="#2a7fff"/>
<rect x="92.8" y="62.5" width="6" height="6" fill="#2a7fff"/>
<rect x="98.6" y="62.5" width="6" height="6" fill="#2a7fff"/>
<rect x="109.9" y="62.5" width="6" height="6" fill="#2a7fff"/>
<rect x="128.7" y="62.5" width="6" height="6" fill="#2a7fff"/>
<rect x="154.2" y="62.5" width="6" height="6" fill="#2a7fff"/>
<rect x="183.3" y="62.9" width="6" height="6" fill="#2a7fff"/>
<rect x="213.0" y="65.7" width="6" height="6" fill="#2a7fff"/>
<rect x="241.3" y="72.7" width="6" height="6" fill="#2a7fff"/>
<rect x="293.0" y="96.0" width="6" height="6" fill="#2a7fff"/>
<rect x="341.5" y="124.7" width="6" height="6" fill="#2a7fff"/>
<rect x="435.1" y="185.6" width="6" height="6" fill="#2a7fff"/>
<rect x="528.1" y="248.5" width="6" height="6" fill="#2a7fff"/>
<polyline fill="none" stroke="#9b59b6" stroke-width="2" points="90.0,65.5 90.0,68.3 90.0,75.2 90.1,84.6 90.1,93.6 90.1,104.3 90.2,113.8 90.2,123.2 90.3,131.0 90.5,138.1 90.8,142.7 91.4,146.7 92.5,149.8 94.4,153.1 97.8,156.7 103.2,160.9 110.8,166.9 141.3,179.2 200.1,195.3 376.1,239.8 521.3,299.8"/>
<polygon points="90.0,61.5 94.0,68.5 86.0,68.5" fill="#9b59b6"/>
<polygon points="90.0,64.3 94.0,71.3 86.0,71.3" fill="#9b59b6"/>
<polygon points="90.0,71.2 94.0,78.2 86.0,78.2" fill="#9b59b6"/>
<polygon points="90.1,80.6 94.1,87.6 86.1,87.6" fill="#9b59b6"/>
<polygon points="90.1,89.6 94.1,96.6 86.1,96.6" fill="#9b59b6"/>
<polygon points="90.1,100.3 94.1,107.3 86.1,107.3" fill="#9b59b6"/>
<polygon points="90.2,109.8 94.2,116.8 86.2,116.8" fill="#9b59b6"/>
<polygon points="90.2,119.2 94.2,126.2 86.2,126.2" fill="#9b59b6"/>
<polygon points="90.3,127.0 94.3,134.0 86.3,134.0" fill="#9b59b6"/>
<polygon points="90.5,134.1 94.5,141.1 86.5,141.1" fill="#9b59b6"/>
<polygon points="90.8,138.7 94.8,145.7 86.8,145.7" fill="#9b59b6"/>
<polygon points="91.4,142.7 95.4,149.7 87.4,149.7" fill="#9b59b6"/>
<polygon points="92.5,145.8 96.5,152.8 88.5,152.8" fill="#9b59b6"/>
<polygon points="94.4,149.1 98.4,156.1 90.4,156.1" fill="#9b59b6"/>
<polygon points="97.8,152.7 101.8,159.7 93.8,159.7" fill="#9b59b6"/>
<polygon points="103.2,156.9 107.2,163.9 99.2,163.9" fill="#9b59b6"/>
<polygon points="110.8,162.9 114.8,169.9 106.8,169.9" fill="#9b59b6"/>
<polygon points="141.3,175.2 145.3,182.2 137.3,182.2" fill="#9b59b6"/>
<polygon points="200.1,191.3 204.1,198.3 196.1,198.3" fill="#9b59b6"/>
<polygon points="376.1,235.8 380.1,242.8 372.1,242.8" fill="#9b59b6"/>
<polygon points="521.3,295.8 525.3,302.8 517.3,302.8" fill="#9b59b6"/>
<polyline fill="none" stroke="#4dd88a" stroke-width="2" points="90.0,65.5 90.0,65.5 90.0,65.5 90.1,65.5 90.2,65.5 90.4,65.5 90.7,65.5 91.5,65.5 92.9,65.5 95.8,65.5 101.6,65.5 112.9,65.5 131.7,65.5 157.2,65.5 186.3,65.9 216.0,68.7 244.3,75.7 296.0,99.0 344.5,127.7 438.1,188.6 531.1,251.5"/>
<polygon points="90.0,61.5 94.0,65.5 90.0,69.5 86.0,65.5" fill="#4dd88a"/>
<polygon points="90.0,61.5 94.0,65.5 90.0,69.5 86.0,65.5" fill="#4dd88a"/>
<polygon points="90.0,61.5 94.0,65.5 90.0,69.5 86.0,65.5" fill="#4dd88a"/>
<polygon points="90.1,61.5 94.1,65.5 90.1,69.5 86.1,65.5" fill="#4dd88a"/>
<polygon points="90.2,61.5 94.2,65.5 90.2,69.5 86.2,65.5" fill="#4dd88a"/>
<polygon points="90.4,61.5 94.4,65.5 90.4,69.5 86.4,65.5" fill="#4dd88a"/>
<polygon points="90.7,61.5 94.7,65.5 90.7,69.5 86.7,65.5" fill="#4dd88a"/>
<polygon points="91.5,61.5 95.5,65.5 91.5,69.5 87.5,65.5" fill="#4dd88a"/>
<polygon points="92.9,61.5 96.9,65.5 92.9,69.5 88.9,65.5" fill="#4dd88a"/>
<polygon points="95.8,61.5 99.8,65.5 95.8,69.5 91.8,65.5" fill="#4dd88a"/>
<polygon points="101.6,61.5 105.6,65.5 101.6,69.5 97.6,65.5" fill="#4dd88a"/>
<polygon points="112.9,61.5 116.9,65.5 112.9,69.5 108.9,65.5" fill="#4dd88a"/>
<polygon points="131.7,61.5 135.7,65.5 131.7,69.5 127.7,65.5" fill="#4dd88a"/>
<polygon points="157.2,61.5 161.2,65.5 157.2,69.5 153.2,65.5" fill="#4dd88a"/>
<polygon points="186.3,61.9 190.3,65.9 186.3,69.9 182.3,65.9" fill="#4dd88a"/>
<polygon points="216.0,64.7 220.0,68.7 216.0,72.7 212.0,68.7" fill="#4dd88a"/>
<polygon points="244.3,71.7 248.3,75.7 244.3,79.7 240.3,75.7" fill="#4dd88a"/>
<polygon points="296.0,95.0 300.0,99.0 296.0,103.0 292.0,99.0" fill="#4dd88a"/>
<polygon points="344.5,123.7 348.5,127.7 344.5,131.7 340.5,127.7" fill="#4dd88a"/>
<polygon points="438.1,184.6 442.1,188.6 438.1,192.6 434.1,188.6" fill="#4dd88a"/>
<polygon points="531.1,247.5 535.1,251.5 531.1,255.5 527.1,251.5" fill="#4dd88a"/>
<polyline fill="none" stroke="#ff6b6b" stroke-width="2" points="90.2,65.5 90.2,68.3 90.3,75.2 90.5,84.6 90.8,93.6 91.3,104.3 92.1,113.8 93.3,123.2 94.6,131.0 95.9,138.1 97.4,142.7 99.0,146.7 101.1,149.9 104.0,153.1 108.3,156.8 114.6,161.1 123.0,167.2 155.0,179.5 214.0,195.8 386.5,240.4 528.8,301.0"/>
<polygon points="90.2,60.5 89.0,63.9 85.4,64.0 88.3,66.1 87.2,69.5 90.2,67.5 93.1,69.5 92.1,66.1 94.9,64.0 91.4,63.9" fill="#ff6b6b"/>
<polygon points="90.2,63.3 89.1,66.7 85.5,66.8 88.3,68.9 87.3,72.3 90.2,70.3 93.2,72.3 92.1,68.9 95.0,66.8 91.4,66.7" fill="#ff6b6b"/>
<polygon points="90.3,70.2 89.1,73.6 85.6,73.7 88.4,75.8 87.4,79.3 90.3,77.2 93.2,79.3 92.2,75.8 95.1,73.7 91.5,73.6" fill="#ff6b6b"/>
<polygon points="90.5,79.6 89.3,83.0 85.7,83.1 88.6,85.3 87.5,88.7 90.5,86.6 93.4,88.7 92.4,85.3 95.2,83.1 91.6,83.0" fill="#ff6b6b"/>
<polygon points="90.8,88.6 89.6,92.0 86.0,92.1 88.9,94.2 87.8,97.6 90.8,95.6 93.7,97.6 92.7,94.2 95.5,92.1 91.9,92.0" fill="#ff6b6b"/>
<polygon points="91.3,99.3 90.1,102.6 86.5,102.7 89.4,104.9 88.3,108.3 91.3,106.3 94.2,108.3 93.2,104.9 96.0,102.7 92.5,102.6" fill="#ff6b6b"/>
<polygon points="92.1,108.8 91.0,112.2 87.4,112.3 90.2,114.4 89.2,117.9 92.1,115.8 95.1,117.9 94.0,114.4 96.9,112.3 93.3,112.2" fill="#ff6b6b"/>
<polygon points="93.3,118.2 92.1,121.6 88.5,121.7 91.4,123.8 90.3,127.3 93.3,125.2 96.2,127.3 95.2,123.8 98.0,121.7 94.5,121.6" fill="#ff6b6b"/>
<polygon points="94.6,126.0 93.4,129.3 89.8,129.4 92.7,131.6 91.6,135.0 94.6,133.0 97.5,135.0 96.5,131.6 99.3,129.4 95.7,129.3" fill="#ff6b6b"/>
<polygon points="95.9,133.1 94.7,136.5 91.2,136.5 94.0,138.7 93.0,142.1 95.9,140.1 98.9,142.1 97.8,138.7 100.7,136.5 97.1,136.5" fill="#ff6b6b"/>
<polygon points="97.4,137.7 96.2,141.1 92.6,141.2 95.5,143.4 94.4,146.8 97.4,144.7 100.3,146.8 99.3,143.4 102.1,141.2 98.5,141.1" fill="#ff6b6b"/>
<polygon points="99.0,141.7 97.8,145.1 94.2,145.1 97.1,147.3 96.1,150.7 99.0,148.7 101.9,150.7 100.9,147.3 103.8,145.1 100.2,145.1" fill="#ff6b6b"/>
<polygon points="101.1,144.9 99.9,148.3 96.3,148.3 99.2,150.5 98.2,153.9 101.1,151.9 104.0,153.9 103.0,150.5 105.8,148.3 102.3,148.3" fill="#ff6b6b"/>
<polygon points="104.0,148.1 102.8,151.5 99.2,151.6 102.1,153.8 101.0,157.2 104.0,155.1 106.9,157.2 105.9,153.8 108.7,151.6 105.2,151.5" fill="#ff6b6b"/>
<polygon points="108.3,151.8 107.1,155.1 103.5,155.2 106.4,157.4 105.3,160.8 108.3,158.8 111.2,160.8 110.2,157.4 113.0,155.2 109.4,155.1" fill="#ff6b6b"/>
<polygon points="114.6,156.1 113.4,159.4 109.8,159.5 112.7,161.7 111.6,165.1 114.6,163.1 117.5,165.1 116.5,161.7 119.3,159.5 115.8,159.4" fill="#ff6b6b"/>
<polygon points="123.0,162.2 121.8,165.5 118.3,165.6 121.1,167.8 120.1,171.2 123.0,169.2 126.0,171.2 124.9,167.8 127.8,165.6 124.2,165.5" fill="#ff6b6b"/>
<polygon points="155.0,174.5 153.8,177.9 150.2,178.0 153.1,180.2 152.0,183.6 155.0,181.5 157.9,183.6 156.9,180.2 159.7,178.0 156.1,177.9" fill="#ff6b6b"/>
<polygon points="214.0,190.8 212.8,194.2 209.2,194.2 212.1,196.4 211.1,199.8 214.0,197.8 216.9,199.8 215.9,196.4 218.8,194.2 215.2,194.2" fill="#ff6b6b"/>
<polygon points="386.5,235.4 385.3,238.8 381.7,238.8 384.6,241.0 383.5,244.4 386.5,242.4 389.4,244.4 388.4,241.0 391.2,238.8 387.7,238.8" fill="#ff6b6b"/>
<polygon points="528.8,296.0 527.6,299.3 524.0,299.4 526.9,301.6 525.8,305.0 528.8,303.0 531.7,305.0 530.7,301.6 533.5,299.4 529.9,299.3" fill="#ff6b6b"/>
<polyline fill="none" stroke="#ff922b" stroke-width="2" points="259.7,192.0 290.1,204.4 320.9,218.2 351.2,231.7 380.1,246.1 407.8,261.5 434.0,277.0 458.9,290.8 506.9,326.5 530.5,341.8"/>
<circle cx="259.7" cy="192.0" r="3" fill="#ff922b"/>
<circle cx="290.1" cy="204.4" r="3" fill="#ff922b"/>
<circle cx="320.9" cy="218.2" r="3" fill="#ff922b"/>
<circle cx="351.2" cy="231.7" r="3" fill="#ff922b"/>
<circle cx="380.1" cy="246.1" r="3" fill="#ff922b"/>
<circle cx="407.8" cy="261.5" r="3" fill="#ff922b"/>
<circle cx="434.0" cy="277.0" r="3" fill="#ff922b"/>
<circle cx="458.9" cy="290.8" r="3" fill="#ff922b"/>
<circle cx="506.9" cy="326.5" r="3" fill="#ff922b"/>
<circle cx="530.5" cy="341.8" r="3" fill="#ff922b"/>
<polyline fill="none" stroke="#888888" stroke-width="2" stroke-dasharray="8,5" points="332.9,116.1 367.6,131.6 412.5,152.3 446.2,167.6 479.9,182.4 524.2,203.4 557.7,218.0 591.2,232.7 635.5,251.5 669.0,269.1"/>
<circle cx="332.9" cy="116.1" r="3" fill="#888888"/>
<circle cx="367.6" cy="131.6" r="3" fill="#888888"/>
<circle cx="412.5" cy="152.3" r="3" fill="#888888"/>
<circle cx="446.2" cy="167.6" r="3" fill="#888888"/>
<circle cx="479.9" cy="182.4" r="3" fill="#888888"/>
<circle cx="524.2" cy="203.4" r="3" fill="#888888"/>
<circle cx="557.7" cy="218.0" r="3" fill="#888888"/>
<circle cx="591.2" cy="232.7" r="3" fill="#888888"/>
<circle cx="635.5" cy="251.5" r="3" fill="#888888"/>
<circle cx="669.0" cy="269.1" r="3" fill="#888888"/>
<line x1="886" y1="60" x2="902" y2="60" stroke="#ef4444" stroke-width="2" stroke-dasharray="8,5"/>
<circle cx="894.0" cy="60.0" r="3" fill="#ef4444"/>
<text class="label" x="908" y="64">Theoretical</text>
<line x1="886" y1="78" x2="902" y2="78" stroke="#1a6b3c" stroke-width="2"/>
<polygon points="894.0,74.0 898.0,78.0 894.0,82.0 890.0,78.0" fill="#1a6b3c"/>
<text class="label" x="908" y="82">Grafite</text>
<line x1="886" y1="96" x2="902" y2="96" stroke="#1a3a6b" stroke-width="2"/>
<polygon points="894.0,91.0 892.8,94.4 889.2,94.5 892.1,96.6 891.1,100.0 894.0,98.0 896.9,100.0 895.9,96.6 898.8,94.5 895.2,94.4" fill="#1a3a6b"/>
<text class="label" x="908" y="100">SNARF</text>
<line x1="886" y1="114" x2="902" y2="114" stroke="#111111" stroke-width="2"/>
<rect x="891.0" y="111.0" width="6" height="6" fill="#111111"/>
<text class="label" x="908" y="118">SuRF</text>
<line x1="886" y1="132" x2="902" y2="132" stroke="#111111" stroke-width="2"/>
<polygon points="894.0,128.0 898.0,135.0 890.0,135.0" fill="#111111"/>
<text class="label" x="908" y="136">SuRFHash(8)</text>
<line x1="886" y1="150" x2="902" y2="150" stroke="#111111" stroke-width="2"/>
<polygon points="894.0,146.0 898.0,150.0 894.0,154.0 890.0,150.0" fill="#111111"/>
<text class="label" x="908" y="154">SuRFReal(8)</text>
<line x1="886" y1="168" x2="902" y2="168" stroke="#2a7fff" stroke-width="2"/>
<rect x="891.0" y="165.0" width="6" height="6" fill="#2a7fff"/>
<text class="label" x="908" y="172">Adaptive (t=0)</text>
<line x1="886" y1="186" x2="902" y2="186" stroke="#9b59b6" stroke-width="2"/>
<polygon points="894.0,182.0 898.0,189.0 890.0,189.0" fill="#9b59b6"/>
<text class="label" x="908" y="190">Truncation</text>
<line x1="886" y1="204" x2="902" y2="204" stroke="#4dd88a" stroke-width="2"/>
<polygon points="894.0,200.0 898.0,204.0 894.0,208.0 890.0,204.0" fill="#4dd88a"/>
<text class="label" x="908" y="208">SODA</text>
<line x1="886" y1="222" x2="902" y2="222" stroke="#ff6b6b" stroke-width="2"/>
<polygon points="894.0,217.0 892.8,220.4 889.2,220.5 892.1,222.6 891.1,226.0 894.0,224.0 896.9,226.0 895.9,222.6 898.8,220.5 895.2,220.4" fill="#ff6b6b"/>
<text class="label" x="908" y="226">Hybrid</text>
<line x1="886" y1="240" x2="902" y2="240" stroke="#ff922b" stroke-width="2"/>
<circle cx="894.0" cy="240.0" r="3" fill="#ff922b"/>
<text class="label" x="908" y="244">CDF-ARE</text>
<line x1="886" y1="258" x2="902" y2="258" stroke="#888888" stroke-width="2" stroke-dasharray="8,5"/>
<circle cx="894.0" cy="258.0" r="3" fill="#888888"/>
<text class="label" x="908" y="262">BloomARE</text>
<text x="480" y="590" text-anchor="middle">Bits per Key (BPK)</text>
<text transform="translate(16,295) rotate(-90)" text-anchor="middle">False Positive Rate (FPR)</text>
</svg>
