<svg xmlns="http://www.w3.org/2000/svg" width="1020" height="600" viewBox="0 0 1020 600">
<style>text{font-family:Menlo,Monaco,monospace;font-size:12px;fill:#222} .axis{stroke:#333;stroke-width:1} .grid{stroke:#eee;stroke-width:0.5} .label{font-size:11px;fill:#444}</style>
<text x="510" y="28" text-anchor="middle" style="font-size:14px;font-weight:bold">Build Throughput — clustered (ε=0.01, L=100)</text>
<line class="axis" x1="90.0" y1="550.0" x2="870.0" y2="550.0"/>
<line class="axis" x1="90.0" y1="40.0" x2="90.0" y2="550.0"/>
<line class="grid" x1="90.0" y1="499.0" x2="870.0" y2="499.0"/>
<text class="label" x="82.0" y="503.0" text-anchor="end">10^-2</text>
<line class="grid" x1="90.0" y1="397.0" x2="870.0" y2="397.0"/>
<text class="label" x="82.0" y="401.0" text-anchor="end">10^-1</text>
<line class="grid" x1="90.0" y1="295.0" x2="870.0" y2="295.0"/>
<text class="label" x="82.0" y="299.0" text-anchor="end">1</text>
<line class="grid" x1="90.0" y1="193.0" x2="870.0" y2="193.0"/>
<text class="label" x="82.0" y="197.0" text-anchor="end">10</text>
<line class="grid" x1="90.0" y1="91.0" x2="870.0" y2="91.0"/>
<text class="label" x="82.0" y="95.0" text-anchor="end">100</text>
<line class="grid" x1="90.0" y1="40.0" x2="90.0" y2="550.0"/>
<text class="label" x="90.0" y="566.0" text-anchor="middle">1K</text>
<line class="grid" x1="246.0" y1="40.0" x2="246.0" y2="550.0"/>
<text class="label" x="246.0" y="566.0" text-anchor="middle">10K</text>
<line class="grid" x1="402.0" y1="40.0" x2="402.0" y2="550.0"/>
<text class="label" x="402.0" y="566.0" text-anchor="middle">100K</text>
<line class="grid" x1="558.0" y1="40.0" x2="558.0" y2="550.0"/>
<text class="label" x="558.0" y="566.0" text-anchor="middle">1M</text>
<line class="grid" x1="714.0" y1="40.0" x2="714.0" y2="550.0"/>
<text class="label" x="714.0" y="566.0" text-anchor="middle">10^7</text>
<polyline fill="none" stroke="#2a7fff" stroke-width="2" points="91.6,247.8 185.5,252.2 279.4,252.1 373.4,255.6 467.3,260.7 561.2,263.2 655.1,250.9 749.1,256.9"/>
<rect x="88.6" y="244.8" width="6" height="6" fill="#2a7fff"/>
<rect x="182.5" y="249.2" width="6" height="6" fill="#2a7fff"/>
<rect x="276.4" y="249.1" width="6" height="6" fill="#2a7fff"/>
<rect x="370.4" y="252.6" width="6" height="6" fill="#2a7fff"/>
<rect x="464.3" y="257.7" width="6" height="6" fill="#2a7fff"/>
<rect x="558.2" y="260.2" width="6" height="6" fill="#2a7fff"/>
<rect x="652.1" y="247.9" width="6" height="6" fill="#2a7fff"/>
<rect x="746.1" y="253.9" width="6" height="6" fill="#2a7fff"/>
<polyline fill="none" stroke="#4dd88a" stroke-width="2" points="91.6,238.5 185.5,239.0 279.4,244.3 373.4,246.1 467.3,252.5 561.2,249.4 655.1,237.1 749.1,249.1"/>
<polygon points="91.6,234.5 95.6,238.5 91.6,242.5 87.6,238.5" fill="#4dd88a"/>
<polygon points="185.5,235.0 189.5,239.0 185.5,243.0 181.5,239.0" fill="#4dd88a"/>
<polygon points="279.4,240.3 283.4,244.3 279.4,248.3 275.4,244.3" fill="#4dd88a"/>
<polygon points="373.4,242.1 377.4,246.1 373.4,250.1 369.4,246.1" fill="#4dd88a"/>
<polygon points="467.3,248.5 471.3,252.5 467.3,256.5 463.3,252.5" fill="#4dd88a"/>
<polygon points="561.2,245.4 565.2,249.4 561.2,253.4 557.2,249.4" fill="#4dd88a"/>
<polygon points="655.1,233.1 659.1,237.1 655.1,241.1 651.1,237.1" fill="#4dd88a"/>
<polygon points="749.1,245.1 753.1,249.1 749.1,253.1 745.1,249.1" fill="#4dd88a"/>
<polyline fill="none" stroke="#9b59b6" stroke-width="2" points="91.6,199.3 185.5,192.1 279.4,189.9 373.4,191.1 467.3,191.4 561.2,183.3 655.1,172.4 749.1,185.5"/>
<polygon points="91.6,195.3 95.6,202.3 87.6,202.3" fill="#9b59b6"/>
<polygon points="185.5,188.1 189.5,195.1 181.5,195.1" fill="#9b59b6"/>
<polygon points="279.4,185.9 283.4,192.9 275.4,192.9" fill="#9b59b6"/>
<polygon points="373.4,187.1 377.4,194.1 369.4,194.1" fill="#9b59b6"/>
<polygon points="467.3,187.4 471.3,194.4 463.3,194.4" fill="#9b59b6"/>
<polygon points="561.2,179.3 565.2,186.3 557.2,186.3" fill="#9b59b6"/>
<polygon points="655.1,168.4 659.1,175.4 651.1,175.4" fill="#9b59b6"/>
<polygon points="749.1,181.5 753.1,188.5 745.1,188.5" fill="#9b59b6"/>
<polyline fill="none" stroke="#ff6b6b" stroke-width="2" points="91.6,280.9 185.5,236.7 279.4,205.8 373.4,208.0 467.3,206.2 561.2,215.3 655.1,221.7 749.1,224.9"/>
<polygon points="91.6,275.9 90.4,279.3 86.9,279.4 89.7,281.5 88.7,285.0 91.6,282.9 94.5,285.0 93.5,281.5 96.4,279.4 92.8,279.3" fill="#ff6b6b"/>
<polygon points="185.5,231.7 184.4,235.1 180.8,235.1 183.6,237.3 182.6,240.7 185.5,238.7 188.5,240.7 187.4,237.3 190.3,235.1 186.7,235.1" fill="#ff6b6b"/>
<polygon points="279.4,200.8 278.3,204.2 274.7,204.3 277.5,206.5 276.5,209.9 279.4,207.8 282.4,209.9 281.4,206.5 284.2,204.3 280.6,204.2" fill="#ff6b6b"/>
<polygon points="373.4,203.0 372.2,206.4 368.6,206.5 371.5,208.7 370.4,212.1 373.4,210.0 376.3,212.1 375.3,208.7 378.1,206.5 374.5,206.4" fill="#ff6b6b"/>
<polygon points="467.3,201.2 466.1,204.6 462.5,204.6 465.4,206.8 464.4,210.2 467.3,208.2 470.2,210.2 469.2,206.8 472.0,204.6 468.5,204.6" fill="#ff6b6b"/>
<polygon points="561.2,210.3 560.0,213.7 556.5,213.7 559.3,215.9 558.3,219.3 561.2,217.3 564.2,219.3 563.1,215.9 566.0,213.7 562.4,213.7" fill="#ff6b6b"/>
<polygon points="655.1,216.7 654.0,220.1 650.4,220.1 653.2,222.3 652.2,225.7 655.1,223.7 658.1,225.7 657.0,222.3 659.9,220.1 656.3,220.1" fill="#ff6b6b"/>
<polygon points="749.1,219.9 747.9,223.2 744.3,223.3 747.2,225.5 746.1,228.9 749.1,226.9 752.0,228.9 751.0,225.5 753.8,223.3 750.2,223.2" fill="#ff6b6b"/>
<polyline fill="none" stroke="#ff922b" stroke-width="2" points="91.6,364.9 185.5,361.2 279.4,362.2 373.4,363.9 467.3,364.6 561.2,410.6"/>
<circle cx="91.6" cy="364.9" r="3" fill="#ff922b"/>
<circle cx="185.5" cy="361.2" r="3" fill="#ff922b"/>
<circle cx="279.4" cy="362.2" r="3" fill="#ff922b"/>
<circle cx="373.4" cy="363.9" r="3" fill="#ff922b"/>
<circle cx="467.3" cy="364.6" r="3" fill="#ff922b"/>
<circle cx="561.2" cy="410.6" r="3" fill="#ff922b"/>
<polyline fill="none" stroke="#888888" stroke-width="2" stroke-dasharray="8,5" points="91.6,189.9 185.5,183.4 279.4,189.5 373.4,185.6 467.3,185.1 561.2,194.7 655.1,200.0 749.1,201.4"/>
<circle cx="91.6" cy="189.9" r="3" fill="#888888"/>
<circle cx="185.5" cy="183.4" r="3" fill="#888888"/>
<circle cx="279.4" cy="189.5" r="3" fill="#888888"/>
<circle cx="373.4" cy="185.6" r="3" fill="#888888"/>
<circle cx="467.3" cy="185.1" r="3" fill="#888888"/>
<circle cx="561.2" cy="194.7" r="3" fill="#888888"/>
<circle cx="655.1" cy="200.0" r="3" fill="#888888"/>
<circle cx="749.1" cy="201.4" r="3" fill="#888888"/>
<polyline fill="none" stroke="#1a6b3c" stroke-width="2" points="91.6,216.5 185.5,184.7 279.4,188.8 373.4,192.0 467.3,192.7 561.2,179.5 655.1,162.8 749.1,180.9"/>
<polygon points="91.6,212.5 95.6,216.5 91.6,220.5 87.6,216.5" fill="#1a6b3c"/>
<polygon points="185.5,180.7 189.5,184.7 185.5,188.7 181.5,184.7" fill="#1a6b3c"/>
<polygon points="279.4,184.8 283.4,188.8 279.4,192.8 275.4,188.8" fill="#1a6b3c"/>
<polygon points="373.4,188.0 377.4,192.0 373.4,196.0 369.4,192.0" fill="#1a6b3c"/>
<polygon points="467.3,188.7 471.3,192.7 467.3,196.7 463.3,192.7" fill="#1a6b3c"/>
<polygon points="561.2,175.5 565.2,179.5 561.2,183.5 557.2,179.5" fill="#1a6b3c"/>
<polygon points="655.1,158.8 659.1,162.8 655.1,166.8 651.1,162.8" fill="#1a6b3c"/>
<polygon points="749.1,176.9 753.1,180.9 749.1,184.9 745.1,180.9" fill="#1a6b3c"/>
<polyline fill="none" stroke="#1a3a6b" stroke-width="2" points="91.6,215.8 185.5,214.5 279.4,214.6 373.4,208.7 467.3,211.6 561.2,211.4 655.1,214.1 749.1,220.1"/>
<polygon points="91.6,210.8 90.4,214.2 86.9,214.2 89.7,216.4 88.7,219.8 91.6,217.8 94.5,219.8 93.5,216.4 96.4,214.2 92.8,214.2" fill="#1a3a6b"/>
<polygon points="185.5,209.5 184.4,212.9 180.8,213.0 183.6,215.2 182.6,218.6 185.5,216.5 188.5,218.6 187.4,215.2 190.3,213.0 186.7,212.9" fill="#1a3a6b"/>
<polygon points="279.4,209.6 278.3,213.0 274.7,213.1 277.5,215.2 276.5,218.7 279.4,216.6 282.4,218.7 281.4,215.2 284.2,213.1 280.6,213.0" fill="#1a3a6b"/>
<polygon points="373.4,203.7 372.2,207.1 368.6,207.2 371.5,209.4 370.4,212.8 373.4,210.7 376.3,212.8 375.3,209.4 378.1,207.2 374.5,207.1" fill="#1a3a6b"/>
<polygon points="467.3,206.6 466.1,210.0 462.5,210.1 465.4,212.2 464.4,215.7 467.3,213.6 470.2,215.7 469.2,212.2 472.0,210.1 468.5,210.0" fill="#1a3a6b"/>
<polygon points="561.2,206.4 560.0,209.8 556.5,209.9 559.3,212.0 558.3,215.5 561.2,213.4 564.2,215.5 563.1,212.0 566.0,209.9 562.4,209.8" fill="#1a3a6b"/>
<polygon points="655.1,209.1 654.0,212.5 650.4,212.6 653.2,214.7 652.2,218.1 655.1,216.1 658.1,218.1 657.0,214.7 659.9,212.6 656.3,212.5" fill="#1a3a6b"/>
<polygon points="749.1,215.1 747.9,218.5 744.3,218.5 747.2,220.7 746.1,224.1 749.1,222.1 752.0,224.1 751.0,220.7 753.8,218.5 750.2,218.5" fill="#1a3a6b"/>
<polyline fill="none" stroke="#111111" stroke-width="2" points="91.6,175.6 185.5,167.3 279.4,173.0 373.4,222.5 467.3,288.3 561.2,290.6 655.1,206.0 749.1,179.8"/>
<rect x="88.6" y="172.6" width="6" height="6" fill="#111111"/>
<rect x="182.5" y="164.3" width="6" height="6" fill="#111111"/>
<rect x="276.4" y="170.0" width="6" height="6" fill="#111111"/>
<rect x="370.4" y="219.5" width="6" height="6" fill="#111111"/>
<rect x="464.3" y="285.3" width="6" height="6" fill="#111111"/>
<rect x="558.2" y="287.6" width="6" height="6" fill="#111111"/>
<rect x="652.1" y="203.0" width="6" height="6" fill="#111111"/>
<rect x="746.1" y="176.8" width="6" height="6" fill="#111111"/>
<polyline fill="none" stroke="#111111" stroke-width="2" points="91.6,184.2 185.5,174.8 279.4,178.5 373.4,223.7 467.3,289.3 561.2,291.2 655.1,184.0 749.1,191.8"/>
<polygon points="91.6,180.2 95.6,187.2 87.6,187.2" fill="#111111"/>
<polygon points="185.5,170.8 189.5,177.8 181.5,177.8" fill="#111111"/>
<polygon points="279.4,174.5 283.4,181.5 275.4,181.5" fill="#111111"/>
<polygon points="373.4,219.7 377.4,226.7 369.4,226.7" fill="#111111"/>
<polygon points="467.3,285.3 471.3,292.3 463.3,292.3" fill="#111111"/>
<polygon points="561.2,287.2 565.2,294.2 557.2,294.2" fill="#111111"/>
<polygon points="655.1,180.0 659.1,187.0 651.1,187.0" fill="#111111"/>
<polygon points="749.1,187.8 753.1,194.8 745.1,194.8" fill="#111111"/>
<polyline fill="none" stroke="#111111" stroke-width="2" stroke-dasharray="8,5" points="91.6,191.5 185.5,195.6 279.4,201.7 373.4,224.2 467.3,288.9 561.2,290.7 655.1,183.3 749.1,190.8"/>
<polygon points="91.6,187.5 95.6,191.5 91.6,195.5 87.6,191.5" fill="#111111"/>
<polygon points="185.5,191.6 189.5,195.6 185.5,199.6 181.5,195.6" fill="#111111"/>
<polygon points="279.4,197.7 283.4,201.7 279.4,205.7 275.4,201.7" fill="#111111"/>
<polygon points="373.4,220.2 377.4,224.2 373.4,228.2 369.4,224.2" fill="#111111"/>
<polygon points="467.3,284.9 471.3,288.9 467.3,292.9 463.3,288.9" fill="#111111"/>
<polygon points="561.2,286.7 565.2,290.7 561.2,294.7 557.2,290.7" fill="#111111"/>
<polygon points="655.1,179.3 659.1,183.3 655.1,187.3 651.1,183.3" fill="#111111"/>
<polygon points="749.1,186.8 753.1,190.8 749.1,194.8 745.1,190.8" fill="#111111"/>
<line x1="886" y1="60" x2="902" y2="60" stroke="#2a7fff" stroke-width="2"/>
<rect x="891.0" y="57.0" width="6" height="6" fill="#2a7fff"/>
<text class="label" x="908" y="64">Adaptive(t=0)</text>
<line x1="886" y1="78" x2="902" y2="78" stroke="#4dd88a" stroke-width="2"/>
<polygon points="894.0,74.0 898.0,78.0 894.0,82.0 890.0,78.0" fill="#4dd88a"/>
<text class="label" x="908" y="82">SODA</text>
<line x1="886" y1="96" x2="902" y2="96" stroke="#9b59b6" stroke-width="2"/>
<polygon points="894.0,92.0 898.0,99.0 890.0,99.0" fill="#9b59b6"/>
<text class="label" x="908" y="100">Truncation</text>
<line x1="886" y1="114" x2="902" y2="114" stroke="#ff6b6b" stroke-width="2"/>
<polygon points="894.0,109.0 892.8,112.4 889.2,112.5 892.1,114.6 891.1,118.0 894.0,116.0 896.9,118.0 895.9,114.6 898.8,112.5 895.2,112.4" fill="#ff6b6b"/>
<text class="label" x="908" y="118">Hybrid</text>
<line x1="886" y1="132" x2="902" y2="132" stroke="#ff922b" stroke-width="2"/>
<circle cx="894.0" cy="132.0" r="3" fill="#ff922b"/>
<text class="label" x="908" y="136">CDF-ARE</text>
<line x1="886" y1="150" x2="902" y2="150" stroke="#888888" stroke-width="2" stroke-dasharray="8,5"/>
<circle cx="894.0" cy="150.0" r="3" fill="#888888"/>
<text class="label" x="908" y="154">BloomARE</text>
<line x1="886" y1="168" x2="902" y2="168" stroke="#1a6b3c" stroke-width="2"/>
<polygon points="894.0,164.0 898.0,168.0 894.0,172.0 890.0,168.0" fill="#1a6b3c"/>
<text class="label" x="908" y="172">Grafite</text>
<line x1="886" y1="186" x2="902" y2="186" stroke="#1a3a6b" stroke-width="2"/>
<polygon points="894.0,181.0 892.8,184.4 889.2,184.5 892.1,186.6 891.1,190.0 894.0,188.0 896.9,190.0 895.9,186.6 898.8,184.5 895.2,184.4" fill="#1a3a6b"/>
<text class="label" x="908" y="190">SNARF</text>
<line x1="886" y1="204" x2="902" y2="204" stroke="#111111" stroke-width="2"/>
<rect x="891.0" y="201.0" width="6" height="6" fill="#111111"/>
<text class="label" x="908" y="208">SuRF</text>
<line x1="886" y1="222" x2="902" y2="222" stroke="#111111" stroke-width="2"/>
<polygon points="894.0,218.0 898.0,225.0 890.0,225.0" fill="#111111"/>
<text class="label" x="908" y="226">SuRFHash(8)</text>
<line x1="886" y1="240" x2="902" y2="240" stroke="#111111" stroke-width="2" stroke-dasharray="8,5"/>
<polygon points="894.0,236.0 898.0,240.0 894.0,244.0 890.0,240.0" fill="#111111"/>
<text class="label" x="908" y="244">SuRFReal(8)</text>
<text x="480" y="590" text-anchor="middle">Number of Keys (N)</text>
<text transform="translate(16,295) rotate(-90)" text-anchor="middle">Build Throughput (M keys/sec)</text>
</svg>
