<svg xmlns="http://www.w3.org/2000/svg" width="1020" height="600" viewBox="0 0 1020 600">
<style>text{font-family:Menlo,Monaco,monospace;font-size:12px;fill:#222} .axis{stroke:#333;stroke-width:1} .grid{stroke:#eee;stroke-width:0.5} .label{font-size:11px;fill:#444}</style>
<text x="510" y="28" text-anchor="middle" style="font-size:14px;font-weight:bold">Build Throughput — spread (ε=0.01, L=100)</text>
<line class="axis" x1="90.0" y1="550.0" x2="870.0" y2="550.0"/>
<line class="axis" x1="90.0" y1="40.0" x2="90.0" y2="550.0"/>
<line class="grid" x1="90.0" y1="486.2" x2="870.0" y2="486.2"/>
<text class="label" x="82.0" y="490.2" text-anchor="end">10^-1</text>
<line class="grid" x1="90.0" y1="358.8" x2="870.0" y2="358.8"/>
<text class="label" x="82.0" y="362.8" text-anchor="end">1</text>
<line class="grid" x1="90.0" y1="231.2" x2="870.0" y2="231.2"/>
<text class="label" x="82.0" y="235.2" text-anchor="end">10</text>
<line class="grid" x1="90.0" y1="103.8" x2="870.0" y2="103.8"/>
<text class="label" x="82.0" y="107.8" text-anchor="end">100</text>
<line class="grid" x1="90.0" y1="40.0" x2="90.0" y2="550.0"/>
<text class="label" x="90.0" y="566.0" text-anchor="middle">1K</text>
<line class="grid" x1="246.0" y1="40.0" x2="246.0" y2="550.0"/>
<text class="label" x="246.0" y="566.0" text-anchor="middle">10K</text>
<line class="grid" x1="402.0" y1="40.0" x2="402.0" y2="550.0"/>
<text class="label" x="402.0" y="566.0" text-anchor="middle">100K</text>
<line class="grid" x1="558.0" y1="40.0" x2="558.0" y2="550.0"/>
<text class="label" x="558.0" y="566.0" text-anchor="middle">1M</text>
<line class="grid" x1="714.0" y1="40.0" x2="714.0" y2="550.0"/>
<text class="label" x="714.0" y="566.0" text-anchor="middle">10^7</text>
<polyline fill="none" stroke="#2a7fff" stroke-width="2" points="91.6,250.0 185.5,231.5 279.4,224.7 373.4,231.6 467.3,237.0 561.2,239.5 655.1,238.8 749.1,253.4"/>
<rect x="88.6" y="247.0" width="6" height="6" fill="#2a7fff"/>
<rect x="182.5" y="228.5" width="6" height="6" fill="#2a7fff"/>
<rect x="276.4" y="221.7" width="6" height="6" fill="#2a7fff"/>
<rect x="370.4" y="228.6" width="6" height="6" fill="#2a7fff"/>
<rect x="464.3" y="234.0" width="6" height="6" fill="#2a7fff"/>
<rect x="558.2" y="236.5" width="6" height="6" fill="#2a7fff"/>
<rect x="652.1" y="235.8" width="6" height="6" fill="#2a7fff"/>
<rect x="746.1" y="250.4" width="6" height="6" fill="#2a7fff"/>
<polyline fill="none" stroke="#4dd88a" stroke-width="2" points="91.6,198.7 185.5,170.6 279.4,164.4 373.4,162.1 467.3,164.9 561.2,170.3 655.1,171.0 749.1,205.8"/>
<polygon points="91.6,194.7 95.6,198.7 91.6,202.7 87.6,198.7" fill="#4dd88a"/>
<polygon points="185.5,166.6 189.5,170.6 185.5,174.6 181.5,170.6" fill="#4dd88a"/>
<polygon points="279.4,160.4 283.4,164.4 279.4,168.4 275.4,164.4" fill="#4dd88a"/>
<polygon points="373.4,158.1 377.4,162.1 373.4,166.1 369.4,162.1" fill="#4dd88a"/>
<polygon points="467.3,160.9 471.3,164.9 467.3,168.9 463.3,164.9" fill="#4dd88a"/>
<polygon points="561.2,166.3 565.2,170.3 561.2,174.3 557.2,170.3" fill="#4dd88a"/>
<polygon points="655.1,167.0 659.1,171.0 655.1,175.0 651.1,171.0" fill="#4dd88a"/>
<polygon points="749.1,201.8 753.1,205.8 749.1,209.8 745.1,205.8" fill="#4dd88a"/>
<polyline fill="none" stroke="#9b59b6" stroke-width="2" points="91.6,241.1 185.5,231.9 279.4,230.1 373.4,228.8 467.3,229.4 561.2,235.3 655.1,241.3 749.1,241.4"/>
<polygon points="91.6,237.1 95.6,244.1 87.6,244.1" fill="#9b59b6"/>
<polygon points="185.5,227.9 189.5,234.9 181.5,234.9" fill="#9b59b6"/>
<polygon points="279.4,226.1 283.4,233.1 275.4,233.1" fill="#9b59b6"/>
<polygon points="373.4,224.8 377.4,231.8 369.4,231.8" fill="#9b59b6"/>
<polygon points="467.3,225.4 471.3,232.4 463.3,232.4" fill="#9b59b6"/>
<polygon points="561.2,231.3 565.2,238.3 557.2,238.3" fill="#9b59b6"/>
<polygon points="655.1,237.3 659.1,244.3 651.1,244.3" fill="#9b59b6"/>
<polygon points="749.1,237.4 753.1,244.4 745.1,244.4" fill="#9b59b6"/>
<polyline fill="none" stroke="#ff6b6b" stroke-width="2" points="91.6,264.2 185.5,247.2 279.4,247.8 373.4,249.3 467.3,253.5 561.2,255.2 655.1,271.7 749.1,277.5"/>
<polygon points="91.6,259.2 90.4,262.6 86.9,262.6 89.7,264.8 88.7,268.2 91.6,266.2 94.5,268.2 93.5,264.8 96.4,262.6 92.8,262.6" fill="#ff6b6b"/>
<polygon points="185.5,242.2 184.4,245.6 180.8,245.7 183.6,247.8 182.6,251.2 185.5,249.2 188.5,251.2 187.4,247.8 190.3,245.7 186.7,245.6" fill="#ff6b6b"/>
<polygon points="279.4,242.8 278.3,246.1 274.7,246.2 277.5,248.4 276.5,251.8 279.4,249.8 282.4,251.8 281.4,248.4 284.2,246.2 280.6,246.1" fill="#ff6b6b"/>
<polygon points="373.4,244.3 372.2,247.7 368.6,247.8 371.5,250.0 370.4,253.4 373.4,251.3 376.3,253.4 375.3,250.0 378.1,247.8 374.5,247.7" fill="#ff6b6b"/>
<polygon points="467.3,248.5 466.1,251.9 462.5,252.0 465.4,254.2 464.4,257.6 467.3,255.5 470.2,257.6 469.2,254.2 472.0,252.0 468.5,251.9" fill="#ff6b6b"/>
<polygon points="561.2,250.2 560.0,253.6 556.5,253.6 559.3,255.8 558.3,259.2 561.2,257.2 564.2,259.2 563.1,255.8 566.0,253.6 562.4,253.6" fill="#ff6b6b"/>
<polygon points="655.1,266.7 654.0,270.1 650.4,270.1 653.2,272.3 652.2,275.7 655.1,273.7 658.1,275.7 657.0,272.3 659.9,270.1 656.3,270.1" fill="#ff6b6b"/>
<polygon points="749.1,272.5 747.9,275.9 744.3,276.0 747.2,278.1 746.1,281.5 749.1,279.5 752.0,281.5 751.0,278.1 753.8,276.0 750.2,275.9" fill="#ff6b6b"/>
<polyline fill="none" stroke="#ff922b" stroke-width="2" points="91.6,380.8 185.5,386.1 279.4,384.9 373.4,382.4 467.3,385.2 561.2,389.2"/>
<circle cx="91.6" cy="380.8" r="3" fill="#ff922b"/>
<circle cx="185.5" cy="386.1" r="3" fill="#ff922b"/>
<circle cx="279.4" cy="384.9" r="3" fill="#ff922b"/>
<circle cx="373.4" cy="382.4" r="3" fill="#ff922b"/>
<circle cx="467.3" cy="385.2" r="3" fill="#ff922b"/>
<circle cx="561.2" cy="389.2" r="3" fill="#ff922b"/>
<polyline fill="none" stroke="#888888" stroke-width="2" stroke-dasharray="8,5" points="91.6,222.0 185.5,224.0 279.4,220.6 373.4,221.1 467.3,220.2 561.2,232.1 655.1,241.7 749.1,242.1"/>
<circle cx="91.6" cy="222.0" r="3" fill="#888888"/>
<circle cx="185.5" cy="224.0" r="3" fill="#888888"/>
<circle cx="279.4" cy="220.6" r="3" fill="#888888"/>
<circle cx="373.4" cy="221.1" r="3" fill="#888888"/>
<circle cx="467.3" cy="220.2" r="3" fill="#888888"/>
<circle cx="561.2" cy="232.1" r="3" fill="#888888"/>
<circle cx="655.1" cy="241.7" r="3" fill="#888888"/>
<circle cx="749.1" cy="242.1" r="3" fill="#888888"/>
<polyline fill="none" stroke="#1a6b3c" stroke-width="2" points="91.6,220.3 185.5,213.7 279.4,218.6 373.4,222.9 467.3,220.1 561.2,224.9 655.1,228.0 749.1,233.5"/>
<polygon points="91.6,216.3 95.6,220.3 91.6,224.3 87.6,220.3" fill="#1a6b3c"/>
<polygon points="185.5,209.7 189.5,213.7 185.5,217.7 181.5,213.7" fill="#1a6b3c"/>
<polygon points="279.4,214.6 283.4,218.6 279.4,222.6 275.4,218.6" fill="#1a6b3c"/>
<polygon points="373.4,218.9 377.4,222.9 373.4,226.9 369.4,222.9" fill="#1a6b3c"/>
<polygon points="467.3,216.1 471.3,220.1 467.3,224.1 463.3,220.1" fill="#1a6b3c"/>
<polygon points="561.2,220.9 565.2,224.9 561.2,228.9 557.2,224.9" fill="#1a6b3c"/>
<polygon points="655.1,224.0 659.1,228.0 655.1,232.0 651.1,228.0" fill="#1a6b3c"/>
<polygon points="749.1,229.5 753.1,233.5 749.1,237.5 745.1,233.5" fill="#1a6b3c"/>
<polyline fill="none" stroke="#1a3a6b" stroke-width="2" points="91.6,227.0 185.5,207.6 279.4,231.9 373.4,241.1 467.3,246.7 561.2,244.8 655.1,250.6 749.1,257.5"/>
<polygon points="91.6,222.0 90.4,225.3 86.9,225.4 89.7,227.6 88.7,231.0 91.6,229.0 94.5,231.0 93.5,227.6 96.4,225.4 92.8,225.3" fill="#1a3a6b"/>
<polygon points="185.5,202.6 184.4,206.0 180.8,206.1 183.6,208.2 182.6,211.6 185.5,209.6 188.5,211.6 187.4,208.2 190.3,206.1 186.7,206.0" fill="#1a3a6b"/>
<polygon points="279.4,226.9 278.3,230.2 274.7,230.3 277.5,232.5 276.5,235.9 279.4,233.9 282.4,235.9 281.4,232.5 284.2,230.3 280.6,230.2" fill="#1a3a6b"/>
<polygon points="373.4,236.1 372.2,239.5 368.6,239.6 371.5,241.7 370.4,245.2 373.4,243.1 376.3,245.2 375.3,241.7 378.1,239.6 374.5,239.5" fill="#1a3a6b"/>
<polygon points="467.3,241.7 466.1,245.1 462.5,245.1 465.4,247.3 464.4,250.7 467.3,248.7 470.2,250.7 469.2,247.3 472.0,245.1 468.5,245.1" fill="#1a3a6b"/>
<polygon points="561.2,239.8 560.0,243.2 556.5,243.3 559.3,245.5 558.3,248.9 561.2,246.8 564.2,248.9 563.1,245.5 566.0,243.3 562.4,243.2" fill="#1a3a6b"/>
<polygon points="655.1,245.6 654.0,249.0 650.4,249.1 653.2,251.2 652.2,254.7 655.1,252.6 658.1,254.7 657.0,251.2 659.9,249.1 656.3,249.0" fill="#1a3a6b"/>
<polygon points="749.1,252.5 747.9,255.9 744.3,255.9 747.2,258.1 746.1,261.5 749.1,259.5 752.0,261.5 751.0,258.1 753.8,255.9 750.2,255.9" fill="#1a3a6b"/>
<polyline fill="none" stroke="#111111" stroke-width="2" points="91.6,240.7 185.5,239.7 279.4,261.4 373.4,283.4 467.3,359.1 561.2,183.9 655.1,183.2 749.1,185.2"/>
<rect x="88.6" y="237.7" width="6" height="6" fill="#111111"/>
<rect x="182.5" y="236.7" width="6" height="6" fill="#111111"/>
<rect x="276.4" y="258.4" width="6" height="6" fill="#111111"/>
<rect x="370.4" y="280.4" width="6" height="6" fill="#111111"/>
<rect x="464.3" y="356.1" width="6" height="6" fill="#111111"/>
<rect x="558.2" y="180.9" width="6" height="6" fill="#111111"/>
<rect x="652.1" y="180.2" width="6" height="6" fill="#111111"/>
<rect x="746.1" y="182.2" width="6" height="6" fill="#111111"/>
<polyline fill="none" stroke="#111111" stroke-width="2" points="91.6,216.7 185.5,197.5 279.4,211.1 373.4,272.7 467.3,187.5 561.2,187.1 655.1,192.2 749.1,194.2"/>
<polygon points="91.6,212.7 95.6,219.7 87.6,219.7" fill="#111111"/>
<polygon points="185.5,193.5 189.5,200.5 181.5,200.5" fill="#111111"/>
<polygon points="279.4,207.1 283.4,214.1 275.4,214.1" fill="#111111"/>
<polygon points="373.4,268.7 377.4,275.7 369.4,275.7" fill="#111111"/>
<polygon points="467.3,183.5 471.3,190.5 463.3,190.5" fill="#111111"/>
<polygon points="561.2,183.1 565.2,190.1 557.2,190.1" fill="#111111"/>
<polygon points="655.1,188.2 659.1,195.2 651.1,195.2" fill="#111111"/>
<polygon points="749.1,190.2 753.1,197.2 745.1,197.2" fill="#111111"/>
<polyline fill="none" stroke="#111111" stroke-width="2" stroke-dasharray="8,5" points="91.6,214.8 185.5,249.7 279.4,207.2 373.4,274.2 467.3,186.1 561.2,190.8 655.1,191.3 749.1,192.8"/>
<polygon points="91.6,210.8 95.6,214.8 91.6,218.8 87.6,214.8" fill="#111111"/>
<polygon points="185.5,245.7 189.5,249.7 185.5,253.7 181.5,249.7" fill="#111111"/>
<polygon points="279.4,203.2 283.4,207.2 279.4,211.2 275.4,207.2" fill="#111111"/>
<polygon points="373.4,270.2 377.4,274.2 373.4,278.2 369.4,274.2" fill="#111111"/>
<polygon points="467.3,182.1 471.3,186.1 467.3,190.1 463.3,186.1" fill="#111111"/>
<polygon points="561.2,186.8 565.2,190.8 561.2,194.8 557.2,190.8" fill="#111111"/>
<polygon points="655.1,187.3 659.1,191.3 655.1,195.3 651.1,191.3" fill="#111111"/>
<polygon points="749.1,188.8 753.1,192.8 749.1,196.8 745.1,192.8" fill="#111111"/>
<line x1="886" y1="60" x2="902" y2="60" stroke="#2a7fff" stroke-width="2"/>
<rect x="891.0" y="57.0" width="6" height="6" fill="#2a7fff"/>
<text class="label" x="908" y="64">Adaptive(t=0)</text>
<line x1="886" y1="78" x2="902" y2="78" stroke="#4dd88a" stroke-width="2"/>
<polygon points="894.0,74.0 898.0,78.0 894.0,82.0 890.0,78.0" fill="#4dd88a"/>
<text class="label" x="908" y="82">SODA</text>
<line x1="886" y1="96" x2="902" y2="96" stroke="#9b59b6" stroke-width="2"/>
<polygon points="894.0,92.0 898.0,99.0 890.0,99.0" fill="#9b59b6"/>
<text class="label" x="908" y="100">Truncation</text>
<line x1="886" y1="114" x2="902" y2="114" stroke="#ff6b6b" stroke-width="2"/>
<polygon points="894.0,109.0 892.8,112.4 889.2,112.5 892.1,114.6 891.1,118.0 894.0,116.0 896.9,118.0 895.9,114.6 898.8,112.5 895.2,112.4" fill="#ff6b6b"/>
<text class="label" x="908" y="118">Hybrid</text>
<line x1="886" y1="132" x2="902" y2="132" stroke="#ff922b" stroke-width="2"/>
<circle cx="894.0" cy="132.0" r="3" fill="#ff922b"/>
<text class="label" x="908" y="136">CDF-ARE</text>
<line x1="886" y1="150" x2="902" y2="150" stroke="#888888" stroke-width="2" stroke-dasharray="8,5"/>
<circle cx="894.0" cy="150.0" r="3" fill="#888888"/>
<text class="label" x="908" y="154">BloomARE</text>
<line x1="886" y1="168" x2="902" y2="168" stroke="#1a6b3c" stroke-width="2"/>
<polygon points="894.0,164.0 898.0,168.0 894.0,172.0 890.0,168.0" fill="#1a6b3c"/>
<text class="label" x="908" y="172">Grafite</text>
<line x1="886" y1="186" x2="902" y2="186" stroke="#1a3a6b" stroke-width="2"/>
<polygon points="894.0,181.0 892.8,184.4 889.2,184.5 892.1,186.6 891.1,190.0 894.0,188.0 896.9,190.0 895.9,186.6 898.8,184.5 895.2,184.4" fill="#1a3a6b"/>
<text class="label" x="908" y="190">SNARF</text>
<line x1="886" y1="204" x2="902" y2="204" stroke="#111111" stroke-width="2"/>
<rect x="891.0" y="201.0" width="6" height="6" fill="#111111"/>
<text class="label" x="908" y="208">SuRF</text>
<line x1="886" y1="222" x2="902" y2="222" stroke="#111111" stroke-width="2"/>
<polygon points="894.0,218.0 898.0,225.0 890.0,225.0" fill="#111111"/>
<text class="label" x="908" y="226">SuRFHash(8)</text>
<line x1="886" y1="240" x2="902" y2="240" stroke="#111111" stroke-width="2" stroke-dasharray="8,5"/>
<polygon points="894.0,236.0 898.0,240.0 894.0,244.0 890.0,240.0" fill="#111111"/>
<text class="label" x="908" y="244">SuRFReal(8)</text>
<text x="480" y="590" text-anchor="middle">Number of Keys (N)</text>
<text transform="translate(16,295) rotate(-90)" text-anchor="middle">Build Throughput (M keys/sec)</text>
</svg>
