<svg xmlns="http://www.w3.org/2000/svg" width="1020" height="600" viewBox="0 0 1020 600">
<style>text{font-family:Menlo,Monaco,monospace;font-size:12px;fill:#222} .axis{stroke:#333;stroke-width:1} .grid{stroke:#eee;stroke-width:0.5} .label{font-size:11px;fill:#444}</style>
<text x="510" y="28" text-anchor="middle" style="font-size:14px;font-weight:bold">Build Throughput — uniform (ε=0.01, L=100)</text>
<line class="axis" x1="90.0" y1="550.0" x2="870.0" y2="550.0"/>
<line class="axis" x1="90.0" y1="40.0" x2="90.0" y2="550.0"/>
<line class="grid" x1="90.0" y1="486.2" x2="870.0" y2="486.2"/>
<text class="label" x="82.0" y="490.2" text-anchor="end">10^-1</text>
<line class="grid" x1="90.0" y1="358.8" x2="870.0" y2="358.8"/>
<text class="label" x="82.0" y="362.8" text-anchor="end">1</text>
<line class="grid" x1="90.0" y1="231.2" x2="870.0" y2="231.2"/>
<text class="label" x="82.0" y="235.2" text-anchor="end">10</text>
<line class="grid" x1="90.0" y1="103.8" x2="870.0" y2="103.8"/>
<text class="label" x="82.0" y="107.8" text-anchor="end">100</text>
<line class="grid" x1="90.0" y1="40.0" x2="90.0" y2="550.0"/>
<text class="label" x="90.0" y="566.0" text-anchor="middle">1K</text>
<line class="grid" x1="246.0" y1="40.0" x2="246.0" y2="550.0"/>
<text class="label" x="246.0" y="566.0" text-anchor="middle">10K</text>
<line class="grid" x1="402.0" y1="40.0" x2="402.0" y2="550.0"/>
<text class="label" x="402.0" y="566.0" text-anchor="middle">100K</text>
<line class="grid" x1="558.0" y1="40.0" x2="558.0" y2="550.0"/>
<text class="label" x="558.0" y="566.0" text-anchor="middle">1M</text>
<line class="grid" x1="714.0" y1="40.0" x2="714.0" y2="550.0"/>
<text class="label" x="714.0" y="566.0" text-anchor="middle">10^7</text>
<polyline fill="none" stroke="#2a7fff" stroke-width="2" points="91.6,297.3 185.5,298.9 279.4,306.2 373.4,308.6 467.3,315.2 561.2,323.0 655.1,336.6 749.1,345.6"/>
<rect x="88.6" y="294.3" width="6" height="6" fill="#2a7fff"/>
<rect x="182.5" y="295.9" width="6" height="6" fill="#2a7fff"/>
<rect x="276.4" y="303.2" width="6" height="6" fill="#2a7fff"/>
<rect x="370.4" y="305.6" width="6" height="6" fill="#2a7fff"/>
<rect x="464.3" y="312.2" width="6" height="6" fill="#2a7fff"/>
<rect x="558.2" y="320.0" width="6" height="6" fill="#2a7fff"/>
<rect x="652.1" y="333.6" width="6" height="6" fill="#2a7fff"/>
<rect x="746.1" y="342.6" width="6" height="6" fill="#2a7fff"/>
<polyline fill="none" stroke="#4dd88a" stroke-width="2" points="91.6,286.5 185.5,286.4 279.4,293.8 373.4,298.1 467.3,305.3 561.2,313.3 655.1,320.9 749.1,335.4"/>
<polygon points="91.6,282.5 95.6,286.5 91.6,290.5 87.6,286.5" fill="#4dd88a"/>
<polygon points="185.5,282.4 189.5,286.4 185.5,290.4 181.5,286.4" fill="#4dd88a"/>
<polygon points="279.4,289.8 283.4,293.8 279.4,297.8 275.4,293.8" fill="#4dd88a"/>
<polygon points="373.4,294.1 377.4,298.1 373.4,302.1 369.4,298.1" fill="#4dd88a"/>
<polygon points="467.3,301.3 471.3,305.3 467.3,309.3 463.3,305.3" fill="#4dd88a"/>
<polygon points="561.2,309.3 565.2,313.3 561.2,317.3 557.2,313.3" fill="#4dd88a"/>
<polygon points="655.1,316.9 659.1,320.9 655.1,324.9 651.1,320.9" fill="#4dd88a"/>
<polygon points="749.1,331.4 753.1,335.4 749.1,339.4 745.1,335.4" fill="#4dd88a"/>
<polyline fill="none" stroke="#9b59b6" stroke-width="2" points="91.6,253.0 185.5,244.8 279.4,234.8 373.4,232.4 467.3,229.3 561.2,232.3 655.1,235.4 749.1,242.5"/>
<polygon points="91.6,249.0 95.6,256.0 87.6,256.0" fill="#9b59b6"/>
<polygon points="185.5,240.8 189.5,247.8 181.5,247.8" fill="#9b59b6"/>
<polygon points="279.4,230.8 283.4,237.8 275.4,237.8" fill="#9b59b6"/>
<polygon points="373.4,228.4 377.4,235.4 369.4,235.4" fill="#9b59b6"/>
<polygon points="467.3,225.3 471.3,232.3 463.3,232.3" fill="#9b59b6"/>
<polygon points="561.2,228.3 565.2,235.3 557.2,235.3" fill="#9b59b6"/>
<polygon points="655.1,231.4 659.1,238.4 651.1,238.4" fill="#9b59b6"/>
<polygon points="749.1,238.5 753.1,245.5 745.1,245.5" fill="#9b59b6"/>
<polyline fill="none" stroke="#ff6b6b" stroke-width="2" points="91.6,339.6 185.5,289.6 279.4,249.9 373.4,250.1 467.3,251.0 561.2,253.8 655.1,272.8 749.1,269.2"/>
<polygon points="91.6,334.6 90.4,338.0 86.9,338.1 89.7,340.3 88.7,343.7 91.6,341.6 94.5,343.7 93.5,340.3 96.4,338.1 92.8,338.0" fill="#ff6b6b"/>
<polygon points="185.5,284.6 184.4,288.0 180.8,288.1 183.6,290.2 182.6,293.7 185.5,291.6 188.5,293.7 187.4,290.2 190.3,288.1 186.7,288.0" fill="#ff6b6b"/>
<polygon points="279.4,244.9 278.3,248.3 274.7,248.3 277.5,250.5 276.5,253.9 279.4,251.9 282.4,253.9 281.4,250.5 284.2,248.3 280.6,248.3" fill="#ff6b6b"/>
<polygon points="373.4,245.1 372.2,248.5 368.6,248.6 371.5,250.8 370.4,254.2 373.4,252.1 376.3,254.2 375.3,250.8 378.1,248.6 374.5,248.5" fill="#ff6b6b"/>
<polygon points="467.3,246.0 466.1,249.4 462.5,249.4 465.4,251.6 464.4,255.0 467.3,253.0 470.2,255.0 469.2,251.6 472.0,249.4 468.5,249.4" fill="#ff6b6b"/>
<polygon points="561.2,248.8 560.0,252.2 556.5,252.2 559.3,254.4 558.3,257.8 561.2,255.8 564.2,257.8 563.1,254.4 566.0,252.2 562.4,252.2" fill="#ff6b6b"/>
<polygon points="655.1,267.8 654.0,271.2 650.4,271.3 653.2,273.4 652.2,276.9 655.1,274.8 658.1,276.9 657.0,273.4 659.9,271.3 656.3,271.2" fill="#ff6b6b"/>
<polygon points="749.1,264.2 747.9,267.5 744.3,267.6 747.2,269.8 746.1,273.2 749.1,271.2 752.0,273.2 751.0,269.8 753.8,267.6 750.2,267.5" fill="#ff6b6b"/>
<polyline fill="none" stroke="#ff922b" stroke-width="2" points="91.6,451.0 185.5,447.2 279.4,444.8 373.4,445.0 467.3,445.5 561.2,452.1"/>
<circle cx="91.6" cy="451.0" r="3" fill="#ff922b"/>
<circle cx="185.5" cy="447.2" r="3" fill="#ff922b"/>
<circle cx="279.4" cy="444.8" r="3" fill="#ff922b"/>
<circle cx="373.4" cy="445.0" r="3" fill="#ff922b"/>
<circle cx="467.3" cy="445.5" r="3" fill="#ff922b"/>
<circle cx="561.2" cy="452.1" r="3" fill="#ff922b"/>
<polyline fill="none" stroke="#888888" stroke-width="2" stroke-dasharray="8,5" points="91.6,222.3 185.5,218.3 279.4,227.3 373.4,221.6 467.3,221.9 561.2,231.8 655.1,240.7 749.1,242.1"/>
<circle cx="91.6" cy="222.3" r="3" fill="#888888"/>
<circle cx="185.5" cy="218.3" r="3" fill="#888888"/>
<circle cx="279.4" cy="227.3" r="3" fill="#888888"/>
<circle cx="373.4" cy="221.6" r="3" fill="#888888"/>
<circle cx="467.3" cy="221.9" r="3" fill="#888888"/>
<circle cx="561.2" cy="231.8" r="3" fill="#888888"/>
<circle cx="655.1" cy="240.7" r="3" fill="#888888"/>
<circle cx="749.1" cy="242.1" r="3" fill="#888888"/>
<polyline fill="none" stroke="#1a6b3c" stroke-width="2" points="91.6,221.1 185.5,217.7 279.4,222.0 373.4,225.8 467.3,228.2 561.2,231.4 655.1,235.6 749.1,239.8"/>
<polygon points="91.6,217.1 95.6,221.1 91.6,225.1 87.6,221.1" fill="#1a6b3c"/>
<polygon points="185.5,213.7 189.5,217.7 185.5,221.7 181.5,217.7" fill="#1a6b3c"/>
<polygon points="279.4,218.0 283.4,222.0 279.4,226.0 275.4,222.0" fill="#1a6b3c"/>
<polygon points="373.4,221.8 377.4,225.8 373.4,229.8 369.4,225.8" fill="#1a6b3c"/>
<polygon points="467.3,224.2 471.3,228.2 467.3,232.2 463.3,228.2" fill="#1a6b3c"/>
<polygon points="561.2,227.4 565.2,231.4 561.2,235.4 557.2,231.4" fill="#1a6b3c"/>
<polygon points="655.1,231.6 659.1,235.6 655.1,239.6 651.1,235.6" fill="#1a6b3c"/>
<polygon points="749.1,235.8 753.1,239.8 749.1,243.8 745.1,239.8" fill="#1a6b3c"/>
<polyline fill="none" stroke="#1a3a6b" stroke-width="2" points="91.6,268.8 185.5,265.7 279.4,246.0 373.4,251.4 467.3,254.9 561.2,254.0 655.1,258.9 749.1,265.8"/>
<polygon points="91.6,263.8 90.4,267.2 86.9,267.3 89.7,269.4 88.7,272.9 91.6,270.8 94.5,272.9 93.5,269.4 96.4,267.3 92.8,267.2" fill="#1a3a6b"/>
<polygon points="185.5,260.7 184.4,264.0 180.8,264.1 183.6,266.3 182.6,269.7 185.5,267.7 188.5,269.7 187.4,266.3 190.3,264.1 186.7,264.0" fill="#1a3a6b"/>
<polygon points="279.4,241.0 278.3,244.4 274.7,244.5 277.5,246.7 276.5,250.1 279.4,248.0 282.4,250.1 281.4,246.7 284.2,244.5 280.6,244.4" fill="#1a3a6b"/>
<polygon points="373.4,246.4 372.2,249.8 368.6,249.9 371.5,252.1 370.4,255.5 373.4,253.4 376.3,255.5 375.3,252.1 378.1,249.9 374.5,249.8" fill="#1a3a6b"/>
<polygon points="467.3,249.9 466.1,253.3 462.5,253.4 465.4,255.5 464.4,258.9 467.3,256.9 470.2,258.9 469.2,255.5 472.0,253.4 468.5,253.3" fill="#1a3a6b"/>
<polygon points="561.2,249.0 560.0,252.4 556.5,252.4 559.3,254.6 558.3,258.0 561.2,256.0 564.2,258.0 563.1,254.6 566.0,252.4 562.4,252.4" fill="#1a3a6b"/>
<polygon points="655.1,253.9 654.0,257.3 650.4,257.4 653.2,259.5 652.2,262.9 655.1,260.9 658.1,262.9 657.0,259.5 659.9,257.4 656.3,257.3" fill="#1a3a6b"/>
<polygon points="749.1,260.8 747.9,264.2 744.3,264.3 747.2,266.4 746.1,269.8 749.1,267.8 752.0,269.8 751.0,266.4 753.8,264.3 750.2,264.2" fill="#1a3a6b"/>
<polyline fill="none" stroke="#111111" stroke-width="2" points="91.6,226.9 185.5,212.3 279.4,239.1 373.4,277.2 467.3,362.3 561.2,288.1 655.1,284.8 749.1,213.2"/>
<rect x="88.6" y="223.9" width="6" height="6" fill="#111111"/>
<rect x="182.5" y="209.3" width="6" height="6" fill="#111111"/>
<rect x="276.4" y="236.1" width="6" height="6" fill="#111111"/>
<rect x="370.4" y="274.2" width="6" height="6" fill="#111111"/>
<rect x="464.3" y="359.3" width="6" height="6" fill="#111111"/>
<rect x="558.2" y="285.1" width="6" height="6" fill="#111111"/>
<rect x="652.1" y="281.8" width="6" height="6" fill="#111111"/>
<rect x="746.1" y="210.2" width="6" height="6" fill="#111111"/>
<polyline fill="none" stroke="#111111" stroke-width="2" points="91.6,218.9 185.5,204.5 279.4,209.2 373.4,276.7 467.3,191.4 561.2,203.0 655.1,237.5 749.1,231.5"/>
<polygon points="91.6,214.9 95.6,221.9 87.6,221.9" fill="#111111"/>
<polygon points="185.5,200.5 189.5,207.5 181.5,207.5" fill="#111111"/>
<polygon points="279.4,205.2 283.4,212.2 275.4,212.2" fill="#111111"/>
<polygon points="373.4,272.7 377.4,279.7 369.4,279.7" fill="#111111"/>
<polygon points="467.3,187.4 471.3,194.4 463.3,194.4" fill="#111111"/>
<polygon points="561.2,199.0 565.2,206.0 557.2,206.0" fill="#111111"/>
<polygon points="655.1,233.5 659.1,240.5 651.1,240.5" fill="#111111"/>
<polygon points="749.1,227.5 753.1,234.5 745.1,234.5" fill="#111111"/>
<polyline fill="none" stroke="#111111" stroke-width="2" stroke-dasharray="8,5" points="91.6,226.3 185.5,225.5 279.4,245.8 373.4,279.6 467.3,202.7 561.2,205.0 655.1,236.3 749.1,230.2"/>
<polygon points="91.6,222.3 95.6,226.3 91.6,230.3 87.6,226.3" fill="#111111"/>
<polygon points="185.5,221.5 189.5,225.5 185.5,229.5 181.5,225.5" fill="#111111"/>
<polygon points="279.4,241.8 283.4,245.8 279.4,249.8 275.4,245.8" fill="#111111"/>
<polygon points="373.4,275.6 377.4,279.6 373.4,283.6 369.4,279.6" fill="#111111"/>
<polygon points="467.3,198.7 471.3,202.7 467.3,206.7 463.3,202.7" fill="#111111"/>
<polygon points="561.2,201.0 565.2,205.0 561.2,209.0 557.2,205.0" fill="#111111"/>
<polygon points="655.1,232.3 659.1,236.3 655.1,240.3 651.1,236.3" fill="#111111"/>
<polygon points="749.1,226.2 753.1,230.2 749.1,234.2 745.1,230.2" fill="#111111"/>
<line x1="886" y1="60" x2="902" y2="60" stroke="#2a7fff" stroke-width="2"/>
<rect x="891.0" y="57.0" width="6" height="6" fill="#2a7fff"/>
<text class="label" x="908" y="64">Adaptive(t=0)</text>
<line x1="886" y1="78" x2="902" y2="78" stroke="#4dd88a" stroke-width="2"/>
<polygon points="894.0,74.0 898.0,78.0 894.0,82.0 890.0,78.0" fill="#4dd88a"/>
<text class="label" x="908" y="82">SODA</text>
<line x1="886" y1="96" x2="902" y2="96" stroke="#9b59b6" stroke-width="2"/>
<polygon points="894.0,92.0 898.0,99.0 890.0,99.0" fill="#9b59b6"/>
<text class="label" x="908" y="100">Truncation</text>
<line x1="886" y1="114" x2="902" y2="114" stroke="#ff6b6b" stroke-width="2"/>
<polygon points="894.0,109.0 892.8,112.4 889.2,112.5 892.1,114.6 891.1,118.0 894.0,116.0 896.9,118.0 895.9,114.6 898.8,112.5 895.2,112.4" fill="#ff6b6b"/>
<text class="label" x="908" y="118">Hybrid</text>
<line x1="886" y1="132" x2="902" y2="132" stroke="#ff922b" stroke-width="2"/>
<circle cx="894.0" cy="132.0" r="3" fill="#ff922b"/>
<text class="label" x="908" y="136">CDF-ARE</text>
<line x1="886" y1="150" x2="902" y2="150" stroke="#888888" stroke-width="2" stroke-dasharray="8,5"/>
<circle cx="894.0" cy="150.0" r="3" fill="#888888"/>
<text class="label" x="908" y="154">BloomARE</text>
<line x1="886" y1="168" x2="902" y2="168" stroke="#1a6b3c" stroke-width="2"/>
<polygon points="894.0,164.0 898.0,168.0 894.0,172.0 890.0,168.0" fill="#1a6b3c"/>
<text class="label" x="908" y="172">Grafite</text>
<line x1="886" y1="186" x2="902" y2="186" stroke="#1a3a6b" stroke-width="2"/>
<polygon points="894.0,181.0 892.8,184.4 889.2,184.5 892.1,186.6 891.1,190.0 894.0,188.0 896.9,190.0 895.9,186.6 898.8,184.5 895.2,184.4" fill="#1a3a6b"/>
<text class="label" x="908" y="190">SNARF</text>
<line x1="886" y1="204" x2="902" y2="204" stroke="#111111" stroke-width="2"/>
<rect x="891.0" y="201.0" width="6" height="6" fill="#111111"/>
<text class="label" x="908" y="208">SuRF</text>
<line x1="886" y1="222" x2="902" y2="222" stroke="#111111" stroke-width="2"/>
<polygon points="894.0,218.0 898.0,225.0 890.0,225.0" fill="#111111"/>
<text class="label" x="908" y="226">SuRFHash(8)</text>
<line x1="886" y1="240" x2="902" y2="240" stroke="#111111" stroke-width="2" stroke-dasharray="8,5"/>
<polygon points="894.0,236.0 898.0,240.0 894.0,244.0 890.0,240.0" fill="#111111"/>
<text class="label" x="908" y="244">SuRFReal(8)</text>
<text x="480" y="590" text-anchor="middle">Number of Keys (N)</text>
<text transform="translate(16,295) rotate(-90)" text-anchor="middle">Build Throughput (M keys/sec)</text>
</svg>
