<svg xmlns="http://www.w3.org/2000/svg" width="1020" height="600" viewBox="0 0 1020 600">
<style>text{font-family:Menlo,Monaco,monospace;font-size:12px;fill:#222} .axis{stroke:#333;stroke-width:1} .grid{stroke:#eee;stroke-width:0.5} .label{font-size:11px;fill:#444}</style>
<text x="510" y="28" text-anchor="middle" style="font-size:14px;font-weight:bold">Build Throughput — zipfian (ε=0.01, L=100)</text>
<line class="axis" x1="90.0" y1="550.0" x2="870.0" y2="550.0"/>
<line class="axis" x1="90.0" y1="40.0" x2="90.0" y2="550.0"/>
<line class="grid" x1="90.0" y1="507.5" x2="870.0" y2="507.5"/>
<text class="label" x="82.0" y="511.5" text-anchor="end">10^-3</text>
<line class="grid" x1="90.0" y1="422.5" x2="870.0" y2="422.5"/>
<text class="label" x="82.0" y="426.5" text-anchor="end">10^-2</text>
<line class="grid" x1="90.0" y1="337.5" x2="870.0" y2="337.5"/>
<text class="label" x="82.0" y="341.5" text-anchor="end">10^-1</text>
<line class="grid" x1="90.0" y1="252.5" x2="870.0" y2="252.5"/>
<text class="label" x="82.0" y="256.5" text-anchor="end">1</text>
<line class="grid" x1="90.0" y1="167.5" x2="870.0" y2="167.5"/>
<text class="label" x="82.0" y="171.5" text-anchor="end">10</text>
<line class="grid" x1="90.0" y1="82.5" x2="870.0" y2="82.5"/>
<text class="label" x="82.0" y="86.5" text-anchor="end">100</text>
<line class="grid" x1="90.0" y1="40.0" x2="90.0" y2="550.0"/>
<text class="label" x="90.0" y="566.0" text-anchor="middle">1K</text>
<line class="grid" x1="246.0" y1="40.0" x2="246.0" y2="550.0"/>
<text class="label" x="246.0" y="566.0" text-anchor="middle">10K</text>
<line class="grid" x1="402.0" y1="40.0" x2="402.0" y2="550.0"/>
<text class="label" x="402.0" y="566.0" text-anchor="middle">100K</text>
<line class="grid" x1="558.0" y1="40.0" x2="558.0" y2="550.0"/>
<text class="label" x="558.0" y="566.0" text-anchor="middle">1M</text>
<line class="grid" x1="714.0" y1="40.0" x2="714.0" y2="550.0"/>
<text class="label" x="714.0" y="566.0" text-anchor="middle">10^7</text>
<polyline fill="none" stroke="#2a7fff" stroke-width="2" points="91.6,182.5 185.5,178.0 279.4,178.5 373.4,186.5 467.3,184.7 561.2,205.9 655.1,210.7 749.1,216.9"/>
<rect x="88.6" y="179.5" width="6" height="6" fill="#2a7fff"/>
<rect x="182.5" y="175.0" width="6" height="6" fill="#2a7fff"/>
<rect x="276.4" y="175.5" width="6" height="6" fill="#2a7fff"/>
<rect x="370.4" y="183.5" width="6" height="6" fill="#2a7fff"/>
<rect x="464.3" y="181.7" width="6" height="6" fill="#2a7fff"/>
<rect x="558.2" y="202.9" width="6" height="6" fill="#2a7fff"/>
<rect x="652.1" y="207.7" width="6" height="6" fill="#2a7fff"/>
<rect x="746.1" y="213.9" width="6" height="6" fill="#2a7fff"/>
<polyline fill="none" stroke="#4dd88a" stroke-width="2" points="91.6,163.7 185.5,155.1 279.4,153.6 373.4,155.6 467.3,156.0 561.2,199.5 655.1,201.6 749.1,209.4"/>
<polygon points="91.6,159.7 95.6,163.7 91.6,167.7 87.6,163.7" fill="#4dd88a"/>
<polygon points="185.5,151.1 189.5,155.1 185.5,159.1 181.5,155.1" fill="#4dd88a"/>
<polygon points="279.4,149.6 283.4,153.6 279.4,157.6 275.4,153.6" fill="#4dd88a"/>
<polygon points="373.4,151.6 377.4,155.6 373.4,159.6 369.4,155.6" fill="#4dd88a"/>
<polygon points="467.3,152.0 471.3,156.0 467.3,160.0 463.3,156.0" fill="#4dd88a"/>
<polygon points="561.2,195.5 565.2,199.5 561.2,203.5 557.2,199.5" fill="#4dd88a"/>
<polygon points="655.1,197.6 659.1,201.6 655.1,205.6 651.1,201.6" fill="#4dd88a"/>
<polygon points="749.1,205.4 753.1,209.4 749.1,213.4 745.1,209.4" fill="#4dd88a"/>
<polyline fill="none" stroke="#9b59b6" stroke-width="2" points="91.6,176.1 185.5,170.6 279.4,168.4 373.4,170.5 467.3,145.9 561.2,145.7 655.1,147.1 749.1,154.2"/>
<polygon points="91.6,172.1 95.6,179.1 87.6,179.1" fill="#9b59b6"/>
<polygon points="185.5,166.6 189.5,173.6 181.5,173.6" fill="#9b59b6"/>
<polygon points="279.4,164.4 283.4,171.4 275.4,171.4" fill="#9b59b6"/>
<polygon points="373.4,166.5 377.4,173.5 369.4,173.5" fill="#9b59b6"/>
<polygon points="467.3,141.9 471.3,148.9 463.3,148.9" fill="#9b59b6"/>
<polygon points="561.2,141.7 565.2,148.7 557.2,148.7" fill="#9b59b6"/>
<polygon points="655.1,143.1 659.1,150.1 651.1,150.1" fill="#9b59b6"/>
<polygon points="749.1,150.2 753.1,157.2 745.1,157.2" fill="#9b59b6"/>
<polyline fill="none" stroke="#ff6b6b" stroke-width="2" points="91.6,232.4 185.5,192.2 279.4,178.9 373.4,181.4 467.3,167.1 561.2,169.7 655.1,183.5 749.1,183.2"/>
<polygon points="91.6,227.4 90.4,230.8 86.9,230.9 89.7,233.0 88.7,236.5 91.6,234.4 94.5,236.5 93.5,233.0 96.4,230.9 92.8,230.8" fill="#ff6b6b"/>
<polygon points="185.5,187.2 184.4,190.5 180.8,190.6 183.6,192.8 182.6,196.2 185.5,194.2 188.5,196.2 187.4,192.8 190.3,190.6 186.7,190.5" fill="#ff6b6b"/>
<polygon points="279.4,173.9 278.3,177.2 274.7,177.3 277.5,179.5 276.5,182.9 279.4,180.9 282.4,182.9 281.4,179.5 284.2,177.3 280.6,177.2" fill="#ff6b6b"/>
<polygon points="373.4,176.4 372.2,179.7 368.6,179.8 371.5,182.0 370.4,185.4 373.4,183.4 376.3,185.4 375.3,182.0 378.1,179.8 374.5,179.7" fill="#ff6b6b"/>
<polygon points="467.3,162.1 466.1,165.5 462.5,165.6 465.4,167.7 464.4,171.2 467.3,169.1 470.2,171.2 469.2,167.7 472.0,165.6 468.5,165.5" fill="#ff6b6b"/>
<polygon points="561.2,164.7 560.0,168.1 556.5,168.2 559.3,170.3 558.3,173.8 561.2,171.7 564.2,173.8 563.1,170.3 566.0,168.2 562.4,168.1" fill="#ff6b6b"/>
<polygon points="655.1,178.5 654.0,181.9 650.4,182.0 653.2,184.2 652.2,187.6 655.1,185.5 658.1,187.6 657.0,184.2 659.9,182.0 656.3,181.9" fill="#ff6b6b"/>
<polygon points="749.1,178.2 747.9,181.6 744.3,181.7 747.2,183.8 746.1,187.3 749.1,185.2 752.0,187.3 751.0,183.8 753.8,181.7 750.2,181.6" fill="#ff6b6b"/>
<polyline fill="none" stroke="#ff922b" stroke-width="2" points="91.6,343.1 185.5,385.4 279.4,447.8 373.4,453.1 467.3,454.4 561.2,450.7"/>
<circle cx="91.6" cy="343.1" r="3" fill="#ff922b"/>
<circle cx="185.5" cy="385.4" r="3" fill="#ff922b"/>
<circle cx="279.4" cy="447.8" r="3" fill="#ff922b"/>
<circle cx="373.4" cy="453.1" r="3" fill="#ff922b"/>
<circle cx="467.3" cy="454.4" r="3" fill="#ff922b"/>
<circle cx="561.2" cy="450.7" r="3" fill="#ff922b"/>
<polyline fill="none" stroke="#888888" stroke-width="2" stroke-dasharray="8,5" points="91.6,159.2 185.5,157.2 279.4,166.5 373.4,159.0 467.3,159.3 561.2,169.1 655.1,175.2 749.1,176.3"/>
<circle cx="91.6" cy="159.2" r="3" fill="#888888"/>
<circle cx="185.5" cy="157.2" r="3" fill="#888888"/>
<circle cx="279.4" cy="166.5" r="3" fill="#888888"/>
<circle cx="373.4" cy="159.0" r="3" fill="#888888"/>
<circle cx="467.3" cy="159.3" r="3" fill="#888888"/>
<circle cx="561.2" cy="169.1" r="3" fill="#888888"/>
<circle cx="655.1" cy="175.2" r="3" fill="#888888"/>
<circle cx="749.1" cy="176.3" r="3" fill="#888888"/>
<polyline fill="none" stroke="#1a6b3c" stroke-width="2" points="467.3,115.2 561.2,143.2 655.1,141.7 749.1,144.7"/>
<polygon points="467.3,111.2 471.3,115.2 467.3,119.2 463.3,115.2" fill="#1a6b3c"/>
<polygon points="561.2,139.2 565.2,143.2 561.2,147.2 557.2,143.2" fill="#1a6b3c"/>
<polygon points="655.1,137.7 659.1,141.7 655.1,145.7 651.1,141.7" fill="#1a6b3c"/>
<polygon points="749.1,140.7 753.1,144.7 749.1,148.7 745.1,144.7" fill="#1a6b3c"/>
<polyline fill="none" stroke="#1a3a6b" stroke-width="2" points="91.6,192.2 185.5,174.7 279.4,172.4 373.4,176.1 467.3,180.3 561.2,180.8 655.1,186.0 749.1,188.4"/>
<polygon points="91.6,187.2 90.4,190.6 86.9,190.6 89.7,192.8 88.7,196.2 91.6,194.2 94.5,196.2 93.5,192.8 96.4,190.6 92.8,190.6" fill="#1a3a6b"/>
<polygon points="185.5,169.7 184.4,173.1 180.8,173.2 183.6,175.4 182.6,178.8 185.5,176.7 188.5,178.8 187.4,175.4 190.3,173.2 186.7,173.1" fill="#1a3a6b"/>
<polygon points="279.4,167.4 278.3,170.8 274.7,170.9 277.5,173.0 276.5,176.5 279.4,174.4 282.4,176.5 281.4,173.0 284.2,170.9 280.6,170.8" fill="#1a3a6b"/>
<polygon points="373.4,171.1 372.2,174.5 368.6,174.5 371.5,176.7 370.4,180.1 373.4,178.1 376.3,180.1 375.3,176.7 378.1,174.5 374.5,174.5" fill="#1a3a6b"/>
<polygon points="467.3,175.3 466.1,178.6 462.5,178.7 465.4,180.9 464.4,184.3 467.3,182.3 470.2,184.3 469.2,180.9 472.0,178.7 468.5,178.6" fill="#1a3a6b"/>
<polygon points="561.2,175.8 560.0,179.2 556.5,179.3 559.3,181.4 558.3,184.9 561.2,182.8 564.2,184.9 563.1,181.4 566.0,179.3 562.4,179.2" fill="#1a3a6b"/>
<polygon points="655.1,181.0 654.0,184.4 650.4,184.5 653.2,186.6 652.2,190.1 655.1,188.0 658.1,190.1 657.0,186.6 659.9,184.5 656.3,184.4" fill="#1a3a6b"/>
<polygon points="749.1,183.4 747.9,186.8 744.3,186.8 747.2,189.0 746.1,192.4 749.1,190.4 752.0,192.4 751.0,189.0 753.8,186.8 750.2,186.8" fill="#1a3a6b"/>
<polyline fill="none" stroke="#111111" stroke-width="2" points="91.6,159.1 185.5,147.3 279.4,157.7 373.4,197.9 467.3,253.0 561.2,141.4 655.1,145.1 749.1,173.3"/>
<rect x="88.6" y="156.1" width="6" height="6" fill="#111111"/>
<rect x="182.5" y="144.3" width="6" height="6" fill="#111111"/>
<rect x="276.4" y="154.7" width="6" height="6" fill="#111111"/>
<rect x="370.4" y="194.9" width="6" height="6" fill="#111111"/>
<rect x="464.3" y="250.0" width="6" height="6" fill="#111111"/>
<rect x="558.2" y="138.4" width="6" height="6" fill="#111111"/>
<rect x="652.1" y="142.1" width="6" height="6" fill="#111111"/>
<rect x="746.1" y="170.3" width="6" height="6" fill="#111111"/>
<polyline fill="none" stroke="#111111" stroke-width="2" points="91.6,167.2 185.5,164.2 279.4,181.3 373.4,148.3 467.3,147.7 561.2,145.2 655.1,146.2 749.1,167.9"/>
<polygon points="91.6,163.2 95.6,170.2 87.6,170.2" fill="#111111"/>
<polygon points="185.5,160.2 189.5,167.2 181.5,167.2" fill="#111111"/>
<polygon points="279.4,177.3 283.4,184.3 275.4,184.3" fill="#111111"/>
<polygon points="373.4,144.3 377.4,151.3 369.4,151.3" fill="#111111"/>
<polygon points="467.3,143.7 471.3,150.7 463.3,150.7" fill="#111111"/>
<polygon points="561.2,141.2 565.2,148.2 557.2,148.2" fill="#111111"/>
<polygon points="655.1,142.2 659.1,149.2 651.1,149.2" fill="#111111"/>
<polygon points="749.1,163.9 753.1,170.9 745.1,170.9" fill="#111111"/>
<polyline fill="none" stroke="#111111" stroke-width="2" stroke-dasharray="8,5" points="91.6,160.1 185.5,151.6 279.4,156.9 373.4,145.2 467.3,143.4 561.2,144.1 655.1,144.0 749.1,160.6"/>
<polygon points="91.6,156.1 95.6,160.1 91.6,164.1 87.6,160.1" fill="#111111"/>
<polygon points="185.5,147.6 189.5,151.6 185.5,155.6 181.5,151.6" fill="#111111"/>
<polygon points="279.4,152.9 283.4,156.9 279.4,160.9 275.4,156.9" fill="#111111"/>
<polygon points="373.4,141.2 377.4,145.2 373.4,149.2 369.4,145.2" fill="#111111"/>
<polygon points="467.3,139.4 471.3,143.4 467.3,147.4 463.3,143.4" fill="#111111"/>
<polygon points="561.2,140.1 565.2,144.1 561.2,148.1 557.2,144.1" fill="#111111"/>
<polygon points="655.1,140.0 659.1,144.0 655.1,148.0 651.1,144.0" fill="#111111"/>
<polygon points="749.1,156.6 753.1,160.6 749.1,164.6 745.1,160.6" fill="#111111"/>
<line x1="886" y1="60" x2="902" y2="60" stroke="#2a7fff" stroke-width="2"/>
<rect x="891.0" y="57.0" width="6" height="6" fill="#2a7fff"/>
<text class="label" x="908" y="64">Adaptive(t=0)</text>
<line x1="886" y1="78" x2="902" y2="78" stroke="#4dd88a" stroke-width="2"/>
<polygon points="894.0,74.0 898.0,78.0 894.0,82.0 890.0,78.0" fill="#4dd88a"/>
<text class="label" x="908" y="82">SODA</text>
<line x1="886" y1="96" x2="902" y2="96" stroke="#9b59b6" stroke-width="2"/>
<polygon points="894.0,92.0 898.0,99.0 890.0,99.0" fill="#9b59b6"/>
<text class="label" x="908" y="100">Truncation</text>
<line x1="886" y1="114" x2="902" y2="114" stroke="#ff6b6b" stroke-width="2"/>
<polygon points="894.0,109.0 892.8,112.4 889.2,112.5 892.1,114.6 891.1,118.0 894.0,116.0 896.9,118.0 895.9,114.6 898.8,112.5 895.2,112.4" fill="#ff6b6b"/>
<text class="label" x="908" y="118">Hybrid</text>
<line x1="886" y1="132" x2="902" y2="132" stroke="#ff922b" stroke-width="2"/>
<circle cx="894.0" cy="132.0" r="3" fill="#ff922b"/>
<text class="label" x="908" y="136">CDF-ARE</text>
<line x1="886" y1="150" x2="902" y2="150" stroke="#888888" stroke-width="2" stroke-dasharray="8,5"/>
<circle cx="894.0" cy="150.0" r="3" fill="#888888"/>
<text class="label" x="908" y="154">BloomARE</text>
<line x1="886" y1="168" x2="902" y2="168" stroke="#1a6b3c" stroke-width="2"/>
<polygon points="894.0,164.0 898.0,168.0 894.0,172.0 890.0,168.0" fill="#1a6b3c"/>
<text class="label" x="908" y="172">Grafite</text>
<line x1="886" y1="186" x2="902" y2="186" stroke="#1a3a6b" stroke-width="2"/>
<polygon points="894.0,181.0 892.8,184.4 889.2,184.5 892.1,186.6 891.1,190.0 894.0,188.0 896.9,190.0 895.9,186.6 898.8,184.5 895.2,184.4" fill="#1a3a6b"/>
<text class="label" x="908" y="190">SNARF</text>
<line x1="886" y1="204" x2="902" y2="204" stroke="#111111" stroke-width="2"/>
<rect x="891.0" y="201.0" width="6" height="6" fill="#111111"/>
<text class="label" x="908" y="208">SuRF</text>
<line x1="886" y1="222" x2="902" y2="222" stroke="#111111" stroke-width="2"/>
<polygon points="894.0,218.0 898.0,225.0 890.0,225.0" fill="#111111"/>
<text class="label" x="908" y="226">SuRFHash(8)</text>
<line x1="886" y1="240" x2="902" y2="240" stroke="#111111" stroke-width="2" stroke-dasharray="8,5"/>
<polygon points="894.0,236.0 898.0,240.0 894.0,244.0 890.0,240.0" fill="#111111"/>
<text class="label" x="908" y="244">SuRFReal(8)</text>
<text x="480" y="590" text-anchor="middle">Number of Keys (N)</text>
<text transform="translate(16,295) rotate(-90)" text-anchor="middle">Build Throughput (M keys/sec)</text>
</svg>
