<svg xmlns="http://www.w3.org/2000/svg" width="1020" height="600" viewBox="0 0 1020 600">
<style>text{font-family:Menlo,Monaco,monospace;font-size:12px;fill:#222} .axis{stroke:#333;stroke-width:1} .grid{stroke:#eee;stroke-width:0.5} .label{font-size:11px;fill:#444}</style>
<text x="510" y="28" text-anchor="middle" style="font-size:14px;font-weight:bold">FPR vs BPK — zipfian (60-bit keys, n=1048576, L=1)</text>
<line class="axis" x1="90.0" y1="550.0" x2="870.0" y2="550.0"/>
<line class="axis" x1="90.0" y1="40.0" x2="90.0" y2="550.0"/>
<line class="grid" x1="90.0" y1="521.7" x2="870.0" y2="521.7"/>
<text class="label" x="82.0" y="525.7" text-anchor="end">10^-8</text>
<line class="grid" x1="90.0" y1="465.0" x2="870.0" y2="465.0"/>
<text class="label" x="82.0" y="469.0" text-anchor="end">10^-7</text>
<line class="grid" x1="90.0" y1="408.3" x2="870.0" y2="408.3"/>
<text class="label" x="82.0" y="412.3" text-anchor="end">10^-6</text>
<line class="grid" x1="90.0" y1="351.7" x2="870.0" y2="351.7"/>
<text class="label" x="82.0" y="355.7" text-anchor="end">10^-5</text>
<line class="grid" x1="90.0" y1="295.0" x2="870.0" y2="295.0"/>
<text class="label" x="82.0" y="299.0" text-anchor="end">10^-4</text>
<line class="grid" x1="90.0" y1="238.3" x2="870.0" y2="238.3"/>
<text class="label" x="82.0" y="242.3" text-anchor="end">10^-3</text>
<line class="grid" x1="90.0" y1="181.7" x2="870.0" y2="181.7"/>
<text class="label" x="82.0" y="185.7" text-anchor="end">10^-2</text>
<line class="grid" x1="90.0" y1="125.0" x2="870.0" y2="125.0"/>
<text class="label" x="82.0" y="129.0" text-anchor="end">10^-1</text>
<line class="grid" x1="90.0" y1="68.3" x2="870.0" y2="68.3"/>
<text class="label" x="82.0" y="72.3" text-anchor="end">1</text>
<line class="grid" x1="90.0" y1="40.0" x2="90.0" y2="550.0"/>
<text class="label" x="90.0" y="566.0" text-anchor="middle">0</text>
<line class="grid" x1="206.1" y1="40.0" x2="206.1" y2="550.0"/>
<text class="label" x="206.1" y="566.0" text-anchor="middle">5</text>
<line class="grid" x1="322.1" y1="40.0" x2="322.1" y2="550.0"/>
<text class="label" x="322.1" y="566.0" text-anchor="middle">10</text>
<line class="grid" x1="438.2" y1="40.0" x2="438.2" y2="550.0"/>
<text class="label" x="438.2" y="566.0" text-anchor="middle">15</text>
<line class="grid" x1="554.3" y1="40.0" x2="554.3" y2="550.0"/>
<text class="label" x="554.3" y="566.0" text-anchor="middle">20</text>
<line class="grid" x1="670.4" y1="40.0" x2="670.4" y2="550.0"/>
<text class="label" x="670.4" y="566.0" text-anchor="middle">25</text>
<line class="grid" x1="786.4" y1="40.0" x2="786.4" y2="550.0"/>
<text class="label" x="786.4" y="566.0" text-anchor="middle">30</text>
<polyline fill="none" stroke="#ef4444" stroke-width="2" stroke-dasharray="8,5" points="182.9,136.6 206.1,153.6 229.3,170.7 252.5,187.7 275.7,204.8 298.9,221.9 322.1,238.9 345.4,256.0 368.6,273.0 391.8,290.1 415.0,307.2 438.2,324.2 461.4,341.3 484.6,358.3 507.9,375.4 531.1,392.4 554.3,409.5 600.7,443.6 647.1,477.7 740.0,546.0 832.9,614.2"/>
<circle cx="182.9" cy="136.6" r="3" fill="#ef4444"/>
<circle cx="206.1" cy="153.6" r="3" fill="#ef4444"/>
<circle cx="229.3" cy="170.7" r="3" fill="#ef4444"/>
<circle cx="252.5" cy="187.7" r="3" fill="#ef4444"/>
<circle cx="275.7" cy="204.8" r="3" fill="#ef4444"/>
<circle cx="298.9" cy="221.9" r="3" fill="#ef4444"/>
<circle cx="322.1" cy="238.9" r="3" fill="#ef4444"/>
<circle cx="345.4" cy="256.0" r="3" fill="#ef4444"/>
<circle cx="368.6" cy="273.0" r="3" fill="#ef4444"/>
<circle cx="391.8" cy="290.1" r="3" fill="#ef4444"/>
<circle cx="415.0" cy="307.2" r="3" fill="#ef4444"/>
<circle cx="438.2" cy="324.2" r="3" fill="#ef4444"/>
<circle cx="461.4" cy="341.3" r="3" fill="#ef4444"/>
<circle cx="484.6" cy="358.3" r="3" fill="#ef4444"/>
<circle cx="507.9" cy="375.4" r="3" fill="#ef4444"/>
<circle cx="531.1" cy="392.4" r="3" fill="#ef4444"/>
<circle cx="554.3" cy="409.5" r="3" fill="#ef4444"/>
<circle cx="600.7" cy="443.6" r="3" fill="#ef4444"/>
<circle cx="647.1" cy="477.7" r="3" fill="#ef4444"/>
<circle cx="740.0" cy="546.0" r="3" fill="#ef4444"/>
<circle cx="832.9" cy="614.2" r="3" fill="#ef4444"/>
<polyline fill="none" stroke="#1a6b3c" stroke-width="2" points="190.1,109.7 238.9,130.5 288.9,171.9 336.6,230.4 390.0,252.8 436.6,307.1 482.4,346.7 529.3,383.7 575.6,521.7"/>
<polygon points="190.1,105.7 194.1,109.7 190.1,113.7 186.1,109.7" fill="#1a6b3c"/>
<polygon points="238.9,126.5 242.9,130.5 238.9,134.5 234.9,130.5" fill="#1a6b3c"/>
<polygon points="288.9,167.9 292.9,171.9 288.9,175.9 284.9,171.9" fill="#1a6b3c"/>
<polygon points="336.6,226.4 340.6,230.4 336.6,234.4 332.6,230.4" fill="#1a6b3c"/>
<polygon points="390.0,248.8 394.0,252.8 390.0,256.8 386.0,252.8" fill="#1a6b3c"/>
<polygon points="436.6,303.1 440.6,307.1 436.6,311.1 432.6,307.1" fill="#1a6b3c"/>
<polygon points="482.4,342.7 486.4,346.7 482.4,350.7 478.4,346.7" fill="#1a6b3c"/>
<polygon points="529.3,379.7 533.3,383.7 529.3,387.7 525.3,383.7" fill="#1a6b3c"/>
<polygon points="575.6,517.7 579.6,521.7 575.6,525.7 571.6,521.7" fill="#1a6b3c"/>
<polyline fill="none" stroke="#1a3a6b" stroke-width="2" points="168.3,95.0 214.5,119.1 261.2,128.7 307.7,128.8 354.0,128.8 400.3,128.8 446.9,128.8 493.5,128.8 539.7,128.8"/>
<polygon points="168.3,90.0 167.1,93.4 163.5,93.5 166.4,95.6 165.4,99.1 168.3,97.0 171.2,99.1 170.2,95.6 173.0,93.5 169.5,93.4" fill="#1a3a6b"/>
<polygon points="214.5,114.1 213.4,117.5 209.8,117.6 212.6,119.7 211.6,123.2 214.5,121.1 217.5,123.2 216.4,119.7 219.3,117.6 215.7,117.5" fill="#1a3a6b"/>
<polygon points="261.2,123.7 260.0,127.1 256.4,127.2 259.2,129.3 258.2,132.8 261.2,130.7 264.1,132.8 263.1,129.3 265.9,127.2 262.3,127.1" fill="#1a3a6b"/>
<polygon points="307.7,123.8 306.6,127.1 303.0,127.2 305.8,129.4 304.8,132.8 307.7,130.8 310.7,132.8 309.6,129.4 312.5,127.2 308.9,127.1" fill="#1a3a6b"/>
<polygon points="354.0,123.8 352.8,127.2 349.3,127.2 352.1,129.4 351.1,132.8 354.0,130.8 356.9,132.8 355.9,129.4 358.8,127.2 355.2,127.2" fill="#1a3a6b"/>
<polygon points="400.3,123.8 399.1,127.2 395.5,127.2 398.4,129.4 397.3,132.8 400.3,130.8 403.2,132.8 402.2,129.4 405.0,127.2 401.4,127.2" fill="#1a3a6b"/>
<polygon points="446.9,123.8 445.7,127.2 442.1,127.2 445.0,129.4 443.9,132.8 446.9,130.8 449.8,132.8 448.8,129.4 451.6,127.2 448.0,127.2" fill="#1a3a6b"/>
<polygon points="493.5,123.8 492.3,127.2 488.7,127.2 491.6,129.4 490.5,132.8 493.5,130.8 496.4,132.8 495.4,129.4 498.2,127.2 494.6,127.2" fill="#1a3a6b"/>
<polygon points="539.7,123.8 538.5,127.2 535.0,127.2 537.8,129.4 536.8,132.8 539.7,130.8 542.7,132.8 541.6,129.4 544.5,127.2 540.9,127.2" fill="#1a3a6b"/>
<polyline fill="none" stroke="#111111" stroke-width="2" points="345.9,521.7"/>
<rect x="342.9" y="518.7" width="6" height="6" fill="#111111"/>
<polyline fill="none" stroke="#111111" stroke-width="2" points="532.8,521.7"/>
<polygon points="532.8,517.7 536.8,524.7 528.8,524.7" fill="#111111"/>
<polyline fill="none" stroke="#111111" stroke-width="2" points="532.8,521.7"/>
<polygon points="532.8,517.7 536.8,521.7 532.8,525.7 528.8,521.7" fill="#111111"/>
<polyline fill="none" stroke="#2a7fff" stroke-width="2" points="90.0,68.3 90.0,68.3 90.0,68.3 90.0,68.3 90.0,68.3 90.0,68.3 90.1,68.3 90.1,68.3 90.3,68.3 90.5,68.3 91.1,68.3 92.2,68.3 94.4,68.3 98.7,68.4 107.2,68.8 121.9,71.9 143.1,80.1 194.7,103.7 247.0,130.2 345.3,242.6 438.2,307.1"/>
<rect x="87.0" y="65.3" width="6" height="6" fill="#2a7fff"/>
<rect x="87.0" y="65.3" width="6" height="6" fill="#2a7fff"/>
<rect x="87.0" y="65.3" width="6" height="6" fill="#2a7fff"/>
<rect x="87.0" y="65.3" width="6" height="6" fill="#2a7fff"/>
<rect x="87.0" y="65.3" width="6" height="6" fill="#2a7fff"/>
<rect x="87.0" y="65.3" width="6" height="6" fill="#2a7fff"/>
<rect x="87.1" y="65.3" width="6" height="6" fill="#2a7fff"/>
<rect x="87.1" y="65.3" width="6" height="6" fill="#2a7fff"/>
<rect x="87.3" y="65.3" width="6" height="6" fill="#2a7fff"/>
<rect x="87.5" y="65.3" width="6" height="6" fill="#2a7fff"/>
<rect x="88.1" y="65.3" width="6" height="6" fill="#2a7fff"/>
<rect x="89.2" y="65.3" width="6" height="6" fill="#2a7fff"/>
<rect x="91.4" y="65.3" width="6" height="6" fill="#2a7fff"/>
<rect x="95.7" y="65.4" width="6" height="6" fill="#2a7fff"/>
<rect x="104.2" y="65.8" width="6" height="6" fill="#2a7fff"/>
<rect x="118.9" y="68.9" width="6" height="6" fill="#2a7fff"/>
<rect x="140.1" y="77.1" width="6" height="6" fill="#2a7fff"/>
<rect x="191.7" y="100.7" width="6" height="6" fill="#2a7fff"/>
<rect x="244.0" y="127.2" width="6" height="6" fill="#2a7fff"/>
<rect x="342.3" y="239.6" width="6" height="6" fill="#2a7fff"/>
<rect x="435.2" y="304.1" width="6" height="6" fill="#2a7fff"/>
<polyline fill="none" stroke="#9b59b6" stroke-width="2" points="90.0,68.3 90.0,68.5 90.0,69.7 90.0,70.9 90.0,72.1 90.0,73.1 90.0,73.6 90.0,73.9 90.0,74.1 90.0,74.2 90.0,74.2 90.0,74.2 90.0,74.2 90.0,74.2 90.0,74.2 90.0,74.3 90.0,74.3 90.0,74.3 90.0,74.3 90.1,74.3 90.1,74.3"/>
<polygon points="90.0,64.3 94.0,71.3 86.0,71.3" fill="#9b59b6"/>
<polygon points="90.0,64.5 94.0,71.5 86.0,71.5" fill="#9b59b6"/>
<polygon points="90.0,65.7 94.0,72.7 86.0,72.7" fill="#9b59b6"/>
<polygon points="90.0,66.9 94.0,73.9 86.0,73.9" fill="#9b59b6"/>
<polygon points="90.0,68.1 94.0,75.1 86.0,75.1" fill="#9b59b6"/>
<polygon points="90.0,69.1 94.0,76.1 86.0,76.1" fill="#9b59b6"/>
<polygon points="90.0,69.6 94.0,76.6 86.0,76.6" fill="#9b59b6"/>
<polygon points="90.0,69.9 94.0,76.9 86.0,76.9" fill="#9b59b6"/>
<polygon points="90.0,70.1 94.0,77.1 86.0,77.1" fill="#9b59b6"/>
<polygon points="90.0,70.2 94.0,77.2 86.0,77.2" fill="#9b59b6"/>
<polygon points="90.0,70.2 94.0,77.2 86.0,77.2" fill="#9b59b6"/>
<polygon points="90.0,70.2 94.0,77.2 86.0,77.2" fill="#9b59b6"/>
<polygon points="90.0,70.2 94.0,77.2 86.0,77.2" fill="#9b59b6"/>
<polygon points="90.0,70.2 94.0,77.2 86.0,77.2" fill="#9b59b6"/>
<polygon points="90.0,70.2 94.0,77.2 86.0,77.2" fill="#9b59b6"/>
<polygon points="90.0,70.3 94.0,77.3 86.0,77.3" fill="#9b59b6"/>
<polygon points="90.0,70.3 94.0,77.3 86.0,77.3" fill="#9b59b6"/>
<polygon points="90.0,70.3 94.0,77.3 86.0,77.3" fill="#9b59b6"/>
<polygon points="90.0,70.3 94.0,77.3 86.0,77.3" fill="#9b59b6"/>
<polygon points="90.1,70.3 94.1,77.3 86.1,77.3" fill="#9b59b6"/>
<polygon points="90.1,70.3 94.1,77.3 86.1,77.3" fill="#9b59b6"/>
<polyline fill="none" stroke="#4dd88a" stroke-width="2" points="90.0,68.3 90.0,68.3 90.0,68.3 90.0,68.3 90.0,68.3 90.0,68.3 90.1,68.3 90.1,68.3 90.3,68.3 90.5,68.3 91.1,68.3 92.2,68.3 94.4,68.3 98.7,68.3 107.2,68.8 121.9,71.9 143.1,80.1 194.7,103.7 247.0,130.2 345.3,242.6 438.2,307.1"/>
<polygon points="90.0,64.3 94.0,68.3 90.0,72.3 86.0,68.3" fill="#4dd88a"/>
<polygon points="90.0,64.3 94.0,68.3 90.0,72.3 86.0,68.3" fill="#4dd88a"/>
<polygon points="90.0,64.3 94.0,68.3 90.0,72.3 86.0,68.3" fill="#4dd88a"/>
<polygon points="90.0,64.3 94.0,68.3 90.0,72.3 86.0,68.3" fill="#4dd88a"/>
<polygon points="90.0,64.3 94.0,68.3 90.0,72.3 86.0,68.3" fill="#4dd88a"/>
<polygon points="90.0,64.3 94.0,68.3 90.0,72.3 86.0,68.3" fill="#4dd88a"/>
<polygon points="90.1,64.3 94.1,68.3 90.1,72.3 86.1,68.3" fill="#4dd88a"/>
<polygon points="90.1,64.3 94.1,68.3 90.1,72.3 86.1,68.3" fill="#4dd88a"/>
<polygon points="90.3,64.3 94.3,68.3 90.3,72.3 86.3,68.3" fill="#4dd88a"/>
<polygon points="90.5,64.3 94.5,68.3 90.5,72.3 86.5,68.3" fill="#4dd88a"/>
<polygon points="91.1,64.3 95.1,68.3 91.1,72.3 87.1,68.3" fill="#4dd88a"/>
<polygon points="92.2,64.3 96.2,68.3 92.2,72.3 88.2,68.3" fill="#4dd88a"/>
<polygon points="94.4,64.3 98.4,68.3 94.4,72.3 90.4,68.3" fill="#4dd88a"/>
<polygon points="98.7,64.3 102.7,68.3 98.7,72.3 94.7,68.3" fill="#4dd88a"/>
<polygon points="107.2,64.8 111.2,68.8 107.2,72.8 103.2,68.8" fill="#4dd88a"/>
<polygon points="121.9,67.9 125.9,71.9 121.9,75.9 117.9,71.9" fill="#4dd88a"/>
<polygon points="143.1,76.1 147.1,80.1 143.1,84.1 139.1,80.1" fill="#4dd88a"/>
<polygon points="194.7,99.7 198.7,103.7 194.7,107.7 190.7,103.7" fill="#4dd88a"/>
<polygon points="247.0,126.2 251.0,130.2 247.0,134.2 243.0,130.2" fill="#4dd88a"/>
<polygon points="345.3,238.6 349.3,242.6 345.3,246.6 341.3,242.6" fill="#4dd88a"/>
<polygon points="438.2,303.1 442.2,307.1 438.2,311.1 434.2,307.1" fill="#4dd88a"/>
<polyline fill="none" stroke="#ff6b6b" stroke-width="2" points="90.0,69.1 90.1,69.3 90.1,70.2 90.1,71.2 90.2,72.3 90.4,73.2 90.7,73.7 91.4,74.0 92.8,74.1 95.5,74.2 100.9,74.3 110.8,76.2 125.9,82.6 147.0,94.4 168.5,111.3 190.4,136.3 211.9,346.7 211.9,400.8 211.9,521.7 212.0,521.7 212.0,521.7"/>
<polygon points="90.0,64.1 88.9,67.5 85.3,67.6 88.1,69.7 87.1,73.2 90.0,71.1 93.0,73.2 91.9,69.7 94.8,67.6 91.2,67.5" fill="#ff6b6b"/>
<polygon points="90.1,64.3 88.9,67.7 85.3,67.8 88.1,69.9 87.1,73.3 90.1,71.3 93.0,73.3 92.0,69.9 94.8,67.8 91.2,67.7" fill="#ff6b6b"/>
<polygon points="90.1,65.2 88.9,68.5 85.3,68.6 88.2,70.8 87.1,74.2 90.1,72.2 93.0,74.2 92.0,70.8 94.8,68.6 91.2,68.5" fill="#ff6b6b"/>
<polygon points="90.1,66.2 88.9,69.6 85.4,69.7 88.2,71.8 87.2,75.3 90.1,73.2 93.1,75.3 92.0,71.8 94.9,69.7 91.3,69.6" fill="#ff6b6b"/>
<polygon points="90.2,67.3 89.0,70.7 85.5,70.8 88.3,73.0 87.3,76.4 90.2,74.3 93.1,76.4 92.1,73.0 95.0,70.8 91.4,70.7" fill="#ff6b6b"/>
<polygon points="90.4,68.2 89.2,71.6 85.6,71.6 88.5,73.8 87.4,77.2 90.4,75.2 93.3,77.2 92.3,73.8 95.1,71.6 91.6,71.6" fill="#ff6b6b"/>
<polygon points="90.7,68.7 89.5,72.1 86.0,72.2 88.8,74.3 87.8,77.7 90.7,75.7 93.7,77.7 92.6,74.3 95.5,72.2 91.9,72.1" fill="#ff6b6b"/>
<polygon points="91.4,69.0 90.2,72.4 86.6,72.4 89.5,74.6 88.5,78.0 91.4,76.0 94.3,78.0 93.3,74.6 96.2,72.4 92.6,72.4" fill="#ff6b6b"/>
<polygon points="92.8,69.1 91.6,72.5 88.0,72.6 90.9,74.7 89.8,78.2 92.8,76.1 95.7,78.2 94.7,74.7 97.5,72.6 93.9,72.5" fill="#ff6b6b"/>
<polygon points="95.5,69.2 94.3,72.6 90.7,72.6 93.6,74.8 92.5,78.2 95.5,76.2 98.4,78.2 97.4,74.8 100.2,72.6 96.7,72.6" fill="#ff6b6b"/>
<polygon points="100.9,69.3 99.7,72.7 96.1,72.8 99.0,75.0 98.0,78.4 100.9,76.3 103.8,78.4 102.8,75.0 105.7,72.8 102.1,72.7" fill="#ff6b6b"/>
<polygon points="110.8,71.2 109.6,74.5 106.1,74.6 108.9,76.8 107.9,80.2 110.8,78.2 113.7,80.2 112.7,76.8 115.6,74.6 112.0,74.5" fill="#ff6b6b"/>
<polygon points="125.9,77.6 124.8,80.9 121.2,81.0 124.0,83.2 123.0,86.6 125.9,84.6 128.9,86.6 127.8,83.2 130.7,81.0 127.1,80.9" fill="#ff6b6b"/>
<polygon points="147.0,89.4 145.8,92.7 142.2,92.8 145.1,95.0 144.0,98.4 147.0,96.4 149.9,98.4 148.9,95.0 151.7,92.8 148.1,92.7" fill="#ff6b6b"/>
<polygon points="168.5,106.3 167.3,109.7 163.7,109.8 166.6,112.0 165.5,115.4 168.5,113.3 171.4,115.4 170.4,112.0 173.2,109.8 169.6,109.7" fill="#ff6b6b"/>
<polygon points="190.4,131.3 189.2,134.7 185.7,134.8 188.5,137.0 187.5,140.4 190.4,138.3 193.4,140.4 192.3,137.0 195.2,134.8 191.6,134.7" fill="#ff6b6b"/>
<polygon points="211.9,341.7 210.8,345.1 207.2,345.2 210.0,347.3 209.0,350.8 211.9,348.7 214.9,350.8 213.8,347.3 216.7,345.2 213.1,345.1" fill="#ff6b6b"/>
<polygon points="211.9,395.8 210.8,399.2 207.2,399.2 210.0,401.4 209.0,404.8 211.9,402.8 214.9,404.8 213.8,401.4 216.7,399.2 213.1,399.2" fill="#ff6b6b"/>
<polygon points="211.9,516.7 210.8,520.0 207.2,520.1 210.0,522.3 209.0,525.7 211.9,523.7 214.9,525.7 213.8,522.3 216.7,520.1 213.1,520.0" fill="#ff6b6b"/>
<polygon points="212.0,516.7 210.8,520.0 207.2,520.1 210.0,522.3 209.0,525.7 212.0,523.7 214.9,525.7 213.9,522.3 216.7,520.1 213.1,520.0" fill="#ff6b6b"/>
<polygon points="212.0,516.7 210.8,520.0 207.2,520.1 210.1,522.3 209.0,525.7 212.0,523.7 214.9,525.7 213.9,522.3 216.7,520.1 213.1,520.0" fill="#ff6b6b"/>
<polyline fill="none" stroke="#ff922b" stroke-width="2" points="297.3,242.1 320.7,247.6 344.0,248.7 367.2,249.5 390.4,249.7 413.5,250.0 436.6,250.0 459.6,250.0 505.8,250.0 528.9,250.0"/>
<circle cx="297.3" cy="242.1" r="3" fill="#ff922b"/>
<circle cx="320.7" cy="247.6" r="3" fill="#ff922b"/>
<circle cx="344.0" cy="248.7" r="3" fill="#ff922b"/>
<circle cx="367.2" cy="249.5" r="3" fill="#ff922b"/>
<circle cx="390.4" cy="249.7" r="3" fill="#ff922b"/>
<circle cx="413.5" cy="250.0" r="3" fill="#ff922b"/>
<circle cx="436.6" cy="250.0" r="3" fill="#ff922b"/>
<circle cx="459.6" cy="250.0" r="3" fill="#ff922b"/>
<circle cx="505.8" cy="250.0" r="3" fill="#ff922b"/>
<circle cx="528.9" cy="250.0" r="3" fill="#ff922b"/>
<polyline fill="none" stroke="#888888" stroke-width="2" stroke-dasharray="8,5" points="201.3,124.4 234.7,141.6 279.0,164.0 312.5,181.7 346.0,198.3 390.3,220.3 423.8,237.6 457.3,255.3 501.5,280.1 535.0,297.7"/>
<circle cx="201.3" cy="124.4" r="3" fill="#888888"/>
<circle cx="234.7" cy="141.6" r="3" fill="#888888"/>
<circle cx="279.0" cy="164.0" r="3" fill="#888888"/>
<circle cx="312.5" cy="181.7" r="3" fill="#888888"/>
<circle cx="346.0" cy="198.3" r="3" fill="#888888"/>
<circle cx="390.3" cy="220.3" r="3" fill="#888888"/>
<circle cx="423.8" cy="237.6" r="3" fill="#888888"/>
<circle cx="457.3" cy="255.3" r="3" fill="#888888"/>
<circle cx="501.5" cy="280.1" r="3" fill="#888888"/>
<circle cx="535.0" cy="297.7" r="3" fill="#888888"/>
<line x1="886" y1="60" x2="902" y2="60" stroke="#ef4444" stroke-width="2" stroke-dasharray="8,5"/>
<circle cx="894.0" cy="60.0" r="3" fill="#ef4444"/>
<text class="label" x="908" y="64">Theoretical</text>
<line x1="886" y1="78" x2="902" y2="78" stroke="#1a6b3c" stroke-width="2"/>
<polygon points="894.0,74.0 898.0,78.0 894.0,82.0 890.0,78.0" fill="#1a6b3c"/>
<text class="label" x="908" y="82">Grafite</text>
<line x1="886" y1="96" x2="902" y2="96" stroke="#1a3a6b" stroke-width="2"/>
<polygon points="894.0,91.0 892.8,94.4 889.2,94.5 892.1,96.6 891.1,100.0 894.0,98.0 896.9,100.0 895.9,96.6 898.8,94.5 895.2,94.4" fill="#1a3a6b"/>
<text class="label" x="908" y="100">SNARF</text>
<line x1="886" y1="114" x2="902" y2="114" stroke="#111111" stroke-width="2"/>
<rect x="891.0" y="111.0" width="6" height="6" fill="#111111"/>
<text class="label" x="908" y="118">SuRF</text>
<line x1="886" y1="132" x2="902" y2="132" stroke="#111111" stroke-width="2"/>
<polygon points="894.0,128.0 898.0,135.0 890.0,135.0" fill="#111111"/>
<text class="label" x="908" y="136">SuRFHash(8)</text>
<line x1="886" y1="150" x2="902" y2="150" stroke="#111111" stroke-width="2"/>
<polygon points="894.0,146.0 898.0,150.0 894.0,154.0 890.0,150.0" fill="#111111"/>
<text class="label" x="908" y="154">SuRFReal(8)</text>
<line x1="886" y1="168" x2="902" y2="168" stroke="#2a7fff" stroke-width="2"/>
<rect x="891.0" y="165.0" width="6" height="6" fill="#2a7fff"/>
<text class="label" x="908" y="172">Adaptive (t=0)</text>
<line x1="886" y1="186" x2="902" y2="186" stroke="#9b59b6" stroke-width="2"/>
<polygon points="894.0,182.0 898.0,189.0 890.0,189.0" fill="#9b59b6"/>
<text class="label" x="908" y="190">Truncation</text>
<line x1="886" y1="204" x2="902" y2="204" stroke="#4dd88a" stroke-width="2"/>
<polygon points="894.0,200.0 898.0,204.0 894.0,208.0 890.0,204.0" fill="#4dd88a"/>
<text class="label" x="908" y="208">SODA</text>
<line x1="886" y1="222" x2="902" y2="222" stroke="#ff6b6b" stroke-width="2"/>
<polygon points="894.0,217.0 892.8,220.4 889.2,220.5 892.1,222.6 891.1,226.0 894.0,224.0 896.9,226.0 895.9,222.6 898.8,220.5 895.2,220.4" fill="#ff6b6b"/>
<text class="label" x="908" y="226">Hybrid</text>
<line x1="886" y1="240" x2="902" y2="240" stroke="#ff922b" stroke-width="2"/>
<circle cx="894.0" cy="240.0" r="3" fill="#ff922b"/>
<text class="label" x="908" y="244">CDF-ARE</text>
<line x1="886" y1="258" x2="902" y2="258" stroke="#888888" stroke-width="2" stroke-dasharray="8,5"/>
<circle cx="894.0" cy="258.0" r="3" fill="#888888"/>
<text class="label" x="908" y="262">BloomARE</text>
<text x="480" y="590" text-anchor="middle">Bits per Key (BPK)</text>
<text transform="translate(16,295) rotate(-90)" text-anchor="middle">False Positive Rate (FPR)</text>
</svg>
