<svg xmlns="http://www.w3.org/2000/svg" width="1020" height="600" viewBox="0 0 1020 600">
<style>text{font-family:Menlo,Monaco,monospace;font-size:12px;fill:#222} .axis{stroke:#333;stroke-width:1} .grid{stroke:#eee;stroke-width:0.5} .label{font-size:11px;fill:#444}</style>
<text x="510" y="28" text-anchor="middle" style="font-size:14px;font-weight:bold">FPR vs BPK — zipfian (60-bit keys, n=1048576, L=1024)</text>
<line class="axis" x1="90.0" y1="550.0" x2="870.0" y2="550.0"/>
<line class="axis" x1="90.0" y1="40.0" x2="90.0" y2="550.0"/>
<line class="grid" x1="90.0" y1="521.7" x2="870.0" y2="521.7"/>
<text class="label" x="82.0" y="525.7" text-anchor="end">10^-8</text>
<line class="grid" x1="90.0" y1="465.0" x2="870.0" y2="465.0"/>
<text class="label" x="82.0" y="469.0" text-anchor="end">10^-7</text>
<line class="grid" x1="90.0" y1="408.3" x2="870.0" y2="408.3"/>
<text class="label" x="82.0" y="412.3" text-anchor="end">10^-6</text>
<line class="grid" x1="90.0" y1="351.7" x2="870.0" y2="351.7"/>
<text class="label" x="82.0" y="355.7" text-anchor="end">10^-5</text>
<line class="grid" x1="90.0" y1="295.0" x2="870.0" y2="295.0"/>
<text class="label" x="82.0" y="299.0" text-anchor="end">10^-4</text>
<line class="grid" x1="90.0" y1="238.3" x2="870.0" y2="238.3"/>
<text class="label" x="82.0" y="242.3" text-anchor="end">10^-3</text>
<line class="grid" x1="90.0" y1="181.7" x2="870.0" y2="181.7"/>
<text class="label" x="82.0" y="185.7" text-anchor="end">10^-2</text>
<line class="grid" x1="90.0" y1="125.0" x2="870.0" y2="125.0"/>
<text class="label" x="82.0" y="129.0" text-anchor="end">10^-1</text>
<line class="grid" x1="90.0" y1="68.3" x2="870.0" y2="68.3"/>
<text class="label" x="82.0" y="72.3" text-anchor="end">1</text>
<line class="grid" x1="90.0" y1="40.0" x2="90.0" y2="550.0"/>
<text class="label" x="90.0" y="566.0" text-anchor="middle">0</text>
<line class="grid" x1="200.6" y1="40.0" x2="200.6" y2="550.0"/>
<text class="label" x="200.6" y="566.0" text-anchor="middle">5</text>
<line class="grid" x1="311.1" y1="40.0" x2="311.1" y2="550.0"/>
<text class="label" x="311.1" y="566.0" text-anchor="middle">10</text>
<line class="grid" x1="421.7" y1="40.0" x2="421.7" y2="550.0"/>
<text class="label" x="421.7" y="566.0" text-anchor="middle">15</text>
<line class="grid" x1="532.2" y1="40.0" x2="532.2" y2="550.0"/>
<text class="label" x="532.2" y="566.0" text-anchor="middle">20</text>
<line class="grid" x1="642.8" y1="40.0" x2="642.8" y2="550.0"/>
<text class="label" x="642.8" y="566.0" text-anchor="middle">25</text>
<line class="grid" x1="753.3" y1="40.0" x2="753.3" y2="550.0"/>
<text class="label" x="753.3" y="566.0" text-anchor="middle">30</text>
<line class="grid" x1="863.9" y1="40.0" x2="863.9" y2="550.0"/>
<text class="label" x="863.9" y="566.0" text-anchor="middle">35</text>
<polyline fill="none" stroke="#ef4444" stroke-width="2" stroke-dasharray="8,5" points="311.1,68.3 333.2,85.4 355.3,102.5 377.4,119.5 399.6,136.6 421.7,153.6 443.8,170.7 465.9,187.7 488.0,204.8 510.1,221.9 532.2,238.9 576.4,273.0 620.7,307.2 709.1,375.4 797.5,443.6"/>
<circle cx="311.1" cy="68.3" r="3" fill="#ef4444"/>
<circle cx="333.2" cy="85.4" r="3" fill="#ef4444"/>
<circle cx="355.3" cy="102.5" r="3" fill="#ef4444"/>
<circle cx="377.4" cy="119.5" r="3" fill="#ef4444"/>
<circle cx="399.6" cy="136.6" r="3" fill="#ef4444"/>
<circle cx="421.7" cy="153.6" r="3" fill="#ef4444"/>
<circle cx="443.8" cy="170.7" r="3" fill="#ef4444"/>
<circle cx="465.9" cy="187.7" r="3" fill="#ef4444"/>
<circle cx="488.0" cy="204.8" r="3" fill="#ef4444"/>
<circle cx="510.1" cy="221.9" r="3" fill="#ef4444"/>
<circle cx="532.2" cy="238.9" r="3" fill="#ef4444"/>
<circle cx="576.4" cy="273.0" r="3" fill="#ef4444"/>
<circle cx="620.7" cy="307.2" r="3" fill="#ef4444"/>
<circle cx="709.1" cy="375.4" r="3" fill="#ef4444"/>
<circle cx="797.5" cy="443.6" r="3" fill="#ef4444"/>
<polyline fill="none" stroke="#1a6b3c" stroke-width="2" points="185.4,68.3 233.6,68.3 278.9,74.4 324.8,98.8 375.0,128.8 420.0,162.6 462.7,195.3 507.5,229.3 552.7,265.1"/>
<polygon points="185.4,64.3 189.4,68.3 185.4,72.3 181.4,68.3" fill="#1a6b3c"/>
<polygon points="233.6,64.3 237.6,68.3 233.6,72.3 229.6,68.3" fill="#1a6b3c"/>
<polygon points="278.9,70.4 282.9,74.4 278.9,78.4 274.9,74.4" fill="#1a6b3c"/>
<polygon points="324.8,94.8 328.8,98.8 324.8,102.8 320.8,98.8" fill="#1a6b3c"/>
<polygon points="375.0,124.8 379.0,128.8 375.0,132.8 371.0,128.8" fill="#1a6b3c"/>
<polygon points="420.0,158.6 424.0,162.6 420.0,166.6 416.0,162.6" fill="#1a6b3c"/>
<polygon points="462.7,191.3 466.7,195.3 462.7,199.3 458.7,195.3" fill="#1a6b3c"/>
<polygon points="507.5,225.3 511.5,229.3 507.5,233.3 503.5,229.3" fill="#1a6b3c"/>
<polygon points="552.7,261.1 556.7,265.1 552.7,269.1 548.7,265.1" fill="#1a6b3c"/>
<polyline fill="none" stroke="#1a3a6b" stroke-width="2" points="164.6,160.8 208.6,175.6 253.0,182.9 297.4,184.9 341.5,185.7 385.5,185.7 429.9,185.8 474.3,185.8 518.3,185.8"/>
<polygon points="164.6,155.8 163.4,159.2 159.8,159.3 162.7,161.4 161.6,164.9 164.6,162.8 167.5,164.9 166.5,161.4 169.3,159.3 165.7,159.2" fill="#1a3a6b"/>
<polygon points="208.6,170.6 207.4,174.0 203.9,174.1 206.7,176.2 205.7,179.7 208.6,177.6 211.6,179.7 210.5,176.2 213.4,174.1 209.8,174.0" fill="#1a3a6b"/>
<polygon points="253.0,177.9 251.8,181.3 248.3,181.4 251.1,183.5 250.1,187.0 253.0,184.9 256.0,187.0 254.9,183.5 257.8,181.4 254.2,181.3" fill="#1a3a6b"/>
<polygon points="297.4,179.9 296.2,183.2 292.6,183.3 295.5,185.5 294.5,188.9 297.4,186.9 300.3,188.9 299.3,185.5 302.1,183.3 298.6,183.2" fill="#1a3a6b"/>
<polygon points="341.5,180.7 340.3,184.1 336.7,184.1 339.6,186.3 338.5,189.7 341.5,187.7 344.4,189.7 343.4,186.3 346.2,184.1 342.6,184.1" fill="#1a3a6b"/>
<polygon points="385.5,180.7 384.3,184.1 380.8,184.2 383.6,186.4 382.6,189.8 385.5,187.7 388.4,189.8 387.4,186.4 390.3,184.2 386.7,184.1" fill="#1a3a6b"/>
<polygon points="429.9,180.8 428.7,184.2 425.1,184.2 428.0,186.4 427.0,189.8 429.9,187.8 432.8,189.8 431.8,186.4 434.7,184.2 431.1,184.2" fill="#1a3a6b"/>
<polygon points="474.3,180.8 473.1,184.2 469.5,184.3 472.4,186.4 471.3,189.8 474.3,187.8 477.2,189.8 476.2,186.4 479.0,184.3 475.5,184.2" fill="#1a3a6b"/>
<polygon points="518.3,180.8 517.2,184.2 513.6,184.3 516.4,186.4 515.4,189.9 518.3,187.8 521.3,189.9 520.2,186.4 523.1,184.3 519.5,184.2" fill="#1a3a6b"/>
<polyline fill="none" stroke="#111111" stroke-width="2" points="333.8,521.7"/>
<rect x="330.8" y="518.7" width="6" height="6" fill="#111111"/>
<polyline fill="none" stroke="#111111" stroke-width="2" points="511.8,521.7"/>
<polygon points="511.8,517.7 515.8,524.7 507.8,524.7" fill="#111111"/>
<polyline fill="none" stroke="#111111" stroke-width="2" points="511.8,521.7"/>
<polygon points="511.8,517.7 515.8,521.7 511.8,525.7 507.8,521.7" fill="#111111"/>
<polyline fill="none" stroke="#2a7fff" stroke-width="2" points="90.0,68.4 90.0,68.4 90.0,68.4 90.0,68.4 90.0,68.4 90.0,68.4 90.1,68.4 90.1,68.4 90.3,68.4 90.5,68.4 91.0,68.4 92.1,68.4 94.1,68.4 98.3,68.4 106.4,68.4 120.4,68.4 140.6,68.4 189.7,68.4 239.5,68.4 333.2,97.2 421.7,162.3"/>
<rect x="87.0" y="65.4" width="6" height="6" fill="#2a7fff"/>
<rect x="87.0" y="65.4" width="6" height="6" fill="#2a7fff"/>
<rect x="87.0" y="65.4" width="6" height="6" fill="#2a7fff"/>
<rect x="87.0" y="65.4" width="6" height="6" fill="#2a7fff"/>
<rect x="87.0" y="65.4" width="6" height="6" fill="#2a7fff"/>
<rect x="87.0" y="65.4" width="6" height="6" fill="#2a7fff"/>
<rect x="87.1" y="65.4" width="6" height="6" fill="#2a7fff"/>
<rect x="87.1" y="65.4" width="6" height="6" fill="#2a7fff"/>
<rect x="87.3" y="65.4" width="6" height="6" fill="#2a7fff"/>
<rect x="87.5" y="65.4" width="6" height="6" fill="#2a7fff"/>
<rect x="88.0" y="65.4" width="6" height="6" fill="#2a7fff"/>
<rect x="89.1" y="65.4" width="6" height="6" fill="#2a7fff"/>
<rect x="91.1" y="65.4" width="6" height="6" fill="#2a7fff"/>
<rect x="95.3" y="65.4" width="6" height="6" fill="#2a7fff"/>
<rect x="103.4" y="65.4" width="6" height="6" fill="#2a7fff"/>
<rect x="117.4" y="65.4" width="6" height="6" fill="#2a7fff"/>
<rect x="137.6" y="65.4" width="6" height="6" fill="#2a7fff"/>
<rect x="186.7" y="65.4" width="6" height="6" fill="#2a7fff"/>
<rect x="236.5" y="65.4" width="6" height="6" fill="#2a7fff"/>
<rect x="330.2" y="94.2" width="6" height="6" fill="#2a7fff"/>
<rect x="418.7" y="159.3" width="6" height="6" fill="#2a7fff"/>
<polyline fill="none" stroke="#9b59b6" stroke-width="2" points="90.0,68.4 90.0,69.2 90.0,75.5 90.0,83.5 90.0,95.8 90.0,110.7 90.0,126.6 90.0,143.5 90.0,160.2 90.0,176.9 90.0,193.4 90.0,210.5 90.0,227.7 90.0,242.8 90.0,263.3 90.0,282.6 90.0,297.9 90.0,311.6 90.0,311.6 90.1,311.6 90.1,311.6"/>
<polygon points="90.0,64.4 94.0,71.4 86.0,71.4" fill="#9b59b6"/>
<polygon points="90.0,65.2 94.0,72.2 86.0,72.2" fill="#9b59b6"/>
<polygon points="90.0,71.5 94.0,78.5 86.0,78.5" fill="#9b59b6"/>
<polygon points="90.0,79.5 94.0,86.5 86.0,86.5" fill="#9b59b6"/>
<polygon points="90.0,91.8 94.0,98.8 86.0,98.8" fill="#9b59b6"/>
<polygon points="90.0,106.7 94.0,113.7 86.0,113.7" fill="#9b59b6"/>
<polygon points="90.0,122.6 94.0,129.6 86.0,129.6" fill="#9b59b6"/>
<polygon points="90.0,139.5 94.0,146.5 86.0,146.5" fill="#9b59b6"/>
<polygon points="90.0,156.2 94.0,163.2 86.0,163.2" fill="#9b59b6"/>
<polygon points="90.0,172.9 94.0,179.9 86.0,179.9" fill="#9b59b6"/>
<polygon points="90.0,189.4 94.0,196.4 86.0,196.4" fill="#9b59b6"/>
<polygon points="90.0,206.5 94.0,213.5 86.0,213.5" fill="#9b59b6"/>
<polygon points="90.0,223.7 94.0,230.7 86.0,230.7" fill="#9b59b6"/>
<polygon points="90.0,238.8 94.0,245.8 86.0,245.8" fill="#9b59b6"/>
<polygon points="90.0,259.3 94.0,266.3 86.0,266.3" fill="#9b59b6"/>
<polygon points="90.0,278.6 94.0,285.6 86.0,285.6" fill="#9b59b6"/>
<polygon points="90.0,293.9 94.0,300.9 86.0,300.9" fill="#9b59b6"/>
<polygon points="90.0,307.6 94.0,314.6 86.0,314.6" fill="#9b59b6"/>
<polygon points="90.0,307.6 94.0,314.6 86.0,314.6" fill="#9b59b6"/>
<polygon points="90.1,307.6 94.1,314.6 86.1,314.6" fill="#9b59b6"/>
<polygon points="90.1,307.6 94.1,314.6 86.1,314.6" fill="#9b59b6"/>
<polyline fill="none" stroke="#4dd88a" stroke-width="2" points="90.0,68.3 90.0,68.3 90.0,68.3 90.0,68.3 90.0,68.3 90.0,68.3 90.1,68.3 90.1,68.3 90.3,68.3 90.5,68.3 91.0,68.3 92.1,68.3 94.1,68.3 98.3,68.3 106.4,68.3 120.4,68.3 140.6,68.3 189.7,68.3 239.5,68.4 333.2,97.1 421.7,162.2"/>
<polygon points="90.0,64.3 94.0,68.3 90.0,72.3 86.0,68.3" fill="#4dd88a"/>
<polygon points="90.0,64.3 94.0,68.3 90.0,72.3 86.0,68.3" fill="#4dd88a"/>
<polygon points="90.0,64.3 94.0,68.3 90.0,72.3 86.0,68.3" fill="#4dd88a"/>
<polygon points="90.0,64.3 94.0,68.3 90.0,72.3 86.0,68.3" fill="#4dd88a"/>
<polygon points="90.0,64.3 94.0,68.3 90.0,72.3 86.0,68.3" fill="#4dd88a"/>
<polygon points="90.0,64.3 94.0,68.3 90.0,72.3 86.0,68.3" fill="#4dd88a"/>
<polygon points="90.1,64.3 94.1,68.3 90.1,72.3 86.1,68.3" fill="#4dd88a"/>
<polygon points="90.1,64.3 94.1,68.3 90.1,72.3 86.1,68.3" fill="#4dd88a"/>
<polygon points="90.3,64.3 94.3,68.3 90.3,72.3 86.3,68.3" fill="#4dd88a"/>
<polygon points="90.5,64.3 94.5,68.3 90.5,72.3 86.5,68.3" fill="#4dd88a"/>
<polygon points="91.0,64.3 95.0,68.3 91.0,72.3 87.0,68.3" fill="#4dd88a"/>
<polygon points="92.1,64.3 96.1,68.3 92.1,72.3 88.1,68.3" fill="#4dd88a"/>
<polygon points="94.1,64.3 98.1,68.3 94.1,72.3 90.1,68.3" fill="#4dd88a"/>
<polygon points="98.3,64.3 102.3,68.3 98.3,72.3 94.3,68.3" fill="#4dd88a"/>
<polygon points="106.4,64.3 110.4,68.3 106.4,72.3 102.4,68.3" fill="#4dd88a"/>
<polygon points="120.4,64.3 124.4,68.3 120.4,72.3 116.4,68.3" fill="#4dd88a"/>
<polygon points="140.6,64.3 144.6,68.3 140.6,72.3 136.6,68.3" fill="#4dd88a"/>
<polygon points="189.7,64.3 193.7,68.3 189.7,72.3 185.7,68.3" fill="#4dd88a"/>
<polygon points="239.5,64.4 243.5,68.4 239.5,72.4 235.5,68.4" fill="#4dd88a"/>
<polygon points="333.2,93.1 337.2,97.1 333.2,101.1 329.2,97.1" fill="#4dd88a"/>
<polygon points="421.7,158.2 425.7,162.2 421.7,166.2 417.7,162.2" fill="#4dd88a"/>
<polyline fill="none" stroke="#ff6b6b" stroke-width="2" points="90.0,72.3 90.0,73.2 90.1,78.4 90.1,86.2 90.2,98.3 90.4,113.0 90.7,129.4 91.3,146.1 92.6,162.8 95.2,179.3 100.4,195.9 109.8,214.1 124.2,231.8 144.2,247.4 164.7,268.1 185.6,291.7 206.1,308.7 206.1,362.8 206.1,521.7 206.2,521.7 206.2,521.7"/>
<polygon points="90.0,67.3 88.9,70.7 85.3,70.7 88.1,72.9 87.1,76.3 90.0,74.3 93.0,76.3 91.9,72.9 94.8,70.7 91.2,70.7" fill="#ff6b6b"/>
<polygon points="90.0,68.2 88.9,71.6 85.3,71.7 88.1,73.8 87.1,77.2 90.0,75.2 93.0,77.2 92.0,73.8 94.8,71.7 91.2,71.6" fill="#ff6b6b"/>
<polygon points="90.1,73.4 88.9,76.8 85.3,76.8 88.2,79.0 87.1,82.4 90.1,80.4 93.0,82.4 92.0,79.0 94.8,76.8 91.2,76.8" fill="#ff6b6b"/>
<polygon points="90.1,81.2 88.9,84.6 85.4,84.7 88.2,86.8 87.2,90.3 90.1,88.2 93.1,90.3 92.0,86.8 94.9,84.7 91.3,84.6" fill="#ff6b6b"/>
<polygon points="90.2,93.3 89.0,96.7 85.4,96.8 88.3,98.9 87.3,102.3 90.2,100.3 93.1,102.3 92.1,98.9 95.0,96.8 91.4,96.7" fill="#ff6b6b"/>
<polygon points="90.4,108.0 89.2,111.4 85.6,111.5 88.5,113.6 87.4,117.1 90.4,115.0 93.3,117.1 92.3,113.6 95.1,111.5 91.5,111.4" fill="#ff6b6b"/>
<polygon points="90.7,124.4 89.5,127.8 85.9,127.9 88.8,130.1 87.7,133.5 90.7,131.4 93.6,133.5 92.6,130.1 95.4,127.9 91.9,127.8" fill="#ff6b6b"/>
<polygon points="91.3,141.1 90.2,144.5 86.6,144.5 89.4,146.7 88.4,150.1 91.3,148.1 94.3,150.1 93.2,146.7 96.1,144.5 92.5,144.5" fill="#ff6b6b"/>
<polygon points="92.6,157.8 91.5,161.1 87.9,161.2 90.7,163.4 89.7,166.8 92.6,164.8 95.6,166.8 94.5,163.4 97.4,161.2 93.8,161.1" fill="#ff6b6b"/>
<polygon points="95.2,174.3 94.1,177.7 90.5,177.8 93.3,180.0 92.3,183.4 95.2,181.3 98.2,183.4 97.1,180.0 100.0,177.8 96.4,177.7" fill="#ff6b6b"/>
<polygon points="100.4,190.9 99.2,194.3 95.6,194.4 98.5,196.5 97.4,199.9 100.4,197.9 103.3,199.9 102.3,196.5 105.1,194.4 101.6,194.3" fill="#ff6b6b"/>
<polygon points="109.8,209.1 108.6,212.5 105.1,212.6 107.9,214.7 106.9,218.1 109.8,216.1 112.8,218.1 111.7,214.7 114.6,212.6 111.0,212.5" fill="#ff6b6b"/>
<polygon points="124.2,226.8 123.1,230.2 119.5,230.3 122.3,232.4 121.3,235.9 124.2,233.8 127.2,235.9 126.1,232.4 129.0,230.3 125.4,230.2" fill="#ff6b6b"/>
<polygon points="144.2,242.4 143.1,245.7 139.5,245.8 142.3,248.0 141.3,251.4 144.2,249.4 147.2,251.4 146.1,248.0 149.0,245.8 145.4,245.7" fill="#ff6b6b"/>
<polygon points="164.7,263.1 163.6,266.4 160.0,266.5 162.8,268.7 161.8,272.1 164.7,270.1 167.7,272.1 166.6,268.7 169.5,266.5 165.9,266.4" fill="#ff6b6b"/>
<polygon points="185.6,286.7 184.5,290.1 180.9,290.1 183.7,292.3 182.7,295.7 185.6,293.7 188.6,295.7 187.5,292.3 190.4,290.1 186.8,290.1" fill="#ff6b6b"/>
<polygon points="206.1,303.7 205.0,307.1 201.4,307.2 204.2,309.4 203.2,312.8 206.1,310.7 209.1,312.8 208.0,309.4 210.9,307.2 207.3,307.1" fill="#ff6b6b"/>
<polygon points="206.1,357.8 205.0,361.2 201.4,361.3 204.2,363.4 203.2,366.9 206.1,364.8 209.1,366.9 208.0,363.4 210.9,361.3 207.3,361.2" fill="#ff6b6b"/>
<polygon points="206.1,516.7 205.0,520.0 201.4,520.1 204.2,522.3 203.2,525.7 206.1,523.7 209.1,525.7 208.0,522.3 210.9,520.1 207.3,520.0" fill="#ff6b6b"/>
<polygon points="206.2,516.7 205.0,520.0 201.4,520.1 204.3,522.3 203.2,525.7 206.2,523.7 209.1,525.7 208.1,522.3 210.9,520.1 207.3,520.0" fill="#ff6b6b"/>
<polygon points="206.2,516.7 205.0,520.0 201.4,520.1 204.3,522.3 203.2,525.7 206.2,523.7 209.1,525.7 208.1,522.3 210.9,520.1 207.3,520.0" fill="#ff6b6b"/>
<polyline fill="none" stroke="#ff922b" stroke-width="2" points="442.1,311.6 464.0,311.6 486.0,311.6 508.0,311.6 530.0,311.6 573.9,311.6 595.9,311.6 617.9,311.6 639.9,311.6 661.9,311.6"/>
<circle cx="442.1" cy="311.6" r="3" fill="#ff922b"/>
<circle cx="464.0" cy="311.6" r="3" fill="#ff922b"/>
<circle cx="486.0" cy="311.6" r="3" fill="#ff922b"/>
<circle cx="508.0" cy="311.6" r="3" fill="#ff922b"/>
<circle cx="530.0" cy="311.6" r="3" fill="#ff922b"/>
<circle cx="573.9" cy="311.6" r="3" fill="#ff922b"/>
<circle cx="595.9" cy="311.6" r="3" fill="#ff922b"/>
<circle cx="617.9" cy="311.6" r="3" fill="#ff922b"/>
<circle cx="639.9" cy="311.6" r="3" fill="#ff922b"/>
<circle cx="661.9" cy="311.6" r="3" fill="#ff922b"/>
<polyline fill="none" stroke="#888888" stroke-width="2" stroke-dasharray="8,5" points="512.6,124.7 545.7,141.3 588.6,164.9 620.7,182.0 652.7,199.8 694.9,221.4 726.9,241.2 758.8,253.8 801.0,277.5 832.9,297.9"/>
<circle cx="512.6" cy="124.7" r="3" fill="#888888"/>
<circle cx="545.7" cy="141.3" r="3" fill="#888888"/>
<circle cx="588.6" cy="164.9" r="3" fill="#888888"/>
<circle cx="620.7" cy="182.0" r="3" fill="#888888"/>
<circle cx="652.7" cy="199.8" r="3" fill="#888888"/>
<circle cx="694.9" cy="221.4" r="3" fill="#888888"/>
<circle cx="726.9" cy="241.2" r="3" fill="#888888"/>
<circle cx="758.8" cy="253.8" r="3" fill="#888888"/>
<circle cx="801.0" cy="277.5" r="3" fill="#888888"/>
<circle cx="832.9" cy="297.9" r="3" fill="#888888"/>
<line x1="886" y1="60" x2="902" y2="60" stroke="#ef4444" stroke-width="2" stroke-dasharray="8,5"/>
<circle cx="894.0" cy="60.0" r="3" fill="#ef4444"/>
<text class="label" x="908" y="64">Theoretical</text>
<line x1="886" y1="78" x2="902" y2="78" stroke="#1a6b3c" stroke-width="2"/>
<polygon points="894.0,74.0 898.0,78.0 894.0,82.0 890.0,78.0" fill="#1a6b3c"/>
<text class="label" x="908" y="82">Grafite</text>
<line x1="886" y1="96" x2="902" y2="96" stroke="#1a3a6b" stroke-width="2"/>
<polygon points="894.0,91.0 892.8,94.4 889.2,94.5 892.1,96.6 891.1,100.0 894.0,98.0 896.9,100.0 895.9,96.6 898.8,94.5 895.2,94.4" fill="#1a3a6b"/>
<text class="label" x="908" y="100">SNARF</text>
<line x1="886" y1="114" x2="902" y2="114" stroke="#111111" stroke-width="2"/>
<rect x="891.0" y="111.0" width="6" height="6" fill="#111111"/>
<text class="label" x="908" y="118">SuRF</text>
<line x1="886" y1="132" x2="902" y2="132" stroke="#111111" stroke-width="2"/>
<polygon points="894.0,128.0 898.0,135.0 890.0,135.0" fill="#111111"/>
<text class="label" x="908" y="136">SuRFHash(8)</text>
<line x1="886" y1="150" x2="902" y2="150" stroke="#111111" stroke-width="2"/>
<polygon points="894.0,146.0 898.0,150.0 894.0,154.0 890.0,150.0" fill="#111111"/>
<text class="label" x="908" y="154">SuRFReal(8)</text>
<line x1="886" y1="168" x2="902" y2="168" stroke="#2a7fff" stroke-width="2"/>
<rect x="891.0" y="165.0" width="6" height="6" fill="#2a7fff"/>
<text class="label" x="908" y="172">Adaptive (t=0)</text>
<line x1="886" y1="186" x2="902" y2="186" stroke="#9b59b6" stroke-width="2"/>
<polygon points="894.0,182.0 898.0,189.0 890.0,189.0" fill="#9b59b6"/>
<text class="label" x="908" y="190">Truncation</text>
<line x1="886" y1="204" x2="902" y2="204" stroke="#4dd88a" stroke-width="2"/>
<polygon points="894.0,200.0 898.0,204.0 894.0,208.0 890.0,204.0" fill="#4dd88a"/>
<text class="label" x="908" y="208">SODA</text>
<line x1="886" y1="222" x2="902" y2="222" stroke="#ff6b6b" stroke-width="2"/>
<polygon points="894.0,217.0 892.8,220.4 889.2,220.5 892.1,222.6 891.1,226.0 894.0,224.0 896.9,226.0 895.9,222.6 898.8,220.5 895.2,220.4" fill="#ff6b6b"/>
<text class="label" x="908" y="226">Hybrid</text>
<line x1="886" y1="240" x2="902" y2="240" stroke="#ff922b" stroke-width="2"/>
<circle cx="894.0" cy="240.0" r="3" fill="#ff922b"/>
<text class="label" x="908" y="244">CDF-ARE</text>
<line x1="886" y1="258" x2="902" y2="258" stroke="#888888" stroke-width="2" stroke-dasharray="8,5"/>
<circle cx="894.0" cy="258.0" r="3" fill="#888888"/>
<text class="label" x="908" y="262">BloomARE</text>
<text x="480" y="590" text-anchor="middle">Bits per Key (BPK)</text>
<text transform="translate(16,295) rotate(-90)" text-anchor="middle">False Positive Rate (FPR)</text>
</svg>
