<svg xmlns="http://www.w3.org/2000/svg" width="1020" height="600" viewBox="0 0 1020 600">
<style>text{font-family:Menlo,Monaco,monospace;font-size:12px;fill:#222} .axis{stroke:#333;stroke-width:1} .grid{stroke:#eee;stroke-width:0.5} .label{font-size:11px;fill:#444}</style>
<text x="510" y="28" text-anchor="middle" style="font-size:14px;font-weight:bold">FPR vs BPK — zipfian (60-bit keys, n=1048576, L=128)</text>
<line class="axis" x1="90.0" y1="550.0" x2="870.0" y2="550.0"/>
<line class="axis" x1="90.0" y1="40.0" x2="90.0" y2="550.0"/>
<line class="grid" x1="90.0" y1="521.7" x2="870.0" y2="521.7"/>
<text class="label" x="82.0" y="525.7" text-anchor="end">10^-8</text>
<line class="grid" x1="90.0" y1="465.0" x2="870.0" y2="465.0"/>
<text class="label" x="82.0" y="469.0" text-anchor="end">10^-7</text>
<line class="grid" x1="90.0" y1="408.3" x2="870.0" y2="408.3"/>
<text class="label" x="82.0" y="412.3" text-anchor="end">10^-6</text>
<line class="grid" x1="90.0" y1="351.7" x2="870.0" y2="351.7"/>
<text class="label" x="82.0" y="355.7" text-anchor="end">10^-5</text>
<line class="grid" x1="90.0" y1="295.0" x2="870.0" y2="295.0"/>
<text class="label" x="82.0" y="299.0" text-anchor="end">10^-4</text>
<line class="grid" x1="90.0" y1="238.3" x2="870.0" y2="238.3"/>
<text class="label" x="82.0" y="242.3" text-anchor="end">10^-3</text>
<line class="grid" x1="90.0" y1="181.7" x2="870.0" y2="181.7"/>
<text class="label" x="82.0" y="185.7" text-anchor="end">10^-2</text>
<line class="grid" x1="90.0" y1="125.0" x2="870.0" y2="125.0"/>
<text class="label" x="82.0" y="129.0" text-anchor="end">10^-1</text>
<line class="grid" x1="90.0" y1="68.3" x2="870.0" y2="68.3"/>
<text class="label" x="82.0" y="72.3" text-anchor="end">1</text>
<line class="grid" x1="90.0" y1="40.0" x2="90.0" y2="550.0"/>
<text class="label" x="90.0" y="566.0" text-anchor="middle">0</text>
<line class="grid" x1="206.1" y1="40.0" x2="206.1" y2="550.0"/>
<text class="label" x="206.1" y="566.0" text-anchor="middle">5</text>
<line class="grid" x1="322.1" y1="40.0" x2="322.1" y2="550.0"/>
<text class="label" x="322.1" y="566.0" text-anchor="middle">10</text>
<line class="grid" x1="438.2" y1="40.0" x2="438.2" y2="550.0"/>
<text class="label" x="438.2" y="566.0" text-anchor="middle">15</text>
<line class="grid" x1="554.3" y1="40.0" x2="554.3" y2="550.0"/>
<text class="label" x="554.3" y="566.0" text-anchor="middle">20</text>
<line class="grid" x1="670.4" y1="40.0" x2="670.4" y2="550.0"/>
<text class="label" x="670.4" y="566.0" text-anchor="middle">25</text>
<line class="grid" x1="786.4" y1="40.0" x2="786.4" y2="550.0"/>
<text class="label" x="786.4" y="566.0" text-anchor="middle">30</text>
<polyline fill="none" stroke="#ef4444" stroke-width="2" stroke-dasharray="8,5" points="252.5,68.3 275.7,85.4 298.9,102.5 322.1,119.5 345.4,136.6 368.6,153.6 391.8,170.7 415.0,187.7 438.2,204.8 461.4,221.9 484.6,238.9 507.9,256.0 531.1,273.0 554.3,290.1 600.7,324.2 647.1,358.3 740.0,426.6 832.9,494.8"/>
<circle cx="252.5" cy="68.3" r="3" fill="#ef4444"/>
<circle cx="275.7" cy="85.4" r="3" fill="#ef4444"/>
<circle cx="298.9" cy="102.5" r="3" fill="#ef4444"/>
<circle cx="322.1" cy="119.5" r="3" fill="#ef4444"/>
<circle cx="345.4" cy="136.6" r="3" fill="#ef4444"/>
<circle cx="368.6" cy="153.6" r="3" fill="#ef4444"/>
<circle cx="391.8" cy="170.7" r="3" fill="#ef4444"/>
<circle cx="415.0" cy="187.7" r="3" fill="#ef4444"/>
<circle cx="438.2" cy="204.8" r="3" fill="#ef4444"/>
<circle cx="461.4" cy="221.9" r="3" fill="#ef4444"/>
<circle cx="484.6" cy="238.9" r="3" fill="#ef4444"/>
<circle cx="507.9" cy="256.0" r="3" fill="#ef4444"/>
<circle cx="531.1" cy="273.0" r="3" fill="#ef4444"/>
<circle cx="554.3" cy="290.1" r="3" fill="#ef4444"/>
<circle cx="600.7" cy="324.2" r="3" fill="#ef4444"/>
<circle cx="647.1" cy="358.3" r="3" fill="#ef4444"/>
<circle cx="740.0" cy="426.6" r="3" fill="#ef4444"/>
<circle cx="832.9" cy="494.8" r="3" fill="#ef4444"/>
<polyline fill="none" stroke="#1a6b3c" stroke-width="2" points="190.0,68.3 240.3,72.0 289.5,90.2 335.3,121.5 390.3,153.9 436.8,187.5 483.2,221.8 529.1,253.5 575.8,282.6"/>
<polygon points="190.0,64.3 194.0,68.3 190.0,72.3 186.0,68.3" fill="#1a6b3c"/>
<polygon points="240.3,68.0 244.3,72.0 240.3,76.0 236.3,72.0" fill="#1a6b3c"/>
<polygon points="289.5,86.2 293.5,90.2 289.5,94.2 285.5,90.2" fill="#1a6b3c"/>
<polygon points="335.3,117.5 339.3,121.5 335.3,125.5 331.3,121.5" fill="#1a6b3c"/>
<polygon points="390.3,149.9 394.3,153.9 390.3,157.9 386.3,153.9" fill="#1a6b3c"/>
<polygon points="436.8,183.5 440.8,187.5 436.8,191.5 432.8,187.5" fill="#1a6b3c"/>
<polygon points="483.2,217.8 487.2,221.8 483.2,225.8 479.2,221.8" fill="#1a6b3c"/>
<polygon points="529.1,249.5 533.1,253.5 529.1,257.5 525.1,253.5" fill="#1a6b3c"/>
<polygon points="575.8,278.6 579.8,282.6 575.8,286.6 571.8,282.6" fill="#1a6b3c"/>
<polyline fill="none" stroke="#1a3a6b" stroke-width="2" points="168.3,160.7 214.5,175.5 261.2,182.9 307.7,184.8 354.0,185.6 400.3,185.7 446.9,185.7 493.5,185.7 539.7,185.8"/>
<polygon points="168.3,155.7 167.1,159.1 163.5,159.2 166.4,161.4 165.4,164.8 168.3,162.7 171.2,164.8 170.2,161.4 173.0,159.2 169.5,159.1" fill="#1a3a6b"/>
<polygon points="214.5,170.5 213.4,173.9 209.8,174.0 212.6,176.1 211.6,179.6 214.5,177.5 217.5,179.6 216.4,176.1 219.3,174.0 215.7,173.9" fill="#1a3a6b"/>
<polygon points="261.2,177.9 260.0,181.3 256.4,181.3 259.2,183.5 258.2,186.9 261.2,184.9 264.1,186.9 263.1,183.5 265.9,181.3 262.3,181.3" fill="#1a3a6b"/>
<polygon points="307.7,179.8 306.6,183.2 303.0,183.3 305.8,185.4 304.8,188.8 307.7,186.8 310.7,188.8 309.6,185.4 312.5,183.3 308.9,183.2" fill="#1a3a6b"/>
<polygon points="354.0,180.6 352.8,184.0 349.3,184.1 352.1,186.3 351.1,189.7 354.0,187.6 356.9,189.7 355.9,186.3 358.8,184.1 355.2,184.0" fill="#1a3a6b"/>
<polygon points="400.3,180.7 399.1,184.1 395.5,184.1 398.4,186.3 397.3,189.7 400.3,187.7 403.2,189.7 402.2,186.3 405.0,184.1 401.4,184.1" fill="#1a3a6b"/>
<polygon points="446.9,180.7 445.7,184.1 442.1,184.2 445.0,186.3 443.9,189.8 446.9,187.7 449.8,189.8 448.8,186.3 451.6,184.2 448.0,184.1" fill="#1a3a6b"/>
<polygon points="493.5,180.7 492.3,184.1 488.7,184.2 491.6,186.4 490.5,189.8 493.5,187.7 496.4,189.8 495.4,186.4 498.2,184.2 494.6,184.1" fill="#1a3a6b"/>
<polygon points="539.7,180.8 538.5,184.1 535.0,184.2 537.8,186.4 536.8,189.8 539.7,187.8 542.7,189.8 541.6,186.4 544.5,184.2 540.9,184.1" fill="#1a3a6b"/>
<polyline fill="none" stroke="#111111" stroke-width="2" points="345.9,521.7"/>
<rect x="342.9" y="518.7" width="6" height="6" fill="#111111"/>
<polyline fill="none" stroke="#111111" stroke-width="2" points="532.8,521.7"/>
<polygon points="532.8,517.7 536.8,524.7 528.8,524.7" fill="#111111"/>
<polyline fill="none" stroke="#111111" stroke-width="2" points="532.8,521.7"/>
<polygon points="532.8,517.7 536.8,521.7 532.8,525.7 528.8,521.7" fill="#111111"/>
<polyline fill="none" stroke="#2a7fff" stroke-width="2" points="90.0,68.4 90.0,68.4 90.0,68.4 90.0,68.4 90.0,68.4 90.0,68.4 90.1,68.4 90.1,68.4 90.3,68.4 90.5,68.4 91.1,68.4 92.2,68.4 94.4,68.4 98.7,68.4 107.2,68.4 121.9,68.4 143.1,68.4 194.7,68.4 247.0,72.3 345.3,120.0 438.2,187.8"/>
<rect x="87.0" y="65.4" width="6" height="6" fill="#2a7fff"/>
<rect x="87.0" y="65.4" width="6" height="6" fill="#2a7fff"/>
<rect x="87.0" y="65.4" width="6" height="6" fill="#2a7fff"/>
<rect x="87.0" y="65.4" width="6" height="6" fill="#2a7fff"/>
<rect x="87.0" y="65.4" width="6" height="6" fill="#2a7fff"/>
<rect x="87.0" y="65.4" width="6" height="6" fill="#2a7fff"/>
<rect x="87.1" y="65.4" width="6" height="6" fill="#2a7fff"/>
<rect x="87.1" y="65.4" width="6" height="6" fill="#2a7fff"/>
<rect x="87.3" y="65.4" width="6" height="6" fill="#2a7fff"/>
<rect x="87.5" y="65.4" width="6" height="6" fill="#2a7fff"/>
<rect x="88.1" y="65.4" width="6" height="6" fill="#2a7fff"/>
<rect x="89.2" y="65.4" width="6" height="6" fill="#2a7fff"/>
<rect x="91.4" y="65.4" width="6" height="6" fill="#2a7fff"/>
<rect x="95.7" y="65.4" width="6" height="6" fill="#2a7fff"/>
<rect x="104.2" y="65.4" width="6" height="6" fill="#2a7fff"/>
<rect x="118.9" y="65.4" width="6" height="6" fill="#2a7fff"/>
<rect x="140.1" y="65.4" width="6" height="6" fill="#2a7fff"/>
<rect x="191.7" y="65.4" width="6" height="6" fill="#2a7fff"/>
<rect x="244.0" y="69.3" width="6" height="6" fill="#2a7fff"/>
<rect x="342.3" y="117.0" width="6" height="6" fill="#2a7fff"/>
<rect x="435.2" y="184.8" width="6" height="6" fill="#2a7fff"/>
<polyline fill="none" stroke="#9b59b6" stroke-width="2" points="90.0,68.4 90.0,69.2 90.0,75.5 90.0,83.5 90.0,95.7 90.0,110.6 90.0,126.5 90.0,143.4 90.0,160.1 90.0,176.5 90.0,192.7 90.0,209.2 90.0,225.1 90.0,238.2 90.0,253.8 90.0,265.1 90.0,271.4 90.0,275.3 90.0,275.3 90.1,275.3 90.1,275.3"/>
<polygon points="90.0,64.4 94.0,71.4 86.0,71.4" fill="#9b59b6"/>
<polygon points="90.0,65.2 94.0,72.2 86.0,72.2" fill="#9b59b6"/>
<polygon points="90.0,71.5 94.0,78.5 86.0,78.5" fill="#9b59b6"/>
<polygon points="90.0,79.5 94.0,86.5 86.0,86.5" fill="#9b59b6"/>
<polygon points="90.0,91.7 94.0,98.7 86.0,98.7" fill="#9b59b6"/>
<polygon points="90.0,106.6 94.0,113.6 86.0,113.6" fill="#9b59b6"/>
<polygon points="90.0,122.5 94.0,129.5 86.0,129.5" fill="#9b59b6"/>
<polygon points="90.0,139.4 94.0,146.4 86.0,146.4" fill="#9b59b6"/>
<polygon points="90.0,156.1 94.0,163.1 86.0,163.1" fill="#9b59b6"/>
<polygon points="90.0,172.5 94.0,179.5 86.0,179.5" fill="#9b59b6"/>
<polygon points="90.0,188.7 94.0,195.7 86.0,195.7" fill="#9b59b6"/>
<polygon points="90.0,205.2 94.0,212.2 86.0,212.2" fill="#9b59b6"/>
<polygon points="90.0,221.1 94.0,228.1 86.0,228.1" fill="#9b59b6"/>
<polygon points="90.0,234.2 94.0,241.2 86.0,241.2" fill="#9b59b6"/>
<polygon points="90.0,249.8 94.0,256.8 86.0,256.8" fill="#9b59b6"/>
<polygon points="90.0,261.1 94.0,268.1 86.0,268.1" fill="#9b59b6"/>
<polygon points="90.0,267.4 94.0,274.4 86.0,274.4" fill="#9b59b6"/>
<polygon points="90.0,271.3 94.0,278.3 86.0,278.3" fill="#9b59b6"/>
<polygon points="90.0,271.3 94.0,278.3 86.0,278.3" fill="#9b59b6"/>
<polygon points="90.1,271.3 94.1,278.3 86.1,278.3" fill="#9b59b6"/>
<polygon points="90.1,271.3 94.1,278.3 86.1,278.3" fill="#9b59b6"/>
<polyline fill="none" stroke="#4dd88a" stroke-width="2" points="90.0,68.3 90.0,68.3 90.0,68.3 90.0,68.3 90.0,68.3 90.0,68.3 90.1,68.3 90.1,68.3 90.3,68.3 90.5,68.3 91.1,68.3 92.2,68.3 94.4,68.3 98.7,68.3 107.2,68.3 121.9,68.3 143.1,68.3 194.7,68.3 247.0,72.2 345.3,120.0 438.2,187.7"/>
<polygon points="90.0,64.3 94.0,68.3 90.0,72.3 86.0,68.3" fill="#4dd88a"/>
<polygon points="90.0,64.3 94.0,68.3 90.0,72.3 86.0,68.3" fill="#4dd88a"/>
<polygon points="90.0,64.3 94.0,68.3 90.0,72.3 86.0,68.3" fill="#4dd88a"/>
<polygon points="90.0,64.3 94.0,68.3 90.0,72.3 86.0,68.3" fill="#4dd88a"/>
<polygon points="90.0,64.3 94.0,68.3 90.0,72.3 86.0,68.3" fill="#4dd88a"/>
<polygon points="90.0,64.3 94.0,68.3 90.0,72.3 86.0,68.3" fill="#4dd88a"/>
<polygon points="90.1,64.3 94.1,68.3 90.1,72.3 86.1,68.3" fill="#4dd88a"/>
<polygon points="90.1,64.3 94.1,68.3 90.1,72.3 86.1,68.3" fill="#4dd88a"/>
<polygon points="90.3,64.3 94.3,68.3 90.3,72.3 86.3,68.3" fill="#4dd88a"/>
<polygon points="90.5,64.3 94.5,68.3 90.5,72.3 86.5,68.3" fill="#4dd88a"/>
<polygon points="91.1,64.3 95.1,68.3 91.1,72.3 87.1,68.3" fill="#4dd88a"/>
<polygon points="92.2,64.3 96.2,68.3 92.2,72.3 88.2,68.3" fill="#4dd88a"/>
<polygon points="94.4,64.3 98.4,68.3 94.4,72.3 90.4,68.3" fill="#4dd88a"/>
<polygon points="98.7,64.3 102.7,68.3 98.7,72.3 94.7,68.3" fill="#4dd88a"/>
<polygon points="107.2,64.3 111.2,68.3 107.2,72.3 103.2,68.3" fill="#4dd88a"/>
<polygon points="121.9,64.3 125.9,68.3 121.9,72.3 117.9,68.3" fill="#4dd88a"/>
<polygon points="143.1,64.3 147.1,68.3 143.1,72.3 139.1,68.3" fill="#4dd88a"/>
<polygon points="194.7,64.3 198.7,68.3 194.7,72.3 190.7,68.3" fill="#4dd88a"/>
<polygon points="247.0,68.2 251.0,72.2 247.0,76.2 243.0,72.2" fill="#4dd88a"/>
<polygon points="345.3,116.0 349.3,120.0 345.3,124.0 341.3,120.0" fill="#4dd88a"/>
<polygon points="438.2,183.7 442.2,187.7 438.2,191.7 434.2,187.7" fill="#4dd88a"/>
<polyline fill="none" stroke="#ff6b6b" stroke-width="2" points="90.0,72.3 90.1,73.2 90.1,78.4 90.1,86.2 90.2,98.3 90.4,113.0 90.7,129.4 91.4,146.0 92.8,162.6 95.5,179.0 100.9,195.2 110.8,212.6 125.9,228.8 147.0,241.9 168.5,256.9 190.4,269.1 211.9,308.7 211.9,362.8 211.9,521.7 212.0,521.7 212.0,521.7"/>
<polygon points="90.0,67.3 88.9,70.7 85.3,70.7 88.1,72.9 87.1,76.3 90.0,74.3 93.0,76.3 91.9,72.9 94.8,70.7 91.2,70.7" fill="#ff6b6b"/>
<polygon points="90.1,68.2 88.9,71.6 85.3,71.7 88.1,73.8 87.1,77.2 90.1,75.2 93.0,77.2 92.0,73.8 94.8,71.7 91.2,71.6" fill="#ff6b6b"/>
<polygon points="90.1,73.4 88.9,76.8 85.3,76.8 88.2,79.0 87.1,82.4 90.1,80.4 93.0,82.4 92.0,79.0 94.8,76.8 91.2,76.8" fill="#ff6b6b"/>
<polygon points="90.1,81.2 88.9,84.6 85.4,84.7 88.2,86.8 87.2,90.3 90.1,88.2 93.1,90.3 92.0,86.8 94.9,84.7 91.3,84.6" fill="#ff6b6b"/>
<polygon points="90.2,93.3 89.0,96.7 85.5,96.7 88.3,98.9 87.3,102.3 90.2,100.3 93.1,102.3 92.1,98.9 95.0,96.7 91.4,96.7" fill="#ff6b6b"/>
<polygon points="90.4,108.0 89.2,111.4 85.6,111.5 88.5,113.6 87.4,117.1 90.4,115.0 93.3,117.1 92.3,113.6 95.1,111.5 91.6,111.4" fill="#ff6b6b"/>
<polygon points="90.7,124.4 89.5,127.8 86.0,127.9 88.8,130.0 87.8,133.4 90.7,131.4 93.7,133.4 92.6,130.0 95.5,127.9 91.9,127.8" fill="#ff6b6b"/>
<polygon points="91.4,141.0 90.2,144.4 86.6,144.4 89.5,146.6 88.5,150.0 91.4,148.0 94.3,150.0 93.3,146.6 96.2,144.4 92.6,144.4" fill="#ff6b6b"/>
<polygon points="92.8,157.6 91.6,160.9 88.0,161.0 90.9,163.2 89.8,166.6 92.8,164.6 95.7,166.6 94.7,163.2 97.5,161.0 93.9,160.9" fill="#ff6b6b"/>
<polygon points="95.5,174.0 94.3,177.3 90.7,177.4 93.6,179.6 92.5,183.0 95.5,181.0 98.4,183.0 97.4,179.6 100.2,177.4 96.7,177.3" fill="#ff6b6b"/>
<polygon points="100.9,190.2 99.7,193.5 96.1,193.6 99.0,195.8 98.0,199.2 100.9,197.2 103.8,199.2 102.8,195.8 105.7,193.6 102.1,193.5" fill="#ff6b6b"/>
<polygon points="110.8,207.6 109.6,211.0 106.1,211.0 108.9,213.2 107.9,216.6 110.8,214.6 113.7,216.6 112.7,213.2 115.6,211.0 112.0,211.0" fill="#ff6b6b"/>
<polygon points="125.9,223.8 124.8,227.2 121.2,227.2 124.0,229.4 123.0,232.8 125.9,230.8 128.9,232.8 127.8,229.4 130.7,227.2 127.1,227.2" fill="#ff6b6b"/>
<polygon points="147.0,236.9 145.8,240.3 142.2,240.4 145.1,242.5 144.0,246.0 147.0,243.9 149.9,246.0 148.9,242.5 151.7,240.4 148.1,240.3" fill="#ff6b6b"/>
<polygon points="168.5,251.9 167.3,255.3 163.7,255.3 166.6,257.5 165.5,260.9 168.5,258.9 171.4,260.9 170.4,257.5 173.2,255.3 169.6,255.3" fill="#ff6b6b"/>
<polygon points="190.4,264.1 189.2,267.5 185.7,267.6 188.5,269.8 187.5,273.2 190.4,271.1 193.4,273.2 192.3,269.8 195.2,267.6 191.6,267.5" fill="#ff6b6b"/>
<polygon points="211.9,303.7 210.8,307.1 207.2,307.2 210.0,309.4 209.0,312.8 211.9,310.7 214.9,312.8 213.8,309.4 216.7,307.2 213.1,307.1" fill="#ff6b6b"/>
<polygon points="211.9,357.8 210.8,361.2 207.2,361.3 210.0,363.4 209.0,366.9 211.9,364.8 214.9,366.9 213.8,363.4 216.7,361.3 213.1,361.2" fill="#ff6b6b"/>
<polygon points="211.9,516.7 210.8,520.0 207.2,520.1 210.0,522.3 209.0,525.7 211.9,523.7 214.9,525.7 213.8,522.3 216.7,520.1 213.1,520.0" fill="#ff6b6b"/>
<polygon points="212.0,516.7 210.8,520.0 207.2,520.1 210.0,522.3 209.0,525.7 212.0,523.7 214.9,525.7 213.9,522.3 216.7,520.1 213.1,520.0" fill="#ff6b6b"/>
<polygon points="212.0,516.7 210.8,520.0 207.2,520.1 210.1,522.3 209.0,525.7 212.0,523.7 214.9,525.7 213.9,522.3 216.7,520.1 213.1,520.0" fill="#ff6b6b"/>
<polyline fill="none" stroke="#ff922b" stroke-width="2" points="390.4,299.7 413.5,311.6 436.6,311.6 459.6,311.6 482.7,311.6 528.9,311.6 551.9,311.6 575.0,311.6 598.1,311.6 621.2,311.6"/>
<circle cx="390.4" cy="299.7" r="3" fill="#ff922b"/>
<circle cx="413.5" cy="311.6" r="3" fill="#ff922b"/>
<circle cx="436.6" cy="311.6" r="3" fill="#ff922b"/>
<circle cx="459.6" cy="311.6" r="3" fill="#ff922b"/>
<circle cx="482.7" cy="311.6" r="3" fill="#ff922b"/>
<circle cx="528.9" cy="311.6" r="3" fill="#ff922b"/>
<circle cx="551.9" cy="311.6" r="3" fill="#ff922b"/>
<circle cx="575.0" cy="311.6" r="3" fill="#ff922b"/>
<circle cx="598.1" cy="311.6" r="3" fill="#ff922b"/>
<circle cx="621.2" cy="311.6" r="3" fill="#ff922b"/>
<polyline fill="none" stroke="#888888" stroke-width="2" stroke-dasharray="8,5" points="433.2,124.6 468.0,141.8 513.0,165.3 546.7,181.3 580.3,199.7 624.7,221.1 658.2,238.1 691.7,254.7 736.0,275.3 769.5,294.6"/>
<circle cx="433.2" cy="124.6" r="3" fill="#888888"/>
<circle cx="468.0" cy="141.8" r="3" fill="#888888"/>
<circle cx="513.0" cy="165.3" r="3" fill="#888888"/>
<circle cx="546.7" cy="181.3" r="3" fill="#888888"/>
<circle cx="580.3" cy="199.7" r="3" fill="#888888"/>
<circle cx="624.7" cy="221.1" r="3" fill="#888888"/>
<circle cx="658.2" cy="238.1" r="3" fill="#888888"/>
<circle cx="691.7" cy="254.7" r="3" fill="#888888"/>
<circle cx="736.0" cy="275.3" r="3" fill="#888888"/>
<circle cx="769.5" cy="294.6" r="3" fill="#888888"/>
<line x1="886" y1="60" x2="902" y2="60" stroke="#ef4444" stroke-width="2" stroke-dasharray="8,5"/>
<circle cx="894.0" cy="60.0" r="3" fill="#ef4444"/>
<text class="label" x="908" y="64">Theoretical</text>
<line x1="886" y1="78" x2="902" y2="78" stroke="#1a6b3c" stroke-width="2"/>
<polygon points="894.0,74.0 898.0,78.0 894.0,82.0 890.0,78.0" fill="#1a6b3c"/>
<text class="label" x="908" y="82">Grafite</text>
<line x1="886" y1="96" x2="902" y2="96" stroke="#1a3a6b" stroke-width="2"/>
<polygon points="894.0,91.0 892.8,94.4 889.2,94.5 892.1,96.6 891.1,100.0 894.0,98.0 896.9,100.0 895.9,96.6 898.8,94.5 895.2,94.4" fill="#1a3a6b"/>
<text class="label" x="908" y="100">SNARF</text>
<line x1="886" y1="114" x2="902" y2="114" stroke="#111111" stroke-width="2"/>
<rect x="891.0" y="111.0" width="6" height="6" fill="#111111"/>
<text class="label" x="908" y="118">SuRF</text>
<line x1="886" y1="132" x2="902" y2="132" stroke="#111111" stroke-width="2"/>
<polygon points="894.0,128.0 898.0,135.0 890.0,135.0" fill="#111111"/>
<text class="label" x="908" y="136">SuRFHash(8)</text>
<line x1="886" y1="150" x2="902" y2="150" stroke="#111111" stroke-width="2"/>
<polygon points="894.0,146.0 898.0,150.0 894.0,154.0 890.0,150.0" fill="#111111"/>
<text class="label" x="908" y="154">SuRFReal(8)</text>
<line x1="886" y1="168" x2="902" y2="168" stroke="#2a7fff" stroke-width="2"/>
<rect x="891.0" y="165.0" width="6" height="6" fill="#2a7fff"/>
<text class="label" x="908" y="172">Adaptive (t=0)</text>
<line x1="886" y1="186" x2="902" y2="186" stroke="#9b59b6" stroke-width="2"/>
<polygon points="894.0,182.0 898.0,189.0 890.0,189.0" fill="#9b59b6"/>
<text class="label" x="908" y="190">Truncation</text>
<line x1="886" y1="204" x2="902" y2="204" stroke="#4dd88a" stroke-width="2"/>
<polygon points="894.0,200.0 898.0,204.0 894.0,208.0 890.0,204.0" fill="#4dd88a"/>
<text class="label" x="908" y="208">SODA</text>
<line x1="886" y1="222" x2="902" y2="222" stroke="#ff6b6b" stroke-width="2"/>
<polygon points="894.0,217.0 892.8,220.4 889.2,220.5 892.1,222.6 891.1,226.0 894.0,224.0 896.9,226.0 895.9,222.6 898.8,220.5 895.2,220.4" fill="#ff6b6b"/>
<text class="label" x="908" y="226">Hybrid</text>
<line x1="886" y1="240" x2="902" y2="240" stroke="#ff922b" stroke-width="2"/>
<circle cx="894.0" cy="240.0" r="3" fill="#ff922b"/>
<text class="label" x="908" y="244">CDF-ARE</text>
<line x1="886" y1="258" x2="902" y2="258" stroke="#888888" stroke-width="2" stroke-dasharray="8,5"/>
<circle cx="894.0" cy="258.0" r="3" fill="#888888"/>
<text class="label" x="908" y="262">BloomARE</text>
<text x="480" y="590" text-anchor="middle">Bits per Key (BPK)</text>
<text transform="translate(16,295) rotate(-90)" text-anchor="middle">False Positive Rate (FPR)</text>
</svg>
