<svg xmlns="http://www.w3.org/2000/svg" width="1020" height="600" viewBox="0 0 1020 600">
<style>text{font-family:Menlo,Monaco,monospace;font-size:12px;fill:#222} .axis{stroke:#333;stroke-width:1} .grid{stroke:#eee;stroke-width:0.5} .label{font-size:11px;fill:#444}</style>
<text x="510" y="28" text-anchor="middle" style="font-size:14px;font-weight:bold">FPR vs BPK — zipfian (60-bit keys, n=1048576, L=16)</text>
<line class="axis" x1="90.0" y1="550.0" x2="870.0" y2="550.0"/>
<line class="axis" x1="90.0" y1="40.0" x2="90.0" y2="550.0"/>
<line class="grid" x1="90.0" y1="521.7" x2="870.0" y2="521.7"/>
<text class="label" x="82.0" y="525.7" text-anchor="end">10^-8</text>
<line class="grid" x1="90.0" y1="465.0" x2="870.0" y2="465.0"/>
<text class="label" x="82.0" y="469.0" text-anchor="end">10^-7</text>
<line class="grid" x1="90.0" y1="408.3" x2="870.0" y2="408.3"/>
<text class="label" x="82.0" y="412.3" text-anchor="end">10^-6</text>
<line class="grid" x1="90.0" y1="351.7" x2="870.0" y2="351.7"/>
<text class="label" x="82.0" y="355.7" text-anchor="end">10^-5</text>
<line class="grid" x1="90.0" y1="295.0" x2="870.0" y2="295.0"/>
<text class="label" x="82.0" y="299.0" text-anchor="end">10^-4</text>
<line class="grid" x1="90.0" y1="238.3" x2="870.0" y2="238.3"/>
<text class="label" x="82.0" y="242.3" text-anchor="end">10^-3</text>
<line class="grid" x1="90.0" y1="181.7" x2="870.0" y2="181.7"/>
<text class="label" x="82.0" y="185.7" text-anchor="end">10^-2</text>
<line class="grid" x1="90.0" y1="125.0" x2="870.0" y2="125.0"/>
<text class="label" x="82.0" y="129.0" text-anchor="end">10^-1</text>
<line class="grid" x1="90.0" y1="68.3" x2="870.0" y2="68.3"/>
<text class="label" x="82.0" y="72.3" text-anchor="end">1</text>
<line class="grid" x1="90.0" y1="40.0" x2="90.0" y2="550.0"/>
<text class="label" x="90.0" y="566.0" text-anchor="middle">0</text>
<line class="grid" x1="206.1" y1="40.0" x2="206.1" y2="550.0"/>
<text class="label" x="206.1" y="566.0" text-anchor="middle">5</text>
<line class="grid" x1="322.1" y1="40.0" x2="322.1" y2="550.0"/>
<text class="label" x="322.1" y="566.0" text-anchor="middle">10</text>
<line class="grid" x1="438.2" y1="40.0" x2="438.2" y2="550.0"/>
<text class="label" x="438.2" y="566.0" text-anchor="middle">15</text>
<line class="grid" x1="554.3" y1="40.0" x2="554.3" y2="550.0"/>
<text class="label" x="554.3" y="566.0" text-anchor="middle">20</text>
<line class="grid" x1="670.4" y1="40.0" x2="670.4" y2="550.0"/>
<text class="label" x="670.4" y="566.0" text-anchor="middle">25</text>
<line class="grid" x1="786.4" y1="40.0" x2="786.4" y2="550.0"/>
<text class="label" x="786.4" y="566.0" text-anchor="middle">30</text>
<polyline fill="none" stroke="#ef4444" stroke-width="2" stroke-dasharray="8,5" points="182.9,68.3 206.1,85.4 229.3,102.5 252.5,119.5 275.7,136.6 298.9,153.6 322.1,170.7 345.4,187.7 368.6,204.8 391.8,221.9 415.0,238.9 438.2,256.0 461.4,273.0 484.6,290.1 507.9,307.2 531.1,324.2 554.3,341.3 600.7,375.4 647.1,409.5 740.0,477.7 832.9,546.0"/>
<circle cx="182.9" cy="68.3" r="3" fill="#ef4444"/>
<circle cx="206.1" cy="85.4" r="3" fill="#ef4444"/>
<circle cx="229.3" cy="102.5" r="3" fill="#ef4444"/>
<circle cx="252.5" cy="119.5" r="3" fill="#ef4444"/>
<circle cx="275.7" cy="136.6" r="3" fill="#ef4444"/>
<circle cx="298.9" cy="153.6" r="3" fill="#ef4444"/>
<circle cx="322.1" cy="170.7" r="3" fill="#ef4444"/>
<circle cx="345.4" cy="187.7" r="3" fill="#ef4444"/>
<circle cx="368.6" cy="204.8" r="3" fill="#ef4444"/>
<circle cx="391.8" cy="221.9" r="3" fill="#ef4444"/>
<circle cx="415.0" cy="238.9" r="3" fill="#ef4444"/>
<circle cx="438.2" cy="256.0" r="3" fill="#ef4444"/>
<circle cx="461.4" cy="273.0" r="3" fill="#ef4444"/>
<circle cx="484.6" cy="290.1" r="3" fill="#ef4444"/>
<circle cx="507.9" cy="307.2" r="3" fill="#ef4444"/>
<circle cx="531.1" cy="324.2" r="3" fill="#ef4444"/>
<circle cx="554.3" cy="341.3" r="3" fill="#ef4444"/>
<circle cx="600.7" cy="375.4" r="3" fill="#ef4444"/>
<circle cx="647.1" cy="409.5" r="3" fill="#ef4444"/>
<circle cx="740.0" cy="477.7" r="3" fill="#ef4444"/>
<circle cx="832.9" cy="546.0" r="3" fill="#ef4444"/>
<polyline fill="none" stroke="#1a6b3c" stroke-width="2" points="188.5,70.1 240.9,88.6 289.8,124.8 343.7,157.6 389.4,194.6 436.6,231.4 481.4,269.2 527.1,139.2 576.0,332.6"/>
<polygon points="188.5,66.1 192.5,70.1 188.5,74.1 184.5,70.1" fill="#1a6b3c"/>
<polygon points="240.9,84.6 244.9,88.6 240.9,92.6 236.9,88.6" fill="#1a6b3c"/>
<polygon points="289.8,120.8 293.8,124.8 289.8,128.8 285.8,124.8" fill="#1a6b3c"/>
<polygon points="343.7,153.6 347.7,157.6 343.7,161.6 339.7,157.6" fill="#1a6b3c"/>
<polygon points="389.4,190.6 393.4,194.6 389.4,198.6 385.4,194.6" fill="#1a6b3c"/>
<polygon points="436.6,227.4 440.6,231.4 436.6,235.4 432.6,231.4" fill="#1a6b3c"/>
<polygon points="481.4,265.2 485.4,269.2 481.4,273.2 477.4,269.2" fill="#1a6b3c"/>
<polygon points="527.1,135.2 531.1,139.2 527.1,143.2 523.1,139.2" fill="#1a6b3c"/>
<polygon points="576.0,328.6 580.0,332.6 576.0,336.6 572.0,332.6" fill="#1a6b3c"/>
<polyline fill="none" stroke="#1a3a6b" stroke-width="2" points="168.3,105.5 214.5,128.0 261.2,137.5 307.7,137.6 354.0,137.7 400.3,137.7 446.9,137.7 493.5,137.7 539.7,137.7"/>
<polygon points="168.3,100.5 167.1,103.9 163.5,103.9 166.4,106.1 165.4,109.5 168.3,107.5 171.2,109.5 170.2,106.1 173.0,103.9 169.5,103.9" fill="#1a3a6b"/>
<polygon points="214.5,123.0 213.4,126.4 209.8,126.5 212.6,128.6 211.6,132.1 214.5,130.0 217.5,132.1 216.4,128.6 219.3,126.5 215.7,126.4" fill="#1a3a6b"/>
<polygon points="261.2,132.5 260.0,135.9 256.4,136.0 259.2,138.1 258.2,141.5 261.2,139.5 264.1,141.5 263.1,138.1 265.9,136.0 262.3,135.9" fill="#1a3a6b"/>
<polygon points="307.7,132.6 306.6,136.0 303.0,136.1 305.8,138.3 304.8,141.7 307.7,139.6 310.7,141.7 309.6,138.3 312.5,136.1 308.9,136.0" fill="#1a3a6b"/>
<polygon points="354.0,132.7 352.8,136.1 349.3,136.2 352.1,138.3 351.1,141.7 354.0,139.7 356.9,141.7 355.9,138.3 358.8,136.2 355.2,136.1" fill="#1a3a6b"/>
<polygon points="400.3,132.7 399.1,136.1 395.5,136.2 398.4,138.3 397.3,141.8 400.3,139.7 403.2,141.8 402.2,138.3 405.0,136.2 401.4,136.1" fill="#1a3a6b"/>
<polygon points="446.9,132.7 445.7,136.1 442.1,136.2 445.0,138.3 443.9,141.8 446.9,139.7 449.8,141.8 448.8,138.3 451.6,136.2 448.0,136.1" fill="#1a3a6b"/>
<polygon points="493.5,132.7 492.3,136.1 488.7,136.2 491.6,138.3 490.5,141.8 493.5,139.7 496.4,141.8 495.4,138.3 498.2,136.2 494.6,136.1" fill="#1a3a6b"/>
<polygon points="539.7,132.7 538.5,136.1 535.0,136.2 537.8,138.3 536.8,141.8 539.7,139.7 542.7,141.8 541.6,138.3 544.5,136.2 540.9,136.1" fill="#1a3a6b"/>
<polyline fill="none" stroke="#111111" stroke-width="2" points="345.9,521.7"/>
<rect x="342.9" y="518.7" width="6" height="6" fill="#111111"/>
<polyline fill="none" stroke="#111111" stroke-width="2" points="532.8,521.7"/>
<polygon points="532.8,517.7 536.8,524.7 528.8,524.7" fill="#111111"/>
<polyline fill="none" stroke="#111111" stroke-width="2" points="532.8,521.7"/>
<polygon points="532.8,517.7 536.8,521.7 532.8,525.7 528.8,521.7" fill="#111111"/>
<polyline fill="none" stroke="#2a7fff" stroke-width="2" points="90.0,68.4 90.0,68.4 90.0,68.4 90.0,68.4 90.0,68.4 90.0,68.4 90.1,68.4 90.1,68.4 90.3,68.4 90.5,68.4 91.1,68.4 92.2,68.4 94.4,68.4 98.7,68.4 107.2,68.4 121.9,68.4 143.1,68.4 194.7,70.2 247.0,83.0 345.3,164.8 438.2,232.6"/>
<rect x="87.0" y="65.4" width="6" height="6" fill="#2a7fff"/>
<rect x="87.0" y="65.4" width="6" height="6" fill="#2a7fff"/>
<rect x="87.0" y="65.4" width="6" height="6" fill="#2a7fff"/>
<rect x="87.0" y="65.4" width="6" height="6" fill="#2a7fff"/>
<rect x="87.0" y="65.4" width="6" height="6" fill="#2a7fff"/>
<rect x="87.0" y="65.4" width="6" height="6" fill="#2a7fff"/>
<rect x="87.1" y="65.4" width="6" height="6" fill="#2a7fff"/>
<rect x="87.1" y="65.4" width="6" height="6" fill="#2a7fff"/>
<rect x="87.3" y="65.4" width="6" height="6" fill="#2a7fff"/>
<rect x="87.5" y="65.4" width="6" height="6" fill="#2a7fff"/>
<rect x="88.1" y="65.4" width="6" height="6" fill="#2a7fff"/>
<rect x="89.2" y="65.4" width="6" height="6" fill="#2a7fff"/>
<rect x="91.4" y="65.4" width="6" height="6" fill="#2a7fff"/>
<rect x="95.7" y="65.4" width="6" height="6" fill="#2a7fff"/>
<rect x="104.2" y="65.4" width="6" height="6" fill="#2a7fff"/>
<rect x="118.9" y="65.4" width="6" height="6" fill="#2a7fff"/>
<rect x="140.1" y="65.4" width="6" height="6" fill="#2a7fff"/>
<rect x="191.7" y="67.2" width="6" height="6" fill="#2a7fff"/>
<rect x="244.0" y="80.0" width="6" height="6" fill="#2a7fff"/>
<rect x="342.3" y="161.8" width="6" height="6" fill="#2a7fff"/>
<rect x="435.2" y="229.6" width="6" height="6" fill="#2a7fff"/>
<polyline fill="none" stroke="#9b59b6" stroke-width="2" points="90.0,68.4 90.0,68.7 90.0,71.6 90.0,74.6 90.0,78.1 90.0,80.9 90.0,82.7 90.0,83.7 90.0,84.2 90.0,84.5 90.0,84.6 90.0,84.7 90.0,84.7 90.0,84.7 90.0,84.7 90.0,84.8 90.0,84.8 90.0,84.8 90.0,84.8 90.1,84.8 90.1,84.8"/>
<polygon points="90.0,64.4 94.0,71.4 86.0,71.4" fill="#9b59b6"/>
<polygon points="90.0,64.7 94.0,71.7 86.0,71.7" fill="#9b59b6"/>
<polygon points="90.0,67.6 94.0,74.6 86.0,74.6" fill="#9b59b6"/>
<polygon points="90.0,70.6 94.0,77.6 86.0,77.6" fill="#9b59b6"/>
<polygon points="90.0,74.1 94.0,81.1 86.0,81.1" fill="#9b59b6"/>
<polygon points="90.0,76.9 94.0,83.9 86.0,83.9" fill="#9b59b6"/>
<polygon points="90.0,78.7 94.0,85.7 86.0,85.7" fill="#9b59b6"/>
<polygon points="90.0,79.7 94.0,86.7 86.0,86.7" fill="#9b59b6"/>
<polygon points="90.0,80.2 94.0,87.2 86.0,87.2" fill="#9b59b6"/>
<polygon points="90.0,80.5 94.0,87.5 86.0,87.5" fill="#9b59b6"/>
<polygon points="90.0,80.6 94.0,87.6 86.0,87.6" fill="#9b59b6"/>
<polygon points="90.0,80.7 94.0,87.7 86.0,87.7" fill="#9b59b6"/>
<polygon points="90.0,80.7 94.0,87.7 86.0,87.7" fill="#9b59b6"/>
<polygon points="90.0,80.7 94.0,87.7 86.0,87.7" fill="#9b59b6"/>
<polygon points="90.0,80.7 94.0,87.7 86.0,87.7" fill="#9b59b6"/>
<polygon points="90.0,80.8 94.0,87.8 86.0,87.8" fill="#9b59b6"/>
<polygon points="90.0,80.8 94.0,87.8 86.0,87.8" fill="#9b59b6"/>
<polygon points="90.0,80.8 94.0,87.8 86.0,87.8" fill="#9b59b6"/>
<polygon points="90.0,80.8 94.0,87.8 86.0,87.8" fill="#9b59b6"/>
<polygon points="90.1,80.8 94.1,87.8 86.1,87.8" fill="#9b59b6"/>
<polygon points="90.1,80.8 94.1,87.8 86.1,87.8" fill="#9b59b6"/>
<polyline fill="none" stroke="#4dd88a" stroke-width="2" points="90.0,68.3 90.0,68.3 90.0,68.3 90.0,68.3 90.0,68.3 90.0,68.3 90.1,68.3 90.1,68.3 90.3,68.3 90.5,68.3 91.1,68.3 92.2,68.3 94.4,68.3 98.7,68.3 107.2,68.3 121.9,68.3 143.1,68.3 194.7,70.2 247.0,82.9 345.3,164.7 438.2,232.6"/>
<polygon points="90.0,64.3 94.0,68.3 90.0,72.3 86.0,68.3" fill="#4dd88a"/>
<polygon points="90.0,64.3 94.0,68.3 90.0,72.3 86.0,68.3" fill="#4dd88a"/>
<polygon points="90.0,64.3 94.0,68.3 90.0,72.3 86.0,68.3" fill="#4dd88a"/>
<polygon points="90.0,64.3 94.0,68.3 90.0,72.3 86.0,68.3" fill="#4dd88a"/>
<polygon points="90.0,64.3 94.0,68.3 90.0,72.3 86.0,68.3" fill="#4dd88a"/>
<polygon points="90.0,64.3 94.0,68.3 90.0,72.3 86.0,68.3" fill="#4dd88a"/>
<polygon points="90.1,64.3 94.1,68.3 90.1,72.3 86.1,68.3" fill="#4dd88a"/>
<polygon points="90.1,64.3 94.1,68.3 90.1,72.3 86.1,68.3" fill="#4dd88a"/>
<polygon points="90.3,64.3 94.3,68.3 90.3,72.3 86.3,68.3" fill="#4dd88a"/>
<polygon points="90.5,64.3 94.5,68.3 90.5,72.3 86.5,68.3" fill="#4dd88a"/>
<polygon points="91.1,64.3 95.1,68.3 91.1,72.3 87.1,68.3" fill="#4dd88a"/>
<polygon points="92.2,64.3 96.2,68.3 92.2,72.3 88.2,68.3" fill="#4dd88a"/>
<polygon points="94.4,64.3 98.4,68.3 94.4,72.3 90.4,68.3" fill="#4dd88a"/>
<polygon points="98.7,64.3 102.7,68.3 98.7,72.3 94.7,68.3" fill="#4dd88a"/>
<polygon points="107.2,64.3 111.2,68.3 107.2,72.3 103.2,68.3" fill="#4dd88a"/>
<polygon points="121.9,64.3 125.9,68.3 121.9,72.3 117.9,68.3" fill="#4dd88a"/>
<polygon points="143.1,64.3 147.1,68.3 143.1,72.3 139.1,68.3" fill="#4dd88a"/>
<polygon points="194.7,66.2 198.7,70.2 194.7,74.2 190.7,70.2" fill="#4dd88a"/>
<polygon points="247.0,78.9 251.0,82.9 247.0,86.9 243.0,82.9" fill="#4dd88a"/>
<polygon points="345.3,160.7 349.3,164.7 345.3,168.7 341.3,164.7" fill="#4dd88a"/>
<polygon points="438.2,228.6 442.2,232.6 438.2,236.6 434.2,232.6" fill="#4dd88a"/>
<polyline fill="none" stroke="#ff6b6b" stroke-width="2" points="90.0,70.2 90.1,70.6 90.1,72.7 90.1,75.5 90.2,78.7 90.4,81.2 90.7,82.9 91.4,83.8 92.8,84.3 95.5,84.5 100.9,84.6 110.8,84.7 125.9,84.7 147.0,84.7 168.5,85.2 190.4,92.2 211.9,326.5 211.9,380.5 211.9,521.7 212.0,521.7 212.0,521.7"/>
<polygon points="90.0,65.2 88.9,68.6 85.3,68.6 88.1,70.8 87.1,74.2 90.0,72.2 93.0,74.2 91.9,70.8 94.8,68.6 91.2,68.6" fill="#ff6b6b"/>
<polygon points="90.1,65.6 88.9,69.0 85.3,69.0 88.1,71.2 87.1,74.6 90.1,72.6 93.0,74.6 92.0,71.2 94.8,69.0 91.2,69.0" fill="#ff6b6b"/>
<polygon points="90.1,67.7 88.9,71.1 85.3,71.2 88.2,73.3 87.1,76.8 90.1,74.7 93.0,76.8 92.0,73.3 94.8,71.2 91.2,71.1" fill="#ff6b6b"/>
<polygon points="90.1,70.5 88.9,73.8 85.4,73.9 88.2,76.1 87.2,79.5 90.1,77.5 93.1,79.5 92.0,76.1 94.9,73.9 91.3,73.8" fill="#ff6b6b"/>
<polygon points="90.2,73.7 89.0,77.0 85.5,77.1 88.3,79.3 87.3,82.7 90.2,80.7 93.1,82.7 92.1,79.3 95.0,77.1 91.4,77.0" fill="#ff6b6b"/>
<polygon points="90.4,76.2 89.2,79.6 85.6,79.7 88.5,81.8 87.4,85.3 90.4,83.2 93.3,85.3 92.3,81.8 95.1,79.7 91.6,79.6" fill="#ff6b6b"/>
<polygon points="90.7,77.9 89.5,81.3 86.0,81.3 88.8,83.5 87.8,86.9 90.7,84.9 93.7,86.9 92.6,83.5 95.5,81.3 91.9,81.3" fill="#ff6b6b"/>
<polygon points="91.4,78.8 90.2,82.2 86.6,82.2 89.5,84.4 88.5,87.8 91.4,85.8 94.3,87.8 93.3,84.4 96.2,82.2 92.6,82.2" fill="#ff6b6b"/>
<polygon points="92.8,79.3 91.6,82.6 88.0,82.7 90.9,84.9 89.8,88.3 92.8,86.3 95.7,88.3 94.7,84.9 97.5,82.7 93.9,82.6" fill="#ff6b6b"/>
<polygon points="95.5,79.5 94.3,82.9 90.7,83.0 93.6,85.1 92.5,88.5 95.5,86.5 98.4,88.5 97.4,85.1 100.2,83.0 96.7,82.9" fill="#ff6b6b"/>
<polygon points="100.9,79.6 99.7,83.0 96.1,83.1 99.0,85.2 98.0,88.7 100.9,86.6 103.8,88.7 102.8,85.2 105.7,83.1 102.1,83.0" fill="#ff6b6b"/>
<polygon points="110.8,79.7 109.6,83.1 106.1,83.1 108.9,85.3 107.9,88.7 110.8,86.7 113.7,88.7 112.7,85.3 115.6,83.1 112.0,83.1" fill="#ff6b6b"/>
<polygon points="125.9,79.7 124.8,83.1 121.2,83.2 124.0,85.3 123.0,88.8 125.9,86.7 128.9,88.8 127.8,85.3 130.7,83.2 127.1,83.1" fill="#ff6b6b"/>
<polygon points="147.0,79.7 145.8,83.1 142.2,83.2 145.1,85.4 144.0,88.8 147.0,86.7 149.9,88.8 148.9,85.4 151.7,83.2 148.1,83.1" fill="#ff6b6b"/>
<polygon points="168.5,80.2 167.3,83.6 163.7,83.7 166.6,85.8 165.5,89.2 168.5,87.2 171.4,89.2 170.4,85.8 173.2,83.7 169.6,83.6" fill="#ff6b6b"/>
<polygon points="190.4,87.2 189.2,90.6 185.7,90.7 188.5,92.9 187.5,96.3 190.4,94.2 193.4,96.3 192.3,92.9 195.2,90.7 191.6,90.6" fill="#ff6b6b"/>
<polygon points="211.9,321.5 210.8,324.8 207.2,324.9 210.0,327.1 209.0,330.5 211.9,328.5 214.9,330.5 213.8,327.1 216.7,324.9 213.1,324.8" fill="#ff6b6b"/>
<polygon points="211.9,375.5 210.8,378.9 207.2,379.0 210.0,381.1 209.0,384.6 211.9,382.5 214.9,384.6 213.8,381.1 216.7,379.0 213.1,378.9" fill="#ff6b6b"/>
<polygon points="211.9,516.7 210.8,520.0 207.2,520.1 210.0,522.3 209.0,525.7 211.9,523.7 214.9,525.7 213.8,522.3 216.7,520.1 213.1,520.0" fill="#ff6b6b"/>
<polygon points="212.0,516.7 210.8,520.0 207.2,520.1 210.0,522.3 209.0,525.7 212.0,523.7 214.9,525.7 213.9,522.3 216.7,520.1 213.1,520.0" fill="#ff6b6b"/>
<polygon points="212.0,516.7 210.8,520.0 207.2,520.1 210.1,522.3 209.0,525.7 212.0,523.7 214.9,525.7 213.9,522.3 216.7,520.1 213.1,520.0" fill="#ff6b6b"/>
<polyline fill="none" stroke="#ff922b" stroke-width="2" points="320.7,251.9 344.0,255.0 367.2,257.4 390.4,258.0 413.5,258.9 459.6,258.9 482.7,258.9 505.8,258.9 528.9,258.9 551.9,258.9"/>
<circle cx="320.7" cy="251.9" r="3" fill="#ff922b"/>
<circle cx="344.0" cy="255.0" r="3" fill="#ff922b"/>
<circle cx="367.2" cy="257.4" r="3" fill="#ff922b"/>
<circle cx="390.4" cy="258.0" r="3" fill="#ff922b"/>
<circle cx="413.5" cy="258.9" r="3" fill="#ff922b"/>
<circle cx="459.6" cy="258.9" r="3" fill="#ff922b"/>
<circle cx="482.7" cy="258.9" r="3" fill="#ff922b"/>
<circle cx="505.8" cy="258.9" r="3" fill="#ff922b"/>
<circle cx="528.9" cy="258.9" r="3" fill="#ff922b"/>
<circle cx="551.9" cy="258.9" r="3" fill="#ff922b"/>
<polyline fill="none" stroke="#888888" stroke-width="2" stroke-dasharray="8,5" points="332.9,124.6 367.6,141.5 412.5,164.5 446.2,181.7 479.9,198.6 524.2,221.2 557.7,238.2 591.2,254.7 635.5,272.4 669.0,301.3"/>
<circle cx="332.9" cy="124.6" r="3" fill="#888888"/>
<circle cx="367.6" cy="141.5" r="3" fill="#888888"/>
<circle cx="412.5" cy="164.5" r="3" fill="#888888"/>
<circle cx="446.2" cy="181.7" r="3" fill="#888888"/>
<circle cx="479.9" cy="198.6" r="3" fill="#888888"/>
<circle cx="524.2" cy="221.2" r="3" fill="#888888"/>
<circle cx="557.7" cy="238.2" r="3" fill="#888888"/>
<circle cx="591.2" cy="254.7" r="3" fill="#888888"/>
<circle cx="635.5" cy="272.4" r="3" fill="#888888"/>
<circle cx="669.0" cy="301.3" r="3" fill="#888888"/>
<line x1="886" y1="60" x2="902" y2="60" stroke="#ef4444" stroke-width="2" stroke-dasharray="8,5"/>
<circle cx="894.0" cy="60.0" r="3" fill="#ef4444"/>
<text class="label" x="908" y="64">Theoretical</text>
<line x1="886" y1="78" x2="902" y2="78" stroke="#1a6b3c" stroke-width="2"/>
<polygon points="894.0,74.0 898.0,78.0 894.0,82.0 890.0,78.0" fill="#1a6b3c"/>
<text class="label" x="908" y="82">Grafite</text>
<line x1="886" y1="96" x2="902" y2="96" stroke="#1a3a6b" stroke-width="2"/>
<polygon points="894.0,91.0 892.8,94.4 889.2,94.5 892.1,96.6 891.1,100.0 894.0,98.0 896.9,100.0 895.9,96.6 898.8,94.5 895.2,94.4" fill="#1a3a6b"/>
<text class="label" x="908" y="100">SNARF</text>
<line x1="886" y1="114" x2="902" y2="114" stroke="#111111" stroke-width="2"/>
<rect x="891.0" y="111.0" width="6" height="6" fill="#111111"/>
<text class="label" x="908" y="118">SuRF</text>
<line x1="886" y1="132" x2="902" y2="132" stroke="#111111" stroke-width="2"/>
<polygon points="894.0,128.0 898.0,135.0 890.0,135.0" fill="#111111"/>
<text class="label" x="908" y="136">SuRFHash(8)</text>
<line x1="886" y1="150" x2="902" y2="150" stroke="#111111" stroke-width="2"/>
<polygon points="894.0,146.0 898.0,150.0 894.0,154.0 890.0,150.0" fill="#111111"/>
<text class="label" x="908" y="154">SuRFReal(8)</text>
<line x1="886" y1="168" x2="902" y2="168" stroke="#2a7fff" stroke-width="2"/>
<rect x="891.0" y="165.0" width="6" height="6" fill="#2a7fff"/>
<text class="label" x="908" y="172">Adaptive (t=0)</text>
<line x1="886" y1="186" x2="902" y2="186" stroke="#9b59b6" stroke-width="2"/>
<polygon points="894.0,182.0 898.0,189.0 890.0,189.0" fill="#9b59b6"/>
<text class="label" x="908" y="190">Truncation</text>
<line x1="886" y1="204" x2="902" y2="204" stroke="#4dd88a" stroke-width="2"/>
<polygon points="894.0,200.0 898.0,204.0 894.0,208.0 890.0,204.0" fill="#4dd88a"/>
<text class="label" x="908" y="208">SODA</text>
<line x1="886" y1="222" x2="902" y2="222" stroke="#ff6b6b" stroke-width="2"/>
<polygon points="894.0,217.0 892.8,220.4 889.2,220.5 892.1,222.6 891.1,226.0 894.0,224.0 896.9,226.0 895.9,222.6 898.8,220.5 895.2,220.4" fill="#ff6b6b"/>
<text class="label" x="908" y="226">Hybrid</text>
<line x1="886" y1="240" x2="902" y2="240" stroke="#ff922b" stroke-width="2"/>
<circle cx="894.0" cy="240.0" r="3" fill="#ff922b"/>
<text class="label" x="908" y="244">CDF-ARE</text>
<line x1="886" y1="258" x2="902" y2="258" stroke="#888888" stroke-width="2" stroke-dasharray="8,5"/>
<circle cx="894.0" cy="258.0" r="3" fill="#888888"/>
<text class="label" x="908" y="262">BloomARE</text>
<text x="480" y="590" text-anchor="middle">Bits per Key (BPK)</text>
<text transform="translate(16,295) rotate(-90)" text-anchor="middle">False Positive Rate (FPR)</text>
</svg>
